<svg width="92" height="80" viewBox="0 0 92 80" fill="none" xmlns="http://www.w3.org/2000/svg">
<rect y="10" width="82" height="70" rx="4" fill="white" fill-opacity="0.1"/>
<path d="M31.9313 35.5484V33.9977C31.5453 33.9977 31.1817 33.9977 30.815 33.9977C30.4 33.9977 30.2713 33.9013 30.2713 33.5891C30.2713 33.3028 30.4257 33.1903 30.8343 33.1903C31.1753 33.1903 31.5163 33.1903 31.8895 33.1903C31.8895 32.9489 31.8992 32.7109 31.8831 32.4729C31.8799 32.4149 31.8091 32.3409 31.748 32.312C31.082 31.9935 30.6895 31.4691 30.5094 30.7581C30.3614 30.163 30.5512 29.896 31.1592 29.896C31.3394 29.896 31.5195 29.896 31.6965 29.896C31.7576 29.896 31.8219 29.8895 31.8831 29.8863C31.8959 29.8702 31.912 29.8541 31.9249 29.8413C31.9249 29.4392 31.9506 29.0338 31.9249 28.6317C31.9024 28.2392 32.2563 28.133 32.52 28.2811C33.1056 28.6124 33.6879 28.9565 34.2701 29.2912C34.2991 29.3073 34.3377 29.3008 34.386 29.3104V27.2773C34.2959 27.2773 34.1994 27.2773 34.1061 27.2773C33.4691 27.2773 32.8321 27.2741 32.1951 27.2773C31.9925 27.2773 31.8348 27.184 31.793 27.0103C31.764 26.8848 31.8059 26.695 31.8895 26.6017C31.9731 26.5084 32.1501 26.4698 32.2884 26.4602C32.6069 26.4409 32.9318 26.4537 33.2793 26.4537C33.2793 26.235 33.2857 26.0291 33.2793 25.8264C33.2568 25.2151 33.6074 24.9964 34.1543 24.9481C34.3313 24.9321 34.5114 24.9481 34.6916 24.9481C34.8621 24.9481 35.0294 24.9481 35.2127 24.9481V23.4651C34.7109 23.4651 34.2122 23.4715 33.7136 23.4651C33.3854 23.4586 33.2085 23.2367 33.2889 22.9471C33.3533 22.7155 33.5399 22.6479 33.7522 22.6383C33.9388 22.6318 34.1286 22.6383 34.357 22.6383C34.3409 21.9724 34.2862 21.2646 35.1902 21.1263C35.2192 20.7499 35.2256 20.3767 35.2771 20.0099C35.3961 19.1478 36.12 18.3853 36.9757 18.1794C37.1591 18.1344 37.2331 18.07 37.2105 17.8867C37.2009 17.7966 37.2073 17.7065 37.2105 17.6164C37.2202 17.3912 37.3778 17.2143 37.5741 17.2014C37.8025 17.1886 37.9987 17.3559 38.0212 17.5907C38.0309 17.6808 38.0212 17.7709 38.0212 17.8609C38.0212 25.6752 38.0212 33.4894 38.0212 41.3037C38.0212 41.4099 38.0212 41.516 38.0212 41.635H44.0339C44.0339 41.5257 44.0339 41.4195 44.0339 41.3165C44.0339 33.5023 44.0339 25.6881 44.0339 17.8738C44.0339 17.7741 44.0372 17.6776 44.0339 17.5778C44.0339 17.3398 44.1755 17.224 44.3878 17.2047C44.6131 17.1854 44.7932 17.3848 44.7932 17.6197C44.7932 17.639 44.7932 17.655 44.7932 17.6743C44.7932 17.9575 44.9218 18.1397 45.1792 18.2212C46.0671 18.5011 46.8328 19.4502 46.7846 20.4185C46.7813 20.4989 46.7846 20.5794 46.7846 20.6598C46.7846 20.9172 46.7073 21.181 47.1287 21.2485C47.4955 21.3064 47.6499 21.6313 47.6467 22.0077C47.6467 22.2233 47.6467 22.4388 47.6467 22.693C47.8784 22.693 48.1067 22.693 48.3352 22.693C48.5764 22.693 48.7663 22.8474 48.7759 23.0533C48.7888 23.256 48.5829 23.4651 48.3416 23.4683C47.8493 23.4747 47.3572 23.4683 46.8457 23.4683V25.006C47.1995 25.006 47.5567 25.0318 47.9105 24.9996C48.4285 24.9546 48.7695 25.331 48.7759 25.8618C48.7759 26.0677 48.7759 26.2736 48.7759 26.5116C49.1201 26.5116 49.4579 26.5116 49.7957 26.5116C50.1045 26.5116 50.2268 26.6178 50.23 26.8784C50.23 27.1454 50.0949 27.2805 49.7925 27.2837C49.0943 27.2869 48.3963 27.2837 47.6757 27.2837V29.2654C48.2419 28.9565 48.8177 28.6349 49.4032 28.3293C49.844 28.0977 50.1207 28.2778 50.1207 28.7764C50.1207 29.1431 50.1207 29.5131 50.1207 29.8799C50.1207 29.896 50.1271 29.9121 50.1399 29.9571C50.452 29.9571 50.7737 29.9571 51.0922 29.9571C51.4172 29.9571 51.5169 30.0601 51.52 30.3785C51.5361 31.2375 51.1372 31.8551 50.3877 32.2381C50.1689 32.3506 50.0917 32.4697 50.1175 32.7013C50.1368 32.8589 50.1207 33.0197 50.1207 33.1999C50.5357 33.1999 50.9282 33.1999 51.3206 33.1999C51.5747 33.1999 51.7388 33.3415 51.7839 33.5763C51.8257 33.7886 51.6681 33.9141 51.4879 33.9881C51.4171 34.0171 51.3303 34.0073 51.2498 34.0073C50.8831 34.0073 50.5196 34.0073 50.1335 34.0073V35.558C50.1335 35.558 50.1625 35.5901 50.1753 35.6062C51.52 35.6062 52.8649 35.6159 54.2096 35.6127C54.4829 35.6127 54.676 35.7028 54.8047 35.9377V36.8512C54.7693 36.9059 54.7082 36.9607 54.7017 37.0186C54.6406 37.6556 54.4186 38.2282 54.0519 38.7494C54.0262 38.7879 54.0165 38.8363 53.9939 38.8973C54.3093 38.8941 54.6245 38.8426 54.8047 39.1643V39.4346C54.7693 39.47 54.7178 39.4989 54.6986 39.544C54.4379 40.1102 54.068 40.5992 53.6176 41.0206C53.386 41.2361 53.1254 41.426 52.8423 41.6576C53.3216 41.6576 53.756 41.6704 54.1903 41.6511C54.4669 41.6383 54.6632 41.738 54.8047 41.9665V42.2367C54.6181 42.4297 54.3929 42.4651 54.1323 42.4651C45.3915 42.4586 36.654 42.4618 27.9132 42.4618C27.8135 42.4618 27.717 42.4651 27.6172 42.4618C27.3631 42.4457 27.2441 42.3235 27.2408 42.0855C27.2376 41.8409 27.3727 41.6769 27.6205 41.6672C28.0226 41.6511 28.4279 41.6608 28.8301 41.6576C28.9202 41.6576 29.0102 41.6576 29.1486 41.6576C29.0199 41.5514 28.9298 41.4614 28.8269 41.3938C28.132 40.9273 27.6816 40.2614 27.2923 39.544C27.1089 39.2093 27.3116 38.9069 27.6912 38.9038C27.7877 38.9038 27.8843 38.9038 28.0033 38.9038C27.9808 38.8298 27.9743 38.7751 27.9486 38.7364C27.3599 37.9033 27.199 36.9574 27.2376 35.9633C27.2441 35.7671 27.4403 35.6255 27.6945 35.6255C28.4472 35.6255 29.2032 35.6255 29.956 35.6255C30.593 35.6255 31.23 35.6192 31.867 35.6159C31.8799 35.5999 31.8959 35.5838 31.9088 35.5677L31.9313 35.5484ZM49.3261 32.534L49.2809 32.489H47.7207C47.7207 32.489 47.6918 32.5179 47.6757 32.534V33.1807H49.3261V32.534ZM32.7517 32.489C32.7517 32.489 32.7227 32.5179 32.7066 32.534V33.1774H34.357V32.534L34.312 32.489H32.7517ZM52.5623 38.8202C52.8165 38.6657 53.135 38.5628 53.3185 38.3473C53.7721 37.8131 53.9876 37.1729 53.9554 36.4621C53.9393 36.446 53.9264 36.433 53.9103 36.4169C53.4632 36.4169 53.0128 36.4169 52.5656 36.4169C52.5527 36.4299 52.5367 36.446 52.5238 36.4588C52.5238 37.2309 52.5238 38.003 52.5238 38.7751C52.5367 38.7911 52.5527 38.804 52.5656 38.8202H52.5623ZM29.5636 38.7783C29.5636 38.0062 29.5636 37.2341 29.5636 36.4621C29.5507 36.4491 29.5346 36.433 29.5217 36.4202C29.0553 36.4202 28.5888 36.4202 28.1223 36.4202C28.1062 36.4363 28.0934 36.4491 28.0773 36.4652C28.0934 36.6389 28.0934 36.8159 28.1255 36.9863C28.2253 37.5011 28.3732 38.0158 28.7496 38.3923C28.9523 38.5917 29.2612 38.6818 29.5217 38.8233C29.5346 38.8105 29.5507 38.7944 29.5636 38.7815V38.7783ZM30.4354 36.4202C30.4354 36.4202 30.4032 36.4491 30.3871 36.4652C30.3871 37.2535 30.3871 38.0449 30.3871 38.833C30.4032 38.8491 30.4193 38.8619 30.4354 38.878H31.9217V36.4234H30.4354V36.4202ZM51.6938 36.4652C51.6938 36.4652 51.6616 36.4363 51.6488 36.4202H50.1625V38.8748H51.6488L51.697 38.833C51.697 38.0449 51.697 37.2535 51.697 36.4652H51.6938ZM46.8007 38.8748C46.8167 38.8619 46.8361 38.8459 46.8521 38.833V36.5618H44.864V38.833C44.8801 38.8459 44.8994 38.8619 44.9155 38.8748H46.8007ZM37.1623 38.8748C37.1784 38.8619 37.1977 38.8459 37.2138 38.833V36.5618H35.2256V38.833C35.2449 38.8459 35.261 38.8619 35.2803 38.8748H37.1623ZM32.8032 38.8748H34.386V34.0106H32.7549C32.7549 35.6255 32.7549 37.2277 32.7549 38.833C32.771 38.8459 32.7871 38.8619 32.8032 38.8748ZM49.2746 38.8748C49.2907 38.8619 49.3067 38.8459 49.3228 38.833V34.0138H47.6821V38.8748H49.2746ZM46.8489 35.7221V27.2966H44.8672V33.3415C45.1342 33.3415 45.3819 33.3415 45.6328 33.3415C45.9289 33.3415 46.0414 33.4379 46.0447 33.6921C46.0447 33.9849 45.9352 34.0942 45.6263 34.0942C45.3691 34.0942 45.1149 34.0942 44.864 34.0942V35.7221H46.8489ZM37.2105 27.2966H35.2288V35.7253H37.2105V34.1489C36.9435 34.1489 36.6862 34.1554 36.4288 34.1489C36.1618 34.1393 35.9848 33.9688 35.9784 33.7371C35.972 33.4733 36.1264 33.3061 36.4191 33.2932C36.6765 33.2804 36.9371 33.2932 37.2105 33.2932V27.2966ZM37.2138 39.7144H28.3926L28.3411 39.7917C28.6885 40.1198 29.0134 40.4737 29.3866 40.7697C30.2134 41.4227 31.1657 41.6801 32.2241 41.6576C33.7908 41.6222 35.3607 41.648 36.9307 41.648H37.2138V39.7144ZM44.8607 41.6447C46.6012 41.6447 48.3159 41.6447 50.0273 41.6447C50.2911 41.6447 50.5582 41.6254 50.8187 41.5772C52.0251 41.3519 52.9677 40.7215 53.6948 39.7081H44.8607V41.648V41.6447ZM32.7163 29.3169C32.7163 29.3169 32.697 29.3458 32.697 29.3619C32.697 29.6579 32.697 29.9539 32.697 30.2499C32.697 30.6327 32.6262 30.7035 32.253 30.7035C31.9539 30.7035 31.6547 30.7035 31.349 30.7035C31.4616 31.2279 31.986 31.6718 32.4654 31.675C32.7613 31.675 33.0573 31.675 33.3533 31.675C33.6879 31.675 34.0256 31.675 34.357 31.675C34.4889 30.2627 33.7747 29.764 32.7163 29.3169ZM50.6804 30.7581C50.3877 30.7581 50.1045 30.7613 49.8214 30.7581C49.4708 30.7517 49.3293 30.6038 49.3293 30.253C49.3293 29.941 49.3293 29.629 49.3293 29.3104C48.1969 29.7512 47.5148 30.3914 47.6853 31.675H49.3711C50.0209 31.675 50.4231 31.4015 50.6836 30.7581H50.6804ZM44.8157 26.4505H47.9684V25.7749H44.8157V26.4505ZM37.1977 26.4569V25.7749H34.1061V26.4569H37.1977ZM37.217 18.9708C36.5414 19.0384 35.8368 19.8073 36.0588 21.1005H37.217V18.9708ZM45.9706 21.1102C46.1605 19.759 45.6103 19.1832 44.8672 18.974V21.1102H45.9706ZM44.8672 23.4972V24.9288H46.0221V23.4972H44.8672ZM37.2105 24.9353V23.5069H36.0588V24.9353H37.2105ZM46.8489 21.9595H44.8189V22.6318H46.8489V21.9595ZM35.1806 22.6383H37.2041V21.9595H35.1806V22.6383Z" fill="#515151"/>
<path d="M27.4795 44.7547C27.4087 44.6292 27.2961 44.5134 27.2736 44.3815C27.235 44.1435 27.4119 43.9666 27.6564 43.9505C27.7369 43.944 27.8173 43.9505 27.8977 43.9505C36.6449 43.9505 45.3953 43.9505 54.1426 43.9473C54.4161 43.9473 54.6605 43.9697 54.8278 44.2207V44.5423C54.757 44.6131 54.6831 44.6872 54.6123 44.758H27.4795V44.7547Z" fill="#515151"/>
<path d="M35.4245 64.692C35.7285 64.74 36.0045 64.864 36.2525 65.064C36.5085 65.264 36.7085 65.512 36.8525 65.808C37.0045 66.104 37.0805 66.42 37.0805 66.756C37.0805 67.18 36.9725 67.564 36.7565 67.908C36.5405 68.244 36.2245 68.512 35.8085 68.712C35.4005 68.904 34.9165 69 34.3565 69H31.2365V60.636H34.2365C34.8045 60.636 35.2885 60.732 35.6885 60.924C36.0885 61.108 36.3885 61.36 36.5885 61.68C36.7885 62 36.8885 62.36 36.8885 62.76C36.8885 63.256 36.7525 63.668 36.4805 63.996C36.2165 64.316 35.8645 64.548 35.4245 64.692ZM32.3285 64.248H34.1645C34.6765 64.248 35.0725 64.128 35.3525 63.888C35.6325 63.648 35.7725 63.316 35.7725 62.892C35.7725 62.468 35.6325 62.136 35.3525 61.896C35.0725 61.656 34.6685 61.536 34.1405 61.536H32.3285V64.248ZM34.2605 68.1C34.8045 68.1 35.2285 67.972 35.5325 67.716C35.8365 67.46 35.9885 67.104 35.9885 66.648C35.9885 66.184 35.8285 65.82 35.5085 65.556C35.1885 65.284 34.7605 65.148 34.2245 65.148H32.3285V68.1H34.2605ZM38.1879 65.688C38.1879 65.016 38.3239 64.428 38.5959 63.924C38.8679 63.412 39.2399 63.016 39.7119 62.736C40.1919 62.456 40.7239 62.316 41.3079 62.316C41.8839 62.316 42.3839 62.44 42.8079 62.688C43.2319 62.936 43.5479 63.248 43.7559 63.624V62.424H44.8599V69H43.7559V67.776C43.5399 68.16 43.2159 68.48 42.7839 68.736C42.3599 68.984 41.8639 69.108 41.2959 69.108C40.7119 69.108 40.1839 68.964 39.7119 68.676C39.2399 68.388 38.8679 67.984 38.5959 67.464C38.3239 66.944 38.1879 66.352 38.1879 65.688ZM43.7559 65.7C43.7559 65.204 43.6559 64.772 43.4559 64.404C43.2559 64.036 42.9839 63.756 42.6399 63.564C42.3039 63.364 41.9319 63.264 41.5239 63.264C41.1159 63.264 40.7439 63.36 40.4079 63.552C40.0719 63.744 39.8039 64.024 39.6039 64.392C39.4039 64.76 39.3039 65.192 39.3039 65.688C39.3039 66.192 39.4039 66.632 39.6039 67.008C39.8039 67.376 40.0719 67.66 40.4079 67.86C40.7439 68.052 41.1159 68.148 41.5239 68.148C41.9319 68.148 42.3039 68.052 42.6399 67.86C42.9839 67.66 43.2559 67.376 43.4559 67.008C43.6559 66.632 43.7559 66.196 43.7559 65.7ZM47.7973 60.12V69H46.7053V60.12H47.7973ZM50.2224 61.356C50.0144 61.356 49.8384 61.284 49.6944 61.14C49.5504 60.996 49.4784 60.82 49.4784 60.612C49.4784 60.404 49.5504 60.228 49.6944 60.084C49.8384 59.94 50.0144 59.868 50.2224 59.868C50.4224 59.868 50.5904 59.94 50.7264 60.084C50.8704 60.228 50.9424 60.404 50.9424 60.612C50.9424 60.82 50.8704 60.996 50.7264 61.14C50.5904 61.284 50.4224 61.356 50.2224 61.356ZM50.7504 62.424V69H49.6584V62.424H50.7504Z" fill="#515151"/>
<rect x="21" width="50" height="15" rx="2" fill="url(#paint0_linear_13_3033)"/>
<path d="M23.8182 5.56534V4.68182H28.4602V5.56534H26.6619V10.5H25.6165V5.56534H23.8182ZM28.8565 10.5V6.13636H29.8537V6.86364H29.8991C29.9787 6.61174 30.1151 6.41761 30.3082 6.28125C30.5033 6.14299 30.7259 6.07386 30.9759 6.07386C31.0327 6.07386 31.0961 6.0767 31.1662 6.08239C31.2382 6.08617 31.2978 6.0928 31.3452 6.10227V7.0483C31.3016 7.03314 31.2325 7.01989 31.1378 7.00852C31.045 6.99527 30.955 6.98864 30.8679 6.98864C30.6804 6.98864 30.5118 7.02936 30.3622 7.1108C30.2145 7.19034 30.098 7.30114 30.0128 7.44318C29.9276 7.58523 29.8849 7.74905 29.8849 7.93466V10.5H28.8565ZM33.7805 10.5852C33.343 10.5852 32.9652 10.4943 32.647 10.3125C32.3307 10.1288 32.0874 9.86932 31.9169 9.53409C31.7464 9.19697 31.6612 8.80019 31.6612 8.34375C31.6612 7.89489 31.7464 7.50095 31.9169 7.16193C32.0893 6.82102 32.3298 6.55587 32.6385 6.36648C32.9472 6.17519 33.3099 6.07955 33.7266 6.07955C33.9955 6.07955 34.2493 6.12311 34.4879 6.21023C34.7285 6.29545 34.9406 6.42803 35.1243 6.60795C35.3099 6.78788 35.4557 7.01705 35.5618 7.29545C35.6679 7.57197 35.7209 7.90152 35.7209 8.28409V8.59943H32.1442V7.90625H34.7351C34.7332 7.70928 34.6906 7.53409 34.6072 7.38068C34.5239 7.22538 34.4074 7.10322 34.2578 7.0142C34.1101 6.92519 33.9377 6.88068 33.7408 6.88068C33.5305 6.88068 33.3459 6.93182 33.1868 7.03409C33.0277 7.13447 32.9036 7.26705 32.8146 7.43182C32.7275 7.5947 32.683 7.77367 32.6811 7.96875V8.57386C32.6811 8.82765 32.7275 9.04545 32.8203 9.22727C32.9131 9.4072 33.0429 9.54545 33.2095 9.64205C33.3762 9.73674 33.5713 9.78409 33.7947 9.78409C33.9444 9.78409 34.0798 9.76326 34.201 9.72159C34.3222 9.67803 34.4273 9.61458 34.5163 9.53125C34.6054 9.44792 34.6726 9.3447 34.718 9.22159L35.6783 9.32955C35.6177 9.58333 35.5021 9.80492 35.3317 9.99432C35.1631 10.1818 34.9472 10.3277 34.6839 10.4318C34.4207 10.5341 34.1196 10.5852 33.7805 10.5852ZM37.6193 7.94318V10.5H36.5909V6.13636H37.5739V6.87784H37.625C37.7254 6.63352 37.8854 6.43939 38.1051 6.29545C38.3267 6.15152 38.6004 6.07955 38.9261 6.07955C39.2273 6.07955 39.4896 6.14394 39.7131 6.27273C39.9384 6.40152 40.1127 6.58807 40.2358 6.83239C40.3608 7.0767 40.4223 7.37311 40.4205 7.72159V10.5H39.392V7.88068C39.392 7.58902 39.3163 7.3608 39.1648 7.19602C39.0152 7.03125 38.8078 6.94886 38.5426 6.94886C38.3627 6.94886 38.2027 6.98864 38.0625 7.06818C37.9242 7.14583 37.8153 7.25852 37.7358 7.40625C37.6581 7.55398 37.6193 7.73295 37.6193 7.94318ZM43.0852 10.5767C42.7424 10.5767 42.4356 10.4886 42.1648 10.3125C41.8939 10.1364 41.6799 9.88068 41.5227 9.54545C41.3655 9.21023 41.2869 8.80303 41.2869 8.32386C41.2869 7.83902 41.3665 7.42992 41.5256 7.09659C41.6866 6.76136 41.9034 6.50852 42.1761 6.33807C42.4489 6.16572 42.7528 6.07955 43.0881 6.07955C43.3438 6.07955 43.554 6.12311 43.7188 6.21023C43.8835 6.29545 44.0142 6.39867 44.1108 6.51989C44.2074 6.6392 44.2822 6.75189 44.3352 6.85795H44.3778V4.68182H45.4091V10.5H44.3977V9.8125H44.3352C44.2822 9.91856 44.2055 10.0312 44.1051 10.1506C44.0047 10.268 43.8722 10.3684 43.7074 10.4517C43.5426 10.535 43.3352 10.5767 43.0852 10.5767ZM43.3722 9.73295C43.59 9.73295 43.7756 9.67424 43.929 9.55682C44.0824 9.4375 44.1989 9.27178 44.2784 9.05966C44.358 8.84754 44.3977 8.60038 44.3977 8.31818C44.3977 8.03598 44.358 7.79072 44.2784 7.58239C44.2008 7.37405 44.0852 7.21212 43.9318 7.09659C43.7803 6.98106 43.5938 6.9233 43.3722 6.9233C43.143 6.9233 42.9517 6.98295 42.7983 7.10227C42.6449 7.22159 42.5294 7.38636 42.4517 7.59659C42.3741 7.80682 42.3352 8.04735 42.3352 8.31818C42.3352 8.59091 42.3741 8.83428 42.4517 9.0483C42.5313 9.26042 42.6477 9.42803 42.8011 9.55114C42.9564 9.67235 43.1468 9.73295 43.3722 9.73295ZM46.505 10.5V6.13636H47.5334V10.5H46.505ZM47.022 5.51705C46.8591 5.51705 46.719 5.46307 46.6016 5.35511C46.4841 5.24526 46.4254 5.11364 46.4254 4.96023C46.4254 4.80492 46.4841 4.6733 46.6016 4.56534C46.719 4.45549 46.8591 4.40057 47.022 4.40057C47.1868 4.40057 47.3269 4.45549 47.4425 4.56534C47.5599 4.6733 47.6186 4.80492 47.6186 4.96023C47.6186 5.11364 47.5599 5.24526 47.4425 5.35511C47.3269 5.46307 47.1868 5.51705 47.022 5.51705ZM49.6193 7.94318V10.5H48.5909V6.13636H49.5739V6.87784H49.625C49.7254 6.63352 49.8854 6.43939 50.1051 6.29545C50.3267 6.15152 50.6004 6.07955 50.9261 6.07955C51.2273 6.07955 51.4896 6.14394 51.7131 6.27273C51.9384 6.40152 52.1127 6.58807 52.2358 6.83239C52.3608 7.0767 52.4223 7.37311 52.4205 7.72159V10.5H51.392V7.88068C51.392 7.58902 51.3163 7.3608 51.1648 7.19602C51.0152 7.03125 50.8078 6.94886 50.5426 6.94886C50.3627 6.94886 50.2027 6.98864 50.0625 7.06818C49.9242 7.14583 49.8153 7.25852 49.7358 7.40625C49.6581 7.55398 49.6193 7.73295 49.6193 7.94318ZM55.3636 12.2273C54.9943 12.2273 54.6771 12.1771 54.4119 12.0767C54.1468 11.9782 53.9337 11.8456 53.7727 11.679C53.6117 11.5123 53.5 11.3277 53.4375 11.125L54.3636 10.9006C54.4053 10.9858 54.4659 11.0701 54.5455 11.1534C54.625 11.2386 54.732 11.3087 54.8665 11.3636C55.0028 11.4205 55.1742 11.4489 55.3807 11.4489C55.6723 11.4489 55.9138 11.3778 56.1051 11.2358C56.2964 11.0956 56.392 10.8646 56.392 10.5426V9.71591H56.3409C56.2879 9.82197 56.2102 9.93087 56.108 10.0426C56.0076 10.1544 55.8741 10.2481 55.7074 10.3239C55.5426 10.3996 55.3352 10.4375 55.0852 10.4375C54.75 10.4375 54.446 10.3589 54.1733 10.2017C53.9025 10.0426 53.6866 9.80587 53.5256 9.49148C53.3665 9.17519 53.2869 8.77936 53.2869 8.30398C53.2869 7.82481 53.3665 7.42045 53.5256 7.09091C53.6866 6.75947 53.9034 6.50852 54.1761 6.33807C54.4489 6.16572 54.7528 6.07955 55.0881 6.07955C55.3438 6.07955 55.554 6.12311 55.7188 6.21023C55.8854 6.29545 56.018 6.39867 56.1165 6.51989C56.215 6.6392 56.2898 6.75189 56.3409 6.85795H56.3977V6.13636H57.4119V10.571C57.4119 10.9441 57.3229 11.2528 57.1449 11.4972C56.9669 11.7415 56.7235 11.9242 56.4148 12.0455C56.1061 12.1667 55.7557 12.2273 55.3636 12.2273ZM55.3722 9.63068C55.59 9.63068 55.7756 9.57765 55.929 9.47159C56.0824 9.36553 56.1989 9.21307 56.2784 9.0142C56.358 8.81534 56.3977 8.5767 56.3977 8.2983C56.3977 8.02367 56.358 7.78314 56.2784 7.5767C56.2008 7.37027 56.0852 7.21023 55.9318 7.09659C55.7803 6.98106 55.5938 6.9233 55.3722 6.9233C55.143 6.9233 54.9517 6.98295 54.7983 7.10227C54.6449 7.22159 54.5294 7.38542 54.4517 7.59375C54.3741 7.80019 54.3352 8.03504 54.3352 8.2983C54.3352 8.56534 54.3741 8.79924 54.4517 9C54.5313 9.19886 54.6477 9.35417 54.8011 9.46591C54.9564 9.57576 55.1468 9.63068 55.3722 9.63068Z" fill="white"/>
<path d="M64.6837 8.63462L64.6881 8.63768L64.6933 8.63875L64.6986 8.63768L64.703 8.63462L66.8784 6.39077C66.8907 6.37805 66.8908 6.36523 66.8786 6.35234L66.2364 5.68422C66.233 5.68063 66.2305 5.67617 66.2292 5.6713C66.2279 5.66642 66.2279 5.66128 66.2291 5.65639C66.2303 5.65149 66.2328 5.64701 66.2362 5.64337C66.2396 5.63972 66.2438 5.63705 66.2485 5.63561C66.9939 5.41129 67.7481 5.2003 68.5111 5.00262C68.5193 5.00041 68.5246 4.99948 68.5269 4.99982C68.5399 5.00118 68.545 5.00771 68.5424 5.01942C68.357 5.80656 68.1582 6.59015 67.9461 7.37017C67.938 7.40003 67.9232 7.40419 67.9017 7.38264L67.2373 6.71885C67.2329 6.71448 67.2271 6.71206 67.221 6.71211C67.215 6.71216 67.2092 6.71467 67.2049 6.7191C66.4791 7.46773 65.7523 8.21763 65.0243 8.96881C64.9098 9.0869 64.7938 9.27958 64.5976 9.19177C64.5673 9.17819 64.5266 9.14477 64.4754 9.09149C64.0905 8.69189 63.6997 8.28873 63.303 7.88201C63.2918 7.87064 63.2807 7.87064 63.2697 7.88201C62.721 8.44687 62.1702 9.0153 61.6175 9.58729C61.5399 9.66772 61.4825 9.71752 61.4455 9.7367C61.2199 9.85301 61.0119 9.54326 61.1947 9.35466C61.8144 8.71598 62.4337 8.07688 63.0525 7.43736C63.1549 7.33173 63.2302 7.26403 63.3675 7.3129C63.4027 7.32545 63.442 7.35455 63.4854 7.4002C63.8825 7.81659 64.2819 8.22807 64.6837 8.63462Z" fill="white" stroke="white" stroke-width="0.212551"/>
<defs>
<linearGradient id="paint0_linear_13_3033" x1="20.5337" y1="5.28912" x2="71.4603" y2="9.77917" gradientUnits="userSpaceOnUse">
<stop stop-color="#C4242B"/>
<stop offset="1" stop-color="#E14249"/>
</linearGradient>
</defs>
</svg>
