<svg width="82" height="70" viewBox="0 0 82 70" fill="none" xmlns="http://www.w3.org/2000/svg">
<rect width="82" height="70" rx="4" fill="white" fill-opacity="0.1"/>
<mask id="mask0_13_2981" style="mask-type:luminance" maskUnits="userSpaceOnUse" x="26" y="6" width="30" height="31">
<path d="M56 6.00098H26V36.001H56V6.00098Z" fill="white"/>
</mask>
<g mask="url(#mask0_13_2981)">
<path d="M30.0029 35.9686V26.521L26.0241 26.41L26.0558 25.2845L25.9766 24.0481L26.1509 24.1273C26.357 24.0957 26.5631 24.064 26.7691 24.0322C26.896 24.0005 27.0069 23.8103 27.0069 23.6993C27.0069 23.4774 27.0069 23.2555 27.0069 23.0335C27.0069 22.9227 27.0386 22.8275 27.1179 22.7641C27.1971 22.6848 27.2923 22.6532 27.3874 22.6532C27.5934 22.6532 27.7678 22.8275 27.7678 23.0335V23.8896L28.9091 23.6993C29.6383 23.5726 30.3358 23.4457 31.0491 23.3347C31.9685 23.1921 32.8721 23.0494 33.7915 22.9068L34.8694 22.7483L35.0279 22.7165C35.5034 22.5898 35.5351 22.5421 35.5351 22.0349V19.4511C35.5351 19.2767 35.5034 19.1499 35.3132 19.039C35.123 18.928 34.9486 18.8011 34.7743 18.6743C34.584 18.5476 34.3938 18.4049 34.1877 18.2939C34.0609 18.2147 33.9817 18.0562 33.9975 17.8976C33.9975 17.8025 33.9975 17.7074 33.9975 17.6123V17.5013L33.8866 17.3587H28.4019L28.5128 15.076C28.9567 14.9809 28.9884 14.9334 28.9884 14.3627V13.9664C28.9884 13.7603 29.1469 13.586 29.3688 13.586C29.6066 13.586 29.781 13.7603 29.781 13.9664V14.9334L37.4532 13.6494L37.5483 13.2372C37.5483 12.8885 37.5483 12.5398 37.5483 12.191C37.5483 12.0959 37.4849 12.0008 37.4215 11.9533C37.3105 11.8423 37.1996 11.7155 37.0886 11.6204C36.6923 11.2716 36.3911 11.0021 36.5813 10.479L36.6289 10.3364H34.4414L34.5523 9.98764C34.5523 9.36942 34.5523 8.76706 34.5523 8.16468C34.8377 8.06958 35.0437 7.99032 35.012 7.67328V7.49892C35.012 7.38796 35.0437 7.29285 35.1071 7.22944C35.1864 7.15018 35.2815 7.11848 35.3925 7.11848C35.6144 7.11848 35.7888 7.29285 35.7888 7.51476V7.92692L40.4651 7.16603L40.5601 6.45271C40.5601 6.24663 40.7345 6.07227 40.9406 6.07227C41.1467 6.07227 41.321 6.24663 41.321 6.45271V7.05507L46.0765 7.94277V7.53063C46.0765 7.3087 46.2509 7.13433 46.4729 7.13433C46.5837 7.13433 46.6789 7.18188 46.7581 7.26114C46.8374 7.3404 46.8691 7.43552 46.8691 7.54647C46.8691 7.81595 46.8691 7.94277 46.9484 8.03788C47.0118 8.10129 47.091 8.13299 47.1861 8.13299L47.408 8.18054L47.3763 10.479L45.4424 10.3681H45.3474V10.5266C45.4107 11.0656 45.2681 11.3984 44.8877 11.6679C44.4596 11.9691 44.2219 12.4922 44.3169 12.9995C44.3329 13.1104 44.3329 13.2372 44.3169 13.3799V13.6018L46.9643 14.1408L52.1318 14.9968V14.014C52.1318 13.8079 52.3063 13.6335 52.5123 13.6335C52.7501 13.6335 52.9086 13.8079 52.9086 14.014V14.9968L53.4793 15.2028L53.3841 17.4855L47.8677 17.3745V17.5489C47.9154 18.0403 47.7885 18.2781 47.424 18.4683C47.313 18.5317 47.202 18.6109 47.091 18.6903C46.9801 18.7695 46.8691 18.8488 46.7423 18.9121C46.5045 19.039 46.3619 19.2767 46.3619 19.5462C46.3619 20.2753 46.3619 20.9887 46.3619 21.7337V22.5898L52.0051 23.5884L54.0657 23.9213V23.0653C54.0657 22.8433 54.2401 22.669 54.4621 22.669C54.684 22.669 54.8583 22.8433 54.8583 23.0653C54.8583 23.2237 54.8583 23.3823 54.8583 23.5408C54.8267 23.8896 54.9852 24.0957 55.3339 24.1273L56.0155 24.1907L55.9205 26.4893L52.0209 26.4258L51.9099 26.7745V35.9369L52.0368 36.0003H30.0029V35.9686ZM41.3844 35.0808L41.4954 35.1602L42.9221 35.1918L43.0806 35.0333V33.5908L41.4954 33.4799H41.3844V35.0968V35.0808ZM38.864 35.0333L39.0225 35.1918H40.3857L40.4334 35.1602L40.5601 35.0333V33.5908L38.975 33.4799H38.864V35.0333ZM30.8113 35.0808L37.9446 35.1918L38.0556 28.6134L37.897 28.4549H30.8113V35.0808ZM43.9841 28.4549L43.9049 28.5499L43.8732 35.0808L51.0223 35.1918L51.1332 28.5816H51.1173L50.9271 28.4391H43.9841V28.4549ZM38.864 32.5605L40.4492 32.6715L40.5601 31.0863L38.975 30.9753H38.864V32.5605ZM41.3685 32.5605L42.9537 32.6715L43.0647 31.0863L41.4795 30.9753H41.3685V32.5605ZM38.864 30.0558L40.4492 30.1668L40.5601 28.5658L38.975 28.4549H38.864V30.0558ZM41.3685 30.0558L42.9537 30.1668L43.0647 28.5816L41.4795 28.4708H41.3685V30.0558ZM30.7638 27.5038L30.9223 27.6623H31.1284H50.7528L50.9905 27.6147L51.0698 26.5527L30.7638 26.4417V27.4879V27.5038ZM36.2009 23.4299C35.8997 23.4299 35.6144 23.4616 35.3132 23.5091C35.3132 23.5091 32.7611 23.9371 32.2063 24.0322C31.7466 24.1115 29.8919 24.381 29.4322 24.4602C28.8299 24.5554 28.2275 24.6663 27.6251 24.7614L26.8643 24.8883L26.7691 25.5382L55.0169 25.6491C55.1754 25.015 55.1437 24.9675 54.6365 24.8566L53.5743 24.6663L48.914 23.9055L47.3288 23.6676C47.0593 23.6201 46.9166 23.6043 46.7581 23.5726C46.4094 23.5091 46.0448 23.4457 45.6961 23.4457C44.1584 23.4457 42.6209 23.4457 41.0833 23.4457H36.2009V23.4299ZM36.3277 22.5105L45.4742 22.6215L45.5851 19.5304L36.3277 19.4194V22.5105ZM34.7901 17.6916C34.8377 17.7867 34.8852 17.8659 34.9645 17.9135C35.2181 18.1037 35.4876 18.2939 35.7571 18.4366C35.9156 18.5317 36.1058 18.5793 36.2643 18.5793H45.6327C45.7278 18.5793 45.8546 18.5793 45.9656 18.4999C46.2667 18.3097 46.5837 18.1037 46.8691 17.8976C46.9484 17.8501 46.9959 17.7708 47.0435 17.6757L47.1703 17.5013L47.0435 17.3745H34.5999L34.806 17.6757L34.7901 17.6916ZM39.2127 14.331C38.1666 14.331 37.1362 14.4895 36.1217 14.648L35.3291 14.7748C34.584 14.8858 33.839 15.0126 33.1098 15.1394L31.8893 15.3455L29.3371 15.7735L29.242 16.4551L52.4965 16.5661L52.6074 15.8845L51.7514 15.6625L49.0884 15.2345L46.5521 14.8066C46.1558 14.7431 45.7595 14.6639 45.3632 14.6163L44.951 14.5529C44.4121 14.4737 43.889 14.3944 43.35 14.3786C43.0647 14.3786 42.7794 14.3786 42.494 14.3786H40.7821C40.4174 14.3786 40.037 14.3786 39.6725 14.3786C39.5298 14.3786 39.3713 14.3786 39.2286 14.3786L39.2127 14.331ZM38.3091 13.4433L43.4135 13.5543L43.5245 12.4764L38.3091 12.3654V13.4433ZM37.3105 10.6376C37.3422 10.7485 37.3739 10.8436 37.4532 10.9229C37.7068 11.2558 38.0081 11.5728 38.5787 11.5728C39.3396 11.5411 40.037 11.5411 40.7503 11.5411C41.5271 11.5411 42.3038 11.5411 43.0806 11.5728C43.5561 11.5728 43.9999 11.5094 44.3169 11.0338C44.3804 10.9387 44.4438 10.8278 44.5073 10.701L44.6975 10.3522H37.1837L37.2947 10.6534L37.3105 10.6376ZM40.8455 7.86351C40.6711 7.86351 40.4809 7.86351 40.3065 7.91106C39.9102 7.99032 39.5139 8.05373 39.1017 8.10129C38.8482 8.13299 38.5787 8.18054 38.3251 8.21224C37.58 8.33906 35.4242 8.7195 35.4242 8.7195L35.3291 9.41697L46.5996 9.52793V9.40113C46.5837 9.16335 46.5837 9.06824 46.5521 8.95727C46.5362 8.87801 46.4411 8.70365 46.3143 8.67195C45.918 8.60854 44.4438 8.37076 44.4438 8.37076L43.7305 8.24394C43.2708 8.16468 42.8111 8.08544 42.3513 8.02203L41.8917 7.95862C41.5429 7.89521 41.1942 7.84766 40.8455 7.84766V7.86351Z" fill="#515151"/>
<path d="M47.4721 33.4482C46.41 33.4482 45.6174 32.4654 45.6016 31.5778C45.6016 31.0864 45.8076 30.5792 46.1881 30.1986C46.5052 29.8658 46.9014 29.6914 47.3136 29.6914C47.377 29.6914 47.488 29.6914 47.488 29.6914C48.1062 29.6914 48.5341 29.8658 48.8828 30.2145C49.2317 30.5633 49.4219 31.0547 49.406 31.5461C49.406 32.6874 48.4708 33.369 47.5988 33.4324H47.4721V33.4482ZM47.488 30.484C46.8064 30.484 46.4258 30.8486 46.3942 31.5461C46.3942 31.8155 46.5052 32.085 46.7112 32.3228C46.9172 32.5448 47.2026 32.6716 47.4721 32.6716C48.0586 32.6556 48.6293 32.1802 48.6134 31.5303C48.6134 30.912 48.1854 30.4682 47.6148 30.4682H47.488V30.484Z" fill="#515151"/>
<path d="M34.3616 33.4318C33.252 33.4318 32.5704 32.4173 32.5228 31.7198C32.4753 31.1809 32.6655 30.6261 33.0459 30.2297C33.3788 29.881 33.8068 29.675 34.2348 29.675C34.2982 29.675 34.4092 29.675 34.4092 29.675C35.5188 29.675 36.2955 30.4834 36.3114 31.4821C36.3114 32.5124 35.5663 33.3367 34.5043 33.4001H34.3616V33.4318ZM34.3933 30.4676C33.7275 30.4676 33.3154 30.8797 33.3154 31.5454C33.3154 32.1478 33.7434 32.5917 34.3933 32.6392C34.7262 32.6392 35.0115 32.4965 35.2335 32.2747C35.4395 32.0527 35.5505 31.7833 35.5346 31.4979C35.5029 30.9907 35.17 30.4517 34.5201 30.4517H34.3933V30.4676Z" fill="#515151"/>
<path d="M40.0041 20.4971H39.8931C39.6479 20.4971 39.4492 20.6958 39.4492 20.9408V21.0677C39.4492 21.3128 39.6479 21.5116 39.8931 21.5116H40.0041C40.2491 21.5116 40.4479 21.3128 40.4479 21.0677V20.9408C40.4479 20.6958 40.2491 20.4971 40.0041 20.4971Z" fill="#515151"/>
<path d="M37.9762 20.5283H37.897C37.6518 20.5283 37.4531 20.727 37.4531 20.9721V20.988C37.4531 21.2331 37.6518 21.4318 37.897 21.4318H37.9762C38.2214 21.4318 38.4201 21.2331 38.4201 20.988V20.9721C38.4201 20.727 38.2214 20.5283 37.9762 20.5283Z" fill="#515151"/>
<path d="M43.984 20.5137H43.9048C43.6597 20.5137 43.4609 20.7124 43.4609 20.9574V20.9891C43.4609 21.2343 43.6597 21.433 43.9048 21.433H43.984C44.2292 21.433 44.4279 21.2343 44.4279 20.9891V20.9574C44.4279 20.7124 44.2292 20.5137 43.984 20.5137Z" fill="#515151"/>
<path d="M41.9875 20.5137H41.94C41.6948 20.5137 41.4961 20.7124 41.4961 20.9574V21.0209C41.4961 21.266 41.6948 21.4647 41.94 21.4647H41.9875C42.2327 21.4647 42.4314 21.266 42.4314 21.0209V20.9574C42.4314 20.7124 42.2327 20.5137 41.9875 20.5137Z" fill="#515151"/>
</g>
<path d="M24.6784 54.692C24.9824 54.74 25.2584 54.864 25.5064 55.064C25.7624 55.264 25.9624 55.512 26.1064 55.808C26.2584 56.104 26.3344 56.42 26.3344 56.756C26.3344 57.18 26.2264 57.564 26.0104 57.908C25.7944 58.244 25.4784 58.512 25.0624 58.712C24.6544 58.904 24.1704 59 23.6104 59H20.4904V50.636H23.4904C24.0584 50.636 24.5424 50.732 24.9424 50.924C25.3424 51.108 25.6424 51.36 25.8424 51.68C26.0424 52 26.1424 52.36 26.1424 52.76C26.1424 53.256 26.0064 53.668 25.7344 53.996C25.4704 54.316 25.1184 54.548 24.6784 54.692ZM21.5824 54.248H23.4184C23.9304 54.248 24.3264 54.128 24.6064 53.888C24.8864 53.648 25.0264 53.316 25.0264 52.892C25.0264 52.468 24.8864 52.136 24.6064 51.896C24.3264 51.656 23.9224 51.536 23.3944 51.536H21.5824V54.248ZM23.5144 58.1C24.0584 58.1 24.4824 57.972 24.7864 57.716C25.0904 57.46 25.2424 57.104 25.2424 56.648C25.2424 56.184 25.0824 55.82 24.7624 55.556C24.4424 55.284 24.0144 55.148 23.4784 55.148H21.5824V58.1H23.5144ZM31.1138 52.304C31.6098 52.304 32.0578 52.412 32.4578 52.628C32.8578 52.836 33.1698 53.152 33.3938 53.576C33.6258 54 33.7418 54.516 33.7418 55.124V59H32.6618V55.28C32.6618 54.624 32.4978 54.124 32.1698 53.78C31.8418 53.428 31.3938 53.252 30.8258 53.252C30.2498 53.252 29.7898 53.432 29.4458 53.792C29.1098 54.152 28.9418 54.676 28.9418 55.364V59H27.8498V50.12H28.9418V53.36C29.1578 53.024 29.4538 52.764 29.8298 52.58C30.2138 52.396 30.6418 52.304 31.1138 52.304ZM41.3576 52.424V59H40.2656V58.028C40.0576 58.364 39.7656 58.628 39.3896 58.82C39.0216 59.004 38.6136 59.096 38.1656 59.096C37.6536 59.096 37.1936 58.992 36.7856 58.784C36.3776 58.568 36.0536 58.248 35.8136 57.824C35.5816 57.4 35.4656 56.884 35.4656 56.276V52.424H36.5456V56.132C36.5456 56.78 36.7096 57.28 37.0376 57.632C37.3656 57.976 37.8136 58.148 38.3816 58.148C38.9656 58.148 39.4256 57.968 39.7616 57.608C40.0976 57.248 40.2656 56.724 40.2656 56.036V52.424H41.3576ZM44.5333 53.324V57.2C44.5333 57.52 44.6013 57.748 44.7373 57.884C44.8733 58.012 45.1093 58.076 45.4453 58.076H46.2493V59H45.2653C44.6573 59 44.2013 58.86 43.8973 58.58C43.5933 58.3 43.4413 57.84 43.4413 57.2V53.324H42.5893V52.424H43.4413V50.768H44.5333V52.424H46.2493V53.324H44.5333ZM47.1644 55.688C47.1644 55.016 47.3004 54.428 47.5724 53.924C47.8444 53.412 48.2164 53.016 48.6884 52.736C49.1684 52.456 49.7004 52.316 50.2844 52.316C50.8604 52.316 51.3604 52.44 51.7844 52.688C52.2084 52.936 52.5244 53.248 52.7324 53.624V52.424H53.8364V59H52.7324V57.776C52.5164 58.16 52.1924 58.48 51.7604 58.736C51.3364 58.984 50.8404 59.108 50.2724 59.108C49.6884 59.108 49.1604 58.964 48.6884 58.676C48.2164 58.388 47.8444 57.984 47.5724 57.464C47.3004 56.944 47.1644 56.352 47.1644 55.688ZM52.7324 55.7C52.7324 55.204 52.6324 54.772 52.4324 54.404C52.2324 54.036 51.9604 53.756 51.6164 53.564C51.2804 53.364 50.9084 53.264 50.5004 53.264C50.0924 53.264 49.7204 53.36 49.3844 53.552C49.0484 53.744 48.7804 54.024 48.5804 54.392C48.3804 54.76 48.2804 55.192 48.2804 55.688C48.2804 56.192 48.3804 56.632 48.5804 57.008C48.7804 57.376 49.0484 57.66 49.3844 57.86C49.7204 58.052 50.0924 58.148 50.5004 58.148C50.9084 58.148 51.2804 58.052 51.6164 57.86C51.9604 57.66 52.2324 57.376 52.4324 57.008C52.6324 56.632 52.7324 56.196 52.7324 55.7ZM58.8858 52.304C59.6858 52.304 60.3338 52.548 60.8298 53.036C61.3258 53.516 61.5738 54.212 61.5738 55.124V59H60.4938V55.28C60.4938 54.624 60.3298 54.124 60.0018 53.78C59.6738 53.428 59.2258 53.252 58.6578 53.252C58.0818 53.252 57.6218 53.432 57.2778 53.792C56.9418 54.152 56.7738 54.676 56.7738 55.364V59H55.6818V52.424H56.7738V53.36C56.9898 53.024 57.2818 52.764 57.6498 52.58C58.0258 52.396 58.4378 52.304 58.8858 52.304Z" fill="#515151"/>
</svg>
