<svg width="92" height="80" viewBox="0 0 92 80" fill="none" xmlns="http://www.w3.org/2000/svg">
<rect y="10" width="82" height="70" rx="4" fill="white" fill-opacity="0.1"/>
<path d="M47.1754 45.1618C47.3416 44.4353 47.529 43.7292 47.6634 43.0163C47.8438 42.059 47.9392 41.0916 48.0665 40.1275C48.1231 39.7134 48.162 39.2958 48.1762 38.8783C48.2221 37.5646 48.2115 36.2474 47.964 34.9439C47.8189 34.1903 47.7023 33.43 47.4936 32.6899C47.08 31.2234 46.447 29.8146 45.5629 28.4873C44.389 26.7221 42.8933 25.1742 40.9767 23.8944C39.5411 22.9337 37.9923 22.1394 36.2667 21.5827C35.9908 21.4944 35.9307 21.3824 35.9343 21.1685C35.9413 20.2723 35.9413 18.5411 35.9378 17.6924C35.9378 17.4175 35.7044 17.2002 35.4215 17.2002C35.1351 17.2002 34.9053 17.4209 34.9053 17.6958V23.8333C34.3961 23.8333 33.9152 23.8265 33.4343 23.8333C33.0701 23.8401 32.8579 24.02 32.8579 24.3153C32.8579 24.7668 32.8473 25.2217 32.8614 25.6732C32.8685 25.887 32.773 25.9583 32.5184 25.9481C32.1613 25.9346 31.8042 25.9448 31.4435 25.9448C30.9095 25.9448 30.807 26.0262 30.8034 26.4709C30.7999 26.9326 30.7999 27.3977 30.8034 27.8593C30.807 28.3345 30.9873 28.4806 31.5637 28.4806C31.9916 28.4806 32.4159 28.4806 32.8331 28.4806V45.172H31.5389C31.2985 45.172 31.1075 45.3586 31.1075 45.5861C31.1075 45.8168 31.302 46.0002 31.5389 46.0002C37.5396 46.0002 43.5403 46.0002 49.5411 46.0002C49.785 46.0002 49.983 45.8101 49.983 45.5759C49.983 45.3416 49.785 45.1516 49.5411 45.1516H47.1683L47.1754 45.1618ZM33.8197 24.7532H34.8452V25.9142C34.8133 25.9278 34.7957 25.9448 34.7744 25.9448C34.1379 25.9583 33.8197 25.7049 33.8197 25.1844V24.7532ZM34.8699 45.1516H33.9081V28.4941H34.8699V45.1516ZM35.365 27.5844H31.8289V26.7934H35.365V27.5844ZM47.1365 39.1261C47.1012 40.2157 46.8784 41.3054 46.7122 42.3781C46.599 43.1182 46.4187 43.8446 46.2666 44.5745C46.2384 44.7137 46.2348 44.8664 46.1676 44.992C46.1287 45.0667 45.9873 45.1549 45.8919 45.1549C42.6103 45.1618 39.3253 45.1618 36.0439 45.1583C36.0227 45.1583 36.0015 45.1447 35.952 45.1278V44.8732C35.952 39.4961 35.952 34.1156 35.952 28.7386C35.952 28.5654 35.9484 28.4297 36.203 28.338C36.3303 28.2938 36.4223 28.0765 36.4293 27.934C36.4576 27.4316 36.4541 26.9258 36.4293 26.4234C36.4223 26.2876 36.3409 26.0805 36.2242 26.0398C35.9449 25.938 35.9484 25.7852 35.9484 25.5883C35.9484 24.6209 35.9378 23.6568 35.9307 22.6893C35.9307 22.5909 35.9307 22.4924 35.9307 22.3091C36.737 22.652 37.4866 22.9439 38.208 23.2834C39.6436 23.9623 40.9236 24.8075 42.0445 25.8056C43.0595 26.7085 43.9717 27.6828 44.6224 28.7894C45.1493 29.6822 45.6549 30.5954 46.0227 31.5358C46.3939 32.4896 46.6097 33.4842 46.8395 34.4687C47.1966 36.0065 47.1825 37.5679 47.1294 39.1226L47.1365 39.1261Z" fill="#515151"/>
<path d="M37.4691 34.3126C37.4691 31.3218 37.4656 28.3312 37.4797 25.3405C37.4797 25.147 37.5434 24.8755 37.699 24.7804C37.9324 24.6446 38.2435 24.7465 38.4981 24.8958C40.4501 26.0432 41.9847 27.4893 43.1587 29.2002C44.0604 30.5105 44.6615 31.9159 45.0681 33.3756C45.2591 34.0613 45.3228 34.7742 45.4536 35.4735C45.7011 36.7872 45.6056 38.1112 45.588 39.4317C45.5773 40.158 45.4218 40.8845 45.305 41.6076C45.1989 42.256 45.0505 42.9043 44.9444 43.5527C44.8985 43.8243 44.6827 43.9057 44.4175 43.9057C42.2817 43.9126 40.1495 43.9126 38.0137 43.9057C37.6177 43.9057 37.501 43.7938 37.4762 43.4679C37.4691 43.3762 37.4762 43.288 37.4762 43.1963C37.4762 40.2361 37.4762 37.2726 37.4762 34.3126H37.4691ZM41.1572 28.2395C40.443 27.3841 39.5413 26.6712 38.5158 25.9719V28.3549H41.1501C41.1926 28.3549 41.2351 28.3549 41.3305 28.3549C41.2457 28.2972 41.1997 28.2667 41.1572 28.2361V28.2395ZM38.5052 29.2749V32.0381H43.4486L43.4982 31.9566C43.0314 31.0911 42.5717 30.222 42.0908 29.3598C42.0483 29.2851 41.8821 29.2104 41.7726 29.2104C40.7011 29.2036 39.6332 29.2104 38.5617 29.2173L38.5016 29.2749H38.5052ZM38.5158 39.3841H44.5802V36.5734H38.5158V39.3841ZM38.5158 40.243V43.0571H44.0497C44.2019 42.1134 44.3539 41.1867 44.5059 40.243H38.5158ZM38.5158 32.8969V35.701H44.5201L43.9047 32.8969H38.5158ZM38.5087 25.9855C38.5087 25.9855 38.5229 25.9991 38.5299 26.0059C38.537 25.9991 38.5441 25.9923 38.5547 25.9855C38.5441 25.9787 38.5299 25.9719 38.5194 25.9651C38.5158 25.9719 38.5123 25.9787 38.5087 25.9821V25.9855Z" fill="#515151"/>
<path d="M26.862 60.636C27.774 60.636 28.562 60.808 29.226 61.152C29.898 61.488 30.41 61.972 30.762 62.604C31.122 63.236 31.302 63.98 31.302 64.836C31.302 65.692 31.122 66.436 30.762 67.068C30.41 67.692 29.898 68.172 29.226 68.508C28.562 68.836 27.774 69 26.862 69H24.258V60.636H26.862ZM26.862 68.1C27.942 68.1 28.766 67.816 29.334 67.248C29.902 66.672 30.186 65.868 30.186 64.836C30.186 63.796 29.898 62.984 29.322 62.4C28.754 61.816 27.934 61.524 26.862 61.524H25.35V68.1H26.862ZM38.5744 62.424V69H37.4824V68.028C37.2744 68.364 36.9824 68.628 36.6064 68.82C36.2384 69.004 35.8304 69.096 35.3824 69.096C34.8704 69.096 34.4104 68.992 34.0024 68.784C33.5944 68.568 33.2704 68.248 33.0304 67.824C32.7984 67.4 32.6824 66.884 32.6824 66.276V62.424H33.7624V66.132C33.7624 66.78 33.9264 67.28 34.2544 67.632C34.5824 67.976 35.0304 68.148 35.5984 68.148C36.1824 68.148 36.6424 67.968 36.9784 67.608C37.3144 67.248 37.4824 66.724 37.4824 66.036V62.424H38.5744ZM41.5101 63.648C41.7341 63.256 42.0621 62.936 42.4941 62.688C42.9261 62.44 43.4181 62.316 43.9701 62.316C44.5621 62.316 45.0941 62.456 45.5661 62.736C46.0381 63.016 46.4101 63.412 46.6821 63.924C46.9541 64.428 47.0901 65.016 47.0901 65.688C47.0901 66.352 46.9541 66.944 46.6821 67.464C46.4101 67.984 46.0341 68.388 45.5541 68.676C45.0821 68.964 44.5541 69.108 43.9701 69.108C43.4021 69.108 42.9021 68.984 42.4701 68.736C42.0461 68.488 41.7261 68.172 41.5101 67.788V69H40.4181V60.12H41.5101V63.648ZM45.9741 65.688C45.9741 65.192 45.8741 64.76 45.6741 64.392C45.4741 64.024 45.2021 63.744 44.8581 63.552C44.5221 63.36 44.1501 63.264 43.7421 63.264C43.3421 63.264 42.9701 63.364 42.6261 63.564C42.2901 63.756 42.0181 64.04 41.8101 64.416C41.6101 64.784 41.5101 65.212 41.5101 65.7C41.5101 66.196 41.6101 66.632 41.8101 67.008C42.0181 67.376 42.2901 67.66 42.6261 67.86C42.9701 68.052 43.3421 68.148 43.7421 68.148C44.1501 68.148 44.5221 68.052 44.8581 67.86C45.2021 67.66 45.4741 67.376 45.6741 67.008C45.8741 66.632 45.9741 66.192 45.9741 65.688ZM48.1195 65.688C48.1195 65.016 48.2555 64.428 48.5275 63.924C48.7995 63.412 49.1715 63.016 49.6435 62.736C50.1235 62.456 50.6555 62.316 51.2395 62.316C51.8155 62.316 52.3155 62.44 52.7395 62.688C53.1635 62.936 53.4795 63.248 53.6875 63.624V62.424H54.7915V69H53.6875V67.776C53.4715 68.16 53.1475 68.48 52.7155 68.736C52.2915 68.984 51.7955 69.108 51.2275 69.108C50.6435 69.108 50.1155 68.964 49.6435 68.676C49.1715 68.388 48.7995 67.984 48.5275 67.464C48.2555 66.944 48.1195 66.352 48.1195 65.688ZM53.6875 65.7C53.6875 65.204 53.5875 64.772 53.3875 64.404C53.1875 64.036 52.9155 63.756 52.5715 63.564C52.2355 63.364 51.8635 63.264 51.4555 63.264C51.0475 63.264 50.6755 63.36 50.3395 63.552C50.0035 63.744 49.7355 64.024 49.5355 64.392C49.3355 64.76 49.2355 65.192 49.2355 65.688C49.2355 66.192 49.3355 66.632 49.5355 67.008C49.7355 67.376 50.0035 67.66 50.3395 67.86C50.6755 68.052 51.0475 68.148 51.4555 68.148C51.8635 68.148 52.2355 68.052 52.5715 67.86C52.9155 67.66 53.1875 67.376 53.3875 67.008C53.5875 66.632 53.6875 66.196 53.6875 65.7ZM57.2009 61.356C56.9929 61.356 56.8169 61.284 56.6729 61.14C56.5289 60.996 56.4569 60.82 56.4569 60.612C56.4569 60.404 56.5289 60.228 56.6729 60.084C56.8169 59.94 56.9929 59.868 57.2009 59.868C57.4009 59.868 57.5689 59.94 57.7049 60.084C57.8489 60.228 57.9209 60.404 57.9209 60.612C57.9209 60.82 57.8489 60.996 57.7049 61.14C57.5689 61.284 57.4009 61.356 57.2009 61.356ZM57.7289 62.424V69H56.6369V62.424H57.7289Z" fill="#515151"/>
<rect x="21" width="50" height="15" rx="2" fill="url(#paint0_linear_13_2901)"/>
<path d="M23.8182 5.56534V4.68182H28.4602V5.56534H26.6619V10.5H25.6165V5.56534H23.8182ZM28.8565 10.5V6.13636H29.8537V6.86364H29.8991C29.9787 6.61174 30.1151 6.41761 30.3082 6.28125C30.5033 6.14299 30.7259 6.07386 30.9759 6.07386C31.0327 6.07386 31.0961 6.0767 31.1662 6.08239C31.2382 6.08617 31.2978 6.0928 31.3452 6.10227V7.0483C31.3016 7.03314 31.2325 7.01989 31.1378 7.00852C31.045 6.99527 30.955 6.98864 30.8679 6.98864C30.6804 6.98864 30.5118 7.02936 30.3622 7.1108C30.2145 7.19034 30.098 7.30114 30.0128 7.44318C29.9276 7.58523 29.8849 7.74905 29.8849 7.93466V10.5H28.8565ZM33.7805 10.5852C33.343 10.5852 32.9652 10.4943 32.647 10.3125C32.3307 10.1288 32.0874 9.86932 31.9169 9.53409C31.7464 9.19697 31.6612 8.80019 31.6612 8.34375C31.6612 7.89489 31.7464 7.50095 31.9169 7.16193C32.0893 6.82102 32.3298 6.55587 32.6385 6.36648C32.9472 6.17519 33.3099 6.07955 33.7266 6.07955C33.9955 6.07955 34.2493 6.12311 34.4879 6.21023C34.7285 6.29545 34.9406 6.42803 35.1243 6.60795C35.3099 6.78788 35.4557 7.01705 35.5618 7.29545C35.6679 7.57197 35.7209 7.90152 35.7209 8.28409V8.59943H32.1442V7.90625H34.7351C34.7332 7.70928 34.6906 7.53409 34.6072 7.38068C34.5239 7.22538 34.4074 7.10322 34.2578 7.0142C34.1101 6.92519 33.9377 6.88068 33.7408 6.88068C33.5305 6.88068 33.3459 6.93182 33.1868 7.03409C33.0277 7.13447 32.9036 7.26705 32.8146 7.43182C32.7275 7.5947 32.683 7.77367 32.6811 7.96875V8.57386C32.6811 8.82765 32.7275 9.04545 32.8203 9.22727C32.9131 9.4072 33.0429 9.54545 33.2095 9.64205C33.3762 9.73674 33.5713 9.78409 33.7947 9.78409C33.9444 9.78409 34.0798 9.76326 34.201 9.72159C34.3222 9.67803 34.4273 9.61458 34.5163 9.53125C34.6054 9.44792 34.6726 9.3447 34.718 9.22159L35.6783 9.32955C35.6177 9.58333 35.5021 9.80492 35.3317 9.99432C35.1631 10.1818 34.9472 10.3277 34.6839 10.4318C34.4207 10.5341 34.1196 10.5852 33.7805 10.5852ZM37.6193 7.94318V10.5H36.5909V6.13636H37.5739V6.87784H37.625C37.7254 6.63352 37.8854 6.43939 38.1051 6.29545C38.3267 6.15152 38.6004 6.07955 38.9261 6.07955C39.2273 6.07955 39.4896 6.14394 39.7131 6.27273C39.9384 6.40152 40.1127 6.58807 40.2358 6.83239C40.3608 7.0767 40.4223 7.37311 40.4205 7.72159V10.5H39.392V7.88068C39.392 7.58902 39.3163 7.3608 39.1648 7.19602C39.0152 7.03125 38.8078 6.94886 38.5426 6.94886C38.3627 6.94886 38.2027 6.98864 38.0625 7.06818C37.9242 7.14583 37.8153 7.25852 37.7358 7.40625C37.6581 7.55398 37.6193 7.73295 37.6193 7.94318ZM43.0852 10.5767C42.7424 10.5767 42.4356 10.4886 42.1648 10.3125C41.8939 10.1364 41.6799 9.88068 41.5227 9.54545C41.3655 9.21023 41.2869 8.80303 41.2869 8.32386C41.2869 7.83902 41.3665 7.42992 41.5256 7.09659C41.6866 6.76136 41.9034 6.50852 42.1761 6.33807C42.4489 6.16572 42.7528 6.07955 43.0881 6.07955C43.3438 6.07955 43.554 6.12311 43.7188 6.21023C43.8835 6.29545 44.0142 6.39867 44.1108 6.51989C44.2074 6.6392 44.2822 6.75189 44.3352 6.85795H44.3778V4.68182H45.4091V10.5H44.3977V9.8125H44.3352C44.2822 9.91856 44.2055 10.0312 44.1051 10.1506C44.0047 10.268 43.8722 10.3684 43.7074 10.4517C43.5426 10.535 43.3352 10.5767 43.0852 10.5767ZM43.3722 9.73295C43.59 9.73295 43.7756 9.67424 43.929 9.55682C44.0824 9.4375 44.1989 9.27178 44.2784 9.05966C44.358 8.84754 44.3977 8.60038 44.3977 8.31818C44.3977 8.03598 44.358 7.79072 44.2784 7.58239C44.2008 7.37405 44.0852 7.21212 43.9318 7.09659C43.7803 6.98106 43.5938 6.9233 43.3722 6.9233C43.143 6.9233 42.9517 6.98295 42.7983 7.10227C42.6449 7.22159 42.5294 7.38636 42.4517 7.59659C42.3741 7.80682 42.3352 8.04735 42.3352 8.31818C42.3352 8.59091 42.3741 8.83428 42.4517 9.0483C42.5313 9.26042 42.6477 9.42803 42.8011 9.55114C42.9564 9.67235 43.1468 9.73295 43.3722 9.73295ZM46.505 10.5V6.13636H47.5334V10.5H46.505ZM47.022 5.51705C46.8591 5.51705 46.719 5.46307 46.6016 5.35511C46.4841 5.24526 46.4254 5.11364 46.4254 4.96023C46.4254 4.80492 46.4841 4.6733 46.6016 4.56534C46.719 4.45549 46.8591 4.40057 47.022 4.40057C47.1868 4.40057 47.3269 4.45549 47.4425 4.56534C47.5599 4.6733 47.6186 4.80492 47.6186 4.96023C47.6186 5.11364 47.5599 5.24526 47.4425 5.35511C47.3269 5.46307 47.1868 5.51705 47.022 5.51705ZM49.6193 7.94318V10.5H48.5909V6.13636H49.5739V6.87784H49.625C49.7254 6.63352 49.8854 6.43939 50.1051 6.29545C50.3267 6.15152 50.6004 6.07955 50.9261 6.07955C51.2273 6.07955 51.4896 6.14394 51.7131 6.27273C51.9384 6.40152 52.1127 6.58807 52.2358 6.83239C52.3608 7.0767 52.4223 7.37311 52.4205 7.72159V10.5H51.392V7.88068C51.392 7.58902 51.3163 7.3608 51.1648 7.19602C51.0152 7.03125 50.8078 6.94886 50.5426 6.94886C50.3627 6.94886 50.2027 6.98864 50.0625 7.06818C49.9242 7.14583 49.8153 7.25852 49.7358 7.40625C49.6581 7.55398 49.6193 7.73295 49.6193 7.94318ZM55.3636 12.2273C54.9943 12.2273 54.6771 12.1771 54.4119 12.0767C54.1468 11.9782 53.9337 11.8456 53.7727 11.679C53.6117 11.5123 53.5 11.3277 53.4375 11.125L54.3636 10.9006C54.4053 10.9858 54.4659 11.0701 54.5455 11.1534C54.625 11.2386 54.732 11.3087 54.8665 11.3636C55.0028 11.4205 55.1742 11.4489 55.3807 11.4489C55.6723 11.4489 55.9138 11.3778 56.1051 11.2358C56.2964 11.0956 56.392 10.8646 56.392 10.5426V9.71591H56.3409C56.2879 9.82197 56.2102 9.93087 56.108 10.0426C56.0076 10.1544 55.8741 10.2481 55.7074 10.3239C55.5426 10.3996 55.3352 10.4375 55.0852 10.4375C54.75 10.4375 54.446 10.3589 54.1733 10.2017C53.9025 10.0426 53.6866 9.80587 53.5256 9.49148C53.3665 9.17519 53.2869 8.77936 53.2869 8.30398C53.2869 7.82481 53.3665 7.42045 53.5256 7.09091C53.6866 6.75947 53.9034 6.50852 54.1761 6.33807C54.4489 6.16572 54.7528 6.07955 55.0881 6.07955C55.3438 6.07955 55.554 6.12311 55.7188 6.21023C55.8854 6.29545 56.018 6.39867 56.1165 6.51989C56.215 6.6392 56.2898 6.75189 56.3409 6.85795H56.3977V6.13636H57.4119V10.571C57.4119 10.9441 57.3229 11.2528 57.1449 11.4972C56.9669 11.7415 56.7235 11.9242 56.4148 12.0455C56.1061 12.1667 55.7557 12.2273 55.3636 12.2273ZM55.3722 9.63068C55.59 9.63068 55.7756 9.57765 55.929 9.47159C56.0824 9.36553 56.1989 9.21307 56.2784 9.0142C56.358 8.81534 56.3977 8.5767 56.3977 8.2983C56.3977 8.02367 56.358 7.78314 56.2784 7.5767C56.2008 7.37027 56.0852 7.21023 55.9318 7.09659C55.7803 6.98106 55.5938 6.9233 55.3722 6.9233C55.143 6.9233 54.9517 6.98295 54.7983 7.10227C54.6449 7.22159 54.5294 7.38542 54.4517 7.59375C54.3741 7.80019 54.3352 8.03504 54.3352 8.2983C54.3352 8.56534 54.3741 8.79924 54.4517 9C54.5313 9.19886 54.6477 9.35417 54.8011 9.46591C54.9564 9.57576 55.1468 9.63068 55.3722 9.63068Z" fill="white"/>
<path d="M64.6837 8.63462L64.6881 8.63768L64.6933 8.63875L64.6986 8.63768L64.703 8.63462L66.8784 6.39077C66.8907 6.37805 66.8908 6.36523 66.8786 6.35234L66.2364 5.68422C66.233 5.68063 66.2305 5.67617 66.2292 5.6713C66.2279 5.66642 66.2279 5.66128 66.2291 5.65639C66.2303 5.65149 66.2328 5.64701 66.2362 5.64337C66.2396 5.63972 66.2438 5.63705 66.2485 5.63561C66.9939 5.41129 67.7481 5.2003 68.5111 5.00262C68.5193 5.00041 68.5246 4.99948 68.5269 4.99982C68.5399 5.00118 68.545 5.00771 68.5424 5.01942C68.357 5.80656 68.1582 6.59015 67.9461 7.37017C67.938 7.40003 67.9232 7.40419 67.9017 7.38264L67.2373 6.71885C67.2329 6.71448 67.2271 6.71206 67.221 6.71211C67.215 6.71216 67.2092 6.71467 67.2049 6.7191C66.4791 7.46773 65.7523 8.21763 65.0243 8.96881C64.9098 9.0869 64.7938 9.27958 64.5976 9.19177C64.5673 9.17819 64.5266 9.14477 64.4754 9.09149C64.0905 8.69189 63.6997 8.28873 63.303 7.88201C63.2918 7.87064 63.2807 7.87064 63.2697 7.88201C62.721 8.44687 62.1702 9.0153 61.6175 9.58729C61.5399 9.66772 61.4825 9.71752 61.4455 9.7367C61.2199 9.85301 61.0119 9.54326 61.1947 9.35466C61.8144 8.71598 62.4337 8.07688 63.0525 7.43736C63.1549 7.33173 63.2302 7.26403 63.3675 7.3129C63.4027 7.32545 63.442 7.35455 63.4854 7.4002C63.8825 7.81659 64.2819 8.22807 64.6837 8.63462Z" fill="white" stroke="white" stroke-width="0.212551"/>
<defs>
<linearGradient id="paint0_linear_13_2901" x1="20.5337" y1="5.28912" x2="71.4603" y2="9.77917" gradientUnits="userSpaceOnUse">
<stop stop-color="#C4242B"/>
<stop offset="1" stop-color="#E14249"/>
</linearGradient>
</defs>
</svg>
