<svg width="138" height="28" viewBox="0 0 138 28" fill="none" xmlns="http://www.w3.org/2000/svg">
<path d="M5.84 23.42C5.28 23.42 4.7 23.3 4.1 23.06C3.5 22.84 3.06 22.48 2.78 21.98C2.2 21.72 1.78 21.31 1.52 20.75C1.28 20.17 1.18 19.53 1.22 18.83C1.38 16.41 1.51 13.99 1.61 11.57C1.71 9.15 1.9 6.73 2.18 4.31C1.78 3.95 1.42 3.56 1.1 3.14C0.8 2.7 0.65 2.33 0.65 2.03C0.65 1.71 0.84 1.55 1.22 1.55C1.5 1.55 1.96 1.53 2.6 1.49C3.24 1.43 3.94 1.37 4.7 1.31C5.46 1.23 6.19 1.17 6.89 1.13C7.59 1.07 8.14 1.04 8.54 1.04C9.7 1.04 10.64 1.2 11.36 1.52C12.1 1.84 12.64 2.25 12.98 2.75C13.34 3.23 13.52 3.74 13.52 4.28C13.52 4.48 13.42 4.58 13.22 4.58C13.04 4.58 12.87 4.58 12.71 4.58C12.55 4.56 12.39 4.55 12.23 4.55C11.33 4.55 10.39 4.6 9.41 4.7C8.43 4.8 7.52 4.91 6.68 5.03C6.5 6.61 6.35 8.23 6.23 9.89C7.17 9.77 7.99 9.71 8.69 9.71C8.99 9.71 9.34 9.8 9.74 9.98C10.16 10.14 10.56 10.35 10.94 10.61C11.32 10.87 11.64 11.15 11.9 11.45C12.16 11.73 12.29 11.99 12.29 12.23C12.29 12.59 12.2 12.82 12.02 12.92C11.84 13.02 11.56 13.07 11.18 13.07C10.82 13.07 10.34 13.11 9.74 13.19C9.16 13.27 8.53 13.36 7.85 13.46C7.19 13.54 6.57 13.6 5.99 13.64C5.93 14.6 5.88 15.57 5.84 16.55C5.8 17.51 5.77 18.47 5.75 19.43C6.57 18.89 7.36 18.46 8.12 18.14C8.88 17.8 9.56 17.63 10.16 17.63C10.56 17.63 11.01 17.75 11.51 17.99C12.01 18.23 12.45 18.53 12.83 18.89C13.21 19.23 13.4 19.55 13.4 19.85C13.4 20.11 13.28 20.29 13.04 20.39L5.84 23.42ZM15.8928 24.05C15.4128 24.05 14.9828 23.84 14.6028 23.42C14.2428 23 14.0628 22.45 14.0628 21.77C14.0628 21.41 14.1328 21.02 14.2728 20.6C14.4128 20.16 14.6428 19.71 14.9628 19.25C15.7228 18.15 16.5128 17 17.3328 15.8C18.1528 14.58 18.9628 13.37 19.7628 12.17C19.3828 11.31 18.9828 10.41 18.5628 9.47C18.1428 8.51 17.6828 7.43 17.1828 6.23C16.6828 5.03 16.1128 3.64 15.4728 2.06C16.0728 1.38 16.7728 1.04 17.5728 1.04C18.3528 1.04 19.1428 1.39 19.9428 2.09C20.7628 2.79 21.4728 3.83 22.0728 5.21L23.2128 7.88C24.1328 6.46 24.9528 5.19 25.6728 4.07C26.3928 2.93 26.9528 2.03 27.3528 1.37C27.7528 0.71 27.9328 0.38 27.8928 0.38C28.0328 0.3 28.1928 0.26 28.3728 0.26C28.8928 0.26 29.3428 0.49 29.7228 0.95C30.1228 1.41 30.3228 2.03 30.3228 2.81C30.3228 3.27 30.2328 3.78 30.0528 4.34C29.8728 4.9 29.5728 5.49 29.1528 6.11L25.0428 12.08L29.6628 22.67C29.2228 22.95 28.8028 23.15 28.4028 23.27C28.0228 23.41 27.6628 23.48 27.3228 23.48C26.3628 23.48 25.5328 23.06 24.8328 22.22C24.1528 21.36 23.5228 20.29 22.9428 19.01C22.7028 18.49 22.4728 18 22.2528 17.54C22.0328 17.06 21.8228 16.61 21.6228 16.19L16.4328 23.78C16.3328 23.96 16.1528 24.05 15.8928 24.05ZM36.132 23.39C35.712 23.39 35.232 23.25 34.692 22.97C34.172 22.67 33.712 22.2 33.312 21.56C32.912 20.9 32.712 20.03 32.712 18.95C32.712 18.81 32.712 18.68 32.712 18.56C32.712 18.42 32.722 18.28 32.742 18.14C32.862 17.04 32.982 15.72 33.102 14.18C33.242 12.64 33.362 11.01 33.462 9.29C33.582 7.55 33.682 5.86 33.762 4.22C33.322 3.88 32.932 3.48 32.592 3.02C32.252 2.56 32.082 2.17 32.082 1.85C32.082 1.67 32.142 1.55 32.262 1.49C32.382 1.41 32.512 1.37 32.652 1.37C33.212 1.37 33.872 1.35 34.632 1.31C35.392 1.27 36.142 1.24 36.882 1.22C37.642 1.18 38.282 1.16 38.802 1.16C39.942 1.16 41.002 1.35 41.982 1.73C42.982 2.11 43.852 2.6 44.592 3.2C45.352 3.8 45.942 4.44 46.362 5.12C46.782 5.8 46.992 6.44 46.992 7.04C46.992 8.26 46.722 9.39 46.182 10.43C45.662 11.45 44.972 12.38 44.112 13.22C43.272 14.06 42.362 14.81 41.382 15.47C40.882 15.81 40.422 16.05 40.002 16.19C39.582 16.33 39.202 16.4 38.862 16.4C38.522 16.4 38.222 16.34 37.962 16.22C37.722 16.1 37.522 15.95 37.362 15.77C37.262 16.87 37.162 18.01 37.062 19.19C36.962 20.35 36.872 21.6 36.792 22.94C36.772 23.12 36.702 23.24 36.582 23.3C36.462 23.36 36.312 23.39 36.132 23.39ZM37.932 9.32C37.872 10.12 37.802 10.9 37.722 11.66C37.662 12.4 37.592 13.15 37.512 13.91C39.312 12.65 40.592 11.4 41.352 10.16C42.112 8.92 42.492 7.82 42.492 6.86C42.492 6.04 42.282 5.38 41.862 4.88C41.562 4.88 41.272 4.88 40.992 4.88C40.712 4.86 40.442 4.85 40.182 4.85C39.582 4.85 39.032 4.86 38.532 4.88C38.032 4.88 37.562 4.89 37.122 4.91C37.402 5.23 37.612 5.65 37.752 6.17C37.912 6.69 37.992 7.35 37.992 8.15C37.992 8.33 37.982 8.52 37.962 8.72C37.962 8.9 37.952 9.1 37.932 9.32ZM52.9555 23.45C52.3955 23.43 51.8455 23.3 51.3055 23.06C50.7655 22.82 50.3255 22.45 49.9855 21.95C49.4255 21.61 49.0055 21.18 48.7255 20.66C48.4455 20.12 48.3355 19.5 48.3955 18.8C48.5355 17.32 48.6755 15.74 48.8155 14.06C48.9755 12.36 49.1255 10.49 49.2655 8.45C49.4255 6.41 49.5555 4.13 49.6555 1.61C49.6955 1.45 49.8155 1.34 50.0155 1.28C50.2355 1.22 50.4755 1.18 50.7355 1.16C51.2155 1.16 51.7155 1.33 52.2355 1.67C52.7555 2.01 53.1955 2.52 53.5555 3.2C53.9155 3.88 54.0955 4.73 54.0955 5.75C54.0955 7.59 53.9755 9.64 53.7355 11.9C53.4955 14.16 53.2555 16.66 53.0155 19.4H53.1055C53.7455 18.94 54.4355 18.53 55.1755 18.17C55.9155 17.81 56.6255 17.63 57.3055 17.63C57.7055 17.63 58.1555 17.74 58.6555 17.96C59.1555 18.16 59.5955 18.43 59.9755 18.77C60.3555 19.09 60.5455 19.45 60.5455 19.85C60.5455 20.11 60.4255 20.29 60.1855 20.39L52.9555 23.45ZM69.0106 23.45C68.3906 23.45 67.7806 23.35 67.1806 23.15C66.5806 22.95 66.1006 22.58 65.7406 22.04C64.2206 21.3 63.1306 20.23 62.4706 18.83C61.8306 17.41 61.5106 15.6 61.5106 13.4C61.5106 11.92 61.6906 10.46 62.0506 9.02C62.4306 7.58 62.9806 6.27 63.7006 5.09C64.4206 3.91 65.3106 2.97 66.3706 2.27C67.4506 1.55 68.6806 1.19 70.0606 1.19C70.8206 1.19 71.5806 1.32 72.3406 1.58C73.1006 1.84 73.6606 2.26 74.0206 2.84C74.9606 3.18 75.6706 3.7 76.1506 4.4C76.6306 5.1 76.9506 5.96 77.1106 6.98C77.2906 8 77.3806 9.17 77.3806 10.49C77.3806 11.65 77.2606 12.84 77.0206 14.06C76.7806 15.28 76.4306 16.45 75.9706 17.57C75.5106 18.69 74.9406 19.69 74.2606 20.57C73.5806 21.45 72.8006 22.15 71.9206 22.67C71.0406 23.19 70.0706 23.45 69.0106 23.45ZM67.9006 20.03C68.5406 19.87 69.1406 19.42 69.7006 18.68C70.2806 17.92 70.7906 16.99 71.2306 15.89C71.6906 14.77 72.0506 13.6 72.3106 12.38C72.5706 11.14 72.7006 9.97 72.7006 8.87C72.7006 7.81 72.5606 6.85 72.2806 5.99C72.0206 5.13 71.6006 4.63 71.0206 4.49C70.2806 4.63 69.6106 5.07 69.0106 5.81C68.4306 6.55 67.9406 7.46 67.5406 8.54C67.1606 9.62 66.8606 10.77 66.6406 11.99C66.4406 13.19 66.3406 14.34 66.3406 15.44C66.3406 16.66 66.4606 17.66 66.7006 18.44C66.9606 19.2 67.3606 19.73 67.9006 20.03ZM83.3844 23.39C83.0844 23.39 82.7444 23.28 82.3644 23.06C81.9844 22.86 81.6044 22.51 81.2244 22.01C80.8644 21.51 80.5644 20.83 80.3244 19.97C80.0844 19.11 79.9644 18.03 79.9644 16.73C79.9644 15.91 79.9844 14.86 80.0244 13.58C80.0644 12.28 80.1344 10.87 80.2344 9.35C80.3544 7.81 80.4944 6.26 80.6544 4.7C80.1744 4.38 79.7444 3.98 79.3644 3.5C79.0044 3 78.8244 2.5 78.8244 2C78.8244 1.82 78.8844 1.7 79.0044 1.64C79.1244 1.56 79.2544 1.52 79.3944 1.52C79.9544 1.52 80.6144 1.49 81.3744 1.43C82.1544 1.37 82.9444 1.31 83.7444 1.25C84.5444 1.19 85.2544 1.16 85.8744 1.16C87.0144 1.16 88.0644 1.35 89.0244 1.73C89.9844 2.09 90.8244 2.58 91.5444 3.2C92.2844 3.8 92.8544 4.46 93.2544 5.18C93.6544 5.88 93.8544 6.57 93.8544 7.25C93.8544 7.87 93.6244 8.63 93.1644 9.53C92.7244 10.43 92.0544 11.39 91.1544 12.41C90.2744 13.43 89.1744 14.41 87.8544 15.35L97.1844 26.24C97.2844 26.34 97.3744 26.47 97.4544 26.63C97.5344 26.79 97.5744 26.94 97.5744 27.08C97.5744 27.36 97.3944 27.5 97.0344 27.5C96.7344 27.5 96.3244 27.44 95.8044 27.32C95.2844 27.2 94.7444 27.01 94.1844 26.75C93.6444 26.51 93.1644 26.2 92.7444 25.82L84.0744 17.69C84.0544 18.31 84.0344 18.92 84.0144 19.52C83.9944 20.1 83.9844 20.64 83.9844 21.14C83.9844 21.48 83.9844 21.8 83.9844 22.1C84.0044 22.4 84.0244 22.68 84.0444 22.94V22.97C84.0444 23.13 83.9744 23.24 83.8344 23.3C83.6944 23.36 83.5444 23.39 83.3844 23.39ZM87.8544 4.64C87.4544 4.64 87.0244 4.67 86.5644 4.73C86.1244 4.79 85.6944 4.85 85.2744 4.91C85.0944 6.27 84.9244 7.75 84.7644 9.35C84.6044 10.93 84.4544 12.5 84.3144 14.06C85.3944 13.36 86.2944 12.58 87.0144 11.72C87.7344 10.84 88.2644 9.97 88.6044 9.11C88.9644 8.25 89.1444 7.47 89.1444 6.77C89.1444 6.23 89.0344 5.77 88.8144 5.39C88.6144 5.01 88.2944 4.76 87.8544 4.64ZM100.049 23.39C99.6487 23.39 99.1587 23.28 98.5787 23.06C98.0187 22.86 97.5187 22.5 97.0787 21.98C96.6587 21.46 96.4487 20.75 96.4487 19.85C96.4487 18.93 96.4987 17.77 96.5987 16.37C96.6987 14.95 96.8087 13.4 96.9287 11.72C97.0687 10.04 97.1887 8.33 97.2887 6.59C97.3887 4.85 97.4387 3.19 97.4387 1.61C97.4387 1.45 97.5587 1.34 97.7987 1.28C98.0387 1.2 98.3487 1.16 98.7287 1.16C99.1287 1.16 99.5787 1.28 100.079 1.52C100.599 1.74 101.049 2.13 101.429 2.69C101.809 3.23 101.999 4 101.999 5C101.999 5.42 101.969 6.14 101.909 7.16C101.869 8.18 101.809 9.37 101.729 10.73C101.649 12.09 101.549 13.51 101.429 14.99C101.329 16.47 101.219 17.91 101.099 19.31C100.979 20.69 100.849 21.9 100.709 22.94C100.669 23.24 100.449 23.39 100.049 23.39ZM107.403 24.29C106.723 24.29 106.113 24.03 105.573 23.51C105.053 23.01 104.793 22.24 104.793 21.2C104.793 20.78 104.853 20.31 104.973 19.79C104.633 19.51 104.373 19.19 104.193 18.83C104.013 18.45 103.923 18.13 103.923 17.87C103.943 17.71 104.083 17.58 104.343 17.48C104.623 17.38 105.093 17.29 105.753 17.21C106.353 15.51 107.043 13.64 107.823 11.6C108.623 9.56 109.553 7.34 110.613 4.94C110.853 4.42 111.183 4.16 111.603 4.16C111.783 4.16 111.973 4.21 112.173 4.31C112.133 3.73 112.093 3.16 112.053 2.6C112.033 2.12 112.123 1.77 112.323 1.55C112.543 1.33 112.813 1.22 113.133 1.22C113.533 1.22 113.963 1.37 114.423 1.67C114.883 1.97 115.283 2.39 115.623 2.93C115.963 3.47 116.143 4.12 116.163 4.88C116.183 5.64 116.243 6.62 116.343 7.82C116.463 9 116.603 10.28 116.763 11.66C116.923 13.02 117.093 14.36 117.273 15.68C117.693 15.74 118.123 15.89 118.563 16.13C119.023 16.35 119.413 16.64 119.733 17C120.053 17.34 120.213 17.73 120.213 18.17C120.213 18.49 120.103 18.69 119.883 18.77C119.663 18.85 119.383 18.89 119.043 18.89H118.323C118.223 18.89 118.123 18.89 118.023 18.89C117.943 18.89 117.853 18.89 117.753 18.89C117.913 19.83 118.063 20.62 118.203 21.26C118.343 21.9 118.473 22.32 118.593 22.52C118.713 22.72 118.633 22.92 118.353 23.12C118.073 23.32 117.753 23.42 117.393 23.42C116.713 23.42 116.113 23.18 115.593 22.7C115.073 22.22 114.703 21.31 114.483 19.97C114.443 19.79 114.413 19.6 114.393 19.4L108.783 20.27C108.563 20.95 108.343 21.62 108.123 22.28C107.963 22.8 107.873 23.21 107.853 23.51C107.853 23.81 107.843 24.01 107.823 24.11C107.803 24.23 107.663 24.29 107.403 24.29ZM112.803 10.1C112.323 11.22 111.863 12.32 111.423 13.4C110.983 14.48 110.553 15.54 110.133 16.58L113.793 16.07C113.613 15.07 113.433 14.08 113.253 13.1C113.093 12.12 112.943 11.12 112.803 10.1ZM125.099 24.29C124.419 24.29 123.809 24.03 123.269 23.51C122.749 23.01 122.489 22.24 122.489 21.2C122.489 20.78 122.549 20.31 122.669 19.79C122.329 19.51 122.069 19.19 121.889 18.83C121.709 18.45 121.619 18.13 121.619 17.87C121.639 17.71 121.779 17.58 122.039 17.48C122.319 17.38 122.789 17.29 123.449 17.21C124.049 15.51 124.739 13.64 125.519 11.6C126.319 9.56 127.249 7.34 128.309 4.94C128.549 4.42 128.879 4.16 129.299 4.16C129.479 4.16 129.669 4.21 129.869 4.31C129.829 3.73 129.789 3.16 129.749 2.6C129.729 2.12 129.819 1.77 130.019 1.55C130.239 1.33 130.509 1.22 130.829 1.22C131.229 1.22 131.659 1.37 132.119 1.67C132.579 1.97 132.979 2.39 133.319 2.93C133.659 3.47 133.839 4.12 133.859 4.88C133.879 5.64 133.939 6.62 134.039 7.82C134.159 9 134.299 10.28 134.459 11.66C134.619 13.02 134.789 14.36 134.969 15.68C135.389 15.74 135.819 15.89 136.259 16.13C136.719 16.35 137.109 16.64 137.429 17C137.749 17.34 137.909 17.73 137.909 18.17C137.909 18.49 137.799 18.69 137.579 18.77C137.359 18.85 137.079 18.89 136.739 18.89H136.019C135.919 18.89 135.819 18.89 135.719 18.89C135.639 18.89 135.549 18.89 135.449 18.89C135.609 19.83 135.759 20.62 135.899 21.26C136.039 21.9 136.169 22.32 136.289 22.52C136.409 22.72 136.329 22.92 136.049 23.12C135.769 23.32 135.449 23.42 135.089 23.42C134.409 23.42 133.809 23.18 133.289 22.7C132.769 22.22 132.399 21.31 132.179 19.97C132.139 19.79 132.109 19.6 132.089 19.4L126.479 20.27C126.259 20.95 126.039 21.62 125.819 22.28C125.659 22.8 125.569 23.21 125.549 23.51C125.549 23.81 125.539 24.01 125.519 24.11C125.499 24.23 125.359 24.29 125.099 24.29ZM130.499 10.1C130.019 11.22 129.559 12.32 129.119 13.4C128.679 14.48 128.249 15.54 127.829 16.58L131.489 16.07C131.309 15.07 131.129 14.08 130.949 13.1C130.789 12.12 130.639 11.12 130.499 10.1Z" fill="url(#paint0_linear_169_2612)"/>
<defs>
<linearGradient id="paint0_linear_169_2612" x1="-2.30571" y1="6.6939" x2="139.893" y2="21.3206" gradientUnits="userSpaceOnUse">
<stop stop-color="#C4242B"/>
<stop offset="1" stop-color="#E14249"/>
</linearGradient>
</defs>
</svg>
