<svg width="82" height="70" viewBox="0 0 82 70" fill="none" xmlns="http://www.w3.org/2000/svg">
<rect width="82" height="70" rx="4" fill="#C4242B" fill-opacity="0.1"/>
<path d="M48.0747 20C47.7872 19.625 47.4372 19.3 47.1122 18.975C46.2747 18.225 45.3248 17.6875 44.5247 16.9C42.6622 15.075 42.2498 12.0625 43.4372 9.75C42.2498 10.0375 41.2122 10.6875 40.3247 11.4C37.0872 14 35.8122 18.5875 37.3372 22.525C37.3872 22.65 37.4372 22.775 37.4372 22.9375C37.4372 23.2126 37.2497 23.4625 36.9997 23.5625C36.7122 23.6875 36.4122 23.6125 36.1747 23.4125C36.1033 23.3534 36.0439 23.2813 35.9997 23.2C34.5872 21.4126 34.3622 18.85 35.3122 16.8C33.2247 18.5 32.0872 21.375 32.2497 24.0875C32.3247 24.7126 32.3997 25.3375 32.6122 25.9625C32.7872 26.7125 33.1247 27.4625 33.4997 28.125C34.8497 30.2875 37.1872 31.8376 39.6998 32.15C42.3747 32.4875 45.2372 32 47.2872 30.15C49.5747 28.075 50.3747 24.75 49.1997 21.9L49.0372 21.575C48.7748 21 48.0747 20 48.0747 20ZM44.1248 27.875C43.7747 28.175 43.1997 28.5 42.7497 28.625C41.3498 29.125 39.9497 28.425 39.1247 27.6C40.6122 27.25 41.4998 26.15 41.7622 25.0375C41.9747 24.0374 41.5748 23.2126 41.4122 22.25C41.2622 21.325 41.2872 20.5375 41.6247 19.675C41.8622 20.15 42.1122 20.625 42.4122 21C43.3748 22.25 44.8872 22.8 45.2122 24.5C45.2622 24.675 45.2872 24.85 45.2872 25.0375C45.3248 26.0626 44.8748 27.1876 44.1248 27.875Z" fill="#C4242B"/>
<path d="M18.4214 49.558V52.414H21.7814V53.716H18.4214V56.698H22.2014V58H16.8254V48.256H22.2014V49.558H18.4214ZM27.4712 54.094L29.9632 58H28.1572L26.4912 55.382L24.9232 58H23.2572L25.7492 54.206L23.2572 50.286H25.0632L26.7292 52.904L28.2972 50.286H29.9632L27.4712 54.094ZM32.7495 51.42C33.0202 51.0653 33.3888 50.7667 33.8555 50.524C34.3222 50.2813 34.8495 50.16 35.4375 50.16C36.1095 50.16 36.7208 50.328 37.2715 50.664C37.8315 50.9907 38.2702 51.4527 38.5875 52.05C38.9048 52.6473 39.0635 53.3333 39.0635 54.108C39.0635 54.8827 38.9048 55.578 38.5875 56.194C38.2702 56.8007 37.8315 57.2767 37.2715 57.622C36.7208 57.958 36.1095 58.126 35.4375 58.126C34.8495 58.126 34.3268 58.0093 33.8695 57.776C33.4122 57.5333 33.0388 57.2347 32.7495 56.88V61.668H31.1535V50.286H32.7495V51.42ZM37.4395 54.108C37.4395 53.576 37.3275 53.1187 37.1035 52.736C36.8888 52.344 36.5995 52.05 36.2355 51.854C35.8808 51.6487 35.4982 51.546 35.0875 51.546C34.6862 51.546 34.3035 51.6487 33.9395 51.854C33.5848 52.0593 33.2955 52.358 33.0715 52.75C32.8568 53.142 32.7495 53.604 32.7495 54.136C32.7495 54.668 32.8568 55.1347 33.0715 55.536C33.2955 55.928 33.5848 56.2267 33.9395 56.432C34.3035 56.6373 34.6862 56.74 35.0875 56.74C35.4982 56.74 35.8808 56.6373 36.2355 56.432C36.5995 56.2173 36.8888 55.9093 37.1035 55.508C37.3275 55.1067 37.4395 54.64 37.4395 54.108ZM42.2378 47.64V58H40.6418V47.64H42.2378ZM47.6792 58.126C46.9512 58.126 46.2932 57.9627 45.7052 57.636C45.1172 57.3 44.6552 56.8333 44.3192 56.236C43.9832 55.6293 43.8152 54.9293 43.8152 54.136C43.8152 53.352 43.9879 52.6567 44.3332 52.05C44.6785 51.4433 45.1499 50.9767 45.7472 50.65C46.3445 50.3233 47.0119 50.16 47.7492 50.16C48.4865 50.16 49.1539 50.3233 49.7512 50.65C50.3485 50.9767 50.8199 51.4433 51.1652 52.05C51.5105 52.6567 51.6832 53.352 51.6832 54.136C51.6832 54.92 51.5059 55.6153 51.1512 56.222C50.7965 56.8287 50.3112 57.3 49.6952 57.636C49.0885 57.9627 48.4165 58.126 47.6792 58.126ZM47.6792 56.74C48.0899 56.74 48.4725 56.642 48.8272 56.446C49.1912 56.25 49.4852 55.956 49.7092 55.564C49.9332 55.172 50.0452 54.696 50.0452 54.136C50.0452 53.576 49.9379 53.1047 49.7232 52.722C49.5085 52.33 49.2239 52.036 48.8692 51.84C48.5145 51.644 48.1319 51.546 47.7212 51.546C47.3105 51.546 46.9279 51.644 46.5732 51.84C46.2279 52.036 45.9525 52.33 45.7472 52.722C45.5419 53.1047 45.4392 53.576 45.4392 54.136C45.4392 54.9667 45.6492 55.6107 46.0692 56.068C46.4985 56.516 47.0352 56.74 47.6792 56.74ZM54.8569 51.406C55.0903 51.014 55.3983 50.7107 55.7809 50.496C56.1729 50.272 56.6349 50.16 57.1669 50.16V51.812H56.7609C56.1356 51.812 55.6596 51.9707 55.3329 52.288C55.0156 52.6053 54.8569 53.156 54.8569 53.94V58H53.2609V50.286H54.8569V51.406ZM65.704 53.954C65.704 54.2433 65.6853 54.5047 65.648 54.738H59.754C59.8007 55.354 60.0293 55.8487 60.44 56.222C60.8507 56.5953 61.3547 56.782 61.952 56.782C62.8107 56.782 63.4173 56.4227 63.772 55.704H65.494C65.2607 56.4133 64.836 56.9967 64.22 57.454C63.6133 57.902 62.8573 58.126 61.952 58.126C61.2147 58.126 60.552 57.9627 59.964 57.636C59.3853 57.3 58.928 56.8333 58.592 56.236C58.2653 55.6293 58.102 54.9293 58.102 54.136C58.102 53.3427 58.2607 52.6473 58.578 52.05C58.9047 51.4433 59.3573 50.9767 59.936 50.65C60.524 50.3233 61.196 50.16 61.952 50.16C62.68 50.16 63.3287 50.3187 63.898 50.636C64.4673 50.9533 64.9107 51.4013 65.228 51.98C65.5453 52.5493 65.704 53.2073 65.704 53.954ZM64.038 53.45C64.0287 52.862 63.8187 52.3907 63.408 52.036C62.9973 51.6813 62.4887 51.504 61.882 51.504C61.3313 51.504 60.86 51.6813 60.468 52.036C60.076 52.3813 59.8427 52.8527 59.768 53.45H64.038Z" fill="#C4242B"/>
</svg>
