<svg width="82" height="70" viewBox="0 0 82 70" fill="none" xmlns="http://www.w3.org/2000/svg">
<rect width="82" height="70" rx="4" fill="white" fill-opacity="0.1"/>
<path d="M45.4637 33.8238C45.5137 33.1911 45.3638 32.5417 45.8966 32.0255C46.4294 31.5094 47.0789 31.6925 47.7115 31.6426V19.321H34.3743V31.6092C34.6241 31.6092 34.8738 31.6092 35.1402 31.6092C36.0227 31.6092 36.5888 32.1754 36.5888 33.0745C36.5888 33.3076 36.5888 33.5407 36.5888 33.8238C36.772 33.8238 36.9552 33.8238 37.1217 33.8238C37.5379 33.8238 37.9709 33.8238 38.3871 33.8238C38.6869 33.8238 38.8201 34.0069 38.8201 34.29C38.8201 34.5564 38.6535 34.723 38.3538 34.7395C38.3039 34.7395 38.2539 34.7395 38.204 34.7395C34.5408 34.7395 30.861 34.7395 27.1978 34.7395C27.1312 34.7395 27.0646 34.7395 26.9814 34.7395C26.715 34.7063 26.5651 34.5397 26.5651 34.2733C26.5651 34.0236 26.715 33.8238 26.9814 33.8238C27.3976 33.8071 27.8306 33.8238 28.2468 33.8238C28.4133 33.8238 28.5798 33.8238 28.7796 33.8238C28.8296 33.1744 28.6797 32.5084 29.2292 31.9923C29.762 31.4927 30.4114 31.6426 31.0442 31.6092V19.2544C30.9276 19.2544 30.811 19.2544 30.7111 19.2544C29.3458 19.2544 27.9804 19.2544 26.6151 19.2544C26.1488 19.2544 26.0323 19.1212 26.0156 18.6717C26.0156 18.1222 26.0156 17.5893 26.0156 17.0398C26.0156 16.6569 26.1488 16.507 26.5484 16.507C27.1479 16.507 27.7473 16.507 28.3967 16.507C28.3967 16.0908 28.3967 15.7078 28.3967 15.3082C28.3967 15.1417 28.3967 14.9585 28.3967 14.792C28.3967 14.3091 28.6464 14.126 29.096 14.2758C29.6621 14.459 30.2449 14.6588 30.811 14.8586C30.8776 14.8753 30.9442 14.9086 31.0775 14.9419C31.0775 14.7587 31.0608 14.5922 31.0775 14.4257C31.1774 13.5265 30.8943 12.7606 30.4947 11.9614C30.1783 11.3286 29.812 11.0123 29.1127 11.1455C28.8463 11.1954 28.5632 11.1455 28.2968 11.1455C27.9971 11.1455 27.8139 11.0289 27.6641 10.7792C27.1645 9.81342 26.6317 8.86433 26.1322 7.91524C25.8991 7.48231 26.0656 7.19925 26.5651 7.23256C27.0979 7.26586 27.6141 7.36576 28.1469 7.41571C29.7454 7.58223 31.3439 7.78203 32.9423 7.86528C35.8396 8.01514 38.7201 8.11505 41.6174 8.14835C44.9142 8.18165 48.1944 7.98184 51.458 7.64883C52.7234 7.51561 53.9723 7.36576 55.2377 7.23256C55.4209 7.2159 55.6207 7.2492 55.7706 7.33246C55.9869 7.44901 56.0203 7.64883 55.9038 7.88194C55.3543 8.89763 54.8048 9.91332 54.2719 10.929C54.1387 11.1621 53.9389 11.2454 53.7059 11.2454C53.1896 11.2454 52.6735 11.2454 52.1739 11.2454C52.0574 11.2454 51.9075 11.3453 51.8576 11.4286C51.5579 11.9614 51.2915 12.4942 51.0084 13.027C50.9751 13.0936 50.9251 13.1769 50.9251 13.2435C50.9251 13.8096 50.9251 14.3924 50.9251 15.0085C51.3747 14.8586 51.791 14.7254 52.2073 14.5755C52.457 14.4923 52.7067 14.3924 52.9566 14.3258C53.3562 14.2092 53.6059 14.3924 53.6059 14.8253C53.6059 15.3914 53.6059 15.9576 53.6059 16.557C53.9556 16.557 54.2886 16.557 54.6383 16.557C54.938 16.557 55.2211 16.557 55.5207 16.557C55.8372 16.557 55.9869 16.7235 56.0036 17.0565C56.0036 17.606 56.0036 18.1554 56.0036 18.7216C56.0036 19.1379 55.8537 19.2877 55.4375 19.2877C54.0555 19.2877 52.6568 19.2877 51.2748 19.2877C51.1916 19.2877 51.0917 19.2877 50.9751 19.2877V31.6426C51.5912 31.6925 52.2572 31.5261 52.7733 32.0255C53.3063 32.5417 53.1731 33.1911 53.2063 33.8405C53.7224 33.8405 54.2387 33.8405 54.7548 33.8405C54.888 33.8405 55.0379 33.8405 55.1711 33.8571C55.4209 33.9071 55.5207 34.0735 55.5207 34.3067C55.5207 34.5564 55.4042 34.7063 55.1711 34.7562C55.0878 34.7729 55.0046 34.7562 54.938 34.7562C51.2582 34.7562 47.5783 34.7562 43.8985 34.7562C43.7154 34.7562 43.4657 34.6729 43.3657 34.5232C43.1327 34.2234 43.3657 33.8405 43.782 33.8238C44.2649 33.8238 44.7477 33.8238 45.2306 33.8238C45.3139 33.8238 45.4137 33.8238 45.5137 33.8238H45.4637ZM54.6549 8.14835C45.5137 9.26394 36.439 9.26394 27.3144 8.14835C27.6474 8.78107 27.9638 9.33055 28.2302 9.89668C28.3634 10.1631 28.5132 10.263 28.8296 10.263C36.9385 10.263 45.0474 10.263 53.1397 10.263C53.223 10.263 53.3063 10.263 53.3729 10.263C53.456 10.2463 53.556 10.1964 53.5892 10.1464C53.9389 9.51371 54.2719 8.88099 54.6383 8.18165L54.6549 8.14835ZM50.8585 11.2121H31.1274C31.3272 11.5951 31.527 11.9281 31.6935 12.2777C31.8101 12.5108 31.9433 12.5941 32.2097 12.5941C38.0708 12.5941 43.9152 12.5941 49.7762 12.5941C49.8428 12.5941 49.9261 12.5941 49.9927 12.5941C50.0593 12.5774 50.1593 12.5441 50.1758 12.4942C50.409 12.0779 50.6255 11.6783 50.8585 11.2287V11.2121ZM32.0265 13.5598V31.6758H33.3086V13.5598H32.0265ZM49.9094 31.6925V13.5432H48.644V31.6925H49.9094ZM34.3244 13.5598V16.557H38.5537V13.5598H34.3244ZM43.4323 16.557H47.6616V13.5765H43.4323V16.557ZM34.3077 18.3387H47.6616V17.4894H34.3077V18.3387ZM39.5028 16.557H42.5166V13.5598H39.5028V16.557ZM35.6065 33.8904C35.6065 33.6573 35.6065 33.4409 35.6065 33.2244C35.6065 32.7915 35.4566 32.6416 35.0237 32.6416C34.0746 32.6416 33.1088 32.6416 32.1598 32.6416C31.527 32.6416 30.8943 32.6416 30.2616 32.6416C30.0118 32.6416 29.7953 32.7249 29.762 32.9746C29.7287 33.2743 29.762 33.5907 29.762 33.8904H35.6065ZM46.3628 33.8904H52.2073C52.2073 33.624 52.2073 33.3743 52.2073 33.1245C52.2073 32.8081 52.0574 32.6416 51.7244 32.6416C50.0927 32.6416 48.4775 32.6416 46.8457 32.6416C46.5294 32.6416 46.3795 32.8081 46.3628 33.1078C46.3628 33.3576 46.3628 33.6073 46.3628 33.8904ZM31.0608 17.4894H26.9814V18.3387H31.0608V17.4894ZM55.0379 17.4894H50.9585V18.322H55.0379V17.4894ZM31.1607 16.507C31.1108 16.2906 31.1274 15.9909 31.0275 15.9409C30.4947 15.7078 29.9285 15.5413 29.3791 15.3581V16.507H31.1607ZM50.9085 16.507H52.6401V15.3748C52.1739 15.5246 51.741 15.6745 51.3081 15.8243C51.0084 15.9242 50.8752 16.1518 50.9085 16.507Z" fill="#515151"/>
<path d="M26.9524 50.636V56.816C26.9524 57.504 26.7404 58.056 26.3164 58.472C25.8924 58.88 25.3324 59.084 24.6364 59.084C23.9324 59.084 23.3684 58.876 22.9444 58.46C22.5204 58.036 22.3084 57.46 22.3084 56.732H23.4004C23.4084 57.14 23.5124 57.472 23.7124 57.728C23.9204 57.984 24.2284 58.112 24.6364 58.112C25.0444 58.112 25.3484 57.992 25.5484 57.752C25.7484 57.504 25.8484 57.192 25.8484 56.816V50.636H26.9524ZM28.6957 55.688C28.6957 55.016 28.8317 54.428 29.1037 53.924C29.3757 53.412 29.7477 53.016 30.2197 52.736C30.6997 52.456 31.2317 52.316 31.8157 52.316C32.3917 52.316 32.8917 52.44 33.3157 52.688C33.7397 52.936 34.0557 53.248 34.2637 53.624V52.424H35.3677V59H34.2637V57.776C34.0477 58.16 33.7237 58.48 33.2917 58.736C32.8677 58.984 32.3717 59.108 31.8037 59.108C31.2197 59.108 30.6917 58.964 30.2197 58.676C29.7477 58.388 29.3757 57.984 29.1037 57.464C28.8317 56.944 28.6957 56.352 28.6957 55.688ZM34.2637 55.7C34.2637 55.204 34.1637 54.772 33.9637 54.404C33.7637 54.036 33.4917 53.756 33.1477 53.564C32.8117 53.364 32.4397 53.264 32.0317 53.264C31.6237 53.264 31.2517 53.36 30.9157 53.552C30.5797 53.744 30.3117 54.024 30.1117 54.392C29.9117 54.76 29.8117 55.192 29.8117 55.688C29.8117 56.192 29.9117 56.632 30.1117 57.008C30.3117 57.376 30.5797 57.66 30.9157 57.86C31.2517 58.052 31.6237 58.148 32.0317 58.148C32.4397 58.148 32.8117 58.052 33.1477 57.86C33.4917 57.66 33.7637 57.376 33.9637 57.008C34.1637 56.632 34.2637 56.196 34.2637 55.7ZM38.3051 53.636C38.5211 53.26 38.8411 52.948 39.2651 52.7C39.6971 52.444 40.1971 52.316 40.7651 52.316C41.3491 52.316 41.8771 52.456 42.3491 52.736C42.8291 53.016 43.2051 53.412 43.4771 53.924C43.7491 54.428 43.8851 55.016 43.8851 55.688C43.8851 56.352 43.7491 56.944 43.4771 57.464C43.2051 57.984 42.8291 58.388 42.3491 58.676C41.8771 58.964 41.3491 59.108 40.7651 59.108C40.2051 59.108 39.7091 58.984 39.2771 58.736C38.8531 58.48 38.5291 58.164 38.3051 57.788V62.12H37.2131V52.424H38.3051V53.636ZM42.7691 55.688C42.7691 55.192 42.6691 54.76 42.4691 54.392C42.2691 54.024 41.9971 53.744 41.6531 53.552C41.3171 53.36 40.9451 53.264 40.5371 53.264C40.1371 53.264 39.7651 53.364 39.4211 53.564C39.0851 53.756 38.8131 54.04 38.6051 54.416C38.4051 54.784 38.3051 55.212 38.3051 55.7C38.3051 56.196 38.4051 56.632 38.6051 57.008C38.8131 57.376 39.0851 57.66 39.4211 57.86C39.7651 58.052 40.1371 58.148 40.5371 58.148C40.9451 58.148 41.3171 58.052 41.6531 57.86C41.9971 57.66 42.2691 57.376 42.4691 57.008C42.6691 56.632 42.7691 56.192 42.7691 55.688ZM44.9144 55.688C44.9144 55.016 45.0504 54.428 45.3224 53.924C45.5944 53.412 45.9664 53.016 46.4384 52.736C46.9184 52.456 47.4504 52.316 48.0344 52.316C48.6104 52.316 49.1104 52.44 49.5344 52.688C49.9584 52.936 50.2744 53.248 50.4824 53.624V52.424H51.5864V59H50.4824V57.776C50.2664 58.16 49.9424 58.48 49.5104 58.736C49.0864 58.984 48.5904 59.108 48.0224 59.108C47.4384 59.108 46.9104 58.964 46.4384 58.676C45.9664 58.388 45.5944 57.984 45.3224 57.464C45.0504 56.944 44.9144 56.352 44.9144 55.688ZM50.4824 55.7C50.4824 55.204 50.3824 54.772 50.1824 54.404C49.9824 54.036 49.7104 53.756 49.3664 53.564C49.0304 53.364 48.6584 53.264 48.2504 53.264C47.8424 53.264 47.4704 53.36 47.1344 53.552C46.7984 53.744 46.5304 54.024 46.3304 54.392C46.1304 54.76 46.0304 55.192 46.0304 55.688C46.0304 56.192 46.1304 56.632 46.3304 57.008C46.5304 57.376 46.7984 57.66 47.1344 57.86C47.4704 58.052 47.8424 58.148 48.2504 58.148C48.6584 58.148 49.0304 58.052 49.3664 57.86C49.7104 57.66 49.9824 57.376 50.1824 57.008C50.3824 56.632 50.4824 56.196 50.4824 55.7ZM56.6358 52.304C57.4358 52.304 58.0838 52.548 58.5798 53.036C59.0758 53.516 59.3238 54.212 59.3238 55.124V59H58.2438V55.28C58.2438 54.624 58.0798 54.124 57.7518 53.78C57.4238 53.428 56.9758 53.252 56.4078 53.252C55.8318 53.252 55.3718 53.432 55.0278 53.792C54.6918 54.152 54.5238 54.676 54.5238 55.364V59H53.4318V52.424H54.5238V53.36C54.7398 53.024 55.0318 52.764 55.3998 52.58C55.7758 52.396 56.1878 52.304 56.6358 52.304Z" fill="#515151"/>
</svg>
