<svg width="82" height="70" viewBox="0 0 82 70" fill="none" xmlns="http://www.w3.org/2000/svg">
<rect width="82" height="70" rx="4" fill="white" fill-opacity="0.1"/>
<path d="M35.0211 11.6168C35.8395 16.0436 36.6207 20.4332 37.4391 24.86C37.5135 25.3808 38.2575 25.1576 38.1459 24.6368C37.3275 20.21 36.5463 15.8204 35.7279 11.3936C35.6535 10.91 34.9467 11.096 35.0211 11.6168Z" fill="#515151"/>
<path d="M49.1188 11.3936C48.3004 15.8204 47.5192 20.21 46.7008 24.6368C46.6264 25.1576 47.3332 25.3436 47.4076 24.86C48.226 20.4332 49.0072 16.0436 49.8256 11.6168C49.9372 11.096 49.2304 10.91 49.1188 11.3936Z" fill="#515151"/>
<path d="M33.4607 13.1785C35.2091 11.2813 37.5155 9.90494 40.0452 9.34694C42.5748 8.78894 45.3276 9.08654 47.7084 10.2769C49.0848 10.9465 50.3496 11.8765 51.4656 12.9181C51.8004 13.2529 52.3212 12.7321 51.9864 12.3973C49.9404 10.4629 47.3736 8.93774 44.5464 8.45414C41.7192 7.97054 39.0408 8.56574 36.6227 9.79334C35.2463 10.5001 33.9815 11.4673 32.9399 12.6205C32.6051 12.9925 33.1259 13.5133 33.4607 13.1785Z" fill="#515151"/>
<path d="M39.4114 9.12381C38.7046 9.12381 38.1094 8.52861 38.1094 7.82181V7.71021C38.1094 7.0034 38.7046 6.4082 39.4114 6.4082H45.3634C46.0702 6.4082 46.6654 7.0034 46.6654 7.71021V7.82181C46.6654 8.52861 46.0702 9.12381 45.3634 9.12381" stroke="#515151" stroke-width="0.575567" stroke-miterlimit="10"/>
<path d="M35.6876 23.8922C37.7336 20.9906 40.0772 18.3494 42.644 15.9315C42.9788 15.5967 42.458 15.0759 42.1232 15.4107C39.482 17.8659 37.1384 20.5814 35.0552 23.5202C34.7576 23.9294 35.4272 24.3014 35.6876 23.8922Z" fill="#515151"/>
<path d="M49.7159 23.5201C47.6327 20.5813 45.2519 17.8657 42.6479 15.4105C42.3131 15.0757 41.7551 15.5965 42.1271 15.9313C44.6939 18.3493 47.0375 21.0277 49.0835 23.8921C49.3439 24.3013 49.9763 23.9293 49.7159 23.5201Z" fill="#515151"/>
<path d="M35.6169 13.4765C36.0633 13.6625 36.4353 13.4765 36.6585 13.1045C36.7329 12.9557 36.8073 12.6953 36.9189 12.5837C37.0677 12.4721 37.3653 12.6581 37.5885 12.5837C37.8489 12.5093 37.9605 12.2489 38.1465 12.0629C38.4441 11.7653 38.9277 11.9513 39.2997 11.8769C39.5973 11.8025 39.7461 11.6165 40.0065 11.5049C40.3041 11.3561 40.4529 11.6909 40.7877 11.7653C41.0109 11.8025 41.2341 11.7281 41.4201 11.5793C41.4945 11.5049 41.5689 11.3561 41.6433 11.3189C41.8293 11.1701 41.6061 11.2445 41.7177 11.2817C41.7549 11.2817 41.8293 11.3933 41.8665 11.4305C42.3129 11.8397 42.7965 11.6537 43.2801 11.3933C43.3917 11.3189 43.5033 11.2445 43.6521 11.2445C43.8009 11.2445 43.5777 11.1329 43.6893 11.2445L43.7265 11.3933C43.8009 11.6537 44.0241 11.8769 44.2473 11.9885C44.5077 12.1373 44.8425 12.1373 45.1401 12.0629C45.4749 12.0257 45.9213 11.7653 46.2561 11.9141C46.5165 12.0257 46.6281 12.2861 46.8885 12.3605C46.9629 12.3977 47.0745 12.3977 47.1489 12.4349C47.1861 12.4349 47.3349 12.5093 47.2605 12.4721C47.2233 12.4349 47.4093 12.6581 47.4465 12.6953C47.6325 12.8813 47.7813 12.9557 48.0045 13.0301C48.3393 13.1417 48.5253 13.1045 48.5997 13.5137C48.6741 13.9973 49.4181 13.7741 49.3065 13.3277C49.1949 12.7325 48.8601 12.5465 48.3021 12.3605C47.8929 12.2489 47.7441 11.8397 47.3349 11.7281C47.0001 11.6537 46.8885 11.4305 46.6281 11.2817C46.3677 11.1329 46.0329 11.0957 45.7353 11.1701C45.4377 11.2445 44.9541 11.4677 44.6193 11.3189C44.3589 11.2073 44.4333 10.8725 44.2473 10.6865C43.8009 10.2401 43.2057 10.6493 42.7593 10.8353C42.4617 10.9841 42.4245 10.7981 42.2013 10.6493C41.9781 10.4633 41.7177 10.4633 41.4573 10.5749C41.3457 10.6121 41.2341 10.6865 41.1597 10.7609C41.1597 10.7981 40.9737 11.0213 40.9737 11.0213C40.8993 11.0213 40.6761 10.7981 40.6017 10.7609C40.4529 10.6865 40.2669 10.6493 40.1181 10.6493C39.8205 10.6493 39.6717 10.8353 39.4485 10.9841C39.0765 11.2445 38.6301 11.0585 38.2209 11.1701C38.0349 11.2073 37.8861 11.2817 37.7373 11.3933C37.6257 11.5049 37.5513 11.6909 37.4397 11.7653C37.2909 11.8769 36.9189 11.6909 36.6585 11.8397C36.4353 11.9513 36.3237 12.1745 36.2121 12.3605C36.1005 12.5837 36.0633 12.8069 35.8401 12.7325C35.3565 12.5837 35.1705 13.2905 35.6169 13.4765Z" fill="#515151"/>
<path d="M35.0209 23.9291C35.3185 26.9423 37.4389 29.5091 40.3404 30.3275C43.056 31.1087 45.9576 30.1043 47.892 28.0955C48.9708 26.9423 49.566 25.4915 49.7892 23.9291C49.8636 23.4455 49.1196 23.4455 49.0452 23.9291C48.7104 26.3843 47.148 28.2071 44.9532 29.2487C42.498 30.4391 39.5592 29.8439 37.6621 27.9095C36.5833 26.8307 35.9137 25.4543 35.7649 23.9291C35.7277 23.4827 34.9837 23.4827 35.0209 23.9291Z" fill="#515151"/>
<path d="M41.8666 21.8468C41.011 24.302 40.1182 26.7572 39.2626 29.2124C39.1138 29.6588 39.8206 29.8448 39.9694 29.3984C40.825 26.9432 41.7178 24.488 42.5734 22.0328C42.7594 21.5864 42.0154 21.4004 41.8666 21.8468Z" fill="#515151"/>
<path d="M41.9789 22.0328C42.8345 24.488 43.7273 26.9432 44.5829 29.3984C44.7317 29.8448 45.4757 29.6588 45.2897 29.2124C44.4341 26.7572 43.5413 24.302 42.6857 21.8468C42.5369 21.4004 41.7929 21.5864 41.9789 22.0328Z" fill="#515151"/>
<path d="M42.1285 23.1849C43.2073 24.0405 44.3977 24.7101 45.6997 25.1565C46.3321 25.3797 47.0017 25.5285 47.6713 25.6029C48.2665 25.6773 48.8617 25.7145 49.3825 25.3053C49.7545 25.0077 49.2337 24.4497 48.8617 24.7845C48.4897 25.1193 47.7829 24.8961 47.3737 24.8217C46.7785 24.7101 46.2205 24.5613 45.6625 24.3753C44.5465 23.9661 43.5421 23.4081 42.6121 22.6641C42.2773 22.3665 41.7565 22.8873 42.1285 23.1849Z" fill="#515151"/>
<path d="M42.0145 22.5527C40.3777 24.0035 38.0341 25.4543 35.7649 24.4499C35.3185 24.2639 34.9465 24.8963 35.3929 25.0823C37.9969 26.2355 40.6009 24.7847 42.5353 23.0735C42.9073 22.7759 42.3865 22.2551 42.0145 22.5527Z" fill="#515151"/>
<path d="M37.2516 12.5089C37.5864 14.6665 37.9956 16.8241 38.4792 18.9817C38.5908 19.4653 39.2976 19.2421 39.186 18.7957C38.7024 16.6381 38.3304 14.4805 37.9584 12.3229C37.884 11.8393 37.1772 12.0253 37.2516 12.5089Z" fill="#515151"/>
<path d="M46.6634 12.2486C46.3286 14.5178 45.9194 16.787 45.3986 19.019C45.287 19.4654 45.9938 19.6886 46.1054 19.205C46.6262 16.973 47.0354 14.7038 47.3702 12.4346C47.4446 11.951 46.7378 11.765 46.6634 12.2486Z" fill="#515151"/>
<path d="M29.8106 27.0919C30.1454 26.7199 30.5918 26.4595 31.1126 26.3479C31.6706 26.2363 32.1914 26.3479 32.675 26.5339C33.6794 26.8687 34.7582 27.3151 35.7998 26.7571C36.209 26.5339 35.837 25.9015 35.4278 26.1247C34.3862 26.6827 33.1958 25.8271 32.1542 25.6411C31.1126 25.4551 29.9966 25.7899 29.2526 26.5711C28.955 26.9059 29.4758 27.4267 29.8106 27.0919Z" fill="#515151"/>
<path d="M48.7098 27.2033C49.677 26.2361 51.2022 27.3893 52.1694 27.7613C53.2482 28.1705 54.6618 28.0217 55.1454 26.7941C55.3314 26.3477 54.5874 26.1617 54.4386 26.6081C54.2526 27.0917 53.6574 27.2777 53.211 27.2405C52.5414 27.2033 51.9834 26.8313 51.3882 26.5709C50.3838 26.1245 49.119 25.7897 48.2262 26.6825C47.8542 27.0173 48.375 27.5381 48.7098 27.2033Z" fill="#515151"/>
<path d="M34.571 32.7829C35.5754 33.5269 36.8774 33.8617 38.1422 33.7501C38.7746 33.6757 39.3326 33.5269 39.9278 33.2665C40.523 32.9689 41.0438 32.5597 41.6762 32.2993C43.2014 31.5925 44.6894 32.5969 46.103 33.0805C47.2934 33.4897 48.6326 33.5641 49.637 32.6713C50.009 32.3365 49.451 31.8157 49.1162 32.1505C48.0746 33.0805 46.5494 32.4853 45.4334 32.0389C44.243 31.5553 42.941 31.0345 41.639 31.5181C40.523 31.9273 39.6674 32.7457 38.477 32.9689C37.2866 33.1921 35.9846 32.8573 34.9802 32.1505C34.5338 31.8529 34.1618 32.5225 34.571 32.7829Z" fill="#515151"/>
<path d="M47.9669 30.0303C48.2645 29.5839 48.9341 29.5839 49.4177 29.7699C50.0501 29.9931 50.5709 30.4395 51.1289 30.7743C51.6869 31.1091 52.3193 31.2951 52.9889 31.1835C53.6585 31.0719 54.1421 30.6255 54.5885 30.2163C54.9605 29.9187 54.4397 29.3607 54.0677 29.6955C53.5841 30.1419 52.9889 30.5883 52.2821 30.4395C51.5753 30.2907 51.0173 29.8071 50.4221 29.4723C49.4549 28.8771 48.0785 28.6167 47.2973 29.6583C47.0369 30.0303 47.7065 30.4023 47.9669 30.0303Z" fill="#515151"/>
<path d="M27.5444 29.5469C27.6188 30.1793 28.1768 30.5885 28.7348 30.7001C29.4788 30.8489 30.1484 30.5513 30.818 30.2537C31.5248 29.9189 32.1944 29.6585 32.9756 29.6957C33.7568 29.7329 34.5008 29.9933 35.096 30.4769C35.468 30.7745 35.84 30.1049 35.468 29.8445C34.3892 29.0261 32.9384 28.7657 31.6364 29.1377C30.9296 29.3237 30.3344 29.7701 29.6276 29.9933C29.1068 30.1421 28.3256 30.0677 28.214 29.3981C28.214 28.8773 27.5072 29.1005 27.5444 29.5469Z" fill="#515151"/>
<path d="M40.602 35.9074C41.718 35.4982 42.9456 35.4238 44.136 35.7214C44.5824 35.833 44.8056 35.1262 44.322 35.0146C43.02 34.717 41.6436 34.7542 40.416 35.2006C40.23 35.275 40.1184 35.461 40.1556 35.647C40.1928 35.833 40.3788 35.9818 40.602 35.9074Z" fill="#515151"/>
<path d="M21.9444 59L18.5004 55.184V59H17.4084V50.636H18.5004V54.512L21.9564 50.636H23.3364L19.5444 54.824L23.3724 59H21.9444ZM24.184 55.688C24.184 55.016 24.32 54.428 24.592 53.924C24.864 53.412 25.236 53.016 25.708 52.736C26.188 52.456 26.72 52.316 27.304 52.316C27.88 52.316 28.38 52.44 28.804 52.688C29.228 52.936 29.544 53.248 29.752 53.624V52.424H30.856V59H29.752V57.776C29.536 58.16 29.212 58.48 28.78 58.736C28.356 58.984 27.86 59.108 27.292 59.108C26.708 59.108 26.18 58.964 25.708 58.676C25.236 58.388 24.864 57.984 24.592 57.464C24.32 56.944 24.184 56.352 24.184 55.688ZM29.752 55.7C29.752 55.204 29.652 54.772 29.452 54.404C29.252 54.036 28.98 53.756 28.636 53.564C28.3 53.364 27.928 53.264 27.52 53.264C27.112 53.264 26.74 53.36 26.404 53.552C26.068 53.744 25.8 54.024 25.6 54.392C25.4 54.76 25.3 55.192 25.3 55.688C25.3 56.192 25.4 56.632 25.6 57.008C25.8 57.376 26.068 57.66 26.404 57.86C26.74 58.052 27.112 58.148 27.52 58.148C27.928 58.148 28.3 58.052 28.636 57.86C28.98 57.66 29.252 57.376 29.452 57.008C29.652 56.632 29.752 56.196 29.752 55.7ZM35.0293 59.108C34.5253 59.108 34.0733 59.024 33.6733 58.856C33.2733 58.68 32.9573 58.44 32.7253 58.136C32.4933 57.824 32.3653 57.468 32.3413 57.068H33.4693C33.5013 57.396 33.6533 57.664 33.9253 57.872C34.2053 58.08 34.5693 58.184 35.0173 58.184C35.4333 58.184 35.7613 58.092 36.0013 57.908C36.2413 57.724 36.3613 57.492 36.3613 57.212C36.3613 56.924 36.2333 56.712 35.9773 56.576C35.7213 56.432 35.3253 56.292 34.7893 56.156C34.3013 56.028 33.9013 55.9 33.5893 55.772C33.2853 55.636 33.0213 55.44 32.7973 55.184C32.5813 54.92 32.4733 54.576 32.4733 54.152C32.4733 53.816 32.5733 53.508 32.7733 53.228C32.9733 52.948 33.2573 52.728 33.6253 52.568C33.9933 52.4 34.4133 52.316 34.8853 52.316C35.6133 52.316 36.2013 52.5 36.6493 52.868C37.0973 53.236 37.3373 53.74 37.3693 54.38H36.2773C36.2533 54.036 36.1133 53.76 35.8573 53.552C35.6093 53.344 35.2733 53.24 34.8493 53.24C34.4573 53.24 34.1453 53.324 33.9133 53.492C33.6813 53.66 33.5653 53.88 33.5653 54.152C33.5653 54.368 33.6333 54.548 33.7693 54.692C33.9133 54.828 34.0893 54.94 34.2973 55.028C34.5133 55.108 34.8093 55.2 35.1853 55.304C35.6573 55.432 36.0413 55.56 36.3373 55.688C36.6333 55.808 36.8853 55.992 37.0933 56.24C37.3093 56.488 37.4213 56.812 37.4293 57.212C37.4293 57.572 37.3293 57.896 37.1293 58.184C36.9293 58.472 36.6453 58.7 36.2773 58.868C35.9173 59.028 35.5013 59.108 35.0293 59.108ZM42.2349 52.304C42.7309 52.304 43.1789 52.412 43.5789 52.628C43.9789 52.836 44.2909 53.152 44.5149 53.576C44.7469 54 44.8629 54.516 44.8629 55.124V59H43.7829V55.28C43.7829 54.624 43.6189 54.124 43.2909 53.78C42.9629 53.428 42.5149 53.252 41.9469 53.252C41.3709 53.252 40.9109 53.432 40.5669 53.792C40.2309 54.152 40.0629 54.676 40.0629 55.364V59H38.9709V50.12H40.0629V53.36C40.2789 53.024 40.5749 52.764 40.9509 52.58C41.3349 52.396 41.7629 52.304 42.2349 52.304ZM54.5547 52.304C55.0667 52.304 55.5227 52.412 55.9227 52.628C56.3227 52.836 56.6387 53.152 56.8707 53.576C57.1027 54 57.2187 54.516 57.2187 55.124V59H56.1387V55.28C56.1387 54.624 55.9747 54.124 55.6467 53.78C55.3267 53.428 54.8907 53.252 54.3387 53.252C53.7707 53.252 53.3187 53.436 52.9827 53.804C52.6467 54.164 52.4787 54.688 52.4787 55.376V59H51.3987V55.28C51.3987 54.624 51.2347 54.124 50.9067 53.78C50.5867 53.428 50.1507 53.252 49.5987 53.252C49.0307 53.252 48.5787 53.436 48.2427 53.804C47.9067 54.164 47.7387 54.688 47.7387 55.376V59H46.6467V52.424H47.7387V53.372C47.9547 53.028 48.2427 52.764 48.6027 52.58C48.9707 52.396 49.3747 52.304 49.8147 52.304C50.3667 52.304 50.8547 52.428 51.2787 52.676C51.7027 52.924 52.0187 53.288 52.2267 53.768C52.4107 53.304 52.7147 52.944 53.1387 52.688C53.5627 52.432 54.0347 52.304 54.5547 52.304ZM59.5739 51.356C59.3659 51.356 59.1899 51.284 59.0459 51.14C58.9019 50.996 58.8299 50.82 58.8299 50.612C58.8299 50.404 58.9019 50.228 59.0459 50.084C59.1899 49.94 59.3659 49.868 59.5739 49.868C59.7739 49.868 59.9419 49.94 60.0779 50.084C60.2219 50.228 60.2939 50.404 60.2939 50.612C60.2939 50.82 60.2219 50.996 60.0779 51.14C59.9419 51.284 59.7739 51.356 59.5739 51.356ZM60.1019 52.424V59H59.0099V52.424H60.1019ZM63.0551 53.492C63.2471 53.116 63.5191 52.824 63.8711 52.616C64.2311 52.408 64.6671 52.304 65.1791 52.304V53.432H64.8911C63.6671 53.432 63.0551 54.096 63.0551 55.424V59H61.9631V52.424H63.0551V53.492Z" fill="#515151"/>
</svg>
