<svg width="82" height="70" viewBox="0 0 82 70" fill="none" xmlns="http://www.w3.org/2000/svg">
<rect width="82" height="70" rx="4" fill="white" fill-opacity="0.1"/>
<path d="M52.5864 16.6076C52.441 15.6769 52.1356 14.819 51.6704 14.0047C51.2486 13.2776 50.6814 12.6669 49.9253 12.2597C49.0238 11.7653 48.064 11.649 47.0607 11.7508C46.9589 11.7508 46.8572 11.7508 46.7553 11.7508C47.4533 11.3436 48.1514 10.9801 48.8638 10.602C49.0383 10.5148 49.2129 10.413 49.3437 10.2966C49.4454 10.2094 49.4746 10.064 49.5473 9.9331C49.7945 10.1076 50.0417 10.1076 50.318 10.0058C50.8706 9.80223 51.4377 9.64228 51.9903 9.46778C52.252 9.38054 52.47 9.23512 52.5428 8.95884C52.601 8.72617 52.5864 8.46442 52.3538 8.30448C52.2228 8.21722 52.092 8.12997 51.9466 8.08635C51.4232 7.92639 50.8851 7.78099 50.347 7.65012C50.129 7.59195 49.8963 7.54832 49.6636 7.5047H48.5003C48.2967 7.54832 48.0932 7.60648 47.8895 7.65012C47.3224 7.78099 46.8135 8.01364 46.3481 8.36264C45.4902 9.017 44.9522 9.88948 44.5887 10.8783C44.5596 10.951 44.545 11.0237 44.5014 11.0964C44.4578 11.1546 44.3997 11.2127 44.3415 11.2273C44.3124 11.2273 44.2397 11.1546 44.2251 11.0964C44.0506 10.7038 43.9053 10.2966 43.7016 9.91856C43.2654 9.08971 42.6256 8.43535 41.7968 7.9991C41.3604 7.76644 40.8806 7.62103 40.3862 7.57741C40.3136 7.57741 40.2408 7.53378 40.1536 7.5047H39.0194C39.0194 7.5047 38.8884 7.57741 38.8157 7.57741C38.2486 7.60648 37.7106 7.78099 37.1871 7.95548C36.9399 8.02819 36.6927 8.11544 36.4746 8.23177C36.2128 8.37718 36.1401 8.65346 36.1983 8.94429C36.2419 9.19149 36.3873 9.366 36.6491 9.45324C37.1871 9.62774 37.7397 9.77316 38.2778 9.97674C38.5977 10.1076 38.903 10.1803 39.2084 9.94765C39.2374 9.97674 39.2666 9.99127 39.2666 10.0204C39.3101 10.2966 39.4992 10.4566 39.7464 10.5875C40.4444 10.951 41.1569 11.3145 41.8548 11.6926C41.8985 11.7217 41.9421 11.7653 42.0148 11.8235C41.7676 11.7944 41.5496 11.7653 41.3459 11.7653C40.9533 11.7653 40.5608 11.7944 40.1826 11.838C39.4265 11.9253 38.7575 12.2452 38.1905 12.725C37.4198 13.3794 36.8963 14.2083 36.5764 15.1535C36.3873 15.7206 36.2419 16.3168 36.1111 16.913C36.0529 17.1456 36.1547 17.3783 36.3437 17.5382C36.5473 17.6982 36.809 17.7709 37.0272 17.6255C37.2744 17.4801 37.4779 17.2619 37.7106 17.0729C37.9142 16.913 38.1032 16.753 38.3068 16.5785C38.6122 16.3022 39.0484 16.1277 38.9902 15.5752C39.2956 15.7351 39.5283 15.6479 39.7755 15.4879C40.7207 14.8626 41.6949 14.3101 42.7128 13.8157C42.7564 13.8011 42.8146 13.772 42.8583 13.7866C43.0473 13.8447 43.2218 13.9174 43.4254 13.9901C43.4108 14.4264 43.3817 14.8626 43.3672 15.3134C43.3672 15.6915 43.3382 16.0696 43.3235 16.4331C43.3235 16.6367 43.309 16.8257 43.28 17.0293C43.2363 17.5237 43.1782 18.0326 43.1345 18.527C43.1055 18.8179 43.091 19.1087 43.0618 19.3995C43.0182 19.7485 42.9746 20.0975 42.9164 20.4465C43.1055 20.4611 43.2945 20.4465 43.4835 20.4465C43.5562 19.7922 43.6289 19.1378 43.7016 18.4835C44.1525 18.5852 44.6032 18.6725 45.0831 18.7887V20.4174C45.2721 20.4174 45.4466 20.4465 45.6357 20.4756C45.6357 20.4756 45.6357 20.4756 45.6502 20.4756C45.6502 19.6758 45.6357 18.8906 45.6212 18.0908C45.6212 18.0036 45.6212 17.9163 45.6212 17.8291C45.6212 17.6837 45.6212 17.5382 45.5484 17.4074C45.4902 17.262 45.3158 17.2765 45.1994 17.3056C45.0831 17.3347 45.0104 17.5382 45.0394 17.6691C45.0686 17.8291 45.0686 18.0036 45.0831 18.1635C45.0249 18.1635 44.9958 18.1635 44.9813 18.1635C44.6032 18.0908 44.2106 18.0036 43.8326 17.9309C43.8034 17.9309 43.7598 17.8582 43.7598 17.8145C43.7598 17.6837 43.7889 17.5673 43.7889 17.4365C43.8179 16.9857 43.8326 16.5203 43.8616 16.0696C43.8616 15.9678 43.8761 15.866 44.0361 15.8514C44.167 15.8514 44.2978 15.7933 44.4287 15.7496C44.6032 15.706 44.7777 15.6624 44.9376 15.6188C44.9668 15.8805 44.9668 16.0841 44.9958 16.3022C44.9958 16.3749 45.0831 16.4913 45.1413 16.5058C45.2285 16.5203 45.3593 16.5058 45.432 16.4476C45.5775 16.3604 45.5048 16.2295 45.4902 16.0986C45.4757 15.8224 45.4612 15.5315 45.4466 15.2552C45.4466 15.0662 45.4175 14.8772 45.403 14.7027C45.374 14.4555 45.3448 14.2083 45.3303 13.9756C45.4757 13.932 45.592 13.9029 45.6938 13.8593C45.8537 13.7866 45.9992 13.7866 46.1446 13.8738C46.3628 14.0047 46.5953 14.1065 46.8135 14.2373C47.4096 14.5863 48.0059 14.9353 48.6166 15.2698C48.9656 15.4588 49.271 15.8224 49.7508 15.5606C49.7218 15.8951 49.8672 16.1132 50.0708 16.2877C50.5506 16.6948 51.0305 17.102 51.5104 17.5092C51.6994 17.6691 51.9176 17.6982 52.1356 17.64C52.3538 17.5819 52.5573 17.4365 52.5864 17.1893C52.6155 17.0002 52.5864 16.8112 52.5573 16.6221L52.5864 16.6076ZM40.5898 14.281C40.3136 14.0338 40.0227 13.772 39.7318 13.5103C39.63 13.4085 39.3828 13.3794 39.3101 13.4521C39.1793 13.583 39.1938 13.7284 39.3538 13.8884C39.601 14.121 39.8482 14.3391 40.1099 14.5863C39.8772 14.7318 39.6446 14.8917 39.412 15.0226C39.3101 15.0807 39.2084 15.0662 39.1066 14.9935C38.9612 14.8917 38.8302 14.7754 38.6267 14.7899C38.4377 14.8045 38.2341 15.0226 38.3068 15.1825C38.5103 15.6042 38.3213 15.8369 38.0014 16.0696C37.6088 16.3604 37.2598 16.7094 36.8817 17.0293C36.8381 17.0729 36.7509 17.0729 36.6927 17.0875C36.6927 17.0293 36.6491 16.9566 36.6636 16.8984C36.7654 16.4331 36.8672 15.9678 37.0126 15.517C37.2889 14.6591 37.7106 13.8884 38.3795 13.2485C38.8884 12.7687 39.4992 12.4633 40.1826 12.347C40.5898 12.2888 40.997 12.2743 41.4041 12.2743C41.6223 12.2743 41.8403 12.3179 42.0148 12.347C42.1312 12.7105 42.233 13.0304 42.3347 13.3503C41.7822 13.6412 41.2005 13.9465 40.6043 14.2664L40.5898 14.281ZM42.3929 11.3582C42.0003 11.14 41.6223 10.9219 41.2296 10.6893C41.2005 10.6747 41.1714 10.5875 41.186 10.5438C41.2442 10.1512 41.3169 9.77316 41.3751 9.39507C41.4041 9.2642 41.3314 9.16242 41.2005 9.14787C41.0552 9.11878 40.8952 9.11878 40.866 9.32236C40.808 9.62774 40.7498 9.91856 40.6916 10.2239C40.6916 10.2821 40.6625 10.3403 40.648 10.3984C40.4444 10.2966 40.2408 10.1803 40.0372 10.1076C39.7318 9.99127 39.761 9.87494 39.79 9.56958C39.8045 9.38053 39.7464 9.23512 39.5718 9.14787C39.3974 9.07516 39.2374 9.11878 39.1211 9.2642C39.0629 9.33691 39.0048 9.39507 38.9321 9.46778C38.8449 9.55503 38.7576 9.55503 38.6412 9.51141C38.0741 9.32236 37.507 9.14787 36.9545 8.95884C36.8817 8.92975 36.7509 8.95884 36.7509 8.81342C36.7509 8.68255 36.8381 8.668 36.9399 8.63893C37.4634 8.49351 37.9724 8.28993 38.4958 8.18815C38.9466 8.1009 39.4265 8.1009 39.8918 8.1009C40.7498 8.1009 41.5059 8.36264 42.1894 8.90067C42.8291 9.40962 43.3817 10.2966 43.6144 10.9655C43.2363 11.0382 42.8583 11.0964 42.5674 11.3872C42.5384 11.4163 42.4511 11.4018 42.4074 11.3872L42.3929 11.3582ZM42.8291 13.045C42.5384 12.696 42.5529 12.2306 42.8291 11.8671C43.0763 11.5472 43.5272 11.4599 43.9779 11.6344C43.6434 12.187 43.6434 12.7396 43.9779 13.2922C43.4835 13.4957 43.091 13.3649 42.8438 13.0595L42.8291 13.045ZM44.7777 15.0807C44.5014 15.168 44.2106 15.2262 43.9343 15.2989C43.9343 14.8626 43.9343 14.4264 43.9343 14.0047C43.9343 13.9465 44.0216 13.8738 44.0798 13.8157C44.3124 13.6266 44.5305 13.7429 44.7486 13.8593C44.7777 13.8593 44.8068 13.9029 44.8068 13.932C44.8359 14.2664 44.8649 14.6009 44.8794 14.9353C44.8794 14.979 44.8214 15.0517 44.7777 15.0662V15.0807ZM45.1848 13.3649C44.6759 13.4085 44.2688 12.8995 44.2688 12.4633C44.2688 11.9834 44.6614 11.5472 45.1121 11.5327C45.752 11.5181 46.1156 11.9398 46.1301 12.4342C46.1301 12.9722 45.6938 13.394 45.1848 13.3503V13.3649ZM46.2028 11.3727C45.8974 11.111 45.5484 10.9801 45.1266 10.9801C45.3448 10.4275 45.6065 9.91856 45.9701 9.48232C46.3481 9.017 46.799 8.62438 47.3661 8.39172C47.8023 8.20268 48.2531 8.07181 48.733 8.07181C49.1255 8.07181 49.5182 8.07181 49.9108 8.11544C50.6088 8.20268 51.2777 8.39172 51.9321 8.668C51.9611 8.68255 52.0048 8.75526 52.0048 8.78433C51.9903 8.82796 51.9466 8.90067 51.8884 8.91522C51.4522 9.06062 51.0305 9.19149 50.5942 9.32236C50.4197 9.38053 50.2452 9.45324 50.0562 9.49687C49.9253 9.52594 49.8236 9.49687 49.7363 9.38053C49.6636 9.29329 49.5909 9.20604 49.4891 9.14787C49.3582 9.07516 49.2129 9.08971 49.0965 9.17696C48.9656 9.27874 48.9075 9.42416 48.951 9.59865C49.0238 9.90403 48.9947 9.96219 48.7184 10.0931C48.5584 10.1658 48.3839 10.2385 48.224 10.3257C48.1077 10.3839 48.0786 10.3403 48.064 10.2385C48.0059 9.9331 47.9477 9.64228 47.8895 9.33691C47.846 9.16242 47.7296 9.10425 47.5406 9.14787C47.4096 9.17696 47.3516 9.27874 47.3806 9.40962C47.4243 9.72952 47.4824 10.0349 47.5406 10.3548C47.5551 10.4566 47.5696 10.5438 47.5988 10.6456C47.1771 10.8928 46.7553 11.14 46.3191 11.3872C46.29 11.4018 46.2318 11.4163 46.2028 11.3872V11.3727ZM52.0338 17.0729C52.0338 17.0729 51.9176 17.0729 51.8739 17.0438C51.6412 16.8403 51.4085 16.6221 51.176 16.4186C50.9433 16.2295 50.7251 16.0259 50.4779 15.8514C50.347 15.7496 50.2889 15.6624 50.347 15.5024C50.3762 15.4297 50.3762 15.3425 50.4052 15.2843C50.4779 15.1244 50.4197 14.979 50.318 14.8772C50.2017 14.7608 49.9545 14.7608 49.8236 14.8481C49.7654 14.8917 49.7073 14.9499 49.6346 14.9935C49.5182 15.0662 49.4164 15.0953 49.2855 15.008C49.082 14.8626 48.8638 14.7318 48.6458 14.5863C48.8348 14.4119 49.0092 14.2373 49.1837 14.0774C49.2564 14.0047 49.3437 13.9465 49.4309 13.8593C49.5764 13.7139 49.5764 13.5684 49.4601 13.4521C49.3727 13.3794 49.1402 13.394 49.0529 13.4812C48.762 13.7429 48.4566 14.0192 48.1659 14.281C47.5842 13.9756 47.0025 13.6557 46.45 13.3649C46.5518 13.0304 46.6535 12.7105 46.7553 12.347C47.2061 12.2888 47.715 12.2597 48.224 12.3033C48.8493 12.3615 49.4309 12.5506 49.9398 12.8995C50.7251 13.423 51.234 14.1646 51.5685 15.0226C51.7866 15.5752 51.9176 16.1568 52.092 16.7239C52.1066 16.7966 52.1356 16.8693 52.1211 16.942C52.1211 16.9857 52.0775 17.0584 52.0338 17.0729Z" fill="#515151"/>
<path d="M33.5504 20.1707C33.7249 19.909 33.8994 19.909 34.1321 20.1707C34.1321 20.1707 34.1612 20.1999 34.1757 20.2144H36.0079C36.0079 20.2144 36.037 20.1854 36.0516 20.1707C36.2261 19.909 36.4006 19.909 36.6332 20.1707C36.6332 20.1707 36.6623 20.1999 36.6768 20.2144C37.2876 20.2144 37.8983 20.2144 38.5091 20.2144C38.5091 20.2144 38.5381 20.1854 38.5381 20.1707C38.7853 19.8945 38.8872 19.8945 39.1197 20.1707C39.1197 20.1707 39.1489 20.1999 39.1634 20.2144C39.7741 20.2144 40.3849 20.2144 40.9956 20.2144C40.9956 20.2144 41.0247 20.1854 41.0393 20.1707C41.2865 19.8945 41.4464 19.8945 41.6209 20.1707C41.6209 20.1707 41.6499 20.1999 41.6646 20.2144H43.4967C43.4967 20.2144 43.5258 20.1854 43.5404 20.1707C43.7876 19.8945 43.9476 19.8945 44.1221 20.1707C44.1221 20.1707 44.1511 20.1999 44.1656 20.2144C44.5873 20.2144 45.0091 20.2144 45.4308 20.2144C45.707 20.2144 45.8088 20.3162 45.8088 20.5925C45.8088 20.767 45.8088 20.927 45.8088 21.116C46.2306 21.116 46.6377 21.116 47.0448 21.116C47.2775 21.116 47.4229 21.2032 47.4811 21.4359C47.6993 22.352 47.9318 23.2535 48.15 24.1696C48.2082 24.3878 48.0918 24.5768 47.8591 24.6059C47.6846 24.635 47.4956 24.6059 47.3066 24.6059V27.3979C48.3972 27.3979 49.4732 27.3979 50.5639 27.3979C50.7384 27.3979 50.8692 27.3687 50.8983 27.1652C50.9274 26.9325 50.7674 26.8743 50.5929 26.8307C50.2585 26.7725 49.9821 26.5545 49.9531 26.2927C49.9241 25.9437 49.9821 25.6238 50.3021 25.4056C50.5929 25.2021 50.8838 25.1731 51.2328 25.2311C51.858 25.333 52.3379 25.6528 52.6578 26.1909C52.9487 26.6998 53.0069 27.2524 52.9195 27.8341C52.8323 28.5176 52.6287 29.1573 52.3088 29.7536C52.2216 29.9281 52.1198 30.088 52.0179 30.248L52.0471 30.3207C52.2798 30.277 52.5123 30.2625 52.716 30.1607C52.9341 30.0589 53.1086 30.0443 53.2686 30.2188C53.2686 30.3061 53.2686 30.4079 53.2686 30.4952C53.1522 30.5679 53.0504 30.6697 52.9341 30.7279C52.3524 31.0331 51.7999 30.9023 51.2473 30.6115C51.0728 30.5242 50.8838 30.4807 50.6947 30.4515C50.3457 30.4079 50.0549 30.6115 49.7496 30.7424C49.2405 30.9604 48.7171 30.9459 48.2372 30.6551C47.801 30.3934 47.3357 30.3352 46.8995 30.6115C46.2596 30.9896 45.6488 30.9459 45.0091 30.6115C44.8345 30.5242 44.631 30.466 44.4273 30.437C44.0784 30.3788 43.8021 30.5969 43.5113 30.7279C42.9878 30.9459 42.4789 30.9314 41.999 30.6551C41.49 30.3643 41.0102 30.3788 40.5158 30.6551C40.3267 30.7569 40.094 30.8151 39.876 30.8441C39.4397 30.9169 39.0471 30.7714 38.669 30.5533C38.2764 30.3352 37.8983 30.3788 37.5202 30.5969C36.924 30.9314 36.2988 30.9751 35.7026 30.6406C35.2082 30.3497 34.7574 30.3934 34.2775 30.6406C34.0594 30.7569 33.7976 30.8151 33.5504 30.8587C33.1287 30.9314 32.7652 30.7569 32.4017 30.5533C32.0236 30.3497 31.631 30.3934 31.2674 30.5969C30.6276 30.9604 30.0023 31.0041 29.3625 30.5969C29.188 30.4807 29.2462 30.3352 29.2607 30.2043C29.2607 30.1461 29.4207 30.088 29.5079 30.0735C29.5807 30.0589 29.6679 30.1025 29.7551 30.1171C29.7551 30.1171 29.7842 30.1316 29.7842 30.1461V30.1171C29.7842 30.0298 29.7842 29.9426 29.7842 29.8553C29.7842 27.0925 29.7842 24.3441 29.7842 21.5813C29.7842 21.1887 29.886 21.0869 30.2932 21.0869C30.7585 21.0869 31.2238 21.0869 31.7182 21.0869C31.7182 20.927 31.7182 20.7815 31.7182 20.6216C31.7182 20.258 31.7909 20.1854 32.169 20.1707C32.6198 20.1707 33.056 20.1707 33.5068 20.1707C33.5068 20.1707 33.5359 20.1417 33.5504 20.1272V20.1707ZM34.0739 27.3687V25.4348L34.0303 25.3911H33.2742C33.2742 25.6528 33.2742 25.9147 33.2742 26.1764C33.2742 26.4526 33.1869 26.5544 32.9106 26.5544C32.4744 26.5544 32.0381 26.5544 31.6019 26.5544C31.3547 26.5544 31.2238 26.4236 31.2238 26.1764C31.2238 25.9147 31.2238 25.6675 31.2238 25.3911H30.4241V27.3979H34.0448C34.0448 27.3979 34.0739 27.3687 34.0885 27.3542L34.0739 27.3687ZM34.7428 24.6059C34.7428 24.6059 34.7138 24.635 34.6992 24.6495V27.4124H38.2764V24.6495C38.2764 24.6495 38.2473 24.6205 38.2328 24.6059C37.0695 24.6059 35.9061 24.6059 34.7574 24.6059H34.7428ZM42.4643 27.4124V24.6205H38.8872V27.3833C38.8872 27.3833 38.9162 27.4124 38.9307 27.4269H42.4643V27.4124ZM30.4531 21.7267C30.4531 21.7267 30.4241 21.7558 30.4095 21.7703V23.0936C30.4968 23.0936 30.5695 23.0936 30.6567 23.0936C31.8636 23.0936 33.0706 23.0936 34.2775 23.0936C34.5974 23.0936 34.6847 23.1808 34.6847 23.5007C34.6847 23.6607 34.6847 23.8061 34.6847 23.9806C38.9307 23.9806 43.1768 23.9806 47.4519 23.9806C47.3939 23.7334 47.3502 23.5007 47.2921 23.2535C47.1902 22.8173 47.0739 22.381 46.9722 21.9448C46.943 21.7994 46.8849 21.7558 46.7395 21.7558C46.4341 21.7558 46.1287 21.7558 45.7943 21.7558C45.7943 21.9013 45.7943 22.0466 45.7943 22.192C45.7943 22.4537 45.6925 22.5556 45.4308 22.5556C45.3581 22.5556 45.2853 22.5556 45.2126 22.5556C40.8938 22.5556 36.575 22.5556 32.2417 22.5556C31.8346 22.5556 31.6746 22.4974 31.7037 22.0175C31.7037 21.9303 31.7037 21.8285 31.7037 21.7413C31.7037 21.7413 31.6746 21.7121 31.6601 21.6976H30.4386L30.4531 21.7267ZM51.0146 26.3509C51.3491 26.4963 51.5672 26.9762 51.48 27.3687C51.4073 27.7178 51.0436 28.0085 50.6802 28.0231C50.5784 28.0231 50.4767 28.0231 50.3748 28.0231C43.8021 28.0231 37.2294 28.0231 30.6567 28.0231H30.395V30.3061C30.5113 30.277 30.6276 30.248 30.7294 30.2043C31.0784 30.0298 31.4274 29.8408 31.8491 29.8553C32.2272 29.8553 32.5616 29.9716 32.8815 30.1607C33.2596 30.3788 33.6232 30.3643 33.9721 30.1607C34.641 29.7681 35.2809 29.7391 35.9498 30.1316C36.3133 30.3497 36.7059 30.3643 37.084 30.1461C37.7965 29.7391 38.48 29.7536 39.1925 30.1898C39.5415 30.3934 39.9487 30.3207 40.3267 30.1025C40.923 29.7536 41.5337 29.7536 42.1445 30.1025C42.5515 30.3352 42.9733 30.3643 43.3805 30.1316C44.0348 29.7536 44.6745 29.7536 45.3289 30.1316C45.7361 30.3643 46.1579 30.3497 46.565 30.1025C47.2047 29.7244 47.8446 29.7536 48.4699 30.1316C48.848 30.3497 49.2115 30.3788 49.6041 30.1461C50.1131 29.8408 50.6657 29.7389 51.2328 29.9571C51.3782 30.0153 51.4508 29.9571 51.5235 29.8699C51.9017 29.2592 52.1925 28.6193 52.2651 27.8923C52.2943 27.5578 52.3233 27.1942 52.2651 26.8598C52.1198 26.2346 51.5527 25.8128 50.9129 25.7983C50.6657 25.7983 50.5202 25.9582 50.5492 26.2054C50.7092 26.2491 50.8692 26.2781 51.0001 26.3363L51.0146 26.3509ZM36.6187 20.8251C36.6187 20.956 36.6187 21.0723 36.6187 21.2032C36.6187 21.3632 36.5023 21.4941 36.3424 21.4795C36.197 21.4795 36.037 21.4067 36.0516 21.1887C36.0516 21.0723 36.0516 20.956 36.0516 20.8251H34.1176C34.1176 20.956 34.1176 21.0723 34.1176 21.2032C34.1176 21.3632 34.0012 21.4795 33.8413 21.4795C33.6813 21.4795 33.5359 21.4067 33.5504 21.1887C33.5504 21.0723 33.5504 20.956 33.5504 20.8251H32.329V21.9593C36.6041 21.9593 40.8793 21.9593 45.1544 21.9593V20.8397H44.1511C44.1075 21.3195 44.0202 21.5086 43.8167 21.4795C43.4095 21.4214 43.5549 21.0869 43.5113 20.8251H41.6936C41.6209 21.0287 41.5627 21.2323 41.49 21.4067C41.4755 21.4504 41.3737 21.4795 41.301 21.4795C41.112 21.4795 41.0393 21.3195 41.0102 20.8397H39.1489C39.1197 21.305 39.0325 21.5086 38.8145 21.4795C38.4073 21.4214 38.5527 21.0869 38.5091 20.8251H36.5896H36.6187ZM43.0896 27.3979H46.6668V24.6059H43.0896V27.3979ZM30.4095 24.7222H34.0594V23.6897H30.4095V24.7222ZM31.82 25.9292H32.6489V25.3911H31.82V25.9292Z" fill="#515151"/>
<path d="M49.5126 31.7453C49.3672 31.818 49.2072 31.8325 49.0472 31.8616C48.8728 31.8907 48.6983 31.8616 48.5383 31.7889C48.5819 31.8035 48.6256 31.818 48.6691 31.8325C48.5674 31.7889 48.451 31.7453 48.3492 31.6871C48.2474 31.6289 48.1312 31.5563 48.0293 31.5126C47.4768 31.3236 46.9387 31.4109 46.4298 31.7163C46.0517 31.9488 45.6736 31.9198 45.2956 31.7016C44.6702 31.3381 44.0304 31.3091 43.3907 31.6726C42.9835 31.9053 42.5617 31.9343 42.1546 31.7016C41.5002 31.3236 40.8605 31.3236 40.2061 31.7016C39.799 31.9488 39.3772 31.9198 38.97 31.6726C38.3593 31.3236 37.7486 31.3091 37.1524 31.6726C36.7743 31.8907 36.3672 31.9635 36.0182 31.7598C35.3056 31.3236 34.6222 31.3236 33.9097 31.7163C33.5316 31.9343 33.139 31.9198 32.7754 31.7016C32.1065 31.3091 31.4522 31.3381 30.7978 31.7308C30.4488 31.9343 30.0707 31.9488 29.7072 31.7308C29.3873 31.5417 29.0528 31.4254 28.6748 31.4254C28.2385 31.4254 27.9041 31.6871 27.4969 31.7889C27.3079 31.8471 27.0752 31.8761 26.8862 31.8325C26.6971 31.7889 26.5226 31.6289 26.3336 31.6726C26.2318 31.6871 26.0864 31.7453 26.0864 31.8035C26.0719 31.9343 25.9992 32.0797 26.1882 32.196C26.828 32.6032 27.4533 32.5741 28.0931 32.196C28.4566 31.9925 28.8493 31.9488 29.2273 32.1525C29.5909 32.356 29.9544 32.5159 30.3761 32.4579C30.6233 32.4142 30.885 32.356 31.1032 32.2397C31.583 32.007 32.0338 31.9488 32.5282 32.2397C33.1099 32.5887 33.7352 32.5451 34.3459 32.196C34.724 31.978 35.102 31.9343 35.4947 32.1525C35.8727 32.356 36.2654 32.5159 36.7016 32.4432C36.9197 32.4142 37.1524 32.356 37.3414 32.2542C37.8504 31.9635 38.3303 31.9488 38.8247 32.2542C39.3046 32.5451 39.828 32.5596 40.3369 32.3269C40.6278 32.196 40.904 31.9925 41.253 32.0361C41.4566 32.0652 41.6602 32.1234 41.8346 32.2107C42.4745 32.5306 43.0853 32.5887 43.7251 32.2107C44.1613 31.9488 44.6267 31.9925 45.0629 32.2542C45.5573 32.5451 46.0662 32.5596 46.5752 32.3415C46.8805 32.2107 47.1569 31.9925 47.5204 32.0507C47.7094 32.0797 47.913 32.1234 48.073 32.2107C48.6256 32.4869 49.178 32.6323 49.7598 32.3269C49.8761 32.2687 49.9778 32.167 50.0942 32.0943V31.818C49.9196 31.6435 49.7598 31.6581 49.5416 31.7598L49.5126 31.7453Z" fill="#515151"/>
<path d="M55.4225 33.4763C55.277 33.549 55.1171 33.5635 54.9571 33.5927C54.7826 33.6217 54.6082 33.5927 54.4482 33.5199C54.4918 33.5345 54.5354 33.549 54.579 33.5635C54.4772 33.5199 54.361 33.4763 54.2591 33.4182C54.1573 33.36 54.041 33.2873 53.9393 33.2437C53.3867 33.0546 52.8486 33.1418 52.3397 33.4472C51.9616 33.6799 51.5836 33.6509 51.2054 33.4327C50.5801 33.0691 49.9404 33.0401 49.3006 33.4035C48.8934 33.6362 48.4717 33.6654 48.0646 33.4327C47.4102 33.0546 46.7704 33.0546 46.116 33.4327C45.7088 33.6799 45.2872 33.6507 44.88 33.4035C44.2692 33.0546 43.6585 33.0401 43.0622 33.4035C42.6842 33.6217 42.2771 33.6944 41.9281 33.4909C41.2156 33.0546 40.532 33.0546 39.8196 33.4472C39.4415 33.6654 39.0488 33.6509 38.6854 33.4327C38.0165 33.0401 37.3621 33.0691 36.7077 33.4617C36.3587 33.6654 35.9807 33.6799 35.6171 33.4617C35.2972 33.2727 34.9628 33.1563 34.5847 33.1563C34.1484 33.1563 33.814 33.4182 33.4068 33.5199C33.2178 33.5781 32.9851 33.6072 32.7961 33.5635C32.6071 33.5199 32.4326 33.36 32.2435 33.4035C32.1417 33.4182 31.9963 33.4763 31.9963 33.5345C31.9818 33.6654 31.9091 33.8107 32.0981 33.9271C32.7379 34.3343 33.3632 34.3052 34.003 33.9271C34.3666 33.7235 34.7592 33.6799 35.1373 33.8834C35.5008 34.0871 35.8643 34.247 36.286 34.1888C36.5332 34.1453 36.795 34.0871 37.0131 33.9707C37.493 33.7381 37.9437 33.6799 38.4382 33.9707C39.0198 34.3197 39.6451 34.2761 40.2558 33.9271C40.6339 33.7089 41.0119 33.6654 41.4046 33.8834C41.7827 34.0871 42.1753 34.247 42.6115 34.1743C42.8297 34.1453 43.0622 34.0871 43.2514 33.9853C43.7603 33.6944 44.2402 33.6799 44.7346 33.9853C45.2144 34.2761 45.7379 34.2906 46.2468 34.0579C46.5377 33.9271 46.8139 33.7235 47.163 33.7671C47.3665 33.7962 47.5702 33.8544 47.7446 33.9416C48.3845 34.2615 48.9952 34.3197 49.635 33.9416C50.0712 33.6799 50.5366 33.7235 50.9728 33.9853C51.4672 34.2761 51.9762 34.2906 52.4851 34.0725C52.7904 33.9416 53.0668 33.7235 53.4302 33.7817C53.6194 33.8107 53.8229 33.8544 53.9828 33.9416C54.5354 34.2179 55.088 34.3633 55.6697 34.0579C55.786 33.9998 55.8877 33.8981 56.0041 33.8253V33.549C55.8296 33.3745 55.6697 33.389 55.4515 33.4909L55.4225 33.4763Z" fill="#515151"/>
<path d="M45.8645 26.1029C45.8645 26.3646 45.8645 26.641 45.8645 26.9027C45.8645 27.1062 45.7483 27.2081 45.5592 27.2226C45.0939 27.2226 44.643 27.2226 44.1778 27.2226C43.9596 27.2226 43.8142 27.0917 43.8142 26.8737C43.8142 26.3501 43.8142 25.8412 43.8142 25.3178C43.8142 25.0706 43.9306 24.9542 44.1632 24.9542C44.614 24.9542 45.0647 24.9542 45.5301 24.9542C45.7918 24.9542 45.8645 25.0414 45.8791 25.3031C45.8791 25.565 45.8791 25.8412 45.8791 26.1029H45.8645ZM45.2539 26.5973V25.5795H44.4395V26.5973H45.2539Z" fill="#515151"/>
<path d="M41.6941 26.0741C41.6941 26.3503 41.6941 26.6412 41.6941 26.9174C41.6941 27.1211 41.5924 27.2228 41.3742 27.2228C40.9234 27.2228 40.4872 27.2228 40.0363 27.2228C39.7601 27.2228 39.6438 27.1064 39.6292 26.8302C39.6292 26.3213 39.6292 25.8123 39.6292 25.3033C39.6292 25.0853 39.7746 24.9543 39.9782 24.9543C40.4435 24.9543 40.9088 24.9543 41.3597 24.9543C41.6069 24.9543 41.6796 25.0271 41.6941 25.2888C41.6941 25.5505 41.6941 25.8123 41.6941 26.0595V26.0741ZM40.2835 25.5942V26.612H41.1125V25.5942H40.2835Z" fill="#515151"/>
<path d="M37.404 26.0889C37.404 26.3651 37.404 26.6414 37.404 26.9032C37.404 27.0922 37.2877 27.194 37.0986 27.2085C36.6333 27.2085 36.1534 27.2085 35.6881 27.2085C35.4845 27.2085 35.3391 27.0632 35.3391 26.8595C35.3391 26.3361 35.3391 25.8125 35.3391 25.2891C35.3391 25.0564 35.4554 24.9401 35.6881 24.9401C36.1534 24.9401 36.6042 24.9401 37.0695 24.9401C37.3167 24.9401 37.404 25.0274 37.404 25.2746C37.404 25.5363 37.404 25.8125 37.404 26.0744V26.0889ZM36.7932 25.5798H35.9644V26.5833H36.7932V25.5798Z" fill="#515151"/>
<path d="M27.3233 59L23.8793 55.184V59H22.7873V50.636H23.8793V54.512L27.3353 50.636H28.7153L24.9233 54.824L28.7513 59H27.3233ZM35.9709 55.46C35.9709 55.668 35.9589 55.888 35.9349 56.12H30.6789C30.7189 56.768 30.9389 57.276 31.3389 57.644C31.7469 58.004 32.2389 58.184 32.8149 58.184C33.2869 58.184 33.6789 58.076 33.9909 57.86C34.3109 57.636 34.5349 57.34 34.6629 56.972H35.8389C35.6629 57.604 35.3109 58.12 34.7829 58.52C34.2549 58.912 33.5989 59.108 32.8149 59.108C32.1909 59.108 31.6309 58.968 31.1349 58.688C30.6469 58.408 30.2629 58.012 29.9829 57.5C29.7029 56.98 29.5629 56.38 29.5629 55.7C29.5629 55.02 29.6989 54.424 29.9709 53.912C30.2429 53.4 30.6229 53.008 31.1109 52.736C31.6069 52.456 32.1749 52.316 32.8149 52.316C33.4389 52.316 33.9909 52.452 34.4709 52.724C34.9509 52.996 35.3189 53.372 35.5749 53.852C35.8389 54.324 35.9709 54.86 35.9709 55.46ZM34.8429 55.232C34.8429 54.816 34.7509 54.46 34.5669 54.164C34.3829 53.86 34.1309 53.632 33.8109 53.48C33.4989 53.32 33.1509 53.24 32.7669 53.24C32.2149 53.24 31.7429 53.416 31.3509 53.768C30.9669 54.12 30.7469 54.608 30.6909 55.232H34.8429ZM38.5043 53.492C38.6963 53.116 38.9683 52.824 39.3203 52.616C39.6803 52.408 40.1163 52.304 40.6283 52.304V53.432H40.3403C39.1163 53.432 38.5043 54.096 38.5043 55.424V59H37.4123V52.424H38.5043V53.492ZM41.4808 55.688C41.4808 55.016 41.6168 54.428 41.8888 53.924C42.1608 53.412 42.5328 53.016 43.0048 52.736C43.4848 52.456 44.0168 52.316 44.6008 52.316C45.1768 52.316 45.6768 52.44 46.1008 52.688C46.5248 52.936 46.8408 53.248 47.0488 53.624V52.424H48.1528V59H47.0488V57.776C46.8328 58.16 46.5088 58.48 46.0768 58.736C45.6528 58.984 45.1568 59.108 44.5888 59.108C44.0048 59.108 43.4768 58.964 43.0048 58.676C42.5328 58.388 42.1608 57.984 41.8888 57.464C41.6168 56.944 41.4808 56.352 41.4808 55.688ZM47.0488 55.7C47.0488 55.204 46.9488 54.772 46.7488 54.404C46.5488 54.036 46.2768 53.756 45.9328 53.564C45.5968 53.364 45.2248 53.264 44.8168 53.264C44.4088 53.264 44.0368 53.36 43.7008 53.552C43.3648 53.744 43.0968 54.024 42.8968 54.392C42.6968 54.76 42.5968 55.192 42.5968 55.688C42.5968 56.192 42.6968 56.632 42.8968 57.008C43.0968 57.376 43.3648 57.66 43.7008 57.86C44.0368 58.052 44.4088 58.148 44.8168 58.148C45.2248 58.148 45.5968 58.052 45.9328 57.86C46.2768 57.66 46.5488 57.376 46.7488 57.008C46.9488 56.632 47.0488 56.196 47.0488 55.7ZM51.0902 50.12V59H49.9982V50.12H51.0902ZM52.5433 55.688C52.5433 55.016 52.6793 54.428 52.9513 53.924C53.2233 53.412 53.5953 53.016 54.0673 52.736C54.5473 52.456 55.0793 52.316 55.6633 52.316C56.2393 52.316 56.7393 52.44 57.1633 52.688C57.5873 52.936 57.9033 53.248 58.1113 53.624V52.424H59.2153V59H58.1113V57.776C57.8953 58.16 57.5713 58.48 57.1393 58.736C56.7153 58.984 56.2193 59.108 55.6513 59.108C55.0673 59.108 54.5393 58.964 54.0673 58.676C53.5953 58.388 53.2233 57.984 52.9513 57.464C52.6793 56.944 52.5433 56.352 52.5433 55.688ZM58.1113 55.7C58.1113 55.204 58.0113 54.772 57.8113 54.404C57.6113 54.036 57.3393 53.756 56.9953 53.564C56.6593 53.364 56.2873 53.264 55.8793 53.264C55.4713 53.264 55.0993 53.36 54.7633 53.552C54.4273 53.744 54.1593 54.024 53.9593 54.392C53.7593 54.76 53.6593 55.192 53.6593 55.688C53.6593 56.192 53.7593 56.632 53.9593 57.008C54.1593 57.376 54.4273 57.66 54.7633 57.86C55.0993 58.052 55.4713 58.148 55.8793 58.148C56.2873 58.148 56.6593 58.052 56.9953 57.86C57.3393 57.66 57.6113 57.376 57.8113 57.008C58.0113 56.632 58.1113 56.196 58.1113 55.7Z" fill="#515151"/>
</svg>
