<svg width="92" height="80" viewBox="0 0 92 80" fill="none" xmlns="http://www.w3.org/2000/svg">
<rect y="10" width="82" height="70" rx="4" fill="white" fill-opacity="0.1"/>
<path d="M55.412 43.811H55.1104C54.9446 43.7508 54.8391 43.6904 54.7939 43.6151C54.7034 43.4644 54.628 43.3136 54.5527 43.1628C54.4923 43.0272 54.4169 42.8765 54.3416 42.7408C54.1305 42.379 53.8743 42.0322 53.3919 42.002C53.1958 42.002 53.015 41.987 52.819 41.9719C52.6079 41.9719 52.412 41.9568 52.2009 41.9418C52.0803 41.9418 51.9446 41.8814 51.8692 41.8061C51.7486 41.6855 51.628 41.5498 51.5225 41.4142L50.7687 40.5548C50.2261 39.9518 49.6984 39.3337 49.1557 38.7307C48.8995 38.4594 48.5527 38.2936 48.0854 38.2182C47.9648 38.2031 47.8442 38.0976 47.7838 37.9619C47.5125 37.389 47.2562 36.8011 47.0301 36.2131C46.9697 36.0624 46.9095 35.9267 46.8341 35.8061C46.7738 35.8061 46.7285 35.8212 46.6683 35.8362C46.4271 35.8664 46.2009 35.8966 45.9597 35.9117C46.0653 36.0323 46.1557 36.183 46.2461 36.3941L46.7135 37.4644L46.9245 38.1578H46.1859C45.9447 38.1578 45.7637 38.3086 45.7637 38.5348C45.7637 38.7006 45.9447 38.8966 46.1557 38.9117C46.3969 38.9117 46.6381 38.9267 46.8793 38.9267C47.0451 38.9267 47.2109 38.9267 47.5125 38.9117C48.1607 38.9117 48.6884 39.2131 49.1859 39.8765L49.1255 39.9971L49.0502 40.0423H44.0301C43.9245 40.0423 43.7889 39.9518 43.7285 39.8614C43.6079 39.6955 43.5025 39.59 43.3065 39.59C43.1407 39.605 43.0351 39.7106 42.9597 39.9367C42.8693 40.193 42.7637 40.4494 42.6583 40.7207L42.3868 41.1126L41.5577 38.9267H44.2261C44.5125 38.9267 44.6632 38.791 44.6632 38.5498C44.6632 38.4292 44.6331 38.3388 44.5727 38.2784C44.4974 38.2031 44.3768 38.173 44.2109 38.173H35.3919L35 38.0825L35.2562 37.4795C35.4522 37.0121 35.6331 36.5599 35.8593 36.1226C35.9196 36.0172 35.9949 35.9267 36.1005 35.8513C36.0402 35.8362 35.9799 35.8212 35.9196 35.8061C35.8442 35.8061 35.7688 35.7911 35.6934 35.776C35.5879 35.7608 35.4673 35.7307 35.3467 35.6855C35.3316 35.6855 35.3015 35.6855 35.2864 35.6855C35.2713 35.6855 35.2562 35.6855 35.2412 35.6855C35.1959 35.7458 35.1658 35.8212 35.1206 35.8966C34.8191 36.5749 34.5175 37.2533 34.2462 37.9318C34.1708 38.1277 34.0502 38.2182 33.8844 38.2332C33.3869 38.2936 32.9648 38.5196 32.6181 38.9117L30.2512 41.6251C30.1156 41.791 29.9497 41.9418 29.603 41.9418H29.5879C29.4824 41.9418 29.3769 41.9267 29.2563 41.9267H28.804C28.3367 41.9568 27.9749 42.1528 27.7487 42.5297C27.6281 42.7408 27.4925 42.9518 27.4171 43.1779C27.3115 43.4795 27.1005 43.8563 26.6332 43.8563C26.5578 43.8563 26.4673 43.8563 26.3317 43.8262C26.1206 43.9166 26 43.9769 26 44.188C26 44.4593 26.1508 44.595 26.4673 44.595H55.2914C55.5326 44.595 55.8039 44.595 55.9999 44.4142V44.0975C55.8944 43.9166 55.7437 43.8262 55.427 43.8262L55.412 43.811ZM37.2763 43.6904L37.1708 43.796H30.4321H28.1105L28.0502 43.6453V43.585L28.1407 43.389C28.201 43.2232 28.2764 43.0573 28.3819 42.9216C28.5025 42.7709 28.7437 42.6955 28.8945 42.6955C29.4372 42.6955 29.9799 42.6955 30.5226 42.6955H36.8995L37.2613 42.7559V43.7056L37.2763 43.6904ZM37.6532 41.3086L37.3668 41.9116H31.0653L31.005 41.8212L31.1558 41.7006L31.3367 41.4744C31.4874 41.2936 31.6231 41.1126 31.7738 40.9468C31.8341 40.8714 31.9547 40.796 32.0603 40.796H34.8643H37.6683L37.7738 40.9015L37.608 41.3086H37.6532ZM39.1607 43.2684C39.1607 43.3739 39.1607 43.4644 39.1607 43.5698L39.1005 43.796H38.6482C38.5276 43.796 38.407 43.796 38.2864 43.796C38.1808 43.796 38.0602 43.6603 38.0452 43.5548C37.9547 42.7709 38.0905 42.0172 38.4523 41.3237L38.5577 41.2182H38.6181H38.6331C38.6783 41.2483 38.7387 41.2936 38.7688 41.3689C38.9949 41.8664 39.2512 42.5146 39.1457 43.2684H39.1607ZM39.0401 39.982C38.9347 39.7256 38.8291 39.5749 38.603 39.5598C38.3919 39.5598 38.2713 39.6805 38.1507 40.0121H32.7688L32.6633 39.9518L32.7839 39.8462C33.0703 39.4543 33.3718 39.0473 33.9145 38.9418C34.0502 38.9117 34.1859 38.8966 34.3216 38.8966H40.2311L40.397 38.987L39.5075 41.0825L39.0703 39.982H39.0401ZM41.9799 43.1779C41.9799 43.3438 41.9799 43.5096 41.9799 43.6904L41.8743 43.796L39.9447 43.6904C39.794 42.6503 40.1407 41.7006 40.4572 40.992C40.5326 40.8262 40.5929 40.6603 40.6532 40.4795L40.7738 40.1629L41 39.6654L41.5276 41.0372L41.6331 41.3237C41.6935 41.5045 41.7537 41.6855 41.8291 41.8513C42.0401 42.2885 42.01 42.7408 41.9949 43.1779H41.9799ZM43.7889 43.811H43.5778C43.5778 43.811 43.1407 43.811 43.0201 43.811C42.9296 43.811 42.7789 43.7207 42.7637 43.6151C42.6733 42.7709 42.8241 41.9719 43.2914 41.2332L43.3667 41.188L43.397 41.2332C43.9396 42.0172 43.9245 42.9066 43.8039 43.811H43.7889ZM44.407 41.6251C44.3618 41.4594 44.2864 41.2936 44.2261 41.1277L44.0903 40.796C44.0903 40.796 48.5979 40.796 49.7135 40.796C49.8643 40.796 50.0451 40.8714 50.1507 40.977C50.3165 41.1427 50.4673 41.3237 50.6331 41.5196L50.8442 41.8664L50.7236 41.9719L50.6933 41.8966C50.618 41.8966 50.5577 41.8966 50.4974 41.8966H44.8442C44.6482 41.8966 44.4974 41.8513 44.422 41.6101L44.407 41.6251ZM53.8592 43.796H49.5477H44.7386L44.6331 43.6904V42.6804H48.7486C50.1205 42.6804 51.4924 42.6804 52.8793 42.6804C53.3164 42.6804 53.5727 42.8462 53.7235 43.2232L53.9044 43.6453L53.8592 43.796Z" fill="#515151"/>
<path d="M42.9131 27.7867C43.0489 27.7867 43.1695 27.7867 43.3051 27.7867C43.4257 27.7566 43.5463 27.7415 43.6669 27.7114C43.6669 27.7114 43.6669 27.7114 43.682 27.7114V27.6812C43.7272 27.3345 43.5161 27.1234 43.2901 26.9576C43.1996 26.8822 43.1242 26.7918 43.0941 26.6862C42.9885 26.3847 42.898 26.0681 42.8077 25.7516L42.6719 25.2842C42.4307 24.4702 42.2047 23.5958 42.28 22.646C42.3101 22.2239 42.295 21.8018 42.28 21.3948V21.1234C42.2649 20.5657 42.0237 20.1436 41.5865 19.9174C41.3906 19.8119 41.3302 19.7064 41.3302 19.4953C41.3302 18.9526 41.3302 18.3948 41.3302 17.8521C41.3302 17.5204 41.2247 17.43 40.9082 17.43C40.6217 17.43 40.5765 17.4601 40.5765 17.837C40.5765 18.3797 40.5765 18.9375 40.5765 19.4802C40.5765 19.6913 40.5161 19.7968 40.3202 19.9023C39.8679 20.1436 39.6568 20.4903 39.6568 20.9425C39.6568 21.832 39.6568 22.7064 39.6267 23.5958C39.6267 23.7164 39.6117 23.8521 39.5665 23.9878L39.5061 24.2139C39.3253 24.8772 39.1443 25.5405 38.9483 26.2038C38.873 26.4752 38.7223 26.7315 38.6167 26.9274C38.5714 27.0028 38.5112 27.0782 38.4508 27.1385C38.3755 27.2289 38.285 27.3043 38.27 27.3948C38.2549 27.4852 38.2397 27.5606 38.2397 27.6511C38.4811 27.7264 38.7373 27.7566 38.9936 27.7867L39.0237 27.5757L42.898 27.636V27.7717L42.9131 27.7867ZM40.5464 20.6712C40.6217 20.5807 40.7121 20.5355 40.8478 20.5355H40.9684C41.1041 20.5355 41.2549 20.5506 41.3755 20.6712C41.5112 20.8219 41.5564 21.0933 41.4508 21.5908L40.4258 21.5305C40.3805 21.0933 40.4258 20.8219 40.5464 20.6712ZM41.4961 22.4953L41.4358 23.4601L40.3955 23.3998V22.435L41.4961 22.4953ZM39.6267 26.7013L39.7624 26.2038C39.9283 25.6159 40.079 25.043 40.2448 24.4852C40.2749 24.3948 40.4107 24.3043 40.5011 24.3043C40.6519 24.3043 40.8026 24.3043 40.9684 24.3043C41.1343 24.3043 41.285 24.3043 41.4508 24.3043C41.5413 24.3043 41.677 24.4099 41.692 24.5003C41.873 25.1033 42.0388 25.7063 42.2197 26.3094L42.28 26.7767L39.6418 26.7013H39.6267Z" fill="#515151"/>
<path d="M41.3025 28.7665C39.4332 28.7665 37.7448 28.6157 36.3126 28.4197C31.6996 27.7565 28.6694 26.4148 28.6393 26.3997C28.5036 26.3394 28.4433 26.1736 28.5036 26.0379C28.5639 25.9022 28.7297 25.8419 28.8654 25.9022C28.986 25.9625 40.8201 31.1634 53.7849 25.7967C53.9205 25.7364 54.0864 25.7967 54.1467 25.9474C54.207 26.0831 54.1467 26.2489 53.996 26.3092C49.4131 28.2087 44.996 28.7815 41.3025 28.7815V28.7665Z" fill="#515151"/>
<path d="M32.9035 29.0979C32.8884 29.0979 32.8583 29.0979 32.8281 29.1129C32.798 29.1129 32.7829 29.128 32.7528 29.1431C32.7226 29.1431 32.6774 29.1883 32.6472 29.1733C32.6171 29.1733 32.5869 29.128 32.5719 29.1129C32.5719 29.0979 32.5568 29.0677 32.5417 29.0527C32.5417 29.0225 32.5116 28.9923 32.4965 28.9773C32.4663 28.9321 32.4211 28.9018 32.3759 28.8717C32.3005 28.8265 32.2101 28.8265 32.1196 28.8416C31.999 28.8567 31.8633 28.9169 31.7729 28.9923C31.7276 29.0375 31.6824 29.0828 31.6523 29.1431C31.6523 29.1431 31.607 29.2185 31.607 29.1733C31.607 29.1431 31.607 29.1129 31.607 29.0979C31.607 29.0375 31.607 28.9923 31.592 28.9321C31.5769 28.8567 31.5467 28.7662 31.4714 28.721C31.4111 28.6757 31.3206 28.6305 31.2452 28.6456C31.1397 28.6456 31.0342 28.7059 30.9287 28.7662C30.8985 28.7812 30.8533 28.8115 30.8382 28.8416C30.8231 28.8717 30.8683 28.8717 30.8985 28.8717C30.8985 28.8717 30.8985 28.8717 30.9136 28.8717C30.9286 28.8717 30.9437 28.8717 30.9739 28.8868C31.0191 28.8868 31.0493 28.9169 31.0794 28.9321C31.1548 28.9773 31.2452 29.0225 31.3055 29.0828C31.3658 29.128 31.4111 29.1883 31.4412 29.2637C31.4714 29.3089 31.4714 29.3692 31.4714 29.4295V29.4898C31.5015 29.5199 31.5166 29.4597 31.5317 29.4446C31.5467 29.3993 31.5618 29.3692 31.592 29.3391C31.6372 29.2637 31.6975 29.2034 31.7578 29.128C31.7879 29.0979 31.8181 29.0527 31.8633 29.0375C31.9538 29.0074 31.9689 29.128 31.9839 29.1883C31.9839 29.2185 31.9839 29.2335 31.9839 29.2637C31.9839 29.2787 31.999 29.3089 32.0141 29.324C32.0442 29.3843 32.1196 29.3993 32.1799 29.3843C32.2704 29.3843 32.3759 29.3541 32.4663 29.324C32.5116 29.3089 32.5568 29.2787 32.602 29.2637C32.6472 29.2637 32.6774 29.2486 32.7226 29.2185C32.7678 29.2034 32.8884 29.1733 32.8884 29.0979H32.9035Z" fill="#515151"/>
<path d="M32.1043 28.2233C32.0289 28.1781 31.9234 28.1781 31.8329 28.1932C31.7726 28.1932 31.7274 28.2233 31.6822 28.2534C31.6068 28.2987 31.5013 28.374 31.5314 28.4946C31.5616 28.57 31.652 28.6152 31.7274 28.6304C31.8178 28.6605 31.9083 28.6455 31.9987 28.6152C32.0892 28.5851 32.1947 28.5249 32.2249 28.4344C32.255 28.3439 32.1796 28.2686 32.1043 28.2233ZM32.059 28.5249C32.059 28.5249 31.9535 28.555 31.8932 28.5399C31.8329 28.5249 31.7877 28.4946 31.7274 28.4645C31.6822 28.4494 31.6369 28.3892 31.652 28.3439C31.652 28.2987 31.7123 28.2686 31.7425 28.2686C31.8178 28.2384 31.8932 28.2686 31.9686 28.2987C32.0289 28.3288 32.0741 28.3892 32.0741 28.4494C32.0741 28.4796 32.0741 28.5098 32.059 28.5249Z" fill="#515151"/>
<path d="M32.679 29.8519L32.4529 29.7915C32.4529 29.7915 32.3323 29.7915 32.3021 29.8368L32.1664 29.9725C32.1664 29.9725 32.1363 30.0479 32.1815 30.0479C32.2418 30.0479 32.287 30.0479 32.287 30.1232C32.287 30.1835 32.272 30.2438 32.2569 30.2891C32.2267 30.3493 32.2117 30.4247 32.1815 30.485C32.1514 30.5905 32.1061 30.681 32.0609 30.7865C32.0458 30.8317 32.0157 30.8769 32.0006 30.9373C32.0006 30.9523 31.9554 31.1483 31.9102 31.1031C31.9102 31.1031 31.9102 31.0579 31.9102 31.0428C31.9102 31.0127 31.9102 30.9825 31.9102 30.9523C31.9102 30.8769 31.9102 30.8016 31.9102 30.7262C31.9102 30.681 31.9102 30.6509 31.9102 30.6207C31.9102 30.5755 31.9102 30.5453 31.9102 30.5001C31.9102 30.4097 31.9102 30.3192 31.9102 30.2287C31.9102 30.1835 31.9102 30.1382 31.9102 30.0931C31.9102 30.0479 31.9102 29.9725 31.9554 29.9574C31.9855 29.9574 32.0157 29.9574 32.0458 29.9121L32.1815 29.7764C32.2117 29.7463 32.2117 29.7011 32.1664 29.7011L31.473 29.5352C31.473 29.5352 31.3524 29.5352 31.3222 29.5805C31.3222 29.5805 31.1866 29.7011 31.1866 29.7162C31.1413 29.7614 31.1866 29.7764 31.2167 29.8067C31.2167 29.8067 31.2318 29.8217 31.2167 29.8519C31.2167 29.8669 31.1715 29.882 31.1564 29.897C31.1413 29.9121 31.1112 29.9273 31.0961 29.9423C31.066 29.9574 31.0358 29.9725 31.0057 29.9875C30.9755 30.0026 30.9454 30.0327 30.9152 30.0479C30.9001 30.0479 30.87 30.078 30.8549 30.0931C30.8398 30.0931 30.8097 30.1081 30.7946 30.1232C30.7795 30.1232 30.7494 30.1533 30.7343 30.1685C30.7343 30.1685 30.6438 30.2287 30.674 30.2287C30.7192 30.2287 30.7645 30.2438 30.7946 30.2739C30.8248 30.3041 30.8398 30.3343 30.8549 30.3794C30.8549 30.4247 30.8549 30.4549 30.87 30.5001C30.87 30.5453 30.87 30.5755 30.87 30.6207C30.87 30.6659 30.8398 30.681 30.7946 30.681C30.7645 30.681 30.7494 30.681 30.7192 30.681C30.6288 30.6509 30.5383 30.5905 30.4931 30.5151C30.4629 30.485 30.4479 30.4398 30.4328 30.3945C30.4328 30.3493 30.4328 30.3041 30.4328 30.2588C30.4328 30.1232 30.4931 29.9875 30.5383 29.8669C30.5685 29.8067 30.5986 29.7313 30.674 29.7011C30.7494 29.6709 30.8248 29.7011 30.9001 29.7313C30.9454 29.7313 31.0207 29.7313 31.0509 29.6861L31.1866 29.5503C31.1866 29.5503 31.2167 29.475 31.1715 29.475L30.478 29.3091C30.478 29.3091 30.3574 29.3091 30.3273 29.3544L30.1916 29.49C30.1916 29.49 30.1614 29.5655 30.2067 29.5655C30.267 29.5655 30.3122 29.5956 30.3725 29.6106C30.4177 29.6106 30.4629 29.6257 30.5082 29.6408C30.6137 29.6709 30.5082 29.7614 30.478 29.8067C30.4177 29.882 30.3423 29.9725 30.2971 30.0479C30.2217 30.1533 30.1765 30.2588 30.1464 30.3794C30.1313 30.4549 30.1162 30.5453 30.1162 30.6207C30.1162 30.7111 30.1614 30.7563 30.2217 30.8016C30.282 30.8468 30.3423 30.8769 30.4177 30.8921C30.4629 30.8921 30.5082 30.8921 30.5685 30.8921C30.7494 30.8769 30.9152 30.8016 31.066 30.7262C31.1715 30.6659 31.277 30.5755 31.3222 30.4699C31.3373 30.4247 31.3373 30.3794 31.3373 30.3343C31.3373 30.2891 31.3072 30.2588 31.2619 30.2287C31.2016 30.1685 31.1112 30.1533 31.0207 30.1382C30.9906 30.1382 30.9604 30.1382 30.9906 30.1081C30.9906 30.0931 31.0207 30.078 31.0358 30.078C31.081 30.0479 31.1263 30.0176 31.1866 29.9875C31.2167 29.9574 31.2619 29.9423 31.2921 29.9121C31.3222 29.897 31.3675 29.882 31.4127 29.9121C31.4428 29.9273 31.4579 29.9725 31.473 30.0026C31.4881 30.0479 31.5182 30.0931 31.5333 30.1382C31.6087 30.2891 31.669 30.4398 31.7142 30.5905C31.7443 30.6961 31.7896 30.8016 31.8197 30.9071C31.8499 31.0127 31.8649 31.1181 31.8951 31.2086C31.8951 31.2387 31.9252 31.269 31.9403 31.284C31.9705 31.284 32.0006 31.2539 32.0157 31.2387C32.0458 31.1935 32.076 31.1333 32.0911 31.0729C32.1061 31.0127 32.1212 30.9523 32.1514 30.9071C32.1966 30.8167 32.2267 30.7413 32.287 30.6509C32.3474 30.5453 32.4227 30.4247 32.483 30.3041C32.5584 30.1835 32.6489 30.0629 32.7544 29.9725C32.7845 29.9423 32.7845 29.897 32.7393 29.897L32.679 29.8519Z" fill="#515151"/>
<path d="M30.4162 33.048C30.4162 33.048 30.4011 33.0933 30.386 33.1084C30.386 33.1234 30.3559 33.1385 30.3408 33.1535C30.3257 33.1535 30.2956 33.1686 30.2654 33.1686C30.2353 33.1686 30.2202 33.1686 30.1901 33.1686H30.1298C30.1298 33.1686 30.0845 33.1385 30.0544 33.1234C30.0393 33.1234 30.0092 33.0933 30.0092 33.0781C30.0092 33.0631 29.979 33.048 29.979 33.0179C29.979 33.0028 29.979 32.9727 29.979 32.9575L30.1147 32.3998C30.1147 32.3998 30.1298 32.3545 30.1448 32.3395C30.1448 32.3244 30.175 32.3093 30.1901 32.2943C30.2051 32.2943 30.2353 32.2792 30.2654 32.2792C30.2956 32.2792 30.3107 32.2792 30.3408 32.2792H30.4011C30.4011 32.2792 30.4463 32.3093 30.4765 32.3244C30.4916 32.3244 30.5217 32.3545 30.5217 32.3697C30.5217 32.3847 30.5519 32.3998 30.5519 32.4299C30.5519 32.445 30.5519 32.4751 30.5519 32.4903L30.4162 33.048ZM30.371 32.4601C30.371 32.4601 30.371 32.445 30.371 32.4299C30.371 32.4299 30.371 32.4299 30.3408 32.4299C30.3408 32.4299 30.3257 32.4299 30.3107 32.4299C30.3107 32.4299 30.3107 32.4299 30.2956 32.445L30.1599 32.9878C30.1599 32.9878 30.1599 33.0028 30.1599 33.0179C30.1599 33.0179 30.1599 33.0179 30.1901 33.0179C30.1901 33.0179 30.2051 33.0179 30.2202 33.0179C30.2202 33.0179 30.2202 33.0179 30.2353 33.0028L30.371 32.4601Z" fill="#515151"/>
<path d="M31.2868 32.5347L31.0908 33.3488C31.0908 33.3488 31.0908 33.3638 31.0607 33.3488L30.9099 33.3186C30.9099 33.3186 30.8948 33.3186 30.8948 33.3036L30.9853 32.9266L30.8044 33.2131V32.8814L30.6838 33.2583C30.6838 33.2583 30.6838 33.2733 30.6536 33.2583L30.5029 33.2282C30.5029 33.2282 30.4878 33.2282 30.4878 33.2131L30.6838 32.399C30.6838 32.399 30.6838 32.3839 30.7139 32.399L30.8345 32.4291V32.8965L31.0757 32.4895C31.0757 32.4895 31.0757 32.4895 31.0908 32.4895L31.2114 32.5196C31.2114 32.5196 31.2265 32.5196 31.2265 32.5347H31.2868Z" fill="#515151"/>
<path d="M32.5871 34.7361L27.8987 33.5301L29.7529 26.3542L34.4414 27.5603L32.5871 34.7361ZM28.5771 33.1382L32.1951 34.0728L33.7781 27.9673L30.16 27.0326L28.5771 33.1382Z" fill="#515151"/>
<path d="M38.0569 35.8067L33.2629 35.1885L34.2127 27.8469L39.0066 28.4649L38.0569 35.8067ZM33.881 34.7211L37.5896 35.1885L38.3885 28.9322L34.68 28.4649L33.881 34.7211Z" fill="#515151"/>
<path d="M43.6202 35.9412L38.781 35.8507L38.9167 28.4487L43.7558 28.5392L43.6202 35.9412ZM39.3388 35.3081L43.0775 35.3683L43.1981 29.0668L39.4594 29.0066L39.3388 35.3081Z" fill="#515151"/>
<path d="M44.4823 35.8217L43.5476 28.4801L48.3415 27.862L49.2762 35.2037L44.4823 35.8217ZM44.1656 28.9474L44.9647 35.2037L48.6732 34.7213L47.8742 28.465L44.1656 28.9474Z" fill="#515151"/>
<path d="M50.0864 34.7811L47.991 27.6806L52.6341 26.3088L54.7297 33.4092L50.0864 34.7811ZM48.6844 28.0425L50.4633 34.0876L54.0512 33.0323L52.2723 26.9872L48.6844 28.0425Z" fill="#515151"/>
<path d="M37.2617 30.2879L36.8848 30.2427C36.8848 30.2427 36.7793 30.2578 36.7491 30.3029L36.6285 30.4537C36.6285 30.4537 36.6134 30.5291 36.6587 30.5291C36.719 30.5291 36.7793 30.5291 36.8396 30.5743C36.8848 30.6196 36.9149 30.6949 36.8999 30.7552C36.8848 30.8305 36.8697 30.906 36.8546 30.9814C36.8245 31.0869 36.8094 31.1923 36.8094 31.2979C36.8094 31.3884 36.8094 31.4788 36.7943 31.5693C36.7642 31.6446 36.7491 31.5693 36.734 31.5391C36.719 31.4788 36.7039 31.4335 36.6888 31.3733C36.6587 31.2527 36.5984 31.1321 36.523 31.0416C36.4325 30.9361 36.3421 30.8457 36.2064 30.8155C36.1763 30.8155 36.1461 30.8155 36.131 30.8004C36.116 30.7853 36.1009 30.7402 36.1009 30.7099C36.1009 30.6346 36.1009 30.5291 36.1461 30.4839C36.1763 30.4537 36.2064 30.4687 36.2516 30.4839C36.2969 30.4839 36.3572 30.4687 36.3873 30.4235L36.5079 30.2728C36.5079 30.2728 36.523 30.1974 36.4778 30.1974L35.7692 30.1069C35.7692 30.1069 35.6637 30.1221 35.6336 30.1673L35.5129 30.318C35.5129 30.318 35.4979 30.3934 35.5431 30.3934C35.5883 30.3934 35.6185 30.3934 35.6637 30.4085C35.7542 30.4085 35.7994 30.4537 35.8446 30.5441C35.8597 30.5743 35.8748 30.6045 35.8898 30.6346C35.8898 30.6647 35.9803 30.7703 35.9351 30.8004C35.92 30.8004 35.8748 30.8004 35.8597 30.8004C35.7843 30.8155 35.724 30.8305 35.6637 30.8758C35.5582 30.9361 35.4677 31.0416 35.4376 31.1472C35.4074 31.2226 35.4225 31.3129 35.4376 31.4034C35.4677 31.4939 35.513 31.5994 35.6034 31.6446C35.6486 31.6597 35.7089 31.6749 35.7542 31.6899C35.8145 31.6899 35.8898 31.6899 35.9501 31.6597C36.0858 31.5844 36.1461 31.4788 36.1612 31.3281C36.1612 31.2828 36.1763 31.2527 36.2215 31.2527C36.2516 31.2527 36.2969 31.2678 36.327 31.2979C36.4024 31.3432 36.4476 31.4034 36.4929 31.4788C36.5682 31.5693 36.5833 31.6899 36.6587 31.7955C36.7039 31.8708 36.7642 31.8105 36.7943 31.7652C36.8396 31.705 36.8546 31.6597 36.8546 31.5844C36.8697 31.4939 36.8848 31.4034 36.8848 31.3281C36.8848 31.2075 36.9149 31.0869 36.9451 30.9511C36.9451 30.8909 36.9752 30.8305 36.9752 30.7703C36.9752 30.7251 37.0054 30.6798 37.0355 30.6346C37.0657 30.5893 37.126 30.5893 37.1562 30.5441L37.2768 30.3934C37.3069 30.3633 37.2918 30.318 37.2466 30.318L37.2617 30.2879ZM35.9803 31.5391C35.9803 31.5391 35.9803 31.5391 35.9652 31.5543C35.8898 31.5994 35.8295 31.5844 35.7542 31.5543C35.7089 31.5543 35.6637 31.524 35.6336 31.4788C35.5883 31.4185 35.5733 31.3582 35.5733 31.2828C35.5733 31.2527 35.5733 31.2226 35.5733 31.1923C35.6034 31.102 35.6637 31.0567 35.7542 31.0416C35.8295 31.0416 35.9049 31.0416 35.9803 31.0869C35.9954 31.0869 36.0406 31.102 36.0406 31.1321C36.0406 31.1622 36.0406 31.2075 36.0406 31.2527C36.0406 31.3432 36.0406 31.4788 35.9652 31.5391H35.9803Z" fill="#515151"/>
<path d="M35.9793 33.4244L35.8738 34.2535C35.8738 34.2535 35.8738 34.2686 35.8436 34.2535H35.6929C35.6929 34.2535 35.6778 34.2234 35.6778 34.2084L35.723 33.8164L35.5723 34.1179L35.512 33.7862L35.4667 34.1782C35.4667 34.1782 35.4667 34.1933 35.4366 34.1782H35.2858C35.2858 34.1782 35.2708 34.148 35.2708 34.1329L35.3763 33.3038C35.3763 33.3038 35.3763 33.2887 35.4064 33.3038H35.5421C35.5421 33.3038 35.5421 33.3188 35.5572 33.334L35.6175 33.7862L35.7984 33.3641C35.7984 33.3641 35.7984 33.3641 35.8135 33.3641H35.9491L35.9642 33.3943L35.9793 33.4244Z" fill="#515151"/>
<path d="M36.461 34.3296C36.461 34.3296 36.461 34.3447 36.4459 34.3296H36.3102C36.3102 34.3296 36.2952 34.2994 36.2952 34.2843V34.1487H36.2047L36.1746 34.2843C36.1746 34.2843 36.1746 34.2994 36.1444 34.2843H36.0087C36.0087 34.2843 35.9937 34.2542 35.9937 34.2391L36.2198 33.425C36.2198 33.425 36.2198 33.41 36.2499 33.425L36.4459 33.4552C36.4459 33.4552 36.461 33.4552 36.461 33.4702V34.3146V34.3296ZM36.2952 34.0281V33.6964L36.2198 34.0281H36.2952Z" fill="#515151"/>
<path d="M41.9326 30.3642C41.9175 30.2889 41.8724 30.2135 41.8422 30.1382C41.7969 30.0477 41.7518 29.9422 41.6763 29.8668C41.601 29.7764 41.5256 29.6859 41.4201 29.6255C41.3145 29.5653 41.209 29.5804 41.1036 29.6255C40.8624 29.716 40.5307 30.0778 40.8321 30.304C40.8472 30.319 40.8925 30.319 40.9226 30.3341C40.9527 30.3341 40.983 30.3341 40.998 30.3492C41.0583 30.3492 41.1186 30.3492 41.1638 30.319C41.2543 30.2889 41.3598 30.2135 41.3598 30.108C41.3598 30.0778 41.3598 30.0326 41.3145 30.0176C41.2844 30.0176 41.2543 30.0176 41.2543 30.0477C41.2543 30.0628 41.2694 30.0929 41.2694 30.108C41.2694 30.1382 41.2694 30.1683 41.2694 30.1984C41.2694 30.2436 41.2242 30.2436 41.1789 30.2436C41.0733 30.2436 41.0131 30.1834 40.9678 30.0929C40.9377 30.0326 40.9226 29.9422 40.9377 29.8818C40.9527 29.7764 41.0432 29.7764 41.1337 29.7764C41.3296 29.7764 41.4955 29.9422 41.6161 30.0929C41.6763 30.1683 41.7367 30.2588 41.7969 30.3492C41.8272 30.3945 41.8422 30.4246 41.8724 30.4698C41.8724 30.5 41.8874 30.5452 41.9326 30.5452C41.9779 30.5452 41.9628 30.5 41.9628 30.4698C41.9628 30.4396 41.9628 30.4095 41.9478 30.3794L41.9326 30.3642Z" fill="#515151"/>
<path d="M41.7698 31.253C41.7698 31.253 41.7546 31.253 41.7396 31.2379C41.6492 31.1777 41.5134 31.1626 41.408 31.1777C41.3024 31.1777 41.1969 31.2229 41.1064 31.2682C41.0763 31.2682 41.031 31.3284 41.0009 31.3133C40.9858 31.3133 40.9858 31.253 41.0009 31.2379C41.031 31.0872 41.1215 30.9817 41.2572 30.9064C41.3627 30.846 41.4682 30.846 41.5738 30.846C41.619 30.846 41.6793 30.8159 41.7094 30.7706L41.7999 30.6199C41.7999 30.6199 41.7999 30.5444 41.7546 30.5444H40.9104C40.9104 30.5444 40.805 30.5747 40.7748 30.6199L40.6844 30.7706C40.6844 30.7706 40.6844 30.846 40.7296 30.846H40.9406C40.9406 30.846 41.0612 30.8309 41.0914 30.846C41.1366 30.8761 41.0914 30.9214 41.0763 30.9515C41.0462 31.0118 41.0009 31.0571 40.9557 31.1023C40.9104 31.1476 40.8954 31.2078 40.8652 31.253C40.8351 31.3133 40.805 31.3736 40.7898 31.4339C40.7145 31.63 40.6692 31.8259 40.6541 32.0219C40.6541 32.1576 40.6391 32.3083 40.6541 32.444C40.6541 32.5194 40.6541 32.5948 40.6541 32.6701C40.6541 32.8812 40.6692 33.0923 40.6692 33.2882C40.6692 33.3636 40.6692 33.439 40.6692 33.5143C40.6692 33.5294 40.6692 33.5747 40.6994 33.5897C40.7296 33.5897 40.7446 33.5596 40.7597 33.5444C40.7898 33.4992 40.805 33.4842 40.7898 33.439C40.7898 33.3786 40.7898 33.3184 40.7898 33.258C40.7748 33.0319 40.7446 32.7907 40.7446 32.5646C40.7446 32.459 40.7296 32.3686 40.7446 32.2631C40.7446 32.1576 40.7748 32.052 40.82 31.9615C40.82 31.9314 40.8652 31.8409 40.9104 31.8712C40.9104 31.8712 40.9406 31.9164 40.9406 31.9314C40.9406 31.9465 40.9708 31.9766 40.9858 31.9918C41.016 32.0219 41.0612 32.052 41.1064 32.0671C41.1969 32.0972 41.3024 32.0821 41.3928 32.052C41.4231 32.052 41.4532 32.0219 41.4833 32.0068C41.6039 31.9465 41.7094 31.856 41.7999 31.7506C41.9356 31.5997 41.9506 31.3585 41.7849 31.2229L41.7698 31.253ZM41.6492 31.7354C41.619 31.856 41.5286 31.9314 41.408 31.9615C41.3024 31.9918 41.1366 31.9615 41.0612 31.8712C41.016 31.8108 40.9858 31.6902 41.016 31.6148C41.0462 31.5094 41.1516 31.4641 41.2421 31.449C41.2722 31.449 41.2874 31.449 41.3175 31.449C41.3778 31.449 41.4231 31.449 41.4682 31.449C41.5286 31.449 41.5738 31.449 41.619 31.5094C41.6643 31.5696 41.6793 31.6601 41.6643 31.7354H41.6492Z" fill="#515151"/>
<path d="M41.3769 33.9525V34.7816C41.3769 34.7816 41.3769 34.7967 41.3619 34.7967H41.2563C41.2563 34.7967 41.2563 34.7967 41.2413 34.7967L41.0755 34.3897V34.7967C41.0755 34.7967 41.0755 34.8117 41.0604 34.8117H40.9247C40.9247 34.8117 40.9097 34.8117 40.9097 34.7967V33.9675C40.9097 33.9675 40.9097 33.9525 40.9247 33.9525H41.0303C41.0303 33.9525 41.0303 33.9525 41.0453 33.9525L41.2111 34.3444V33.9525C41.2111 33.9525 41.2111 33.9374 41.2262 33.9374H41.3619C41.3619 33.9374 41.3769 33.9374 41.3769 33.9525Z" fill="#515151"/>
<path d="M41.6937 34.7816C41.6937 34.7816 41.6937 34.7967 41.6786 34.7967H41.543C41.543 34.7967 41.5278 34.7967 41.5278 34.7816V33.9525C41.5278 33.9525 41.5278 33.9374 41.543 33.9374H41.6786C41.6786 33.9374 41.6937 33.9374 41.6937 33.9525V34.7816Z" fill="#515151"/>
<path d="M47.3308 29.8662C47.3308 29.8662 47.2403 29.7456 47.1951 29.6852C47.1499 29.64 47.0745 29.5947 46.9991 29.5797C46.9388 29.5646 46.8634 29.5495 46.8032 29.5495C46.7579 29.5495 46.7127 29.6099 46.6826 29.6551C46.6826 29.6551 46.6072 29.7456 46.6523 29.7456C46.8032 29.7456 46.9388 29.7757 47.0745 29.8058C47.1499 29.8209 47.2252 29.8511 47.2856 29.8963C47.3157 29.9113 47.3458 29.9415 47.3609 29.9868C47.3609 30.0018 47.3761 30.0169 47.3911 30.047C47.3911 30.047 47.3911 30.0771 47.4062 30.0923C47.4363 30.0923 47.4062 30.0018 47.4062 30.0018C47.3911 29.9565 47.3609 29.9113 47.3458 29.8662H47.3308Z" fill="#515151"/>
<path d="M47.044 31.6601L46.7275 31.7053C46.7275 31.7053 46.637 31.7506 46.6219 31.7807L46.5616 31.9164C46.5616 31.9164 46.5616 31.9767 46.6069 31.9767C46.6521 31.9767 46.7123 31.9465 46.7576 31.9767C46.8028 32.0069 46.8481 32.0671 46.8481 32.1124C46.8481 32.1727 46.8481 32.233 46.8631 32.3083C46.8631 32.3988 46.8782 32.4893 46.8933 32.5798C46.8933 32.6551 46.9385 32.7154 46.9385 32.8059C46.9385 32.8662 46.9083 32.821 46.8782 32.8059C46.8481 32.7606 46.8329 32.7305 46.8028 32.6853C46.7576 32.5948 46.6822 32.5043 46.6069 32.4441C46.5164 32.3687 46.4109 32.3235 46.3053 32.3386C46.2903 32.3386 46.2601 32.3386 46.2299 32.3386C46.2148 32.3386 46.1998 32.2933 46.1847 32.2782C46.1847 32.218 46.1395 32.1425 46.1697 32.0823C46.1847 32.0521 46.2148 32.0521 46.2451 32.0521C46.2903 32.0521 46.3354 32.0069 46.3505 31.9767L46.4109 31.8411C46.4109 31.8411 46.4109 31.7807 46.3657 31.7807L45.7777 31.8561C45.7777 31.8561 45.6873 31.9013 45.6722 31.9315L45.6118 32.0671C45.6118 32.0671 45.6118 32.1275 45.6571 32.1275C45.6873 32.1275 45.7174 32.1275 45.7627 32.1275C45.838 32.1275 45.8833 32.1275 45.9435 32.1877C45.9586 32.2029 45.9887 32.233 46.0039 32.2481C46.0189 32.2631 46.1093 32.3386 46.0792 32.3687C46.0792 32.3687 46.034 32.3837 46.0189 32.3988C45.9736 32.4289 45.9134 32.4592 45.8681 32.5043C45.7928 32.5798 45.7475 32.6701 45.7475 32.7757C45.7475 32.836 45.7627 32.9113 45.8079 32.9717C45.853 33.0471 45.9134 33.1074 46.0039 33.1224C46.0491 33.1224 46.0942 33.1224 46.1395 33.1224C46.1998 33.1224 46.2451 33.0923 46.2903 33.0471C46.3807 32.9566 46.4109 32.8511 46.3958 32.7305C46.3958 32.7004 46.3958 32.6701 46.441 32.6551C46.4711 32.6551 46.5013 32.6551 46.5315 32.6551C46.5917 32.6853 46.6521 32.7154 46.7123 32.7606C46.7877 32.821 46.8329 32.9113 46.9083 32.9717C46.9687 33.0169 46.9988 32.9717 47.0139 32.9113C47.0289 32.8662 47.0289 32.8059 47.0139 32.7606C47.0139 32.6853 46.9988 32.6099 46.9837 32.5495C46.9687 32.4441 46.9535 32.3386 46.9385 32.2481C46.9385 32.2029 46.9385 32.1425 46.9385 32.0974C46.9385 32.0521 46.9385 32.0069 46.9535 31.9767C46.9687 31.9315 47.0139 31.9164 47.0289 31.8863L47.0893 31.7506C47.1044 31.7205 47.0893 31.6903 47.044 31.6903V31.6601ZM46.2903 32.9416C46.2903 32.9416 46.2903 32.9416 46.2903 32.9566C46.2451 33.0018 46.1847 33.0018 46.1245 33.0169C46.0792 33.0169 46.0491 33.0169 46.0189 32.9868C45.9736 32.9416 45.9435 32.8963 45.9285 32.836C45.9285 32.8059 45.9285 32.7907 45.9285 32.7606C45.9285 32.6853 45.9736 32.64 46.0491 32.6099C46.1093 32.5798 46.1697 32.5798 46.2299 32.5948C46.2451 32.5948 46.2752 32.5948 46.2903 32.6249C46.3053 32.6551 46.3053 32.6853 46.3204 32.7154C46.3505 32.7907 46.3657 32.8963 46.3204 32.9566L46.2903 32.9416Z" fill="#515151"/>
<path d="M46.1512 30.2887L45.8195 30.3339C45.8195 30.3339 45.7292 30.3792 45.714 30.4093L45.6537 30.545C45.6537 30.545 45.6537 30.6054 45.6989 30.6054C45.7894 30.6054 45.9251 30.545 45.9552 30.6656C45.9552 30.7109 45.9704 30.7561 45.9854 30.8163C45.9854 30.8616 45.9854 30.9219 46.0005 30.9672C46.0005 31.0727 46.0155 31.1781 46.0306 31.2837C46.0306 31.3139 46.0306 31.3591 46.0457 31.4043C46.0457 31.4345 46.0607 31.4797 46.0457 31.5098C46.0457 31.5852 45.9552 31.4797 45.9251 31.4496C45.8799 31.3892 45.8195 31.329 45.7593 31.2686C45.6989 31.2084 45.6387 31.148 45.5633 31.1179C45.4878 31.0878 45.3975 31.0575 45.3221 31.0727C45.2015 31.0727 45.0809 31.148 44.9904 31.2084C44.9753 31.2234 44.9452 31.2385 44.9301 31.2536C44.9301 31.2536 44.9151 31.2837 44.9 31.2686V31.2385C44.9 31.1933 44.9 31.148 44.9151 31.1028C44.9301 31.0124 44.9603 30.9369 45.0054 30.8616C45.0357 30.8013 45.0959 30.741 45.1563 30.6957C45.2165 30.6506 45.2919 30.6656 45.3522 30.6506C45.3975 30.6506 45.4427 30.6054 45.4577 30.5751L45.5181 30.4395C45.5181 30.4395 45.5181 30.3792 45.4728 30.3792L44.8848 30.4545C44.8848 30.4545 44.7945 30.4998 44.7794 30.5299L44.719 30.6656C44.719 30.6656 44.719 30.726 44.7642 30.726C44.8095 30.726 44.8397 30.726 44.8848 30.7109C44.9301 30.7109 44.9753 30.6807 45.0206 30.7109C45.0809 30.741 44.9753 30.8466 44.9452 30.8767C44.8848 30.9672 44.8397 31.0575 44.8246 31.1631C44.8246 31.2084 44.8095 31.2686 44.7945 31.3139C44.7945 31.344 44.7945 31.3892 44.7945 31.4345C44.8095 31.4646 44.8397 31.4345 44.8547 31.4345C44.8698 31.4195 44.8848 31.3892 44.9 31.3591C44.9452 31.3139 44.9904 31.3139 45.0507 31.2987C45.111 31.2987 45.1713 31.2837 45.2316 31.2987C45.3221 31.2987 45.3975 31.344 45.4878 31.3742C45.5331 31.3742 45.5783 31.4043 45.6387 31.4195C45.6537 31.4195 45.6688 31.4195 45.6989 31.4345C45.7292 31.4496 45.7743 31.4646 45.8045 31.4797C45.8346 31.4948 45.8799 31.5249 45.91 31.5401C45.9401 31.5551 45.9704 31.5852 45.9854 31.6003C46.0457 31.6304 46.091 31.6003 46.0758 31.5249C46.0607 31.3742 46.0607 31.2084 46.0306 31.0727C46.0306 30.9672 46.0005 30.8466 46.0005 30.741C46.0005 30.6807 46.0005 30.6355 46.0306 30.5903C46.0306 30.5751 46.0457 30.545 46.0607 30.5299C46.0607 30.5299 46.091 30.5149 46.091 30.4848L46.1512 30.3491C46.1663 30.3189 46.1512 30.2887 46.106 30.2887H46.1512Z" fill="#515151"/>
<path d="M47.6202 30.1229C47.6202 30.1229 47.6051 30.0928 47.575 30.0928L46.5047 30.2435C46.5047 30.2435 46.4142 30.2887 46.3991 30.319L46.3389 30.4546C46.3389 30.4546 46.3389 30.5149 46.3841 30.5149C46.4292 30.5149 46.4595 30.5149 46.5047 30.4998C46.5498 30.4998 46.5951 30.4697 46.6403 30.4998C46.7007 30.5299 46.5951 30.6355 46.5649 30.6657C46.5047 30.7561 46.4595 30.8466 46.4443 30.9521C46.4443 30.9973 46.4292 31.0576 46.4142 31.1028C46.4142 31.1329 46.4142 31.1782 46.4142 31.2234C46.4292 31.2535 46.4595 31.2234 46.4745 31.2234C46.4896 31.2084 46.5047 31.1782 46.5197 31.1481C46.5649 31.1028 46.6102 31.1028 46.6704 31.0878C46.7308 31.0878 46.791 31.0727 46.8514 31.0878C46.9419 31.0878 47.0172 31.1329 47.1077 31.1632C47.1529 31.1632 47.1981 31.1933 47.2584 31.2084C47.4091 31.2535 47.5297 31.3741 47.6051 31.5099C47.6353 31.5702 47.6956 31.8264 47.7408 31.8264C47.8162 31.8264 47.6202 31.344 47.6051 31.2988C47.5147 31.1329 47.3639 30.9822 47.1831 30.9069C47.1077 30.8767 47.0172 30.8466 46.9419 30.8616C46.8213 30.8616 46.7007 30.937 46.6102 30.9973C46.5951 31.0123 46.5649 31.0275 46.5498 31.0426C46.5498 31.0426 46.5348 31.0727 46.5197 31.0576V31.0275C46.5197 30.9822 46.5197 30.937 46.5348 30.8917C46.5498 30.8014 46.5801 30.726 46.6253 30.6505C46.6554 30.5903 46.7157 30.5299 46.776 30.4847C46.8363 30.4396 47.3941 30.3792 47.4695 30.3641C47.5147 30.3641 47.5599 30.319 47.575 30.2887L47.6353 30.1531C47.6353 30.1531 47.6353 30.138 47.6353 30.1229H47.6202Z" fill="#515151"/>
<path d="M45.6149 33.7101C45.6149 33.7101 45.6602 33.7101 45.6903 33.7101C45.7054 33.7101 45.7355 33.7101 45.7506 33.7251C45.7658 33.7251 45.7808 33.7554 45.7959 33.7704C45.7959 33.7855 45.811 33.8005 45.811 33.8156L45.8411 33.9966C45.8411 33.9966 45.8411 34.0267 45.8411 34.0568C45.8411 34.0719 45.826 34.0869 45.811 34.102C45.811 34.102 45.7808 34.1322 45.7658 34.1322C45.7506 34.1322 45.7205 34.1473 45.7054 34.1473H45.6452L45.6903 34.4487C45.6903 34.4487 45.6903 34.4638 45.6753 34.4638H45.5547H45.5396L45.4341 33.7251C45.4341 33.7251 45.4341 33.7101 45.4491 33.7101L45.6602 33.6799L45.6149 33.7101ZM45.6452 33.8457C45.6452 33.8457 45.6452 33.8457 45.6452 33.8307C45.6452 33.8307 45.63 33.8307 45.6149 33.8307H45.5697L45.5999 34.0568H45.6452C45.6452 34.0568 45.6602 34.0568 45.6602 34.0417C45.6602 34.0417 45.6602 34.0417 45.6602 34.0267L45.63 33.8608L45.6452 33.8457Z" fill="#515151"/>
<path d="M46.3379 34.3741V34.3893H46.2173H46.2023L46.1721 34.2685H46.0817V34.4043C46.0817 34.4043 46.0817 34.4194 46.0666 34.4194H45.946H45.9309V33.6655C45.9309 33.6655 45.9309 33.6505 45.946 33.6505L46.1269 33.6203C46.1269 33.6203 46.142 33.6203 46.1571 33.6203L46.3531 34.344L46.3379 34.3741ZM46.1269 34.1631L46.0666 33.8766V34.1782H46.1269V34.1631Z" fill="#515151"/>
<path d="M46.5622 33.5748C46.5622 33.5748 46.6074 33.5748 46.6375 33.5748C46.6526 33.5748 46.6828 33.5748 46.6979 33.5899C46.7129 33.5899 46.728 33.6201 46.7431 33.6351C46.7431 33.6502 46.7581 33.6653 46.7581 33.6803L46.8185 34.1778C46.8185 34.1778 46.8185 34.2079 46.8185 34.2382C46.8185 34.2532 46.8034 34.2683 46.7884 34.2833C46.7884 34.2833 46.7581 34.3135 46.7431 34.3135C46.728 34.3135 46.6979 34.3285 46.6828 34.3285L46.4717 34.3588H46.4567L46.3511 33.6201C46.3511 33.6201 46.3511 33.6049 46.3662 33.6049L46.5773 33.5748H46.5622ZM46.5923 33.7105C46.5923 33.7105 46.5923 33.7105 46.5923 33.6954C46.5923 33.6954 46.5773 33.6954 46.5622 33.6954H46.5169L46.5923 34.2382H46.6375C46.6375 34.2382 46.6526 34.2382 46.6526 34.2231C46.6526 34.2231 46.6526 34.2231 46.6526 34.2079L46.5923 33.7255V33.7105Z" fill="#515151"/>
<path d="M47.3765 33.485L47.482 34.2237C47.482 34.2237 47.482 34.2388 47.467 34.2388H47.3313C47.3313 34.2388 47.3162 34.2538 47.3162 34.2388L47.2711 33.892L47.2258 34.1936L47.0901 33.9221L47.1353 34.2689C47.1353 34.2689 47.1353 34.2839 47.1202 34.2839H46.9846C46.9846 34.2839 46.9695 34.2991 46.9695 34.2839L46.864 33.5453C46.864 33.5453 46.864 33.5302 46.879 33.5302H46.9996L47.1655 33.9071L47.2258 33.5001H47.3464H47.3614L47.3765 33.485Z" fill="#515151"/>
<path d="M47.9162 34.0575V34.148V34.163L47.6147 34.2082H47.5996L47.4941 33.4696C47.4941 33.4696 47.4941 33.4545 47.5091 33.4545L47.8107 33.4092H47.8257V33.4997V33.5147H47.675L47.6901 33.6957H47.8257C47.8257 33.6957 47.8408 33.6806 47.8408 33.6957V33.7862V33.8012H47.7051L47.7353 34.0424H47.8861C47.8861 34.0424 47.9011 34.0274 47.9011 34.0424L47.9162 34.0575Z" fill="#515151"/>
<path d="M50.843 28.3295C50.7677 28.3295 50.6923 28.3746 50.632 28.4199C50.6018 28.4501 50.5717 28.4952 50.5415 28.5405C50.4964 28.6158 50.4661 28.7214 50.5415 28.7817C50.5867 28.8269 50.6772 28.8119 50.7376 28.7817C50.8129 28.7667 50.8883 28.7063 50.9335 28.6461C50.9788 28.5857 51.039 28.4952 51.0089 28.4199C50.9938 28.3445 50.9034 28.3144 50.8279 28.3144L50.843 28.3295ZM50.9485 28.5707C50.9485 28.5707 50.8883 28.6461 50.843 28.6611C50.7978 28.6611 50.7376 28.6762 50.6923 28.6762C50.6471 28.6762 50.6018 28.6762 50.5717 28.6158C50.5717 28.5857 50.5717 28.5405 50.6018 28.5104C50.6471 28.4651 50.7073 28.435 50.7827 28.435C50.843 28.435 50.9034 28.4651 50.9335 28.5104C50.9335 28.5255 50.9485 28.5556 50.9485 28.5707Z" fill="#515151"/>
<path d="M51.1569 28.5103C51.1418 28.5103 51.1418 28.5404 51.1418 28.5556C51.1418 28.6008 51.1268 28.646 51.0363 28.7365C50.976 28.8119 50.8705 28.8571 50.78 28.8721C50.6293 28.9024 50.4936 28.8721 50.4333 28.842C50.4032 28.8269 50.373 28.7968 50.358 28.7818C50.358 28.7818 50.3277 28.7515 50.3277 28.7365C50.3277 28.7365 50.3277 28.7063 50.2976 28.7063C50.2976 28.7063 50.3127 28.7666 50.3277 28.7818C50.3277 28.8119 50.358 28.8269 50.373 28.8571C50.4032 28.9024 50.4483 28.9325 50.4936 28.9626C50.584 29.0078 50.7046 29.038 50.8102 29.0078C50.9458 28.9626 51.0212 28.9024 51.0966 28.8119C51.1569 28.7214 51.172 28.6159 51.172 28.5707V28.5254L51.1569 28.5103Z" fill="#515151"/>
<path d="M52.1864 29.9716C52.1864 29.8811 52.1411 29.7906 52.096 29.7001C52.0809 29.67 52.0357 29.6248 52.0055 29.5947C51.9754 29.5795 51.9452 29.5494 51.8999 29.5344C51.7492 29.4892 51.5834 29.5494 51.4628 29.655C51.4175 29.7002 51.3874 29.7756 51.3272 29.7906C51.2668 29.7906 51.2066 29.7454 51.1462 29.7304C51.0557 29.7001 50.9804 29.7001 50.8899 29.7304C50.7693 29.7605 50.6638 29.8359 50.5733 29.9264C50.5583 29.9414 50.5281 29.9716 50.5131 29.9866C50.5131 29.9866 50.5131 30.0318 50.4829 30.0168C50.4829 30.0168 50.4829 29.9866 50.4829 29.9716C50.4829 29.9263 50.4829 29.8811 50.4829 29.8359C50.4829 29.7454 50.498 29.655 50.5281 29.5795C50.5583 29.5042 50.5885 29.4288 50.6487 29.3836C50.7091 29.3384 51.2668 29.1725 51.3422 29.1575C51.3874 29.1575 51.4175 29.0971 51.4327 29.067L51.4628 28.9163V28.8862C51.4628 28.8711 51.4327 28.856 51.4025 28.8711L50.3171 29.2027C50.3171 29.2027 50.2417 29.263 50.2267 29.2931L50.1965 29.4439C50.1965 29.4439 50.1965 29.5042 50.2568 29.4892C50.302 29.4892 50.3321 29.4589 50.3774 29.4589C50.4226 29.4589 50.4679 29.4137 50.5131 29.4288C50.5885 29.4288 50.4829 29.5796 50.4679 29.6248C50.4226 29.7304 50.3925 29.8359 50.3925 29.9414C50.3925 29.9866 50.3925 30.0469 50.3925 30.1072C50.3925 30.1524 50.3925 30.1977 50.4226 30.2278C50.4527 30.258 50.4679 30.2278 50.4829 30.2128C50.4829 30.1826 50.5131 30.1524 50.5281 30.1374C50.5583 30.0922 50.6186 30.062 50.6638 30.047C50.7543 30.0017 50.8749 29.9866 50.9804 29.9716C51.0407 29.9716 51.1161 29.9716 51.1763 29.9716C51.2066 29.9716 51.2367 29.9716 51.2668 29.9716C51.3272 29.9716 51.3874 30.0017 51.4478 30.047C51.4929 30.0771 51.5231 30.1072 51.5533 30.1524C51.5533 30.1524 51.5684 30.2278 51.5834 30.2278C51.6136 30.2278 51.5985 30.1374 51.5834 30.1223C51.5834 30.0922 51.5533 30.062 51.5381 30.0318C51.508 29.9716 51.4628 29.9263 51.4175 29.8811C51.3874 29.851 51.3723 29.7906 51.4327 29.7756C51.4929 29.7454 51.5533 29.7304 51.6136 29.7304C51.6739 29.7304 51.7492 29.7454 51.8096 29.7756C51.8849 29.8208 51.9452 29.8962 51.9904 29.9565C52.096 30.0922 52.096 30.2882 52.0357 30.4389C52.0055 30.5142 51.9603 30.5896 51.9151 30.65C51.8849 30.6801 51.8548 30.7253 51.8246 30.7554C51.7945 30.7857 51.7492 30.8308 51.689 30.8308C51.6437 30.8308 51.5985 30.8007 51.5533 30.8007C51.4779 30.8007 51.4025 30.8007 51.3422 30.8158C51.1763 30.876 51.0407 31.0118 50.9654 31.1625C50.9351 31.2228 50.9201 31.2831 50.9654 31.3434C50.9955 31.3736 51.0407 31.4037 51.086 31.3735C51.101 31.3735 51.1763 31.3133 51.1311 31.2982C51.101 31.2982 51.101 31.3283 51.0557 31.2982C51.0256 31.2982 51.0256 31.2228 51.0105 31.2077C51.0105 31.1172 51.0407 31.057 51.1161 31.0269C51.1613 30.9966 51.2216 30.9816 51.2819 30.9816C51.3874 30.9816 51.508 31.0117 51.5684 31.1022C51.5985 31.1475 51.5985 31.2077 51.5834 31.253C51.5834 31.2831 51.5231 31.3434 51.5381 31.3887C51.5834 31.3887 51.6286 31.3133 51.6587 31.2831C51.7191 31.2378 51.8096 31.2378 51.8849 31.2378C51.9452 31.2378 52.0055 31.2831 52.0357 31.3283C52.0508 31.3584 52.0658 31.3887 52.0658 31.4188C52.0658 31.464 52.0658 31.464 52.0357 31.4941C52.0357 31.4941 51.9904 31.5394 52.0055 31.5545C52.0055 31.5846 52.0658 31.5545 52.0809 31.5545C52.111 31.5545 52.1563 31.5545 52.2015 31.5545C52.2619 31.5545 52.3221 31.5996 52.3673 31.66C52.4126 31.7204 52.3975 31.7957 52.3372 31.856C52.2769 31.9163 52.2015 31.9163 52.1261 31.9313C52.0508 31.9313 51.9754 31.9313 51.9151 31.9313C51.8397 31.9313 51.7643 31.9313 51.704 31.9163C51.5834 31.8861 51.4628 31.841 51.3422 31.8107C51.2517 31.7806 51.1462 31.7505 51.0557 31.7354C50.9804 31.7204 50.905 31.7052 50.8297 31.7354C50.8145 31.7354 50.7543 31.7353 50.7392 31.7655C50.7392 31.7957 50.7844 31.7806 50.7995 31.7806C50.8297 31.7806 50.8447 31.7806 50.8749 31.7806C50.9201 31.7806 50.9804 31.7957 51.0256 31.8258C51.1161 31.856 51.2066 31.9012 51.2969 31.9464C51.3573 31.9766 51.4025 32.0067 51.4628 32.0369C51.5381 32.067 51.5985 32.1123 51.689 32.1424C51.8698 32.1725 52.0809 32.1424 52.2316 32.0369C52.307 31.9917 52.3673 31.9313 52.4126 31.841C52.4578 31.7655 52.5031 31.6751 52.4879 31.5846C52.4728 31.4942 52.3975 31.4339 52.3221 31.4339C52.292 31.4339 52.2617 31.4339 52.2467 31.4339C52.2467 31.4339 52.2015 31.464 52.1864 31.464C52.1563 31.464 52.1864 31.4188 52.1864 31.4037C52.1864 31.3736 52.1864 31.3283 52.1864 31.2982C52.1864 31.2228 52.1261 31.1776 52.0508 31.1625C51.9904 31.1475 51.9302 31.1625 51.8698 31.1625C51.8548 31.1625 51.7643 31.2378 51.7492 31.2077C51.7492 31.1927 51.7492 31.1776 51.7643 31.1625C51.7793 31.1172 51.7945 31.057 51.7643 31.0118C51.7492 30.9213 51.7643 30.876 51.8397 30.8158C51.9151 30.7404 51.9904 30.6499 52.0508 30.5445C52.1411 30.3786 52.2166 30.1977 52.1864 30.0017V29.9716Z" fill="#515151"/>
<path d="M51.566 32.4893L51.7922 33.228V33.243L51.6716 33.2732C51.6716 33.2732 51.6565 33.2732 51.6414 33.2732L51.5509 32.9567L51.4605 32.9868L51.5509 33.3033V33.3185L51.4303 33.3486C51.4303 33.3486 51.4153 33.3486 51.4002 33.3486L51.1741 32.6099V32.5949L51.2947 32.5646C51.2947 32.5646 51.3097 32.5646 51.3248 32.5646L51.4153 32.8662L51.5058 32.8361L51.4153 32.5345V32.5194L51.5359 32.4893C51.5359 32.4893 51.5509 32.4893 51.566 32.4893Z" fill="#515151"/>
<path d="M52.0792 32.3387L52.2753 32.9719C52.2753 32.9719 52.2753 33.0171 52.2753 33.0322C52.2753 33.0473 52.2753 33.0775 52.245 33.0925C52.245 33.1076 52.2149 33.1227 52.1998 33.1377C52.1848 33.1377 52.1545 33.1679 52.1395 33.1679H52.0943C52.0943 33.1679 52.0491 33.1981 52.0189 33.1981C51.9888 33.1981 51.9737 33.1981 51.9586 33.1981C51.9436 33.1981 51.9285 33.1829 51.9133 33.1679C51.9133 33.1679 51.8832 33.1377 51.8832 33.1227L51.6873 32.4895V32.4745L51.8079 32.4442C51.8079 32.4442 51.823 32.4442 51.838 32.4442L52.0339 33.0623C52.0339 33.0623 52.0339 33.0623 52.0491 33.0775C52.0491 33.0775 52.0642 33.0775 52.0792 33.0775C52.0792 33.0775 52.0943 33.0775 52.0943 33.0623C52.0943 33.0623 52.0943 33.0623 52.0943 33.0472L51.8983 32.4292V32.4141L52.0189 32.384C52.0189 32.384 52.0339 32.384 52.0491 32.384L52.0792 32.3387Z" fill="#515151"/>
<path d="M52.7286 32.1428L52.9548 32.8814V32.8965L52.8191 32.9418C52.8191 32.9418 52.8039 32.9418 52.7889 32.9418L52.6833 32.5951V32.9117L52.5025 32.6553L52.608 33.002V33.0171L52.4724 33.0624C52.4724 33.0624 52.4573 33.0624 52.4421 33.0624L52.2161 32.3237V32.3087L52.3367 32.2784C52.3367 32.2784 52.3367 32.2784 52.3518 32.2784L52.5779 32.6402V32.2182L52.6985 32.1881C52.6985 32.1881 52.7136 32.1881 52.7286 32.1881V32.1428Z" fill="#515151"/>
<path d="M21.3363 68.112H24.2643V69H20.2443V60.636H21.3363V68.112ZM25.016 65.688C25.016 65.016 25.152 64.428 25.424 63.924C25.696 63.412 26.068 63.016 26.54 62.736C27.02 62.456 27.552 62.316 28.136 62.316C28.712 62.316 29.212 62.44 29.636 62.688C30.06 62.936 30.376 63.248 30.584 63.624V62.424H31.688V69H30.584V67.776C30.368 68.16 30.044 68.48 29.612 68.736C29.188 68.984 28.692 69.108 28.124 69.108C27.54 69.108 27.012 68.964 26.54 68.676C26.068 68.388 25.696 67.984 25.424 67.464C25.152 66.944 25.016 66.352 25.016 65.688ZM30.584 65.7C30.584 65.204 30.484 64.772 30.284 64.404C30.084 64.036 29.812 63.756 29.468 63.564C29.132 63.364 28.76 63.264 28.352 63.264C27.944 63.264 27.572 63.36 27.236 63.552C26.9 63.744 26.632 64.024 26.432 64.392C26.232 64.76 26.132 65.192 26.132 65.688C26.132 66.192 26.232 66.632 26.432 67.008C26.632 67.376 26.9 67.66 27.236 67.86C27.572 68.052 27.944 68.148 28.352 68.148C28.76 68.148 29.132 68.052 29.468 67.86C29.812 67.66 30.084 67.376 30.284 67.008C30.484 66.632 30.584 66.196 30.584 65.7ZM33.1254 65.688C33.1254 65.016 33.2614 64.428 33.5334 63.924C33.8054 63.412 34.1774 63.016 34.6494 62.736C35.1294 62.456 35.6654 62.316 36.2574 62.316C36.7694 62.316 37.2454 62.436 37.6854 62.676C38.1254 62.908 38.4614 63.216 38.6934 63.6V60.12H39.7974V69H38.6934V67.764C38.4774 68.156 38.1574 68.48 37.7334 68.736C37.3094 68.984 36.8134 69.108 36.2454 69.108C35.6614 69.108 35.1294 68.964 34.6494 68.676C34.1774 68.388 33.8054 67.984 33.5334 67.464C33.2614 66.944 33.1254 66.352 33.1254 65.688ZM38.6934 65.7C38.6934 65.204 38.5934 64.772 38.3934 64.404C38.1934 64.036 37.9214 63.756 37.5774 63.564C37.2414 63.364 36.8694 63.264 36.4614 63.264C36.0534 63.264 35.6814 63.36 35.3454 63.552C35.0094 63.744 34.7414 64.024 34.5414 64.392C34.3414 64.76 34.2414 65.192 34.2414 65.688C34.2414 66.192 34.3414 66.632 34.5414 67.008C34.7414 67.376 35.0094 67.66 35.3454 67.86C35.6814 68.052 36.0534 68.148 36.4614 68.148C36.8694 68.148 37.2414 68.052 37.5774 67.86C37.9214 67.66 38.1934 67.376 38.3934 67.008C38.5934 66.632 38.6934 66.196 38.6934 65.7ZM41.2348 65.688C41.2348 65.016 41.3708 64.428 41.6428 63.924C41.9148 63.412 42.2868 63.016 42.7588 62.736C43.2388 62.456 43.7708 62.316 44.3548 62.316C44.9308 62.316 45.4308 62.44 45.8548 62.688C46.2788 62.936 46.5948 63.248 46.8028 63.624V62.424H47.9068V69H46.8028V67.776C46.5868 68.16 46.2628 68.48 45.8308 68.736C45.4068 68.984 44.9108 69.108 44.3428 69.108C43.7588 69.108 43.2308 68.964 42.7588 68.676C42.2868 68.388 41.9148 67.984 41.6428 67.464C41.3708 66.944 41.2348 66.352 41.2348 65.688ZM46.8028 65.7C46.8028 65.204 46.7028 64.772 46.5028 64.404C46.3028 64.036 46.0308 63.756 45.6868 63.564C45.3508 63.364 44.9788 63.264 44.5708 63.264C44.1628 63.264 43.7908 63.36 43.4548 63.552C43.1188 63.744 42.8508 64.024 42.6508 64.392C42.4508 64.76 42.3508 65.192 42.3508 65.688C42.3508 66.192 42.4508 66.632 42.6508 67.008C42.8508 67.376 43.1188 67.66 43.4548 67.86C43.7908 68.052 44.1628 68.148 44.5708 68.148C44.9788 68.148 45.3508 68.052 45.6868 67.86C46.0308 67.66 46.3028 67.376 46.5028 67.008C46.7028 66.632 46.8028 66.196 46.8028 65.7ZM53.4241 69L50.8441 66.096V69H49.7521V60.12H50.8441V65.34L53.3761 62.424H54.9001L51.8041 65.7L54.9121 69H53.4241ZM59.1919 62.304C59.6879 62.304 60.1359 62.412 60.5359 62.628C60.9359 62.836 61.2479 63.152 61.4719 63.576C61.7039 64 61.8199 64.516 61.8199 65.124V69H60.7399V65.28C60.7399 64.624 60.5759 64.124 60.2479 63.78C59.9199 63.428 59.4719 63.252 58.9039 63.252C58.3279 63.252 57.8679 63.432 57.5239 63.792C57.1879 64.152 57.0199 64.676 57.0199 65.364V69H55.9279V60.12H57.0199V63.36C57.2359 63.024 57.5319 62.764 57.9079 62.58C58.2919 62.396 58.7199 62.304 59.1919 62.304Z" fill="#515151"/>
<rect x="42" width="50" height="15" rx="2" fill="url(#paint0_linear_13_3088)"/>
<path d="M44.8182 5.56534V4.68182H49.4602V5.56534H47.6619V10.5H46.6165V5.56534H44.8182ZM49.8565 10.5V6.13636H50.8537V6.86364H50.8991C50.9787 6.61174 51.1151 6.41761 51.3082 6.28125C51.5033 6.14299 51.7259 6.07386 51.9759 6.07386C52.0327 6.07386 52.0961 6.0767 52.1662 6.08239C52.2382 6.08617 52.2978 6.0928 52.3452 6.10227V7.0483C52.3016 7.03314 52.2325 7.01989 52.1378 7.00852C52.045 6.99527 51.955 6.98864 51.8679 6.98864C51.6804 6.98864 51.5118 7.02936 51.3622 7.1108C51.2145 7.19034 51.098 7.30114 51.0128 7.44318C50.9276 7.58523 50.8849 7.74905 50.8849 7.93466V10.5H49.8565ZM54.7805 10.5852C54.343 10.5852 53.9652 10.4943 53.647 10.3125C53.3307 10.1288 53.0874 9.86932 52.9169 9.53409C52.7464 9.19697 52.6612 8.80019 52.6612 8.34375C52.6612 7.89489 52.7464 7.50095 52.9169 7.16193C53.0893 6.82102 53.3298 6.55587 53.6385 6.36648C53.9472 6.17519 54.3099 6.07955 54.7266 6.07955C54.9955 6.07955 55.2493 6.12311 55.4879 6.21023C55.7285 6.29545 55.9406 6.42803 56.1243 6.60795C56.3099 6.78788 56.4557 7.01705 56.5618 7.29545C56.6679 7.57197 56.7209 7.90152 56.7209 8.28409V8.59943H53.1442V7.90625H55.7351C55.7332 7.70928 55.6906 7.53409 55.6072 7.38068C55.5239 7.22538 55.4074 7.10322 55.2578 7.0142C55.1101 6.92519 54.9377 6.88068 54.7408 6.88068C54.5305 6.88068 54.3459 6.93182 54.1868 7.03409C54.0277 7.13447 53.9036 7.26705 53.8146 7.43182C53.7275 7.5947 53.683 7.77367 53.6811 7.96875V8.57386C53.6811 8.82765 53.7275 9.04545 53.8203 9.22727C53.9131 9.4072 54.0429 9.54545 54.2095 9.64205C54.3762 9.73674 54.5713 9.78409 54.7947 9.78409C54.9444 9.78409 55.0798 9.76326 55.201 9.72159C55.3222 9.67803 55.4273 9.61458 55.5163 9.53125C55.6054 9.44792 55.6726 9.3447 55.718 9.22159L56.6783 9.32955C56.6177 9.58333 56.5021 9.80492 56.3317 9.99432C56.1631 10.1818 55.9472 10.3277 55.6839 10.4318C55.4207 10.5341 55.1196 10.5852 54.7805 10.5852ZM58.6193 7.94318V10.5H57.5909V6.13636H58.5739V6.87784H58.625C58.7254 6.63352 58.8854 6.43939 59.1051 6.29545C59.3267 6.15152 59.6004 6.07955 59.9261 6.07955C60.2273 6.07955 60.4896 6.14394 60.7131 6.27273C60.9384 6.40152 61.1127 6.58807 61.2358 6.83239C61.3608 7.0767 61.4223 7.37311 61.4205 7.72159V10.5H60.392V7.88068C60.392 7.58902 60.3163 7.3608 60.1648 7.19602C60.0152 7.03125 59.8078 6.94886 59.5426 6.94886C59.3627 6.94886 59.2027 6.98864 59.0625 7.06818C58.9242 7.14583 58.8153 7.25852 58.7358 7.40625C58.6581 7.55398 58.6193 7.73295 58.6193 7.94318ZM64.0852 10.5767C63.7424 10.5767 63.4356 10.4886 63.1648 10.3125C62.8939 10.1364 62.6799 9.88068 62.5227 9.54545C62.3655 9.21023 62.2869 8.80303 62.2869 8.32386C62.2869 7.83902 62.3665 7.42992 62.5256 7.09659C62.6866 6.76136 62.9034 6.50852 63.1761 6.33807C63.4489 6.16572 63.7528 6.07955 64.0881 6.07955C64.3438 6.07955 64.554 6.12311 64.7188 6.21023C64.8835 6.29545 65.0142 6.39867 65.1108 6.51989C65.2074 6.6392 65.2822 6.75189 65.3352 6.85795H65.3778V4.68182H66.4091V10.5H65.3977V9.8125H65.3352C65.2822 9.91856 65.2055 10.0312 65.1051 10.1506C65.0047 10.268 64.8722 10.3684 64.7074 10.4517C64.5426 10.535 64.3352 10.5767 64.0852 10.5767ZM64.3722 9.73295C64.59 9.73295 64.7756 9.67424 64.929 9.55682C65.0824 9.4375 65.1989 9.27178 65.2784 9.05966C65.358 8.84754 65.3977 8.60038 65.3977 8.31818C65.3977 8.03598 65.358 7.79072 65.2784 7.58239C65.2008 7.37405 65.0852 7.21212 64.9318 7.09659C64.7803 6.98106 64.5938 6.9233 64.3722 6.9233C64.143 6.9233 63.9517 6.98295 63.7983 7.10227C63.6449 7.22159 63.5294 7.38636 63.4517 7.59659C63.3741 7.80682 63.3352 8.04735 63.3352 8.31818C63.3352 8.59091 63.3741 8.83428 63.4517 9.0483C63.5313 9.26042 63.6477 9.42803 63.8011 9.55114C63.9564 9.67235 64.1468 9.73295 64.3722 9.73295ZM67.505 10.5V6.13636H68.5334V10.5H67.505ZM68.022 5.51705C67.8591 5.51705 67.719 5.46307 67.6016 5.35511C67.4841 5.24526 67.4254 5.11364 67.4254 4.96023C67.4254 4.80492 67.4841 4.6733 67.6016 4.56534C67.719 4.45549 67.8591 4.40057 68.022 4.40057C68.1868 4.40057 68.3269 4.45549 68.4425 4.56534C68.5599 4.6733 68.6186 4.80492 68.6186 4.96023C68.6186 5.11364 68.5599 5.24526 68.4425 5.35511C68.3269 5.46307 68.1868 5.51705 68.022 5.51705ZM70.6193 7.94318V10.5H69.5909V6.13636H70.5739V6.87784H70.625C70.7254 6.63352 70.8854 6.43939 71.1051 6.29545C71.3267 6.15152 71.6004 6.07955 71.9261 6.07955C72.2273 6.07955 72.4896 6.14394 72.7131 6.27273C72.9384 6.40152 73.1127 6.58807 73.2358 6.83239C73.3608 7.0767 73.4223 7.37311 73.4205 7.72159V10.5H72.392V7.88068C72.392 7.58902 72.3163 7.3608 72.1648 7.19602C72.0152 7.03125 71.8078 6.94886 71.5426 6.94886C71.3627 6.94886 71.2027 6.98864 71.0625 7.06818C70.9242 7.14583 70.8153 7.25852 70.7358 7.40625C70.6581 7.55398 70.6193 7.73295 70.6193 7.94318ZM76.3636 12.2273C75.9943 12.2273 75.6771 12.1771 75.4119 12.0767C75.1468 11.9782 74.9337 11.8456 74.7727 11.679C74.6117 11.5123 74.5 11.3277 74.4375 11.125L75.3636 10.9006C75.4053 10.9858 75.4659 11.0701 75.5455 11.1534C75.625 11.2386 75.732 11.3087 75.8665 11.3636C76.0028 11.4205 76.1742 11.4489 76.3807 11.4489C76.6723 11.4489 76.9138 11.3778 77.1051 11.2358C77.2964 11.0956 77.392 10.8646 77.392 10.5426V9.71591H77.3409C77.2879 9.82197 77.2102 9.93087 77.108 10.0426C77.0076 10.1544 76.8741 10.2481 76.7074 10.3239C76.5426 10.3996 76.3352 10.4375 76.0852 10.4375C75.75 10.4375 75.446 10.3589 75.1733 10.2017C74.9025 10.0426 74.6866 9.80587 74.5256 9.49148C74.3665 9.17519 74.2869 8.77936 74.2869 8.30398C74.2869 7.82481 74.3665 7.42045 74.5256 7.09091C74.6866 6.75947 74.9034 6.50852 75.1761 6.33807C75.4489 6.16572 75.7528 6.07955 76.0881 6.07955C76.3438 6.07955 76.554 6.12311 76.7188 6.21023C76.8854 6.29545 77.018 6.39867 77.1165 6.51989C77.215 6.6392 77.2898 6.75189 77.3409 6.85795H77.3977V6.13636H78.4119V10.571C78.4119 10.9441 78.3229 11.2528 78.1449 11.4972C77.9669 11.7415 77.7235 11.9242 77.4148 12.0455C77.1061 12.1667 76.7557 12.2273 76.3636 12.2273ZM76.3722 9.63068C76.59 9.63068 76.7756 9.57765 76.929 9.47159C77.0824 9.36553 77.1989 9.21307 77.2784 9.0142C77.358 8.81534 77.3977 8.5767 77.3977 8.2983C77.3977 8.02367 77.358 7.78314 77.2784 7.5767C77.2008 7.37027 77.0852 7.21023 76.9318 7.09659C76.7803 6.98106 76.5938 6.9233 76.3722 6.9233C76.143 6.9233 75.9517 6.98295 75.7983 7.10227C75.6449 7.22159 75.5294 7.38542 75.4517 7.59375C75.3741 7.80019 75.3352 8.03504 75.3352 8.2983C75.3352 8.56534 75.3741 8.79924 75.4517 9C75.5313 9.19886 75.6477 9.35417 75.8011 9.46591C75.9564 9.57576 76.1468 9.63068 76.3722 9.63068Z" fill="white"/>
<path d="M85.6837 8.63462L85.6881 8.63768L85.6933 8.63875L85.6986 8.63768L85.703 8.63462L87.8784 6.39077C87.8907 6.37805 87.8908 6.36523 87.8786 6.35234L87.2364 5.68422C87.233 5.68063 87.2305 5.67617 87.2292 5.6713C87.2279 5.66642 87.2279 5.66128 87.2291 5.65639C87.2303 5.65149 87.2328 5.64701 87.2362 5.64337C87.2396 5.63972 87.2438 5.63705 87.2485 5.63561C87.9939 5.41129 88.7481 5.2003 89.5111 5.00262C89.5193 5.00041 89.5246 4.99948 89.5269 4.99982C89.5399 5.00118 89.545 5.00771 89.5424 5.01942C89.357 5.80656 89.1582 6.59015 88.9461 7.37017C88.938 7.40003 88.9232 7.40419 88.9017 7.38264L88.2373 6.71885C88.2329 6.71448 88.2271 6.71206 88.221 6.71211C88.215 6.71216 88.2092 6.71467 88.2049 6.7191C87.4791 7.46773 86.7523 8.21763 86.0243 8.96881C85.9098 9.0869 85.7938 9.27958 85.5976 9.19177C85.5673 9.17819 85.5266 9.14477 85.4754 9.09149C85.0905 8.69189 84.6997 8.28873 84.303 7.88201C84.2918 7.87064 84.2807 7.87064 84.2697 7.88201C83.721 8.44687 83.1702 9.0153 82.6175 9.58729C82.5399 9.66772 82.4825 9.71752 82.4455 9.7367C82.2199 9.85301 82.0119 9.54326 82.1947 9.35466C82.8144 8.71598 83.4337 8.07688 84.0525 7.43736C84.1549 7.33173 84.2302 7.26403 84.3675 7.3129C84.4027 7.32545 84.442 7.35455 84.4854 7.4002C84.8825 7.81659 85.2819 8.22807 85.6837 8.63462Z" fill="white" stroke="white" stroke-width="0.212551"/>
<defs>
<linearGradient id="paint0_linear_13_3088" x1="41.5337" y1="5.28912" x2="92.4603" y2="9.77917" gradientUnits="userSpaceOnUse">
<stop stop-color="#C4242B"/>
<stop offset="1" stop-color="#E14249"/>
</linearGradient>
</defs>
</svg>
