<svg width="440" height="115" viewBox="0 0 440 115" fill="none" xmlns="http://www.w3.org/2000/svg">
<g clip-path="url(#clip0_293_188)">
<path d="M159.311 52.0154H177.744V58.9076H159.311V52.0154ZM159.967 67.769H180.808V74.88H151.16V36.59H180.097V43.701H159.967V67.769ZM183.108 74.88L199.573 52.1795V58.6341L183.82 36.59H193.884L204.77 51.9607L200.558 52.0154L211.279 36.59H220.906L205.262 58.2512V51.906L221.836 74.88H211.607L200.339 58.6341H204.387L193.283 74.88H183.108ZM225.304 74.88V36.59H241.878C245.306 36.59 248.26 37.1552 250.74 38.2857C253.22 39.3797 255.134 40.966 256.483 43.0446C257.833 45.1232 258.507 47.6029 258.507 50.4838C258.507 53.3282 257.833 55.7897 256.483 57.8683C255.134 59.9469 253.22 61.5514 250.74 62.6819C248.26 63.7759 245.306 64.3229 241.878 64.3229H230.227L234.166 60.3298V74.88H225.304ZM234.166 61.3144L230.227 57.1025H241.386C244.121 57.1025 246.163 56.519 247.513 55.3521C248.862 54.1852 249.536 52.5624 249.536 50.4838C249.536 48.3687 248.862 46.7277 247.513 45.5608C246.163 44.3939 244.121 43.8104 241.386 43.8104H230.227L234.166 39.5985V61.3144ZM264.834 74.88V36.59H273.695V67.6596H292.895V74.88H264.834ZM315.803 75.5364C312.776 75.5364 309.968 75.0441 307.379 74.0595C304.826 73.0749 302.602 71.6892 300.706 69.9023C298.846 68.1154 297.387 66.0186 296.33 63.6118C295.309 61.205 294.798 58.5794 294.798 55.735C294.798 52.8906 295.309 50.265 296.33 47.8582C297.387 45.4514 298.864 43.3546 300.76 41.5677C302.657 39.7808 304.881 38.3951 307.434 37.4105C309.987 36.4259 312.758 35.9336 315.748 35.9336C318.775 35.9336 321.546 36.4259 324.063 37.4105C326.615 38.3951 328.822 39.7808 330.681 41.5677C332.578 43.3546 334.055 45.4514 335.112 47.8582C336.17 50.2285 336.698 52.8541 336.698 55.735C336.698 58.5794 336.17 61.2232 335.112 63.6665C334.055 66.0733 332.578 68.1701 330.681 69.957C328.822 71.7074 326.615 73.0749 324.063 74.0595C321.546 75.0441 318.793 75.5364 315.803 75.5364ZM315.748 67.9878C317.462 67.9878 319.03 67.6961 320.452 67.1126C321.911 66.5291 323.187 65.6904 324.281 64.5964C325.375 63.5024 326.214 62.2078 326.798 60.7127C327.418 59.2176 327.728 57.5583 327.728 55.735C327.728 53.9117 327.418 52.2524 326.798 50.7573C326.214 49.2622 325.375 47.9676 324.281 46.8736C323.224 45.7796 321.966 44.9409 320.507 44.3574C319.048 43.7739 317.462 43.4822 315.748 43.4822C314.034 43.4822 312.448 43.7739 310.989 44.3574C309.567 44.9409 308.309 45.7796 307.215 46.8736C306.121 47.9676 305.264 49.2622 304.644 50.7573C304.061 52.2524 303.769 53.9117 303.769 55.735C303.769 57.5219 304.061 59.1811 304.644 60.7127C305.264 62.2078 306.103 63.5024 307.16 64.5964C308.254 65.6904 309.531 66.5291 310.989 67.1126C312.448 67.6961 314.034 67.9878 315.748 67.9878ZM343.358 74.88V36.59H359.932C363.36 36.59 366.314 37.1552 368.794 38.2857C371.273 39.3797 373.188 40.966 374.537 43.0446C375.886 45.1232 376.561 47.6029 376.561 50.4838C376.561 53.3282 375.886 55.7897 374.537 57.8683C373.188 59.9104 371.273 61.4785 368.794 62.5725C366.314 63.6665 363.36 64.2135 359.932 64.2135H348.281L352.219 60.3298V74.88H343.358ZM367.7 74.88L358.127 60.9862H367.59L377.272 74.88H367.7ZM352.219 61.3144L348.281 57.1572H359.44C362.175 57.1572 364.217 56.5737 365.566 55.4068C366.916 54.2034 367.59 52.5624 367.59 50.4838C367.59 48.3687 366.916 46.7277 365.566 45.5608C364.217 44.3939 362.175 43.8104 359.44 43.8104H348.281L352.219 39.5985V61.3144ZM383.582 74.88V36.59H392.443V74.88H383.582ZM396.498 74.88L413.564 36.59H422.316L439.437 74.88H430.138L416.135 41.0754H419.636L405.578 74.88H396.498ZM405.031 66.675L407.383 59.9469H427.075L429.482 66.675H405.031Z" fill="#110200"/>
<path d="M155.646 101.144C154.288 101.144 153.226 100.766 152.461 100.009C151.695 99.253 151.313 98.1731 151.313 96.7697V91.411H153.527V96.6876C153.527 97.599 153.714 98.2551 154.088 98.6561C154.461 99.0571 154.985 99.2576 155.66 99.2576C156.334 99.2576 156.858 99.0571 157.232 98.6561C157.605 98.2551 157.792 97.599 157.792 96.6876V91.411H159.979V96.7697C159.979 98.1731 159.597 99.253 158.831 100.009C158.066 100.766 157.004 101.144 155.646 101.144ZM162.168 100.98V91.411H164L169.645 98.3007H168.757V91.411H170.944V100.98H169.126L163.466 94.0903H164.355V100.98H162.168ZM175.258 95.7171H179.852V97.4942H175.258V95.7171ZM175.422 100.98H173.208V91.411H180.439V93.1881H175.422V100.98ZM186.493 101.144C185.736 101.144 185.035 101.021 184.388 100.775C183.75 100.529 183.194 100.183 182.72 99.736C182.255 99.2895 181.891 98.7655 181.626 98.164C181.371 97.5625 181.244 96.9064 181.244 96.1955C181.244 95.4847 181.371 94.8285 181.626 94.227C181.891 93.6256 182.26 93.1015 182.734 92.655C183.208 92.2084 183.763 91.8621 184.401 91.6161C185.039 91.37 185.732 91.247 186.479 91.247C187.236 91.247 187.928 91.37 188.557 91.6161C189.195 91.8621 189.746 92.2084 190.211 92.655C190.685 93.1015 191.054 93.6256 191.318 94.227C191.583 94.8194 191.715 95.4756 191.715 96.1955C191.715 96.9064 191.583 97.5671 191.318 98.1777C191.054 98.7791 190.685 99.3032 190.211 99.7497C189.746 100.187 189.195 100.529 188.557 100.775C187.928 101.021 187.24 101.144 186.493 101.144ZM186.479 99.2576C186.908 99.2576 187.299 99.1847 187.655 99.0389C188.019 98.8931 188.338 98.6835 188.612 98.4101C188.885 98.1367 189.095 97.8131 189.241 97.4395C189.395 97.0658 189.473 96.6512 189.473 96.1955C189.473 95.7398 189.395 95.3252 189.241 94.9515C189.095 94.5779 188.885 94.2544 188.612 93.981C188.347 93.7076 188.033 93.498 187.668 93.3522C187.304 93.2063 186.908 93.1334 186.479 93.1334C186.051 93.1334 185.654 93.2063 185.29 93.3522C184.934 93.498 184.62 93.7076 184.347 93.981C184.073 94.2544 183.859 94.5779 183.704 94.9515C183.558 95.3252 183.485 95.7398 183.485 96.1955C183.485 96.6421 183.558 97.0567 183.704 97.4395C183.859 97.8131 184.069 98.1367 184.333 98.4101C184.606 98.6835 184.925 98.8931 185.29 99.0389C185.654 99.1847 186.051 99.2576 186.479 99.2576ZM193.379 100.98V91.411H197.521C198.378 91.411 199.116 91.5523 199.736 91.8348C200.355 92.1082 200.834 92.5046 201.171 93.0241C201.508 93.5435 201.677 94.1632 201.677 94.8832C201.677 95.594 201.508 96.2092 201.171 96.7286C200.834 97.239 200.355 97.6309 199.736 97.9043C199.116 98.1777 198.378 98.3144 197.521 98.3144H194.609L195.594 97.3438V100.98H193.379ZM199.462 100.98L197.07 97.5078H199.435L201.855 100.98H199.462ZM195.594 97.5899L194.609 96.5509H197.398C198.082 96.5509 198.592 96.4051 198.929 96.1135C199.266 95.8128 199.435 95.4027 199.435 94.8832C199.435 94.3546 199.266 93.9445 198.929 93.6529C198.592 93.3613 198.082 93.2155 197.398 93.2155H194.609L195.594 92.1629V97.5899ZM208.052 101.144C207.295 101.144 206.598 101.026 205.96 100.789C205.332 100.543 204.78 100.196 204.306 99.7497C203.841 99.3032 203.477 98.7791 203.213 98.1777C202.958 97.5762 202.83 96.9155 202.83 96.1955C202.83 95.4756 202.958 94.8148 203.213 94.2134C203.477 93.6119 203.846 93.0879 204.32 92.6413C204.794 92.1948 205.35 91.853 205.988 91.6161C206.626 91.37 207.327 91.247 208.093 91.247C208.94 91.247 209.701 91.3882 210.376 91.6707C211.059 91.9533 211.633 92.3634 212.098 92.901L210.676 94.2134C210.33 93.8488 209.952 93.58 209.542 93.4068C209.132 93.2246 208.685 93.1334 208.202 93.1334C207.737 93.1334 207.314 93.2063 206.931 93.3522C206.548 93.498 206.216 93.7076 205.933 93.981C205.66 94.2544 205.445 94.5779 205.291 94.9515C205.145 95.3252 205.072 95.7398 205.072 96.1955C205.072 96.6421 205.145 97.0522 205.291 97.4258C205.445 97.7995 205.66 98.1275 205.933 98.4101C206.216 98.6835 206.544 98.8931 206.917 99.0389C207.3 99.1847 207.719 99.2576 208.175 99.2576C208.612 99.2576 209.036 99.1892 209.446 99.0525C209.865 98.9067 210.271 98.6652 210.663 98.328L211.92 99.9274C211.401 100.319 210.795 100.62 210.102 100.83C209.419 101.039 208.735 101.144 208.052 101.144ZM209.897 99.6404V96.0451H211.92V99.9274L209.897 99.6404ZM216.014 95.266H220.621V96.9884H216.014V95.266ZM216.178 99.2029H221.387V100.98H213.978V91.411H221.209V93.1881H216.178V99.2029ZM225.131 100.98V93.2155H222.069V91.411H230.408V93.2155H227.345V100.98H225.131ZM233.715 100.98V93.2155H230.653V91.411H238.991V93.2155H235.929V100.98H233.715ZM238.445 100.98L242.71 91.411H244.897L249.176 100.98H246.852L243.352 92.532H244.227L240.714 100.98H238.445ZM240.577 98.9295L241.165 97.2481H246.086L246.688 98.9295H240.577ZM250.168 100.98V91.411H254.844C256.046 91.411 256.949 91.6388 257.55 92.0945C258.161 92.5502 258.466 93.1517 258.466 93.899C258.466 94.4002 258.343 94.8376 258.097 95.2113C257.851 95.5758 257.514 95.8583 257.085 96.0588C256.657 96.2593 256.165 96.3596 255.609 96.3596L255.869 95.7991C256.47 95.7991 257.003 95.8993 257.468 96.0998C257.933 96.2912 258.293 96.5783 258.548 96.961C258.812 97.3438 258.945 97.8131 258.945 98.369C258.945 99.1892 258.621 99.8317 257.974 100.297C257.327 100.752 256.375 100.98 255.117 100.98H250.168ZM252.369 99.3123H254.953C255.527 99.3123 255.96 99.2211 256.252 99.0389C256.552 98.8475 256.703 98.5468 256.703 98.1367C256.703 97.7357 256.552 97.4395 256.252 97.2481C255.96 97.0476 255.527 96.9474 254.953 96.9474H252.205V95.3343H254.57C255.108 95.3343 255.518 95.2432 255.8 95.0609C256.092 94.8695 256.238 94.5825 256.238 94.1997C256.238 93.826 256.092 93.5481 255.8 93.3658C255.518 93.1744 255.108 93.0788 254.57 93.0788H252.369V99.3123ZM260.621 100.98V91.411H262.836V99.1756H267.634V100.98H260.621ZM270.908 95.266H275.515V96.9884H270.908V95.266ZM271.072 99.2029H276.28V100.98H268.871V91.411H276.103V93.1881H271.072V99.2029ZM283.677 101.144C283.03 101.144 282.433 101.026 281.886 100.789C281.349 100.543 280.907 100.196 280.56 99.7497L281.791 98.2734C282.055 98.6197 282.333 98.8839 282.625 99.0662C282.916 99.2394 283.231 99.3259 283.568 99.3259C284.47 99.3259 284.921 98.7974 284.921 97.7402V93.1881H281.558V91.411H287.122V97.6172C287.122 98.8019 286.83 99.6859 286.247 100.269C285.664 100.852 284.807 101.144 283.677 101.144ZM293.957 101.144C293.201 101.144 292.499 101.021 291.852 100.775C291.214 100.529 290.658 100.183 290.184 99.736C289.72 99.2895 289.355 98.7655 289.091 98.164C288.836 97.5625 288.708 96.9064 288.708 96.1955C288.708 95.4847 288.836 94.8285 289.091 94.227C289.355 93.6256 289.724 93.1015 290.198 92.655C290.672 92.2084 291.228 91.8621 291.866 91.6161C292.504 91.37 293.196 91.247 293.944 91.247C294.7 91.247 295.393 91.37 296.021 91.6161C296.659 91.8621 297.211 92.2084 297.675 92.655C298.149 93.1015 298.518 93.6256 298.783 94.227C299.047 94.8194 299.179 95.4756 299.179 96.1955C299.179 96.9064 299.047 97.5671 298.783 98.1777C298.518 98.7791 298.149 99.3032 297.675 99.7497C297.211 100.187 296.659 100.529 296.021 100.775C295.393 101.021 294.705 101.144 293.957 101.144ZM293.944 99.2576C294.372 99.2576 294.764 99.1847 295.119 99.0389C295.484 98.8931 295.803 98.6835 296.076 98.4101C296.349 98.1367 296.559 97.8131 296.705 97.4395C296.86 97.0658 296.937 96.6512 296.937 96.1955C296.937 95.7398 296.86 95.3252 296.705 94.9515C296.559 94.5779 296.349 94.2544 296.076 93.981C295.812 93.7076 295.497 93.498 295.133 93.3522C294.768 93.2063 294.372 93.1334 293.944 93.1334C293.515 93.1334 293.119 93.2063 292.754 93.3522C292.399 93.498 292.084 93.7076 291.811 93.981C291.538 94.2544 291.323 94.5779 291.169 94.9515C291.023 95.3252 290.95 95.7398 290.95 96.1955C290.95 96.6421 291.023 97.0567 291.169 97.4395C291.323 97.8131 291.533 98.1367 291.797 98.4101C292.071 98.6835 292.39 98.8931 292.754 99.0389C293.119 99.1847 293.515 99.2576 293.944 99.2576ZM305.095 101.144C303.737 101.144 302.675 100.766 301.91 100.009C301.144 99.253 300.761 98.1731 300.761 96.7697V91.411H302.976V96.6876C302.976 97.599 303.163 98.2551 303.536 98.6561C303.91 99.0571 304.434 99.2576 305.109 99.2576C305.783 99.2576 306.307 99.0571 306.681 98.6561C307.054 98.2551 307.241 97.599 307.241 96.6876V91.411H309.428V96.7697C309.428 98.1731 309.046 99.253 308.28 100.009C307.514 100.766 306.453 101.144 305.095 101.144ZM311.617 100.98V91.411H315.759C316.615 91.411 317.353 91.5523 317.973 91.8348C318.593 92.1082 319.071 92.5046 319.409 93.0241C319.746 93.5435 319.914 94.1632 319.914 94.8832C319.914 95.594 319.746 96.2092 319.409 96.7286C319.071 97.239 318.593 97.6309 317.973 97.9043C317.353 98.1777 316.615 98.3144 315.759 98.3144H312.847L313.831 97.3438V100.98H311.617ZM317.7 100.98L315.308 97.5078H317.672L320.092 100.98H317.7ZM313.831 97.5899L312.847 96.5509H315.636C316.319 96.5509 316.829 96.4051 317.167 96.1135C317.504 95.8128 317.672 95.4027 317.672 94.8832C317.672 94.3546 317.504 93.9445 317.167 93.6529C316.829 93.3613 316.319 93.2155 315.636 93.2155H312.847L313.831 92.1629V97.5899ZM321.669 100.98V91.411H323.501L329.146 98.3007H328.258V91.411H330.445V100.98H328.627L322.968 94.0903H323.856V100.98H321.669ZM334.746 95.266H339.353V96.9884H334.746V95.266ZM334.91 99.2029H340.118V100.98H332.709V91.411H339.94V93.1881H334.91V99.2029ZM344.165 100.98V97.0704L344.671 98.4101L340.461 91.411H342.812L346.038 96.7833H344.685L347.925 91.411H350.098L345.888 98.4101L346.38 97.0704V100.98H344.165ZM351.16 101.089C350.796 101.089 350.481 100.966 350.217 100.72C349.962 100.465 349.834 100.142 349.834 99.7497C349.834 99.3578 349.962 99.0434 350.217 98.8065C350.481 98.5604 350.796 98.4374 351.16 98.4374C351.534 98.4374 351.848 98.5604 352.103 98.8065C352.359 99.0434 352.486 99.3578 352.486 99.7497C352.486 100.142 352.359 100.465 352.103 100.72C351.848 100.966 351.534 101.089 351.16 101.089Z" fill="#110200"/>
<path d="M110.96 46.02C109.36 47.69 107.74 49.34 106.08 50.97C84.12 72.64 56.78 91.57 24.82 105.61C9.85 95.51 0 78.38 0 58.96C0 58.36 0 57.76 0.03 57.16C0.23 50.92 1.44 44.94 3.51 39.37C9.19 24.08 21.34 11.92 36.64 6.23999C42.74 3.96999 49.34 2.73999 56.22 2.73999C82.82 2.73999 105.11 21.21 110.95 46.03L110.96 46.02Z" fill="#F9532C"/>
<path d="M48.24 26.85C48.24 40.17 37.44 50.97 24.12 50.97C15.39 50.97 7.74001 46.33 3.51001 39.38C9.19001 24.08 21.34 11.92 36.64 6.23999C43.59 10.47 48.23 18.12 48.23 26.85H48.24Z" fill="#FFCC00"/>
<path d="M106.08 50.97C84.12 72.64 56.78 91.57 24.82 105.61C9.85 95.51 0 78.38 0 58.96C0 58.36 0 57.76 0.03 57.16H18.92L24.25 65.03H16.91V75H27.52V40.32H39.42V68.16H45.75V50.96H106.07L106.08 50.97Z" fill="#D61E00"/>
<path d="M87.7501 105.53C85.3201 107.18 82.7501 108.65 80.0601 109.9C75.4201 109.29 70.7801 112.91 66.1401 114.31C64.9101 114.53 63.6701 114.71 62.4101 114.84C60.5801 114.75 58.7501 114.05 56.9201 112.34C51.6701 107.44 46.4301 110.81 41.1801 113.14C39.4601 112.67 37.7801 112.11 36.1301 111.48C33.6401 110.52 31.2401 109.4 28.9301 108.12C28.9101 108.11 28.8901 108.09 28.8601 108.08C28.8801 108.07 28.9001 108.06 28.9301 108.05C30.4201 107.38 31.9101 106.7 33.3801 106C41.2201 107.45 49.0701 96.29 56.9101 103.62C66.2401 112.34 75.5701 94.9 84.8901 103.62C85.8401 104.51 86.7901 105.12 87.7301 105.52L87.7501 105.53Z" fill="#D61E00"/>
<path d="M106.74 83.7C104.84 87.57 102.51 91.19 99.81 94.5C94.84 96.79 89.87 99.57 84.9 94.92C75.57 86.2 66.24 103.64 56.92 94.92C56.61 94.62 56.29 94.36 55.97 94.13C59.14 92.28 62.26 90.37 65.34 88.4C71.86 86.8 78.39 80.12 84.91 86.21C92.19 93.01 99.46 83.89 106.74 83.7Z" fill="#D61E00"/>
<path d="M111.76 67.86C111.34 70.5 110.74 73.07 109.97 75.57C101.62 72.14 93.26 85.31 84.91 77.5C84.28 76.91 83.65 76.45 83.02 76.08C85.15 74.47 87.25 72.83 89.32 71.16C96.8 72.57 104.28 62.49 111.75 67.85L111.76 67.86Z" fill="#D61E00"/>
<path d="M112.45 58.96V59.37C112.45 59.48 112.45 59.59 112.45 59.69C109.83 57.46 107.2 57.24 104.58 57.86C107.06 55.52 109.48 53.14 111.86 50.71C112.25 53.4 112.46 56.15 112.46 58.95L112.45 58.96Z" fill="#D61E00"/>
<path d="M38.07 37.18H29.3V39H38.07V37.18Z" fill="#D61E00"/>
<path d="M33.6899 23.87C33.1399 23.87 32.6899 24.32 32.6899 24.87V36.09H34.6899V24.87C34.6899 24.32 34.2399 23.87 33.6899 23.87Z" fill="#D61E00"/>
<path d="M79.78 16.7C88.5 16.71 97.32 16.22 106.19 15.19C110.43 22.83 114.84 30.39 119.44 37.86C90.79 70.52 50.65 98.34 1.30005 114.86C37.1101 86.59 63.49 52.41 79.78 16.7Z" fill="#FFCC00"/>
<path d="M20.8999 103.28C47.0799 79.14 69.5899 47.64 83.8199 17.32C91.0499 17.25 96.8199 20.12 104.05 19.37C107.45 25.43 113.22 29.14 116.84 35.09C91.7399 63.01 57.4599 87.84 20.9099 103.28H20.8999Z" fill="#FFB200"/>
<path d="M121.34 34.8C120.72 35.82 120.09 36.84 119.45 37.86C115.03 33.23 110.78 28.5 106.69 23.68C106.63 23.78 106.58 23.87 106.52 23.96C103.73 28.6 96.11 35.84 96.03 35.84C96.75 37.52 97.48 39.21 98.22 40.89C97.38 42.03 96.5201 43.17 95.66 44.3C93.92 42.7 92.21 41.09 90.52 39.46C88.11 38.76 85.73 38.03 83.37 37.27C84.24 36.18 85.1 35.09 85.95 33.99C87.99 33.91 90.04 33.79 92.09 33.65C92.13 33.65 96.16 24.56 98.99 20.05C99.05 19.96 99.1101 19.87 99.16 19.78C92.57 19.03 86.11 18 79.8 16.7C80.46 15.79 81.11 14.89 81.75 13.98C81.75 13.98 83.65 11.28 87.36 11.67C90.07 12.01 99.33 11.91 104.18 11.53C106.24 8.00001 107.87 4.90001 107.88 4.90001C107.92 4.90001 111.71 -1.25999 114.87 0.210006C115.48 0.490006 115.88 0.940006 116.12 1.51001C117.19 3.99001 115.39 8.48001 115.35 8.48001C115.35 8.48001 113.73 11.64 111.69 15.25C114.11 19.22 119.05 26.77 120.8 28.85C123.18 31.71 121.36 34.78 121.35 34.78L121.34 34.8Z" fill="url(#paint0_linear_293_188)"/>
<path d="M121.34 34.8C120.72 35.82 120.09 36.84 119.45 37.86C115.03 33.23 110.78 28.5 106.69 23.68C106.63 23.78 106.58 23.87 106.52 23.96C103.73 28.6 96.11 35.84 96.03 35.84C96.75 37.52 97.48 39.21 98.22 40.89C97.38 42.03 96.52 43.17 95.66 44.3C93.92 42.7 92.21 41.09 90.52 39.46L114.85 0.230011L116.1 1.53001C117.17 4.01001 115.37 8.50001 115.33 8.50001C115.33 8.50001 113.71 11.66 111.67 15.27C114.09 19.24 119.03 26.79 120.78 28.87C123.16 31.73 121.34 34.8 121.33 34.8H121.34Z" fill="#F9532C"/>
<path d="M83.3 15.15C84.05 14.1 85.35 13.43 86.69 13.41L90.55 13.3C93.12 13.24 95.7 13.2 98.27 13.15L102.12 13.08C102.76 13.06 103.41 13.05 104.03 13.01H104.26C104.32 12.99 104.38 12.98 104.44 12.97C104.56 12.95 104.67 12.91 104.78 12.86C105 12.76 105.19 12.6 105.33 12.4L107.23 9.11C107.87 8 108.54 6.9 109.2 5.79L109.22 5.76C109.52 5.36 109.83 4.95 110.16 4.56C110.49 4.17 110.84 3.8 111.2 3.45C111.57 3.1 111.96 2.77 112.38 2.49C112.59 2.35 112.81 2.22 113.05 2.12C113.28 2.02 113.53 1.93 113.78 1.94C113.53 1.97 113.31 2.09 113.1 2.22C112.89 2.35 112.7 2.5 112.51 2.66C112.14 2.98 111.8 3.34 111.48 3.72C111.16 4.1 110.87 4.49 110.58 4.89C110.29 5.29 110.03 5.7 109.76 6.13L109.78 6.09C109.19 7.23 108.6 8.38 107.99 9.52L107.08 11.23L106.61 12.08L106.38 12.5L106.26 12.71C106.22 12.78 106.16 12.88 106.1 12.96C105.87 13.29 105.55 13.55 105.19 13.73C105.01 13.82 104.82 13.88 104.62 13.92C104.52 13.94 104.42 13.95 104.32 13.96H104.07C103.41 14.01 102.77 14.02 102.12 14.03C100.83 14.05 99.54 14.06 98.25 14.05C95.67 14.04 93.1 13.99 90.52 13.91C89.23 13.87 87.94 13.82 86.66 13.76C85.42 13.69 84.14 14.18 83.27 15.13L83.3 15.15Z" fill="white"/>
</g>
<defs>
<linearGradient id="paint0_linear_293_188" x1="84.37" y1="21.21" x2="110.04" y2="22.39" gradientUnits="userSpaceOnUse">
<stop stop-color="#D61E00"/>
<stop offset="1" stop-color="#F9532C"/>
</linearGradient>
<clipPath id="clip0_293_188">
<rect width="439.41" height="114.86" fill="white"/>
</clipPath>
</defs>
</svg>
