<svg width="268" height="70" viewBox="0 0 268 70" fill="none" xmlns="http://www.w3.org/2000/svg">
<g clip-path="url(#clip0_424_3664)">
<path d="M97.1598 31.3999H108.394V35.6003H97.1598V31.3999ZM97.5598 41.0008H110.261V45.3345H92.1927V21.9991H109.828V26.3328H97.5598V41.0008ZM111.663 45.3345L121.697 31.4999V35.4336L112.097 21.9991H118.23L124.864 31.3666L122.297 31.3999L128.831 21.9991H134.698L125.164 35.2003V31.3333L135.265 45.3345H129.031L122.164 35.4336H124.631L117.864 45.3345H111.663ZM137.379 45.3345V21.9991H147.48C149.569 21.9991 151.369 22.3436 152.88 23.0325C154.392 23.6993 155.558 24.666 156.381 25.9328C157.203 27.1996 157.614 28.7108 157.614 30.4665C157.614 32.2 157.203 33.7001 156.381 34.9669C155.558 36.2337 154.392 37.2115 152.88 37.9005C151.369 38.5672 149.569 38.9006 147.48 38.9006H140.379L142.779 36.467V45.3345H137.379ZM142.779 37.0671L140.379 34.5002H147.18C148.847 34.5002 150.091 34.1446 150.913 33.4334C151.736 32.7223 152.147 31.7333 152.147 30.4665C152.147 29.1775 151.736 28.1774 150.913 27.4663C150.091 26.7551 148.847 26.3995 147.18 26.3995H140.379L142.779 23.8326V37.0671ZM161.47 45.3345V21.9991H166.87V40.9341H178.571V45.3345H161.47ZM192.532 45.7345C190.688 45.7345 188.976 45.4345 187.398 44.8344C185.843 44.2344 184.487 43.3899 183.331 42.3009C182.198 41.2119 181.309 39.934 180.664 38.4672C180.042 37.0004 179.731 35.4003 179.731 33.6668C179.731 31.9333 180.042 30.3332 180.664 28.8664C181.309 27.3996 182.209 26.1217 183.365 25.0327C184.52 23.9437 185.876 23.0992 187.432 22.4991C188.987 21.8991 190.676 21.5991 192.499 21.5991C194.343 21.5991 196.032 21.8991 197.566 22.4991C199.122 23.0992 200.466 23.9437 201.6 25.0327C202.755 26.1217 203.655 27.3996 204.3 28.8664C204.944 30.3109 205.267 31.9111 205.267 33.6668C205.267 35.4003 204.944 37.0115 204.3 38.5005C203.655 39.9673 202.755 41.2452 201.6 42.3342C200.466 43.401 199.122 44.2344 197.566 44.8344C196.032 45.4345 194.355 45.7345 192.532 45.7345ZM192.499 41.1341C193.543 41.1341 194.499 40.9563 195.366 40.6007C196.255 40.2451 197.033 39.734 197.699 39.0673C198.366 38.4005 198.877 37.6116 199.233 36.7004C199.611 35.7892 199.799 34.778 199.799 33.6668C199.799 32.5556 199.611 31.5444 199.233 30.6332C198.877 29.722 198.366 28.933 197.699 28.2663C197.055 27.5996 196.288 27.0884 195.399 26.7329C194.51 26.3773 193.543 26.1995 192.499 26.1995C191.454 26.1995 190.488 26.3773 189.599 26.7329C188.732 27.0884 187.965 27.5996 187.298 28.2663C186.632 28.933 186.109 29.722 185.732 30.6332C185.376 31.5444 185.198 32.5556 185.198 33.6668C185.198 34.7558 185.376 35.767 185.732 36.7004C186.109 37.6116 186.621 38.4005 187.265 39.0673C187.932 39.734 188.71 40.2451 189.599 40.6007C190.488 40.9563 191.454 41.1341 192.499 41.1341ZM209.325 45.3345V21.9991H219.426C221.515 21.9991 223.315 22.3436 224.827 23.0325C226.338 23.6993 227.505 24.666 228.327 25.9328C229.149 27.1996 229.56 28.7108 229.56 30.4665C229.56 32.2 229.149 33.7001 228.327 34.9669C227.505 36.2115 226.338 37.1671 224.827 37.8338C223.315 38.5005 221.515 38.8339 219.426 38.8339H212.326L214.726 36.467V45.3345H209.325ZM224.16 45.3345L218.326 36.8671H224.093L229.994 45.3345H224.16ZM214.726 37.0671L212.326 34.5335H219.126C220.793 34.5335 222.037 34.1779 222.86 33.4668C223.682 32.7334 224.093 31.7333 224.093 30.4665C224.093 29.1775 223.682 28.1774 222.86 27.4663C222.037 26.7551 220.793 26.3995 219.126 26.3995H212.326L214.726 23.8326V37.0671ZM233.839 45.3345V21.9991H239.24V45.3345H233.839ZM241.711 45.3345L252.112 21.9991H257.445L267.88 45.3345H262.212L253.678 24.7327H255.812L247.244 45.3345H241.711ZM246.911 40.334L248.345 36.2337H260.346L261.812 40.334H246.911Z" fill="white"/>
<path d="M94.927 61.7181C94.0994 61.7181 93.4524 61.4876 92.9858 61.0267C92.5193 60.5657 92.286 59.9075 92.286 59.0522V55.7865H93.6356V59.0022C93.6356 59.5576 93.7495 59.9575 93.9772 60.2019C94.2049 60.4463 94.5243 60.5685 94.9353 60.5685C95.3463 60.5685 95.6656 60.4463 95.8933 60.2019C96.1211 59.9575 96.2349 59.5576 96.2349 59.0022V55.7865H97.5679V59.0522C97.5679 59.9075 97.3346 60.5657 96.8681 61.0267C96.4015 61.4876 95.7545 61.7181 94.927 61.7181ZM98.9016 61.6182V55.7865H100.018L103.459 59.9853H102.917V55.7865H104.25V61.6182H103.142L99.693 57.4193H100.235V61.6182H98.9016ZM106.879 58.4107H109.679V59.4938H106.879V58.4107ZM106.979 61.6182H105.63V55.7865H110.037V56.8695H106.979V61.6182ZM113.726 61.7181C113.265 61.7181 112.838 61.6432 112.443 61.4932C112.054 61.3432 111.716 61.1322 111.427 60.86C111.144 60.5879 110.921 60.2685 110.76 59.902C110.605 59.5354 110.527 59.1355 110.527 58.7023C110.527 58.2691 110.605 57.8692 110.76 57.5026C110.921 57.1361 111.146 56.8167 111.435 56.5446C111.724 56.2724 112.063 56.0614 112.452 55.9114C112.84 55.7615 113.262 55.6865 113.718 55.6865C114.179 55.6865 114.601 55.7615 114.984 55.9114C115.373 56.0614 115.709 56.2724 115.992 56.5446C116.281 56.8167 116.506 57.1361 116.667 57.5026C116.828 57.8637 116.909 58.2635 116.909 58.7023C116.909 59.1355 116.828 59.5382 116.667 59.9103C116.506 60.2769 116.281 60.5962 115.992 60.8684C115.709 61.135 115.373 61.3432 114.984 61.4932C114.601 61.6432 114.182 61.7181 113.726 61.7181ZM113.718 60.5685C113.979 60.5685 114.218 60.524 114.434 60.4352C114.656 60.3463 114.851 60.2186 115.018 60.0519C115.184 59.8853 115.312 59.6881 115.401 59.4604C115.495 59.2327 115.542 58.98 115.542 58.7023C115.542 58.4246 115.495 58.1719 115.401 57.9442C115.312 57.7165 115.184 57.5193 115.018 57.3527C114.856 57.1861 114.665 57.0583 114.443 56.9695C114.221 56.8806 113.979 56.8362 113.718 56.8362C113.457 56.8362 113.215 56.8806 112.993 56.9695C112.776 57.0583 112.585 57.1861 112.418 57.3527C112.252 57.5193 112.121 57.7165 112.027 57.9442C111.938 58.1719 111.893 58.4246 111.893 58.7023C111.893 58.9745 111.938 59.2272 112.027 59.4604C112.121 59.6881 112.249 59.8853 112.41 60.0519C112.577 60.2186 112.771 60.3463 112.993 60.4352C113.215 60.524 113.457 60.5685 113.718 60.5685ZM117.923 61.6182V55.7865H120.447C120.969 55.7865 121.419 55.8725 121.797 56.0447C122.175 56.2113 122.466 56.4529 122.672 56.7695C122.877 57.0861 122.98 57.4638 122.98 57.9025C122.98 58.3357 122.877 58.7106 122.672 59.0272C122.466 59.3382 122.175 59.5771 121.797 59.7437C121.419 59.9103 120.969 59.9936 120.447 59.9936H118.673L119.273 59.4021V61.6182H117.923ZM121.63 61.6182L120.172 59.5021H121.614L123.088 61.6182H121.63ZM119.273 59.5521L118.673 58.9189H120.372C120.789 58.9189 121.1 58.8301 121.305 58.6523C121.511 58.469 121.614 58.2191 121.614 57.9025C121.614 57.5804 121.511 57.3305 121.305 57.1527C121.1 56.975 120.789 56.8861 120.372 56.8861H118.673L119.273 56.2447V59.5521ZM126.865 61.7181C126.404 61.7181 125.979 61.6459 125.59 61.5015C125.207 61.3516 124.871 61.1405 124.582 60.8684C124.299 60.5962 124.077 60.2769 123.916 59.9103C123.76 59.5437 123.683 59.1411 123.683 58.7023C123.683 58.2635 123.76 57.8609 123.916 57.4943C124.077 57.1277 124.302 56.8084 124.591 56.5362C124.879 56.2641 125.218 56.0558 125.607 55.9114C125.996 55.7615 126.424 55.6865 126.89 55.6865C127.407 55.6865 127.87 55.7726 128.281 55.9447C128.698 56.1169 129.048 56.3668 129.331 56.6945L128.465 57.4943C128.254 57.2722 128.023 57.1083 127.773 57.0028C127.523 56.8917 127.251 56.8362 126.957 56.8362C126.673 56.8362 126.415 56.8806 126.182 56.9695C125.949 57.0583 125.746 57.1861 125.574 57.3527C125.407 57.5193 125.277 57.7165 125.182 57.9442C125.093 58.1719 125.049 58.4246 125.049 58.7023C125.049 58.9745 125.093 59.2244 125.182 59.4521C125.277 59.6798 125.407 59.8798 125.574 60.0519C125.746 60.2186 125.946 60.3463 126.174 60.4352C126.407 60.524 126.662 60.5685 126.94 60.5685C127.207 60.5685 127.465 60.5268 127.715 60.4435C127.97 60.3546 128.217 60.2074 128.456 60.0019L129.223 60.9767C128.906 61.2155 128.537 61.3988 128.115 61.5265C127.698 61.6543 127.282 61.7181 126.865 61.7181ZM127.99 60.8017V58.6107H129.223V60.9767L127.99 60.8017ZM131.718 58.1358H134.525V59.1855H131.718V58.1358ZM131.818 60.5351H134.992V61.6182H130.476V55.7865H134.884V56.8695H131.818V60.5351ZM137.274 61.6182V56.8861H135.408V55.7865H140.489V56.8861H138.623V61.6182H137.274ZM142.505 61.6182V56.8861H140.639V55.7865H145.721V56.8861H143.855V61.6182H142.505ZM145.388 61.6182L147.987 55.7865H149.32L151.927 61.6182H150.511L148.378 56.4696H148.912L146.771 61.6182H145.388ZM146.687 60.3685L147.045 59.3438H150.045L150.411 60.3685H146.687ZM152.532 61.6182V55.7865H155.382C156.115 55.7865 156.665 55.9253 157.031 56.203C157.403 56.4807 157.589 56.8473 157.589 57.3027C157.589 57.6082 157.514 57.8748 157.364 58.1025C157.214 58.3246 157.009 58.4968 156.748 58.619C156.487 58.7412 156.187 58.8023 155.848 58.8023L156.006 58.4607C156.373 58.4607 156.698 58.5218 156.981 58.644C157.264 58.7606 157.484 58.9356 157.639 59.1688C157.8 59.4021 157.881 59.6881 157.881 60.0269C157.881 60.5268 157.684 60.9184 157.289 61.2016C156.895 61.4793 156.315 61.6182 155.548 61.6182H152.532ZM153.874 60.6018H155.448C155.798 60.6018 156.062 60.5462 156.24 60.4352C156.423 60.3185 156.515 60.1352 156.515 59.8853C156.515 59.6409 156.423 59.4604 156.24 59.3438C156.062 59.2216 155.798 59.1605 155.448 59.1605H153.774V58.1775H155.215C155.543 58.1775 155.793 58.1219 155.965 58.0108C156.143 57.8942 156.231 57.7193 156.231 57.486C156.231 57.2583 156.143 57.0889 155.965 56.9778C155.793 56.8612 155.543 56.8028 155.215 56.8028H153.874V60.6018ZM158.903 61.6182V55.7865H160.252V60.5185H163.177V61.6182H158.903ZM165.172 58.1358H167.98V59.1855H165.172V58.1358ZM165.272 60.5351H168.446V61.6182H163.931V55.7865H168.338V56.8695H165.272V60.5351ZM172.954 61.7181C172.56 61.7181 172.196 61.6459 171.863 61.5015C171.535 61.3516 171.266 61.1405 171.055 60.8684L171.804 59.9686C171.965 60.1797 172.135 60.3407 172.312 60.4518C172.49 60.5573 172.682 60.6101 172.887 60.6101C173.437 60.6101 173.712 60.288 173.712 59.6437V56.8695H171.663V55.7865H175.053V59.5687C175.053 60.2908 174.876 60.8295 174.52 61.185C174.165 61.5404 173.643 61.7181 172.954 61.7181ZM179.219 61.7181C178.758 61.7181 178.33 61.6432 177.936 61.4932C177.547 61.3432 177.208 61.1322 176.92 60.86C176.636 60.5879 176.414 60.2685 176.253 59.902C176.098 59.5354 176.02 59.1355 176.02 58.7023C176.02 58.2691 176.098 57.8692 176.253 57.5026C176.414 57.1361 176.639 56.8167 176.928 56.5446C177.217 56.2724 177.556 56.0614 177.944 55.9114C178.333 55.7615 178.755 55.6865 179.211 55.6865C179.672 55.6865 180.094 55.7615 180.477 55.9114C180.866 56.0614 181.202 56.2724 181.485 56.5446C181.774 56.8167 181.999 57.1361 182.16 57.5026C182.321 57.8637 182.401 58.2635 182.401 58.7023C182.401 59.1355 182.321 59.5382 182.16 59.9103C181.999 60.2769 181.774 60.5962 181.485 60.8684C181.202 61.135 180.866 61.3432 180.477 61.4932C180.094 61.6432 179.674 61.7181 179.219 61.7181ZM179.211 60.5685C179.472 60.5685 179.711 60.524 179.927 60.4352C180.149 60.3463 180.344 60.2186 180.51 60.0519C180.677 59.8853 180.805 59.6881 180.894 59.4604C180.988 59.2327 181.035 58.98 181.035 58.7023C181.035 58.4246 180.988 58.1719 180.894 57.9442C180.805 57.7165 180.677 57.5193 180.51 57.3527C180.349 57.1861 180.158 57.0583 179.935 56.9695C179.713 56.8806 179.472 56.8362 179.211 56.8362C178.95 56.8362 178.708 56.8806 178.486 56.9695C178.269 57.0583 178.078 57.1861 177.911 57.3527C177.744 57.5193 177.614 57.7165 177.519 57.9442C177.431 58.1719 177.386 58.4246 177.386 58.7023C177.386 58.9745 177.431 59.2272 177.519 59.4604C177.614 59.6881 177.742 59.8853 177.903 60.0519C178.069 60.2186 178.264 60.3463 178.486 60.4352C178.708 60.524 178.95 60.5685 179.211 60.5685ZM186.007 61.7181C185.179 61.7181 184.532 61.4876 184.066 61.0267C183.599 60.5657 183.366 59.9075 183.366 59.0522V55.7865H184.715V59.0022C184.715 59.5576 184.829 59.9575 185.057 60.2019C185.285 60.4463 185.604 60.5685 186.015 60.5685C186.426 60.5685 186.745 60.4463 186.973 60.2019C187.201 59.9575 187.315 59.5576 187.315 59.0022V55.7865H188.648V59.0522C188.648 59.9075 188.414 60.5657 187.948 61.0267C187.481 61.4876 186.834 61.7181 186.007 61.7181ZM189.981 61.6182V55.7865H192.506C193.028 55.7865 193.478 55.8725 193.855 56.0447C194.233 56.2113 194.525 56.4529 194.73 56.7695C194.935 57.0861 195.038 57.4638 195.038 57.9025C195.038 58.3357 194.935 58.7106 194.73 59.0272C194.525 59.3382 194.233 59.5771 193.855 59.7437C193.478 59.9103 193.028 59.9936 192.506 59.9936H190.731L191.331 59.4021V61.6182H189.981ZM193.689 61.6182L192.231 59.5021H193.672L195.147 61.6182H193.689ZM191.331 59.5521L190.731 58.9189H192.431C192.847 58.9189 193.158 58.8301 193.364 58.6523C193.569 58.469 193.672 58.2191 193.672 57.9025C193.672 57.5804 193.569 57.3305 193.364 57.1527C193.158 56.975 192.847 56.8861 192.431 56.8861H190.731L191.331 56.2447V59.5521ZM196.108 61.6182V55.7865H197.224L200.665 59.9853H200.123V55.7865H201.456V61.6182H200.348L196.899 57.4193H197.441V61.6182H196.108ZM204.077 58.1358H206.885V59.1855H204.077V58.1358ZM204.177 60.5351H207.351V61.6182H202.836V55.7865H207.243V56.8695H204.177V60.5351ZM209.818 61.6182V59.2355L210.126 60.0519L207.56 55.7865H208.993L210.959 59.0605H210.134L212.109 55.7865H213.433L210.867 60.0519L211.167 59.2355V61.6182H209.818ZM214.081 61.6848C213.858 61.6848 213.667 61.6098 213.506 61.4599C213.35 61.3044 213.273 61.1072 213.273 60.8684C213.273 60.6296 213.35 60.4379 213.506 60.2935C213.667 60.1436 213.858 60.0686 214.081 60.0686C214.308 60.0686 214.5 60.1436 214.655 60.2935C214.811 60.4379 214.889 60.6296 214.889 60.8684C214.889 61.1072 214.811 61.3044 214.655 61.4599C214.5 61.6098 214.308 61.6848 214.081 61.6848Z" fill="white"/>
<path d="M67.6755 28.0464C66.6996 29.0641 65.7116 30.0697 64.6991 31.0631C51.3055 44.2696 34.6306 55.8063 15.1379 64.3628C6.0076 58.2074 0 47.7678 0 35.9325C0 35.5668 0 35.2012 0.0182973 34.8355C0.140279 31.0326 0.878269 27.3882 2.14078 23.9936C5.60506 14.6753 13.0155 7.26456 22.3471 3.80295C26.0675 2.41953 30.0929 1.66992 34.2891 1.66992C50.5126 1.66992 64.1075 12.9262 67.6694 28.0525L67.6755 28.0464Z" fill="#F9532C"/>
<path d="M29.4218 16.3632C29.4218 24.481 22.8348 31.0629 14.7108 31.0629C9.38634 31.0629 4.72054 28.2351 2.14062 23.9995C5.60491 14.6751 13.0153 7.26434 22.3469 3.80273C26.5858 6.38066 29.4157 11.0429 29.4157 16.3632H29.4218Z" fill="#FFCC00"/>
<path d="M64.6991 31.0628C51.3055 44.2693 34.6306 55.8059 15.1379 64.3624C6.0076 58.2071 0 47.7675 0 35.9322C0 35.5665 0 35.2009 0.0182973 34.8352H11.5395L14.7903 39.6315H10.3136V45.7076H16.7847V24.5723H24.0426V41.539H27.9033V31.0567H64.693L64.6991 31.0628Z" fill="#D61E00"/>
<path d="M53.5191 64.3139C52.037 65.3194 50.4695 66.2153 48.8289 66.9771C45.9989 66.6053 43.1689 68.8115 40.339 69.6647C39.5888 69.7988 38.8325 69.9085 38.064 69.9877C36.9479 69.9329 35.8317 69.5063 34.7156 68.4641C31.5136 65.4779 28.3177 67.5317 25.1156 68.9517C24.0666 68.6652 23.0419 68.324 22.0356 67.94C20.5169 67.3549 19.0531 66.6724 17.6443 65.8923C17.6321 65.8862 17.6199 65.874 17.6016 65.8679C17.6138 65.8618 17.626 65.8557 17.6443 65.8496C18.553 65.4413 19.4618 65.0269 20.3584 64.6003C25.14 65.484 29.9278 58.6827 34.7095 63.1498C40.4 68.4641 46.0904 57.8355 51.7747 63.1498C52.3542 63.6922 52.9336 64.064 53.5069 64.3078L53.5191 64.3139Z" fill="#D61E00"/>
<path d="M65.1037 51.01C63.9449 53.3685 62.5238 55.5747 60.8771 57.5919C57.8458 58.9875 54.8146 60.6818 51.7833 57.8479C46.0929 52.5336 40.4024 63.1622 34.7181 57.8479C34.529 57.665 34.3338 57.5066 34.1387 57.3664C36.0721 56.239 37.975 55.0749 39.8535 53.8743C43.8301 52.8992 47.8128 48.8282 51.7894 52.5397C56.2296 56.6839 60.6636 51.1258 65.1037 51.01Z" fill="#D61E00"/>
<path d="M68.1616 41.3561C67.9054 42.965 67.5395 44.5313 67.0699 46.0548C61.9771 43.9645 56.8783 51.9908 51.7855 47.2311C51.4013 46.8715 51.0171 46.5912 50.6328 46.3657C51.9319 45.3845 53.2127 44.385 54.4752 43.3672C59.0374 44.2265 63.5995 38.0834 68.1555 41.35L68.1616 41.3561Z" fill="#D61E00"/>
<path d="M68.5851 35.9322V36.182C68.5851 36.2491 68.5851 36.3161 68.5851 36.377C66.9872 35.018 65.3831 34.8839 63.7852 35.2618C65.2977 33.8357 66.7737 32.3852 68.2253 30.9043C68.4632 32.5437 68.5912 34.2196 68.5912 35.9261L68.5851 35.9322Z" fill="#D61E00"/>
<path d="M23.2183 22.6587H17.8694V23.7679H23.2183V22.6587Z" fill="#D61E00"/>
<path d="M20.5469 14.5474C20.2117 14.5474 19.9375 14.8216 19.9375 15.1568V21.9947H21.1564V15.1568C21.1564 14.8216 20.8821 14.5474 20.5469 14.5474Z" fill="#D61E00"/>
<path d="M48.6586 10.1776C53.977 10.1837 59.3564 9.88504 64.7663 9.25732C67.3523 13.9134 70.042 18.5208 72.8476 23.0733C55.3737 42.9775 30.892 59.9321 0.792969 70C22.6338 52.7712 38.7232 31.9406 48.6586 10.1776Z" fill="#FFCC00"/>
<path d="M12.7461 62.9427C28.7135 48.2309 42.4426 29.0336 51.1216 10.5555C55.5312 10.5128 59.0504 12.2619 63.46 11.8048C65.5337 15.498 69.0529 17.759 71.2607 21.3852C55.952 38.4007 35.0444 53.533 12.7522 62.9427H12.7461Z" fill="#FFB200"/>
<path d="M74.0075 21.2083C73.6293 21.83 73.2451 22.4516 72.8548 23.0732C70.159 20.2515 67.5668 17.3689 65.0723 14.4314C65.0357 14.4923 65.0052 14.5472 64.9686 14.602C63.267 17.4298 58.6195 21.8422 58.5707 21.8422C59.0098 22.866 59.4551 23.896 59.9064 24.9198C59.3941 25.6146 58.8695 26.3093 58.345 26.998C57.2838 26.0229 56.2408 25.0417 55.2101 24.0483C53.7402 23.6217 52.2886 23.1768 50.8492 22.7137C51.3799 22.0494 51.9044 21.3851 52.4228 20.7147C53.667 20.666 54.9173 20.5928 56.1676 20.5075C56.192 20.5075 58.65 14.9677 60.376 12.2191C60.4126 12.1643 60.4492 12.1094 60.4797 12.0546C56.4604 11.5975 52.5204 10.9698 48.6719 10.1775C49.0744 9.62294 49.4709 9.07445 49.8612 8.51986C49.8612 8.51986 51.02 6.87438 53.2828 7.11206C54.9356 7.31927 60.5834 7.25832 63.5414 7.02674C64.7979 4.87542 65.792 2.98617 65.7981 2.98617C65.8225 2.98617 68.1341 -0.767968 70.0614 0.127905C70.4334 0.298547 70.6774 0.572794 70.8238 0.920174C71.4764 2.43158 70.3785 5.16795 70.3541 5.16795C70.3541 5.16795 69.3661 7.09378 68.1219 9.29385C69.5978 11.7133 72.6108 16.3146 73.6781 17.5822C75.1297 19.3252 74.0197 21.1962 74.0136 21.1962L74.0075 21.2083Z" fill="url(#paint0_linear_424_3664)"/>
<path d="M74.0064 21.2084C73.6282 21.83 73.244 22.4516 72.8536 23.0733C70.1578 20.2516 67.5657 17.3689 65.0712 14.4314C65.0346 14.4924 65.0041 14.5472 64.9675 14.6021C63.2659 17.4299 58.6184 21.8422 58.5696 21.8422C59.0087 22.8661 59.454 23.896 59.9053 24.9199C59.393 25.6146 58.8684 26.3094 58.3439 26.998C57.2827 26.0229 56.2397 25.0418 55.209 24.0484L70.0481 0.140137L70.8104 0.932405C71.4631 2.44381 70.3652 5.18019 70.3408 5.18019C70.3408 5.18019 69.3528 7.10601 68.1086 9.30608C69.5845 11.7255 72.5975 16.3268 73.6648 17.5944C75.1164 19.3374 74.0064 21.2084 74.0003 21.2084H74.0064Z" fill="#F9532C"/>
<path d="M50.8054 9.23277C51.2628 8.59287 52.0557 8.18454 52.873 8.17235L55.2272 8.10532C56.7947 8.06875 58.3683 8.04437 59.9357 8.0139L62.2839 7.97124C62.6742 7.95905 63.0707 7.95296 63.4488 7.92858H63.5891C63.6257 7.91639 63.6623 7.9103 63.6989 7.9042C63.7721 7.89201 63.8392 7.86763 63.9062 7.83716C64.0404 7.77622 64.1563 7.67871 64.2417 7.55682L65.4005 5.55177C65.7909 4.8753 66.1995 4.20492 66.602 3.52844L66.6142 3.51016C66.7972 3.26638 66.9863 3.01651 67.1876 2.77883C67.3888 2.54115 67.6023 2.31566 67.8219 2.10236C68.0475 1.88905 68.2854 1.68794 68.5416 1.5173C68.6696 1.43197 68.8038 1.35275 68.9502 1.2918C69.0905 1.23086 69.243 1.17601 69.3954 1.1821C69.243 1.20039 69.1088 1.27352 68.9807 1.35275C68.8526 1.43197 68.7367 1.52339 68.6208 1.6209C68.3952 1.81592 68.1878 2.03532 67.9926 2.2669C67.7975 2.49849 67.6206 2.73617 67.4437 2.97995C67.2668 3.22372 67.1083 3.47359 66.9436 3.73565L66.9558 3.71127C66.5959 4.40603 66.2361 5.10688 65.8641 5.80164L65.309 6.84378L65.0224 7.3618L64.8821 7.61777L64.8089 7.74575C64.7845 7.78841 64.7479 7.84935 64.7113 7.89811C64.571 8.09922 64.3759 8.25767 64.1563 8.36737C64.0465 8.42222 63.9306 8.45879 63.8087 8.48317C63.7477 8.49536 63.6867 8.50145 63.6257 8.50754H63.4732C63.0707 8.53802 62.6803 8.54411 62.2839 8.5502C61.4971 8.56239 60.7103 8.56849 59.9235 8.56239C58.35 8.5563 56.7825 8.52583 55.2089 8.47707C54.4222 8.45269 53.6354 8.42222 52.8547 8.38566C52.0984 8.343 51.3177 8.64162 50.7871 9.22059L50.8054 9.23277Z" fill="white"/>
</g>
<defs>
<linearGradient id="paint0_linear_424_3664" x1="51.4592" y1="12.9261" x2="67.1155" y2="13.6463" gradientUnits="userSpaceOnUse">
<stop stop-color="#D61E00"/>
<stop offset="1" stop-color="#F9532C"/>
</linearGradient>
<clipPath id="clip0_424_3664">
<rect width="268" height="70" fill="white"/>
</clipPath>
</defs>
</svg>
