<svg width="82" height="88" viewBox="0 0 82 88" fill="none" xmlns="http://www.w3.org/2000/svg">
<rect width="82" height="88" rx="4" fill="white" fill-opacity="0.1"/>
<path d="M27.7546 35.8681C27.3946 35.7241 27.2386 35.4601 27.2506 35.0281C27.2506 34.8241 27.2506 34.6201 27.2506 34.4161C27.2506 34.2121 27.2506 34.0921 27.2506 33.9721C27.2506 33.4921 27.4906 33.2641 27.9706 33.2521H28.8346L28.7866 32.1361C28.7866 31.5001 28.9906 31.3081 29.6146 31.3081H31.1986L31.3186 31.2721L31.3906 31.1041C31.3906 31.0321 31.3906 30.9481 31.3906 30.8761V29.6281C31.3906 28.5121 31.3906 27.4081 31.3906 26.2921C31.3906 26.1721 31.4506 26.0281 31.5106 25.9081C31.5466 25.8361 31.5706 25.7641 31.5946 25.6921C31.6426 25.5601 31.6666 25.5001 31.6666 25.4161C31.6666 22.6321 31.6666 19.8601 31.6666 17.0761C31.6666 16.9561 31.6186 16.8121 31.5466 16.7041C30.6946 15.3601 30.0346 14.3281 29.4106 13.3801C29.3266 13.2601 29.1586 13.1641 29.0026 13.1521C28.3546 13.1161 28.1746 12.9361 28.1746 12.3001V11.4241C28.1746 10.8721 28.4026 10.6561 28.9426 10.6441H29.4706L29.3386 10.3681L29.2906 10.1641L28.3906 6.91212C28.2946 6.60012 28.3306 6.42012 28.5106 6.26412C28.6066 6.18012 28.7146 6.13212 28.8346 6.13212C28.9306 6.13212 29.0386 6.15612 29.1586 6.21612C29.4946 6.36012 29.8186 6.50412 30.1546 6.64812C30.6106 6.85212 30.9946 7.02012 31.3786 7.18812C32.0986 7.52412 32.6746 8.02812 33.0826 8.68812C33.3106 9.04812 33.5866 9.21612 33.9706 9.21612C34.1746 9.21612 34.2706 9.20412 34.3786 9.20412H34.8466C35.2066 9.20412 35.4586 9.04812 35.6146 8.73612L35.7946 8.38812C35.8786 8.23212 35.9626 8.07612 36.0346 7.93212C36.1546 7.70412 36.3106 7.58412 36.5266 7.58412C36.7546 7.58412 36.8986 7.69212 37.0186 7.92012C37.0906 8.06412 37.1626 8.22012 37.2466 8.36412L37.4506 8.74812C37.6426 9.10812 37.9666 9.18012 38.1947 9.20412C38.2667 9.20412 38.3387 9.20412 38.4107 9.20412C38.9267 9.20412 39.2867 8.95212 39.5267 8.42412C39.7067 8.02812 39.9227 7.63212 40.1387 7.24812C40.2707 7.00812 40.3907 6.79212 40.5107 6.57612C40.6427 6.32412 40.7987 6.21612 41.0027 6.21612C41.2307 6.21612 41.3867 6.32412 41.5187 6.58812L41.9627 7.41612C42.1907 7.83612 42.4187 8.24412 42.6227 8.67612C42.8747 9.16812 43.2827 9.20412 43.6907 9.20412C44.1347 9.20412 44.4227 9.02412 44.6027 8.66412C44.7107 8.43612 44.8307 8.19612 44.9987 7.89612C45.1067 7.69212 45.2867 7.58412 45.4667 7.58412C45.6467 7.58412 45.8147 7.69212 45.9347 7.89612C46.0787 8.14812 46.2107 8.41212 46.3547 8.70012C46.5347 9.06012 46.7987 9.21612 47.1467 9.21612H48.0947C48.4187 9.21612 48.6707 9.08412 48.8267 8.83212C49.3307 7.98012 50.0867 7.36812 51.1307 6.96012C51.6107 6.76812 52.0907 6.55212 52.5587 6.33612L52.8707 6.19212C52.9787 6.14412 53.0747 6.12012 53.1587 6.12012C53.2787 6.12012 53.3867 6.16812 53.4947 6.25212C53.6627 6.39612 53.6987 6.58812 53.6267 6.84012L52.6307 10.3201L52.5587 10.4401H52.6067L52.5587 10.7041L52.8587 10.6441H53.1467C53.5667 10.6801 53.7827 10.8961 53.8067 11.3161C53.8067 11.6761 53.8187 12.0481 53.8067 12.4441C53.7947 12.9121 53.5667 13.1401 53.0987 13.1401C52.8227 13.1401 52.6427 13.2361 52.4987 13.4761C52.1987 13.9561 50.4587 16.6801 50.4587 16.6801C50.3747 16.8121 50.3267 16.9801 50.3267 17.1361C50.3267 19.8721 50.3267 22.6201 50.3267 25.3561C50.3267 25.4521 50.3627 25.5481 50.3987 25.6201L50.4467 25.7521L50.4947 25.9081C50.5547 26.0641 50.5907 26.1841 50.5907 26.3041C50.5907 27.3361 50.5907 28.3801 50.5907 29.4121V31.3681L52.3547 31.3201H52.5227C52.9667 31.3321 53.1947 31.5601 53.2067 32.0041C53.2067 32.1241 53.2067 32.2561 53.2067 32.3761V33.3001L53.5547 33.2521H54.0587C54.4907 33.2521 54.7307 33.4921 54.7427 33.9121C54.7427 34.2601 54.7427 34.6201 54.7427 34.9681V35.1961C54.7427 35.5081 54.5867 35.7241 54.2627 35.8561C54.2627 35.8561 54.2627 35.8561 54.2387 35.8561H27.7546V35.8681ZM27.9466 35.2321L54.1067 35.1841L54.0587 33.9121L27.9466 33.9601V35.2321ZM29.4826 33.2881L52.5707 33.2401L52.5227 31.9441L38.2427 31.9921L38.1107 31.9441V31.9921C38.1107 31.9921 38.0026 31.9921 37.9426 31.9921C37.7386 31.9561 37.6306 31.8241 37.6426 31.6441C37.6666 31.4521 37.7626 31.3561 37.9666 31.3441H38.1107H47.3507L47.3027 29.8441C47.3027 28.6561 47.3027 27.4801 47.3027 26.2921C47.3027 26.1721 47.3507 26.0641 47.3867 25.9321L47.4827 25.6561C47.5307 25.5481 47.5667 25.4521 47.5667 25.3561C47.5667 24.6601 47.5667 23.9641 47.5667 23.2561V21.9361C47.5667 21.8281 47.5667 21.7321 47.5907 21.6361C47.6027 21.5761 47.6387 21.4081 47.8907 21.3961C48.1427 21.3961 48.1907 21.5641 48.2027 21.6121C48.2267 21.7081 48.2267 21.8161 48.2387 21.9241V25.6561L49.6547 25.6081L49.6067 13.1281L48.1907 13.1761L48.2387 14.8441V19.5481C48.2387 19.8361 48.1307 19.9801 47.9027 19.9921C47.6867 19.9921 47.5667 19.8481 47.5667 19.5601V17.0161L34.4146 17.0641V17.1841C34.4026 20.0041 34.4026 22.7281 34.4026 25.4641C34.4026 25.5361 34.4386 25.6081 34.4626 25.6561C34.5106 25.7881 34.5466 25.8481 34.5706 25.9201C34.6306 26.0521 34.6786 26.1721 34.6786 26.2801C34.6906 27.4681 34.6906 28.6441 34.6786 29.8321V31.3921L35.1346 31.3441C35.1346 31.3441 35.7706 31.3441 35.9146 31.3441C36.0946 31.3441 36.1906 31.4521 36.2026 31.6441C36.2146 31.8241 36.1306 31.9441 35.9506 31.9921C35.8786 32.0041 35.7946 32.0161 35.7106 32.0161H29.4826V33.3121V33.2881ZM32.0866 31.3561L34.0546 31.3081L34.0066 26.2561L32.0866 26.3041V31.3561ZM47.9747 31.3441L49.9427 31.2961L49.8947 26.2441L47.9747 26.2921V31.3441ZM32.3746 25.6441L33.7666 25.5961L33.7186 13.1281L32.3746 13.1761V25.6561V25.6441ZM34.4266 16.3921L47.6147 16.3441L47.5667 15.5521L34.4266 15.6001V16.3921ZM50.3267 15.7921L51.9587 13.0921L50.3267 13.1641V15.7921ZM31.7626 15.7441L31.6786 13.1161L30.1066 13.1641L31.7626 15.7441ZM34.4266 14.9281L47.6027 14.8801L47.5547 13.1161L34.4266 13.1641V14.9281ZM29.2546 11.3281C29.1826 11.3521 28.9066 11.3641 28.8946 11.5441C28.8706 11.7481 28.8706 11.9521 28.8826 12.1561V12.5041L53.1587 12.4561L53.1107 11.2681L35.9146 11.3161C35.9146 11.3161 35.8426 11.3161 35.8066 11.3161H35.7466C35.7466 11.3161 35.6266 11.3161 35.5666 11.3161C35.3986 11.2921 35.3026 11.1961 35.2906 11.0281C35.2786 10.8361 35.3506 10.7281 35.5306 10.6801C35.6146 10.6561 35.7106 10.6561 35.8186 10.6561H51.0347C51.8147 10.6561 51.8507 10.6321 52.0667 9.87612L52.9307 6.82812L52.7027 7.00812L52.2707 7.20012C51.9587 7.34412 51.6947 7.45212 51.4307 7.56012C50.4947 7.92012 49.8107 8.47212 49.3307 9.26412C49.0787 9.67212 48.6947 9.88812 48.1547 9.90012C47.9747 9.90012 47.7947 9.90012 47.6147 9.90012C47.4347 9.90012 47.2547 9.90012 47.0747 9.90012C46.5107 9.88812 46.1027 9.63612 45.8147 9.15612L45.4067 8.40012L45.2747 8.80812L45.1547 9.04812C44.8547 9.62412 44.3987 9.90012 43.7027 9.91212C42.8267 9.91212 42.3467 9.64812 42.0467 9.07212C41.8067 8.61612 41.5667 8.17212 41.3147 7.71612L41.1947 7.50012C41.1947 7.50012 41.1467 7.41612 41.1107 7.36812L40.9067 7.08012L40.5707 7.86012L39.8987 9.09612C39.6107 9.61212 39.1907 9.87612 38.5907 9.88812H38.3627H38.1347C37.5706 9.86412 37.1626 9.62412 36.8746 9.14412C36.8146 9.03612 36.7546 8.92812 36.6946 8.82012L36.4666 8.40012L36.3466 8.77212C36.2866 8.89212 36.2506 8.95212 36.2266 9.01212C35.9266 9.61212 35.4586 9.90012 34.7986 9.90012H33.9226C33.3586 9.90012 32.9386 9.67212 32.5786 9.18012C32.2786 8.76012 31.9906 8.37612 31.6306 8.16012C31.1266 7.84812 30.5746 7.58412 30.0466 7.33212C29.8186 7.22412 29.1946 6.92412 29.1946 6.92412L29.2306 7.09212C29.1946 7.27212 29.2306 7.38012 29.2546 7.47612L29.9266 9.84012C30.1546 10.6321 30.1906 10.6681 31.0186 10.6681H33.4786C33.7666 10.6681 33.9226 10.7881 33.9226 11.0041C33.9226 11.0881 33.9226 11.3281 33.4906 11.3401C33.2506 11.3401 29.9626 11.1841 29.2786 11.3401L29.2546 11.3281Z" fill="#515151"/>
<path d="M54.6928 35.208V35.04C54.6928 34.68 54.6928 34.296 54.6928 33.924C54.6808 33.528 54.4528 33.324 54.0568 33.312C53.8888 33.312 53.7328 33.312 53.5528 33.312H53.1568V32.388C53.1568 32.268 53.1568 32.136 53.1568 32.016C53.1448 31.596 52.9408 31.392 52.5208 31.38C52.4248 31.38 52.3288 31.38 52.2328 31.38H50.5408V29.76C50.5408 28.608 50.5408 27.456 50.5408 26.304C50.5408 26.184 50.4928 26.064 50.4568 25.932C50.4328 25.872 50.4208 25.824 50.3968 25.764C50.3968 25.728 50.3728 25.692 50.3488 25.644C50.3128 25.56 50.2648 25.464 50.2648 25.356C50.2648 22.62 50.2648 19.872 50.2648 17.136C50.2648 16.968 50.3248 16.788 50.4088 16.656C50.7208 16.164 51.0328 15.672 51.3448 15.18C51.7168 14.604 52.0888 14.028 52.4488 13.452C52.6048 13.2 52.7968 13.092 53.0848 13.092C53.5168 13.092 53.7328 12.888 53.7448 12.444C53.7448 12.036 53.7448 11.664 53.7448 11.316C53.7328 10.92 53.5408 10.728 53.1328 10.692C53.0368 10.692 52.9408 10.692 52.8448 10.692H52.5088L52.5568 10.44C52.5568 10.38 52.5808 10.344 52.5808 10.308L53.5768 6.82802C53.6488 6.58802 53.6128 6.42002 53.4688 6.28802C53.3008 6.14402 53.1328 6.13202 52.8928 6.22802L52.5808 6.37202C52.1128 6.58802 51.6328 6.80402 51.1408 6.99602C50.1088 7.40402 49.3648 8.01602 48.8608 8.85602C48.6928 9.12002 48.4408 9.26402 48.1048 9.26402H48.0928C47.7808 9.26402 47.4688 9.26402 47.1568 9.26402C46.7848 9.26402 46.5088 9.09602 46.3408 8.77202C46.1848 8.47202 46.0408 8.19602 45.8968 7.92002C45.8008 7.74002 45.6448 7.63202 45.4768 7.63202C45.3088 7.63202 45.1528 7.74002 45.0448 7.92002C44.8768 8.22002 44.7448 8.46002 44.6488 8.68802C44.4688 9.07202 44.1688 9.25202 43.7248 9.25202C43.2928 9.25202 42.8488 9.21602 42.5848 8.70002C42.3688 8.28002 42.1408 7.86002 41.9248 7.45202C41.7688 7.17602 41.6248 6.90002 41.4808 6.62402C41.3608 6.38402 41.2168 6.28802 41.0128 6.28802C40.8208 6.28802 40.6888 6.39602 40.5568 6.62402C40.4368 6.84002 40.3168 7.05602 40.1968 7.27202C39.9808 7.65602 39.7528 8.06402 39.5728 8.47202C39.2968 9.08402 38.8648 9.33602 38.1928 9.26402C37.9528 9.24002 37.6048 9.15602 37.4128 8.78402L37.2448 8.46002C37.1608 8.29202 37.0648 8.12402 36.9808 7.95602C36.8728 7.75202 36.7408 7.65602 36.5488 7.64402C36.3568 7.64402 36.2128 7.74002 36.1048 7.95602C36.0328 8.11202 35.9488 8.26802 35.8648 8.42402C35.8048 8.53202 35.7448 8.65202 35.6848 8.76002C35.5168 9.09602 35.2408 9.25202 34.8808 9.25202H34.6648C34.4728 9.25202 34.2808 9.25202 34.0888 9.25202C33.6448 9.28802 33.3088 9.10802 33.0568 8.70002C32.6488 8.04002 32.0848 7.54802 31.3768 7.21202C30.9688 7.03202 30.5608 6.85202 30.1528 6.67202C29.8168 6.52802 29.4928 6.38402 29.1568 6.24002C28.9048 6.12002 28.7248 6.13202 28.5568 6.27602C28.4008 6.42002 28.3768 6.58802 28.4608 6.87602C28.7008 7.71602 28.9408 8.56802 29.1928 9.42002L29.3968 10.14C29.4208 10.212 29.4328 10.272 29.4448 10.344L29.5288 10.68H29.1928C29.1208 10.68 29.0608 10.68 29.0008 10.68C28.4728 10.68 28.2808 10.884 28.2688 11.412C28.2688 11.652 28.2688 11.892 28.2688 12.144V12.288C28.2688 12.9 28.4368 13.068 29.0488 13.092C29.2168 13.092 29.3968 13.212 29.4928 13.332C30.1168 14.28 30.7768 15.3 31.6288 16.656C31.7008 16.776 31.7488 16.92 31.7488 17.052C31.7488 19.836 31.7488 22.608 31.7488 25.392C31.7488 25.476 31.7248 25.56 31.6888 25.632V25.68C31.6408 25.752 31.6168 25.824 31.5808 25.896C31.5208 26.028 31.4728 26.148 31.4608 26.268C31.4488 27.384 31.4488 28.488 31.4608 29.604V30.852C31.4608 30.936 31.4608 31.008 31.4608 31.08V31.248L31.3528 31.284C31.2928 31.308 31.2568 31.32 31.2208 31.32C30.6928 31.32 30.1648 31.32 29.6368 31.32C29.0368 31.32 28.8568 31.5 28.8568 32.1V33.264H28.4608C28.3048 33.264 28.1488 33.264 28.0048 33.264C27.5608 33.264 27.3448 33.48 27.3328 33.936C27.3328 34.08 27.3328 34.236 27.3328 34.38C27.3328 34.584 27.3328 34.788 27.3328 34.992C27.3208 35.4 27.4528 35.64 27.7888 35.784H54.2848C54.5848 35.652 54.7288 35.46 54.7288 35.16L54.6928 35.208ZM50.2768 15.792V13.128H51.9928L50.2768 15.792ZM31.7248 15.78L30.0208 13.128H31.7248V15.78ZM28.8328 12.504V12.156C28.8328 11.952 28.8328 11.748 28.8448 11.544C28.8568 11.364 29.1448 11.28 29.2528 11.28C30.2488 11.28 31.2328 11.28 32.2288 11.28H33.1168C33.2368 11.28 33.3448 11.28 33.4648 11.28C33.8488 11.28 33.8488 11.076 33.8488 10.992C33.8488 10.92 33.8488 10.704 33.4528 10.704C32.8528 10.704 32.2528 10.704 31.6408 10.704H30.9928C30.1528 10.704 30.0928 10.656 29.8648 9.84002L29.1928 7.47602C29.1688 7.36802 29.1448 7.26002 29.1688 7.06802L29.2048 6.87602L29.3848 6.96002C29.6008 7.06802 29.8288 7.17602 30.0568 7.28402C30.5848 7.53602 31.1368 7.80002 31.6528 8.11202C32.0248 8.34002 32.3128 8.73602 32.5648 9.08402L32.6128 9.15602C32.9608 9.63602 33.3808 9.85202 33.9208 9.85202H34.1368C34.3528 9.85202 34.5688 9.85202 34.7728 9.85202H34.8088C35.4568 9.85202 35.9008 9.57602 36.1888 9.00002C36.2248 8.92802 36.2728 8.84402 36.3208 8.76002L36.5248 8.38802L36.7528 8.80802C36.8128 8.92802 36.8728 9.02402 36.9328 9.13202C37.2088 9.60002 37.6048 9.82802 38.1568 9.85202C38.3128 9.85202 38.4568 9.85202 38.6128 9.85202C39.1888 9.84002 39.6088 9.58802 39.8848 9.08402C40.1128 8.67602 40.3288 8.26802 40.5568 7.84802L40.9768 7.06802L41.1688 7.34402C41.1688 7.34402 41.2408 7.44002 41.2648 7.48802L41.3848 7.70402C41.6248 8.14802 41.8768 8.60402 42.1168 9.06002C42.4288 9.64802 42.9088 9.90002 43.7368 9.87602C44.4088 9.86402 44.8528 9.58802 45.1408 9.03602C45.1768 8.96402 45.2248 8.88002 45.2608 8.79602L45.4768 8.38802L45.7048 8.82002C45.7648 8.92802 45.8248 9.03602 45.8848 9.13202C46.1608 9.60002 46.5568 9.84002 47.1088 9.85202C47.4688 9.85202 47.8288 9.85202 48.1768 9.85202C48.6928 9.84002 49.0768 9.63602 49.3048 9.24002C49.7848 8.44802 50.4808 7.88402 51.4288 7.52402C51.7048 7.41602 51.9688 7.29602 52.2568 7.16402C52.3888 7.10402 52.5328 7.04402 52.6888 6.97202L52.9768 6.84002L52.7008 7.82402C52.4968 8.53202 52.3048 9.20402 52.1128 9.88802C51.8968 10.656 51.8368 10.704 51.0448 10.704H35.9248C35.7808 10.704 35.6608 10.704 35.5528 10.728C35.3968 10.764 35.3368 10.86 35.3488 11.016C35.3488 11.172 35.4328 11.244 35.5888 11.268C35.6728 11.268 35.7568 11.268 35.8408 11.268H35.9128H53.1568V12.504H28.8328ZM47.6008 15.552V16.392H34.3768V15.552H47.6008ZM34.3768 14.928V13.116H47.6008V14.928H34.3768ZM34.0528 26.256V31.356H32.0368V26.256H34.0528ZM32.3248 25.644V13.116H33.7648V25.632H32.3248V25.644ZM29.4328 31.944H31.0768C32.6128 31.944 34.1368 31.944 35.6608 31.944C35.7928 31.944 35.8888 31.944 35.9728 31.92C36.1288 31.884 36.2008 31.788 36.1888 31.632C36.1888 31.464 36.0928 31.38 35.9488 31.38C35.6968 31.38 35.4448 31.38 35.1688 31.38H34.6528V29.82C34.6528 28.632 34.6528 27.456 34.6528 26.268C34.6528 26.16 34.6048 26.052 34.5448 25.92C34.5208 25.86 34.4848 25.788 34.4608 25.728C34.4608 25.704 34.4488 25.68 34.4368 25.668C34.4128 25.608 34.3768 25.536 34.3768 25.452C34.3768 22.728 34.3768 19.992 34.3768 17.268C34.3768 17.232 34.3768 17.196 34.4008 17.16L34.4368 17.004H47.6368V18.648C47.6368 18.948 47.6368 19.248 47.6368 19.548C47.6368 19.92 47.8288 19.932 47.9128 19.932C47.9848 19.932 48.2008 19.932 48.2008 19.536C48.2008 17.964 48.2008 16.404 48.2008 14.832V13.116H49.6648V25.644H48.2008V24.348C48.2008 23.532 48.2008 22.728 48.2008 21.912C48.2008 21.792 48.2008 21.696 48.1768 21.612C48.1528 21.528 48.1048 21.42 47.9128 21.432C47.7208 21.432 47.6728 21.552 47.6608 21.636C47.6368 21.72 47.6368 21.816 47.6368 21.924V22.944C47.6368 23.748 47.6368 24.54 47.6368 25.344C47.6368 25.464 47.5888 25.56 47.5528 25.656C47.5408 25.692 47.5168 25.74 47.5048 25.776C47.4928 25.824 47.4688 25.884 47.4448 25.944C47.3968 26.064 47.3608 26.184 47.3608 26.292C47.3608 27.48 47.3608 28.656 47.3608 29.844V31.392H38.2048C38.1328 31.392 38.0608 31.392 37.9888 31.392C37.8088 31.392 37.7248 31.476 37.7128 31.656C37.7008 31.812 37.7968 31.932 37.9768 31.956C38.0488 31.956 38.1328 31.956 38.2048 31.956H38.2768H52.6048V33.3H29.4328V31.956V31.944ZM49.9528 26.256V31.356H47.9368V26.256H49.9528ZM54.1168 35.232H27.8968V33.912H54.1048V35.232H54.1168Z" fill="#515151"/>
<path d="M18.1309 59H17.0389L12.6469 52.34V59H11.5549V50.624H12.6469L17.0389 57.272V50.624H18.1309V59ZM22.8604 59.108C22.2444 59.108 21.6844 58.968 21.1804 58.688C20.6844 58.408 20.2924 58.012 20.0044 57.5C19.7244 56.98 19.5844 56.38 19.5844 55.7C19.5844 55.028 19.7284 54.436 20.0164 53.924C20.3124 53.404 20.7124 53.008 21.2164 52.736C21.7204 52.456 22.2844 52.316 22.9084 52.316C23.5324 52.316 24.0964 52.456 24.6004 52.736C25.1044 53.008 25.5004 53.4 25.7884 53.912C26.0844 54.424 26.2324 55.02 26.2324 55.7C26.2324 56.38 26.0804 56.98 25.7764 57.5C25.4804 58.012 25.0764 58.408 24.5644 58.688C24.0524 58.968 23.4844 59.108 22.8604 59.108ZM22.8604 58.148C23.2524 58.148 23.6204 58.056 23.9644 57.872C24.3084 57.688 24.5844 57.412 24.7924 57.044C25.0084 56.676 25.1164 56.228 25.1164 55.7C25.1164 55.172 25.0124 54.724 24.8044 54.356C24.5964 53.988 24.3244 53.716 23.9884 53.54C23.6524 53.356 23.2884 53.264 22.8964 53.264C22.4964 53.264 22.1284 53.356 21.7924 53.54C21.4644 53.716 21.2004 53.988 21.0004 54.356C20.8004 54.724 20.7004 55.172 20.7004 55.7C20.7004 56.236 20.7964 56.688 20.9884 57.056C21.1884 57.424 21.4524 57.7 21.7804 57.884C22.1084 58.06 22.4684 58.148 22.8604 58.148ZM28.7601 53.492C28.9521 53.116 29.2241 52.824 29.5761 52.616C29.9361 52.408 30.3721 52.304 30.8841 52.304V53.432H30.5961C29.3721 53.432 28.7601 54.096 28.7601 55.424V59H27.6681V52.424H28.7601V53.492ZM33.4767 53.324V57.2C33.4767 57.52 33.5447 57.748 33.6807 57.884C33.8167 58.012 34.0527 58.076 34.3887 58.076H35.1927V59H34.2087C33.6007 59 33.1447 58.86 32.8407 58.58C32.5367 58.3 32.3847 57.84 32.3847 57.2V53.324H31.5327V52.424H32.3847V50.768H33.4767V52.424H35.1927V53.324H33.4767ZM39.7798 52.304C40.2758 52.304 40.7238 52.412 41.1238 52.628C41.5238 52.836 41.8358 53.152 42.0598 53.576C42.2918 54 42.4078 54.516 42.4078 55.124V59H41.3278V55.28C41.3278 54.624 41.1638 54.124 40.8358 53.78C40.5078 53.428 40.0598 53.252 39.4918 53.252C38.9158 53.252 38.4558 53.432 38.1118 53.792C37.7758 54.152 37.6078 54.676 37.6078 55.364V59H36.5158V50.12H37.6078V53.36C37.8238 53.024 38.1198 52.764 38.4958 52.58C38.8798 52.396 39.3078 52.304 39.7798 52.304ZM48.4828 51.524V54.32H51.5308V55.22H48.4828V58.1H51.8908V59H47.3908V50.624H51.8908V51.524H48.4828ZM53.1351 55.688C53.1351 55.016 53.2711 54.428 53.5431 53.924C53.8151 53.412 54.1871 53.016 54.6591 52.736C55.1391 52.456 55.6711 52.316 56.2551 52.316C56.8311 52.316 57.3311 52.44 57.7551 52.688C58.1791 52.936 58.4951 53.248 58.7031 53.624V52.424H59.8071V59H58.7031V57.776C58.4871 58.16 58.1631 58.48 57.7311 58.736C57.3071 58.984 56.8111 59.108 56.2431 59.108C55.6591 59.108 55.1311 58.964 54.6591 58.676C54.1871 58.388 53.8151 57.984 53.5431 57.464C53.2711 56.944 53.1351 56.352 53.1351 55.688ZM58.7031 55.7C58.7031 55.204 58.6031 54.772 58.4031 54.404C58.2031 54.036 57.9311 53.756 57.5871 53.564C57.2511 53.364 56.8791 53.264 56.4711 53.264C56.0631 53.264 55.6911 53.36 55.3551 53.552C55.0191 53.744 54.7511 54.024 54.5511 54.392C54.3511 54.76 54.2511 55.192 54.2511 55.688C54.2511 56.192 54.3511 56.632 54.5511 57.008C54.7511 57.376 55.0191 57.66 55.3551 57.86C55.6911 58.052 56.0631 58.148 56.4711 58.148C56.8791 58.148 57.2511 58.052 57.5871 57.86C57.9311 57.66 58.2031 57.376 58.4031 57.008C58.6031 56.632 58.7031 56.196 58.7031 55.7ZM63.9805 59.108C63.4765 59.108 63.0245 59.024 62.6245 58.856C62.2245 58.68 61.9085 58.44 61.6765 58.136C61.4445 57.824 61.3165 57.468 61.2925 57.068H62.4205C62.4525 57.396 62.6045 57.664 62.8765 57.872C63.1565 58.08 63.5205 58.184 63.9685 58.184C64.3845 58.184 64.7125 58.092 64.9525 57.908C65.1925 57.724 65.3125 57.492 65.3125 57.212C65.3125 56.924 65.1845 56.712 64.9285 56.576C64.6725 56.432 64.2765 56.292 63.7405 56.156C63.2525 56.028 62.8525 55.9 62.5405 55.772C62.2365 55.636 61.9725 55.44 61.7485 55.184C61.5325 54.92 61.4245 54.576 61.4245 54.152C61.4245 53.816 61.5245 53.508 61.7245 53.228C61.9245 52.948 62.2085 52.728 62.5765 52.568C62.9445 52.4 63.3645 52.316 63.8365 52.316C64.5645 52.316 65.1525 52.5 65.6005 52.868C66.0485 53.236 66.2885 53.74 66.3205 54.38H65.2285C65.2045 54.036 65.0645 53.76 64.8085 53.552C64.5605 53.344 64.2245 53.24 63.8005 53.24C63.4085 53.24 63.0965 53.324 62.8645 53.492C62.6325 53.66 62.5165 53.88 62.5165 54.152C62.5165 54.368 62.5845 54.548 62.7205 54.692C62.8645 54.828 63.0405 54.94 63.2485 55.028C63.4645 55.108 63.7605 55.2 64.1365 55.304C64.6085 55.432 64.9925 55.56 65.2885 55.688C65.5845 55.808 65.8365 55.992 66.0445 56.24C66.2605 56.488 66.3725 56.812 66.3805 57.212C66.3805 57.572 66.2805 57.896 66.0805 58.184C65.8805 58.472 65.5965 58.7 65.2285 58.868C64.8685 59.028 64.4525 59.108 63.9805 59.108ZM69.254 53.324V57.2C69.254 57.52 69.322 57.748 69.458 57.884C69.594 58.012 69.83 58.076 70.166 58.076H70.97V59H69.986C69.378 59 68.922 58.86 68.618 58.58C68.314 58.3 68.162 57.84 68.162 57.2V53.324H67.31V52.424H68.162V50.768H69.254V52.424H70.97V53.324H69.254ZM28.1156 68.636V77H27.0236V68.636H28.1156ZM33.1807 70.304C33.9807 70.304 34.6287 70.548 35.1247 71.036C35.6207 71.516 35.8687 72.212 35.8687 73.124V77H34.7887V73.28C34.7887 72.624 34.6247 72.124 34.2967 71.78C33.9687 71.428 33.5207 71.252 32.9527 71.252C32.3767 71.252 31.9167 71.432 31.5727 71.792C31.2367 72.152 31.0687 72.676 31.0687 73.364V77H29.9767V70.424H31.0687V71.36C31.2847 71.024 31.5767 70.764 31.9447 70.58C32.3207 70.396 32.7327 70.304 33.1807 70.304ZM37.2445 73.688C37.2445 73.016 37.3805 72.428 37.6525 71.924C37.9245 71.412 38.2965 71.016 38.7685 70.736C39.2485 70.456 39.7845 70.316 40.3765 70.316C40.8885 70.316 41.3645 70.436 41.8045 70.676C42.2445 70.908 42.5805 71.216 42.8125 71.6V68.12H43.9165V77H42.8125V75.764C42.5965 76.156 42.2765 76.48 41.8525 76.736C41.4285 76.984 40.9325 77.108 40.3645 77.108C39.7805 77.108 39.2485 76.964 38.7685 76.676C38.2965 76.388 37.9245 75.984 37.6525 75.464C37.3805 74.944 37.2445 74.352 37.2445 73.688ZM42.8125 73.7C42.8125 73.204 42.7125 72.772 42.5125 72.404C42.3125 72.036 42.0405 71.756 41.6965 71.564C41.3605 71.364 40.9885 71.264 40.5805 71.264C40.1725 71.264 39.8005 71.36 39.4645 71.552C39.1285 71.744 38.8605 72.024 38.6605 72.392C38.4605 72.76 38.3605 73.192 38.3605 73.688C38.3605 74.192 38.4605 74.632 38.6605 75.008C38.8605 75.376 39.1285 75.66 39.4645 75.86C39.8005 76.052 40.1725 76.148 40.5805 76.148C40.9885 76.148 41.3605 76.052 41.6965 75.86C42.0405 75.66 42.3125 75.376 42.5125 75.008C42.7125 74.632 42.8125 74.196 42.8125 73.7ZM46.3259 69.356C46.1179 69.356 45.9419 69.284 45.7979 69.14C45.6539 68.996 45.5819 68.82 45.5819 68.612C45.5819 68.404 45.6539 68.228 45.7979 68.084C45.9419 67.94 46.1179 67.868 46.3259 67.868C46.5259 67.868 46.6939 67.94 46.8299 68.084C46.9739 68.228 47.0459 68.404 47.0459 68.612C47.0459 68.82 46.9739 68.996 46.8299 69.14C46.6939 69.284 46.5259 69.356 46.3259 69.356ZM46.8539 70.424V77H45.7619V70.424H46.8539ZM48.307 73.688C48.307 73.016 48.443 72.428 48.715 71.924C48.987 71.412 49.359 71.016 49.831 70.736C50.311 70.456 50.843 70.316 51.427 70.316C52.003 70.316 52.503 70.44 52.927 70.688C53.351 70.936 53.667 71.248 53.875 71.624V70.424H54.979V77H53.875V75.776C53.659 76.16 53.335 76.48 52.903 76.736C52.479 76.984 51.983 77.108 51.415 77.108C50.831 77.108 50.303 76.964 49.831 76.676C49.359 76.388 48.987 75.984 48.715 75.464C48.443 74.944 48.307 74.352 48.307 73.688ZM53.875 73.7C53.875 73.204 53.775 72.772 53.575 72.404C53.375 72.036 53.103 71.756 52.759 71.564C52.423 71.364 52.051 71.264 51.643 71.264C51.235 71.264 50.863 71.36 50.527 71.552C50.191 71.744 49.923 72.024 49.723 72.392C49.523 72.76 49.423 73.192 49.423 73.688C49.423 74.192 49.523 74.632 49.723 75.008C49.923 75.376 50.191 75.66 50.527 75.86C50.863 76.052 51.235 76.148 51.643 76.148C52.051 76.148 52.423 76.052 52.759 75.86C53.103 75.66 53.375 75.376 53.575 75.008C53.775 74.632 53.875 74.196 53.875 73.7Z" fill="#515151"/>
</svg>
