<svg width="82" height="70" viewBox="0 0 82 70" fill="none" xmlns="http://www.w3.org/2000/svg">
<rect width="82" height="70" rx="4" fill="white" fill-opacity="0.1"/>
<path d="M31.8121 6.17553C33.3956 8.40291 34.9617 10.5955 36.5278 12.7881C37.9025 11.4133 39.2773 10.0386 40.652 8.66393C40.8086 8.50732 41.0696 8.50732 41.2262 8.66393C42.6531 10.0908 44.0104 11.4655 45.42 12.8577C47.0731 10.5607 48.674 8.29849 50.3097 6.00151C50.3967 5.8797 50.5707 5.8797 50.6577 6.00151C51.406 7.02819 54.3295 11.1175 55.8434 13.2405C55.9304 13.3623 56 13.5363 56 13.6929C56 20.114 56 32.2254 56 35.3402C56 35.7578 55.6694 36.0885 55.2517 36.0885H26.6787C26.3132 36.0885 26 35.7926 26 35.4098C26 32.4168 26 20.1662 26 13.7451C26 13.5885 26.0348 13.4145 26.1218 13.2927C27.5835 11.2393 30.2981 7.44582 31.203 6.19293C31.3422 5.98411 31.6554 5.98411 31.7947 6.19293L31.8121 6.17553ZM31.9165 11.0479C31.7077 10.7695 31.3074 10.7695 31.0986 11.0479C30.2285 12.2486 28.2274 15.0502 27.1137 16.6164C27.0267 16.7382 27.0093 16.9122 27.0093 17.0514C27.0093 22.15 27.0093 31.7904 27.0093 34.418C27.0093 34.7834 27.3051 35.0966 27.6879 35.0966H29.5151C29.5151 34.9748 29.5151 34.8704 29.5151 34.7834C29.5151 33.9133 29.5151 33.0259 29.5151 32.1558C29.5151 31.0073 30.4025 30.1199 31.5162 30.1199C32.6299 30.1199 33.5 31.0073 33.5174 32.1732C33.5174 33.0433 33.5174 33.9307 33.5174 34.8008C33.5174 34.9052 33.5174 35.0096 33.5174 35.0966H35.9884C35.9884 35.0966 35.9884 34.9748 35.9884 34.9226C35.9884 28.9539 35.9884 22.9679 35.9884 16.9992C35.9884 16.86 35.9188 16.7034 35.8318 16.5816C34.7355 15.0328 33.6392 13.5015 32.5255 11.9528C32.3167 11.657 32.1079 11.3785 31.8991 11.0827L31.9165 11.0479ZM54.2425 35.0792C54.6601 35.0792 54.9907 34.7486 54.9907 34.3309C54.9907 31.6164 54.9907 22.0803 54.9907 16.9992C54.9907 16.8426 54.9211 16.6512 54.8341 16.5294C53.6508 14.8588 51.3364 11.6222 50.6751 10.7173C50.5881 10.5955 50.4141 10.5955 50.3271 10.7173C49.6833 11.6222 47.3689 14.8588 46.1856 16.5294C46.0812 16.6686 46.0116 16.8948 46.0116 17.0688C46.0116 22.9679 46.0116 28.8495 46.0116 34.7486V35.0792H49.5093C49.5093 34.0525 49.5093 33.0607 49.5093 32.0514C49.5093 31.0421 50.3097 30.2069 51.319 30.1025C52.3282 30.0155 53.2506 30.6767 53.4594 31.6686C53.4942 31.8774 53.5116 32.0862 53.5116 32.295C53.5116 33.2173 53.5116 34.1395 53.5116 35.0792H54.2773H54.2425ZM41.2784 13.1013C41.1218 12.9447 40.8608 12.9447 40.7042 13.1013C39.9907 13.7973 38.1462 15.6419 37.1717 16.6164C37.0325 16.7556 36.9803 16.9122 36.9803 17.1036C36.9803 22.9853 36.9803 28.8669 36.9803 34.7486V35.0792H38.4768V30.1199H43.471V35.0792H44.9676C44.9676 34.9922 44.9676 34.9226 44.9676 34.853C44.9676 28.9191 44.9676 22.9853 44.9676 17.0514C44.9676 16.9122 44.898 16.7556 44.7934 16.6512C44.2018 16.0421 43.6102 15.4505 43.0185 14.8588C42.4443 14.2846 41.87 13.7103 41.2784 13.1187V13.1013ZM41.2784 10.1256C41.1218 9.96903 40.8782 9.96903 40.7216 10.1256C40.0081 10.8217 38.1288 12.6836 37.1195 13.7103C37.0673 13.7625 36.9977 13.8495 36.9977 13.9191C36.9977 14.389 36.9977 14.8588 36.9977 15.4157C38.268 14.1454 39.4861 12.9273 40.739 11.6744C40.8956 11.5177 41.1566 11.5177 41.3132 11.6744C42.5487 12.9099 43.7668 14.128 45.0024 15.3635C45.0024 14.9284 45.0024 14.5108 45.0024 14.0932C45.0024 13.9539 44.9154 13.7625 44.8282 13.6755C43.8712 12.701 42.0093 10.8565 41.3132 10.1604L41.2784 10.1256ZM31.8991 9.32518C33.2564 11.2219 34.5963 13.1013 35.9188 14.9632C35.971 14.7022 35.9536 14.4586 35.9884 14.215C36.0232 13.9017 35.9014 13.6407 35.7274 13.3797C34.6311 11.8484 32.5603 8.95974 31.7947 7.89826C31.6554 7.68945 31.3422 7.68945 31.203 7.89826C30.4547 8.95974 28.4536 11.7614 27.3573 13.2231C26.9397 13.7799 26.9919 14.3368 27.0093 15.0154C28.384 13.0839 29.7239 11.2219 31.0812 9.30778C31.29 9.02935 31.7077 9.02935 31.8991 9.30778V9.32518ZM50.6577 8.99455C52.102 11.0131 53.5116 12.9795 54.9211 14.9632C54.9907 14.7196 54.9733 14.476 54.9907 14.2498C55.0255 13.9191 54.9037 13.6581 54.7123 13.3971C53.5464 11.7788 51.3016 8.64652 50.6577 7.74165C50.5707 7.61985 50.3967 7.61985 50.3097 7.74165C49.6659 8.62912 47.4385 11.7788 46.2552 13.3797C45.8724 13.9017 46.0464 14.4238 46.0464 14.9632C47.4559 12.9795 48.8654 11.0131 50.3097 8.99455C50.3967 8.87274 50.5707 8.87274 50.6577 8.99455ZM52.485 35.0792C52.485 34.9922 52.485 34.9052 52.485 34.8182C52.485 33.9481 52.485 33.0781 52.485 32.1906C52.485 31.5294 52.0672 31.0769 51.4756 31.0769C50.9013 31.0769 50.4837 31.5294 50.4837 32.1732C50.4837 33.0607 50.4837 33.9481 50.4837 34.8182C50.4837 34.9052 50.4837 34.9748 50.5011 35.0618H52.485V35.0792ZM32.4907 35.0792C32.4907 34.0699 32.4907 33.1129 32.4907 32.1384C32.4907 31.5294 32.0557 31.0943 31.4814 31.0943C30.9072 31.0943 30.4896 31.5468 30.4896 32.1558C30.4896 33.0607 30.4896 33.9655 30.4896 34.8704C30.4896 34.94 30.4896 35.0096 30.507 35.0792H32.4733H32.4907ZM39.5035 35.0792H40.4606V31.1117H39.5035V35.0792ZM42.4617 35.0792V31.1117H41.5046V35.0792H42.4617Z" fill="#515151"/>
<path d="M32.9778 19.5911H30.0195V14.6143H32.9778V19.5911ZM31.0288 15.6235V16.5806H31.9859V15.6235H31.0288ZM31.0288 18.5818H32.0033V17.6247H31.0288V18.5818Z" fill="#515151"/>
<path d="M29.4766 21.6268C29.4766 21.3578 29.2624 21.1396 28.9981 21.1396C28.7338 21.1396 28.5195 21.3578 28.5195 21.6268V24.1153C28.5195 24.3843 28.7338 24.6025 28.9981 24.6025C29.2624 24.6025 29.4766 24.3843 29.4766 24.1153V21.6268Z" fill="#515151"/>
<path d="M31.9844 21.6102C31.9844 21.3412 31.7702 21.123 31.5059 21.123C31.2416 21.123 31.0273 21.3412 31.0273 21.6102V24.0987C31.0273 24.3677 31.2416 24.5859 31.5059 24.5859C31.7702 24.5859 31.9844 24.3677 31.9844 24.0987V21.6102Z" fill="#515151"/>
<path d="M29.4766 26.1161C29.4766 25.8471 29.2624 25.6289 28.9981 25.6289C28.7338 25.6289 28.5195 25.8471 28.5195 26.1161V28.6045C28.5195 28.8736 28.7338 29.0917 28.9981 29.0917C29.2624 29.0917 29.4766 28.8736 29.4766 28.6045V26.1161Z" fill="#515151"/>
<path d="M31.9844 26.1161C31.9844 25.8471 31.7702 25.6289 31.5059 25.6289C31.2416 25.6289 31.0273 25.8471 31.0273 26.1161V28.6045C31.0273 28.8736 31.2416 29.0917 31.5059 29.0917C31.7702 29.0917 31.9844 28.8736 31.9844 28.6045V26.1161Z" fill="#515151"/>
<path d="M34.4766 26.1161C34.4766 25.8471 34.2624 25.6289 33.9981 25.6289C33.7338 25.6289 33.5195 25.8471 33.5195 26.1161V28.6045C33.5195 28.8736 33.7338 29.0917 33.9981 29.0917C34.2624 29.0917 34.4766 28.8736 34.4766 28.6045V26.1161Z" fill="#515151"/>
<path d="M34.4766 21.6268C34.4766 21.3578 34.2624 21.1396 33.9981 21.1396C33.7338 21.1396 33.5195 21.3578 33.5195 21.6268V24.1153C33.5195 24.3843 33.7338 24.6025 33.9981 24.6025C34.2624 24.6025 34.4766 24.3843 34.4766 24.1153V21.6268Z" fill="#515151"/>
<path d="M49.0195 14.6318H51.9778V19.5912H49.0195V14.6318ZM50.0113 15.6237V16.5808H50.9685V15.6237H50.0113ZM50.9859 17.6249H50.0113V18.5819H50.9859V17.6249Z" fill="#515151"/>
<path d="M48.4806 21.6102C48.4806 21.3412 48.2662 21.123 48.002 21.123C47.7376 21.123 47.5234 21.3412 47.5234 21.6102V24.0987C47.5234 24.3677 47.7376 24.5859 48.002 24.5859C48.2662 24.5859 48.4806 24.3677 48.4806 24.0987V21.6102Z" fill="#515151"/>
<path d="M50.4845 21.6102C50.4845 21.3412 50.2701 21.123 50.0059 21.123C49.7415 21.123 49.5273 21.3412 49.5273 21.6102V24.0987C49.5273 24.3677 49.7415 24.5859 50.0059 24.5859C50.2701 24.5859 50.4845 24.3677 50.4845 24.0987V21.6102Z" fill="#515151"/>
<path d="M53.4767 21.6268C53.4767 21.3578 53.2625 21.1396 52.9981 21.1396C52.7339 21.1396 52.5195 21.3578 52.5195 21.6268V24.1153C52.5195 24.3843 52.7339 24.6025 52.9981 24.6025C53.2625 24.6025 53.4767 24.3843 53.4767 24.1153V21.6268Z" fill="#515151"/>
<path d="M48.4609 26.1161C48.4609 25.8471 48.2467 25.6289 47.9823 25.6289C47.7181 25.6289 47.5039 25.8471 47.5039 26.1161V28.6045C47.5039 28.8736 47.7181 29.0917 47.9823 29.0917C48.2467 29.0917 48.4609 28.8736 48.4609 28.6045V26.1161Z" fill="#515151"/>
<path d="M50.4648 26.1161C50.4648 25.8471 50.2506 25.6289 49.9863 25.6289C49.722 25.6289 49.5078 25.8471 49.5078 26.1161V28.6045C49.5078 28.8736 49.722 29.0917 49.9863 29.0917C50.2506 29.0917 50.4648 28.8736 50.4648 28.6045V26.1161Z" fill="#515151"/>
<path d="M53.4767 26.1161C53.4767 25.8471 53.2625 25.6289 52.9981 25.6289C52.7339 25.6289 52.5195 25.8471 52.5195 26.1161V28.6045C52.5195 28.8736 52.7339 29.0917 52.9981 29.0917C53.2625 29.0917 53.4767 28.8736 53.4767 28.6045V26.1161Z" fill="#515151"/>
<path d="M48.4609 31.1113C48.4609 30.8422 48.2467 30.624 47.9823 30.624C47.7181 30.624 47.5039 30.8422 47.5039 31.1113V33.0951C47.5039 33.3642 47.7181 33.5823 47.9823 33.5823C48.2467 33.5823 48.4609 33.3642 48.4609 33.0951V31.1113Z" fill="#515151"/>
<path d="M41.0004 19.6093C40.1652 19.6093 39.5039 18.9306 39.5039 18.0954C39.5039 17.2775 40.1826 16.6162 41.0004 16.6162C41.8357 16.6162 42.5143 17.2949 42.4969 18.1302C42.4969 18.948 41.8183 19.6093 41.0004 19.6093ZM41.4877 18.1128C41.4877 17.8517 41.2614 17.6255 41.0004 17.6081C40.722 17.6081 40.4784 17.8343 40.4958 18.1128C40.4958 18.3738 40.7394 18.6 41.0004 18.6C41.2614 18.6 41.4877 18.3738 41.4877 18.0954V18.1128Z" fill="#515151"/>
<path d="M39.4845 26.1161C39.4845 25.8471 39.2701 25.6289 39.0059 25.6289C38.7415 25.6289 38.5273 25.8471 38.5273 26.1161V28.6045C38.5273 28.8736 38.7415 29.0917 39.0059 29.0917C39.2701 29.0917 39.4845 28.8736 39.4845 28.6045V26.1161Z" fill="#515151"/>
<path d="M43.4688 26.1161C43.4688 25.8471 43.2545 25.6289 42.9903 25.6289C42.7259 25.6289 42.5117 25.8471 42.5117 26.1161V28.6045C42.5117 28.8736 42.7259 29.0917 42.9903 29.0917C43.2545 29.0917 43.4688 28.8736 43.4688 28.6045V26.1161Z" fill="#515151"/>
<path d="M43.4688 21.6268C43.4688 21.3578 43.2545 21.1396 42.9903 21.1396C42.7259 21.1396 42.5117 21.3578 42.5117 21.6268V24.1153C42.5117 24.3843 42.7259 24.6025 42.9903 24.6025C43.2545 24.6025 43.4688 24.3843 43.4688 24.1153V21.6268Z" fill="#515151"/>
<path d="M39.4687 21.6268C39.4687 21.3578 39.2545 21.1396 38.9903 21.1396C38.7259 21.1396 38.5117 21.3578 38.5117 21.6268V24.1153C38.5117 24.3843 38.7259 24.6025 38.9903 24.6025C39.2545 24.6025 39.4687 24.3843 39.4687 24.1153V21.6268Z" fill="#515151"/>
<path d="M25.8477 59H24.7557L20.3637 52.34V59H19.2717V50.624H20.3637L24.7557 57.272V50.624H25.8477V59ZM30.5772 59.108C29.9612 59.108 29.4012 58.968 28.8972 58.688C28.4012 58.408 28.0092 58.012 27.7212 57.5C27.4412 56.98 27.3012 56.38 27.3012 55.7C27.3012 55.028 27.4452 54.436 27.7332 53.924C28.0292 53.404 28.4292 53.008 28.9332 52.736C29.4372 52.456 30.0012 52.316 30.6252 52.316C31.2492 52.316 31.8132 52.456 32.3172 52.736C32.8212 53.008 33.2172 53.4 33.5052 53.912C33.8012 54.424 33.9492 55.02 33.9492 55.7C33.9492 56.38 33.7972 56.98 33.4932 57.5C33.1972 58.012 32.7932 58.408 32.2812 58.688C31.7692 58.968 31.2012 59.108 30.5772 59.108ZM30.5772 58.148C30.9692 58.148 31.3372 58.056 31.6812 57.872C32.0252 57.688 32.3012 57.412 32.5092 57.044C32.7252 56.676 32.8332 56.228 32.8332 55.7C32.8332 55.172 32.7292 54.724 32.5212 54.356C32.3132 53.988 32.0412 53.716 31.7052 53.54C31.3692 53.356 31.0052 53.264 30.6132 53.264C30.2132 53.264 29.8452 53.356 29.5092 53.54C29.1812 53.716 28.9172 53.988 28.7172 54.356C28.5172 54.724 28.4172 55.172 28.4172 55.7C28.4172 56.236 28.5132 56.688 28.7052 57.056C28.9052 57.424 29.1692 57.7 29.4972 57.884C29.8252 58.06 30.1852 58.148 30.5772 58.148ZM36.4769 53.492C36.6689 53.116 36.9409 52.824 37.2929 52.616C37.6529 52.408 38.0889 52.304 38.6009 52.304V53.432H38.3129C37.0889 53.432 36.4769 54.096 36.4769 55.424V59H35.3849V52.424H36.4769V53.492ZM48.6215 52.424L46.5695 59H45.4415L43.8575 53.78L42.2735 59H41.1455L39.0815 52.424H40.1975L41.7095 57.944L43.3415 52.424H44.4575L46.0535 57.956L47.5415 52.424H48.6215ZM49.2973 55.688C49.2973 55.016 49.4333 54.428 49.7053 53.924C49.9773 53.412 50.3493 53.016 50.8213 52.736C51.3013 52.456 51.8333 52.316 52.4173 52.316C52.9933 52.316 53.4933 52.44 53.9173 52.688C54.3413 52.936 54.6573 53.248 54.8653 53.624V52.424H55.9693V59H54.8653V57.776C54.6493 58.16 54.3253 58.48 53.8933 58.736C53.4693 58.984 52.9733 59.108 52.4053 59.108C51.8213 59.108 51.2933 58.964 50.8213 58.676C50.3493 58.388 49.9773 57.984 49.7053 57.464C49.4333 56.944 49.2973 56.352 49.2973 55.688ZM54.8653 55.7C54.8653 55.204 54.7653 54.772 54.5653 54.404C54.3653 54.036 54.0933 53.756 53.7493 53.564C53.4133 53.364 53.0413 53.264 52.6333 53.264C52.2253 53.264 51.8533 53.36 51.5173 53.552C51.1813 53.744 50.9133 54.024 50.7133 54.392C50.5133 54.76 50.4133 55.192 50.4133 55.688C50.4133 56.192 50.5133 56.632 50.7133 57.008C50.9133 57.376 51.1813 57.66 51.5173 57.86C51.8533 58.052 52.2253 58.148 52.6333 58.148C53.0413 58.148 53.4133 58.052 53.7493 57.86C54.0933 57.66 54.3653 57.376 54.5653 57.008C54.7653 56.632 54.8653 56.196 54.8653 55.7ZM63.4786 52.424L59.5186 62.096H58.3906L59.6866 58.928L57.0346 52.424H58.2466L60.3106 57.752L62.3506 52.424H63.4786Z" fill="#515151"/>
</svg>
