<svg width="82" height="70" viewBox="0 0 82 70" fill="none" xmlns="http://www.w3.org/2000/svg">
<rect width="82" height="70" rx="4" fill="white" fill-opacity="0.1"/>
<path d="M55.0705 35.0052V33.8941C55.0705 33.7089 54.9162 33.5237 54.7619 33.5237H54.1137V18.8015C54.1137 18.2459 53.8051 17.2274 52.7557 17.1966H52.7249C52.4162 17.1966 52.1693 17.2892 51.9841 17.4435V16.2089C51.9841 16.1472 51.9841 16.1163 51.9531 16.0546C51.9223 16.0237 51.552 15.0669 50.6877 14.8817V13.9558C50.6877 13.7706 50.5334 13.5855 50.3791 13.5855C50.2248 13.5855 50.0705 13.7398 50.0705 13.9558V14.8817C49.7927 14.9435 49.5767 15.0669 49.3915 15.2213V14.3262C49.3915 14.141 49.2372 13.9558 49.0829 13.9558H47.7248V12.2583C47.7248 12.1966 47.7248 12.1348 47.694 12.0731C47.663 12.0422 47.2001 11.1163 46.2125 10.9311V10.0052C46.2125 9.82002 46.0581 9.63484 45.9038 9.63484C45.7495 9.63484 45.5952 9.78916 45.5952 10.0052V10.9929C44.8544 11.1163 44.4223 11.641 44.2371 11.9497H42.9099V11.178C42.9099 11.1163 42.9099 11.0546 42.8791 10.9929C42.8483 10.962 42.3545 10.0052 41.3667 9.82002V8.77064C41.3667 8.58545 41.2124 8.40027 41.0581 8.40027C40.8729 8.40027 40.7495 8.55459 40.7495 8.77064V9.7583C39.6692 9.91262 39.1754 10.9311 39.1754 10.962C39.0828 11.0237 39.0828 11.0854 39.0828 11.1472V11.9188H37.7865C37.6013 11.641 37.1384 11.0854 36.4285 10.962V10.0052C36.4285 9.82002 36.2742 9.63484 36.1199 9.63484C35.9655 9.63484 35.8112 9.78916 35.8112 10.0052V10.9929C34.8236 11.1472 34.3606 12.104 34.3297 12.1348C34.2989 12.1966 34.2989 12.2583 34.2989 12.32V14.0176H32.91C32.7248 14.0176 32.6013 14.1719 32.6013 14.3879V15.283C32.4161 15.1287 32.2001 15.0052 31.9223 14.9435V14.0176C31.9223 13.8324 31.768 13.6472 31.6137 13.6472C31.4285 13.6472 31.305 13.8015 31.305 14.0176V14.9435C30.4408 15.1287 30.0396 16.0546 30.0396 16.1163C30.0087 16.178 30.0087 16.2089 30.0087 16.2706V17.5052C29.8236 17.3509 29.5458 17.2583 29.2371 17.2583C28.1878 17.2892 27.8791 18.3077 27.8791 18.8632V33.5855H27.231C27.0458 33.5855 26.9223 33.7398 26.9223 33.9558V35.0669H26.8606C26.8915 35.1287 26.9223 35.2212 26.9223 35.283C27.0149 35.4373 27.1075 35.5917 27.1692 35.7768H55.0397C55.0705 35.5917 55.1322 35.4373 55.194 35.2521C55.194 35.1904 55.194 35.0977 55.2248 35.0361L55.0705 35.0052ZM51.9841 18.7707C52.0149 18.5545 52.1384 17.9064 52.7249 17.9064C52.7249 17.9064 52.7249 17.9064 52.7557 17.9064C53.4347 17.9064 53.4965 18.6472 53.4965 18.7707V20.3755C53.2803 20.2212 53.0335 20.1287 52.7249 20.1287C52.4162 20.1287 52.1693 20.2212 51.9841 20.3755V18.7707ZM51.9841 24.5422V21.3633C52.0766 21.2089 52.2927 20.8693 52.7249 20.8693C53.126 20.8693 53.4038 21.2398 53.4965 21.3941V27.4744H51.9841V24.5422ZM51.9841 28.215H53.4965V28.9866H51.9841V28.215ZM51.9841 31.7027V29.6966H53.4965V33.4929H51.9841V31.7027ZM49.3915 16.3015C49.484 16.1163 49.8236 15.5916 50.3791 15.5916C50.9347 15.5916 51.2433 16.1163 51.3359 16.3015V18.7398C51.3359 18.7398 51.3359 18.7707 51.3359 18.8015C51.3359 18.8323 51.3359 18.8323 51.3359 18.8632V19.5731C51.1199 19.3571 50.7804 19.2028 50.3791 19.2028C49.9779 19.2028 49.6383 19.3879 49.3915 19.6039V16.3015ZM49.3915 20.6533C49.484 20.4682 49.8236 19.9126 50.3791 19.9126C50.9347 19.9126 51.2742 20.4373 51.3359 20.6225V21.2089C51.3359 21.2398 51.3359 21.2706 51.3359 21.2706V23.5237C51.089 23.3076 50.7804 23.1533 50.3791 23.1533C49.9779 23.1533 49.6383 23.3386 49.3915 23.5546V20.6533ZM49.3915 24.6348C49.484 24.4497 49.8236 23.8941 50.3791 23.8941C50.9347 23.8941 51.2742 24.4188 51.3359 24.604V27.4434H49.3607C49.3915 27.4744 49.3915 24.6348 49.3915 24.6348ZM49.3915 28.215H51.3668V28.9866H49.3915V28.215ZM49.3915 29.7274H51.3668V30.746C51.1199 30.53 50.8112 30.3756 50.4099 30.3756C50.0088 30.3756 49.6693 30.5608 49.4223 30.7768L49.3915 29.7274ZM49.3915 31.8262C49.484 31.641 49.8236 31.0854 50.3791 31.0854C50.9347 31.0854 51.2742 31.6102 51.3359 31.7953V33.4929H49.3607C49.3915 33.5237 49.3915 31.8262 49.3915 31.8262ZM47.694 14.7274H48.7434V27.4744H47.694V14.7274ZM47.694 28.215H48.7434V28.9866H47.694V28.215ZM47.694 31.7645C47.694 31.7335 47.694 31.7027 47.694 31.6719V29.7274H48.7434V33.5237H47.694V31.7645ZM44.7001 12.4126C44.8236 12.2274 45.1939 11.6719 45.873 11.6719C46.5519 11.6719 46.9532 12.1966 47.0767 12.4126V15.6225C46.7989 15.4064 46.3976 15.1904 45.873 15.1904C45.3482 15.1904 44.9779 15.4064 44.7001 15.6225V12.4126ZM44.7001 16.641C44.8236 16.4558 45.1939 15.9003 45.873 15.9003C46.5828 15.9003 46.9841 16.4558 47.0767 16.641V19.3879C46.7989 19.141 46.3976 18.925 45.873 18.925C45.3482 18.925 44.9779 19.141 44.7001 19.3571V16.641ZM44.7001 20.3755C44.8236 20.1904 45.1939 19.6348 45.873 19.6348C46.5828 19.6348 46.9841 20.1904 47.0767 20.3755V23.5237C46.7989 23.2768 46.3976 23.0608 45.873 23.0608C45.3482 23.0608 44.9779 23.2768 44.7001 23.4929C44.7001 23.5237 44.7001 20.3755 44.7001 20.3755ZM44.7001 24.5114C44.8236 24.3262 45.1939 23.7706 45.873 23.7706C46.5828 23.7706 46.9841 24.3262 47.0767 24.5114V27.4744H44.6693C44.7001 27.4744 44.7001 24.5114 44.7001 24.5114ZM44.7001 28.215H47.1075V28.9866H44.7001V28.215ZM44.7001 29.7274H47.1075V30.8386C46.8297 30.5916 46.4285 30.3756 45.9038 30.3756C45.3792 30.3756 45.0087 30.5916 44.7309 30.8386L44.7001 29.7274ZM44.7001 31.857C44.7927 31.6719 45.1631 31.1163 45.873 31.1163C46.5828 31.1163 46.9532 31.641 47.0767 31.857V33.5237H44.6693C44.7001 33.5237 44.7001 31.857 44.7001 31.857ZM42.8791 12.6595H44.052V27.4744H42.8791V12.6595ZM42.8791 28.215H44.052V28.9866H42.8791V28.215ZM42.8791 29.7274H44.052V33.5237H42.8791V29.7274ZM39.7001 11.2706C39.8235 11.0546 40.2248 10.499 40.9656 10.499C41.7063 10.499 42.1383 11.0854 42.2618 11.3015V14.7274C41.9532 14.4496 41.5211 14.2336 40.9656 14.2336C40.41 14.2336 40.0087 14.4496 39.7001 14.7274V11.2706ZM39.7001 15.7151C39.8235 15.5299 40.2248 14.9435 40.9656 14.9435C41.7063 14.9435 42.1383 15.5299 42.2618 15.7459V18.678C41.9532 18.4002 41.5211 18.1842 40.9656 18.1842C40.41 18.1842 40.0087 18.4002 39.7001 18.678C39.7001 18.6472 39.7001 15.7151 39.7001 15.7151ZM39.7001 19.6657C39.8235 19.4805 40.2248 18.8941 40.9656 18.8941C41.7063 18.8941 42.1383 19.4805 42.2618 19.6966V23.0608C41.9532 22.783 41.5211 22.567 40.9656 22.567C40.41 22.567 40.0087 22.783 39.7001 23.0608C39.7001 22.999 39.7001 19.6657 39.7001 19.6657ZM39.7001 24.0175C39.8235 23.8324 40.2248 23.2459 40.9656 23.2459C41.7063 23.2459 42.1383 23.8324 42.2618 24.0484V27.5052H39.7001C39.7001 27.4744 39.7001 24.0175 39.7001 24.0175ZM39.7001 28.215H42.2618V28.9866H39.7001V28.215ZM39.7001 29.7274H42.2618V30.9311C41.9532 30.6533 41.552 30.4065 40.9656 30.4065C40.3791 30.4065 40.0087 30.6533 39.7001 30.9311V29.7274ZM39.7001 31.9497C39.7001 31.9188 39.731 31.9188 39.731 31.8879C39.731 31.8879 40.1013 31.0854 40.9346 31.0854C41.768 31.0854 42.1693 31.857 42.2001 31.8879C42.2001 31.9188 42.231 31.9188 42.231 31.9497V33.4929H39.7001V31.9497ZM37.91 12.6904H39.0828V27.5052H37.9408V12.6904H37.91ZM37.91 28.215H39.0828V28.9866H37.9408V28.215H37.91ZM37.91 29.7274H39.0828V33.5237H37.9408V29.7274H37.91ZM34.9162 12.4126C35.0396 12.2274 35.41 11.6719 36.089 11.6719C36.768 11.6719 37.1692 12.1966 37.2927 12.4126V15.6225C37.0149 15.4064 36.6137 15.1904 36.089 15.1904C35.5643 15.1904 35.1939 15.4064 34.9162 15.6225V12.4126ZM34.9162 16.641C35.0396 16.4558 35.41 15.9003 36.089 15.9003C36.768 15.9003 37.2001 16.4558 37.2927 16.641V19.3879C37.0149 19.141 36.6137 18.925 36.089 18.925C35.5643 18.925 35.1939 19.141 34.9162 19.3571V16.641ZM34.9162 20.3755C35.0396 20.1904 35.41 19.6348 36.089 19.6348C36.768 19.6348 37.2001 20.1904 37.2927 20.3755V23.5237C37.0149 23.2768 36.6137 23.0608 36.089 23.0608C35.5643 23.0608 35.1939 23.2768 34.9162 23.4929V20.3755ZM34.9162 24.5422C35.0396 24.357 35.41 23.8015 36.089 23.8015C36.768 23.8015 37.2001 24.357 37.2927 24.5422V27.5052H34.8853C34.9162 27.4744 34.9162 24.5422 34.9162 24.5422ZM34.9162 28.215H37.3236V28.9866H34.9162V28.215ZM34.9162 29.7274H37.3236V30.8386C37.0458 30.5916 36.6446 30.3756 36.1199 30.3756C35.5952 30.3756 35.2248 30.5916 34.947 30.8076C34.9162 30.8386 34.9162 29.7274 34.9162 29.7274ZM34.9162 31.857C35.0087 31.6719 35.41 31.1163 36.089 31.1163C36.768 31.1163 37.2001 31.6719 37.2927 31.857V33.5237H34.8853L34.9162 31.857ZM33.2186 14.7274H34.268V27.4744H33.2186C33.2186 27.5052 33.2186 14.7274 33.2186 14.7274ZM33.2186 28.215H34.268V28.9866H33.2186V28.215ZM33.2186 29.7274H34.268V33.5237H33.2186V29.7274ZM30.626 18.8632C30.626 18.8632 30.626 18.8323 30.626 18.8015C30.626 18.8015 30.626 18.7707 30.626 18.7398V16.3015C30.7186 16.1163 31.0273 15.5916 31.5828 15.5916C32.1384 15.5916 32.4779 16.1163 32.5705 16.3015V19.5731C32.3236 19.3571 31.9841 19.1718 31.5828 19.1718C31.1816 19.1718 30.8421 19.3261 30.626 19.5423V18.8632ZM30.626 21.3323C30.626 21.3015 30.626 21.2706 30.626 21.2398V20.6533C30.7186 20.4682 31.0273 19.9434 31.5828 19.9434C32.1384 19.9434 32.4779 20.4682 32.5705 20.6842V23.6163C32.3236 23.4003 31.9841 23.2151 31.5828 23.2151C31.1816 23.2151 30.8421 23.3694 30.626 23.5854V21.3323ZM30.626 24.6348C30.7186 24.4497 31.0273 23.9249 31.5828 23.9249C32.1384 23.9249 32.4779 24.4497 32.5705 24.6657V27.5052H30.5952C30.626 27.5052 30.626 24.6348 30.626 24.6348ZM30.626 28.215H32.6013V28.9866H30.626V28.215ZM30.626 29.7274H32.6013V30.7768C32.3544 30.5608 32.0149 30.3756 31.6137 30.3756C31.2125 30.3756 30.8729 30.53 30.6569 30.746V29.7274H30.626ZM30.626 31.8262C30.7186 31.641 31.0273 31.1163 31.5828 31.1163C32.1384 31.1163 32.4779 31.641 32.5705 31.857V33.5546H30.5952C30.626 33.5237 30.626 31.8262 30.626 31.8262ZM28.4964 18.8015C28.4964 18.7089 28.5273 17.9373 29.2371 17.9064C29.2371 17.9064 29.2371 17.9064 29.268 17.9064C29.8544 17.9064 29.9779 18.5545 30.0087 18.7707V20.4064C29.7927 20.2521 29.5458 20.1595 29.2371 20.1595C28.9285 20.1595 28.6816 20.2521 28.4964 20.4064V18.8015ZM28.4964 21.3941C28.589 21.2398 28.805 20.8693 29.2371 20.8693C29.6692 20.8693 29.9162 21.2089 30.0087 21.3633V24.5114V27.4744H28.4964V21.3941ZM28.4964 28.215H30.0087V28.9866H28.4964V28.215ZM28.4964 29.7274H30.0087V31.7336V33.5237H28.4964V29.7274ZM54.4532 35.0052H27.5396V34.2336H54.4841V35.0052H54.4532Z" fill="#515151"/>
<path d="M31.6165 24.8816C31.4313 24.8816 31.3079 25.0359 31.3079 25.2519V26.4248C31.3079 26.61 31.4622 26.7951 31.6165 26.7951C31.8017 26.7951 31.9251 26.6408 31.9251 26.4248V25.2519C31.9251 25.0668 31.8017 24.8816 31.6165 24.8816Z" fill="#515151"/>
<path d="M29.2387 21.3935C29.0844 21.3935 28.9609 21.5478 28.9609 21.733V22.5046C28.9609 22.6897 29.0844 22.8441 29.2387 22.8441C29.393 22.8441 29.5165 22.6897 29.5165 22.5046V21.733C29.5474 21.5478 29.393 21.3935 29.2387 21.3935Z" fill="#515151"/>
<path d="M29.2387 18.4003C29.0844 18.4003 28.9609 18.5546 28.9609 18.7397V19.5113C28.9609 19.6965 29.0844 19.8508 29.2387 19.8508C29.393 19.8508 29.5165 19.6965 29.5165 19.5113V18.7397C29.5474 18.5236 29.393 18.4003 29.2387 18.4003Z" fill="#515151"/>
<path d="M52.7269 21.3319C52.5725 21.3319 52.4182 21.4862 52.4182 21.6715V22.4739C52.4182 22.6591 52.5417 22.8134 52.7269 22.8134C52.8812 22.8134 53.0355 22.6591 53.0355 22.4739V21.6715C53.0355 21.4862 52.912 21.3319 52.7269 21.3319Z" fill="#515151"/>
<path d="M52.7272 18.4003C52.6038 18.4003 52.5112 18.5236 52.5112 18.6471V19.2335C52.5112 19.3879 52.6038 19.4805 52.7272 19.4805C52.8507 19.4805 52.9432 19.357 52.9432 19.2335V18.6471C52.9432 18.4928 52.8507 18.4003 52.7272 18.4003Z" fill="#515151"/>
<path d="M31.8325 32.1655C31.7091 32.0421 31.493 32.0421 31.4005 32.1655C31.3696 32.1964 31.3387 32.2582 31.3387 32.289C31.3387 32.3199 31.3079 32.3817 31.3079 32.4433C31.3079 32.505 31.3079 32.536 31.3387 32.5977C31.3696 32.6593 31.3696 32.6903 31.4005 32.7211C31.4622 32.7828 31.5548 32.8137 31.6165 32.8137C31.6782 32.8137 31.7708 32.7828 31.8325 32.7211C31.8634 32.6903 31.8943 32.6593 31.8943 32.5977C31.9251 32.5668 31.9251 32.505 31.9251 32.4433C31.9251 32.3817 31.9251 32.3507 31.8943 32.289C31.8943 32.2582 31.8634 32.1964 31.8325 32.1655Z" fill="#515151"/>
<path d="M35.9046 32.1658C35.8429 32.2275 35.812 32.3201 35.812 32.4126C35.812 32.5053 35.8429 32.5979 35.9046 32.6596C35.9663 32.7213 36.0281 32.7522 36.1207 32.7522C36.1515 32.7522 36.2132 32.7522 36.2441 32.7213C36.275 32.6904 36.3058 32.6904 36.3367 32.6287C36.3984 32.5669 36.4293 32.4744 36.4293 32.3818C36.4293 32.2893 36.3984 32.1966 36.3367 32.1349C36.2132 32.0423 35.9972 32.0423 35.9046 32.1658Z" fill="#515151"/>
<path d="M40.7521 32.1658C40.6904 32.2275 40.6594 32.3201 40.6594 32.4126C40.6594 32.5053 40.6904 32.5979 40.7521 32.6596C40.8137 32.7213 40.8755 32.7522 40.9681 32.7522C41.0607 32.7522 41.1224 32.7213 41.1842 32.6596C41.215 32.6287 41.2459 32.5979 41.2459 32.5361C41.2767 32.5053 41.2767 32.4436 41.2767 32.3818C41.2767 32.2893 41.2459 32.1966 41.1842 32.1349C41.0915 32.0423 40.8755 32.0423 40.7521 32.1658Z" fill="#515151"/>
<path d="M45.6883 32.1661C45.6267 32.2278 45.5957 32.3205 45.5957 32.413C45.5957 32.5056 45.6267 32.5981 45.6883 32.6599C45.75 32.7216 45.8427 32.7526 45.9043 32.7526C45.9353 32.7526 45.997 32.7526 46.0278 32.7216C46.0587 32.6908 46.0896 32.6908 46.1205 32.6291C46.1513 32.5981 46.1821 32.5673 46.1821 32.5056C46.213 32.4748 46.213 32.413 46.213 32.3513C46.213 32.2587 46.1821 32.1661 46.1205 32.1043C45.997 32.0427 45.781 32.0427 45.6883 32.1661Z" fill="#515151"/>
<path d="M36.1207 24.8816C35.9355 24.8816 35.812 25.0359 35.812 25.2519V26.4248C35.812 26.61 35.9663 26.7951 36.1207 26.7951C36.3058 26.7951 36.4293 26.6408 36.4293 26.4248V25.2519C36.4293 25.0668 36.275 24.8816 36.1207 24.8816Z" fill="#515151"/>
<path d="M40.9961 24.8816C40.811 24.8816 40.6875 25.0359 40.6875 25.2519V26.4248C40.6875 26.61 40.8418 26.7951 40.9961 26.7951C41.1505 26.7951 41.3048 26.6408 41.3048 26.4248V25.2519C41.3048 25.0668 41.1814 24.8816 40.9961 24.8816Z" fill="#515151"/>
<path d="M45.9043 24.8816C45.7192 24.8816 45.5957 25.0359 45.5957 25.2519V26.4248C45.5957 26.61 45.75 26.7951 45.9043 26.7951C46.0587 26.7951 46.213 26.6408 46.213 26.4248V25.2519C46.213 25.0668 46.0587 24.8816 45.9043 24.8816Z" fill="#515151"/>
<path d="M31.6165 20.9007C31.4313 20.9007 31.3079 21.055 31.3079 21.271V22.4439C31.3079 22.6291 31.4622 22.8142 31.6165 22.8142C31.8017 22.8142 31.9251 22.6599 31.9251 22.4439V21.271C31.9251 21.0859 31.8017 20.9007 31.6165 20.9007Z" fill="#515151"/>
<path d="M36.4293 22.0733V20.9004C36.4293 20.7153 36.275 20.5301 36.1207 20.5301C35.9355 20.5301 35.812 20.6844 35.812 20.9004V22.0733C35.812 22.2585 35.9663 22.4437 36.1207 22.4437C36.275 22.4437 36.4293 22.2585 36.4293 22.0733Z" fill="#515151"/>
<path d="M41.3048 21.5179V20.345C41.3048 20.1598 41.1505 19.9747 40.9961 19.9747C40.8418 19.9747 40.6875 20.129 40.6875 20.345V21.5179C40.6875 21.703 40.8418 21.8882 40.9961 21.8882C41.1505 21.8882 41.3048 21.7339 41.3048 21.5179Z" fill="#515151"/>
<path d="M46.213 22.0733V20.9004C46.213 20.7153 46.0587 20.5301 45.9043 20.5301C45.7192 20.5301 45.5957 20.6844 45.5957 20.9004V22.0733C45.5957 22.2585 45.75 22.4437 45.9043 22.4437C46.0587 22.4437 46.213 22.2585 46.213 22.0733Z" fill="#515151"/>
<path d="M31.6165 18.4001C31.8017 18.4001 31.9251 18.2458 31.9251 18.0298V16.8569C31.9251 16.6717 31.7708 16.4865 31.6165 16.4865C31.4313 16.4865 31.3079 16.6408 31.3079 16.8569V18.0298C31.3079 18.2458 31.4622 18.4001 31.6165 18.4001Z" fill="#515151"/>
<path d="M36.1207 16.5784C35.9355 16.5784 35.812 16.7327 35.812 16.9488V18.1216C35.812 18.3069 35.9663 18.492 36.1207 18.492C36.3058 18.492 36.4293 18.3377 36.4293 18.1216V16.9488C36.4293 16.7327 36.275 16.5784 36.1207 16.5784Z" fill="#515151"/>
<path d="M40.9961 15.7453C40.811 15.7453 40.6875 15.8996 40.6875 16.1157V17.2885C40.6875 17.4737 40.8418 17.6589 40.9961 17.6589C41.1505 17.6589 41.3048 17.5046 41.3048 17.2885V16.1157C41.3048 15.8996 41.1814 15.7453 40.9961 15.7453Z" fill="#515151"/>
<path d="M45.9043 16.5784C45.7192 16.5784 45.5957 16.7327 45.5957 16.9488V18.1216C45.5957 18.3069 45.75 18.492 45.9043 18.492C46.0587 18.492 46.213 18.3377 46.213 18.1216V16.9488C46.213 16.7327 46.0587 16.5784 45.9043 16.5784Z" fill="#515151"/>
<path d="M36.1207 14.5428C36.3058 14.5428 36.4293 14.3885 36.4293 14.1724V13.0305C36.4293 12.8453 36.275 12.6601 36.1207 12.6601C35.9355 12.6601 35.812 12.8144 35.812 13.0305V14.2033C35.812 14.3885 35.9355 14.5428 36.1207 14.5428Z" fill="#515151"/>
<path d="M40.9961 13.4002C41.1814 13.4002 41.3048 13.2459 41.3048 13.0298V11.857C41.3048 11.6718 41.1505 11.4866 40.9961 11.4866C40.8418 11.4866 40.6875 11.641 40.6875 11.857V13.0298C40.6875 13.2459 40.8418 13.4002 40.9961 13.4002Z" fill="#515151"/>
<path d="M45.9043 14.5428C46.0896 14.5428 46.213 14.3885 46.213 14.1724V13.0305C46.213 12.8453 46.0587 12.6601 45.9043 12.6601C45.75 12.6601 45.5957 12.8144 45.5957 13.0305V14.2033C45.5957 14.3885 45.7192 14.5428 45.9043 14.5428Z" fill="#515151"/>
<path d="M50.3799 24.8816C50.1946 24.8816 50.0713 25.0359 50.0713 25.2519V26.4248C50.0713 26.61 50.2256 26.7951 50.3799 26.7951C50.5651 26.7951 50.6886 26.6408 50.6886 26.4248V25.2519C50.6886 25.0668 50.5342 24.8816 50.3799 24.8816Z" fill="#515151"/>
<path d="M50.2564 32.1047C50.2256 32.1356 50.1946 32.1665 50.1638 32.1974C50.1021 32.2591 50.0713 32.3517 50.0713 32.4442C50.0713 32.5369 50.1021 32.6295 50.1638 32.6912C50.1946 32.722 50.2256 32.7528 50.2564 32.7838C50.2873 32.8146 50.349 32.8147 50.3799 32.8147C50.4724 32.8147 50.5342 32.7838 50.5959 32.722C50.6577 32.6603 50.6886 32.5677 50.6886 32.4752C50.6886 32.3825 50.6577 32.2899 50.5959 32.2282C50.5034 32.0739 50.349 32.0431 50.2564 32.1047Z" fill="#515151"/>
<path d="M50.3799 20.9007C50.1946 20.9007 50.0713 21.055 50.0713 21.271V22.4439C50.0713 22.6291 50.2256 22.8142 50.3799 22.8142C50.5651 22.8142 50.6886 22.6599 50.6886 22.4439V21.271C50.6886 21.0859 50.5342 20.9007 50.3799 20.9007Z" fill="#515151"/>
<path d="M50.38 18.4001C50.5652 18.4001 50.6886 18.2458 50.6886 18.0298V16.8569C50.6886 16.6717 50.5343 16.4865 50.38 16.4865C50.1947 16.4865 50.0714 16.6408 50.0714 16.8569V18.0298C50.0404 18.2458 50.1947 18.4001 50.38 18.4001Z" fill="#515151"/>
<path d="M55.753 34.7885H26.2469C26.1235 34.7885 26 35.0046 26 35.2515C26 35.4984 26.1235 35.7144 26.2469 35.7144H55.753C55.8765 35.7144 56 35.4984 56 35.2515C56 35.0046 55.8765 34.7885 55.753 34.7885Z" fill="#515151"/>
<path d="M16.0292 59L14.0372 55.58H12.7172V59H11.6252V50.636H14.3252C14.9572 50.636 15.4892 50.744 15.9212 50.96C16.3612 51.176 16.6892 51.468 16.9052 51.836C17.1212 52.204 17.2292 52.624 17.2292 53.096C17.2292 53.672 17.0612 54.18 16.7252 54.62C16.3972 55.06 15.9012 55.352 15.2372 55.496L17.3372 59H16.0292ZM12.7172 54.704H14.3252C14.9172 54.704 15.3612 54.56 15.6572 54.272C15.9532 53.976 16.1012 53.584 16.1012 53.096C16.1012 52.6 15.9532 52.216 15.6572 51.944C15.3692 51.672 14.9252 51.536 14.3252 51.536H12.7172V54.704ZM18.518 55.688C18.518 55.016 18.654 54.428 18.926 53.924C19.198 53.412 19.57 53.016 20.042 52.736C20.522 52.456 21.054 52.316 21.638 52.316C22.214 52.316 22.714 52.44 23.138 52.688C23.562 52.936 23.878 53.248 24.086 53.624V52.424H25.19V59H24.086V57.776C23.87 58.16 23.546 58.48 23.114 58.736C22.69 58.984 22.194 59.108 21.626 59.108C21.042 59.108 20.514 58.964 20.042 58.676C19.57 58.388 19.198 57.984 18.926 57.464C18.654 56.944 18.518 56.352 18.518 55.688ZM24.086 55.7C24.086 55.204 23.986 54.772 23.786 54.404C23.586 54.036 23.314 53.756 22.97 53.564C22.634 53.364 22.262 53.264 21.854 53.264C21.446 53.264 21.074 53.36 20.738 53.552C20.402 53.744 20.134 54.024 19.934 54.392C19.734 54.76 19.634 55.192 19.634 55.688C19.634 56.192 19.734 56.632 19.934 57.008C20.134 57.376 20.402 57.66 20.738 57.86C21.074 58.052 21.446 58.148 21.854 58.148C22.262 58.148 22.634 58.052 22.97 57.86C23.314 57.66 23.586 57.376 23.786 57.008C23.986 56.632 24.086 56.196 24.086 55.7ZM27.6233 51.356C27.4153 51.356 27.2393 51.284 27.0953 51.14C26.9593 50.996 26.8913 50.82 26.8913 50.612C26.8913 50.404 26.9593 50.228 27.0953 50.084C27.2393 49.94 27.4153 49.868 27.6233 49.868C27.8313 49.868 28.0033 49.94 28.1393 50.084C28.2833 50.228 28.3553 50.404 28.3553 50.612C28.3553 50.82 28.2833 50.996 28.1393 51.14C28.0033 51.284 27.8313 51.356 27.6233 51.356ZM28.1633 60.428C28.1633 61.012 28.0153 61.44 27.7193 61.712C27.4233 61.984 26.9913 62.12 26.4233 62.12H25.7873V61.196H26.2433C26.5473 61.196 26.7593 61.136 26.8793 61.016C27.0073 60.896 27.0713 60.692 27.0713 60.404V52.424H28.1633V60.428ZM29.6039 55.688C29.6039 55.016 29.7399 54.428 30.0119 53.924C30.2839 53.412 30.6559 53.016 31.1279 52.736C31.6079 52.456 32.1399 52.316 32.7239 52.316C33.2999 52.316 33.7999 52.44 34.2239 52.688C34.6479 52.936 34.9639 53.248 35.1719 53.624V52.424H36.2759V59H35.1719V57.776C34.9559 58.16 34.6319 58.48 34.1999 58.736C33.7759 58.984 33.2799 59.108 32.7119 59.108C32.1279 59.108 31.5999 58.964 31.1279 58.676C30.6559 58.388 30.2839 57.984 30.0119 57.464C29.7399 56.944 29.6039 56.352 29.6039 55.688ZM35.1719 55.7C35.1719 55.204 35.0719 54.772 34.8719 54.404C34.6719 54.036 34.3999 53.756 34.0559 53.564C33.7199 53.364 33.3479 53.264 32.9399 53.264C32.5319 53.264 32.1599 53.36 31.8239 53.552C31.4879 53.744 31.2199 54.024 31.0199 54.392C30.8199 54.76 30.7199 55.192 30.7199 55.688C30.7199 56.192 30.8199 56.632 31.0199 57.008C31.2199 57.376 31.4879 57.66 31.8239 57.86C32.1599 58.052 32.5319 58.148 32.9399 58.148C33.3479 58.148 33.7199 58.052 34.0559 57.86C34.3999 57.66 34.6719 57.376 34.8719 57.008C35.0719 56.632 35.1719 56.196 35.1719 55.7ZM40.4493 59.108C39.9453 59.108 39.4933 59.024 39.0933 58.856C38.6933 58.68 38.3773 58.44 38.1453 58.136C37.9133 57.824 37.7853 57.468 37.7613 57.068H38.8893C38.9213 57.396 39.0733 57.664 39.3453 57.872C39.6253 58.08 39.9893 58.184 40.4373 58.184C40.8533 58.184 41.1813 58.092 41.4213 57.908C41.6613 57.724 41.7813 57.492 41.7813 57.212C41.7813 56.924 41.6533 56.712 41.3973 56.576C41.1413 56.432 40.7453 56.292 40.2093 56.156C39.7213 56.028 39.3213 55.9 39.0093 55.772C38.7053 55.636 38.4413 55.44 38.2173 55.184C38.0013 54.92 37.8933 54.576 37.8933 54.152C37.8933 53.816 37.9933 53.508 38.1933 53.228C38.3933 52.948 38.6773 52.728 39.0453 52.568C39.4133 52.4 39.8333 52.316 40.3053 52.316C41.0333 52.316 41.6213 52.5 42.0693 52.868C42.5173 53.236 42.7573 53.74 42.7893 54.38H41.6973C41.6733 54.036 41.5333 53.76 41.2773 53.552C41.0293 53.344 40.6933 53.24 40.2693 53.24C39.8773 53.24 39.5653 53.324 39.3333 53.492C39.1013 53.66 38.9853 53.88 38.9853 54.152C38.9853 54.368 39.0533 54.548 39.1893 54.692C39.3333 54.828 39.5093 54.94 39.7173 55.028C39.9333 55.108 40.2293 55.2 40.6053 55.304C41.0773 55.432 41.4613 55.56 41.7573 55.688C42.0533 55.808 42.3053 55.992 42.5133 56.24C42.7293 56.488 42.8413 56.812 42.8493 57.212C42.8493 57.572 42.7493 57.896 42.5493 58.184C42.3493 58.472 42.0653 58.7 41.6973 58.868C41.3373 59.028 40.9213 59.108 40.4493 59.108ZM45.7228 53.324V57.2C45.7228 57.52 45.7908 57.748 45.9268 57.884C46.0628 58.012 46.2988 58.076 46.6348 58.076H47.4388V59H46.4548C45.8468 59 45.3908 58.86 45.0868 58.58C44.7828 58.3 44.6308 57.84 44.6308 57.2V53.324H43.7788V52.424H44.6308V50.768H45.7228V52.424H47.4388V53.324H45.7228ZM52.0259 52.304C52.5219 52.304 52.9699 52.412 53.3699 52.628C53.7699 52.836 54.0819 53.152 54.3059 53.576C54.5379 54 54.6539 54.516 54.6539 55.124V59H53.5739V55.28C53.5739 54.624 53.4099 54.124 53.0819 53.78C52.7539 53.428 52.3059 53.252 51.7379 53.252C51.1619 53.252 50.7019 53.432 50.3579 53.792C50.0219 54.152 49.8539 54.676 49.8539 55.364V59H48.7619V50.12H49.8539V53.36C50.0699 53.024 50.3659 52.764 50.7419 52.58C51.1259 52.396 51.5539 52.304 52.0259 52.304ZM56.0297 55.688C56.0297 55.016 56.1657 54.428 56.4377 53.924C56.7097 53.412 57.0817 53.016 57.5537 52.736C58.0337 52.456 58.5657 52.316 59.1497 52.316C59.7257 52.316 60.2257 52.44 60.6497 52.688C61.0737 52.936 61.3897 53.248 61.5977 53.624V52.424H62.7017V59H61.5977V57.776C61.3817 58.16 61.0577 58.48 60.6257 58.736C60.2017 58.984 59.7057 59.108 59.1377 59.108C58.5537 59.108 58.0257 58.964 57.5537 58.676C57.0817 58.388 56.7097 57.984 56.4377 57.464C56.1657 56.944 56.0297 56.352 56.0297 55.688ZM61.5977 55.7C61.5977 55.204 61.4977 54.772 61.2977 54.404C61.0977 54.036 60.8257 53.756 60.4817 53.564C60.1457 53.364 59.7737 53.264 59.3657 53.264C58.9577 53.264 58.5857 53.36 58.2497 53.552C57.9137 53.744 57.6457 54.024 57.4457 54.392C57.2457 54.76 57.1457 55.192 57.1457 55.688C57.1457 56.192 57.2457 56.632 57.4457 57.008C57.6457 57.376 57.9137 57.66 58.2497 57.86C58.5857 58.052 58.9577 58.148 59.3657 58.148C59.7737 58.148 60.1457 58.052 60.4817 57.86C60.8257 57.66 61.0977 57.376 61.2977 57.008C61.4977 56.632 61.5977 56.196 61.5977 55.7ZM67.751 52.304C68.551 52.304 69.199 52.548 69.695 53.036C70.191 53.516 70.439 54.212 70.439 55.124V59H69.359V55.28C69.359 54.624 69.195 54.124 68.867 53.78C68.539 53.428 68.091 53.252 67.523 53.252C66.947 53.252 66.487 53.432 66.143 53.792C65.807 54.152 65.639 54.676 65.639 55.364V59H64.547V52.424H65.639V53.36C65.855 53.024 66.147 52.764 66.515 52.58C66.891 52.396 67.303 52.304 67.751 52.304Z" fill="#515151"/>
</svg>
