<svg width="82" height="70" viewBox="0 0 82 70" fill="none" xmlns="http://www.w3.org/2000/svg">
<rect width="82" height="70" rx="4" fill="white" fill-opacity="0.1"/>
<path d="M37.0696 16.9803C37.0443 16.9803 37.0191 16.9803 36.9939 16.9709C36.8268 16.9362 36.707 16.788 36.707 16.6146V14.4017C36.707 14.2819 36.7638 14.1716 36.8615 14.1054C36.9592 14.036 37.0822 14.0202 37.1925 14.0612L38.0689 14.3733C38.0846 14.3796 38.1003 14.3859 38.1162 14.3954C38.1855 14.4332 38.2642 14.4521 38.3431 14.4521C38.611 14.4521 38.8317 14.2346 38.8317 13.9635V13.8563C38.8317 13.5884 38.6142 13.3677 38.3431 13.3677C38.2328 13.3677 38.1256 13.4055 38.0404 13.4717C38.0278 13.4812 38.0152 13.4906 37.9995 13.5001L37.2555 13.9351C37.1421 14.0013 37.0034 14.0013 36.8899 13.9351C36.7764 13.8689 36.707 13.7491 36.707 13.6199V12.2518C36.707 11.6749 37.1767 11.2052 37.7536 11.2052H40.1967C40.411 10.9845 40.8902 10.6094 41.6373 10.6094C41.839 10.6094 42.003 10.7733 42.003 10.9751C42.003 11.1768 41.839 11.3407 41.6373 11.3407C40.9942 11.3407 40.6728 11.7663 40.6602 11.7852C40.5908 11.8829 40.4835 11.9365 40.3638 11.9365H37.7568C37.5802 11.9365 37.4384 12.0784 37.4384 12.2549V12.9894L37.6149 12.8854C37.8261 12.7278 38.0815 12.6427 38.3463 12.6427C39.0208 12.6427 39.5662 13.188 39.5662 13.8595V13.9667C39.5662 14.6381 39.0208 15.1835 38.3494 15.1835C38.1634 15.1835 37.9774 15.1393 37.8104 15.0574L37.4415 14.925V15.7414C37.5203 15.6941 37.5991 15.6532 37.6685 15.6185C38.0468 15.4357 38.4787 15.3316 38.8507 15.3316H40.3102C40.5435 15.3316 40.7736 15.3758 40.9911 15.4609L41.5238 15.6721C41.7824 15.773 42.0661 15.7761 42.3246 15.6815L42.5326 15.6059C43.2292 15.3505 43.7337 14.739 43.8535 14.0108L43.8597 13.9667C43.9449 13.4497 43.8283 12.8097 43.576 12.4031C43.4689 12.2328 43.5225 12.009 43.6927 11.9018C43.863 11.7947 44.0868 11.8483 44.1939 12.0185C44.5344 12.567 44.6888 13.3961 44.5754 14.0833L44.569 14.1274C44.4051 15.1173 43.7211 15.9463 42.7785 16.2899L42.5704 16.3656C42.1417 16.5232 41.6751 16.5169 41.2527 16.3498L40.72 16.1386C40.5876 16.085 40.4488 16.0598 40.307 16.0598H38.8474C38.3305 16.0598 37.5865 16.3719 37.4069 16.7723C37.347 16.9047 37.2146 16.9866 37.0759 16.9866L37.0696 16.9803Z" fill="#515151"/>
<path d="M43.3247 12.7012C43.1229 12.7012 42.959 12.5373 42.959 12.3355C42.959 12.1338 43.1229 11.9698 43.3247 11.9698C43.5075 11.9698 43.6589 11.8217 43.6589 11.6357C43.6589 11.4497 43.5107 11.3015 43.3247 11.3015C43.3089 11.3015 43.3058 11.3015 43.29 11.3015C43.227 11.3015 42.9621 11.311 42.8329 11.6798C42.7668 11.869 42.5556 11.9667 42.3663 11.9005C42.1772 11.8343 42.0795 11.6231 42.1457 11.4339C42.4074 10.6994 43.0315 10.5513 43.3405 10.5733C43.9173 10.5828 44.3839 11.0556 44.3839 11.6357C44.3839 12.2157 43.9079 12.698 43.3215 12.698L43.3247 12.7012Z" fill="#515151"/>
<path d="M46.196 24.8986C46.1424 24.8986 46.0888 24.886 46.0384 24.864C45.9123 24.8041 45.8303 24.6748 45.8303 24.5329C45.8303 24.5203 45.8177 23.2626 44.853 21.8534C43.6804 20.1417 44.5568 18.8649 45.4866 17.5094C46.1361 16.5606 46.8737 15.4888 47.1574 14.0387C47.1953 13.8401 47.3876 13.714 47.583 13.7518C47.7816 13.7896 47.9078 13.9819 47.8698 14.1774C47.5578 15.7756 46.776 16.9168 46.0857 17.9224C45.1683 19.259 44.563 20.1417 45.452 21.4405C46.0888 22.3672 46.3568 23.2374 46.4734 23.8173C47.6429 22.7676 48.5981 21.4562 47.7879 19.4797C47.7249 19.363 47.4286 18.7893 47.1669 17.9003C47.1101 17.708 47.2205 17.5063 47.4128 17.4496C47.6051 17.3928 47.8068 17.5031 47.8636 17.6954C48.1284 18.5907 48.431 19.1424 48.4342 19.1487C48.4404 19.1613 48.4468 19.1739 48.453 19.1865C48.9575 20.4033 48.9322 21.5602 48.3806 22.6226C47.9109 23.5273 47.126 24.243 46.4198 24.8198C46.3536 24.8734 46.2717 24.9018 46.1897 24.9018L46.196 24.8986Z" fill="#515151"/>
<path d="M47.2953 15.265C47.2574 15.265 47.2165 15.2587 47.1787 15.2461C46.9895 15.1799 46.8855 14.975 46.9517 14.7827C47.4845 13.216 47.393 11.7154 46.6932 10.6625C46.0974 9.76412 45.0666 9.23768 43.7173 9.14311C42.4249 9.05168 41.3594 9.44258 40.5555 10.3063C39.9439 10.9652 39.7106 11.6682 39.7106 11.6745C39.6507 11.8668 39.4459 11.9708 39.2535 11.9109C39.0613 11.851 38.9573 11.6461 39.0171 11.4538C39.0266 11.4191 39.2882 10.609 40.0007 9.83347C40.6627 9.11159 41.8543 8.27935 43.7678 8.4149C45.3534 8.5284 46.5734 9.16518 47.2985 10.259C48.1212 11.4979 48.2442 13.2317 47.6389 15.016C47.5885 15.1673 47.4467 15.2619 47.2953 15.2619V15.265Z" fill="#515151"/>
<path d="M42.1366 20.5991C42.1051 20.5991 42.0736 20.596 42.0421 20.5865C41.8466 20.5328 41.7331 20.3342 41.7867 20.1388C41.9538 19.5241 42.269 18.8999 42.7293 18.282C43.571 17.1503 44.173 16.1826 44.5198 15.4102C44.9202 14.5118 44.8981 14.0673 44.8068 13.8498C44.7752 13.7773 44.6838 13.5566 44.1951 13.4873C43.9965 13.4589 43.8578 13.2761 43.8862 13.0743C43.9146 12.8757 44.0974 12.737 44.2992 12.7654C45.0432 12.8726 45.352 13.2603 45.4813 13.5693C45.8817 14.5339 45.1755 16.2173 43.3156 18.7171C42.9121 19.2593 42.6348 19.8016 42.4929 20.328C42.4488 20.4887 42.3006 20.596 42.143 20.596L42.1366 20.5991Z" fill="#515151"/>
<path d="M43.2615 24.2398C43.167 24.2398 43.0788 24.2051 43.0094 24.139L42.9936 24.1263C42.4041 23.5779 41.9691 22.8717 41.7737 22.1403C41.7233 21.9449 41.8367 21.7463 42.0321 21.6958C42.2276 21.6454 42.4262 21.7589 42.4766 21.9544C42.5933 22.3956 42.8203 22.8275 43.1229 23.2059C43.6841 21.885 44.5225 20.9928 44.5635 20.9488C44.7023 20.8037 44.9323 20.7975 45.0774 20.9361C45.2223 21.0748 45.2287 21.305 45.09 21.4499C45.09 21.4499 44.078 22.5281 43.6021 23.9908C43.5642 24.1106 43.4665 24.202 43.3435 24.2303C43.3152 24.2367 43.2836 24.2398 43.2553 24.2398H43.2615Z" fill="#515151"/>
<path d="M39.8973 19.567C39.8532 19.567 39.8091 19.5576 39.765 19.5418C39.579 19.4693 39.4875 19.2581 39.56 19.069C40.3513 17.0609 42.1576 15.7716 42.2364 15.718C42.4003 15.6013 42.6273 15.6423 42.744 15.8062C42.8606 15.9702 42.8196 16.1971 42.6556 16.3138C42.6273 16.3327 40.9471 17.5401 40.2378 19.3369C40.181 19.4788 40.0455 19.567 39.9004 19.567H39.8973Z" fill="#515151"/>
<path d="M38.1857 19.6594C38.1857 19.6594 38.1573 19.6594 38.1415 19.6594C37.943 19.6374 37.798 19.4545 37.8232 19.2559C38.1636 16.3841 40.3104 15.4195 40.4018 15.3785C40.5878 15.2997 40.8021 15.3817 40.881 15.5676C40.9598 15.7505 40.8779 15.9648 40.695 16.0468C40.6161 16.0815 38.8351 16.9011 38.5482 19.341C38.5261 19.527 38.3685 19.6626 38.1857 19.6626V19.6594Z" fill="#515151"/>
<path d="M43.142 32.8149C40.9793 32.8149 39.3779 32.175 38.3849 30.9109C37.2942 29.524 37.0263 27.396 37.6252 24.9246C38.1233 22.8756 37.2343 21.1954 36.235 20.3064C35.4091 19.5719 34.4603 19.3039 33.6942 19.5907C33.5271 19.6538 33.3443 19.5876 33.2529 19.4332C33.1646 19.2818 33.1962 19.0864 33.3285 18.973C33.3506 18.954 33.8739 18.5126 34.7629 18.3204C35.5226 18.1565 36.7016 18.1501 38.1076 18.9823C38.363 18.7428 38.8074 18.437 39.3465 18.5537C39.7468 18.6419 40.0589 18.8626 40.2796 19.2094C40.5255 19.0549 40.8596 18.935 41.2253 19.0517C41.6319 19.1842 41.8967 19.4994 41.9692 19.9249C42.234 19.9406 42.6155 19.9848 43.0221 20.0983C44.0435 20.382 44.7434 20.9652 45.0396 21.7848C45.0838 21.9078 45.0586 22.0465 44.9766 22.1442C44.8914 22.2451 44.7591 22.2892 44.633 22.2671C44.6078 22.2608 41.9157 21.7786 40.9793 23.0048C40.4561 23.6888 40.33 24.6944 40.6358 25.7632C40.9826 26.98 41.8368 28.0612 42.7101 28.3922C42.8992 28.4647 42.9938 28.6728 42.9213 28.8619C42.8487 29.051 42.6407 29.1456 42.4515 29.0731C41.3577 28.6602 40.3457 27.4118 39.9328 25.9618C39.5639 24.6692 39.7342 23.4304 40.3994 22.5604C41.2505 21.4507 42.9969 21.3876 44.0056 21.4601C43.205 20.5996 41.654 20.6405 41.6351 20.6437C41.5311 20.6468 41.4302 20.6058 41.3577 20.5333C41.2852 20.4577 41.2505 20.3568 41.2568 20.2528C41.2883 19.8366 41.0708 19.7674 41.0014 19.7453C40.7902 19.6759 40.4876 19.9565 40.4246 20.029C40.3395 20.1266 40.2102 20.1708 40.0841 20.1487C39.958 20.1266 39.8508 20.0352 39.8067 19.9154C39.8036 19.906 39.8004 19.8934 39.7941 19.8808C39.709 19.638 39.5639 19.3448 39.1888 19.2629C38.8294 19.1842 38.4701 19.657 38.4669 19.6633C38.3535 19.8209 38.1359 19.8587 37.972 19.7546C36.9822 19.1053 36.1184 18.935 35.4406 18.9666C35.8788 19.1369 36.3138 19.4047 36.7174 19.761C37.392 20.3599 37.9058 21.1481 38.2053 22.0338C38.5362 23.0142 38.5804 24.0734 38.3314 25.098C37.7829 27.3456 38.0035 29.2528 38.9555 30.4602C39.8036 31.5383 41.2095 32.0837 43.1387 32.0837C44.469 32.0837 45.5314 31.6297 46.288 30.7375C47.8704 28.8745 47.9588 25.3375 47.5552 22.8756C47.5426 22.803 47.5552 22.7274 47.5868 22.658C47.6025 22.6234 49.3079 19.0139 48.8099 14.9442C48.3244 10.9659 46.1115 9.96971 46.0894 9.96026C45.9034 9.88145 45.8183 9.66708 45.9003 9.4811C45.979 9.29511 46.1934 9.20999 46.3794 9.29195C46.4866 9.33924 48.999 10.4678 49.535 14.8559C50.0172 18.7963 48.5892 22.2198 48.2961 22.8692C48.4032 23.566 48.5892 25.1389 48.419 26.8822C48.2362 28.7453 47.7065 30.2017 46.8491 31.2104C45.9443 32.2759 44.6992 32.8149 43.142 32.8149Z" fill="#515151"/>
<path d="M42.9907 26.3768C42.3918 26.3768 41.9062 25.8914 41.9062 25.2925C41.9062 25.0907 42.0702 24.9268 42.272 24.9268C42.4737 24.9268 42.6376 25.0907 42.6376 25.2925C42.6376 25.4942 42.7985 25.6487 42.9938 25.6487C43.1893 25.6487 43.3501 25.4879 43.3501 25.2925C43.3501 25.097 43.514 24.9268 43.7157 24.9268C43.9175 24.9268 44.0814 25.0907 44.0814 25.2925C44.0814 25.8914 43.596 26.3768 42.9971 26.3768H42.9907Z" fill="#515151"/>
<path d="M45.8695 29.0282C45.2706 29.0282 44.7852 28.5428 44.7852 27.9438C44.7852 27.742 44.9491 27.5781 45.1508 27.5781C45.3525 27.5781 45.5164 27.742 45.5164 27.9438C45.5164 28.1456 45.6772 28.3 45.8727 28.3C46.0681 28.3 46.2289 28.1392 46.2289 27.9438C46.2289 27.7484 46.3928 27.5781 46.5946 27.5781C46.7964 27.5781 46.9603 27.742 46.9603 27.9438C46.9603 28.5428 46.4748 29.0282 45.8758 29.0282H45.8695Z" fill="#515151"/>
<path d="M44.8227 29.9139C44.2238 29.9139 43.7383 29.4284 43.7383 28.8295C43.7383 28.6278 43.9022 28.4639 44.1039 28.4639C44.3058 28.4639 44.4664 28.6278 44.4664 28.8295C44.4664 29.0312 44.6272 29.1858 44.8227 29.1858C45.0182 29.1858 45.1789 29.025 45.1789 28.8295C45.1789 28.634 45.3428 28.4639 45.5446 28.4639C45.7464 28.4639 45.9103 28.6278 45.9103 28.8295C45.9103 29.4284 45.4248 29.9139 44.8258 29.9139H44.8227Z" fill="#515151"/>
<path d="M35.1336 14.5202C35.3843 14.5202 35.5876 14.3169 35.5876 14.0662C35.5876 13.8155 35.3843 13.6123 35.1336 13.6123C34.8829 13.6123 34.6797 13.8155 34.6797 14.0662C34.6797 14.3169 34.8829 14.5202 35.1336 14.5202Z" fill="#515151"/>
<path d="M33.7313 16.1637C33.982 16.1637 34.1852 15.9605 34.1852 15.7098C34.1852 15.4591 33.982 15.2559 33.7313 15.2559C33.4806 15.2559 33.2773 15.4591 33.2773 15.7098C33.2773 15.9605 33.4806 16.1637 33.7313 16.1637Z" fill="#515151"/>
<path d="M32.0399 16.9801C32.2906 16.9801 32.4938 16.7769 32.4938 16.5262C32.4938 16.2755 32.2906 16.0723 32.0399 16.0723C31.7892 16.0723 31.5859 16.2755 31.5859 16.5262C31.5859 16.7769 31.7892 16.9801 32.0399 16.9801Z" fill="#515151"/>
<path d="M30.3875 18.2321C30.6382 18.2321 30.8415 18.0288 30.8415 17.7782C30.8415 17.5275 30.6382 17.3242 30.3875 17.3242C30.1368 17.3242 29.9336 17.5275 29.9336 17.7782C29.9336 18.0288 30.1368 18.2321 30.3875 18.2321Z" fill="#515151"/>
<path d="M27.8485 17.5378C28.0992 17.5378 28.3024 17.3345 28.3024 17.0838C28.3024 16.8331 28.0992 16.6299 27.8485 16.6299C27.5978 16.6299 27.3945 16.8331 27.3945 17.0838C27.3945 17.3345 27.5978 17.5378 27.8485 17.5378Z" fill="#515151"/>
<path d="M28.9813 19.9685C29.232 19.9685 29.4352 19.7652 29.4352 19.5145C29.4352 19.2638 29.232 19.0605 28.9813 19.0605C28.7306 19.0605 28.5273 19.2638 28.5273 19.5145C28.5273 19.7652 28.7306 19.9685 28.9813 19.9685Z" fill="#515151"/>
<path d="M33.2274 14.5202C33.4781 14.5202 33.6813 14.3169 33.6813 14.0662C33.6813 13.8155 33.4781 13.6123 33.2274 13.6123C32.9767 13.6123 32.7734 13.8155 32.7734 14.0662C32.7734 14.3169 32.9767 14.5202 33.2274 14.5202Z" fill="#515151"/>
<path d="M31.325 15.0065C31.5757 15.0065 31.779 14.8033 31.779 14.5526C31.779 14.3019 31.5757 14.0986 31.325 14.0986C31.0743 14.0986 30.8711 14.3019 30.8711 14.5526C30.8711 14.8033 31.0743 15.0065 31.325 15.0065Z" fill="#515151"/>
<path d="M29.4188 15.9772C29.6695 15.9772 29.8727 15.774 29.8727 15.5233C29.8727 15.2726 29.6695 15.0693 29.4188 15.0693C29.1681 15.0693 28.9648 15.2726 28.9648 15.5233C28.9648 15.774 29.1681 15.9772 29.4188 15.9772Z" fill="#515151"/>
<path d="M40.0938 12.5381H40.8976" stroke="#515151" stroke-width="0.304839" stroke-linecap="round" stroke-linejoin="round"/>
<path d="M28.4492 34.7998H55.6228" stroke="#515151" stroke-width="0.609678" stroke-linecap="round" stroke-linejoin="round"/>
<path d="M47.4414 29.7939C49.3927 30.9003 51.0478 32.5017 52.3055 34.3554" stroke="#515151" stroke-width="0.609678" stroke-linecap="round" stroke-linejoin="round"/>
<path d="M31.7656 34.3551C33.263 32.161 35.3247 30.3201 37.7677 29.2451" stroke="#515151" stroke-width="0.609678" stroke-linecap="round" stroke-linejoin="round"/>
<path d="M13.7791 59.084C13.2271 59.084 12.7311 58.988 12.2911 58.796C11.8591 58.596 11.5191 58.324 11.2711 57.98C11.0231 57.628 10.8951 57.224 10.8871 56.768H12.0511C12.0911 57.16 12.2511 57.492 12.5311 57.764C12.8191 58.028 13.2351 58.16 13.7791 58.16C14.2991 58.16 14.7071 58.032 15.0031 57.776C15.3071 57.512 15.4591 57.176 15.4591 56.768C15.4591 56.448 15.3711 56.188 15.1951 55.988C15.0191 55.788 14.7991 55.636 14.5351 55.532C14.2711 55.428 13.9151 55.316 13.4671 55.196C12.9151 55.052 12.4711 54.908 12.1351 54.764C11.8071 54.62 11.5231 54.396 11.2831 54.092C11.0511 53.78 10.9351 53.364 10.9351 52.844C10.9351 52.388 11.0511 51.984 11.2831 51.632C11.5151 51.28 11.8391 51.008 12.2551 50.816C12.6791 50.624 13.1631 50.528 13.7071 50.528C14.4911 50.528 15.1311 50.724 15.6271 51.116C16.1311 51.508 16.4151 52.028 16.4791 52.676H15.2791C15.2391 52.356 15.0711 52.076 14.7751 51.836C14.4791 51.588 14.0871 51.464 13.5991 51.464C13.1431 51.464 12.7711 51.584 12.4831 51.824C12.1951 52.056 12.0511 52.384 12.0511 52.808C12.0511 53.112 12.1351 53.36 12.3031 53.552C12.4791 53.744 12.6911 53.892 12.9391 53.996C13.1951 54.092 13.5511 54.204 14.0071 54.332C14.5591 54.484 15.0031 54.636 15.3391 54.788C15.6751 54.932 15.9631 55.16 16.2031 55.472C16.4431 55.776 16.5631 56.192 16.5631 56.72C16.5631 57.128 16.4551 57.512 16.2391 57.872C16.0231 58.232 15.7031 58.524 15.2791 58.748C14.8551 58.972 14.3551 59.084 13.7791 59.084ZM18.7341 51.356C18.5261 51.356 18.3501 51.284 18.2061 51.14C18.0621 50.996 17.9901 50.82 17.9901 50.612C17.9901 50.404 18.0621 50.228 18.2061 50.084C18.3501 49.94 18.5261 49.868 18.7341 49.868C18.9341 49.868 19.1021 49.94 19.2381 50.084C19.3821 50.228 19.4541 50.404 19.4541 50.612C19.4541 50.82 19.3821 50.996 19.2381 51.14C19.1021 51.284 18.9341 51.356 18.7341 51.356ZM19.2621 52.424V59H18.1701V52.424H19.2621ZM24.3272 52.304C25.1272 52.304 25.7752 52.548 26.2712 53.036C26.7672 53.516 27.0152 54.212 27.0152 55.124V59H25.9352V55.28C25.9352 54.624 25.7712 54.124 25.4432 53.78C25.1152 53.428 24.6672 53.252 24.0992 53.252C23.5232 53.252 23.0632 53.432 22.7192 53.792C22.3832 54.152 22.2152 54.676 22.2152 55.364V59H21.1232V52.424H22.2152V53.36C22.4312 53.024 22.7232 52.764 23.0912 52.58C23.4672 52.396 23.8792 52.304 24.3272 52.304ZM31.511 52.316C32.079 52.316 32.575 52.44 32.999 52.688C33.431 52.936 33.751 53.248 33.959 53.624V52.424H35.063V59.144C35.063 59.744 34.935 60.276 34.679 60.74C34.423 61.212 34.055 61.58 33.575 61.844C33.103 62.108 32.551 62.24 31.919 62.24C31.055 62.24 30.335 62.036 29.759 61.628C29.183 61.22 28.843 60.664 28.739 59.96H29.819C29.939 60.36 30.187 60.68 30.563 60.92C30.939 61.168 31.391 61.292 31.919 61.292C32.519 61.292 33.007 61.104 33.383 60.728C33.767 60.352 33.959 59.824 33.959 59.144V57.764C33.743 58.148 33.423 58.468 32.999 58.724C32.575 58.98 32.079 59.108 31.511 59.108C30.927 59.108 30.395 58.964 29.915 58.676C29.443 58.388 29.071 57.984 28.799 57.464C28.527 56.944 28.391 56.352 28.391 55.688C28.391 55.016 28.527 54.428 28.799 53.924C29.071 53.412 29.443 53.016 29.915 52.736C30.395 52.456 30.927 52.316 31.511 52.316ZM33.959 55.7C33.959 55.204 33.859 54.772 33.659 54.404C33.459 54.036 33.187 53.756 32.843 53.564C32.507 53.364 32.135 53.264 31.727 53.264C31.319 53.264 30.947 53.36 30.611 53.552C30.275 53.744 30.007 54.024 29.807 54.392C29.607 54.76 29.507 55.192 29.507 55.688C29.507 56.192 29.607 56.632 29.807 57.008C30.007 57.376 30.275 57.66 30.611 57.86C30.947 58.052 31.319 58.148 31.727 58.148C32.135 58.148 32.507 58.052 32.843 57.86C33.187 57.66 33.459 57.376 33.659 57.008C33.859 56.632 33.959 56.196 33.959 55.7ZM36.5004 55.688C36.5004 55.016 36.6364 54.428 36.9084 53.924C37.1804 53.412 37.5524 53.016 38.0244 52.736C38.5044 52.456 39.0364 52.316 39.6204 52.316C40.1964 52.316 40.6964 52.44 41.1204 52.688C41.5444 52.936 41.8604 53.248 42.0684 53.624V52.424H43.1724V59H42.0684V57.776C41.8524 58.16 41.5284 58.48 41.0964 58.736C40.6724 58.984 40.1764 59.108 39.6084 59.108C39.0244 59.108 38.4964 58.964 38.0244 58.676C37.5524 58.388 37.1804 57.984 36.9084 57.464C36.6364 56.944 36.5004 56.352 36.5004 55.688ZM42.0684 55.7C42.0684 55.204 41.9684 54.772 41.7684 54.404C41.5684 54.036 41.2964 53.756 40.9524 53.564C40.6164 53.364 40.2444 53.264 39.8364 53.264C39.4284 53.264 39.0564 53.36 38.7204 53.552C38.3844 53.744 38.1164 54.024 37.9164 54.392C37.7164 54.76 37.6164 55.192 37.6164 55.688C37.6164 56.192 37.7164 56.632 37.9164 57.008C38.1164 57.376 38.3844 57.66 38.7204 57.86C39.0564 58.052 39.4284 58.148 39.8364 58.148C40.2444 58.148 40.6164 58.052 40.9524 57.86C41.2964 57.66 41.5684 57.376 41.7684 57.008C41.9684 56.632 42.0684 56.196 42.0684 55.7ZM46.1098 53.636C46.3258 53.26 46.6458 52.948 47.0698 52.7C47.5018 52.444 48.0018 52.316 48.5698 52.316C49.1538 52.316 49.6818 52.456 50.1537 52.736C50.6337 53.016 51.0098 53.412 51.2818 53.924C51.5538 54.428 51.6898 55.016 51.6898 55.688C51.6898 56.352 51.5538 56.944 51.2818 57.464C51.0098 57.984 50.6337 58.388 50.1537 58.676C49.6818 58.964 49.1538 59.108 48.5698 59.108C48.0098 59.108 47.5138 58.984 47.0818 58.736C46.6578 58.48 46.3338 58.164 46.1098 57.788V62.12H45.0178V52.424H46.1098V53.636ZM50.5738 55.688C50.5738 55.192 50.4738 54.76 50.2738 54.392C50.0738 54.024 49.8018 53.744 49.4578 53.552C49.1218 53.36 48.7498 53.264 48.3418 53.264C47.9418 53.264 47.5698 53.364 47.2258 53.564C46.8898 53.756 46.6178 54.04 46.4098 54.416C46.2098 54.784 46.1098 55.212 46.1098 55.7C46.1098 56.196 46.2098 56.632 46.4098 57.008C46.6178 57.376 46.8898 57.66 47.2258 57.86C47.5698 58.052 47.9418 58.148 48.3418 58.148C48.7498 58.148 49.1218 58.052 49.4578 57.86C49.8018 57.66 50.0738 57.376 50.2738 57.008C50.4738 56.632 50.5738 56.192 50.5738 55.688ZM55.9951 59.108C55.3791 59.108 54.8191 58.968 54.3151 58.688C53.8191 58.408 53.4271 58.012 53.1391 57.5C52.8591 56.98 52.7191 56.38 52.7191 55.7C52.7191 55.028 52.8631 54.436 53.1511 53.924C53.4471 53.404 53.8471 53.008 54.3511 52.736C54.8551 52.456 55.4191 52.316 56.0431 52.316C56.6671 52.316 57.2311 52.456 57.7351 52.736C58.2391 53.008 58.6351 53.4 58.9231 53.912C59.2191 54.424 59.3671 55.02 59.3671 55.7C59.3671 56.38 59.2151 56.98 58.9111 57.5C58.6151 58.012 58.2111 58.408 57.6991 58.688C57.1871 58.968 56.6191 59.108 55.9951 59.108ZM55.9951 58.148C56.3871 58.148 56.7551 58.056 57.0991 57.872C57.4431 57.688 57.7191 57.412 57.9271 57.044C58.1431 56.676 58.2511 56.228 58.2511 55.7C58.2511 55.172 58.1471 54.724 57.9391 54.356C57.7311 53.988 57.4591 53.716 57.1231 53.54C56.7871 53.356 56.4231 53.264 56.0311 53.264C55.6311 53.264 55.2631 53.356 54.9271 53.54C54.5991 53.716 54.3351 53.988 54.1351 54.356C53.9351 54.724 53.8351 55.172 53.8351 55.7C53.8351 56.236 53.9311 56.688 54.1231 57.056C54.3231 57.424 54.5871 57.7 54.9151 57.884C55.2431 58.06 55.6031 58.148 55.9951 58.148ZM61.8949 53.492C62.0869 53.116 62.3589 52.824 62.7109 52.616C63.0709 52.408 63.5069 52.304 64.0189 52.304V53.432H63.7309C62.5069 53.432 61.8949 54.096 61.8949 55.424V59H60.8029V52.424H61.8949V53.492ZM71.2795 55.46C71.2795 55.668 71.2675 55.888 71.2435 56.12H65.9875C66.0275 56.768 66.2475 57.276 66.6475 57.644C67.0555 58.004 67.5475 58.184 68.1235 58.184C68.5955 58.184 68.9875 58.076 69.2995 57.86C69.6195 57.636 69.8435 57.34 69.9715 56.972H71.1475C70.9715 57.604 70.6195 58.12 70.0915 58.52C69.5635 58.912 68.9075 59.108 68.1235 59.108C67.4995 59.108 66.9395 58.968 66.4435 58.688C65.9555 58.408 65.5715 58.012 65.2915 57.5C65.0115 56.98 64.8715 56.38 64.8715 55.7C64.8715 55.02 65.0075 54.424 65.2795 53.912C65.5515 53.4 65.9315 53.008 66.4195 52.736C66.9155 52.456 67.4835 52.316 68.1235 52.316C68.7475 52.316 69.2995 52.452 69.7795 52.724C70.2595 52.996 70.6275 53.372 70.8835 53.852C71.1475 54.324 71.2795 54.86 71.2795 55.46ZM70.1515 55.232C70.1515 54.816 70.0595 54.46 69.8755 54.164C69.6915 53.86 69.4395 53.632 69.1195 53.48C68.8075 53.32 68.4595 53.24 68.0755 53.24C67.5235 53.24 67.0515 53.416 66.6595 53.768C66.2755 54.12 66.0555 54.608 65.9995 55.232H70.1515Z" fill="#515151"/>
</svg>
