<svg width="92" height="80" viewBox="0 0 92 80" fill="none" xmlns="http://www.w3.org/2000/svg">
<rect y="10" width="82" height="70" rx="4" fill="white" fill-opacity="0.1"/>
<path d="M52.5928 43.2519C52.0966 43.2519 51.6934 42.7867 51.6934 42.2284C51.6934 40.7396 51.6623 35.9632 51.6934 33.3579C51.6934 32.7066 51.5693 32.1172 51.3211 31.621C50.887 30.7837 50.3286 30.3494 49.5533 30.3184C49.088 30.2874 48.5918 30.2874 48.0646 30.3184C47.9405 30.3184 47.8164 30.3494 47.7234 30.3805C46.7929 30.7526 46.0795 31.8692 46.0795 32.9547C46.0795 34.6605 46.0795 35.7462 46.0795 37.0798V38.9407C46.0795 39.9022 46.0795 40.8327 46.0795 41.7942V42.1974C46.0795 42.7556 45.6763 43.2208 45.1801 43.2208H45.1181C44.8699 43.2208 44.6528 43.1278 44.4667 42.9108C44.3117 42.7246 44.2186 42.4455 44.2186 42.1974V39.499C44.2186 37.6071 44.2186 35.2498 44.2496 33.544C44.2496 32.7376 44.1876 32.1172 43.8774 31.559C43.5983 31.0317 43.3192 30.6596 42.9469 30.5044C41.8924 30.0703 40.9309 30.1012 40.0625 30.5044C39.194 30.9387 38.6978 31.7451 38.6978 32.8306C38.6668 35.6221 38.6668 40.1504 38.6978 42.1353C38.6978 42.4144 38.6047 42.6626 38.4497 42.8797C38.2946 43.0969 38.0465 43.1899 37.7983 43.1899H37.7673C37.5192 43.1899 37.3021 43.0969 37.116 42.8797C36.9609 42.6937 36.8679 42.4144 36.8679 42.1353V38.7236C36.8679 36.9867 36.8679 35.3739 36.8679 33.2649C36.8679 32.7376 36.8369 32.2724 36.6508 31.8692C36.2166 30.9076 35.6893 30.4424 34.9139 30.3494C34.6968 30.3184 34.4797 30.3184 34.2316 30.3184C34.0455 30.3184 33.8594 30.3184 33.7043 30.3184C33.115 30.2874 32.5567 30.5355 32.1225 31.0008C31.6262 31.528 31.3471 32.3034 31.3471 33.0788C31.3471 35.7151 31.3781 40.4605 31.3781 42.2284C31.3781 42.5076 31.2851 42.7556 31.13 42.9728C30.9749 43.1589 30.7268 43.2829 30.4787 43.2829H30.4476C29.9514 43.2829 29.5482 42.8176 29.5482 42.2594V39.7782C29.5482 37.2038 29.5482 34.5055 29.5172 31.9002C29.5172 30.7526 29.0209 29.9152 28.1215 29.388C27.7803 29.2018 27.4391 29.1708 27.0359 29.1708H26.8188C26.5397 29.1398 26.1675 29.0157 26.1365 28.4264C26.1055 27.9612 26.1055 27.62 26.2915 27.3719C26.4776 27.1238 26.7878 27.0928 27.16 27.0928H54.7019C54.8569 27.0928 55.012 27.0928 55.1671 27.0928C55.2601 27.0928 55.4153 27.0928 55.5392 27.1858C55.9115 27.496 55.8804 27.8992 55.8804 28.1784C55.8804 28.2404 55.8804 28.3023 55.8804 28.3334C55.8804 28.7676 55.6944 29.0468 55.3222 29.1398C54.7019 29.2948 54.2056 29.7291 53.8024 30.5044C53.5543 31.0008 53.5232 31.5901 53.4923 32.0242C53.4923 34.7226 53.4923 37.421 53.4923 40.1193V42.1974C53.4923 42.7867 53.0891 43.2519 52.5928 43.2519ZM48.9019 29.512C49.119 29.512 49.3362 29.512 49.5533 29.512C50.5458 29.543 51.3522 30.1012 51.8795 31.1869C52.1896 31.8072 52.3757 32.5515 52.3757 33.327C52.3757 35.9012 52.3757 40.7086 52.3757 42.1974C52.3757 42.3214 52.4687 42.4455 52.5928 42.4455C52.7168 42.4455 52.81 42.3524 52.81 42.1974V40.1193C52.81 37.421 52.81 34.7226 52.81 32.0242C52.81 31.466 52.872 30.7526 53.2132 30.1012C53.7094 29.1398 54.3607 28.5816 55.1671 28.3644C55.1671 28.3023 55.1671 28.2093 55.1671 28.1473C55.1671 27.9922 55.1671 27.9302 55.1671 27.8992C54.981 27.8992 54.8569 27.8992 54.7019 27.8992H54.3917H27.16C26.9739 27.8992 26.8808 27.8992 26.8188 27.9302C26.8188 27.9922 26.8188 28.1473 26.8188 28.3334V28.3644C26.8188 28.3644 26.8188 28.3644 26.8498 28.3644H27.0049C27.4391 28.3954 27.9044 28.3954 28.4006 28.6746C29.5482 29.3259 30.1685 30.4424 30.1685 31.9002C30.1995 34.5366 30.1995 37.2039 30.1995 39.8091V42.2905C30.1995 42.4144 30.2926 42.5385 30.4166 42.5385H30.4476C30.5097 42.5385 30.5407 42.5076 30.6027 42.4765C30.6337 42.4455 30.6648 42.3835 30.6648 42.3214C30.6337 40.5536 30.6337 35.8082 30.6337 33.1718C30.6337 32.1793 31.0059 31.2178 31.6262 30.5044C32.2155 29.8842 32.9599 29.543 33.7353 29.605C33.8904 29.605 34.0765 29.605 34.2316 29.605C34.4797 29.605 34.7278 29.605 34.9759 29.636C35.9684 29.7291 36.7128 30.3805 37.2401 31.5901C37.5192 32.1793 37.5502 32.7997 37.5502 33.3579C37.5502 35.436 37.5502 37.0798 37.5502 38.8167V42.3214C37.5502 42.3835 37.5812 42.4455 37.6123 42.5076C37.6433 42.5385 37.7053 42.5696 37.7673 42.5696H37.7983C37.8604 42.5696 37.9224 42.5385 37.9534 42.5076C37.9844 42.4765 38.0154 42.4144 38.0154 42.3524C38.0154 40.3364 37.9844 35.8082 38.0154 33.0168C38.0465 31.621 38.6978 30.5044 39.8143 29.9772C40.8379 29.481 41.9855 29.481 43.1951 29.9462C43.7844 30.1944 44.1565 30.7526 44.4977 31.3108C44.9629 32.1172 44.994 32.9857 44.994 33.7302C44.994 35.436 44.994 37.7931 44.994 39.6852V42.3835C44.994 42.4455 45.025 42.5076 45.056 42.5385C45.087 42.5696 45.149 42.6006 45.2111 42.6006H45.2731C45.3972 42.6006 45.4902 42.5076 45.4902 42.3524V41.9492C45.4902 40.9878 45.4902 40.0573 45.4902 39.0958V37.2349C45.4902 35.9012 45.4902 34.7846 45.4902 33.1098C45.4902 31.6521 46.3586 30.2564 47.5993 29.7601C47.7544 29.698 47.9405 29.6671 48.1266 29.6671C48.3437 29.543 48.6228 29.512 48.9019 29.512Z" fill="#515151"/>
<path d="M43.101 25.8221C42.8219 25.8221 42.6048 25.7291 42.4496 25.543C42.2016 25.2328 42.1705 24.7676 42.1705 24.3644C42.1705 23.9302 42.1705 23.713 42.1705 23.3719V23.0617V23.0307C41.8914 22.9997 41.5192 22.9997 41.178 23.0307C41.116 23.0307 41.085 23.0307 41.085 23.1548C41.085 23.651 41.085 23.8681 41.085 24.2713V24.5505C41.085 25.3259 40.8059 25.7911 40.3406 25.7911C36.4947 25.7911 31.5942 25.7911 27.7483 25.7911C27.3761 25.7911 27.159 25.605 27.0659 25.4189C26.8798 25.1087 26.8488 24.6745 26.9729 24.1783C27.159 23.527 27.283 23.4029 27.8723 23.3719C28.1825 23.3719 28.4616 23.3719 28.7718 23.3719C28.9579 23.3719 29.175 23.3719 29.3611 23.3719C29.4231 23.3719 29.4541 23.3719 29.4851 23.3719C29.4851 23.3409 29.4851 23.2788 29.4851 23.2168C29.4851 23.1237 29.4851 23.0617 29.4851 22.9687C29.4851 22.7826 29.4851 22.6895 29.4541 22.6275C29.4541 22.6585 29.3921 22.6585 29.206 22.6585C29.175 22.6585 29.144 22.6585 29.0819 22.6585C28.9889 22.6585 28.8648 22.6895 28.7408 22.6585C28.5547 22.6275 28.3686 22.4724 28.2755 22.2863C28.1825 22.0072 28.3686 21.697 28.5237 21.604C29.3611 21.0767 30.5707 20.8906 31.3151 20.8906H31.3771C33.9204 20.8906 36.4637 20.8906 39.007 20.8906H42.1396H43.9694C46.4197 20.8906 48.901 20.8906 51.3511 20.8906C51.8164 20.8906 52.1575 20.9216 52.4987 20.9527C53.057 21.0147 53.8635 21.4179 54.1426 21.9762C54.5767 22.8136 54.7319 24.1473 54.7008 25.0777C54.6698 25.543 54.4528 25.8221 54.0496 25.8531C53.9875 25.8531 53.9255 25.8531 53.8634 25.8531L43.101 25.8221ZM41.6432 22.2553C41.8603 22.2553 42.0775 22.2553 42.2326 22.2863C42.6358 22.3173 42.8839 22.6585 42.8839 23.1237V23.4339C42.8839 23.7751 42.8839 23.9612 42.8839 24.3954C42.8839 24.8296 42.946 24.9537 42.9769 25.0157C43.008 25.0467 43.039 25.0467 43.132 25.0467H53.8944C53.9564 25.0467 53.9875 25.0467 54.0496 25.0467C54.0496 25.0467 54.0496 25.0467 54.0496 25.0157C54.0805 24.2403 53.9564 23.0617 53.5843 22.3484C53.4603 22.0692 52.9019 21.7591 52.4987 21.728C52.1886 21.697 51.8784 21.666 51.4443 21.666C48.994 21.666 46.5127 21.666 44.0625 21.666H41.5192H39.069C36.5257 21.666 33.9824 21.666 31.4391 21.666C30.9429 21.666 30.3226 21.7591 29.7643 21.9141C29.8573 21.9451 29.9504 22.0072 30.0434 22.1002C30.2605 22.3173 30.2605 22.6585 30.2605 22.9687C30.2605 23.0927 30.2605 23.1858 30.2605 23.2788C30.2295 23.9302 30.0124 24.2093 29.4541 24.2093C29.268 24.2093 29.0509 24.2093 28.8338 24.2093C28.5547 24.2093 28.2445 24.2093 27.9654 24.2093C27.9033 24.2093 27.8413 24.2093 27.7793 24.2093C27.7483 24.2713 27.7483 24.3334 27.7172 24.4264C27.6552 24.7055 27.6552 24.9226 27.6862 24.9847C27.7172 25.0157 27.7793 25.0467 27.8413 25.0467C31.6872 25.0467 36.5567 25.0467 40.4027 25.0467C40.4336 24.9847 40.4647 24.8296 40.4647 24.5815V24.3023C40.4647 23.8991 40.4647 23.713 40.4647 23.2168C40.4647 22.6895 40.7438 22.3173 41.178 22.2863C41.3021 22.2863 41.4882 22.2553 41.6432 22.2553ZM46.9159 24.3644C46.6368 24.3644 46.4197 24.2713 46.2646 24.1162C46.1095 23.9612 46.0475 23.713 46.0475 23.4339C46.0475 23.1237 46.1405 22.8756 46.2957 22.6895C46.4507 22.5034 46.6678 22.4104 46.9159 22.4104C47.6603 22.4104 47.7534 22.9687 47.7534 23.4339C47.7534 23.651 47.7533 23.9302 47.5673 24.1473C47.4121 24.3023 47.1641 24.3644 46.9159 24.3644ZM46.7609 23.527C46.7609 23.527 46.7918 23.558 46.9469 23.558C47.0089 23.558 47.071 23.558 47.071 23.558C47.071 23.527 47.071 23.4959 47.071 23.4029C47.071 23.2478 47.071 23.1858 47.04 23.1548C47.04 23.1548 46.978 23.1548 46.9159 23.1548C46.885 23.1548 46.8229 23.1548 46.7918 23.2168C46.7609 23.2478 46.7298 23.3098 46.7298 23.4029C46.7298 23.4959 46.7609 23.527 46.7609 23.527ZM51.8164 24.3644C51.2581 24.3644 50.9479 23.9922 50.9479 23.3409C50.9479 23.0927 51.041 22.8446 51.1961 22.6585C51.3511 22.4724 51.5993 22.3794 51.8474 22.3794C52.0955 22.3794 52.3127 22.4724 52.4677 22.6585C52.6228 22.8446 52.7159 23.0927 52.6848 23.3719C52.6539 23.9922 52.3436 24.3644 51.8164 24.3644ZM51.7854 23.558C51.8784 23.558 51.9095 23.527 51.9405 23.527C51.9405 23.527 51.9715 23.4959 51.9715 23.3409C51.9715 23.3098 51.9715 23.2478 51.9405 23.1858C51.9095 23.1548 51.8784 23.1237 51.7854 23.1237C51.7543 23.1237 51.6923 23.1548 51.6613 23.1858C51.6302 23.2168 51.6302 23.2478 51.6302 23.3098C51.6302 23.4649 51.6613 23.4959 51.6613 23.4959C51.6302 23.527 51.6923 23.558 51.7854 23.558ZM44.5277 24.3644H44.4967C44.2796 24.3644 44.0315 24.3334 43.8764 24.0852C43.7213 23.8681 43.6903 23.589 43.6903 23.3409C43.6903 22.7516 44.0004 22.3794 44.4967 22.3794C44.7449 22.3794 44.9929 22.4724 45.1791 22.6895C45.3341 22.8756 45.4272 23.1237 45.4272 23.4029C45.3961 23.8371 45.2411 24.3644 44.5277 24.3644ZM44.3727 23.558C44.4036 23.558 44.4347 23.558 44.4967 23.558C44.6518 23.558 44.6828 23.527 44.6828 23.527C44.6828 23.527 44.7138 23.4959 44.7138 23.3719C44.7138 23.3098 44.7138 23.2788 44.6828 23.2478C44.6518 23.1858 44.5897 23.1858 44.4967 23.1858C44.4347 23.1858 44.3727 23.1858 44.3727 23.3719C44.3727 23.4649 44.3727 23.527 44.3727 23.558ZM38.9449 24.3644C38.7588 24.3644 38.5106 24.3334 38.3246 24.1162C38.1385 23.8991 38.1385 23.589 38.1385 23.3719C38.1385 22.7516 38.4486 22.3794 39.007 22.3794C39.255 22.3794 39.4722 22.4724 39.5963 22.6275C39.7513 22.8136 39.8443 23.0927 39.8443 23.4339C39.8134 23.7751 39.6893 24.3644 38.9449 24.3644ZM38.8208 23.558C38.8518 23.558 38.8829 23.558 38.9449 23.558C39.069 23.558 39.1 23.527 39.1 23.527C39.1 23.527 39.1 23.4959 39.1 23.4339C39.1 23.2478 39.069 23.1858 39.069 23.1858C39.069 23.1858 39.0379 23.1548 38.9759 23.1548C38.8829 23.1548 38.8518 23.1858 38.8518 23.1858C38.8518 23.1858 38.8208 23.2168 38.8208 23.3719C38.7899 23.4649 38.8208 23.527 38.8208 23.558ZM36.6497 24.3644C36.3706 24.3644 36.1535 24.2713 35.9984 24.1162C35.8433 23.9612 35.7813 23.713 35.7813 23.4029C35.7813 22.8136 36.1225 22.4414 36.6808 22.4414C36.8669 22.4414 37.115 22.4724 37.3011 22.6895C37.4872 22.9066 37.5182 23.2168 37.5182 23.4649C37.5182 24.0232 37.208 24.3334 36.6497 24.3644ZM36.4947 23.527C36.4947 23.527 36.5257 23.558 36.6497 23.558C36.7118 23.558 36.8048 23.558 36.8048 23.527C36.8048 23.527 36.8048 23.4959 36.8048 23.4339C36.8048 23.3098 36.8048 23.2478 36.8048 23.2168C36.7738 23.2168 36.7428 23.2168 36.6808 23.2168C36.4947 23.2168 36.4947 23.2788 36.4947 23.4029C36.4637 23.4959 36.4947 23.527 36.4947 23.527ZM34.3856 24.3334H34.3546C33.7653 24.3023 33.5482 24.0232 33.5482 23.3409C33.5482 23.0307 33.6412 22.7826 33.8273 22.5965C33.9824 22.4414 34.1685 22.3484 34.4166 22.3794C34.7268 22.4104 34.9749 22.5344 35.099 22.7205C35.192 22.8446 35.3161 23.0927 35.2851 23.4339C35.192 24.0542 34.9129 24.3334 34.3856 24.3334ZM34.3546 23.558C34.4787 23.558 34.5407 23.527 34.5407 23.527C34.5407 23.527 34.5407 23.4959 34.5717 23.3719C34.5717 23.3098 34.5717 23.2478 34.5717 23.2478C34.5407 23.2168 34.4787 23.1858 34.3546 23.1858C34.3236 23.1858 34.2926 23.1858 34.2926 23.1858C34.2926 23.1858 34.2615 23.2478 34.2615 23.3719C34.2615 23.4649 34.2615 23.527 34.2615 23.558C34.2615 23.558 34.2926 23.558 34.3546 23.558ZM49.3972 24.3334C49.3662 24.3334 49.3662 24.3334 49.3351 24.3334C48.6217 24.3023 48.5287 23.7441 48.5598 23.2788C48.5908 22.6895 48.8389 22.3794 49.3972 22.3794C49.9554 22.4104 50.2656 22.7516 50.2656 23.3719C50.2656 23.682 50.1726 23.9302 50.0174 24.0852C49.8624 24.2713 49.6763 24.3644 49.3972 24.3334ZM49.2421 23.558C49.2731 23.558 49.3042 23.558 49.3351 23.558C49.4902 23.558 49.5212 23.527 49.5212 23.527C49.5212 23.527 49.5212 23.4959 49.5522 23.3719C49.5522 23.2478 49.5522 23.1858 49.3662 23.1858C49.3042 23.1858 49.2731 23.1858 49.2421 23.1858C49.2421 23.2168 49.2421 23.2478 49.2421 23.3098C49.2421 23.4339 49.2421 23.4959 49.2421 23.558ZM31.9664 24.3334C31.7183 24.3334 31.5012 24.2403 31.3461 24.0852C31.191 23.9302 31.129 23.682 31.129 23.3719C31.129 22.8136 31.5012 22.3794 31.9664 22.3484C32.3076 22.3484 32.4937 22.4724 32.5867 22.5965C32.7108 22.7205 32.8348 22.9687 32.8348 23.3719C32.8658 24.0232 32.5867 24.3334 31.9664 24.3334ZM31.9974 23.1548C31.9044 23.1548 31.8113 23.2478 31.8113 23.3719C31.8113 23.4649 31.8423 23.527 31.8423 23.527C31.8423 23.527 31.8733 23.558 31.9664 23.558C32.0594 23.558 32.1215 23.558 32.1525 23.527C32.1525 23.527 32.1525 23.4649 32.1525 23.4029C32.1525 23.2788 32.1215 23.2168 32.1215 23.1858C32.0905 23.1548 32.0594 23.1548 31.9974 23.1548Z" fill="#515151"/>
<path d="M10.3573 69.084C9.80525 69.084 9.30925 68.988 8.86925 68.796C8.43725 68.596 8.09725 68.324 7.84925 67.98C7.60125 67.628 7.47325 67.224 7.46525 66.768H8.62925C8.66925 67.16 8.82925 67.492 9.10925 67.764C9.39725 68.028 9.81325 68.16 10.3573 68.16C10.8773 68.16 11.2853 68.032 11.5813 67.776C11.8853 67.512 12.0373 67.176 12.0373 66.768C12.0373 66.448 11.9493 66.188 11.7733 65.988C11.5973 65.788 11.3773 65.636 11.1133 65.532C10.8493 65.428 10.4933 65.316 10.0453 65.196C9.49325 65.052 9.04925 64.908 8.71325 64.764C8.38525 64.62 8.10125 64.396 7.86125 64.092C7.62925 63.78 7.51325 63.364 7.51325 62.844C7.51325 62.388 7.62925 61.984 7.86125 61.632C8.09325 61.28 8.41725 61.008 8.83325 60.816C9.25725 60.624 9.74125 60.528 10.2853 60.528C11.0693 60.528 11.7093 60.724 12.2053 61.116C12.7093 61.508 12.9933 62.028 13.0573 62.676H11.8573C11.8173 62.356 11.6493 62.076 11.3533 61.836C11.0573 61.588 10.6653 61.464 10.1773 61.464C9.72125 61.464 9.34925 61.584 9.06125 61.824C8.77325 62.056 8.62925 62.384 8.62925 62.808C8.62925 63.112 8.71325 63.36 8.88125 63.552C9.05725 63.744 9.26925 63.892 9.51725 63.996C9.77325 64.092 10.1293 64.204 10.5853 64.332C11.1373 64.484 11.5813 64.636 11.9173 64.788C12.2533 64.932 12.5413 65.16 12.7812 65.472C13.0213 65.776 13.1413 66.192 13.1413 66.72C13.1413 67.128 13.0333 67.512 12.8173 67.872C12.6013 68.232 12.2813 68.524 11.8573 68.748C11.4333 68.972 10.9333 69.084 10.3573 69.084ZM23.5082 62.424L21.4562 69H20.3282L18.7442 63.78L17.1602 69H16.0322L13.9682 62.424H15.0842L16.5962 67.944L18.2282 62.424H19.3442L20.9402 67.956L22.4282 62.424H23.5082ZM25.156 61.356C24.948 61.356 24.772 61.284 24.628 61.14C24.484 60.996 24.412 60.82 24.412 60.612C24.412 60.404 24.484 60.228 24.628 60.084C24.772 59.94 24.948 59.868 25.156 59.868C25.356 59.868 25.524 59.94 25.66 60.084C25.804 60.228 25.876 60.404 25.876 60.612C25.876 60.82 25.804 60.996 25.66 61.14C25.524 61.284 25.356 61.356 25.156 61.356ZM25.684 62.424V69H24.592V62.424H25.684ZM28.8771 63.324V67.2C28.8771 67.52 28.9451 67.748 29.0811 67.884C29.2171 68.012 29.4531 68.076 29.7891 68.076H30.5931V69H29.6091C29.0011 69 28.5451 68.86 28.2411 68.58C27.9371 68.3 27.7851 67.84 27.7851 67.2V63.324H26.9331V62.424H27.7851V60.768H28.8771V62.424H30.5931V63.324H28.8771ZM32.7322 68.1H35.9602V69H31.4842V68.1L34.6762 63.312H31.5082V62.424H35.9362V63.312L32.7322 68.1ZM43.3771 65.46C43.3771 65.668 43.3651 65.888 43.3411 66.12H38.0851C38.1251 66.768 38.3451 67.276 38.7451 67.644C39.1531 68.004 39.6451 68.184 40.2211 68.184C40.6931 68.184 41.0851 68.076 41.3971 67.86C41.7171 67.636 41.9411 67.34 42.0691 66.972H43.2451C43.0691 67.604 42.7171 68.12 42.1891 68.52C41.6611 68.912 41.0051 69.108 40.2211 69.108C39.5971 69.108 39.0371 68.968 38.5411 68.688C38.0531 68.408 37.6691 68.012 37.3891 67.5C37.1091 66.98 36.9691 66.38 36.9691 65.7C36.9691 65.02 37.1051 64.424 37.3771 63.912C37.6491 63.4 38.0291 63.008 38.5171 62.736C39.0131 62.456 39.5811 62.316 40.2211 62.316C40.8451 62.316 41.3971 62.452 41.8771 62.724C42.3571 62.996 42.7251 63.372 42.9811 63.852C43.2451 64.324 43.3771 64.86 43.3771 65.46ZM42.2491 65.232C42.2491 64.816 42.1571 64.46 41.9731 64.164C41.7891 63.86 41.5371 63.632 41.2171 63.48C40.9051 63.32 40.5571 63.24 40.1731 63.24C39.6211 63.24 39.1491 63.416 38.7571 63.768C38.3731 64.12 38.1531 64.608 38.0971 65.232H42.2491ZM45.9105 63.492C46.1025 63.116 46.3745 62.824 46.7265 62.616C47.0865 62.408 47.5225 62.304 48.0345 62.304V63.432H47.7465C46.5225 63.432 45.9105 64.096 45.9105 65.424V69H44.8185V62.424H45.9105V63.492ZM50.3871 60.12V69H49.2951V60.12H50.3871ZM51.8402 65.688C51.8402 65.016 51.9762 64.428 52.2482 63.924C52.5202 63.412 52.8922 63.016 53.3642 62.736C53.8442 62.456 54.3762 62.316 54.9602 62.316C55.5362 62.316 56.0362 62.44 56.4602 62.688C56.8842 62.936 57.2002 63.248 57.4082 63.624V62.424H58.5122V69H57.4082V67.776C57.1922 68.16 56.8682 68.48 56.4362 68.736C56.0122 68.984 55.5162 69.108 54.9482 69.108C54.3642 69.108 53.8362 68.964 53.3642 68.676C52.8922 68.388 52.5202 67.984 52.2482 67.464C51.9762 66.944 51.8402 66.352 51.8402 65.688ZM57.4082 65.7C57.4082 65.204 57.3082 64.772 57.1082 64.404C56.9082 64.036 56.6362 63.756 56.2922 63.564C55.9562 63.364 55.5842 63.264 55.1762 63.264C54.7682 63.264 54.3962 63.36 54.0602 63.552C53.7242 63.744 53.4562 64.024 53.2562 64.392C53.0562 64.76 52.9562 65.192 52.9562 65.688C52.9562 66.192 53.0562 66.632 53.2562 67.008C53.4562 67.376 53.7242 67.66 54.0602 67.86C54.3962 68.052 54.7682 68.148 55.1762 68.148C55.5842 68.148 55.9562 68.052 56.2922 67.86C56.6362 67.66 56.9082 67.376 57.1082 67.008C57.3082 66.632 57.4082 66.196 57.4082 65.7ZM63.5616 62.304C64.3616 62.304 65.0096 62.548 65.5056 63.036C66.0016 63.516 66.2496 64.212 66.2496 65.124V69H65.1696V65.28C65.1696 64.624 65.0056 64.124 64.6776 63.78C64.3496 63.428 63.9016 63.252 63.3336 63.252C62.7576 63.252 62.2976 63.432 61.9536 63.792C61.6176 64.152 61.4496 64.676 61.4496 65.364V69H60.3576V62.424H61.4496V63.36C61.6656 63.024 61.9576 62.764 62.3256 62.58C62.7016 62.396 63.1136 62.304 63.5616 62.304ZM67.6254 65.688C67.6254 65.016 67.7614 64.428 68.0334 63.924C68.3054 63.412 68.6774 63.016 69.1494 62.736C69.6294 62.456 70.1654 62.316 70.7574 62.316C71.2694 62.316 71.7454 62.436 72.1854 62.676C72.6254 62.908 72.9614 63.216 73.1934 63.6V60.12H74.2974V69H73.1934V67.764C72.9774 68.156 72.6574 68.48 72.2334 68.736C71.8094 68.984 71.3134 69.108 70.7454 69.108C70.1614 69.108 69.6294 68.964 69.1494 68.676C68.6774 68.388 68.3054 67.984 68.0334 67.464C67.7614 66.944 67.6254 66.352 67.6254 65.688ZM73.1934 65.7C73.1934 65.204 73.0934 64.772 72.8934 64.404C72.6934 64.036 72.4214 63.756 72.0774 63.564C71.7414 63.364 71.3694 63.264 70.9614 63.264C70.5534 63.264 70.1814 63.36 69.8454 63.552C69.5094 63.744 69.2414 64.024 69.0414 64.392C68.8414 64.76 68.7414 65.192 68.7414 65.688C68.7414 66.192 68.8414 66.632 69.0414 67.008C69.2414 67.376 69.5094 67.66 69.8454 67.86C70.1814 68.052 70.5534 68.148 70.9614 68.148C71.3694 68.148 71.7414 68.052 72.0774 67.86C72.4214 67.66 72.6934 67.376 72.8934 67.008C73.0934 66.632 73.1934 66.196 73.1934 65.7Z" fill="#515151"/>
<rect x="21" width="50" height="15" rx="2" fill="url(#paint0_linear_13_2971)"/>
<path d="M23.8182 5.56534V4.68182H28.4602V5.56534H26.6619V10.5H25.6165V5.56534H23.8182ZM28.8565 10.5V6.13636H29.8537V6.86364H29.8991C29.9787 6.61174 30.1151 6.41761 30.3082 6.28125C30.5033 6.14299 30.7259 6.07386 30.9759 6.07386C31.0327 6.07386 31.0961 6.0767 31.1662 6.08239C31.2382 6.08617 31.2978 6.0928 31.3452 6.10227V7.0483C31.3016 7.03314 31.2325 7.01989 31.1378 7.00852C31.045 6.99527 30.955 6.98864 30.8679 6.98864C30.6804 6.98864 30.5118 7.02936 30.3622 7.1108C30.2145 7.19034 30.098 7.30114 30.0128 7.44318C29.9276 7.58523 29.8849 7.74905 29.8849 7.93466V10.5H28.8565ZM33.7805 10.5852C33.343 10.5852 32.9652 10.4943 32.647 10.3125C32.3307 10.1288 32.0874 9.86932 31.9169 9.53409C31.7464 9.19697 31.6612 8.80019 31.6612 8.34375C31.6612 7.89489 31.7464 7.50095 31.9169 7.16193C32.0893 6.82102 32.3298 6.55587 32.6385 6.36648C32.9472 6.17519 33.3099 6.07955 33.7266 6.07955C33.9955 6.07955 34.2493 6.12311 34.4879 6.21023C34.7285 6.29545 34.9406 6.42803 35.1243 6.60795C35.3099 6.78788 35.4557 7.01705 35.5618 7.29545C35.6679 7.57197 35.7209 7.90152 35.7209 8.28409V8.59943H32.1442V7.90625H34.7351C34.7332 7.70928 34.6906 7.53409 34.6072 7.38068C34.5239 7.22538 34.4074 7.10322 34.2578 7.0142C34.1101 6.92519 33.9377 6.88068 33.7408 6.88068C33.5305 6.88068 33.3459 6.93182 33.1868 7.03409C33.0277 7.13447 32.9036 7.26705 32.8146 7.43182C32.7275 7.5947 32.683 7.77367 32.6811 7.96875V8.57386C32.6811 8.82765 32.7275 9.04545 32.8203 9.22727C32.9131 9.4072 33.0429 9.54545 33.2095 9.64205C33.3762 9.73674 33.5713 9.78409 33.7947 9.78409C33.9444 9.78409 34.0798 9.76326 34.201 9.72159C34.3222 9.67803 34.4273 9.61458 34.5163 9.53125C34.6054 9.44792 34.6726 9.3447 34.718 9.22159L35.6783 9.32955C35.6177 9.58333 35.5021 9.80492 35.3317 9.99432C35.1631 10.1818 34.9472 10.3277 34.6839 10.4318C34.4207 10.5341 34.1196 10.5852 33.7805 10.5852ZM37.6193 7.94318V10.5H36.5909V6.13636H37.5739V6.87784H37.625C37.7254 6.63352 37.8854 6.43939 38.1051 6.29545C38.3267 6.15152 38.6004 6.07955 38.9261 6.07955C39.2273 6.07955 39.4896 6.14394 39.7131 6.27273C39.9384 6.40152 40.1127 6.58807 40.2358 6.83239C40.3608 7.0767 40.4223 7.37311 40.4205 7.72159V10.5H39.392V7.88068C39.392 7.58902 39.3163 7.3608 39.1648 7.19602C39.0152 7.03125 38.8078 6.94886 38.5426 6.94886C38.3627 6.94886 38.2027 6.98864 38.0625 7.06818C37.9242 7.14583 37.8153 7.25852 37.7358 7.40625C37.6581 7.55398 37.6193 7.73295 37.6193 7.94318ZM43.0852 10.5767C42.7424 10.5767 42.4356 10.4886 42.1648 10.3125C41.8939 10.1364 41.6799 9.88068 41.5227 9.54545C41.3655 9.21023 41.2869 8.80303 41.2869 8.32386C41.2869 7.83902 41.3665 7.42992 41.5256 7.09659C41.6866 6.76136 41.9034 6.50852 42.1761 6.33807C42.4489 6.16572 42.7528 6.07955 43.0881 6.07955C43.3438 6.07955 43.554 6.12311 43.7188 6.21023C43.8835 6.29545 44.0142 6.39867 44.1108 6.51989C44.2074 6.6392 44.2822 6.75189 44.3352 6.85795H44.3778V4.68182H45.4091V10.5H44.3977V9.8125H44.3352C44.2822 9.91856 44.2055 10.0312 44.1051 10.1506C44.0047 10.268 43.8722 10.3684 43.7074 10.4517C43.5426 10.535 43.3352 10.5767 43.0852 10.5767ZM43.3722 9.73295C43.59 9.73295 43.7756 9.67424 43.929 9.55682C44.0824 9.4375 44.1989 9.27178 44.2784 9.05966C44.358 8.84754 44.3977 8.60038 44.3977 8.31818C44.3977 8.03598 44.358 7.79072 44.2784 7.58239C44.2008 7.37405 44.0852 7.21212 43.9318 7.09659C43.7803 6.98106 43.5938 6.9233 43.3722 6.9233C43.143 6.9233 42.9517 6.98295 42.7983 7.10227C42.6449 7.22159 42.5294 7.38636 42.4517 7.59659C42.3741 7.80682 42.3352 8.04735 42.3352 8.31818C42.3352 8.59091 42.3741 8.83428 42.4517 9.0483C42.5313 9.26042 42.6477 9.42803 42.8011 9.55114C42.9564 9.67235 43.1468 9.73295 43.3722 9.73295ZM46.505 10.5V6.13636H47.5334V10.5H46.505ZM47.022 5.51705C46.8591 5.51705 46.719 5.46307 46.6016 5.35511C46.4841 5.24526 46.4254 5.11364 46.4254 4.96023C46.4254 4.80492 46.4841 4.6733 46.6016 4.56534C46.719 4.45549 46.8591 4.40057 47.022 4.40057C47.1868 4.40057 47.3269 4.45549 47.4425 4.56534C47.5599 4.6733 47.6186 4.80492 47.6186 4.96023C47.6186 5.11364 47.5599 5.24526 47.4425 5.35511C47.3269 5.46307 47.1868 5.51705 47.022 5.51705ZM49.6193 7.94318V10.5H48.5909V6.13636H49.5739V6.87784H49.625C49.7254 6.63352 49.8854 6.43939 50.1051 6.29545C50.3267 6.15152 50.6004 6.07955 50.9261 6.07955C51.2273 6.07955 51.4896 6.14394 51.7131 6.27273C51.9384 6.40152 52.1127 6.58807 52.2358 6.83239C52.3608 7.0767 52.4223 7.37311 52.4205 7.72159V10.5H51.392V7.88068C51.392 7.58902 51.3163 7.3608 51.1648 7.19602C51.0152 7.03125 50.8078 6.94886 50.5426 6.94886C50.3627 6.94886 50.2027 6.98864 50.0625 7.06818C49.9242 7.14583 49.8153 7.25852 49.7358 7.40625C49.6581 7.55398 49.6193 7.73295 49.6193 7.94318ZM55.3636 12.2273C54.9943 12.2273 54.6771 12.1771 54.4119 12.0767C54.1468 11.9782 53.9337 11.8456 53.7727 11.679C53.6117 11.5123 53.5 11.3277 53.4375 11.125L54.3636 10.9006C54.4053 10.9858 54.4659 11.0701 54.5455 11.1534C54.625 11.2386 54.732 11.3087 54.8665 11.3636C55.0028 11.4205 55.1742 11.4489 55.3807 11.4489C55.6723 11.4489 55.9138 11.3778 56.1051 11.2358C56.2964 11.0956 56.392 10.8646 56.392 10.5426V9.71591H56.3409C56.2879 9.82197 56.2102 9.93087 56.108 10.0426C56.0076 10.1544 55.8741 10.2481 55.7074 10.3239C55.5426 10.3996 55.3352 10.4375 55.0852 10.4375C54.75 10.4375 54.446 10.3589 54.1733 10.2017C53.9025 10.0426 53.6866 9.80587 53.5256 9.49148C53.3665 9.17519 53.2869 8.77936 53.2869 8.30398C53.2869 7.82481 53.3665 7.42045 53.5256 7.09091C53.6866 6.75947 53.9034 6.50852 54.1761 6.33807C54.4489 6.16572 54.7528 6.07955 55.0881 6.07955C55.3438 6.07955 55.554 6.12311 55.7188 6.21023C55.8854 6.29545 56.018 6.39867 56.1165 6.51989C56.215 6.6392 56.2898 6.75189 56.3409 6.85795H56.3977V6.13636H57.4119V10.571C57.4119 10.9441 57.3229 11.2528 57.1449 11.4972C56.9669 11.7415 56.7235 11.9242 56.4148 12.0455C56.1061 12.1667 55.7557 12.2273 55.3636 12.2273ZM55.3722 9.63068C55.59 9.63068 55.7756 9.57765 55.929 9.47159C56.0824 9.36553 56.1989 9.21307 56.2784 9.0142C56.358 8.81534 56.3977 8.5767 56.3977 8.2983C56.3977 8.02367 56.358 7.78314 56.2784 7.5767C56.2008 7.37027 56.0852 7.21023 55.9318 7.09659C55.7803 6.98106 55.5938 6.9233 55.3722 6.9233C55.143 6.9233 54.9517 6.98295 54.7983 7.10227C54.6449 7.22159 54.5294 7.38542 54.4517 7.59375C54.3741 7.80019 54.3352 8.03504 54.3352 8.2983C54.3352 8.56534 54.3741 8.79924 54.4517 9C54.5313 9.19886 54.6477 9.35417 54.8011 9.46591C54.9564 9.57576 55.1468 9.63068 55.3722 9.63068Z" fill="white"/>
<path d="M64.6837 8.63462L64.6881 8.63768L64.6933 8.63875L64.6986 8.63768L64.703 8.63462L66.8784 6.39077C66.8907 6.37805 66.8908 6.36523 66.8786 6.35234L66.2364 5.68422C66.233 5.68063 66.2305 5.67617 66.2292 5.6713C66.2279 5.66642 66.2279 5.66128 66.2291 5.65639C66.2303 5.65149 66.2328 5.64701 66.2362 5.64337C66.2396 5.63972 66.2438 5.63705 66.2485 5.63561C66.9939 5.41129 67.7481 5.2003 68.5111 5.00262C68.5193 5.00041 68.5246 4.99948 68.5269 4.99982C68.5399 5.00118 68.545 5.00771 68.5424 5.01942C68.357 5.80656 68.1582 6.59015 67.9461 7.37017C67.938 7.40003 67.9232 7.40419 67.9017 7.38264L67.2373 6.71885C67.2329 6.71448 67.2271 6.71206 67.221 6.71211C67.215 6.71216 67.2092 6.71467 67.2049 6.7191C66.4791 7.46773 65.7523 8.21763 65.0243 8.96881C64.9098 9.0869 64.7938 9.27958 64.5976 9.19177C64.5673 9.17819 64.5266 9.14477 64.4754 9.09149C64.0905 8.69189 63.6997 8.28873 63.303 7.88201C63.2918 7.87064 63.2807 7.87064 63.2697 7.88201C62.721 8.44687 62.1702 9.0153 61.6175 9.58729C61.5399 9.66772 61.4825 9.71752 61.4455 9.7367C61.2199 9.85301 61.0119 9.54326 61.1947 9.35466C61.8144 8.71598 62.4337 8.07688 63.0525 7.43736C63.1549 7.33173 63.2302 7.26403 63.3675 7.3129C63.4027 7.32545 63.442 7.35455 63.4854 7.4002C63.8825 7.81659 64.2819 8.22807 64.6837 8.63462Z" fill="white" stroke="white" stroke-width="0.212551"/>
<defs>
<linearGradient id="paint0_linear_13_2971" x1="20.5337" y1="5.28912" x2="71.4603" y2="9.77917" gradientUnits="userSpaceOnUse">
<stop stop-color="#C4242B"/>
<stop offset="1" stop-color="#E14249"/>
</linearGradient>
</defs>
</svg>
