<svg width="82" height="70" viewBox="0 0 82 70" fill="none" xmlns="http://www.w3.org/2000/svg">
<rect width="82" height="70" rx="4" fill="white" fill-opacity="0.1"/>
<path d="M39.6685 34.7842H27.2459C26.8134 34.56 26.6533 34.2044 26.7045 33.7239C26.7302 33.474 26.7045 33.221 26.7141 32.971C26.7237 32.7181 26.8295 32.5066 27.0697 32.4073C27.2427 32.3368 27.4349 32.2695 27.6175 32.2664C28.3222 32.2503 29.027 32.2599 29.7413 32.2599V29.7933C28.8636 29.7549 28.5336 29.3193 28.3991 28.8003C28.2838 28.3455 28.2069 27.881 28.1012 27.4261C28.082 27.3396 28.0083 27.2211 27.9314 27.1954C27.3292 26.9905 26.9832 26.5452 26.7526 25.9782C26.6629 25.7604 26.6949 25.565 26.8807 25.4305C27.0473 25.3087 27.3452 25.4305 27.4669 25.6354C27.5246 25.7316 27.5662 25.8373 27.6271 25.9334C27.8097 26.212 28.0403 26.449 28.3927 26.4555C29.1999 26.4684 30.004 26.4555 30.8112 26.4555C30.8753 26.4555 30.9425 26.4427 31.013 26.4331C30.9554 26.18 30.8977 25.9526 30.8497 25.7251C30.6639 24.841 30.4877 23.9536 30.2955 23.0696C30.2762 22.9831 30.2026 22.8645 30.1289 22.8421C29.485 22.65 29.1487 22.1598 28.8956 21.5896C28.8123 21.4038 28.8347 21.2116 29.0205 21.1027C29.1839 21.0066 29.3825 20.9682 29.5235 21.1508C29.626 21.2788 29.7029 21.4327 29.7893 21.5704C29.9912 21.8907 30.2506 22.1022 30.6575 22.0958C31.3654 22.0893 32.0733 22.0958 32.7813 22.0958C32.887 22.0958 32.9895 22.0958 33.0984 22.0958C32.9895 21.4774 32.8966 20.8849 32.7813 20.2987C32.7556 20.1705 32.7556 20.0103 32.5666 19.9591C31.9196 19.7862 31.5832 19.2928 31.3622 18.7098C31.2917 18.524 31.3109 18.3158 31.5416 18.2197C31.7562 18.13 31.942 18.1909 32.0765 18.3703C32.1342 18.444 32.1598 18.5401 32.2015 18.6265C32.4065 19.0557 32.7332 19.2736 33.2201 19.2512C33.5405 19.2384 33.864 19.2512 34.1875 19.2512C34.6841 19.2512 35.1838 19.2512 35.6835 19.2512C35.5746 18.7322 35.4785 18.2389 35.3632 17.7488C35.3407 17.6527 35.2671 17.515 35.187 17.4925C34.5463 17.3035 34.21 16.8198 33.9537 16.256C33.8256 15.9709 33.9889 15.7307 34.29 15.7051C34.5751 15.6826 34.6776 15.8749 34.7673 16.0702C34.8763 16.3041 35.0012 16.5091 35.2703 16.6501C35.2703 15.987 35.2799 15.3687 35.2639 14.7537C35.2607 14.6191 35.1934 14.475 35.1165 14.3597C35.0204 14.2187 34.9852 14.0778 35.0524 13.9304C35.1165 13.7863 35.2286 13.6998 35.408 13.7126C35.6258 13.7286 35.8469 13.7158 36.0935 13.7158C36.0935 13.5748 36.0935 13.4691 36.0935 13.3634C36.0935 12.915 36.0903 12.4665 36.1031 12.018C36.1095 11.813 36.2153 11.6753 36.4523 11.6689C36.6926 11.6625 36.8431 11.765 36.8847 11.9988C36.904 12.1045 36.8976 12.2134 36.8976 12.3223C36.8976 12.7836 36.8976 13.2481 36.8976 13.719C37.1058 13.719 37.2756 13.7254 37.4453 13.719C37.6343 13.7094 37.8073 13.7414 37.8746 13.94C37.9354 14.1258 37.9226 14.3084 37.7368 14.4333C37.724 14.4494 37.708 14.4622 37.6952 14.4782V16.743H39.0278C39.0278 16.1856 39.0182 15.641 39.031 15.0964C39.0374 14.837 39.0245 14.6159 38.7747 14.4622C38.6947 14.4109 38.6114 14.2956 38.6049 14.2059C38.5761 13.7767 38.5345 13.341 38.5761 12.915C38.6114 12.5498 38.9188 12.3768 39.2648 12.3031C39.2648 11.5888 39.2648 10.8872 39.2617 10.1889C39.2617 10.112 39.22 10.0095 39.1623 9.96468C38.9861 9.83014 38.9669 9.62832 39.047 9.48738C39.1143 9.36886 39.3064 9.28236 39.457 9.25674C39.6589 9.2183 39.8734 9.24713 40.0881 9.24713C40.0881 8.68655 40.0945 8.17401 40.0881 7.66468C40.0849 7.44045 40.1585 7.28669 40.3667 7.2002H40.5814C40.8088 7.34115 40.9113 7.53334 40.9017 7.81523C40.8825 8.28612 40.8953 8.76022 40.8953 9.25034C41.1068 9.25034 41.3021 9.2215 41.4783 9.25995C41.6129 9.28877 41.7699 9.37527 41.8467 9.48738C41.9396 9.62193 41.9075 9.7885 41.773 9.92624C41.7154 9.9871 41.6834 10.0992 41.6834 10.1889C41.6769 10.836 41.6834 11.4799 41.6769 12.1269C41.6769 12.2711 41.7089 12.3416 41.8659 12.3864C42.1639 12.4697 42.3529 12.774 42.3529 13.0943C42.3529 13.3987 42.3849 13.7094 42.3433 14.0073C42.3145 14.1995 42.1735 14.3757 42.0806 14.5583C42.0293 14.6576 41.9332 14.7505 41.93 14.8498C41.914 15.263 41.9236 15.6762 41.9236 16.0863V16.743H43.2658C43.2658 16.0158 43.2658 15.2982 43.2626 14.5839C43.2626 14.5294 43.2274 14.4654 43.1858 14.4269C43.0576 14.2988 42.9551 14.1739 43.0319 13.9753C43.1152 13.7606 43.2754 13.6709 43.4932 13.6677C43.6855 13.6677 43.8777 13.6677 44.0794 13.6677C44.0794 13.1104 44.0763 12.5914 44.0794 12.0725C44.0827 11.7874 44.1947 11.6785 44.4574 11.6753C44.7201 11.6721 44.8803 11.8386 44.8835 12.1333C44.8899 12.6459 44.8899 13.1552 44.8931 13.6677C44.9091 13.6838 44.9219 13.6966 44.9379 13.7126C45.1269 13.7126 45.3128 13.7286 45.5018 13.719C45.6939 13.7094 45.8188 13.8055 45.8509 13.9721C45.8733 14.0906 45.8221 14.2251 45.79 14.3469C45.7741 14.4109 45.6875 14.4622 45.6875 14.5198C45.6812 15.215 45.6843 15.9101 45.6843 16.6052C45.71 16.618 45.7355 16.6276 45.7612 16.6404C45.9149 16.413 46.0815 16.1952 46.2225 15.9613C46.357 15.7435 46.5909 15.6378 46.7959 15.7307C46.9528 15.8012 47.0554 16.0959 46.9593 16.2945C46.735 16.7558 46.4788 17.2331 45.9631 17.3868C45.569 17.5054 45.5338 17.7712 45.4761 18.0723C45.4633 18.1396 45.4441 18.2068 45.4312 18.2742C45.3704 18.5944 45.3095 18.9148 45.2455 19.2608C46.1329 19.2608 46.9753 19.2704 47.8145 19.2543C47.978 19.2543 48.1477 19.171 48.3015 19.1006C48.5866 18.9693 48.6922 18.6906 48.8204 18.4311C48.9229 18.2197 49.1375 18.1332 49.3425 18.2164C49.5668 18.3062 49.6276 18.4887 49.5604 18.6938C49.3649 19.2992 48.9773 19.7476 48.3752 19.9623C48.2309 20.0136 48.1862 20.0584 48.1605 20.1962C48.0997 20.5485 48.0164 20.8945 47.9555 21.2468C47.9043 21.5256 47.8723 21.8074 47.8306 22.1022C48.6795 22.1022 49.4867 22.1118 50.2907 22.0989C50.6624 22.0926 50.9539 21.9099 51.1268 21.5672C51.1845 21.4519 51.2453 21.3333 51.3094 21.2212C51.4247 21.0194 51.617 21.0194 51.7995 21.0706C51.9661 21.1155 52.0558 21.2372 52.0366 21.4327C51.9885 21.9324 51.46 22.6339 50.8225 22.8325C50.752 22.8549 50.6591 22.9126 50.6431 22.9702C50.5726 23.2201 50.5277 23.4764 50.4765 23.7326C50.4093 24.0465 50.2107 24.1908 49.9352 24.1234C49.7141 24.069 49.6148 23.8224 49.6917 23.5372C49.7429 23.3386 49.7846 23.14 49.8327 22.9318H47.5871C47.5775 23.0247 47.5904 23.1144 47.5583 23.1817C47.3917 23.5084 47.2347 23.8416 47.0297 24.1426C46.7734 24.5206 46.4147 24.5847 45.9919 24.3925C45.9406 24.3669 45.8829 24.3508 45.8061 24.3189C45.8061 24.6231 45.742 24.9178 45.8188 25.1709C45.9439 25.5746 46.1521 25.9526 46.3411 26.3306C46.3731 26.3947 46.4884 26.4555 46.5652 26.4586C47.3885 26.4684 48.2117 26.4651 49.0575 26.4651C49.0831 26.3722 49.1119 26.2825 49.1312 26.1928C49.1855 25.9557 49.2241 25.7155 49.2945 25.4848C49.3649 25.2478 49.5731 25.2222 49.7719 25.2638C49.9448 25.2991 50.0761 25.408 50.0441 25.6226C50.0025 25.9014 49.9607 26.18 49.916 26.4684C50.6495 26.4684 51.3766 26.4427 52.1006 26.4747C52.7477 26.5035 53.209 26.2857 53.4428 25.6579C53.5069 25.4817 53.6318 25.4144 53.8336 25.4144C54.0514 25.4144 54.1283 25.5681 54.2404 25.693V25.9622C54.1924 26.023 54.1316 26.0743 54.0995 26.1416C53.8657 26.6541 53.5037 27.016 52.9655 27.205C52.8919 27.2307 52.8149 27.3332 52.7957 27.4132C52.7253 27.7016 52.6933 27.9963 52.6228 28.2814C52.5267 28.6915 52.5331 29.1624 52.1359 29.4282C51.8603 29.614 51.5368 29.7325 51.2101 29.8927V32.2695C51.8732 32.2695 52.5171 32.2824 53.1609 32.2664C53.6638 32.2536 54.0387 32.4265 54.2373 32.9102V34.2589C54.2189 34.6248 54.0286 34.8082 53.6446 34.797H41.2221C41.1517 34.6912 41.0427 34.592 41.017 34.4767C40.9562 34.1852 41.1517 33.9897 41.4783 33.9897C42.7853 33.9897 44.0923 33.9897 45.3992 33.9897C45.4922 33.9897 45.5882 33.9897 45.7035 33.9897V33.0992H35.2158V33.9897C36.3081 33.9897 37.3845 33.9897 38.4575 33.9897C38.7875 33.9897 39.1207 33.9705 39.4507 33.9993C39.5915 34.0122 39.7581 34.0891 39.8542 34.1916C39.9632 34.3101 39.9375 34.483 39.8254 34.6208C39.7742 34.6849 39.7165 34.7394 39.6589 34.8002L39.6685 34.7842ZM36.0807 16.7301C36.0807 16.7301 36.0807 16.759 36.0807 16.7718C36.0935 16.759 36.1095 16.7494 36.1223 16.7365H36.8623V14.5423H36.0775V16.7301H36.0807ZM37.8938 25.5842C37.2499 25.5842 36.6061 25.5746 35.9622 25.5842C35.8885 25.5842 35.7764 25.6291 35.7508 25.6867C35.6354 25.9269 35.5425 26.1768 35.4272 26.4619C36.1031 26.4619 36.7374 26.4619 37.3685 26.4586C37.4197 26.4586 37.4934 26.401 37.5222 26.3498C37.6664 26.1127 37.8009 25.8724 37.9354 25.6322C37.9194 25.6194 37.9034 25.6034 37.8906 25.5906L37.8938 25.5842ZM43.0064 25.5842C43.0064 25.5842 42.9775 25.5874 42.9647 25.5906C42.9775 25.6066 42.9903 25.6194 43.0031 25.6354C43.2979 26.3978 43.3875 26.4619 44.1659 26.4619H44.435C44.7874 26.4619 45.143 26.4619 45.5177 26.4619C45.3769 26.1447 45.2519 25.8693 45.1269 25.5874H43.0095L43.0064 25.5842ZM39.8414 14.7953V16.5732H39.944C40.3251 16.4066 40.6967 16.5027 41.0683 16.618C41.0811 16.6052 41.0972 16.5892 41.11 16.5764V14.7985C41.11 14.7985 41.0811 14.7697 41.0683 14.7537C40.6743 14.7537 40.2803 14.7537 39.8863 14.7537C39.8703 14.7697 39.8575 14.7825 39.8414 14.7985V14.7953ZM35.2607 27.3044L35.2158 27.3493V30.4756C35.2158 30.4756 35.2446 30.5046 35.2607 30.5205H35.9654V27.3044H35.2607ZM45.7355 27.3493C45.7355 27.3493 45.7067 27.3204 45.6908 27.3044H44.986V30.5205H45.6908L45.7355 30.4756V27.3493ZM35.9045 24.7674C36.7374 24.7674 37.5318 24.7674 38.3295 24.7609C38.3967 24.7609 38.4896 24.7 38.5249 24.6392C38.9445 23.9344 39.3513 23.2233 39.7805 22.5218C39.8671 22.3808 40.0048 22.243 40.1522 22.1822C40.5782 22.0028 40.9274 22.1502 41.1772 22.573C41.5809 23.2554 41.9845 23.9377 42.3945 24.6168C42.4329 24.6808 42.5194 24.7578 42.5835 24.7578C43.3779 24.7674 44.1723 24.7641 44.9893 24.7641C44.9893 24.5751 44.9699 24.4053 44.9924 24.242C45.0469 23.8736 44.9507 23.6013 44.6017 23.4252C44.4415 23.3419 44.3005 23.2137 44.1627 23.0984C43.5957 22.6243 43.0095 22.1694 42.4714 21.6633C41.8211 21.0451 41.2156 20.382 40.591 19.738C40.4981 19.642 40.4565 19.6131 40.3316 19.7445C39.6813 20.4268 39.0341 21.1219 38.3295 21.7498C37.5831 22.4161 36.7758 23.0119 36.0006 23.6397C35.9526 23.6782 35.9077 23.7487 35.9045 23.8032C35.8949 24.1138 35.9013 24.4278 35.9013 24.7705L35.9045 24.7674ZM46.3411 23.7103C46.466 23.4956 46.5428 23.3386 46.6421 23.2009C46.735 23.0696 46.7287 23.0119 46.5813 22.9158C45.3832 22.1277 44.2557 21.25 43.2146 20.2603C42.3304 19.421 41.5264 18.5112 40.8057 17.5278C40.5751 17.2138 40.3283 17.2491 40.0913 17.5534C39.6556 18.1076 39.2231 18.6714 38.7427 19.1871C38.1757 19.7925 37.5735 20.3691 36.9552 20.9265C36.4811 21.3525 35.9654 21.737 35.4529 22.1246C35.0396 22.4385 34.604 22.7236 34.1747 23.028C34.2965 23.2393 34.415 23.4411 34.5399 23.6589C34.8827 23.4315 35.235 23.2362 35.5457 22.9863C36.5068 22.2111 37.471 21.4423 38.3903 20.619C38.9861 20.084 39.4923 19.4562 40.0432 18.8732C40.2579 18.6489 40.7639 18.6938 40.9594 18.9308C41.2766 19.312 41.584 19.706 41.9365 20.052C42.5386 20.6414 43.1537 21.2245 43.804 21.7626C44.6176 22.432 45.4729 23.0535 46.3411 23.7199V23.7103ZM35.062 24.3092C34.9627 24.3541 34.8795 24.399 34.793 24.431C34.431 24.5688 34.0562 24.463 33.8768 24.1395C33.6526 23.7423 33.454 23.3354 33.2393 22.919H31.0803C31.3334 24.0979 31.5832 25.267 31.8363 26.4555C32.509 26.4555 33.1721 26.417 33.832 26.4684C34.3477 26.5068 34.6296 26.369 34.8154 25.8532C34.9948 25.3568 35.1806 24.8827 35.0652 24.3092H35.062ZM45.7067 31.363H35.219V32.2471H45.7067V31.363ZM50.374 33.9673V29.7741H48.1381V33.9673H50.374ZM30.5645 33.9546H32.8069V29.7806H30.5645V33.9546ZM40.072 30.5173C40.072 29.8062 40.0593 29.1238 40.0817 28.4448C40.0849 28.3135 40.1938 28.1308 40.3091 28.07C40.45 27.9931 40.6551 28.0188 40.7543 28.1982C40.8184 28.3166 40.8697 28.4576 40.8729 28.5889C40.8857 29.2296 40.8793 29.8702 40.8793 30.5142H41.8179V27.2787H39.1335V30.5142H40.0753L40.072 30.5173ZM32.8069 28.9542V27.282H28.9052C29.0013 27.7208 29.0878 28.1372 29.1807 28.5537C29.2512 28.8772 29.3409 28.9542 29.6612 28.9542C30.3788 28.9542 31.0931 28.9542 31.8107 28.9542C32.1406 28.9542 32.4673 28.9542 32.8069 28.9542ZM48.1349 27.2756V28.9542C49.208 28.9542 50.2619 28.9638 51.3158 28.9413C51.4472 28.9413 51.6586 28.7971 51.6938 28.6754C51.8283 28.2205 51.9052 27.7528 52.0077 27.2724H48.1349V27.2756ZM42.5098 26.4427C41.8211 25.2638 41.1548 24.1234 40.4565 22.9286C39.7646 24.1138 39.0951 25.2638 38.4095 26.4363H40.0401C40.0401 26.3017 40.0401 26.1832 40.0401 26.0679C40.0401 25.943 40.0336 25.8148 40.0401 25.6899C40.0593 25.4144 40.2067 25.2862 40.4853 25.2991C40.7384 25.3119 40.8441 25.4336 40.8473 25.7124C40.8473 25.9526 40.8473 26.1896 40.8473 26.4427H42.5098ZM38.3038 27.2852H36.7983V30.5173H38.3038V27.2852ZM44.1531 27.2787H42.6539V30.5269H44.1531V27.2787ZM46.5652 27.3044V33.9642H47.3053V27.3044H46.5652ZM33.6526 27.3044V33.9642H34.3893V27.3044H33.6526ZM41.8724 17.5662C41.9236 17.6431 41.9492 17.6911 41.9845 17.7296C42.2696 18.0564 42.5675 18.3734 42.8366 18.713C43.1089 19.059 43.3811 19.3665 43.8841 19.2672C43.9961 19.2447 44.1179 19.2512 44.2333 19.2672C44.3902 19.2896 44.435 19.1935 44.4607 19.075C44.5631 18.5752 44.6625 18.0756 44.765 17.5662H41.8755H41.8724ZM47.3757 20.0809H44.2268C45.1173 20.8624 45.9855 21.5608 46.9689 22.1758C47.1098 21.4486 47.2412 20.7728 47.3757 20.0809ZM33.9313 22.1502C34.9595 21.5544 35.818 20.84 36.6958 20.0744H33.5565C33.6782 20.7439 33.7935 21.3942 33.9313 22.1502ZM39.0951 17.5694H36.1512C36.2697 18.1268 36.3882 18.665 36.5036 19.2096C36.8431 19.2096 37.157 19.2159 37.471 19.2063C37.5478 19.2063 37.6439 19.1614 37.6952 19.1071C38.1501 18.6169 38.5985 18.1172 39.0951 17.5694ZM51.1876 33.9609H53.4205V33.08H51.1876V33.9609ZM29.7157 33.08H27.5342V33.9577H29.7157V33.08ZM44.8642 16.7237V14.5391H44.089V16.7237H44.8642ZM41.5489 13.1296H39.3674V13.9016H41.5489V13.1296ZM40.0881 12.3127C40.3059 12.3127 40.4949 12.3287 40.6807 12.3063C40.7512 12.2967 40.8697 12.207 40.8697 12.1494C40.8825 11.4542 40.8793 10.7591 40.8793 10.0672H40.0881V12.3127Z" fill="#515151"/>
<path d="M21.0329 50.636V51.524H18.7529V59H17.6609V51.524H15.3689V50.636H21.0329ZM25.6411 52.304C26.1371 52.304 26.5851 52.412 26.9851 52.628C27.3851 52.836 27.6971 53.152 27.9211 53.576C28.1531 54 28.2691 54.516 28.2691 55.124V59H27.1891V55.28C27.1891 54.624 27.0251 54.124 26.6971 53.78C26.3691 53.428 25.9211 53.252 25.3531 53.252C24.7771 53.252 24.3171 53.432 23.9731 53.792C23.6371 54.152 23.4691 54.676 23.4691 55.364V59H22.3771V50.12H23.4691V53.36C23.6851 53.024 23.9811 52.764 24.3571 52.58C24.7411 52.396 25.1691 52.304 25.6411 52.304ZM29.6449 55.688C29.6449 55.016 29.7809 54.428 30.0529 53.924C30.3249 53.412 30.6969 53.016 31.1689 52.736C31.6489 52.456 32.1809 52.316 32.7649 52.316C33.3409 52.316 33.8409 52.44 34.2649 52.688C34.6889 52.936 35.0049 53.248 35.2129 53.624V52.424H36.3169V59H35.2129V57.776C34.9969 58.16 34.6729 58.48 34.2409 58.736C33.8169 58.984 33.3209 59.108 32.7529 59.108C32.1689 59.108 31.6409 58.964 31.1689 58.676C30.6969 58.388 30.3249 57.984 30.0529 57.464C29.7809 56.944 29.6449 56.352 29.6449 55.688ZM35.2129 55.7C35.2129 55.204 35.1129 54.772 34.9129 54.404C34.7129 54.036 34.4409 53.756 34.0969 53.564C33.7609 53.364 33.3889 53.264 32.9809 53.264C32.5729 53.264 32.2009 53.36 31.8649 53.552C31.5289 53.744 31.2609 54.024 31.0609 54.392C30.8609 54.76 30.7609 55.192 30.7609 55.688C30.7609 56.192 30.8609 56.632 31.0609 57.008C31.2609 57.376 31.5289 57.66 31.8649 57.86C32.2009 58.052 32.5729 58.148 32.9809 58.148C33.3889 58.148 33.7609 58.052 34.0969 57.86C34.4409 57.66 34.7129 57.376 34.9129 57.008C35.1129 56.632 35.2129 56.196 35.2129 55.7ZM38.7263 51.356C38.5183 51.356 38.3423 51.284 38.1983 51.14C38.0543 50.996 37.9823 50.82 37.9823 50.612C37.9823 50.404 38.0543 50.228 38.1983 50.084C38.3423 49.94 38.5183 49.868 38.7263 49.868C38.9263 49.868 39.0943 49.94 39.2303 50.084C39.3743 50.228 39.4463 50.404 39.4463 50.612C39.4463 50.82 39.3743 50.996 39.2303 51.14C39.0943 51.284 38.9263 51.356 38.7263 51.356ZM39.2543 52.424V59H38.1623V52.424H39.2543ZM42.2074 50.12V59H41.1154V50.12H42.2074ZM43.6605 55.688C43.6605 55.016 43.7965 54.428 44.0685 53.924C44.3405 53.412 44.7125 53.016 45.1845 52.736C45.6645 52.456 46.1965 52.316 46.7805 52.316C47.3565 52.316 47.8565 52.44 48.2805 52.688C48.7045 52.936 49.0205 53.248 49.2285 53.624V52.424H50.3325V59H49.2285V57.776C49.0125 58.16 48.6885 58.48 48.2565 58.736C47.8325 58.984 47.3365 59.108 46.7685 59.108C46.1845 59.108 45.6565 58.964 45.1845 58.676C44.7125 58.388 44.3405 57.984 44.0685 57.464C43.7965 56.944 43.6605 56.352 43.6605 55.688ZM49.2285 55.7C49.2285 55.204 49.1285 54.772 48.9285 54.404C48.7285 54.036 48.4565 53.756 48.1125 53.564C47.7765 53.364 47.4045 53.264 46.9965 53.264C46.5885 53.264 46.2165 53.36 45.8805 53.552C45.5445 53.744 45.2765 54.024 45.0765 54.392C44.8765 54.76 44.7765 55.192 44.7765 55.688C44.7765 56.192 44.8765 56.632 45.0765 57.008C45.2765 57.376 45.5445 57.66 45.8805 57.86C46.2165 58.052 46.5885 58.148 46.9965 58.148C47.4045 58.148 47.7765 58.052 48.1125 57.86C48.4565 57.66 48.7285 57.376 48.9285 57.008C49.1285 56.632 49.2285 56.196 49.2285 55.7ZM55.3819 52.304C56.1819 52.304 56.8299 52.548 57.3259 53.036C57.8219 53.516 58.0699 54.212 58.0699 55.124V59H56.9899V55.28C56.9899 54.624 56.8259 54.124 56.4979 53.78C56.1699 53.428 55.7219 53.252 55.1539 53.252C54.5779 53.252 54.1179 53.432 53.7739 53.792C53.4379 54.152 53.2699 54.676 53.2699 55.364V59H52.1779V52.424H53.2699V53.36C53.4859 53.024 53.7779 52.764 54.1459 52.58C54.5219 52.396 54.9339 52.304 55.3819 52.304ZM59.4457 55.688C59.4457 55.016 59.5817 54.428 59.8537 53.924C60.1257 53.412 60.4977 53.016 60.9697 52.736C61.4497 52.456 61.9857 52.316 62.5777 52.316C63.0897 52.316 63.5657 52.436 64.0057 52.676C64.4457 52.908 64.7817 53.216 65.0137 53.6V50.12H66.1177V59H65.0137V57.764C64.7977 58.156 64.4777 58.48 64.0537 58.736C63.6297 58.984 63.1337 59.108 62.5657 59.108C61.9817 59.108 61.4497 58.964 60.9697 58.676C60.4977 58.388 60.1257 57.984 59.8537 57.464C59.5817 56.944 59.4457 56.352 59.4457 55.688ZM65.0137 55.7C65.0137 55.204 64.9137 54.772 64.7137 54.404C64.5137 54.036 64.2417 53.756 63.8977 53.564C63.5617 53.364 63.1897 53.264 62.7817 53.264C62.3737 53.264 62.0017 53.36 61.6657 53.552C61.3297 53.744 61.0617 54.024 60.8617 54.392C60.6617 54.76 60.5617 55.192 60.5617 55.688C60.5617 56.192 60.6617 56.632 60.8617 57.008C61.0617 57.376 61.3297 57.66 61.6657 57.86C62.0017 58.052 62.3737 58.148 62.7817 58.148C63.1897 58.148 63.5617 58.052 63.8977 57.86C64.2417 57.66 64.5137 57.376 64.7137 57.008C64.9137 56.632 65.0137 56.196 65.0137 55.7Z" fill="#515151"/>
</svg>
