<svg width="70" height="71" viewBox="0 0 70 71" fill="none" xmlns="http://www.w3.org/2000/svg">
<g clip-path="url(#clip0_654_73)">
<path d="M70.0008 47.873C70.0008 39.1866 65.0175 31.4342 57.5541 27.6632C57.3223 44.3183 43.8192 57.8214 27.1641 58.0532C30.935 65.5167 38.6874 70.5 47.3739 70.5C51.4466 70.5 55.4072 69.4153 58.8871 67.3544L69.902 70.4012L66.8552 59.3862C68.9162 55.9063 70.0008 51.9457 70.0008 47.873Z" fill="#C4242B"/>
<path d="M53.457 27.2285C53.457 12.4901 41.4669 0.5 26.7285 0.5C11.9901 0.5 0 12.4901 0 27.2285C0 32.0318 1.27853 36.7086 3.70636 40.8144L0.0982666 53.8582L13.1426 50.2507C17.2485 52.6785 21.9252 53.957 26.7285 53.957C41.4669 53.957 53.457 41.9669 53.457 27.2285ZM22.627 21.0078H18.5254C18.5254 16.4843 22.205 12.8047 26.7285 12.8047C31.252 12.8047 34.9316 16.4843 34.9316 21.0078C34.9316 23.3037 33.9597 25.5105 32.264 27.0614L28.7793 30.2508V33.4492H24.6777V28.4446L29.4949 24.0354C30.3558 23.2477 30.8301 22.1726 30.8301 21.0078C30.8301 18.7461 28.9903 16.9063 26.7285 16.9063C24.4668 16.9063 22.627 18.7461 22.627 21.0078ZM24.6777 37.5508H28.7793V41.6523H24.6777V37.5508Z" fill="#C4242B"/>
</g>
<defs>
<clipPath id="clip0_654_73">
<rect width="70" height="70" fill="white" transform="translate(0 0.5)"/>
</clipPath>
</defs>
</svg>
