<svg width="82" height="70" viewBox="0 0 82 70" fill="none" xmlns="http://www.w3.org/2000/svg">
<rect width="82" height="70" rx="4" fill="white" fill-opacity="0.1"/>
<mask id="mask0_13_3075" style="mask-type:luminance" maskUnits="userSpaceOnUse" x="26" y="6" width="30" height="31">
<path d="M56 6.00079H26V36.0008H56V6.00079Z" fill="white"/>
</mask>
<g mask="url(#mask0_13_3075)">
<path d="M37.4784 27.2571C37.353 27.5392 37.2276 27.79 37.1335 28.0094C36.7574 28.8872 36.3812 29.7963 36.0363 30.7054C35.9736 30.8621 35.9736 30.9562 36.1617 31.0502C38.5442 32.022 40.958 32.9625 43.3719 33.8402C43.6227 33.9342 43.8108 33.8088 44.0302 33.7462C43.9675 33.6521 43.9048 33.6521 43.8108 33.6208C43.1211 33.37 42.4 33.0879 41.7104 32.8371C41.6791 32.8058 41.6163 32.8058 41.585 32.7743C41.4283 32.7117 41.3656 32.6176 41.4283 32.4922C41.4909 32.3355 41.585 32.3042 41.7417 32.3668C42.4315 32.6176 43.0898 32.8684 43.7794 33.1192C44.0616 33.2133 44.3437 33.3387 44.6258 33.4326C44.814 33.4954 44.9707 33.4954 45.19 33.37C44.8453 33.2133 44.5318 33.0564 44.187 32.8997C44.0929 32.8684 43.9988 32.8058 43.9048 32.7743C43.7794 32.7117 43.7167 32.6176 43.7481 32.4922C43.8108 32.3355 43.9362 32.3042 44.0616 32.3668C44.4691 32.555 44.8766 32.7117 45.2841 32.8997C45.4723 32.9625 45.629 33.0564 45.817 33.1192C46.0992 33.2133 46.2246 33.1192 46.1932 32.8371C46.0992 32.3668 46.0365 31.8966 45.9424 31.4264C45.9111 31.3323 45.9111 31.2383 45.9111 31.1442C45.8798 30.9875 45.9424 30.8934 46.0992 30.8621C46.256 30.8308 46.3186 30.9562 46.35 31.0815C46.444 31.5518 46.5067 31.9906 46.6008 32.4609C46.6321 32.7117 46.6948 32.9312 46.7262 33.1818C46.7575 33.37 46.6948 33.4641 46.5067 33.5267C45.002 33.9342 43.4973 34.3418 41.9925 34.7493C41.8358 34.7807 41.6791 34.812 41.6163 34.5926C41.5537 34.4045 41.7104 34.3418 41.8671 34.3104C42.1492 34.2477 42.4315 34.1537 42.7136 34.0283C42.4 33.9029 42.0866 33.7775 41.8045 33.6834C39.8922 32.9625 37.9799 32.2414 36.099 31.4577C35.9109 31.3323 35.8169 31.3323 35.7542 31.5831C35.4721 32.5235 35.1586 33.4641 34.8451 34.3731C34.8137 34.4358 34.8137 34.5299 34.7824 34.5926C34.7197 34.718 34.6257 34.7807 34.5003 34.7493C34.3749 34.6866 34.3435 34.5926 34.3749 34.4672C34.4376 34.2164 34.5316 33.9656 34.6257 33.6834C35.3467 31.3637 36.1931 29.0752 37.2276 26.8494C37.3216 26.6614 37.3216 26.5047 37.2589 26.3165C37.0708 25.7523 36.9141 25.188 36.726 24.6238C36.6006 24.6864 36.5693 24.7805 36.5379 24.8746C34.8137 27.884 33.4971 31.0501 32.494 34.3731C32.494 34.4045 32.4626 34.4358 32.4626 34.4672C32.4313 34.6239 32.3372 34.7807 32.1491 34.718C31.961 34.6553 31.9924 34.4985 32.0237 34.3418C33.1209 30.8308 34.5003 27.4138 36.3812 24.2163C36.4752 24.0281 36.5379 23.9027 36.4439 23.7147C36.3812 23.5893 36.3812 23.4639 36.3185 23.3385C35.8796 22.1786 37.0395 21.4889 37.8232 21.583C38.0426 21.6143 38.1367 21.5516 38.2308 21.3948C40.3311 18.5422 42.8076 16.1283 45.8798 14.3101C46.3186 14.0593 46.7889 13.8399 47.2278 13.5891C47.3532 13.5264 47.5099 13.4637 47.604 13.6518C47.6979 13.8399 47.5726 13.9339 47.4158 13.9966C43.8735 15.7521 41.0521 18.3854 38.6696 21.5202C38.5129 21.7084 38.5129 21.8024 38.7324 21.9278C39.0145 22.0845 39.2025 22.3353 39.422 22.5861C39.8922 21.8651 40.3624 21.144 40.8326 20.4857C42.5569 18.166 44.5318 16.1597 46.9456 14.5922C47.8548 13.9966 48.7952 13.5264 49.8297 13.1502C50.0178 13.0875 50.0805 12.9935 50.0491 12.774C49.861 11.9903 50.0178 12.1157 49.2654 12.3351C45.9111 13.2756 42.9016 14.9057 40.1744 17.0688C36.5379 19.9528 33.6539 23.4952 31.3027 27.4451C29.9861 29.6709 28.8262 31.9906 27.8544 34.3731C27.823 34.4672 27.7917 34.5612 27.729 34.6239C27.6663 34.7493 27.5409 34.812 27.4155 34.7493C27.2901 34.6866 27.2274 34.5926 27.2901 34.4672C27.3215 34.4045 27.3528 34.3104 27.3842 34.2477C28.1365 32.4296 28.9829 30.6113 29.9547 28.8871C30.0488 28.699 30.0488 28.605 29.8607 28.4796C29.1397 28.0721 28.5754 27.5392 28.1679 26.8181C27.7917 26.1598 27.3842 25.5015 26.9453 24.8746C26.6945 24.4984 26.6004 24.0281 26.5064 23.5893C26.3497 22.8682 26.1929 22.1472 26.0362 21.4262C25.8481 20.5485 26.4124 20.0156 27.2901 20.2349C27.4782 20.2977 27.635 20.3603 27.8544 20.4857C27.9171 19.9215 28.0111 19.3886 28.0738 18.8243C28.1052 18.4168 28.1365 18.0093 28.6067 17.8838C29.1083 17.7271 29.6099 17.7898 30.0174 18.1346C30.2055 18.2914 30.3309 18.5108 30.425 18.7616C30.6758 19.4826 30.7071 20.2036 30.519 20.956C30.4563 21.1755 30.4877 21.3322 30.6444 21.5516C30.7071 21.1755 30.7698 20.8306 30.8325 20.4857C30.9579 19.6707 31.0833 18.8243 31.24 18.0093C31.3341 17.5076 31.7102 17.3195 32.1805 17.5076C32.7761 17.7584 32.9955 18.2286 33.0896 18.8243C33.1523 19.2632 33.1523 19.6707 33.0896 20.1095C32.9955 20.8306 33.0582 21.583 33.0269 22.304C33.0269 22.398 33.0582 22.4607 33.1209 22.5234C33.215 22.6174 33.2777 22.6802 33.3717 22.7742C33.6852 23.0877 33.6852 23.0877 33.9673 22.7428C34.0614 22.6174 34.0614 22.5548 33.9987 22.4294C33.8106 22.0218 33.6225 21.583 33.4031 21.1755C33.2463 20.8932 33.2463 20.6424 33.2777 20.3603C33.4031 19.7334 33.5598 19.1064 33.7479 18.4794C33.842 18.1346 33.9987 17.8525 34.4062 17.7898C34.8137 17.7271 35.1899 17.9465 35.378 18.354C35.5975 18.7929 35.6288 19.2945 35.5348 19.7648C35.5034 20.0469 35.4721 20.329 35.6288 20.6111C35.7229 20.5798 35.7856 20.4857 35.8483 20.4231C38.4188 17.6017 41.3342 15.2819 44.7512 13.5577C44.8766 13.495 44.9394 13.401 44.9079 13.2443C44.8453 12.8367 44.814 12.4292 44.7825 11.9903C44.7512 11.6455 44.8766 11.3633 44.9394 11.0498C44.9707 10.8931 45.002 10.7677 45.0333 10.611C45.0961 10.2661 45.1274 10.2348 45.5036 10.2975C45.6603 10.3288 45.6916 10.2661 45.7231 10.1721C45.8484 9.73322 45.9738 9.29434 46.0992 8.85545C46.1619 8.63602 46.256 8.47928 46.4754 8.41658C46.6948 8.35388 46.8829 8.47928 47.0083 8.66737C47.4472 9.32569 47.9487 9.95265 48.0115 10.8304C48.0428 11.2693 48.419 11.5828 48.6385 11.959C48.6698 12.0217 48.7324 11.9903 48.7952 11.959C49.0773 11.8963 49.3281 11.8022 49.6102 11.7395C49.7356 11.7082 49.767 11.6455 49.7356 11.5201C49.6729 11.3006 49.7043 11.0812 49.767 10.8618C49.8297 10.5796 50.0178 10.3602 50.2999 10.2661C50.7388 10.1721 50.8956 10.2661 50.9582 10.611C50.9895 10.7364 51.0523 10.8618 51.0836 10.9872C51.1777 11.2693 51.3657 11.3633 51.6478 11.3006C52.3376 11.1752 53.0272 11.1439 53.7169 11.1125C53.8736 11.1125 54.0303 11.1439 54.0303 11.332C54.0303 11.5201 53.8736 11.5514 53.7169 11.5514C52.9959 11.5828 52.2748 11.6141 51.5539 11.7395C51.397 11.7709 51.3344 11.8022 51.4285 11.959V11.9903C51.5539 12.3351 51.7732 12.4605 52.1181 12.3978C52.651 12.2724 53.184 12.2411 53.7169 12.2411C53.8736 12.2411 54.0303 12.2411 54.0303 12.4605C54.0303 12.6486 53.8736 12.7113 53.7169 12.7113C53.1526 12.7113 52.5884 12.774 52.024 12.8994C51.9301 12.9308 51.7732 12.8994 51.8673 13.0562C52.2435 13.6831 52.1494 14.4041 52.1808 15.0938C52.1808 15.3759 52.1808 15.6267 52.1808 15.9089C52.1808 16.0656 52.2435 16.097 52.3689 16.0029C52.8705 15.5954 53.3407 16.0029 53.811 16.1283C53.9364 16.1597 53.9364 16.3164 53.9677 16.4104C54.0618 17.1315 54.1557 17.8211 54.2498 18.5422C54.2811 18.6989 54.2498 18.8243 54.0931 18.8556C53.9049 18.887 53.8423 18.7929 53.811 18.6048C53.7169 17.9779 53.6542 17.3822 53.5602 16.7553C53.5288 16.4418 53.0586 16.191 52.7451 16.3478C52.2748 16.5672 51.836 16.818 51.3657 17.0374C51.2718 17.1001 51.1777 17.1315 51.0836 17.1001C50.9269 17.0061 50.8956 16.8807 51.021 16.7553C51.0523 16.6926 51.1149 16.6612 51.1777 16.6612C51.7106 16.5045 51.8673 16.191 51.8047 15.6581C51.7419 15.1252 51.7732 14.5922 51.7732 14.0593C51.7732 13.8712 51.7106 13.7145 51.6478 13.5577C51.2403 12.7113 50.8956 11.8649 50.6134 10.9872C50.582 10.8931 50.582 10.7677 50.4566 10.7677C50.2999 10.7677 50.2372 10.8931 50.2058 11.0185C50.1432 11.3633 50.2058 11.7082 50.2999 12.0217C50.394 12.3665 50.488 12.7113 50.488 13.0875C50.488 13.6204 50.2999 14.0593 49.8924 14.4041C49.861 14.4041 49.861 14.4041 49.8297 14.4355C49.6729 14.5922 49.3281 14.6863 49.3908 14.9684C49.4848 15.2819 49.767 15.5327 50.0805 15.6581C50.1432 15.6894 50.1745 15.6894 50.2372 15.7208C50.3626 15.7521 50.4566 15.8462 50.394 16.0029C50.3626 16.1283 50.2686 16.191 50.1118 16.1597C49.6729 16.097 49.0773 15.5327 48.9519 15.1252C48.8578 14.8117 49.0146 14.5609 49.234 14.3728C49.4535 14.1847 49.6729 14.028 49.8297 13.8085C49.861 13.7458 49.9237 13.7145 49.861 13.5891C49.6729 13.6518 49.4848 13.7458 49.2968 13.8399C48.419 14.216 47.5726 14.6863 46.7575 15.2505C46.6008 15.3446 46.5694 15.4073 46.6948 15.564C47.3532 16.2851 48.0115 17.0061 48.6698 17.7271C48.7639 17.8525 48.8578 17.8838 48.9832 17.7584C49.234 17.539 49.5162 17.3195 49.767 17.1001C49.8924 17.0061 50.0178 16.9434 50.1432 17.0688C50.2686 17.2255 50.2058 17.3509 50.0805 17.4449C49.5475 17.8838 49.046 18.3227 48.5131 18.7616C48.419 18.8243 48.3562 18.9183 48.231 19.0124C48.5757 19.1691 48.8893 19.2945 49.2027 19.4199C49.3594 19.4826 49.5162 19.5453 49.4222 19.7648C49.3281 19.9528 49.1714 19.8902 49.046 19.8274C48.6385 19.6707 48.1995 19.514 47.792 19.3572C47.5099 19.2318 47.4786 19.0751 47.7294 18.8556C47.9487 18.6676 48.1369 18.5108 48.3562 18.354C48.4816 18.26 48.4503 18.1973 48.3562 18.1032C47.6666 17.3822 47.0083 16.6299 46.3186 15.8775C46.1932 15.7208 46.0992 15.7835 45.9738 15.8775C44.5632 16.912 43.3405 18.1346 42.212 19.4826C41.3029 20.5798 40.4878 21.7397 39.7354 22.931C39.6414 23.0877 39.6414 23.1818 39.7354 23.3385C40.237 24.1848 40.6132 25.0626 40.9267 26.0031C40.958 26.0972 40.9894 26.1911 41.0834 26.2539C42.1807 26.7242 43.2778 27.1943 44.375 27.6646C44.375 27.4451 44.281 27.2884 44.2183 27.1317C44.1556 27.0063 44.1556 26.8809 44.3124 26.7868C44.4691 26.7242 44.5632 26.7868 44.6258 26.9435C44.8453 27.4451 45.0648 27.978 45.2528 28.4796C45.3469 28.699 45.4723 28.8558 45.6916 28.9185C45.817 28.9498 45.9738 29.0126 46.0992 29.1066C46.1932 29.1693 46.2246 29.2634 46.1932 29.3573C46.1306 29.4827 46.0678 29.5455 45.9424 29.4827C45.6603 29.3888 45.3782 29.2634 45.1274 29.138C44.9394 29.0439 44.9079 28.8244 44.8453 28.6364C44.7512 28.3542 44.5945 28.1975 44.3124 28.1034C43.1838 27.6332 42.0553 27.1317 40.9267 26.6301C40.7073 26.536 40.6132 26.4106 40.5505 26.2226C40.2057 25.1253 39.7668 24.0594 39.1084 23.0877C38.8263 22.6802 38.4816 22.304 37.9799 22.1472C37.6665 22.0532 37.3843 22.0845 37.1022 22.2099C36.6633 22.4294 36.5379 22.7428 36.6633 23.2131C37.2276 25.1567 37.8232 27.1317 38.3875 29.0752C38.4501 29.2634 38.5442 29.3573 38.7009 29.4201C39.6414 29.765 40.5505 30.1097 41.4909 30.4546C41.585 30.4859 41.6791 30.5172 41.7417 30.5486C41.8358 30.6113 41.8671 30.7054 41.8358 30.7994C41.8045 30.8934 41.7104 30.9562 41.6163 30.9248C41.5224 30.9248 41.4596 30.8934 41.3656 30.8621C40.3624 30.4859 39.3592 30.0784 38.3562 29.7022C38.168 29.6396 38.074 29.5142 38.0113 29.326C37.8859 28.6677 37.6978 28.0094 37.4784 27.2571ZM27.0393 20.6739C26.5064 20.6739 26.3497 20.8932 26.4437 21.3008C26.6004 21.8651 26.7258 22.492 26.7885 23.0877C26.9139 23.9027 27.1961 24.6551 27.6976 25.3448C28.0111 25.7836 28.2933 26.2226 28.544 26.6927C28.8889 27.351 29.4845 27.79 30.0801 28.1661C30.2055 28.2602 30.2682 28.2288 30.3623 28.1034C30.7385 27.4764 31.1146 26.8494 31.4908 26.2226C31.5849 26.0658 31.5535 26.0031 31.3968 25.9718C30.8952 25.8777 30.519 25.5642 30.1742 25.188C29.9234 24.9059 29.6413 24.6238 29.3905 24.3416C29.2964 24.2163 29.2024 24.1848 29.077 24.3102C28.8889 24.467 28.6381 24.5297 28.4187 24.561C28.2619 24.5924 28.1365 24.561 28.1052 24.373C28.0738 24.2163 28.1992 24.1535 28.3246 24.1222C28.5127 24.0909 28.7008 24.0281 28.8575 23.9027C28.9516 23.8401 28.9829 23.7773 28.9516 23.6832C28.6694 22.7428 28.2933 21.8651 27.6976 21.0814C27.5723 20.7993 27.3215 20.6739 27.0393 20.6739ZM29.5159 21.583C29.3591 21.583 29.2024 21.5516 29.0456 21.5202C28.8889 21.4889 28.7635 21.4262 28.8262 21.2381C28.8575 21.0814 28.9829 21.0501 29.1397 21.0814C29.3591 21.144 29.6099 21.1127 29.8293 21.1127C29.9861 21.1127 30.0488 21.0501 30.0801 20.8932C30.2682 20.2036 30.2369 19.5453 29.9861 18.8556C29.8293 18.4481 29.4845 18.2286 29.0456 18.26C28.6694 18.2914 28.6067 18.354 28.544 18.7302C28.45 19.3886 28.356 20.0782 28.2619 20.7365C28.2306 20.8932 28.2619 21.0186 28.356 21.144C28.6067 21.5516 28.8889 21.9591 29.0143 22.4294C29.2964 23.4952 29.9547 24.2789 30.7071 24.9999C30.7385 25.0626 30.7385 25.0626 30.7698 25.094C31.0206 25.4388 31.4281 25.4701 31.8043 25.5956C31.9297 25.6269 31.961 25.5328 31.9924 25.4701C32.1491 25.2194 32.3059 24.9999 32.4626 24.7492C32.5567 24.6238 32.5253 24.561 32.3999 24.467C32.0237 24.2476 31.6789 24.0281 31.3027 23.8086C31.1773 23.746 31.0833 23.6206 31.0206 23.4952C30.8011 22.9936 30.519 22.5234 30.3309 22.0218C30.2682 21.8964 30.1742 21.6143 29.9861 21.583C29.9547 21.583 29.9234 21.583 29.7666 21.583C29.7039 21.583 29.6413 21.583 29.5786 21.583C29.5472 21.583 29.5472 21.583 29.5159 21.583ZM32.5567 20.8306C32.3372 20.8619 32.1491 20.9247 31.961 20.8932C31.8043 20.8619 31.6789 20.8306 31.6789 20.6424C31.6789 20.4857 31.8043 20.4231 31.961 20.4231C32.1178 20.4231 32.2432 20.4231 32.3999 20.3603C32.494 20.2977 32.588 20.2349 32.588 20.1095C32.6507 19.6707 32.6821 19.2318 32.588 18.7929C32.5253 18.4481 32.3999 18.1346 32.0551 17.9465C31.8043 17.7898 31.6789 17.8525 31.6476 18.1346C31.4595 19.2945 31.3027 20.4231 31.0833 21.5516C30.9892 22.1159 31.0519 22.5861 31.3341 23.0564C31.3968 23.1818 31.4281 23.3072 31.5535 23.4011C31.9297 23.6519 32.3372 23.8714 32.7134 24.1222C32.8074 24.1848 32.8388 24.1535 32.9328 24.0909C33.4658 23.4952 33.4658 23.4639 32.9015 22.8996C32.9015 22.8996 32.9015 22.8996 32.8701 22.8682C32.8074 22.7742 32.7134 22.7428 32.588 22.8056C32.3999 22.8996 32.2118 22.931 31.9924 22.9623C31.8356 22.9936 31.7102 22.9623 31.6789 22.8056C31.6476 22.6174 31.7416 22.5548 31.9297 22.5548C32.1178 22.5234 32.2745 22.492 32.4313 22.398C32.494 22.3667 32.5567 22.304 32.5567 22.2099C32.5567 21.8024 32.5567 21.3322 32.5567 20.8306ZM34.3435 22.1786C34.6257 21.8651 34.8451 21.583 35.0959 21.3008C35.2526 21.0814 35.284 20.8306 35.1272 20.5798C35.0018 20.3918 34.8451 20.5798 34.7197 20.5798C34.657 20.5798 34.563 20.6111 34.5003 20.6111C34.3435 20.6424 34.1868 20.6424 34.1554 20.4231C34.1241 20.2349 34.2808 20.2036 34.4376 20.1723C35.1899 20.0156 35.0959 20.141 35.1586 19.3259C35.1586 19.1691 35.1272 18.981 35.0959 18.8243C35.0645 18.6676 35.0018 18.5422 34.9078 18.4168C34.6257 18.1346 34.3122 18.1973 34.2181 18.5735C34.03 19.2005 33.8733 19.8274 33.7479 20.4544C33.7166 20.5798 33.6852 20.7052 33.7479 20.7993C33.9046 21.2694 34.1241 21.7084 34.3435 22.1786ZM46.6321 8.91815C46.4754 9.48243 46.3186 10.0467 46.1619 10.5796C46.1619 10.611 46.1619 10.6737 46.1932 10.705C46.3814 11.0498 46.3186 11.4574 46.2873 11.8336C46.2873 12.0217 46.256 12.1784 46.256 12.3665C46.3186 12.7113 46.5067 12.8367 46.8202 12.7113C46.8829 12.68 46.9456 12.6486 47.0397 12.6486C47.1964 12.6173 47.2278 12.5232 47.1024 12.4292C46.8516 12.1471 46.8202 11.8336 46.8202 11.4887C46.8202 10.8304 46.7575 10.1721 46.8829 9.48243C46.9143 9.20029 46.8202 9.04355 46.6321 8.91815ZM45.4408 13.2443C45.9424 13.0875 45.9424 13.0875 45.8484 12.6173C45.7857 12.3038 45.7857 11.9903 45.817 11.6768C45.8484 11.4574 45.8484 11.2379 45.817 11.0498C45.7857 10.9245 45.6916 10.8304 45.5662 10.7991C45.4408 10.7677 45.4723 10.9245 45.4723 11.0185C45.2215 11.7709 45.3469 12.4919 45.4408 13.2443ZM47.2904 9.79592C47.2904 9.98401 47.2591 10.1408 47.2591 10.2661C47.2591 10.705 47.2904 11.1125 47.2904 11.5514C47.2591 11.8649 47.4786 12.0844 47.6353 12.3038C47.6666 12.3665 47.7294 12.3665 47.792 12.3351C48.2936 12.2411 48.3249 12.1784 48.0741 11.7709C47.8233 11.3947 47.604 10.9872 47.5726 10.4856C47.5412 10.2661 47.4786 10.0467 47.2904 9.79592Z" fill="#515151" stroke="#515151" stroke-width="0.181886" stroke-miterlimit="10" stroke-linecap="round"/>
<path d="M50.4258 25.9085C50.4258 24.8427 50.3317 24.0903 50.3004 23.338C50.269 22.5229 50.3631 21.7393 50.6765 20.9869C51.1155 19.8897 52.0872 19.2627 53.2158 19.3253C53.2785 19.3253 53.3412 19.3253 53.3725 19.3253C53.5293 19.3567 53.6233 19.3881 53.6233 19.5761C53.6233 19.7643 53.4979 19.7956 53.3412 19.7643C53.0591 19.7329 52.7769 19.7643 52.5261 19.8269C51.8051 20.0464 51.3348 20.5166 51.0527 21.2062C50.7706 21.9273 50.7079 22.711 50.7706 23.4634C50.8019 24.3724 50.9273 25.2815 50.8647 26.222C50.7393 28.6672 50.1436 30.9556 49.2346 33.2127C49.0464 33.683 48.8269 34.1218 48.6389 34.5921C48.5763 34.7488 48.4509 34.8429 48.294 34.7801C48.106 34.6862 48.1687 34.5293 48.2314 34.4039C49.2346 32.3663 49.8929 30.2347 50.2377 27.9776C50.3631 27.1625 50.3944 26.3788 50.4258 25.9085Z" fill="#515151" stroke="#515151" stroke-width="0.181886" stroke-miterlimit="10" stroke-linecap="round"/>
<path d="M53.6198 20.6733C53.7766 20.6733 53.8706 20.7046 53.902 20.8926C53.902 21.0495 53.8393 21.1121 53.6826 21.1121C52.7107 21.1748 52.5227 21.8331 52.5227 22.5542C52.5227 23.0558 52.6168 23.5572 52.7735 24.0588C53.3064 25.783 53.369 27.5386 53.275 29.3254C53.181 31.0182 52.9615 32.6798 52.6794 34.3098C52.6481 34.4979 52.6794 34.78 52.3973 34.7487C52.0837 34.686 52.2091 34.4352 52.2406 34.2471C52.5853 32.2408 52.8361 30.2345 52.8674 28.2282C52.8989 26.7549 52.7107 25.3128 52.3032 23.9021C52.1152 23.2751 52.0524 22.6482 52.1465 21.9899C52.2406 21.2375 52.8674 20.6733 53.6198 20.6733Z" fill="#515151" stroke="#515151" stroke-width="0.181886" stroke-miterlimit="10" stroke-linecap="round"/>
<path d="M46.6957 30.047C46.6644 29.953 46.7584 29.3574 47.1973 29.1692C47.2599 29.1379 47.354 29.1066 47.4481 29.1379C47.5107 29.2006 47.5735 29.2633 47.5422 29.3574C47.5107 29.42 47.5107 29.5141 47.4481 29.5454C47.166 29.8903 47.166 30.2664 47.3227 30.674C47.5107 31.1129 47.6048 31.583 47.7302 32.0533C47.7928 32.21 47.7928 32.3982 47.6048 32.4295C47.3853 32.4922 47.354 32.3354 47.2914 32.1787C47.1032 31.5204 46.9152 30.8621 46.727 30.2038V30.1724C46.727 30.141 46.727 30.141 46.727 30.1097C46.6957 30.0784 46.6957 30.0784 46.6957 30.047Z" fill="#515151" stroke="#515151" stroke-width="0.181886" stroke-miterlimit="10" stroke-linecap="round"/>
<path d="M42.8367 29.0753C42.8367 29.1694 42.8053 29.2948 42.8053 29.4202C42.774 29.5456 42.7113 29.6397 42.5546 29.6397C42.3978 29.6397 42.3351 29.5456 42.3665 29.3889C42.4605 28.8559 42.3665 28.3857 42.0843 27.9468C42.0216 27.8527 42.053 27.7273 42.1784 27.6647C42.3038 27.6019 42.3978 27.6333 42.4919 27.7587C42.7113 28.1349 42.8367 28.5737 42.8367 29.0753Z" fill="#515151" stroke="#515151" stroke-width="0.181886" stroke-miterlimit="10" stroke-linecap="round"/>
<path d="M39.4551 24.6229C39.4551 24.7483 39.3924 24.8423 39.2984 24.8736C39.173 24.9051 39.0789 24.8736 39.0476 24.7483C38.8909 24.3407 38.6714 23.9646 38.4206 23.6197C38.358 23.5257 38.358 23.4317 38.4519 23.3376C38.5147 23.2749 38.5773 23.2435 38.6401 23.2749C38.6714 23.2749 38.7027 23.3063 38.7342 23.3376C38.8594 23.463 39.4238 24.4661 39.4551 24.5602V24.5915V24.6229Z" fill="#515151" stroke="#515151" stroke-width="0.181886" stroke-miterlimit="10" stroke-linecap="round"/>
</g>
<path d="M23.3243 50.636L20.1683 59H18.9083L15.7523 50.636H16.9163L19.5443 57.848L22.1723 50.636H23.3243ZM25.0857 51.356C24.8777 51.356 24.7017 51.284 24.5577 51.14C24.4137 50.996 24.3417 50.82 24.3417 50.612C24.3417 50.404 24.4137 50.228 24.5577 50.084C24.7017 49.94 24.8777 49.868 25.0857 49.868C25.2857 49.868 25.4537 49.94 25.5897 50.084C25.7337 50.228 25.8057 50.404 25.8057 50.612C25.8057 50.82 25.7337 50.996 25.5897 51.14C25.4537 51.284 25.2857 51.356 25.0857 51.356ZM25.6137 52.424V59H24.5217V52.424H25.6137ZM33.4748 55.46C33.4748 55.668 33.4628 55.888 33.4388 56.12H28.1828C28.2228 56.768 28.4428 57.276 28.8428 57.644C29.2508 58.004 29.7428 58.184 30.3188 58.184C30.7908 58.184 31.1828 58.076 31.4948 57.86C31.8148 57.636 32.0388 57.34 32.1668 56.972H33.3428C33.1668 57.604 32.8148 58.12 32.2868 58.52C31.7588 58.912 31.1028 59.108 30.3188 59.108C29.6948 59.108 29.1348 58.968 28.6388 58.688C28.1508 58.408 27.7668 58.012 27.4868 57.5C27.2068 56.98 27.0668 56.38 27.0668 55.7C27.0668 55.02 27.2028 54.424 27.4748 53.912C27.7468 53.4 28.1268 53.008 28.6148 52.736C29.1108 52.456 29.6788 52.316 30.3188 52.316C30.9428 52.316 31.4948 52.452 31.9748 52.724C32.4548 52.996 32.8228 53.372 33.0788 53.852C33.3428 54.324 33.4748 54.86 33.4748 55.46ZM32.3468 55.232C32.3468 54.816 32.2548 54.46 32.0708 54.164C31.8868 53.86 31.6348 53.632 31.3148 53.48C31.0028 53.32 30.6548 53.24 30.2708 53.24C29.7188 53.24 29.2468 53.416 28.8548 53.768C28.4708 54.12 28.2508 54.608 28.1948 55.232H32.3468ZM36.2482 53.324V57.2C36.2482 57.52 36.3162 57.748 36.4522 57.884C36.5882 58.012 36.8242 58.076 37.1602 58.076H37.9642V59H36.9802C36.3722 59 35.9162 58.86 35.6122 58.58C35.3082 58.3 35.1562 57.84 35.1562 57.2V53.324H34.3042V52.424H35.1562V50.768H36.2482V52.424H37.9642V53.324H36.2482ZM42.4913 52.304C43.2913 52.304 43.9393 52.548 44.4353 53.036C44.9313 53.516 45.1793 54.212 45.1793 55.124V59H44.0993V55.28C44.0993 54.624 43.9353 54.124 43.6073 53.78C43.2793 53.428 42.8313 53.252 42.2633 53.252C41.6873 53.252 41.2273 53.432 40.8833 53.792C40.5473 54.152 40.3793 54.676 40.3793 55.364V59H39.2873V52.424H40.3793V53.36C40.5953 53.024 40.8873 52.764 41.2553 52.58C41.6313 52.396 42.0433 52.304 42.4913 52.304ZM46.5551 55.688C46.5551 55.016 46.6911 54.428 46.9631 53.924C47.2351 53.412 47.6071 53.016 48.0791 52.736C48.5591 52.456 49.0911 52.316 49.6751 52.316C50.2511 52.316 50.7511 52.44 51.1751 52.688C51.5991 52.936 51.9151 53.248 52.1231 53.624V52.424H53.2271V59H52.1231V57.776C51.9071 58.16 51.5831 58.48 51.1511 58.736C50.7271 58.984 50.2311 59.108 49.6631 59.108C49.0791 59.108 48.5511 58.964 48.0791 58.676C47.6071 58.388 47.2351 57.984 46.9631 57.464C46.6911 56.944 46.5551 56.352 46.5551 55.688ZM52.1231 55.7C52.1231 55.204 52.0231 54.772 51.8231 54.404C51.6231 54.036 51.3511 53.756 51.0071 53.564C50.6711 53.364 50.2991 53.264 49.8911 53.264C49.4831 53.264 49.1111 53.36 48.7751 53.552C48.4391 53.744 48.1711 54.024 47.9711 54.392C47.7711 54.76 47.6711 55.192 47.6711 55.688C47.6711 56.192 47.7711 56.632 47.9711 57.008C48.1711 57.376 48.4391 57.66 48.7751 57.86C49.1111 58.052 49.4831 58.148 49.8911 58.148C50.2991 58.148 50.6711 58.052 51.0071 57.86C51.3511 57.66 51.6231 57.376 51.8231 57.008C52.0231 56.632 52.1231 56.196 52.1231 55.7ZM62.9804 52.304C63.4924 52.304 63.9484 52.412 64.3484 52.628C64.7484 52.836 65.0644 53.152 65.2964 53.576C65.5284 54 65.6444 54.516 65.6444 55.124V59H64.5644V55.28C64.5644 54.624 64.4004 54.124 64.0724 53.78C63.7524 53.428 63.3164 53.252 62.7644 53.252C62.1964 53.252 61.7444 53.436 61.4084 53.804C61.0724 54.164 60.9044 54.688 60.9044 55.376V59H59.8244V55.28C59.8244 54.624 59.6604 54.124 59.3324 53.78C59.0124 53.428 58.5764 53.252 58.0244 53.252C57.4564 53.252 57.0044 53.436 56.6684 53.804C56.3324 54.164 56.1644 54.688 56.1644 55.376V59H55.0724V52.424H56.1644V53.372C56.3804 53.028 56.6684 52.764 57.0284 52.58C57.3964 52.396 57.8004 52.304 58.2404 52.304C58.7924 52.304 59.2804 52.428 59.7044 52.676C60.1284 52.924 60.4444 53.288 60.6524 53.768C60.8364 53.304 61.1404 52.944 61.5644 52.688C61.9884 52.432 62.4604 52.304 62.9804 52.304Z" fill="#515151"/>
</svg>
