<svg width="30" height="30" viewBox="0 0 30 30" fill="none" xmlns="http://www.w3.org/2000/svg">
<path d="M5.93133 19.5484V17.9977C5.54528 17.9977 5.18175 17.9977 4.815 17.9977C4.40001 17.9977 4.27132 17.9013 4.27132 17.5891C4.27132 17.3028 4.42574 17.1903 4.83431 17.1903C5.17532 17.1903 5.51633 17.1903 5.88951 17.1903C5.88951 16.9489 5.89916 16.7109 5.88308 16.4729C5.87986 16.4149 5.80908 16.3409 5.74796 16.312C5.08202 15.9935 4.68954 15.4691 4.50939 14.7581C4.3614 14.163 4.55121 13.896 5.15924 13.896C5.33939 13.896 5.51955 13.896 5.69649 13.896C5.7576 13.896 5.82195 13.8895 5.88308 13.8863C5.89594 13.8702 5.91203 13.8541 5.9249 13.8413C5.9249 13.4392 5.95064 13.0338 5.9249 12.6317C5.90237 12.2392 6.25625 12.133 6.52005 12.2811C7.10556 12.6124 7.68785 12.9565 8.27014 13.2912C8.2991 13.3073 8.3377 13.3008 8.38595 13.3104V11.2773C8.29588 11.2773 8.19936 11.2773 8.10606 11.2773C7.46909 11.2773 6.83211 11.2741 6.19512 11.2773C5.99246 11.2773 5.83481 11.184 5.79299 11.0103C5.76404 10.8848 5.80587 10.695 5.88951 10.6017C5.97315 10.5084 6.15009 10.4698 6.28842 10.4602C6.60692 10.4409 6.93184 10.4537 7.27927 10.4537C7.27927 10.235 7.28572 10.0291 7.27927 9.82639C7.25676 9.21515 7.60743 8.99639 8.15433 8.94814C8.33127 8.93206 8.51142 8.94814 8.69158 8.94814C8.86207 8.94814 9.02937 8.94814 9.21274 8.94814V7.46507C8.71088 7.46507 8.21223 7.4715 7.71358 7.46507C7.38544 7.45864 7.20851 7.23666 7.28894 6.94712C7.35327 6.71549 7.53987 6.64793 7.7522 6.63828C7.93878 6.63185 8.12859 6.63828 8.357 6.63828C8.34092 5.97235 8.28622 5.26459 9.19022 5.12626C9.21917 4.74986 9.2256 4.37669 9.27708 4.00994C9.39611 3.14777 10.12 2.38532 10.9757 2.17943C11.1591 2.13439 11.2331 2.07005 11.2105 1.88668C11.2009 1.79659 11.2073 1.70652 11.2105 1.61644C11.2202 1.39124 11.3778 1.2143 11.5741 1.20144C11.8025 1.18857 11.9987 1.35586 12.0212 1.59071C12.0309 1.68078 12.0212 1.77086 12.0212 1.86094C12.0212 9.67519 12.0212 17.4894 12.0212 25.3037C12.0212 25.4099 12.0212 25.516 12.0212 25.635H18.0339C18.0339 25.5257 18.0339 25.4195 18.0339 25.3165C18.0339 17.5023 18.0339 9.68806 18.0339 1.8738C18.0339 1.77408 18.0372 1.67756 18.0339 1.57783C18.0339 1.33978 18.1755 1.22395 18.3878 1.20466C18.6131 1.18535 18.7932 1.38481 18.7932 1.61965C18.7932 1.63896 18.7932 1.65504 18.7932 1.67435C18.7932 1.95745 18.9218 2.13974 19.1792 2.22125C20.0671 2.50114 20.8328 3.45017 20.7846 4.41851C20.7813 4.49893 20.7846 4.57936 20.7846 4.65978C20.7846 4.91716 20.7073 5.18095 21.1287 5.24851C21.4955 5.30641 21.6499 5.63134 21.6467 6.00774C21.6467 6.22328 21.6467 6.43883 21.6467 6.69298C21.8784 6.69298 22.1067 6.69298 22.3352 6.69298C22.5764 6.69298 22.7663 6.84739 22.7759 7.05329C22.7888 7.25596 22.5829 7.46507 22.3416 7.46828C21.8493 7.47472 21.3572 7.46828 20.8457 7.46828V9.00605C21.1995 9.00605 21.5567 9.03178 21.9105 8.9996C22.4285 8.95457 22.7695 9.33097 22.7759 9.86178C22.7759 10.0677 22.7759 10.2736 22.7759 10.5116C23.1201 10.5116 23.4579 10.5116 23.7957 10.5116C24.1045 10.5116 24.2268 10.6178 24.23 10.8784C24.23 11.1454 24.0949 11.2805 23.7925 11.2837C23.0943 11.2869 22.3963 11.2837 21.6757 11.2837V13.2654C22.2419 12.9565 22.8177 12.6349 23.4032 12.3293C23.844 12.0977 24.1207 12.2778 24.1207 12.7764C24.1207 13.1431 24.1207 13.5131 24.1207 13.8799C24.1207 13.896 24.1271 13.9121 24.1399 13.9571C24.452 13.9571 24.7737 13.9571 25.0922 13.9571C25.4172 13.9571 25.5169 14.0601 25.52 14.3785C25.5361 15.2375 25.1372 15.8551 24.3877 16.2381C24.1689 16.3506 24.0917 16.4697 24.1175 16.7013C24.1368 16.8589 24.1207 17.0197 24.1207 17.1999C24.5357 17.1999 24.9282 17.1999 25.3206 17.1999C25.5747 17.1999 25.7388 17.3415 25.7839 17.5763C25.8257 17.7886 25.6681 17.9141 25.4879 17.9881C25.4171 18.0171 25.3303 18.0073 25.2498 18.0073C24.8831 18.0073 24.5196 18.0073 24.1335 18.0073V19.558C24.1335 19.558 24.1625 19.5901 24.1753 19.6062C25.52 19.6062 26.8649 19.6159 28.2096 19.6127C28.4829 19.6127 28.676 19.7028 28.8047 19.9377V20.8512C28.7693 20.9059 28.7082 20.9607 28.7017 21.0186C28.6406 21.6556 28.4186 22.2282 28.0519 22.7494C28.0262 22.7879 28.0165 22.8363 27.9939 22.8973C28.3093 22.8941 28.6245 22.8426 28.8047 23.1643V23.4346C28.7693 23.47 28.7178 23.4989 28.6986 23.544C28.4379 24.1102 28.068 24.5992 27.6176 25.0206C27.386 25.2361 27.1254 25.426 26.8423 25.6576C27.3216 25.6576 27.756 25.6704 28.1903 25.6511C28.4669 25.6383 28.6632 25.738 28.8047 25.9665V26.2367C28.6181 26.4297 28.3929 26.4651 28.1323 26.4651C19.3915 26.4586 10.654 26.4618 1.91321 26.4618C1.81348 26.4618 1.71696 26.4651 1.61724 26.4618C1.36308 26.4457 1.24406 26.3235 1.24084 26.0855C1.23762 25.8409 1.37274 25.6769 1.62046 25.6672C2.02259 25.6511 2.42794 25.6608 2.83007 25.6576C2.92016 25.6576 3.01023 25.6576 3.14856 25.6576C3.01988 25.5514 2.9298 25.4614 2.82686 25.3938C2.13197 24.9273 1.68158 24.2614 1.29232 23.544C1.10894 23.2093 1.31162 22.9069 1.69124 22.9038C1.78774 22.9038 1.88426 22.9038 2.00328 22.9038C1.98077 22.8298 1.97433 22.7751 1.9486 22.7364C1.35987 21.9033 1.19902 20.9574 1.23762 19.9633C1.24406 19.7671 1.4403 19.6255 1.69445 19.6255C2.44725 19.6255 3.20325 19.6255 3.95604 19.6255C4.59303 19.6255 5.23001 19.6192 5.86698 19.6159C5.87986 19.5999 5.89594 19.5838 5.9088 19.5677L5.93133 19.5484ZM23.3261 16.534L23.2809 16.489H21.7207C21.7207 16.489 21.6918 16.5179 21.6757 16.534V17.1807H23.3261V16.534ZM6.75168 16.489C6.75168 16.489 6.72273 16.5179 6.70665 16.534V17.1774H8.357V16.534L8.31196 16.489H6.75168ZM26.5623 22.8202C26.8165 22.6657 27.135 22.5628 27.3185 22.3473C27.7721 21.8131 27.9876 21.1729 27.9554 20.4621C27.9393 20.446 27.9264 20.433 27.9103 20.4169C27.4632 20.4169 27.0128 20.4169 26.5656 20.4169C26.5527 20.4299 26.5367 20.446 26.5238 20.4588C26.5238 21.2309 26.5238 22.003 26.5238 22.7751C26.5367 22.7911 26.5527 22.804 26.5656 22.8202H26.5623ZM3.56356 22.7783C3.56356 22.0062 3.56356 21.2341 3.56356 20.4621C3.5507 20.4491 3.53462 20.433 3.52174 20.4202C3.05526 20.4202 2.58879 20.4202 2.12232 20.4202C2.10623 20.4363 2.09337 20.4491 2.07728 20.4652C2.09337 20.6389 2.09337 20.8159 2.12554 20.9863C2.22526 21.5011 2.37324 22.0158 2.74965 22.3923C2.95233 22.5917 3.26116 22.6818 3.52174 22.8233C3.53462 22.8105 3.5507 22.7944 3.56356 22.7815V22.7783ZM4.4354 20.4202C4.4354 20.4202 4.40322 20.4491 4.38713 20.4652C4.38713 21.2535 4.38713 22.0449 4.38713 22.833C4.40322 22.8491 4.4193 22.8619 4.4354 22.878H5.92168V20.4234H4.4354V20.4202ZM25.6938 20.4652C25.6938 20.4652 25.6616 20.4363 25.6488 20.4202H24.1625V22.8748H25.6488L25.697 22.833C25.697 22.0449 25.697 21.2535 25.697 20.4652H25.6938ZM20.8007 22.8748C20.8167 22.8619 20.8361 22.8459 20.8521 22.833V20.5618H18.864V22.833C18.8801 22.8459 18.8994 22.8619 18.9155 22.8748H20.8007ZM11.1623 22.8748C11.1784 22.8619 11.1977 22.8459 11.2138 22.833V20.5618H9.2256V22.833C9.24491 22.8459 9.26099 22.8619 9.2803 22.8748H11.1623ZM6.80315 22.8748H8.38595V18.0106H6.7549C6.7549 19.6255 6.7549 21.2277 6.7549 22.833C6.77098 22.8459 6.78707 22.8619 6.80315 22.8748ZM23.2746 22.8748C23.2907 22.8619 23.3067 22.8459 23.3228 22.833V18.0138H21.6821V22.8748H23.2746ZM20.8489 19.7221V11.2966H18.8672V17.3415C19.1342 17.3415 19.3819 17.3415 19.6328 17.3415C19.9289 17.3415 20.0414 17.4379 20.0447 17.6921C20.0447 17.9849 19.9352 18.0942 19.6263 18.0942C19.3691 18.0942 19.1149 18.0942 18.864 18.0942V19.7221H20.8489ZM11.2105 11.2966H9.22882V19.7253H11.2105V18.1489C10.9435 18.1489 10.6862 18.1554 10.4288 18.1489C10.1618 18.1393 9.98483 17.9688 9.9784 17.7371C9.97197 17.4733 10.1264 17.3061 10.4191 17.2932C10.6765 17.2804 10.9371 17.2932 11.2105 17.2932V11.2966ZM11.2138 23.7144H2.39255L2.34108 23.7917C2.68852 24.1198 3.01344 24.4737 3.38663 24.7697C4.21341 25.4227 5.16567 25.6801 6.22408 25.6576C7.7908 25.6222 9.36072 25.648 10.9307 25.648H11.2138V23.7144ZM18.8607 25.6447C20.6012 25.6447 22.3159 25.6447 24.0273 25.6447C24.2911 25.6447 24.5582 25.6254 24.8187 25.5772C26.0251 25.3519 26.9677 24.7215 27.6948 23.7081H18.8607V25.648V25.6447ZM6.7163 13.3169C6.7163 13.3169 6.69699 13.3458 6.69699 13.3619C6.69699 13.6579 6.69699 13.9539 6.69699 14.2499C6.69699 14.6327 6.62621 14.7035 6.25304 14.7035C5.95385 14.7035 5.65465 14.7035 5.34904 14.7035C5.46164 15.2279 5.98602 15.6718 6.46536 15.675C6.76133 15.675 7.0573 15.675 7.35328 15.675C7.68785 15.675 8.02564 15.675 8.357 15.675C8.4889 14.2627 7.77471 13.764 6.7163 13.3169ZM24.6804 14.7581C24.3877 14.7581 24.1045 14.7613 23.8214 14.7581C23.4708 14.7517 23.3293 14.6038 23.3293 14.253C23.3293 13.941 23.3293 13.629 23.3293 13.3104C22.1969 13.7512 21.5148 14.3914 21.6853 15.675H23.3711C24.0209 15.675 24.4231 15.4015 24.6836 14.7581H24.6804ZM18.8157 10.4505H21.9684V9.77492H18.8157V10.4505ZM11.1977 10.4569V9.77492H8.10606V10.4569H11.1977ZM11.217 2.97083C10.5414 3.03839 9.83685 3.80726 10.0588 5.10053H11.217V2.97083ZM19.9706 5.11018C20.1605 3.75901 19.6103 3.18316 18.8672 2.97404V5.11018H19.9706ZM18.8672 7.49724V8.92883H20.0221V7.49724H18.8672ZM11.2105 8.93527V7.50689H10.0588V8.93527H11.2105ZM20.8489 5.95948H18.8189V6.63185H20.8489V5.95948ZM9.18057 6.63828H11.2041V5.95948H9.18057V6.63828Z" fill="#515151"/>
<path d="M1.4795 28.7547C1.40873 28.6292 1.29613 28.5134 1.27361 28.3815C1.235 28.1435 1.41194 27.9666 1.65644 27.9505C1.73687 27.944 1.81729 27.9505 1.89772 27.9505C10.6449 27.9505 19.3953 27.9505 28.1426 27.9473C28.4161 27.9473 28.6605 27.9697 28.8278 28.2207V28.5423C28.757 28.6131 28.6831 28.6872 28.6123 28.758H1.4795V28.7547Z" fill="#515151"/>
</svg>
