<svg width="30" height="30" viewBox="0 0 30 30" fill="none" xmlns="http://www.w3.org/2000/svg">
<mask id="mask0_13_2982" style="mask-type:luminance" maskUnits="userSpaceOnUse" x="0" y="0" width="30" height="31">
<path d="M30 0.000976562H0V30.001H30V0.000976562Z" fill="white"/>
</mask>
<g mask="url(#mask0_13_2982)">
<path d="M4.0029 29.9686V20.521L0.0241175 20.41L0.0558209 19.2845L-0.0234375 18.0481L0.150931 18.1273C0.357004 18.0957 0.563076 18.064 0.769147 18.0322C0.895961 18.0005 1.00692 17.8103 1.00692 17.6993C1.00692 17.4774 1.00692 17.2555 1.00692 17.0335C1.00692 16.9227 1.03863 16.8275 1.11789 16.7641C1.19714 16.6848 1.29225 16.6532 1.38737 16.6532C1.59343 16.6532 1.7678 16.8275 1.7678 17.0335V17.8896L2.90912 17.6993C3.6383 17.5726 4.33578 17.4457 5.04911 17.3347C5.96851 17.1921 6.87205 17.0494 7.79145 16.9068L8.86937 16.7483L9.02789 16.7165C9.50344 16.5898 9.53514 16.5421 9.53514 16.0349V13.4511C9.53514 13.2767 9.50344 13.1499 9.31321 13.039C9.123 12.928 8.94863 12.8011 8.77426 12.6743C8.58403 12.5476 8.39382 12.4049 8.18774 12.2939C8.06093 12.2147 7.98167 12.0562 7.99752 11.8976C7.99752 11.8025 7.99752 11.7074 7.99752 11.6123V11.5013L7.88657 11.3587H2.40187L2.51283 9.07604C2.95668 8.98092 2.98838 8.93337 2.98838 8.36271V7.96641C2.98838 7.76034 3.1469 7.58597 3.36883 7.58597C3.6066 7.58597 3.78097 7.76034 3.78097 7.96641V8.93337L11.4532 7.64938L11.5483 7.23724C11.5483 6.8885 11.5483 6.53976 11.5483 6.19102C11.5483 6.09591 11.4849 6.0008 11.4215 5.95325C11.3105 5.84229 11.1996 5.71547 11.0886 5.62036C10.6923 5.27163 10.3911 5.00214 10.5813 4.47904L10.6289 4.33637H8.44138L8.55234 3.98764C8.55234 3.36942 8.55234 2.76706 8.55234 2.16468C8.83766 2.06958 9.04374 1.99032 9.01204 1.67328V1.49892C9.01204 1.38796 9.04374 1.29285 9.10715 1.22944C9.1864 1.15018 9.28151 1.11848 9.39247 1.11848C9.6144 1.11848 9.78877 1.29285 9.78877 1.51476V1.92692L14.4651 1.16603L14.5601 0.452707C14.5601 0.246635 14.7345 0.0722656 14.9406 0.0722656C15.1467 0.0722656 15.321 0.246635 15.321 0.452707V1.05507L20.0765 1.94277V1.53063C20.0765 1.3087 20.2509 1.13433 20.4729 1.13433C20.5837 1.13433 20.6789 1.18188 20.7581 1.26114C20.8374 1.3404 20.8691 1.43552 20.8691 1.54647C20.8691 1.81595 20.8691 1.94277 20.9484 2.03788C21.0118 2.10129 21.091 2.13299 21.1861 2.13299L21.408 2.18054L21.3763 4.47904L19.4424 4.36808H19.3474V4.5266C19.4107 5.06555 19.2681 5.39843 18.8877 5.66792C18.4596 5.96909 18.2219 6.49221 18.3169 6.99946C18.3329 7.11042 18.3329 7.23723 18.3169 7.3799V7.60182L20.9643 8.14078L26.1318 8.99678V8.01397C26.1318 7.8079 26.3063 7.63353 26.5123 7.63353C26.7501 7.63353 26.9086 7.8079 26.9086 8.01397V8.99678L27.4793 9.20284L27.3841 11.4855L21.8677 11.3745V11.5489C21.9154 12.0403 21.7885 12.2781 21.424 12.4683C21.313 12.5317 21.202 12.6109 21.091 12.6903C20.9801 12.7695 20.8691 12.8488 20.7423 12.9121C20.5045 13.039 20.3619 13.2767 20.3619 13.5462C20.3619 14.2753 20.3619 14.9887 20.3619 15.7337V16.5898L26.0051 17.5884L28.0657 17.9213V17.0653C28.0657 16.8433 28.2401 16.669 28.4621 16.669C28.684 16.669 28.8583 16.8433 28.8583 17.0653C28.8583 17.2237 28.8583 17.3823 28.8583 17.5408C28.8267 17.8896 28.9852 18.0957 29.3339 18.1273L30.0155 18.1907L29.9205 20.4893L26.0209 20.4258L25.9099 20.7745V29.9369L26.0368 30.0003H4.0029V29.9686ZM15.3844 29.0808L15.4954 29.1602L16.9221 29.1918L17.0806 29.0333V27.5908L15.4954 27.4799H15.3844V29.0968V29.0808ZM12.864 29.0333L13.0225 29.1918H14.3857L14.4334 29.1602L14.5601 29.0333V27.5908L12.975 27.4799H12.864V29.0333ZM4.81133 29.0808L11.9446 29.1918L12.0556 22.6134L11.897 22.4549H4.81133V29.0808ZM17.9841 22.4549L17.9049 22.5499L17.8732 29.0808L25.0223 29.1918L25.1332 22.5816H25.1173L24.9271 22.4391H17.9841V22.4549ZM12.864 26.5605L14.4492 26.6715L14.5601 25.0863L12.975 24.9753H12.864V26.5605ZM15.3685 26.5605L16.9537 26.6715L17.0647 25.0863L15.4795 24.9753H15.3685V26.5605ZM12.864 24.0558L14.4492 24.1668L14.5601 22.5658L12.975 22.4549H12.864V24.0558ZM15.3685 24.0558L16.9537 24.1668L17.0647 22.5816L15.4795 22.4708H15.3685V24.0558ZM4.76377 21.5038L4.92229 21.6623H5.12837H24.7528L24.9905 21.6147L25.0698 20.5527L4.76377 20.4417V21.4879V21.5038ZM10.2009 17.4299C9.89972 17.4299 9.6144 17.4616 9.31321 17.5091C9.31321 17.5091 6.76109 17.9371 6.20628 18.0322C5.74658 18.1115 3.89193 18.381 3.43224 18.4602C2.82986 18.5554 2.2275 18.6663 1.62513 18.7614L0.864258 18.8883L0.769147 19.5382L29.0169 19.6491C29.1754 19.015 29.1437 18.9675 28.6365 18.8566L27.5743 18.6663L22.914 17.9055L21.3288 17.6676C21.0593 17.6201 20.9166 17.6043 20.7581 17.5726C20.4094 17.5091 20.0448 17.4457 19.6961 17.4457C18.1584 17.4457 16.6209 17.4457 15.0833 17.4457H10.2009V17.4299ZM10.3277 16.5105L19.4742 16.6215L19.5851 13.5304L10.3277 13.4194V16.5105ZM8.79011 11.6916C8.83766 11.7867 8.88522 11.8659 8.96448 11.9135C9.2181 12.1037 9.48758 12.2939 9.75707 12.4366C9.91558 12.5317 10.1058 12.5793 10.2643 12.5793H19.6327C19.7278 12.5793 19.8546 12.5793 19.9656 12.4999C20.2667 12.3097 20.5837 12.1037 20.8691 11.8976C20.9484 11.8501 20.9959 11.7708 21.0435 11.6757L21.1703 11.5013L21.0435 11.3745H8.59988L8.80596 11.6757L8.79011 11.6916ZM13.2127 8.33101C12.1666 8.33101 11.1362 8.48952 10.1217 8.64803L9.32906 8.77485C8.58403 8.88581 7.83901 9.01263 7.10983 9.13945L5.88925 9.34551L3.33713 9.7735L3.24201 10.4551L26.4965 10.5661L26.6074 9.88446L25.7514 9.66255L23.0884 9.23454L20.5521 8.80655C20.1558 8.74314 19.7595 8.66389 19.3632 8.61633L18.951 8.55292C18.4121 8.47366 17.889 8.39441 17.35 8.37856C17.0647 8.37856 16.7794 8.37856 16.494 8.37856H14.7821C14.4174 8.37856 14.037 8.37856 13.6725 8.37856C13.5298 8.37856 13.3713 8.37856 13.2286 8.37856L13.2127 8.33101ZM12.3091 7.4433L17.4135 7.55427L17.5245 6.47636L12.3091 6.36539V7.4433ZM11.3105 4.63756C11.3422 4.74851 11.3739 4.84362 11.4532 4.92288C11.7068 5.25578 12.0081 5.5728 12.5787 5.5728C13.3396 5.5411 14.037 5.5411 14.7503 5.5411C15.5271 5.5411 16.3038 5.5411 17.0806 5.5728C17.5561 5.5728 17.9999 5.5094 18.3169 5.03385C18.3804 4.93874 18.4438 4.82777 18.5073 4.70097L18.6975 4.35222H11.1837L11.2947 4.65341L11.3105 4.63756ZM14.8455 1.86351C14.6711 1.86351 14.4809 1.86351 14.3065 1.91106C13.9102 1.99032 13.5139 2.05373 13.1017 2.10129C12.8482 2.13299 12.5787 2.18054 12.3251 2.21224C11.58 2.33906 9.42418 2.7195 9.42418 2.7195L9.32906 3.41697L20.5996 3.52793V3.40113C20.5837 3.16335 20.5837 3.06824 20.5521 2.95727C20.5362 2.87801 20.4411 2.70365 20.3143 2.67195C19.918 2.60854 18.4438 2.37076 18.4438 2.37076L17.7305 2.24394C17.2708 2.16468 16.8111 2.08544 16.3513 2.02203L15.8917 1.95862C15.5429 1.89521 15.1942 1.84766 14.8455 1.84766V1.86351Z" fill="#515151"/>
<path d="M21.4721 27.4482C20.41 27.4482 19.6174 26.4654 19.6016 25.5778C19.6016 25.0864 19.8076 24.5792 20.1881 24.1986C20.5052 23.8658 20.9014 23.6914 21.3136 23.6914C21.377 23.6914 21.488 23.6914 21.488 23.6914C22.1062 23.6914 22.5341 23.8658 22.8828 24.2145C23.2317 24.5633 23.4219 25.0547 23.406 25.5461C23.406 26.6874 22.4708 27.369 21.5988 27.4324H21.4721V27.4482ZM21.488 24.484C20.8064 24.484 20.4258 24.8486 20.3942 25.5461C20.3942 25.8155 20.5052 26.085 20.7112 26.3228C20.9172 26.5448 21.2026 26.6716 21.4721 26.6716C22.0586 26.6556 22.6293 26.1802 22.6134 25.5303C22.6134 24.912 22.1854 24.4682 21.6148 24.4682H21.488V24.484Z" fill="#515151"/>
<path d="M8.3616 27.4318C7.25199 27.4318 6.57036 26.4173 6.52281 25.7198C6.47525 25.1809 6.66547 24.6261 7.04591 24.2297C7.3788 23.881 7.80679 23.675 8.23479 23.675C8.29819 23.675 8.40916 23.675 8.40916 23.675C9.51877 23.675 10.2955 24.4834 10.3114 25.4821C10.3114 26.5124 9.56633 27.3367 8.50427 27.4001H8.3616V27.4318ZM8.39331 24.4676C7.72753 24.4676 7.31539 24.8797 7.31539 25.5454C7.31539 26.1478 7.74339 26.5917 8.39331 26.6392C8.7262 26.6392 9.01152 26.4965 9.23345 26.2747C9.43951 26.0527 9.55048 25.7833 9.53463 25.4979C9.50292 24.9907 9.17004 24.4517 8.52012 24.4517H8.39331V24.4676Z" fill="#515151"/>
<path d="M14.0041 14.4971H13.8931C13.6479 14.4971 13.4492 14.6958 13.4492 14.9408V15.0677C13.4492 15.3128 13.6479 15.5116 13.8931 15.5116H14.0041C14.2491 15.5116 14.4479 15.3128 14.4479 15.0677V14.9408C14.4479 14.6958 14.2491 14.4971 14.0041 14.4971Z" fill="#515151"/>
<path d="M11.9762 14.5283H11.897C11.6518 14.5283 11.4531 14.727 11.4531 14.9721V14.988C11.4531 15.2331 11.6518 15.4318 11.897 15.4318H11.9762C12.2214 15.4318 12.4201 15.2331 12.4201 14.988V14.9721C12.4201 14.727 12.2214 14.5283 11.9762 14.5283Z" fill="#515151"/>
<path d="M17.984 14.5137H17.9048C17.6597 14.5137 17.4609 14.7124 17.4609 14.9574V14.9891C17.4609 15.2343 17.6597 15.433 17.9048 15.433H17.984C18.2292 15.433 18.4279 15.2343 18.4279 14.9891V14.9574C18.4279 14.7124 18.2292 14.5137 17.984 14.5137Z" fill="#515151"/>
<path d="M15.9875 14.5137H15.94C15.6948 14.5137 15.4961 14.7124 15.4961 14.9574V15.0209C15.4961 15.266 15.6948 15.4647 15.94 15.4647H15.9875C16.2327 15.4647 16.4314 15.266 16.4314 15.0209V14.9574C16.4314 14.7124 16.2327 14.5137 15.9875 14.5137Z" fill="#515151"/>
</g>
</svg>
