<svg width="30" height="30" viewBox="0 0 30 30" fill="none" xmlns="http://www.w3.org/2000/svg">
<path d="M21.1754 29.1618C21.3416 28.4353 21.529 27.7292 21.6634 27.0163C21.8438 26.059 21.9392 25.0916 22.0665 24.1275C22.1231 23.7134 22.162 23.2958 22.1762 22.8783C22.2221 21.5646 22.2115 20.2474 21.964 18.9439C21.8189 18.1903 21.7023 17.43 21.4936 16.6899C21.08 15.2234 20.447 13.8146 19.5629 12.4873C18.389 10.7221 16.8933 9.17417 14.9767 7.8944C13.5411 6.93372 11.9923 6.13937 10.2667 5.58266C9.99084 5.4944 9.93074 5.38238 9.93428 5.16851C9.94134 4.27233 9.94134 2.54108 9.9378 1.69241C9.9378 1.41746 9.70443 1.2002 9.42154 1.2002C9.13512 1.2002 8.90528 1.42085 8.90528 1.69581V7.83329C8.39608 7.83329 7.91518 7.8265 7.43427 7.83329C7.07006 7.84008 6.8579 8.02 6.8579 8.31533C6.8579 8.76682 6.84729 9.22169 6.86142 9.67318C6.8685 9.88704 6.77303 9.95832 6.51843 9.94815C6.16128 9.93456 5.80415 9.94475 5.44347 9.94475C4.90952 9.94475 4.80698 10.0262 4.80344 10.4709C4.7999 10.9326 4.7999 11.3977 4.80344 11.8593C4.80698 12.3345 4.98731 12.4806 5.56368 12.4806C5.99156 12.4806 6.41589 12.4806 6.83314 12.4806V29.172H5.53894C5.29848 29.172 5.10754 29.3586 5.10754 29.5861C5.10754 29.8168 5.30202 30.0002 5.53894 30.0002C11.5396 30.0002 17.5403 30.0002 23.5411 30.0002C23.785 30.0002 23.983 29.8101 23.983 29.5759C23.983 29.3416 23.785 29.1516 23.5411 29.1516H21.1683L21.1754 29.1618ZM7.81971 8.75324H8.84517V9.9142C8.81334 9.92777 8.79566 9.94475 8.77444 9.94475C8.13795 9.95832 7.81971 9.70486 7.81971 9.18436V8.75324ZM8.86991 29.1516H7.9081V12.4941H8.86991V29.1516ZM9.36496 11.5844H5.8289V10.7934H9.36496V11.5844ZM21.1365 23.1261C21.1012 24.2157 20.8784 25.3054 20.7122 26.3781C20.599 27.1182 20.4187 27.8446 20.2666 28.5745C20.2384 28.7137 20.2348 28.8664 20.1676 28.992C20.1287 29.0667 19.9873 29.1549 19.8919 29.1549C16.6103 29.1618 13.3253 29.1618 10.0439 29.1583C10.0227 29.1583 10.0015 29.1447 9.95195 29.1278V28.8732C9.95195 23.4961 9.95195 18.1156 9.95195 12.7386C9.95195 12.5654 9.94842 12.4297 10.203 12.338C10.3303 12.2938 10.4223 12.0765 10.4293 11.934C10.4576 11.4316 10.4541 10.9258 10.4293 10.4234C10.4223 10.2876 10.3409 10.0805 10.2242 10.0398C9.94488 9.93796 9.94841 9.7852 9.94841 9.58832C9.94841 8.62085 9.9378 7.65677 9.93074 6.68931C9.93074 6.59086 9.93074 6.49241 9.93074 6.30911C10.737 6.65196 11.4866 6.9439 12.208 7.28337C13.6436 7.96229 14.9236 8.80755 16.0445 9.80558C17.0595 10.7085 17.9717 11.6828 18.6224 12.7894C19.1493 13.6822 19.6549 14.5954 20.0227 15.5358C20.3939 16.4896 20.6097 17.4842 20.8395 18.4687C21.1966 20.0065 21.1825 21.5679 21.1294 23.1226L21.1365 23.1261Z" fill="#515151"/>
<path d="M11.4691 18.3126C11.4691 15.3218 11.4656 12.3312 11.4797 9.34053C11.4797 9.14705 11.5434 8.87547 11.699 8.78042C11.9324 8.64464 12.2435 8.74647 12.4981 8.89584C14.4501 10.0432 15.9847 11.4893 17.1587 13.2002C18.0604 14.5105 18.6615 15.9159 19.0681 17.3756C19.2591 18.0613 19.3228 18.7742 19.4536 19.4735C19.7011 20.7872 19.6056 22.1112 19.588 23.4317C19.5773 24.158 19.4218 24.8845 19.305 25.6076C19.1989 26.256 19.0505 26.9043 18.9444 27.5527C18.8985 27.8243 18.6827 27.9057 18.4175 27.9057C16.2817 27.9126 14.1495 27.9126 12.0137 27.9057C11.6177 27.9057 11.501 27.7938 11.4762 27.4679C11.4691 27.3762 11.4762 27.288 11.4762 27.1963C11.4762 24.2361 11.4762 21.2726 11.4762 18.3126H11.4691ZM15.1572 12.2395C14.443 11.3841 13.5413 10.6712 12.5158 9.97194V12.3549H15.1501C15.1926 12.3549 15.2351 12.3549 15.3305 12.3549C15.2457 12.2972 15.1997 12.2667 15.1572 12.2361V12.2395ZM12.5052 13.2749V16.0381H17.4486L17.4982 15.9566C17.0314 15.0911 16.5717 14.222 16.0908 13.3598C16.0483 13.2851 15.8821 13.2104 15.7726 13.2104C14.7011 13.2036 13.6332 13.2104 12.5617 13.2173L12.5016 13.2749H12.5052ZM12.5158 23.3841H18.5802V20.5734H12.5158V23.3841ZM12.5158 24.243V27.0571H18.0497C18.2019 26.1134 18.3539 25.1867 18.5059 24.243H12.5158ZM12.5158 16.8969V19.701H18.5201L17.9047 16.8969H12.5158ZM12.5087 9.98551C12.5087 9.98551 12.5229 9.99909 12.5299 10.0059C12.537 9.99909 12.5441 9.9923 12.5547 9.98551C12.5441 9.97873 12.5299 9.97194 12.5194 9.96515C12.5158 9.97194 12.5123 9.97873 12.5087 9.98213V9.98551Z" fill="#515151"/>
</svg>
