<svg width="30" height="30" viewBox="0 0 30 30" fill="none" xmlns="http://www.w3.org/2000/svg">
<path d="M19.4637 27.8238C19.5137 27.1911 19.3638 26.5417 19.8966 26.0255C20.4294 25.5094 21.0789 25.6925 21.7115 25.6426V13.321H8.3743V25.6092C8.62407 25.6092 8.87382 25.6092 9.14023 25.6092C10.0227 25.6092 10.5888 26.1754 10.5888 27.0745C10.5888 27.3076 10.5888 27.5407 10.5888 27.8238C10.772 27.8238 10.9552 27.8238 11.1217 27.8238C11.5379 27.8238 11.9709 27.8238 12.3871 27.8238C12.6869 27.8238 12.8201 28.0069 12.8201 28.29C12.8201 28.5564 12.6535 28.723 12.3538 28.7395C12.3039 28.7395 12.2539 28.7395 12.204 28.7395C8.54081 28.7395 4.861 28.7395 1.19783 28.7395C1.13123 28.7395 1.06462 28.7395 0.981368 28.7395C0.714956 28.7063 0.565099 28.5397 0.565099 28.2733C0.565099 28.0236 0.714956 27.8238 0.981368 27.8238C1.39764 27.8071 1.83055 27.8238 2.24682 27.8238C2.41333 27.8238 2.57985 27.8238 2.77965 27.8238C2.8296 27.1744 2.67974 26.5084 3.22921 25.9923C3.76204 25.4927 4.41142 25.6426 5.04415 25.6092V13.2544C4.9276 13.2544 4.81104 13.2544 4.71114 13.2544C3.34577 13.2544 1.98041 13.2544 0.615052 13.2544C0.148831 13.2544 0.0322757 13.1212 0.015625 12.6717C0.015625 12.1222 0.015625 11.5893 0.015625 11.0398C0.015625 10.6569 0.148831 10.507 0.548449 10.507C1.14788 10.507 1.7473 10.507 2.39668 10.507C2.39668 10.0908 2.39668 9.70779 2.39668 9.30818C2.39668 9.14166 2.39668 8.95851 2.39668 8.792C2.39668 8.30913 2.64645 8.12597 3.09601 8.27583C3.66214 8.45898 4.24492 8.65879 4.81104 8.85861C4.87764 8.87525 4.94424 8.90855 5.07745 8.94185C5.07745 8.75869 5.0608 8.59218 5.07745 8.42568C5.17735 7.52653 4.8943 6.76061 4.49467 5.96137C4.17832 5.32864 3.81199 5.01227 3.11267 5.14548C2.84626 5.19544 2.56319 5.14548 2.29678 5.14548C1.99707 5.14548 1.81391 5.02893 1.66405 4.77917C1.16453 3.81342 0.631703 2.86433 0.13218 1.91524C-0.10093 1.48231 0.0655771 1.19925 0.565099 1.23256C1.09792 1.26586 1.6141 1.36576 2.14692 1.41571C3.74539 1.58223 5.34386 1.78203 6.94234 1.86528C9.83957 2.01514 12.7201 2.11505 15.6174 2.14835C18.9142 2.18165 22.1944 1.98184 25.458 1.64883C26.7234 1.51561 27.9723 1.36576 29.2377 1.23256C29.4209 1.2159 29.6207 1.2492 29.7706 1.33246C29.9869 1.44901 30.0203 1.64883 29.9038 1.88194C29.3543 2.89763 28.8048 3.91332 28.2719 4.92903C28.1387 5.16214 27.9389 5.24538 27.7059 5.24538C27.1896 5.24538 26.6735 5.24538 26.1739 5.24538C26.0574 5.24538 25.9075 5.34529 25.8576 5.42855C25.5579 5.96137 25.2915 6.4942 25.0084 7.02702C24.9751 7.09362 24.9251 7.17688 24.9251 7.24348C24.9251 7.8096 24.9251 8.39238 24.9251 9.00845C25.3747 8.85859 25.791 8.72539 26.2073 8.57554C26.457 8.49228 26.7067 8.39238 26.9566 8.32577C27.3562 8.20921 27.6059 8.39238 27.6059 8.82529C27.6059 9.39142 27.6059 9.95755 27.6059 10.557C27.9556 10.557 28.2886 10.557 28.6383 10.557C28.938 10.557 29.2211 10.557 29.5207 10.557C29.8372 10.557 29.9869 10.7235 30.0036 11.0565C30.0036 11.606 30.0036 12.1554 30.0036 12.7216C30.0036 13.1379 29.8537 13.2877 29.4375 13.2877C28.0555 13.2877 26.6568 13.2877 25.2748 13.2877C25.1916 13.2877 25.0917 13.2877 24.9751 13.2877V25.6426C25.5912 25.6925 26.2572 25.5261 26.7733 26.0255C27.3063 26.5417 27.1731 27.1911 27.2063 27.8405C27.7224 27.8405 28.2387 27.8405 28.7548 27.8405C28.888 27.8405 29.0379 27.8405 29.1711 27.8571C29.4209 27.9071 29.5207 28.0735 29.5207 28.3067C29.5207 28.5564 29.4042 28.7063 29.1711 28.7562C29.0878 28.7729 29.0046 28.7562 28.938 28.7562C25.2582 28.7562 21.5783 28.7562 17.8985 28.7562C17.7154 28.7562 17.4657 28.6729 17.3657 28.5232C17.1327 28.2234 17.3657 27.8405 17.782 27.8238C18.2649 27.8238 18.7477 27.8238 19.2306 27.8238C19.3139 27.8238 19.4137 27.8238 19.5137 27.8238H19.4637ZM28.6549 2.14835C19.5137 3.26394 10.439 3.26394 1.31439 2.14835C1.6474 2.78107 1.96377 3.33055 2.23018 3.89668C2.36338 4.16309 2.51323 4.26299 2.8296 4.26299C10.9385 4.26299 19.0474 4.26299 27.1397 4.26299C27.223 4.26299 27.3063 4.26299 27.3729 4.26299C27.456 4.24635 27.556 4.19639 27.5892 4.14643C27.9389 3.51371 28.2719 2.88099 28.6383 2.18165L28.6549 2.14835ZM24.8585 5.21208H5.12741C5.32721 5.59505 5.52702 5.92806 5.69353 6.27773C5.81009 6.51084 5.94329 6.5941 6.2097 6.5941C12.0708 6.5941 17.9152 6.5941 23.7762 6.5941C23.8428 6.5941 23.9261 6.5941 23.9927 6.5941C24.0593 6.57744 24.1593 6.54414 24.1758 6.4942C24.409 6.07792 24.6255 5.67831 24.8585 5.22874V5.21208ZM6.02655 7.55985V25.6758H7.30865V7.55985H6.02655ZM23.9094 25.6925V7.54319H22.644V25.6925H23.9094ZM8.32435 7.55985V10.557H12.5537V7.55985H8.32435ZM17.4323 10.557H21.6616V7.57649H17.4323V10.557ZM8.3077 12.3387H21.6616V11.4894H8.3077V12.3387ZM13.5028 10.557H16.5166V7.55985H13.5028V10.557ZM9.60646 27.8904C9.60646 27.6573 9.60646 27.4409 9.60646 27.2244C9.60646 26.7915 9.4566 26.6416 9.02368 26.6416C8.07458 26.6416 7.10885 26.6416 6.15976 26.6416C5.52702 26.6416 4.8943 26.6416 4.26156 26.6416C4.01181 26.6416 3.79535 26.7249 3.76205 26.9746C3.72874 27.2743 3.76205 27.5907 3.76205 27.8904H9.60646ZM20.3628 27.8904H26.2073C26.2073 27.624 26.2073 27.3743 26.2073 27.1245C26.2073 26.8081 26.0574 26.6416 25.7244 26.6416C24.0927 26.6416 22.4775 26.6416 20.8457 26.6416C20.5294 26.6416 20.3795 26.8081 20.3628 27.1078C20.3628 27.3576 20.3628 27.6073 20.3628 27.8904ZM5.0608 11.4894H0.981368V12.3387H5.0608V11.4894ZM29.0379 11.4894H24.9585V12.322H29.0379V11.4894ZM5.16071 10.507C5.11075 10.2906 5.12741 9.99086 5.0275 9.9409C4.49467 9.70779 3.92855 9.54128 3.37908 9.35812V10.507H5.16071ZM24.9085 10.507H26.6401V9.37477C26.1739 9.52463 25.741 9.67449 25.3081 9.82434C25.0084 9.92424 24.8752 10.1518 24.9085 10.507Z" fill="#515151"/>
</svg>
