<svg width="30" height="30" viewBox="0 0 30 30" fill="none" xmlns="http://www.w3.org/2000/svg">
<path d="M9.0211 5.61682C9.8395 10.0436 10.6207 14.4332 11.4391 18.86C11.5135 19.3808 12.2575 19.1576 12.1459 18.6368C11.3275 14.21 10.5463 9.82042 9.7279 5.39362C9.6535 4.91002 8.9467 5.09602 9.0211 5.61682Z" fill="#515151"/>
<path d="M23.1188 5.39362C22.3004 9.82042 21.5192 14.21 20.7008 18.6368C20.6264 19.1576 21.3332 19.3436 21.4076 18.86C22.226 14.4332 23.0072 10.0436 23.8256 5.61682C23.9372 5.09602 23.2304 4.91002 23.1188 5.39362Z" fill="#515151"/>
<path d="M7.46075 7.17853C9.20915 5.28133 11.5155 3.90494 14.0452 3.34694C16.5748 2.78894 19.3276 3.08654 21.7084 4.27694C23.0848 4.94654 24.3496 5.87654 25.4656 6.91814C25.8004 7.25294 26.3212 6.73214 25.9864 6.39734C23.9404 4.46293 21.3736 2.93774 18.5464 2.45414C15.7192 1.97054 13.0408 2.56574 10.6227 3.79334C9.24635 4.50014 7.98155 5.46734 6.93995 6.62054C6.60515 6.99254 7.12595 7.51333 7.46075 7.17853Z" fill="#515151"/>
<path d="M13.4114 3.12381C12.7046 3.12381 12.1094 2.52861 12.1094 1.82181V1.71021C12.1094 1.0034 12.7046 0.408203 13.4114 0.408203H19.3634C20.0702 0.408203 20.6654 1.0034 20.6654 1.71021V1.82181C20.6654 2.52861 20.0702 3.12381 19.3634 3.12381" stroke="#515151" stroke-width="0.575567" stroke-miterlimit="10"/>
<path d="M9.68763 17.8922C11.7336 14.9906 14.0772 12.3494 16.644 9.93145C16.9788 9.59665 16.458 9.07585 16.1232 9.41065C13.482 11.8659 11.1384 14.5814 9.05523 17.5202C8.75763 17.9294 9.42723 18.3014 9.68763 17.8922Z" fill="#515151"/>
<path d="M23.7159 17.5201C21.6327 14.5813 19.2519 11.8657 16.6479 9.41053C16.3131 9.07573 15.7551 9.59653 16.1271 9.93133C18.6939 12.3493 21.0375 15.0277 23.0835 17.8921C23.3439 18.3013 23.9763 17.9293 23.7159 17.5201Z" fill="#515151"/>
<path d="M9.61689 7.47653C10.0633 7.66253 10.4353 7.47653 10.6585 7.10453C10.7329 6.95573 10.8073 6.69533 10.9189 6.58373C11.0677 6.47213 11.3653 6.65813 11.5885 6.58373C11.8489 6.50933 11.9605 6.24893 12.1465 6.06293C12.4441 5.76533 12.9277 5.95133 13.2997 5.87693C13.5973 5.80253 13.7461 5.61653 14.0065 5.50493C14.3041 5.35613 14.4529 5.69093 14.7877 5.76533C15.0109 5.80253 15.2341 5.72813 15.4201 5.57933C15.4945 5.50493 15.5689 5.35613 15.6433 5.31893C15.8293 5.17013 15.6061 5.24453 15.7177 5.28173C15.7549 5.28173 15.8293 5.39333 15.8665 5.43053C16.3129 5.83973 16.7965 5.65373 17.2801 5.39333C17.3917 5.31893 17.5033 5.24453 17.6521 5.24453C17.8009 5.24453 17.5777 5.13293 17.6893 5.24453L17.7265 5.39333C17.8009 5.65373 18.0241 5.87693 18.2473 5.98853C18.5077 6.13733 18.8425 6.13733 19.1401 6.06293C19.4749 6.02573 19.9213 5.76533 20.2561 5.91413C20.5165 6.02573 20.6281 6.28613 20.8885 6.36053C20.9629 6.39773 21.0745 6.39773 21.1489 6.43493C21.1861 6.43493 21.3349 6.50933 21.2605 6.47213C21.2233 6.43493 21.4093 6.65813 21.4465 6.69533C21.6325 6.88133 21.7813 6.95573 22.0045 7.03013C22.3393 7.14173 22.5253 7.10453 22.5997 7.51373C22.6741 7.99733 23.4181 7.77413 23.3065 7.32773C23.1949 6.73253 22.8601 6.54653 22.3021 6.36053C21.8929 6.24893 21.7441 5.83973 21.3349 5.72813C21.0001 5.65373 20.8885 5.43053 20.6281 5.28173C20.3677 5.13293 20.0329 5.09573 19.7353 5.17013C19.4377 5.24453 18.9541 5.46773 18.6193 5.31893C18.3589 5.20733 18.4333 4.87253 18.2473 4.68653C17.8009 4.24013 17.2057 4.64933 16.7593 4.83533C16.4617 4.98413 16.4245 4.79813 16.2013 4.64933C15.9781 4.46333 15.7177 4.46333 15.4573 4.57493C15.3457 4.61213 15.2341 4.68653 15.1597 4.76093C15.1597 4.79813 14.9737 5.02133 14.9737 5.02133C14.8993 5.02133 14.6761 4.79813 14.6017 4.76093C14.4529 4.68653 14.2669 4.64933 14.1181 4.64933C13.8205 4.64933 13.6717 4.83533 13.4485 4.98413C13.0765 5.24453 12.6301 5.05853 12.2209 5.17013C12.0349 5.20733 11.8861 5.28173 11.7373 5.39333C11.6257 5.50493 11.5513 5.69093 11.4397 5.76533C11.2909 5.87693 10.9189 5.69093 10.6585 5.83973C10.4353 5.95133 10.3237 6.17453 10.2121 6.36053C10.1005 6.58373 10.0633 6.80693 9.84009 6.73253C9.35649 6.58373 9.17049 7.29053 9.61689 7.47653Z" fill="#515151"/>
<path d="M9.02088 17.9291C9.31848 20.9423 11.4389 23.5091 14.3404 24.3275C17.056 25.1087 19.9576 24.1043 21.892 22.0955C22.9708 20.9423 23.566 19.4915 23.7892 17.9291C23.8636 17.4455 23.1196 17.4455 23.0452 17.9291C22.7104 20.3843 21.148 22.2071 18.9532 23.2487C16.498 24.4391 13.5592 23.8439 11.6621 21.9095C10.5833 20.8307 9.91368 19.4543 9.76488 17.9291C9.72768 17.4827 8.98368 17.4827 9.02088 17.9291Z" fill="#515151"/>
<path d="M15.8666 15.8468C15.011 18.302 14.1182 20.7572 13.2626 23.2124C13.1138 23.6588 13.8206 23.8448 13.9694 23.3984C14.825 20.9432 15.7178 18.488 16.5734 16.0328C16.7594 15.5864 16.0154 15.4004 15.8666 15.8468Z" fill="#515151"/>
<path d="M15.9789 16.0328C16.8345 18.488 17.7273 20.9432 18.5829 23.3984C18.7317 23.8448 19.4757 23.6588 19.2897 23.2124C18.4341 20.7572 17.5413 18.302 16.6857 15.8468C16.5369 15.4004 15.7929 15.5864 15.9789 16.0328Z" fill="#515151"/>
<path d="M16.1285 17.1849C17.2073 18.0405 18.3977 18.7101 19.6997 19.1565C20.3321 19.3797 21.0017 19.5285 21.6713 19.6029C22.2665 19.6773 22.8617 19.7145 23.3825 19.3053C23.7545 19.0077 23.2337 18.4497 22.8617 18.7845C22.4897 19.1193 21.7829 18.8961 21.3737 18.8217C20.7785 18.7101 20.2205 18.5613 19.6625 18.3753C18.5465 17.9661 17.5421 17.4081 16.6121 16.6641C16.2773 16.3665 15.7565 16.8873 16.1285 17.1849Z" fill="#515151"/>
<path d="M16.0145 16.5527C14.3777 18.0035 12.0341 19.4543 9.76492 18.4499C9.31852 18.2639 8.94652 18.8963 9.39292 19.0823C11.9969 20.2355 14.6009 18.7847 16.5353 17.0735C16.9073 16.7759 16.3865 16.2551 16.0145 16.5527Z" fill="#515151"/>
<path d="M11.2516 6.5089C11.5864 8.6665 11.9956 10.8241 12.4792 12.9817C12.5908 13.4653 13.2976 13.2421 13.186 12.7957C12.7024 10.6381 12.3304 8.4805 11.9584 6.3229C11.884 5.8393 11.1772 6.0253 11.2516 6.5089Z" fill="#515151"/>
<path d="M20.6634 6.24862C20.3286 8.51782 19.9194 10.787 19.3986 13.019C19.287 13.4654 19.9938 13.6886 20.1054 13.205C20.6262 10.973 21.0354 8.70382 21.3702 6.43462C21.4446 5.95102 20.7378 5.76502 20.6634 6.24862Z" fill="#515151"/>
<path d="M3.81058 21.0919C4.14538 20.7199 4.59178 20.4595 5.11258 20.3479C5.67058 20.2363 6.19138 20.3479 6.67498 20.5339C7.67938 20.8687 8.75818 21.3151 9.79978 20.7571C10.209 20.5339 9.83698 19.9015 9.42778 20.1247C8.38618 20.6827 7.19578 19.8271 6.15418 19.6411C5.11258 19.4551 3.99658 19.7899 3.25258 20.5711C2.95498 20.9059 3.47578 21.4267 3.81058 21.0919Z" fill="#515151"/>
<path d="M22.7098 21.2033C23.677 20.2361 25.2022 21.3893 26.1694 21.7613C27.2482 22.1705 28.6618 22.0217 29.1454 20.7941C29.3314 20.3477 28.5874 20.1617 28.4386 20.6081C28.2526 21.0917 27.6574 21.2777 27.211 21.2405C26.5414 21.2033 25.9834 20.8313 25.3882 20.5709C24.3838 20.1245 23.119 19.7897 22.2262 20.6825C21.8542 21.0173 22.375 21.5381 22.7098 21.2033Z" fill="#515151"/>
<path d="M8.57099 26.7829C9.57539 27.5269 10.8774 27.8617 12.1422 27.7501C12.7746 27.6757 13.3326 27.5269 13.9278 27.2665C14.523 26.9689 15.0438 26.5597 15.6762 26.2993C17.2014 25.5925 18.6894 26.5969 20.103 27.0805C21.2934 27.4897 22.6326 27.5641 23.637 26.6713C24.009 26.3365 23.451 25.8157 23.1162 26.1505C22.0746 27.0805 20.5494 26.4853 19.4334 26.0389C18.243 25.5553 16.941 25.0345 15.639 25.5181C14.523 25.9273 13.6674 26.7457 12.477 26.9689C11.2866 27.1921 9.98459 26.8573 8.98019 26.1505C8.53379 25.8529 8.16179 26.5225 8.57099 26.7829Z" fill="#515151"/>
<path d="M21.9669 24.0303C22.2645 23.5839 22.9341 23.5839 23.4177 23.7699C24.0501 23.9931 24.5709 24.4395 25.1289 24.7743C25.6869 25.1091 26.3193 25.2951 26.9889 25.1835C27.6585 25.0719 28.1421 24.6255 28.5885 24.2163C28.9605 23.9187 28.4397 23.3607 28.0677 23.6955C27.5841 24.1419 26.9889 24.5883 26.2821 24.4395C25.5753 24.2907 25.0173 23.8071 24.4221 23.4723C23.4549 22.8771 22.0785 22.6167 21.2973 23.6583C21.0369 24.0303 21.7065 24.4023 21.9669 24.0303Z" fill="#515151"/>
<path d="M1.54439 23.5469C1.61879 24.1793 2.17679 24.5885 2.73479 24.7001C3.47879 24.8489 4.14839 24.5513 4.81799 24.2537C5.52479 23.9189 6.19439 23.6585 6.97559 23.6957C7.75679 23.7329 8.50079 23.9933 9.09599 24.4769C9.46799 24.7745 9.83999 24.1049 9.46799 23.8445C8.38919 23.0261 6.93839 22.7657 5.63639 23.1377C4.92959 23.3237 4.33439 23.7701 3.62759 23.9933C3.10679 24.1421 2.32559 24.0677 2.21399 23.3981C2.21399 22.8773 1.50719 23.1005 1.54439 23.5469Z" fill="#515151"/>
<path d="M14.602 29.9074C15.718 29.4982 16.9456 29.4238 18.136 29.7214C18.5824 29.833 18.8056 29.1262 18.322 29.0146C17.02 28.717 15.6436 28.7542 14.416 29.2006C14.23 29.275 14.1184 29.461 14.1556 29.647C14.1928 29.833 14.3788 29.9818 14.602 29.9074Z" fill="#515151"/>
</svg>
