<svg width="30" height="30" viewBox="0 0 30 30" fill="none" xmlns="http://www.w3.org/2000/svg">
<path d="M26.5864 10.6076C26.441 9.67694 26.1356 8.819 25.6704 8.00469C25.2486 7.27762 24.6814 6.66688 23.9253 6.25972C23.0238 5.76531 22.064 5.64898 21.0607 5.75078C20.9589 5.75078 20.8572 5.75078 20.7553 5.75078C21.4533 5.34362 22.1514 4.98008 22.8638 4.60201C23.0383 4.51476 23.2129 4.41297 23.3437 4.29664C23.4454 4.20939 23.4746 4.06398 23.5473 3.9331C23.7945 4.10761 24.0417 4.10761 24.318 4.00581C24.8706 3.80223 25.4377 3.64228 25.9903 3.46778C26.252 3.38054 26.47 3.23512 26.5428 2.95884C26.601 2.72617 26.5864 2.46442 26.3538 2.30448C26.2228 2.21722 26.092 2.12997 25.9466 2.08635C25.4232 1.92639 24.8851 1.78099 24.347 1.65012C24.129 1.59195 23.8963 1.54832 23.6636 1.5047H22.5003C22.2967 1.54832 22.0932 1.60648 21.8895 1.65012C21.3224 1.78099 20.8135 2.01364 20.3481 2.36264C19.4902 3.017 18.9522 3.88948 18.5887 4.8783C18.5596 4.951 18.545 5.02371 18.5014 5.09642C18.4578 5.15458 18.3997 5.21275 18.3415 5.22729C18.3124 5.22729 18.2397 5.15458 18.2251 5.09642C18.0506 4.7038 17.9053 4.29664 17.7016 3.91856C17.2654 3.08971 16.6256 2.43535 15.7968 1.9991C15.3604 1.76644 14.8806 1.62103 14.3862 1.57741C14.3136 1.57741 14.2408 1.53378 14.1536 1.5047H13.0194C13.0194 1.5047 12.8884 1.57741 12.8157 1.57741C12.2486 1.60648 11.7106 1.78099 11.1871 1.95548C10.9399 2.02819 10.6927 2.11544 10.4746 2.23177C10.2128 2.37718 10.1401 2.65346 10.1983 2.94429C10.2419 3.19149 10.3873 3.366 10.6491 3.45324C11.1871 3.62774 11.7397 3.77316 12.2778 3.97674C12.5977 4.10761 12.903 4.1803 13.2084 3.94765C13.2374 3.97674 13.2666 3.99127 13.2666 4.02036C13.3101 4.29664 13.4992 4.45659 13.7464 4.58746C14.4444 4.951 15.1569 5.31453 15.8548 5.69262C15.8985 5.72169 15.9421 5.76532 16.0148 5.82349C15.7676 5.7944 15.5496 5.76532 15.3459 5.76532C14.9533 5.76532 14.5608 5.7944 14.1826 5.83802C13.4265 5.92527 12.7575 6.24518 12.1905 6.72505C11.4198 7.37941 10.8963 8.20827 10.5764 9.15345C10.3873 9.72057 10.2419 10.3168 10.1111 10.913C10.0529 11.1456 10.1547 11.3783 10.3437 11.5382C10.5473 11.6982 10.809 11.7709 11.0272 11.6255C11.2744 11.4801 11.4779 11.2619 11.7106 11.0729C11.9142 10.913 12.1032 10.753 12.3068 10.5785C12.6122 10.3022 13.0484 10.1277 12.9902 9.57516C13.2956 9.73512 13.5283 9.64786 13.7755 9.4879C14.7207 8.86263 15.6949 8.31006 16.7128 7.81566C16.7564 7.80111 16.8146 7.77202 16.8583 7.78657C17.0473 7.84473 17.2218 7.91744 17.4254 7.99015C17.4108 8.42638 17.3817 8.86263 17.3672 9.31341C17.3672 9.69148 17.3382 10.0696 17.3235 10.4331C17.3235 10.6367 17.309 10.8257 17.28 11.0293C17.2363 11.5237 17.1782 12.0326 17.1345 12.527C17.1055 12.8179 17.091 13.1087 17.0618 13.3995C17.0182 13.7485 16.9746 14.0975 16.9164 14.4465C17.1055 14.4611 17.2945 14.4465 17.4835 14.4465C17.5562 13.7922 17.6289 13.1378 17.7016 12.4835C18.1525 12.5852 18.6032 12.6725 19.0831 12.7887V14.4174C19.2721 14.4174 19.4466 14.4465 19.6357 14.4756C19.6357 14.4756 19.6357 14.4756 19.6502 14.4756C19.6502 13.6758 19.6357 12.8906 19.6212 12.0908C19.6212 12.0036 19.6212 11.9163 19.6212 11.8291C19.6212 11.6837 19.6212 11.5382 19.5484 11.4074C19.4902 11.262 19.3158 11.2765 19.1994 11.3056C19.0831 11.3347 19.0104 11.5382 19.0394 11.6691C19.0686 11.8291 19.0686 12.0036 19.0831 12.1635C19.0249 12.1635 18.9958 12.1635 18.9813 12.1635C18.6032 12.0908 18.2106 12.0036 17.8326 11.9309C17.8034 11.9309 17.7598 11.8582 17.7598 11.8145C17.7598 11.6837 17.7889 11.5673 17.7889 11.4365C17.8179 10.9857 17.8326 10.5203 17.8616 10.0696C17.8616 9.96777 17.8761 9.86599 18.0361 9.85144C18.167 9.85144 18.2978 9.79328 18.4287 9.74965C18.6032 9.70603 18.7777 9.66241 18.9376 9.61878C18.9668 9.88052 18.9668 10.0841 18.9958 10.3022C18.9958 10.3749 19.0831 10.4913 19.1413 10.5058C19.2285 10.5203 19.3593 10.5058 19.432 10.4476C19.5775 10.3604 19.5048 10.2295 19.4902 10.0986C19.4757 9.82236 19.4612 9.53154 19.4466 9.25525C19.4466 9.06621 19.4175 8.87716 19.403 8.70267C19.374 8.45547 19.3448 8.20827 19.3303 7.9756C19.4757 7.93198 19.592 7.9029 19.6938 7.85928C19.8537 7.78657 19.9992 7.78657 20.1446 7.87382C20.3628 8.00469 20.5953 8.10648 20.8135 8.23735C21.4096 8.58634 22.0059 8.93534 22.6166 9.26979C22.9656 9.45883 23.271 9.82236 23.7508 9.56061C23.7218 9.89506 23.8672 10.1132 24.0708 10.2877C24.5506 10.6948 25.0305 11.102 25.5104 11.5092C25.6994 11.6691 25.9176 11.6982 26.1356 11.64C26.3538 11.5819 26.5573 11.4365 26.5864 11.1893C26.6155 11.0002 26.5864 10.8112 26.5573 10.6221L26.5864 10.6076ZM14.5898 8.28097C14.3136 8.03377 14.0227 7.77202 13.7318 7.51028C13.63 7.4085 13.3828 7.37941 13.3101 7.45212C13.1793 7.58299 13.1938 7.7284 13.3538 7.88835C13.601 8.12102 13.8482 8.33914 14.1099 8.58634C13.8772 8.73176 13.6446 8.89171 13.412 9.02258C13.3101 9.08074 13.2084 9.06621 13.1066 8.9935C12.9612 8.89171 12.8302 8.77538 12.6267 8.78992C12.4377 8.80447 12.2341 9.02258 12.3068 9.18254C12.5103 9.60423 12.3213 9.8369 12.0014 10.0696C11.6088 10.3604 11.2598 10.7094 10.8817 11.0293C10.8381 11.0729 10.7509 11.0729 10.6927 11.0875C10.6927 11.0293 10.6491 10.9566 10.6636 10.8984C10.7654 10.4331 10.8672 9.96777 11.0126 9.51699C11.2889 8.65905 11.7106 7.88835 12.3795 7.24854C12.8884 6.76867 13.4992 6.4633 14.1826 6.34698C14.5898 6.28881 14.997 6.27427 15.4041 6.27427C15.6223 6.27427 15.8403 6.31789 16.0148 6.34698C16.1312 6.7105 16.233 7.03041 16.3347 7.35033C15.7822 7.64115 15.2005 7.94653 14.6043 8.26644L14.5898 8.28097ZM16.3929 5.35816C16.0003 5.14004 15.6223 4.92192 15.2296 4.68926C15.2005 4.67472 15.1714 4.58746 15.186 4.54384C15.2442 4.15123 15.3169 3.77316 15.3751 3.39507C15.4041 3.2642 15.3314 3.16242 15.2005 3.14787C15.0552 3.11878 14.8952 3.11878 14.866 3.32236C14.808 3.62774 14.7498 3.91856 14.6916 4.22394C14.6916 4.2821 14.6625 4.34026 14.648 4.39843C14.4444 4.29664 14.2408 4.1803 14.0372 4.1076C13.7318 3.99127 13.761 3.87494 13.79 3.56958C13.8045 3.38053 13.7464 3.23512 13.5718 3.14787C13.3974 3.07516 13.2374 3.11878 13.1211 3.2642C13.0629 3.33691 13.0048 3.39507 12.9321 3.46778C12.8449 3.55503 12.7576 3.55503 12.6412 3.51141C12.0741 3.32236 11.507 3.14787 10.9545 2.95884C10.8817 2.92975 10.7509 2.95884 10.7509 2.81342C10.7509 2.68255 10.8381 2.668 10.9399 2.63893C11.4634 2.49351 11.9724 2.28993 12.4958 2.18815C12.9466 2.1009 13.4265 2.1009 13.8918 2.1009C14.7498 2.1009 15.5059 2.36264 16.1894 2.90067C16.8291 3.40962 17.3817 4.29664 17.6144 4.96555C17.2363 5.03824 16.8583 5.09642 16.5674 5.38724C16.5384 5.41633 16.4511 5.40178 16.4074 5.38724L16.3929 5.35816ZM16.8291 7.04496C16.5384 6.69596 16.5529 6.23064 16.8291 5.86711C17.0763 5.5472 17.5272 5.45995 17.9779 5.63444C17.6434 6.18702 17.6434 6.73959 17.9779 7.29216C17.4835 7.49574 17.091 7.36486 16.8438 7.0595L16.8291 7.04496ZM18.7777 9.08074C18.5014 9.168 18.2106 9.22616 17.9343 9.29887C17.9343 8.86263 17.9343 8.42638 17.9343 8.00469C17.9343 7.94653 18.0216 7.87382 18.0798 7.81566C18.3124 7.62661 18.5305 7.74295 18.7486 7.85928C18.7777 7.85928 18.8068 7.9029 18.8068 7.93198C18.8359 8.26644 18.8649 8.60089 18.8794 8.93534C18.8794 8.97896 18.8214 9.05167 18.7777 9.06621V9.08074ZM19.1848 7.36486C18.6759 7.4085 18.2688 6.89954 18.2688 6.4633C18.2688 5.98344 18.6614 5.5472 19.1121 5.53266C19.752 5.51811 20.1156 5.93982 20.1301 6.43422C20.1301 6.97225 19.6938 7.39395 19.1848 7.35033V7.36486ZM20.2028 5.3727C19.8974 5.11095 19.5484 4.98008 19.1266 4.98008C19.3448 4.42752 19.6065 3.91856 19.9701 3.48232C20.3481 3.017 20.799 2.62438 21.3661 2.39172C21.8023 2.20268 22.2531 2.07181 22.733 2.07181C23.1255 2.07181 23.5182 2.07181 23.9108 2.11544C24.6088 2.20268 25.2777 2.39172 25.9321 2.668C25.9611 2.68255 26.0048 2.75526 26.0048 2.78433C25.9903 2.82796 25.9466 2.90067 25.8884 2.91522C25.4522 3.06062 25.0305 3.19149 24.5942 3.32236C24.4197 3.38053 24.2452 3.45324 24.0562 3.49687C23.9253 3.52594 23.8236 3.49687 23.7363 3.38053C23.6636 3.29329 23.5909 3.20604 23.4891 3.14787C23.3582 3.07516 23.2129 3.08971 23.0965 3.17696C22.9656 3.27874 22.9075 3.42416 22.951 3.59865C23.0238 3.90403 22.9947 3.96219 22.7184 4.09306C22.5584 4.16577 22.3839 4.23848 22.224 4.32572C22.1077 4.38388 22.0786 4.34026 22.064 4.23848C22.0059 3.9331 21.9477 3.64228 21.8895 3.33691C21.846 3.16242 21.7296 3.10425 21.5406 3.14787C21.4096 3.17696 21.3516 3.27874 21.3806 3.40962C21.4243 3.72952 21.4824 4.0349 21.5406 4.35481C21.5551 4.45659 21.5696 4.54384 21.5988 4.64563C21.1771 4.89284 20.7553 5.14004 20.3191 5.38724C20.29 5.40178 20.2318 5.41633 20.2028 5.38724V5.3727ZM26.0338 11.0729C26.0338 11.0729 25.9176 11.0729 25.8739 11.0438C25.6412 10.8403 25.4085 10.6221 25.176 10.4186C24.9433 10.2295 24.7251 10.0259 24.4779 9.85144C24.347 9.74965 24.2889 9.66241 24.347 9.50245C24.3762 9.42974 24.3762 9.3425 24.4052 9.28432C24.4779 9.12438 24.4197 8.97896 24.318 8.87718C24.2017 8.76084 23.9545 8.76084 23.8236 8.84809C23.7654 8.89171 23.7073 8.94987 23.6346 8.9935C23.5182 9.06621 23.4164 9.09529 23.2855 9.00805C23.082 8.86263 22.8638 8.73176 22.6458 8.58634C22.8348 8.41185 23.0092 8.23735 23.1837 8.0774C23.2564 8.00469 23.3437 7.94653 23.4309 7.85928C23.5764 7.71386 23.5764 7.56844 23.4601 7.45212C23.3727 7.37941 23.1402 7.39395 23.0529 7.4812C22.762 7.74295 22.4566 8.01922 22.1659 8.28097C21.5842 7.9756 21.0025 7.6557 20.45 7.36486C20.5518 7.03041 20.6535 6.7105 20.7553 6.34698C21.2061 6.28881 21.715 6.25972 22.224 6.30334C22.8493 6.36151 23.4309 6.55056 23.9398 6.89954C24.7251 7.42303 25.234 8.16464 25.5685 9.02258C25.7866 9.57516 25.9176 10.1568 26.092 10.7239C26.1066 10.7966 26.1356 10.8693 26.1211 10.942C26.1211 10.9857 26.0775 11.0584 26.0338 11.0729Z" fill="#515151"/>
<path d="M7.55045 14.1707C7.72494 13.909 7.89944 13.909 8.1321 14.1707C8.1321 14.1707 8.16119 14.1999 8.17572 14.2144H10.0079C10.0079 14.2144 10.037 14.1854 10.0516 14.1707C10.2261 13.909 10.4006 13.909 10.6332 14.1707C10.6332 14.1707 10.6623 14.1999 10.6768 14.2144C11.2876 14.2144 11.8983 14.2144 12.5091 14.2144C12.5091 14.2144 12.5381 14.1854 12.5381 14.1707C12.7853 13.8945 12.8872 13.8945 13.1197 14.1707C13.1197 14.1707 13.1489 14.1999 13.1634 14.2144C13.7741 14.2144 14.3849 14.2144 14.9956 14.2144C14.9956 14.2144 15.0247 14.1854 15.0393 14.1707C15.2865 13.8945 15.4464 13.8945 15.6209 14.1707C15.6209 14.1707 15.6499 14.1999 15.6646 14.2144H17.4967C17.4967 14.2144 17.5258 14.1854 17.5404 14.1707C17.7876 13.8945 17.9476 13.8945 18.1221 14.1707C18.1221 14.1707 18.1511 14.1999 18.1656 14.2144C18.5873 14.2144 19.0091 14.2144 19.4308 14.2144C19.707 14.2144 19.8088 14.3162 19.8088 14.5925C19.8088 14.767 19.8088 14.927 19.8088 15.116C20.2306 15.116 20.6377 15.116 21.0448 15.116C21.2775 15.116 21.4229 15.2032 21.4811 15.4359C21.6993 16.352 21.9318 17.2535 22.15 18.1696C22.2082 18.3878 22.0918 18.5768 21.8591 18.6059C21.6846 18.635 21.4956 18.6059 21.3066 18.6059V21.3979C22.3972 21.3979 23.4732 21.3979 24.5639 21.3979C24.7384 21.3979 24.8692 21.3687 24.8983 21.1652C24.9274 20.9325 24.7674 20.8743 24.5929 20.8307C24.2585 20.7725 23.9821 20.5545 23.9531 20.2927C23.9241 19.9437 23.9821 19.6238 24.3021 19.4056C24.5929 19.2021 24.8838 19.1731 25.2328 19.2311C25.858 19.333 26.3379 19.6528 26.6578 20.1909C26.9487 20.6998 27.0069 21.2524 26.9195 21.8341C26.8323 22.5176 26.6287 23.1573 26.3088 23.7536C26.2216 23.9281 26.1198 24.088 26.0179 24.248L26.0471 24.3207C26.2798 24.277 26.5123 24.2625 26.716 24.1607C26.9341 24.0589 27.1086 24.0443 27.2686 24.2188C27.2686 24.3061 27.2686 24.4079 27.2686 24.4952C27.1522 24.5679 27.0504 24.6697 26.9341 24.7279C26.3524 25.0331 25.7999 24.9023 25.2473 24.6115C25.0728 24.5242 24.8838 24.4807 24.6947 24.4515C24.3457 24.4079 24.0549 24.6115 23.7496 24.7424C23.2405 24.9604 22.7171 24.9459 22.2372 24.6551C21.801 24.3934 21.3357 24.3352 20.8995 24.6115C20.2596 24.9896 19.6488 24.9459 19.0091 24.6115C18.8345 24.5242 18.631 24.466 18.4273 24.437C18.0784 24.3788 17.8021 24.5969 17.5113 24.7279C16.9878 24.9459 16.4789 24.9314 15.999 24.6551C15.49 24.3643 15.0102 24.3788 14.5158 24.6551C14.3267 24.7569 14.094 24.8151 13.876 24.8441C13.4397 24.9169 13.0471 24.7714 12.669 24.5533C12.2764 24.3352 11.8983 24.3788 11.5202 24.5969C10.924 24.9314 10.2988 24.9751 9.70256 24.6406C9.20816 24.3497 8.75738 24.3934 8.27752 24.6406C8.05939 24.7569 7.79765 24.8151 7.55045 24.8587C7.12874 24.9314 6.76522 24.7569 6.40168 24.5533C6.0236 24.3497 5.63099 24.3934 5.26745 24.5969C4.62763 24.9604 4.00235 25.0041 3.36253 24.5969C3.18804 24.4807 3.2462 24.3352 3.26075 24.2043C3.26075 24.1461 3.4207 24.088 3.50795 24.0735C3.58066 24.0589 3.6679 24.1025 3.75515 24.1171C3.75515 24.1171 3.78424 24.1316 3.78424 24.1461V24.1171C3.78424 24.0298 3.78424 23.9426 3.78424 23.8553C3.78424 21.0925 3.78424 18.3441 3.78424 15.5813C3.78424 15.1887 3.88602 15.0869 4.29318 15.0869C4.7585 15.0869 5.22383 15.0869 5.71823 15.0869C5.71823 14.927 5.71823 14.7815 5.71823 14.6216C5.71823 14.258 5.79094 14.1854 6.16902 14.1707C6.6198 14.1707 7.05604 14.1707 7.50682 14.1707C7.50682 14.1707 7.5359 14.1417 7.55045 14.1272V14.1707ZM8.07394 21.3687V19.4348L8.03032 19.3911H7.27416C7.27416 19.6528 7.27416 19.9147 7.27416 20.1764C7.27416 20.4526 7.18691 20.5544 6.91062 20.5544C6.47438 20.5544 6.03815 20.5544 5.6019 20.5544C5.3547 20.5544 5.22383 20.4236 5.22383 20.1764C5.22383 19.9147 5.22383 19.6675 5.22383 19.3911H4.42405V21.3979H8.04485C8.04485 21.3979 8.07394 21.3687 8.08848 21.3542L8.07394 21.3687ZM8.74284 18.6059C8.74284 18.6059 8.71375 18.635 8.69921 18.6495V21.4124H12.2764V18.6495C12.2764 18.6495 12.2473 18.6205 12.2328 18.6059C11.0695 18.6059 9.90614 18.6059 8.75738 18.6059H8.74284ZM16.4643 21.4124V18.6205H12.8872V21.3833C12.8872 21.3833 12.9162 21.4124 12.9307 21.4269H16.4643V21.4124ZM4.45314 15.7267C4.45314 15.7267 4.42405 15.7558 4.40951 15.7703V17.0936C4.49676 17.0936 4.56947 17.0936 4.65671 17.0936C5.86364 17.0936 7.07058 17.0936 8.27752 17.0936C8.59742 17.0936 8.68468 17.1808 8.68468 17.5007C8.68468 17.6607 8.68468 17.8061 8.68468 17.9806C12.9307 17.9806 17.1768 17.9806 21.4519 17.9806C21.3939 17.7334 21.3502 17.5007 21.2921 17.2535C21.1902 16.8173 21.0739 16.381 20.9722 15.9448C20.943 15.7994 20.8849 15.7558 20.7395 15.7558C20.4341 15.7558 20.1287 15.7558 19.7943 15.7558C19.7943 15.9013 19.7943 16.0466 19.7943 16.192C19.7943 16.4537 19.6925 16.5556 19.4308 16.5556C19.3581 16.5556 19.2853 16.5556 19.2126 16.5556C14.8938 16.5556 10.575 16.5556 6.24173 16.5556C5.83457 16.5556 5.67461 16.4974 5.7037 16.0175C5.7037 15.9303 5.7037 15.8285 5.7037 15.7413C5.7037 15.7413 5.67461 15.7121 5.66006 15.6976H4.4386L4.45314 15.7267ZM25.0146 20.3509C25.3491 20.4963 25.5672 20.9762 25.48 21.3687C25.4073 21.7178 25.0436 22.0085 24.6802 22.0231C24.5784 22.0231 24.4767 22.0231 24.3748 22.0231C17.8021 22.0231 11.2294 22.0231 4.65671 22.0231H4.39496V24.3061C4.5113 24.277 4.62763 24.248 4.72942 24.2043C5.07841 24.0298 5.42741 23.8408 5.8491 23.8553C6.22718 23.8553 6.56164 23.9716 6.88154 24.1607C7.25962 24.3788 7.62316 24.3643 7.97214 24.1607C8.64104 23.7681 9.28087 23.7391 9.94978 24.1316C10.3133 24.3497 10.7059 24.3643 11.084 24.1461C11.7965 23.7391 12.48 23.7536 13.1925 24.1898C13.5415 24.3934 13.9487 24.3207 14.3267 24.1025C14.923 23.7536 15.5337 23.7536 16.1445 24.1025C16.5515 24.3352 16.9733 24.3643 17.3805 24.1316C18.0348 23.7536 18.6745 23.7536 19.3289 24.1316C19.7361 24.3643 20.1579 24.3497 20.565 24.1025C21.2047 23.7244 21.8446 23.7536 22.4699 24.1316C22.848 24.3497 23.2115 24.3788 23.6041 24.1461C24.1131 23.8408 24.6657 23.7389 25.2328 23.9571C25.3782 24.0153 25.4508 23.9571 25.5235 23.8699C25.9017 23.2592 26.1925 22.6193 26.2651 21.8923C26.2943 21.5578 26.3233 21.1942 26.2651 20.8598C26.1198 20.2346 25.5527 19.8128 24.9129 19.7983C24.6657 19.7983 24.5202 19.9582 24.5492 20.2054C24.7092 20.2491 24.8692 20.2781 25.0001 20.3363L25.0146 20.3509ZM10.6187 14.8251C10.6187 14.956 10.6187 15.0723 10.6187 15.2032C10.6187 15.3632 10.5023 15.4941 10.3424 15.4795C10.197 15.4795 10.037 15.4067 10.0516 15.1887C10.0516 15.0723 10.0516 14.956 10.0516 14.8251H8.11756C8.11756 14.956 8.11756 15.0723 8.11756 15.2032C8.11756 15.3632 8.00123 15.4795 7.84127 15.4795C7.68132 15.4795 7.5359 15.4067 7.55045 15.1887C7.55045 15.0723 7.55045 14.956 7.55045 14.8251H6.32897V15.9593C10.6041 15.9593 14.8793 15.9593 19.1544 15.9593V14.8397H18.1511C18.1075 15.3195 18.0202 15.5086 17.8167 15.4795C17.4095 15.4214 17.5549 15.0869 17.5113 14.8251H15.6936C15.6209 15.0287 15.5627 15.2323 15.49 15.4067C15.4755 15.4504 15.3737 15.4795 15.301 15.4795C15.112 15.4795 15.0393 15.3195 15.0102 14.8397H13.1489C13.1197 15.305 13.0325 15.5086 12.8145 15.4795C12.4073 15.4214 12.5527 15.0869 12.5091 14.8251H10.5896H10.6187ZM17.0896 21.3979H20.6668V18.6059H17.0896V21.3979ZM4.40951 18.7222H8.05939V17.6897H4.40951V18.7222ZM5.82002 19.9292H6.64888V19.3911H5.82002V19.9292Z" fill="#515151"/>
<path d="M23.5126 25.7453C23.3672 25.818 23.2072 25.8325 23.0472 25.8616C22.8728 25.8907 22.6983 25.8616 22.5383 25.7889C22.5819 25.8035 22.6256 25.818 22.6691 25.8325C22.5674 25.7889 22.451 25.7453 22.3492 25.6871C22.2474 25.6289 22.1312 25.5563 22.0293 25.5126C21.4768 25.3236 20.9387 25.4109 20.4298 25.7163C20.0517 25.9488 19.6736 25.9198 19.2956 25.7016C18.6702 25.3381 18.0304 25.3091 17.3907 25.6726C16.9835 25.9053 16.5617 25.9343 16.1546 25.7016C15.5002 25.3236 14.8605 25.3236 14.2061 25.7016C13.799 25.9488 13.3772 25.9198 12.97 25.6726C12.3593 25.3236 11.7486 25.3091 11.1524 25.6726C10.7743 25.8907 10.3672 25.9635 10.0182 25.7598C9.30563 25.3236 8.62218 25.3236 7.90966 25.7163C7.53157 25.9343 7.13896 25.9198 6.77543 25.7016C6.10653 25.3091 5.45217 25.3381 4.79781 25.7308C4.44881 25.9343 4.07074 25.9488 3.7072 25.7308C3.38729 25.5417 3.05284 25.4254 2.67477 25.4254C2.23852 25.4254 1.90407 25.6871 1.49692 25.7889C1.30787 25.8471 1.07521 25.8761 0.886174 25.8325C0.697137 25.7889 0.52264 25.6289 0.333603 25.6726C0.231813 25.6871 0.0863997 25.7453 0.0863997 25.8035C0.0718584 25.9343 -0.000848562 26.0797 0.18819 26.196C0.828009 26.6032 1.45329 26.5741 2.09311 26.196C2.45664 25.9925 2.84926 25.9488 3.22733 26.1525C3.59087 26.356 3.9544 26.5159 4.3761 26.4579C4.6233 26.4142 4.88505 26.356 5.10317 26.2397C5.58304 26.007 6.03382 25.9488 6.52823 26.2397C7.10988 26.5887 7.73515 26.5451 8.34589 26.196C8.72397 25.978 9.10205 25.9343 9.49467 26.1525C9.87274 26.356 10.2654 26.5159 10.7016 26.4432C10.9197 26.4142 11.1524 26.356 11.3414 26.2542C11.8504 25.9635 12.3303 25.9488 12.8247 26.2542C13.3046 26.5451 13.828 26.5596 14.3369 26.3269C14.6278 26.196 14.904 25.9925 15.253 26.0361C15.4566 26.0652 15.6602 26.1234 15.8346 26.2107C16.4745 26.5306 17.0853 26.5887 17.7251 26.2107C18.1613 25.9488 18.6267 25.9925 19.0629 26.2542C19.5573 26.5451 20.0662 26.5596 20.5752 26.3415C20.8805 26.2107 21.1569 25.9925 21.5204 26.0507C21.7094 26.0797 21.913 26.1234 22.073 26.2107C22.6256 26.4869 23.178 26.6323 23.7598 26.3269C23.8761 26.2687 23.9778 26.167 24.0942 26.0943V25.818C23.9196 25.6435 23.7598 25.6581 23.5416 25.7598L23.5126 25.7453Z" fill="#515151"/>
<path d="M29.4225 27.4763C29.277 27.549 29.1171 27.5635 28.9571 27.5927C28.7826 27.6217 28.6082 27.5927 28.4482 27.5199C28.4918 27.5345 28.5354 27.549 28.579 27.5635C28.4772 27.5199 28.361 27.4763 28.2591 27.4182C28.1573 27.36 28.041 27.2873 27.9393 27.2437C27.3867 27.0546 26.8486 27.1418 26.3397 27.4472C25.9616 27.6799 25.5836 27.6509 25.2054 27.4327C24.5801 27.0691 23.9404 27.0401 23.3006 27.4035C22.8934 27.6362 22.4717 27.6654 22.0646 27.4327C21.4102 27.0546 20.7704 27.0546 20.116 27.4327C19.7088 27.6799 19.2872 27.6507 18.88 27.4035C18.2692 27.0546 17.6585 27.0401 17.0622 27.4035C16.6842 27.6217 16.2771 27.6944 15.9281 27.4909C15.2156 27.0546 14.532 27.0546 13.8196 27.4472C13.4415 27.6654 13.0488 27.6509 12.6854 27.4327C12.0165 27.0401 11.3621 27.0691 10.7077 27.4617C10.3587 27.6654 9.98065 27.6799 9.61711 27.4617C9.2972 27.2727 8.96275 27.1563 8.58468 27.1563C8.14844 27.1563 7.81399 27.4182 7.40683 27.5199C7.2178 27.5781 6.98513 27.6072 6.79609 27.5635C6.60705 27.5199 6.43255 27.36 6.24352 27.4035C6.14173 27.4182 5.99631 27.4763 5.99631 27.5345C5.98177 27.6654 5.90906 27.8107 6.0981 27.9271C6.73793 28.3343 7.3632 28.3052 8.00303 27.9271C8.36655 27.7235 8.75917 27.6799 9.13725 27.8834C9.50078 28.0871 9.86432 28.247 10.286 28.1888C10.5332 28.1453 10.795 28.0871 11.0131 27.9707C11.493 27.7381 11.9437 27.6799 12.4382 27.9707C13.0198 28.3197 13.6451 28.2761 14.2558 27.9271C14.6339 27.7089 15.0119 27.6654 15.4046 27.8834C15.7827 28.0871 16.1753 28.247 16.6115 28.1743C16.8297 28.1453 17.0622 28.0871 17.2514 27.9853C17.7603 27.6944 18.2402 27.6799 18.7346 27.9853C19.2144 28.2761 19.7379 28.2906 20.2468 28.0579C20.5377 27.9271 20.8139 27.7235 21.163 27.7671C21.3665 27.7962 21.5702 27.8544 21.7446 27.9416C22.3845 28.2615 22.9952 28.3197 23.635 27.9416C24.0712 27.6799 24.5366 27.7235 24.9728 27.9853C25.4672 28.2761 25.9762 28.2906 26.4851 28.0725C26.7904 27.9416 27.0668 27.7235 27.4302 27.7817C27.6194 27.8107 27.8229 27.8544 27.9828 27.9416C28.5354 28.2179 29.088 28.3633 29.6697 28.0579C29.786 27.9998 29.8877 27.8981 30.0041 27.8253V27.549C29.8296 27.3745 29.6697 27.389 29.4515 27.4909L29.4225 27.4763Z" fill="#515151"/>
<path d="M19.8645 20.1029C19.8645 20.3646 19.8645 20.641 19.8645 20.9027C19.8645 21.1062 19.7483 21.2081 19.5592 21.2226C19.0939 21.2226 18.643 21.2226 18.1778 21.2226C17.9596 21.2226 17.8142 21.0917 17.8142 20.8737C17.8142 20.3501 17.8142 19.8412 17.8142 19.3178C17.8142 19.0706 17.9306 18.9542 18.1632 18.9542C18.614 18.9542 19.0647 18.9542 19.5301 18.9542C19.7918 18.9542 19.8645 19.0414 19.8791 19.3031C19.8791 19.565 19.8791 19.8412 19.8791 20.1029H19.8645ZM19.2539 20.5973V19.5795H18.4395V20.5973H19.2539Z" fill="#515151"/>
<path d="M15.6941 20.0741C15.6941 20.3503 15.6941 20.6412 15.6941 20.9174C15.6941 21.1211 15.5924 21.2228 15.3742 21.2228C14.9234 21.2228 14.4872 21.2228 14.0363 21.2228C13.7601 21.2228 13.6438 21.1064 13.6292 20.8302C13.6292 20.3213 13.6292 19.8123 13.6292 19.3033C13.6292 19.0853 13.7746 18.9543 13.9782 18.9543C14.4435 18.9543 14.9088 18.9543 15.3597 18.9543C15.6069 18.9543 15.6796 19.0271 15.6941 19.2888C15.6941 19.5505 15.6941 19.8123 15.6941 20.0595V20.0741ZM14.2835 19.5942V20.612H15.1125V19.5942H14.2835Z" fill="#515151"/>
<path d="M11.404 20.0889C11.404 20.3651 11.404 20.6414 11.404 20.9032C11.404 21.0922 11.2877 21.194 11.0986 21.2085C10.6333 21.2085 10.1534 21.2085 9.68811 21.2085C9.48453 21.2085 9.33911 21.0632 9.33911 20.8595C9.33911 20.3361 9.33911 19.8125 9.33911 19.2891C9.33911 19.0564 9.45544 18.9401 9.68811 18.9401C10.1534 18.9401 10.6042 18.9401 11.0695 18.9401C11.3167 18.9401 11.404 19.0274 11.404 19.2746C11.404 19.5363 11.404 19.8125 11.404 20.0744V20.0889ZM10.7932 19.5798H9.9644V20.5833H10.7932V19.5798Z" fill="#515151"/>
</svg>
