<svg width="30" height="30" viewBox="0 0 30 30" fill="none" xmlns="http://www.w3.org/2000/svg">
<path d="M29.412 27.811H29.1104C28.9446 27.7508 28.8391 27.6904 28.7939 27.6151C28.7034 27.4644 28.628 27.3136 28.5527 27.1628C28.4923 27.0272 28.4169 26.8765 28.3416 26.7408C28.1305 26.379 27.8743 26.0322 27.3919 26.002C27.1958 26.002 27.015 25.987 26.819 25.9719C26.6079 25.9719 26.412 25.9568 26.2009 25.9418C26.0803 25.9418 25.9446 25.8814 25.8692 25.8061C25.7486 25.6855 25.628 25.5498 25.5225 25.4142L24.7687 24.5548C24.2261 23.9518 23.6984 23.3337 23.1557 22.7307C22.8995 22.4594 22.5527 22.2936 22.0854 22.2182C21.9648 22.2031 21.8442 22.0976 21.7838 21.9619C21.5125 21.389 21.2562 20.8011 21.0301 20.2131C20.9697 20.0624 20.9095 19.9267 20.8341 19.8061C20.7738 19.8061 20.7285 19.8212 20.6683 19.8362C20.4271 19.8664 20.2009 19.8966 19.9597 19.9117C20.0653 20.0323 20.1557 20.183 20.2461 20.3941L20.7135 21.4644L20.9245 22.1578H20.1859C19.9447 22.1578 19.7637 22.3086 19.7637 22.5348C19.7637 22.7006 19.9447 22.8966 20.1557 22.9117C20.3969 22.9117 20.6381 22.9267 20.8793 22.9267C21.0451 22.9267 21.2109 22.9267 21.5125 22.9117C22.1607 22.9117 22.6884 23.2131 23.1859 23.8765L23.1255 23.9971L23.0502 24.0423H18.0301C17.9245 24.0423 17.7889 23.9518 17.7285 23.8614C17.6079 23.6955 17.5025 23.59 17.3065 23.59C17.1407 23.605 17.0351 23.7106 16.9597 23.9367C16.8693 24.193 16.7637 24.4494 16.6583 24.7207L16.3868 25.1126L15.5577 22.9267H18.2261C18.5125 22.9267 18.6632 22.791 18.6632 22.5498C18.6632 22.4292 18.6331 22.3388 18.5727 22.2784C18.4974 22.2031 18.3768 22.173 18.2109 22.173H9.39192L8.99996 22.0825L9.25624 21.4795C9.45222 21.0121 9.63313 20.5599 9.85926 20.1226C9.91956 20.0172 9.99493 19.9267 10.1005 19.8513C10.0402 19.8362 9.97986 19.8212 9.91956 19.8061C9.84419 19.8061 9.7688 19.7911 9.69343 19.776C9.5879 19.7608 9.4673 19.7307 9.3467 19.6855C9.33162 19.6855 9.30147 19.6855 9.28639 19.6855C9.27132 19.6855 9.25624 19.6855 9.24117 19.6855C9.19594 19.7458 9.16579 19.8212 9.12056 19.8966C8.81906 20.5749 8.51755 21.2533 8.24619 21.9318C8.17082 22.1277 8.05022 22.2182 7.88439 22.2332C7.38691 22.2936 6.9648 22.5196 6.61807 22.9117L4.25124 25.6251C4.11557 25.791 3.94974 25.9418 3.603 25.9418H3.58793C3.4824 25.9418 3.37687 25.9267 3.25627 25.9267H2.80401C2.33667 25.9568 1.97486 26.1528 1.74873 26.5297C1.62813 26.7408 1.49246 26.9518 1.41708 27.1779C1.31155 27.4795 1.1005 27.8563 0.633163 27.8563C0.557786 27.8563 0.467335 27.8563 0.331657 27.8262C0.120602 27.9166 0 27.9769 0 28.188C0 28.4593 0.150754 28.595 0.467335 28.595H29.2914C29.5326 28.595 29.8039 28.595 29.9999 28.4142V28.0975C29.8944 27.9166 29.7437 27.8262 29.427 27.8262L29.412 27.811ZM11.2763 27.6904L11.1708 27.796H4.43214H2.11055L2.05025 27.6453V27.585L2.14069 27.389C2.201 27.2232 2.27637 27.0573 2.3819 26.9216C2.5025 26.7709 2.7437 26.6955 2.89446 26.6955C3.43717 26.6955 3.97988 26.6955 4.52259 26.6955H10.8995L11.2613 26.7559V27.7056L11.2763 27.6904ZM11.6532 25.3086L11.3668 25.9116H5.06531L5.00501 25.8212L5.15576 25.7006L5.33666 25.4744C5.48742 25.2936 5.62309 25.1126 5.77384 24.9468C5.83415 24.8714 5.95475 24.796 6.06027 24.796H8.86429H11.6683L11.7738 24.9015L11.608 25.3086H11.6532ZM13.1607 27.2684C13.1607 27.3739 13.1607 27.4644 13.1607 27.5698L13.1005 27.796H12.6482C12.5276 27.796 12.407 27.796 12.2864 27.796C12.1808 27.796 12.0602 27.6603 12.0452 27.5548C11.9547 26.7709 12.0905 26.0172 12.4523 25.3237L12.5577 25.2182H12.6181H12.6331C12.6783 25.2483 12.7387 25.2936 12.7688 25.3689C12.9949 25.8664 13.2512 26.5146 13.1457 27.2684H13.1607ZM13.0401 23.982C12.9347 23.7256 12.8291 23.5749 12.603 23.5598C12.3919 23.5598 12.2713 23.6805 12.1507 24.0121H6.76881L6.66328 23.9518L6.7839 23.8462C7.07032 23.4543 7.37183 23.0473 7.91454 22.9418C8.05022 22.9117 8.18589 22.8966 8.32158 22.8966H14.2311L14.397 22.987L13.5075 25.0825L13.0703 23.982H13.0401ZM15.9799 27.1779C15.9799 27.3438 15.9799 27.5096 15.9799 27.6904L15.8743 27.796L13.9447 27.6904C13.794 26.6503 14.1407 25.7006 14.4572 24.992C14.5326 24.8262 14.5929 24.6603 14.6532 24.4795L14.7738 24.1629L15 23.6654L15.5276 25.0372L15.6331 25.3237C15.6935 25.5045 15.7537 25.6855 15.8291 25.8513C16.0401 26.2885 16.01 26.7408 15.9949 27.1779H15.9799ZM17.7889 27.811H17.5778C17.5778 27.811 17.1407 27.811 17.0201 27.811C16.9296 27.811 16.7789 27.7207 16.7637 27.6151C16.6733 26.7709 16.8241 25.9719 17.2914 25.2332L17.3667 25.188L17.397 25.2332C17.9396 26.0172 17.9245 26.9066 17.8039 27.811H17.7889ZM18.407 25.6251C18.3618 25.4594 18.2864 25.2936 18.2261 25.1277L18.0903 24.796C18.0903 24.796 22.5979 24.796 23.7135 24.796C23.8643 24.796 24.0451 24.8714 24.1507 24.977C24.3165 25.1427 24.4673 25.3237 24.6331 25.5196L24.8442 25.8664L24.7236 25.9719L24.6933 25.8966C24.618 25.8966 24.5577 25.8966 24.4974 25.8966H18.8442C18.6482 25.8966 18.4974 25.8513 18.422 25.6101L18.407 25.6251ZM27.8592 27.796H23.5477H18.7386L18.6331 27.6904V26.6804H22.7486C24.1205 26.6804 25.4924 26.6804 26.8793 26.6804C27.3164 26.6804 27.5727 26.8462 27.7235 27.2232L27.9044 27.6453L27.8592 27.796Z" fill="#515151"/>
<path d="M16.9131 11.7867C17.0489 11.7867 17.1695 11.7867 17.3051 11.7867C17.4257 11.7566 17.5463 11.7415 17.6669 11.7114C17.6669 11.7114 17.6669 11.7114 17.682 11.7114V11.6812C17.7272 11.3345 17.5161 11.1234 17.2901 10.9576C17.1996 10.8822 17.1242 10.7918 17.0941 10.6862C16.9885 10.3847 16.898 10.0681 16.8077 9.75156L16.6719 9.28423C16.4307 8.47016 16.2047 7.5958 16.28 6.64605C16.3101 6.22395 16.295 5.80183 16.28 5.3948V5.12345C16.2649 4.56565 16.0237 4.14355 15.5865 3.91741C15.3906 3.8119 15.3302 3.70637 15.3302 3.49531C15.3302 2.9526 15.3302 2.39482 15.3302 1.8521C15.3302 1.52045 15.2247 1.42999 14.9082 1.42999C14.6217 1.42999 14.5765 1.46014 14.5765 1.83702C14.5765 2.37973 14.5765 2.93752 14.5765 3.48023C14.5765 3.69128 14.5161 3.79681 14.3202 3.90234C13.8679 4.14355 13.6568 4.49028 13.6568 4.94254C13.6568 5.83199 13.6568 6.70636 13.6267 7.5958C13.6267 7.7164 13.6117 7.85208 13.5665 7.98775L13.5061 8.21388C13.3253 8.87719 13.1443 9.5405 12.9483 10.2038C12.873 10.4752 12.7223 10.7315 12.6167 10.9274C12.5714 11.0028 12.5112 11.0782 12.4508 11.1385C12.3755 11.2289 12.285 11.3043 12.27 11.3948C12.2549 11.4852 12.2397 11.5606 12.2397 11.6511C12.4811 11.7264 12.7373 11.7566 12.9936 11.7867L13.0237 11.5757L16.898 11.636V11.7717L16.9131 11.7867ZM14.5464 4.67118C14.6217 4.58074 14.7121 4.53551 14.8478 4.53551H14.9684C15.1041 4.53551 15.2549 4.55058 15.3755 4.67118C15.5112 4.82194 15.5564 5.09329 15.4508 5.59078L14.4258 5.53048C14.3805 5.09329 14.4258 4.82194 14.5464 4.67118ZM15.4961 6.4953L15.4358 7.46011L14.3955 7.39981V6.435L15.4961 6.4953ZM13.6267 10.7013L13.7624 10.2038C13.9283 9.61589 14.079 9.04302 14.2448 8.48524C14.2749 8.39479 14.4107 8.30434 14.5011 8.30434C14.6519 8.30434 14.8026 8.30434 14.9684 8.30434C15.1343 8.30434 15.285 8.30434 15.4508 8.30434C15.5413 8.30434 15.677 8.40986 15.692 8.50031C15.873 9.10332 16.0388 9.70634 16.2197 10.3094L16.28 10.7767L13.6418 10.7013H13.6267Z" fill="#515151"/>
<path d="M15.3025 12.7665C13.4332 12.7665 11.7448 12.6157 10.3126 12.4197C5.69957 11.7565 2.66943 10.4148 2.63927 10.3997C2.5036 10.3394 2.4433 10.1736 2.5036 10.0379C2.5639 9.90219 2.72973 9.84189 2.8654 9.90219C2.98601 9.96249 14.8201 15.1634 27.7849 9.79667C27.9205 9.73637 28.0864 9.79667 28.1467 9.94742C28.207 10.0831 28.1467 10.2489 27.996 10.3092C23.4131 12.2087 18.996 12.7815 15.3025 12.7815V12.7665Z" fill="#515151"/>
<path d="M6.90352 13.0979C6.88843 13.0979 6.85829 13.0979 6.82813 13.1129C6.79799 13.1129 6.78292 13.128 6.75276 13.1431C6.72261 13.1431 6.67739 13.1883 6.64723 13.1733C6.61708 13.1733 6.58693 13.128 6.57186 13.1129C6.57186 13.0979 6.55678 13.0677 6.54171 13.0527C6.54171 13.0225 6.51156 12.9923 6.49648 12.9773C6.46633 12.9321 6.42111 12.9018 6.37588 12.8717C6.30051 12.8265 6.21005 12.8265 6.11959 12.8416C5.99899 12.8567 5.86332 12.9169 5.77287 12.9923C5.72764 13.0375 5.68241 13.0828 5.65227 13.1431C5.65227 13.1431 5.60704 13.2185 5.60704 13.1733C5.60704 13.1431 5.60704 13.1129 5.60704 13.0979C5.60704 13.0375 5.60704 12.9923 5.59197 12.9321C5.57688 12.8567 5.54674 12.7662 5.47135 12.721C5.41105 12.6757 5.32061 12.6305 5.24523 12.6456C5.1397 12.6456 5.03417 12.7059 4.92865 12.7662C4.8985 12.7812 4.85327 12.8115 4.8382 12.8416C4.82313 12.8717 4.86834 12.8717 4.8985 12.8717C4.8985 12.8717 4.8985 12.8717 4.91357 12.8717C4.92864 12.8717 4.94373 12.8717 4.97387 12.8868C5.0191 12.8868 5.04925 12.9169 5.0794 12.9321C5.15478 12.9773 5.24523 13.0225 5.30553 13.0828C5.36584 13.128 5.41105 13.1883 5.44121 13.2637C5.47135 13.3089 5.47135 13.3692 5.47135 13.4295V13.4898C5.50151 13.5199 5.51658 13.4597 5.53167 13.4446C5.54674 13.3993 5.56181 13.3692 5.59197 13.3391C5.63719 13.2637 5.69749 13.2034 5.75779 13.128C5.78794 13.0979 5.81809 13.0527 5.86332 13.0375C5.95377 13.0074 5.96885 13.128 5.98392 13.1883C5.98392 13.2185 5.98392 13.2335 5.98392 13.2637C5.98392 13.2787 5.99899 13.3089 6.01407 13.324C6.04422 13.3843 6.11959 13.3993 6.17989 13.3843C6.27035 13.3843 6.37588 13.3541 6.46633 13.324C6.51156 13.3089 6.55678 13.2787 6.60201 13.2637C6.64724 13.2637 6.67739 13.2486 6.72261 13.2185C6.76783 13.2034 6.88843 13.1733 6.88843 13.0979H6.90352Z" fill="#515151"/>
<path d="M6.10427 12.2233C6.02888 12.1781 5.92336 12.1781 5.83291 12.1932C5.77261 12.1932 5.72738 12.2233 5.68216 12.2534C5.60678 12.2987 5.50126 12.374 5.5314 12.4946C5.56156 12.57 5.652 12.6152 5.72738 12.6304C5.81783 12.6605 5.90828 12.6455 5.99874 12.6152C6.08918 12.5851 6.19471 12.5249 6.22487 12.4344C6.25501 12.3439 6.17964 12.2686 6.10427 12.2233ZM6.05904 12.5249C6.05904 12.5249 5.95351 12.555 5.89321 12.5399C5.83291 12.5249 5.78768 12.4946 5.72738 12.4645C5.68216 12.4494 5.63693 12.3892 5.652 12.3439C5.652 12.2987 5.7123 12.2686 5.74246 12.2686C5.81783 12.2384 5.89321 12.2686 5.96858 12.2987C6.02888 12.3288 6.07411 12.3892 6.07411 12.4494C6.07411 12.4796 6.07411 12.5098 6.05904 12.5249Z" fill="#515151"/>
<path d="M6.67902 13.8519L6.45289 13.7915C6.45289 13.7915 6.33228 13.7915 6.30213 13.8368L6.16645 13.9725C6.16645 13.9725 6.1363 14.0479 6.18153 14.0479C6.24183 14.0479 6.28705 14.0479 6.28705 14.1232C6.28705 14.1835 6.27198 14.2438 6.2569 14.2891C6.22675 14.3493 6.21168 14.4247 6.18153 14.485C6.15138 14.5905 6.10615 14.681 6.06092 14.7865C6.04585 14.8317 6.0157 14.8769 6.00062 14.9373C6.00062 14.9523 5.95539 15.1483 5.91018 15.1031C5.91018 15.1031 5.91018 15.0579 5.91018 15.0428C5.91018 15.0127 5.91018 14.9825 5.91018 14.9523C5.91018 14.8769 5.91018 14.8016 5.91018 14.7262C5.91018 14.681 5.91018 14.6509 5.91018 14.6207C5.91018 14.5755 5.91018 14.5453 5.91018 14.5001C5.91018 14.4097 5.91018 14.3192 5.91018 14.2287C5.91018 14.1835 5.91018 14.1382 5.91018 14.0931C5.91018 14.0479 5.91018 13.9725 5.95539 13.9574C5.98555 13.9574 6.0157 13.9574 6.04585 13.9121L6.18153 13.7764C6.21168 13.7463 6.21168 13.7011 6.16645 13.7011L5.47299 13.5352C5.47299 13.5352 5.35238 13.5352 5.32224 13.5805C5.32224 13.5805 5.18655 13.7011 5.18655 13.7162C5.14132 13.7614 5.18655 13.7764 5.21671 13.8067C5.21671 13.8067 5.23178 13.8217 5.21671 13.8519C5.21671 13.8669 5.17148 13.882 5.15641 13.897C5.14132 13.9121 5.11118 13.9273 5.09611 13.9423C5.06595 13.9574 5.03581 13.9725 5.00565 13.9875C4.9755 14.0026 4.94535 14.0327 4.9152 14.0479C4.90012 14.0479 4.86998 14.078 4.8549 14.0931C4.83982 14.0931 4.80967 14.1081 4.7946 14.1232C4.77952 14.1232 4.74937 14.1533 4.7343 14.1685C4.7343 14.1685 4.64384 14.2287 4.674 14.2287C4.71922 14.2287 4.76445 14.2438 4.7946 14.2739C4.82475 14.3041 4.83982 14.3343 4.8549 14.3794C4.8549 14.4247 4.85489 14.4549 4.86998 14.5001C4.86998 14.5453 4.86998 14.5755 4.86998 14.6207C4.86998 14.6659 4.83982 14.681 4.7946 14.681C4.76445 14.681 4.74937 14.681 4.71922 14.681C4.62877 14.6509 4.53831 14.5905 4.4931 14.5151C4.46294 14.485 4.44787 14.4398 4.43278 14.3945C4.43278 14.3493 4.43278 14.3041 4.43278 14.2588C4.43278 14.1232 4.4931 13.9875 4.53831 13.8669C4.56847 13.8067 4.59862 13.7313 4.674 13.7011C4.74937 13.6709 4.82475 13.7011 4.90012 13.7313C4.94535 13.7313 5.02072 13.7313 5.05088 13.6861L5.18655 13.5503C5.18655 13.5503 5.21671 13.475 5.17148 13.475L4.47801 13.3091C4.47801 13.3091 4.35741 13.3091 4.32727 13.3544L4.19158 13.49C4.19158 13.49 4.16144 13.5655 4.20666 13.5655C4.26697 13.5655 4.31218 13.5956 4.37248 13.6106C4.41771 13.6106 4.46294 13.6257 4.50817 13.6408C4.6137 13.6709 4.50817 13.7614 4.47801 13.8067C4.41771 13.882 4.34234 13.9725 4.29711 14.0479C4.22174 14.1533 4.17651 14.2588 4.14635 14.3794C4.13128 14.4549 4.11621 14.5453 4.11621 14.6207C4.11621 14.7111 4.16144 14.7563 4.22174 14.8016C4.28204 14.8468 4.34234 14.8769 4.41771 14.8921C4.46294 14.8921 4.50817 14.8921 4.56847 14.8921C4.74937 14.8769 4.9152 14.8016 5.06595 14.7262C5.17148 14.6659 5.27701 14.5755 5.32224 14.4699C5.33731 14.4247 5.33731 14.3794 5.33731 14.3343C5.33731 14.2891 5.30716 14.2588 5.26194 14.2287C5.20164 14.1685 5.11118 14.1533 5.02072 14.1382C4.99058 14.1382 4.96042 14.1382 4.99058 14.1081C4.99058 14.0931 5.02072 14.078 5.03581 14.078C5.08102 14.0479 5.12625 14.0176 5.18655 13.9875C5.21671 13.9574 5.26194 13.9423 5.29208 13.9121C5.32224 13.897 5.36746 13.882 5.41268 13.9121C5.44284 13.9273 5.45791 13.9725 5.47299 14.0026C5.48806 14.0479 5.51821 14.0931 5.53329 14.1382C5.60866 14.2891 5.66896 14.4398 5.71419 14.5905C5.74435 14.6961 5.78956 14.8016 5.81972 14.9071C5.84986 15.0127 5.86495 15.1181 5.89509 15.2086C5.89509 15.2387 5.92525 15.269 5.94032 15.284C5.97048 15.284 6.00062 15.2539 6.0157 15.2387C6.04585 15.1935 6.076 15.1333 6.09108 15.0729C6.10615 15.0127 6.12122 14.9523 6.15138 14.9071C6.1966 14.8167 6.22675 14.7413 6.28705 14.6509C6.34736 14.5453 6.42273 14.4247 6.48303 14.3041C6.5584 14.1835 6.64886 14.0629 6.75439 13.9725C6.78454 13.9423 6.78454 13.897 6.73932 13.897L6.67902 13.8519Z" fill="#515151"/>
<path d="M4.41619 17.048C4.41619 17.048 4.40112 17.0933 4.38603 17.1084C4.38603 17.1234 4.35589 17.1385 4.34082 17.1535C4.32573 17.1535 4.29559 17.1686 4.26543 17.1686C4.23529 17.1686 4.2202 17.1686 4.19006 17.1686H4.12976C4.12976 17.1686 4.08453 17.1385 4.05438 17.1234C4.0393 17.1234 4.00916 17.0933 4.00916 17.0781C4.00916 17.0631 3.979 17.048 3.979 17.0179C3.979 17.0028 3.979 16.9727 3.979 16.9575L4.11469 16.3998C4.11469 16.3998 4.12976 16.3545 4.14483 16.3395C4.14483 16.3244 4.17499 16.3093 4.19006 16.2943C4.20513 16.2943 4.23529 16.2792 4.26543 16.2792C4.29559 16.2792 4.31066 16.2792 4.34082 16.2792H4.40112C4.40112 16.2792 4.44634 16.3093 4.47649 16.3244C4.49156 16.3244 4.52172 16.3545 4.52172 16.3697C4.52172 16.3847 4.55187 16.3998 4.55187 16.4299C4.55187 16.445 4.55187 16.4751 4.55187 16.4903L4.41619 17.048ZM4.37096 16.4601C4.37096 16.4601 4.37096 16.445 4.37096 16.4299C4.37096 16.4299 4.37096 16.4299 4.34082 16.4299C4.34082 16.4299 4.32573 16.4299 4.31066 16.4299C4.31066 16.4299 4.31066 16.4299 4.29559 16.445L4.1599 16.9878C4.1599 16.9878 4.1599 17.0028 4.1599 17.0179C4.1599 17.0179 4.1599 17.0179 4.19006 17.0179C4.19006 17.0179 4.20513 17.0179 4.2202 17.0179C4.2202 17.0179 4.2202 17.0179 4.23529 17.0028L4.37096 16.4601Z" fill="#515151"/>
<path d="M5.28679 16.5347L5.09081 17.3488C5.09081 17.3488 5.09081 17.3638 5.06066 17.3488L4.90991 17.3186C4.90991 17.3186 4.89483 17.3186 4.89483 17.3036L4.98529 16.9266L4.80438 17.2131V16.8814L4.68378 17.2583C4.68378 17.2583 4.68378 17.2733 4.65362 17.2583L4.50288 17.2282C4.50288 17.2282 4.48779 17.2282 4.48779 17.2131L4.68378 16.399C4.68378 16.399 4.68378 16.3839 4.71393 16.399L4.83453 16.4291V16.8965L5.07573 16.4895C5.07573 16.4895 5.07573 16.4895 5.09081 16.4895L5.21142 16.5196C5.21142 16.5196 5.22649 16.5196 5.22649 16.5347H5.28679Z" fill="#515151"/>
<path d="M6.58711 18.7361L1.89868 17.5301L3.75295 10.3542L8.44137 11.5603L6.58711 18.7361ZM2.57707 17.1382L6.19515 18.0728L7.77806 11.9673L4.15997 11.0326L2.57707 17.1382Z" fill="#515151"/>
<path d="M12.0569 19.8067L7.26294 19.1885L8.21268 11.8469L13.0066 12.4649L12.0569 19.8067ZM7.88102 18.7211L11.5896 19.1885L12.3885 12.9322L8.68002 12.4649L7.88102 18.7211Z" fill="#515151"/>
<path d="M17.6202 19.9412L12.781 19.8507L12.9167 12.4487L17.7558 12.5392L17.6202 19.9412ZM13.3388 19.3081L17.0775 19.3683L17.1981 13.0668L13.4594 13.0066L13.3388 19.3081Z" fill="#515151"/>
<path d="M18.4823 19.8217L17.5476 12.4801L22.3415 11.862L23.2762 19.2037L18.4823 19.8217ZM18.1656 12.9474L18.9647 19.2037L22.6732 18.7213L21.8742 12.465L18.1656 12.9474Z" fill="#515151"/>
<path d="M24.0864 18.7811L21.991 11.6806L26.6341 10.3088L28.7297 17.4092L24.0864 18.7811ZM22.6844 12.0425L24.4633 18.0876L28.0512 17.0323L26.2723 10.9872L22.6844 12.0425Z" fill="#515151"/>
<path d="M11.2617 14.2879L10.8848 14.2427C10.8848 14.2427 10.7793 14.2578 10.7491 14.3029L10.6285 14.4537C10.6285 14.4537 10.6134 14.5291 10.6587 14.5291C10.719 14.5291 10.7793 14.5291 10.8396 14.5743C10.8848 14.6196 10.9149 14.6949 10.8999 14.7552C10.8848 14.8305 10.8697 14.906 10.8546 14.9814C10.8245 15.0869 10.8094 15.1923 10.8094 15.2979C10.8094 15.3884 10.8094 15.4788 10.7943 15.5693C10.7642 15.6446 10.7491 15.5693 10.734 15.5391C10.719 15.4788 10.7039 15.4335 10.6888 15.3733C10.6587 15.2527 10.5984 15.1321 10.523 15.0416C10.4325 14.9361 10.3421 14.8457 10.2064 14.8155C10.1763 14.8155 10.1461 14.8155 10.131 14.8004C10.116 14.7853 10.1009 14.7402 10.1009 14.7099C10.1009 14.6346 10.1009 14.5291 10.1461 14.4839C10.1763 14.4537 10.2064 14.4687 10.2516 14.4839C10.2969 14.4839 10.3572 14.4687 10.3873 14.4235L10.5079 14.2728C10.5079 14.2728 10.523 14.1974 10.4778 14.1974L9.76923 14.1069C9.76923 14.1069 9.6637 14.1221 9.63355 14.1673L9.51294 14.318C9.51294 14.318 9.49787 14.3934 9.5431 14.3934C9.58833 14.3934 9.61847 14.3934 9.6637 14.4085C9.75415 14.4085 9.79938 14.4537 9.84461 14.5441C9.85968 14.5743 9.87475 14.6045 9.88983 14.6346C9.88983 14.6647 9.98028 14.7703 9.93505 14.8004C9.91998 14.8004 9.87475 14.8004 9.85968 14.8004C9.78431 14.8155 9.724 14.8305 9.6637 14.8758C9.55817 14.9361 9.46773 15.0416 9.43757 15.1472C9.40743 15.2226 9.4225 15.3129 9.43757 15.4034C9.46773 15.4939 9.51295 15.5994 9.6034 15.6446C9.64863 15.6597 9.70893 15.6749 9.75415 15.6899C9.81445 15.6899 9.88983 15.6899 9.95013 15.6597C10.0858 15.5844 10.1461 15.4788 10.1612 15.3281C10.1612 15.2828 10.1763 15.2527 10.2215 15.2527C10.2516 15.2527 10.2969 15.2678 10.327 15.2979C10.4024 15.3432 10.4476 15.4034 10.4929 15.4788C10.5682 15.5693 10.5833 15.6899 10.6587 15.7955C10.7039 15.8708 10.7642 15.8105 10.7943 15.7652C10.8396 15.705 10.8546 15.6597 10.8546 15.5844C10.8697 15.4939 10.8848 15.4034 10.8848 15.3281C10.8848 15.2075 10.9149 15.0869 10.9451 14.9511C10.9451 14.8909 10.9752 14.8305 10.9752 14.7703C10.9752 14.7251 11.0054 14.6798 11.0355 14.6346C11.0657 14.5893 11.126 14.5893 11.1562 14.5441L11.2768 14.3934C11.3069 14.3633 11.2918 14.318 11.2466 14.318L11.2617 14.2879ZM9.98028 15.5391C9.98028 15.5391 9.98028 15.5391 9.96521 15.5543C9.88983 15.5994 9.82953 15.5844 9.75415 15.5543C9.70893 15.5543 9.6637 15.524 9.63355 15.4788C9.58833 15.4185 9.57325 15.3582 9.57325 15.2828C9.57325 15.2527 9.57325 15.2226 9.57325 15.1923C9.6034 15.102 9.6637 15.0567 9.75415 15.0416C9.82953 15.0416 9.90491 15.0416 9.98028 15.0869C9.99535 15.0869 10.0406 15.102 10.0406 15.1321C10.0406 15.1622 10.0406 15.2075 10.0406 15.2527C10.0406 15.3432 10.0406 15.4788 9.96521 15.5391H9.98028Z" fill="#515151"/>
<path d="M9.97929 17.4244L9.87376 18.2535C9.87376 18.2535 9.87376 18.2686 9.84361 18.2535H9.69285C9.69285 18.2535 9.67778 18.2234 9.67778 18.2084L9.72301 17.8164L9.57225 18.1179L9.51195 17.7862L9.46672 18.1782C9.46672 18.1782 9.46672 18.1933 9.43658 18.1782H9.28582C9.28582 18.1782 9.27075 18.148 9.27075 18.1329L9.37628 17.3038C9.37628 17.3038 9.37628 17.2887 9.40642 17.3038H9.54211C9.54211 17.3038 9.54211 17.3188 9.55718 17.334L9.61748 17.7862L9.79838 17.3641C9.79838 17.3641 9.79838 17.3641 9.81346 17.3641H9.94914L9.96421 17.3943L9.97929 17.4244Z" fill="#515151"/>
<path d="M10.461 18.3296C10.461 18.3296 10.461 18.3447 10.4459 18.3296H10.3102C10.3102 18.3296 10.2952 18.2994 10.2952 18.2843V18.1487H10.2047L10.1746 18.2843C10.1746 18.2843 10.1746 18.2994 10.1444 18.2843H10.0087C10.0087 18.2843 9.99365 18.2542 9.99365 18.2391L10.2198 17.425C10.2198 17.425 10.2198 17.41 10.2499 17.425L10.4459 17.4552C10.4459 17.4552 10.461 17.4552 10.461 17.4702V18.3146V18.3296ZM10.2952 18.0281V17.6964L10.2198 18.0281H10.2952Z" fill="#515151"/>
<path d="M15.9326 14.3642C15.9175 14.2889 15.8724 14.2135 15.8422 14.1382C15.7969 14.0477 15.7518 13.9422 15.6763 13.8668C15.601 13.7764 15.5256 13.6859 15.4201 13.6255C15.3145 13.5653 15.209 13.5804 15.1036 13.6255C14.8624 13.716 14.5307 14.0778 14.8321 14.304C14.8472 14.319 14.8925 14.319 14.9226 14.3341C14.9527 14.3341 14.983 14.3341 14.998 14.3492C15.0583 14.3492 15.1186 14.3492 15.1638 14.319C15.2543 14.2889 15.3598 14.2135 15.3598 14.108C15.3598 14.0778 15.3598 14.0326 15.3145 14.0176C15.2844 14.0176 15.2543 14.0176 15.2543 14.0477C15.2543 14.0628 15.2694 14.0929 15.2694 14.108C15.2694 14.1382 15.2694 14.1683 15.2694 14.1984C15.2694 14.2436 15.2242 14.2436 15.1789 14.2436C15.0733 14.2436 15.0131 14.1834 14.9678 14.0929C14.9377 14.0326 14.9226 13.9422 14.9377 13.8818C14.9527 13.7764 15.0432 13.7764 15.1337 13.7764C15.3296 13.7764 15.4955 13.9422 15.6161 14.0929C15.6763 14.1683 15.7367 14.2588 15.7969 14.3492C15.8272 14.3945 15.8422 14.4246 15.8724 14.4698C15.8724 14.5 15.8874 14.5452 15.9326 14.5452C15.9779 14.5452 15.9628 14.5 15.9628 14.4698C15.9628 14.4396 15.9628 14.4095 15.9478 14.3794L15.9326 14.3642Z" fill="#515151"/>
<path d="M15.7698 15.253C15.7698 15.253 15.7546 15.253 15.7396 15.2379C15.6492 15.1777 15.5134 15.1626 15.408 15.1777C15.3024 15.1777 15.1969 15.2229 15.1064 15.2682C15.0763 15.2682 15.031 15.3284 15.0009 15.3133C14.9858 15.3133 14.9858 15.253 15.0009 15.2379C15.031 15.0872 15.1215 14.9817 15.2572 14.9064C15.3627 14.846 15.4682 14.846 15.5738 14.846C15.619 14.846 15.6793 14.8159 15.7094 14.7706L15.7999 14.6199C15.7999 14.6199 15.7999 14.5444 15.7546 14.5444H14.9104C14.9104 14.5444 14.805 14.5747 14.7748 14.6199L14.6844 14.7706C14.6844 14.7706 14.6844 14.846 14.7296 14.846H14.9406C14.9406 14.846 15.0612 14.8309 15.0914 14.846C15.1366 14.8761 15.0914 14.9214 15.0763 14.9515C15.0462 15.0118 15.0009 15.0571 14.9557 15.1023C14.9104 15.1476 14.8954 15.2078 14.8652 15.253C14.8351 15.3133 14.805 15.3736 14.7898 15.4339C14.7145 15.63 14.6692 15.8259 14.6541 16.0219C14.6541 16.1576 14.6391 16.3083 14.6541 16.444C14.6541 16.5194 14.6541 16.5948 14.6541 16.6701C14.6541 16.8812 14.6692 17.0923 14.6692 17.2882C14.6692 17.3636 14.6692 17.439 14.6692 17.5143C14.6692 17.5294 14.6692 17.5747 14.6994 17.5897C14.7296 17.5897 14.7446 17.5596 14.7597 17.5444C14.7898 17.4992 14.805 17.4842 14.7898 17.439C14.7898 17.3786 14.7898 17.3184 14.7898 17.258C14.7748 17.0319 14.7446 16.7907 14.7446 16.5646C14.7446 16.459 14.7296 16.3686 14.7446 16.2631C14.7446 16.1576 14.7748 16.052 14.82 15.9615C14.82 15.9314 14.8652 15.8409 14.9104 15.8712C14.9104 15.8712 14.9406 15.9164 14.9406 15.9314C14.9406 15.9465 14.9708 15.9766 14.9858 15.9918C15.016 16.0219 15.0612 16.052 15.1064 16.0671C15.1969 16.0972 15.3024 16.0821 15.3928 16.052C15.4231 16.052 15.4532 16.0219 15.4833 16.0068C15.6039 15.9465 15.7094 15.856 15.7999 15.7506C15.9356 15.5997 15.9506 15.3585 15.7849 15.2229L15.7698 15.253ZM15.6492 15.7354C15.619 15.856 15.5286 15.9314 15.408 15.9615C15.3024 15.9918 15.1366 15.9615 15.0612 15.8712C15.016 15.8108 14.9858 15.6902 15.016 15.6148C15.0462 15.5094 15.1516 15.4641 15.2421 15.449C15.2722 15.449 15.2874 15.449 15.3175 15.449C15.3778 15.449 15.4231 15.449 15.4682 15.449C15.5286 15.449 15.5738 15.449 15.619 15.5094C15.6643 15.5696 15.6793 15.6601 15.6643 15.7354H15.6492Z" fill="#515151"/>
<path d="M15.3769 17.9525V18.7816C15.3769 18.7816 15.3769 18.7967 15.3619 18.7967H15.2563C15.2563 18.7967 15.2563 18.7967 15.2413 18.7967L15.0755 18.3897V18.7967C15.0755 18.7967 15.0755 18.8117 15.0604 18.8117H14.9247C14.9247 18.8117 14.9097 18.8117 14.9097 18.7967V17.9675C14.9097 17.9675 14.9097 17.9525 14.9247 17.9525H15.0303C15.0303 17.9525 15.0303 17.9525 15.0453 17.9525L15.2111 18.3444V17.9525C15.2111 17.9525 15.2111 17.9374 15.2262 17.9374H15.3619C15.3619 17.9374 15.3769 17.9374 15.3769 17.9525Z" fill="#515151"/>
<path d="M15.6937 18.7816C15.6937 18.7816 15.6937 18.7967 15.6786 18.7967H15.543C15.543 18.7967 15.5278 18.7967 15.5278 18.7816V17.9525C15.5278 17.9525 15.5278 17.9374 15.543 17.9374H15.6786C15.6786 17.9374 15.6937 17.9374 15.6937 17.9525V18.7816Z" fill="#515151"/>
<path d="M21.3308 13.8662C21.3308 13.8662 21.2403 13.7456 21.1951 13.6852C21.1499 13.64 21.0745 13.5947 20.9991 13.5797C20.9388 13.5646 20.8634 13.5495 20.8032 13.5495C20.7579 13.5495 20.7127 13.6099 20.6826 13.6551C20.6826 13.6551 20.6072 13.7456 20.6523 13.7456C20.8032 13.7456 20.9388 13.7757 21.0745 13.8058C21.1499 13.8209 21.2252 13.8511 21.2856 13.8963C21.3157 13.9113 21.3458 13.9415 21.3609 13.9868C21.3609 14.0018 21.3761 14.0169 21.3911 14.047C21.3911 14.047 21.3911 14.0771 21.4062 14.0923C21.4363 14.0923 21.4062 14.0018 21.4062 14.0018C21.3911 13.9565 21.3609 13.9113 21.3458 13.8662H21.3308Z" fill="#515151"/>
<path d="M21.044 15.6601L20.7275 15.7053C20.7275 15.7053 20.637 15.7506 20.6219 15.7807L20.5616 15.9164C20.5616 15.9164 20.5616 15.9767 20.6069 15.9767C20.6521 15.9767 20.7123 15.9465 20.7576 15.9767C20.8028 16.0069 20.8481 16.0671 20.8481 16.1124C20.8481 16.1727 20.8481 16.233 20.8631 16.3083C20.8631 16.3988 20.8782 16.4893 20.8933 16.5798C20.8933 16.6551 20.9385 16.7154 20.9385 16.8059C20.9385 16.8662 20.9083 16.821 20.8782 16.8059C20.8481 16.7606 20.8329 16.7305 20.8028 16.6853C20.7576 16.5948 20.6822 16.5043 20.6069 16.4441C20.5164 16.3687 20.4109 16.3235 20.3053 16.3386C20.2903 16.3386 20.2601 16.3386 20.2299 16.3386C20.2148 16.3386 20.1998 16.2933 20.1847 16.2782C20.1847 16.218 20.1395 16.1425 20.1697 16.0823C20.1847 16.0521 20.2148 16.0521 20.2451 16.0521C20.2903 16.0521 20.3354 16.0069 20.3505 15.9767L20.4109 15.8411C20.4109 15.8411 20.4109 15.7807 20.3657 15.7807L19.7777 15.8561C19.7777 15.8561 19.6873 15.9013 19.6722 15.9315L19.6118 16.0671C19.6118 16.0671 19.6118 16.1275 19.6571 16.1275C19.6873 16.1275 19.7174 16.1275 19.7627 16.1275C19.838 16.1275 19.8833 16.1275 19.9435 16.1877C19.9586 16.2029 19.9887 16.233 20.0039 16.2481C20.0189 16.2631 20.1093 16.3386 20.0792 16.3687C20.0792 16.3687 20.034 16.3837 20.0189 16.3988C19.9736 16.4289 19.9134 16.4592 19.8681 16.5043C19.7928 16.5798 19.7475 16.6701 19.7475 16.7757C19.7475 16.836 19.7627 16.9113 19.8079 16.9717C19.853 17.0471 19.9134 17.1074 20.0039 17.1224C20.0491 17.1224 20.0942 17.1224 20.1395 17.1224C20.1998 17.1224 20.2451 17.0923 20.2903 17.0471C20.3807 16.9566 20.4109 16.8511 20.3958 16.7305C20.3958 16.7004 20.3958 16.6701 20.441 16.6551C20.4711 16.6551 20.5013 16.6551 20.5315 16.6551C20.5917 16.6853 20.6521 16.7154 20.7123 16.7606C20.7877 16.821 20.8329 16.9113 20.9083 16.9717C20.9687 17.0169 20.9988 16.9717 21.0139 16.9113C21.0289 16.8662 21.0289 16.8059 21.0139 16.7606C21.0139 16.6853 20.9988 16.6099 20.9837 16.5495C20.9687 16.4441 20.9535 16.3386 20.9385 16.2481C20.9385 16.2029 20.9385 16.1425 20.9385 16.0974C20.9385 16.0521 20.9385 16.0069 20.9535 15.9767C20.9687 15.9315 21.0139 15.9164 21.0289 15.8863L21.0893 15.7506C21.1044 15.7205 21.0893 15.6903 21.044 15.6903V15.6601ZM20.2903 16.9416C20.2903 16.9416 20.2903 16.9416 20.2903 16.9566C20.2451 17.0018 20.1847 17.0018 20.1245 17.0169C20.0792 17.0169 20.0491 17.0169 20.0189 16.9868C19.9736 16.9416 19.9435 16.8963 19.9285 16.836C19.9285 16.8059 19.9285 16.7907 19.9285 16.7606C19.9285 16.6853 19.9736 16.64 20.0491 16.6099C20.1093 16.5798 20.1697 16.5798 20.2299 16.5948C20.2451 16.5948 20.2752 16.5948 20.2903 16.6249C20.3053 16.6551 20.3053 16.6853 20.3204 16.7154C20.3505 16.7907 20.3657 16.8963 20.3204 16.9566L20.2903 16.9416Z" fill="#515151"/>
<path d="M20.1512 14.2887L19.8195 14.3339C19.8195 14.3339 19.7292 14.3792 19.714 14.4093L19.6537 14.545C19.6537 14.545 19.6537 14.6054 19.6989 14.6054C19.7894 14.6054 19.9251 14.545 19.9552 14.6656C19.9552 14.7109 19.9704 14.7561 19.9854 14.8163C19.9854 14.8616 19.9854 14.9219 20.0005 14.9672C20.0005 15.0727 20.0155 15.1781 20.0306 15.2837C20.0306 15.3139 20.0306 15.3591 20.0457 15.4043C20.0457 15.4345 20.0607 15.4797 20.0457 15.5098C20.0457 15.5852 19.9552 15.4797 19.9251 15.4496C19.8799 15.3892 19.8195 15.329 19.7593 15.2686C19.6989 15.2084 19.6387 15.148 19.5633 15.1179C19.4878 15.0878 19.3975 15.0575 19.3221 15.0727C19.2015 15.0727 19.0809 15.148 18.9904 15.2084C18.9753 15.2234 18.9452 15.2385 18.9301 15.2536C18.9301 15.2536 18.9151 15.2837 18.9 15.2686V15.2385C18.9 15.1933 18.9 15.148 18.9151 15.1028C18.9301 15.0124 18.9603 14.9369 19.0054 14.8616C19.0357 14.8013 19.0959 14.741 19.1563 14.6957C19.2165 14.6506 19.2919 14.6656 19.3522 14.6506C19.3975 14.6506 19.4427 14.6054 19.4577 14.5751L19.5181 14.4395C19.5181 14.4395 19.5181 14.3792 19.4728 14.3792L18.8848 14.4545C18.8848 14.4545 18.7945 14.4998 18.7794 14.5299L18.719 14.6656C18.719 14.6656 18.719 14.726 18.7642 14.726C18.8095 14.726 18.8397 14.726 18.8848 14.7109C18.9301 14.7109 18.9753 14.6807 19.0206 14.7109C19.0809 14.741 18.9753 14.8466 18.9452 14.8767C18.8848 14.9672 18.8397 15.0575 18.8246 15.1631C18.8246 15.2084 18.8095 15.2686 18.7945 15.3139C18.7945 15.344 18.7945 15.3892 18.7945 15.4345C18.8095 15.4646 18.8397 15.4345 18.8547 15.4345C18.8698 15.4195 18.8848 15.3892 18.9 15.3591C18.9452 15.3139 18.9904 15.3139 19.0507 15.2987C19.111 15.2987 19.1713 15.2837 19.2316 15.2987C19.3221 15.2987 19.3975 15.344 19.4878 15.3742C19.5331 15.3742 19.5783 15.4043 19.6387 15.4195C19.6537 15.4195 19.6688 15.4195 19.6989 15.4345C19.7292 15.4496 19.7743 15.4646 19.8045 15.4797C19.8346 15.4948 19.8799 15.5249 19.91 15.5401C19.9401 15.5551 19.9704 15.5852 19.9854 15.6003C20.0457 15.6304 20.091 15.6003 20.0758 15.5249C20.0607 15.3742 20.0607 15.2084 20.0306 15.0727C20.0306 14.9672 20.0005 14.8466 20.0005 14.741C20.0005 14.6807 20.0005 14.6355 20.0306 14.5903C20.0306 14.5751 20.0457 14.545 20.0607 14.5299C20.0607 14.5299 20.091 14.5149 20.091 14.4848L20.1512 14.3491C20.1663 14.3189 20.1512 14.2887 20.106 14.2887H20.1512Z" fill="#515151"/>
<path d="M21.6202 14.1229C21.6202 14.1229 21.6051 14.0928 21.575 14.0928L20.5047 14.2435C20.5047 14.2435 20.4142 14.2887 20.3991 14.319L20.3389 14.4546C20.3389 14.4546 20.3389 14.5149 20.3841 14.5149C20.4292 14.5149 20.4595 14.5149 20.5047 14.4998C20.5498 14.4998 20.5951 14.4697 20.6403 14.4998C20.7007 14.5299 20.5951 14.6355 20.5649 14.6657C20.5047 14.7561 20.4595 14.8466 20.4443 14.9521C20.4443 14.9973 20.4292 15.0576 20.4142 15.1028C20.4142 15.1329 20.4142 15.1782 20.4142 15.2234C20.4292 15.2535 20.4595 15.2234 20.4745 15.2234C20.4896 15.2084 20.5047 15.1782 20.5197 15.1481C20.5649 15.1028 20.6102 15.1028 20.6704 15.0878C20.7308 15.0878 20.791 15.0727 20.8514 15.0878C20.9419 15.0878 21.0172 15.1329 21.1077 15.1632C21.1529 15.1632 21.1981 15.1933 21.2584 15.2084C21.4091 15.2535 21.5297 15.3741 21.6051 15.5099C21.6353 15.5702 21.6956 15.8264 21.7408 15.8264C21.8162 15.8264 21.6202 15.344 21.6051 15.2988C21.5147 15.1329 21.3639 14.9822 21.1831 14.9069C21.1077 14.8767 21.0172 14.8466 20.9419 14.8616C20.8213 14.8616 20.7007 14.937 20.6102 14.9973C20.5951 15.0123 20.5649 15.0275 20.5498 15.0426C20.5498 15.0426 20.5348 15.0727 20.5197 15.0576V15.0275C20.5197 14.9822 20.5197 14.937 20.5348 14.8917C20.5498 14.8014 20.5801 14.726 20.6253 14.6505C20.6554 14.5903 20.7157 14.5299 20.776 14.4847C20.8363 14.4396 21.3941 14.3792 21.4695 14.3641C21.5147 14.3641 21.5599 14.319 21.575 14.2887L21.6353 14.1531C21.6353 14.1531 21.6353 14.138 21.6353 14.1229H21.6202Z" fill="#515151"/>
<path d="M19.6149 17.7101C19.6149 17.7101 19.6602 17.7101 19.6903 17.7101C19.7054 17.7101 19.7355 17.7101 19.7506 17.7251C19.7658 17.7251 19.7808 17.7554 19.7959 17.7704C19.7959 17.7855 19.811 17.8005 19.811 17.8156L19.8411 17.9966C19.8411 17.9966 19.8411 18.0267 19.8411 18.0568C19.8411 18.0719 19.826 18.0869 19.811 18.102C19.811 18.102 19.7808 18.1322 19.7658 18.1322C19.7506 18.1322 19.7205 18.1473 19.7054 18.1473H19.6452L19.6903 18.4487C19.6903 18.4487 19.6903 18.4638 19.6753 18.4638H19.5547H19.5396L19.4341 17.7251C19.4341 17.7251 19.4341 17.7101 19.4491 17.7101L19.6602 17.6799L19.6149 17.7101ZM19.6452 17.8457C19.6452 17.8457 19.6452 17.8457 19.6452 17.8307C19.6452 17.8307 19.63 17.8307 19.6149 17.8307H19.5697L19.5999 18.0568H19.6452C19.6452 18.0568 19.6602 18.0568 19.6602 18.0417C19.6602 18.0417 19.6602 18.0417 19.6602 18.0267L19.63 17.8608L19.6452 17.8457Z" fill="#515151"/>
<path d="M20.3379 18.3741V18.3893H20.2173H20.2023L20.1721 18.2685H20.0817V18.4043C20.0817 18.4043 20.0817 18.4194 20.0666 18.4194H19.946H19.9309V17.6655C19.9309 17.6655 19.9309 17.6505 19.946 17.6505L20.1269 17.6203C20.1269 17.6203 20.142 17.6203 20.1571 17.6203L20.3531 18.344L20.3379 18.3741ZM20.1269 18.1631L20.0666 17.8766V18.1782H20.1269V18.1631Z" fill="#515151"/>
<path d="M20.5622 17.5748C20.5622 17.5748 20.6074 17.5748 20.6375 17.5748C20.6526 17.5748 20.6828 17.5748 20.6979 17.5899C20.7129 17.5899 20.728 17.6201 20.7431 17.6351C20.7431 17.6502 20.7581 17.6653 20.7581 17.6803L20.8185 18.1778C20.8185 18.1778 20.8185 18.2079 20.8185 18.2382C20.8185 18.2532 20.8034 18.2683 20.7884 18.2833C20.7884 18.2833 20.7581 18.3135 20.7431 18.3135C20.728 18.3135 20.6979 18.3285 20.6828 18.3285L20.4717 18.3588H20.4567L20.3511 17.6201C20.3511 17.6201 20.3511 17.6049 20.3662 17.6049L20.5773 17.5748H20.5622ZM20.5923 17.7105C20.5923 17.7105 20.5923 17.7105 20.5923 17.6954C20.5923 17.6954 20.5773 17.6954 20.5622 17.6954H20.5169L20.5923 18.2382H20.6375C20.6375 18.2382 20.6526 18.2382 20.6526 18.2231C20.6526 18.2231 20.6526 18.2231 20.6526 18.2079L20.5923 17.7255V17.7105Z" fill="#515151"/>
<path d="M21.3765 17.485L21.482 18.2237C21.482 18.2237 21.482 18.2388 21.467 18.2388H21.3313C21.3313 18.2388 21.3162 18.2538 21.3162 18.2388L21.2711 17.892L21.2258 18.1936L21.0901 17.9221L21.1353 18.2689C21.1353 18.2689 21.1353 18.2839 21.1202 18.2839H20.9846C20.9846 18.2839 20.9695 18.2991 20.9695 18.2839L20.864 17.5453C20.864 17.5453 20.864 17.5302 20.879 17.5302H20.9996L21.1655 17.9071L21.2258 17.5001H21.3464H21.3614L21.3765 17.485Z" fill="#515151"/>
<path d="M21.9162 18.0575V18.148V18.163L21.6147 18.2082H21.5996L21.4941 17.4696C21.4941 17.4696 21.4941 17.4545 21.5091 17.4545L21.8107 17.4092H21.8257V17.4997V17.5147H21.675L21.6901 17.6957H21.8257C21.8257 17.6957 21.8408 17.6806 21.8408 17.6957V17.7862V17.8012H21.7051L21.7353 18.0424H21.8861C21.8861 18.0424 21.9011 18.0274 21.9011 18.0424L21.9162 18.0575Z" fill="#515151"/>
<path d="M24.843 12.3295C24.7677 12.3295 24.6923 12.3746 24.632 12.4199C24.6018 12.4501 24.5717 12.4952 24.5415 12.5405C24.4964 12.6158 24.4661 12.7214 24.5415 12.7817C24.5867 12.8269 24.6772 12.8119 24.7376 12.7817C24.8129 12.7667 24.8883 12.7063 24.9335 12.6461C24.9788 12.5857 25.039 12.4952 25.0089 12.4199C24.9938 12.3445 24.9034 12.3144 24.8279 12.3144L24.843 12.3295ZM24.9485 12.5707C24.9485 12.5707 24.8883 12.6461 24.843 12.6611C24.7978 12.6611 24.7376 12.6762 24.6923 12.6762C24.6471 12.6762 24.6018 12.6762 24.5717 12.6158C24.5717 12.5857 24.5717 12.5405 24.6018 12.5104C24.6471 12.4651 24.7073 12.435 24.7827 12.435C24.843 12.435 24.9034 12.4651 24.9335 12.5104C24.9335 12.5255 24.9485 12.5556 24.9485 12.5707Z" fill="#515151"/>
<path d="M25.1569 12.5103C25.1418 12.5103 25.1418 12.5404 25.1418 12.5556C25.1418 12.6008 25.1268 12.646 25.0363 12.7365C24.976 12.8119 24.8705 12.8571 24.78 12.8721C24.6293 12.9024 24.4936 12.8721 24.4333 12.842C24.4032 12.8269 24.373 12.7968 24.358 12.7818C24.358 12.7818 24.3277 12.7515 24.3277 12.7365C24.3277 12.7365 24.3277 12.7063 24.2976 12.7063C24.2976 12.7063 24.3127 12.7666 24.3277 12.7818C24.3277 12.8119 24.358 12.8269 24.373 12.8571C24.4032 12.9024 24.4483 12.9325 24.4936 12.9626C24.584 13.0078 24.7046 13.038 24.8102 13.0078C24.9458 12.9626 25.0212 12.9024 25.0966 12.8119C25.1569 12.7214 25.172 12.6159 25.172 12.5707V12.5254L25.1569 12.5103Z" fill="#515151"/>
<path d="M26.1864 13.9716C26.1864 13.8811 26.1411 13.7906 26.096 13.7001C26.0809 13.67 26.0357 13.6248 26.0055 13.5947C25.9754 13.5795 25.9452 13.5494 25.8999 13.5344C25.7492 13.4892 25.5834 13.5494 25.4628 13.655C25.4175 13.7002 25.3874 13.7756 25.3272 13.7906C25.2668 13.7906 25.2066 13.7454 25.1462 13.7304C25.0557 13.7001 24.9804 13.7001 24.8899 13.7304C24.7693 13.7605 24.6638 13.8359 24.5733 13.9264C24.5583 13.9414 24.5281 13.9716 24.5131 13.9866C24.5131 13.9866 24.5131 14.0318 24.4829 14.0168C24.4829 14.0168 24.4829 13.9866 24.4829 13.9716C24.4829 13.9263 24.4829 13.8811 24.4829 13.8359C24.4829 13.7454 24.498 13.655 24.5281 13.5795C24.5583 13.5042 24.5885 13.4288 24.6487 13.3836C24.7091 13.3384 25.2668 13.1725 25.3422 13.1575C25.3874 13.1575 25.4175 13.0971 25.4327 13.067L25.4628 12.9163V12.8862C25.4628 12.8711 25.4327 12.856 25.4025 12.8711L24.3171 13.2027C24.3171 13.2027 24.2417 13.263 24.2267 13.2931L24.1965 13.4439C24.1965 13.4439 24.1965 13.5042 24.2568 13.4892C24.302 13.4892 24.3321 13.4589 24.3774 13.4589C24.4226 13.4589 24.4679 13.4137 24.5131 13.4288C24.5885 13.4288 24.4829 13.5796 24.4679 13.6248C24.4226 13.7304 24.3925 13.8359 24.3925 13.9414C24.3925 13.9866 24.3925 14.0469 24.3925 14.1072C24.3925 14.1524 24.3925 14.1977 24.4226 14.2278C24.4527 14.258 24.4679 14.2278 24.4829 14.2128C24.4829 14.1826 24.5131 14.1524 24.5281 14.1374C24.5583 14.0922 24.6186 14.062 24.6638 14.047C24.7543 14.0017 24.8749 13.9866 24.9804 13.9716C25.0407 13.9716 25.1161 13.9716 25.1763 13.9716C25.2066 13.9716 25.2367 13.9716 25.2668 13.9716C25.3272 13.9716 25.3874 14.0017 25.4478 14.047C25.4929 14.0771 25.5231 14.1072 25.5533 14.1524C25.5533 14.1524 25.5684 14.2278 25.5834 14.2278C25.6136 14.2278 25.5985 14.1374 25.5834 14.1223C25.5834 14.0922 25.5533 14.062 25.5381 14.0318C25.508 13.9716 25.4628 13.9263 25.4175 13.8811C25.3874 13.851 25.3723 13.7906 25.4327 13.7756C25.4929 13.7454 25.5533 13.7304 25.6136 13.7304C25.6739 13.7304 25.7492 13.7454 25.8096 13.7756C25.8849 13.8208 25.9452 13.8962 25.9904 13.9565C26.096 14.0922 26.096 14.2882 26.0357 14.4389C26.0055 14.5142 25.9603 14.5896 25.9151 14.65C25.8849 14.6801 25.8548 14.7253 25.8246 14.7554C25.7945 14.7857 25.7492 14.8308 25.689 14.8308C25.6437 14.8308 25.5985 14.8007 25.5533 14.8007C25.4779 14.8007 25.4025 14.8007 25.3422 14.8158C25.1763 14.876 25.0407 15.0118 24.9654 15.1625C24.9351 15.2228 24.9201 15.2831 24.9654 15.3434C24.9955 15.3736 25.0407 15.4037 25.086 15.3735C25.101 15.3735 25.1763 15.3133 25.1311 15.2982C25.101 15.2982 25.101 15.3283 25.0557 15.2982C25.0256 15.2982 25.0256 15.2228 25.0105 15.2077C25.0105 15.1172 25.0407 15.057 25.1161 15.0269C25.1613 14.9966 25.2216 14.9816 25.2819 14.9816C25.3874 14.9816 25.508 15.0117 25.5684 15.1022C25.5985 15.1475 25.5985 15.2077 25.5834 15.253C25.5834 15.2831 25.5231 15.3434 25.5381 15.3887C25.5834 15.3887 25.6286 15.3133 25.6587 15.2831C25.7191 15.2378 25.8096 15.2378 25.8849 15.2378C25.9452 15.2378 26.0055 15.2831 26.0357 15.3283C26.0508 15.3584 26.0658 15.3887 26.0658 15.4188C26.0658 15.464 26.0658 15.464 26.0357 15.4941C26.0357 15.4941 25.9904 15.5394 26.0055 15.5545C26.0055 15.5846 26.0658 15.5545 26.0809 15.5545C26.111 15.5545 26.1563 15.5545 26.2015 15.5545C26.2619 15.5545 26.3221 15.5996 26.3673 15.66C26.4126 15.7204 26.3975 15.7957 26.3372 15.856C26.2769 15.9163 26.2015 15.9163 26.1261 15.9313C26.0508 15.9313 25.9754 15.9313 25.9151 15.9313C25.8397 15.9313 25.7643 15.9313 25.704 15.9163C25.5834 15.8861 25.4628 15.841 25.3422 15.8107C25.2517 15.7806 25.1462 15.7505 25.0557 15.7354C24.9804 15.7204 24.905 15.7052 24.8297 15.7354C24.8145 15.7354 24.7543 15.7353 24.7392 15.7655C24.7392 15.7957 24.7844 15.7806 24.7995 15.7806C24.8297 15.7806 24.8447 15.7806 24.8749 15.7806C24.9201 15.7806 24.9804 15.7957 25.0256 15.8258C25.1161 15.856 25.2066 15.9012 25.2969 15.9464C25.3573 15.9766 25.4025 16.0067 25.4628 16.0369C25.5381 16.067 25.5985 16.1123 25.689 16.1424C25.8698 16.1725 26.0809 16.1424 26.2316 16.0369C26.307 15.9917 26.3673 15.9313 26.4126 15.841C26.4578 15.7655 26.5031 15.6751 26.4879 15.5846C26.4728 15.4942 26.3975 15.4339 26.3221 15.4339C26.292 15.4339 26.2617 15.4339 26.2467 15.4339C26.2467 15.4339 26.2015 15.464 26.1864 15.464C26.1563 15.464 26.1864 15.4188 26.1864 15.4037C26.1864 15.3736 26.1864 15.3283 26.1864 15.2982C26.1864 15.2228 26.1261 15.1776 26.0508 15.1625C25.9904 15.1475 25.9302 15.1625 25.8698 15.1625C25.8548 15.1625 25.7643 15.2378 25.7492 15.2077C25.7492 15.1927 25.7492 15.1776 25.7643 15.1625C25.7793 15.1172 25.7945 15.057 25.7643 15.0118C25.7492 14.9213 25.7643 14.876 25.8397 14.8158C25.9151 14.7404 25.9904 14.6499 26.0508 14.5445C26.1411 14.3786 26.2166 14.1977 26.1864 14.0017V13.9716Z" fill="#515151"/>
<path d="M25.566 16.4893L25.7922 17.228V17.243L25.6716 17.2732C25.6716 17.2732 25.6565 17.2732 25.6414 17.2732L25.5509 16.9567L25.4605 16.9868L25.5509 17.3033V17.3185L25.4303 17.3486C25.4303 17.3486 25.4153 17.3486 25.4002 17.3486L25.1741 16.6099V16.5949L25.2947 16.5646C25.2947 16.5646 25.3097 16.5646 25.3248 16.5646L25.4153 16.8662L25.5058 16.8361L25.4153 16.5345V16.5194L25.5359 16.4893C25.5359 16.4893 25.5509 16.4893 25.566 16.4893Z" fill="#515151"/>
<path d="M26.0792 16.3387L26.2753 16.9719C26.2753 16.9719 26.2753 17.0171 26.2753 17.0322C26.2753 17.0473 26.2753 17.0775 26.245 17.0925C26.245 17.1076 26.2149 17.1227 26.1998 17.1377C26.1848 17.1377 26.1545 17.1679 26.1395 17.1679H26.0943C26.0943 17.1679 26.0491 17.1981 26.0189 17.1981C25.9888 17.1981 25.9737 17.1981 25.9586 17.1981C25.9436 17.1981 25.9285 17.1829 25.9133 17.1679C25.9133 17.1679 25.8832 17.1377 25.8832 17.1227L25.6873 16.4895V16.4745L25.8079 16.4442C25.8079 16.4442 25.823 16.4442 25.838 16.4442L26.0339 17.0623C26.0339 17.0623 26.0339 17.0623 26.0491 17.0775C26.0491 17.0775 26.0642 17.0775 26.0792 17.0775C26.0792 17.0775 26.0943 17.0775 26.0943 17.0623C26.0943 17.0623 26.0943 17.0623 26.0943 17.0472L25.8983 16.4292V16.4141L26.0189 16.384C26.0189 16.384 26.0339 16.384 26.0491 16.384L26.0792 16.3387Z" fill="#515151"/>
<path d="M26.7286 16.1428L26.9548 16.8814V16.8965L26.8191 16.9418C26.8191 16.9418 26.8039 16.9418 26.7889 16.9418L26.6833 16.5951V16.9117L26.5025 16.6553L26.608 17.002V17.0171L26.4724 17.0624C26.4724 17.0624 26.4573 17.0624 26.4421 17.0624L26.2161 16.3237V16.3087L26.3367 16.2784C26.3367 16.2784 26.3367 16.2784 26.3518 16.2784L26.5779 16.6402V16.2182L26.6985 16.1881C26.6985 16.1881 26.7136 16.1881 26.7286 16.1881V16.1428Z" fill="#515151"/>
</svg>
