<svg width="30" height="30" viewBox="0 0 30 30" fill="none" xmlns="http://www.w3.org/2000/svg">
<path d="M1.75464 29.8681C1.39464 29.7241 1.23864 29.4601 1.25064 29.0281C1.25064 28.8241 1.25064 28.6201 1.25064 28.4161C1.25064 28.2121 1.25064 28.0921 1.25064 27.9721C1.25064 27.4921 1.49064 27.2641 1.97064 27.2521H2.83464L2.78664 26.1361C2.78664 25.5001 2.99064 25.3081 3.61464 25.3081H5.19864L5.31864 25.2721L5.39064 25.1041C5.39064 25.0321 5.39064 24.9481 5.39064 24.8761V23.6281C5.39064 22.5121 5.39064 21.4081 5.39064 20.2921C5.39064 20.1721 5.45064 20.0281 5.51064 19.9081C5.54664 19.8361 5.57064 19.7641 5.59464 19.6921C5.64264 19.5601 5.66664 19.5001 5.66664 19.4161C5.66664 16.6321 5.66664 13.8601 5.66664 11.0761C5.66664 10.9561 5.61864 10.8121 5.54664 10.7041C4.69464 9.36012 4.03464 8.32812 3.41064 7.38012C3.32664 7.26012 3.15864 7.16412 3.00264 7.15212C2.35464 7.11612 2.17464 6.93612 2.17464 6.30012V5.42412C2.17464 4.87212 2.40264 4.65612 2.94264 4.64412H3.47064L3.33864 4.36812L3.29064 4.16412L2.39064 0.912118C2.29464 0.600118 2.33064 0.420118 2.51064 0.264118C2.60664 0.180118 2.71464 0.132118 2.83464 0.132118C2.93064 0.132118 3.03864 0.156118 3.15864 0.216118C3.49464 0.360118 3.81864 0.504118 4.15464 0.648118C4.61064 0.852118 4.99464 1.02012 5.37864 1.18812C6.09864 1.52412 6.67464 2.02812 7.08264 2.68812C7.31064 3.04812 7.58664 3.21612 7.97064 3.21612C8.17464 3.21612 8.27064 3.20412 8.37864 3.20412H8.84664C9.20664 3.20412 9.45864 3.04812 9.61464 2.73612L9.79464 2.38812C9.87864 2.23212 9.96264 2.07612 10.0346 1.93212C10.1546 1.70412 10.3106 1.58412 10.5266 1.58412C10.7546 1.58412 10.8986 1.69212 11.0186 1.92012C11.0906 2.06412 11.1626 2.22012 11.2466 2.36412L11.4506 2.74812C11.6426 3.10812 11.9666 3.18012 12.1947 3.20412C12.2667 3.20412 12.3387 3.20412 12.4107 3.20412C12.9267 3.20412 13.2867 2.95212 13.5267 2.42412C13.7067 2.02812 13.9227 1.63212 14.1387 1.24812C14.2707 1.00812 14.3907 0.792118 14.5107 0.576118C14.6427 0.324118 14.7987 0.216118 15.0027 0.216118C15.2307 0.216118 15.3867 0.324118 15.5187 0.588118L15.9627 1.41612C16.1907 1.83612 16.4187 2.24412 16.6227 2.67612C16.8747 3.16812 17.2827 3.20412 17.6907 3.20412C18.1347 3.20412 18.4227 3.02412 18.6027 2.66412C18.7107 2.43612 18.8307 2.19612 18.9987 1.89612C19.1067 1.69212 19.2867 1.58412 19.4667 1.58412C19.6467 1.58412 19.8147 1.69212 19.9347 1.89612C20.0787 2.14812 20.2107 2.41212 20.3547 2.70012C20.5347 3.06012 20.7987 3.21612 21.1467 3.21612H22.0947C22.4187 3.21612 22.6707 3.08412 22.8267 2.83212C23.3307 1.98012 24.0867 1.36812 25.1307 0.960118C25.6107 0.768118 26.0907 0.552118 26.5587 0.336118L26.8707 0.192118C26.9787 0.144118 27.0747 0.120117 27.1587 0.120117C27.2787 0.120117 27.3867 0.168118 27.4947 0.252118C27.6627 0.396118 27.6987 0.588118 27.6267 0.840118L26.6307 4.32012L26.5587 4.44012H26.6067L26.5587 4.70412L26.8587 4.64412H27.1467C27.5667 4.68012 27.7827 4.89612 27.8067 5.31612C27.8067 5.67612 27.8187 6.04812 27.8067 6.44412C27.7947 6.91212 27.5667 7.14012 27.0987 7.14012C26.8227 7.14012 26.6427 7.23612 26.4987 7.47612C26.1987 7.95612 24.4587 10.6801 24.4587 10.6801C24.3747 10.8121 24.3267 10.9801 24.3267 11.1361C24.3267 13.8721 24.3267 16.6201 24.3267 19.3561C24.3267 19.4521 24.3627 19.5481 24.3987 19.6201L24.4467 19.7521L24.4947 19.9081C24.5547 20.0641 24.5907 20.1841 24.5907 20.3041C24.5907 21.3361 24.5907 22.3801 24.5907 23.4121V25.3681L26.3547 25.3201H26.5227C26.9667 25.3321 27.1947 25.5601 27.2067 26.0041C27.2067 26.1241 27.2067 26.2561 27.2067 26.3761V27.3001L27.5547 27.2521H28.0587C28.4907 27.2521 28.7307 27.4921 28.7427 27.9121C28.7427 28.2601 28.7427 28.6201 28.7427 28.9681V29.1961C28.7427 29.5081 28.5867 29.7241 28.2627 29.8561C28.2627 29.8561 28.2627 29.8561 28.2387 29.8561H1.75464V29.8681ZM1.94664 29.2321L28.1067 29.1841L28.0587 27.9121L1.94664 27.9601V29.2321ZM3.48264 27.2881L26.5707 27.2401L26.5227 25.9441L12.2427 25.9921L12.1107 25.9441V25.9921C12.1107 25.9921 12.0026 25.9921 11.9426 25.9921C11.7386 25.9561 11.6306 25.8241 11.6426 25.6441C11.6666 25.4521 11.7626 25.3561 11.9666 25.3441H12.1107H21.3507L21.3027 23.8441C21.3027 22.6561 21.3027 21.4801 21.3027 20.2921C21.3027 20.1721 21.3507 20.0641 21.3867 19.9321L21.4827 19.6561C21.5307 19.5481 21.5667 19.4521 21.5667 19.3561C21.5667 18.6601 21.5667 17.9641 21.5667 17.2561V15.9361C21.5667 15.8281 21.5667 15.7321 21.5907 15.6361C21.6027 15.5761 21.6387 15.4081 21.8907 15.3961C22.1427 15.3961 22.1907 15.5641 22.2027 15.6121C22.2267 15.7081 22.2267 15.8161 22.2387 15.9241V19.6561L23.6547 19.6081L23.6067 7.12812L22.1907 7.17612L22.2387 8.84412V13.5481C22.2387 13.8361 22.1307 13.9801 21.9027 13.9921C21.6867 13.9921 21.5667 13.8481 21.5667 13.5601V11.0161L8.41464 11.0641V11.1841C8.40264 14.0041 8.40264 16.7281 8.40264 19.4641C8.40264 19.5361 8.43864 19.6081 8.46264 19.6561C8.51064 19.7881 8.54664 19.8481 8.57064 19.9201C8.63064 20.0521 8.67864 20.1721 8.67864 20.2801C8.69064 21.4681 8.69064 22.6441 8.67864 23.8321V25.3921L9.13464 25.3441C9.13464 25.3441 9.77064 25.3441 9.91464 25.3441C10.0946 25.3441 10.1906 25.4521 10.2026 25.6441C10.2146 25.8241 10.1306 25.9441 9.95064 25.9921C9.87864 26.0041 9.79464 26.0161 9.71064 26.0161H3.48264V27.3121V27.2881ZM6.08664 25.3561L8.05464 25.3081L8.00664 20.2561L6.08664 20.3041V25.3561ZM21.9747 25.3441L23.9427 25.2961L23.8947 20.2441L21.9747 20.2921V25.3441ZM6.37464 19.6441L7.76664 19.5961L7.71864 7.12812L6.37464 7.17612V19.6561V19.6441ZM8.42664 10.3921L21.6147 10.3441L21.5667 9.55212L8.42664 9.60012V10.3921ZM24.3267 9.79212L25.9587 7.09212L24.3267 7.16412V9.79212ZM5.76264 9.74412L5.67864 7.11612L4.10664 7.16412L5.76264 9.74412ZM8.42664 8.92812L21.6027 8.88012L21.5547 7.11612L8.42664 7.16412V8.92812ZM3.25464 5.32812C3.18264 5.35212 2.90664 5.36412 2.89464 5.54412C2.87064 5.74812 2.87064 5.95212 2.88264 6.15612V6.50412L27.1587 6.45612L27.1107 5.26812L9.91464 5.31612C9.91464 5.31612 9.84264 5.31612 9.80664 5.31612H9.74664C9.74664 5.31612 9.62664 5.31612 9.56664 5.31612C9.39864 5.29212 9.30264 5.19612 9.29064 5.02812C9.27864 4.83612 9.35064 4.72812 9.53064 4.68012C9.61464 4.65612 9.71064 4.65612 9.81864 4.65612H25.0347C25.8147 4.65612 25.8507 4.63212 26.0667 3.87612L26.9307 0.828118L26.7027 1.00812L26.2707 1.20012C25.9587 1.34412 25.6947 1.45212 25.4307 1.56012C24.4947 1.92012 23.8107 2.47212 23.3307 3.26412C23.0787 3.67212 22.6947 3.88812 22.1547 3.90012C21.9747 3.90012 21.7947 3.90012 21.6147 3.90012C21.4347 3.90012 21.2547 3.90012 21.0747 3.90012C20.5107 3.88812 20.1027 3.63612 19.8147 3.15612L19.4067 2.40012L19.2747 2.80812L19.1547 3.04812C18.8547 3.62412 18.3987 3.90012 17.7027 3.91212C16.8267 3.91212 16.3467 3.64812 16.0467 3.07212C15.8067 2.61612 15.5667 2.17212 15.3147 1.71612L15.1947 1.50012C15.1947 1.50012 15.1467 1.41612 15.1107 1.36812L14.9067 1.08012L14.5707 1.86012L13.8987 3.09612C13.6107 3.61212 13.1907 3.87612 12.5907 3.88812H12.3627H12.1347C11.5706 3.86412 11.1626 3.62412 10.8746 3.14412C10.8146 3.03612 10.7546 2.92812 10.6946 2.82012L10.4666 2.40012L10.3466 2.77212C10.2866 2.89212 10.2506 2.95212 10.2266 3.01212C9.92664 3.61212 9.45864 3.90012 8.79864 3.90012H7.92264C7.35864 3.90012 6.93864 3.67212 6.57864 3.18012C6.27864 2.76012 5.99064 2.37612 5.63064 2.16012C5.12664 1.84812 4.57464 1.58412 4.04664 1.33212C3.81864 1.22412 3.19464 0.924118 3.19464 0.924118L3.23064 1.09212C3.19464 1.27212 3.23064 1.38012 3.25464 1.47612L3.92664 3.84012C4.15464 4.63212 4.19064 4.66812 5.01864 4.66812H7.47864C7.76664 4.66812 7.92264 4.78812 7.92264 5.00412C7.92264 5.08812 7.92264 5.32812 7.49064 5.34012C7.25064 5.34012 3.96264 5.18412 3.27864 5.34012L3.25464 5.32812Z" fill="#515151"/>
<path d="M28.6928 29.208V29.04C28.6928 28.68 28.6928 28.296 28.6928 27.924C28.6808 27.528 28.4528 27.324 28.0568 27.312C27.8888 27.312 27.7328 27.312 27.5528 27.312H27.1568V26.388C27.1568 26.268 27.1568 26.136 27.1568 26.016C27.1448 25.596 26.9408 25.392 26.5208 25.38C26.4248 25.38 26.3288 25.38 26.2328 25.38H24.5408V23.76C24.5408 22.608 24.5408 21.456 24.5408 20.304C24.5408 20.184 24.4928 20.064 24.4568 19.932C24.4328 19.872 24.4208 19.824 24.3968 19.764C24.3968 19.728 24.3728 19.692 24.3488 19.644C24.3128 19.56 24.2648 19.464 24.2648 19.356C24.2648 16.62 24.2648 13.872 24.2648 11.136C24.2648 10.968 24.3248 10.788 24.4088 10.656C24.7208 10.164 25.0328 9.67202 25.3448 9.18002C25.7168 8.60402 26.0888 8.02802 26.4488 7.45202C26.6048 7.20002 26.7968 7.09202 27.0848 7.09202C27.5168 7.09202 27.7328 6.88802 27.7448 6.44402C27.7448 6.03602 27.7448 5.66402 27.7448 5.31602C27.7328 4.92002 27.5408 4.72802 27.1328 4.69202C27.0368 4.69202 26.9408 4.69202 26.8448 4.69202H26.5088L26.5568 4.44002C26.5568 4.38002 26.5808 4.34402 26.5808 4.30802L27.5768 0.828021C27.6488 0.588021 27.6128 0.420021 27.4688 0.288021C27.3008 0.144021 27.1328 0.132021 26.8928 0.228021L26.5808 0.372021C26.1128 0.588021 25.6328 0.804021 25.1408 0.996021C24.1088 1.40402 23.3648 2.01602 22.8608 2.85602C22.6928 3.12002 22.4408 3.26402 22.1048 3.26402H22.0928C21.7808 3.26402 21.4688 3.26402 21.1568 3.26402C20.7848 3.26402 20.5088 3.09602 20.3408 2.77202C20.1848 2.47202 20.0408 2.19602 19.8968 1.92002C19.8008 1.74002 19.6448 1.63202 19.4768 1.63202C19.3088 1.63202 19.1528 1.74002 19.0448 1.92002C18.8768 2.22002 18.7448 2.46002 18.6488 2.68802C18.4688 3.07202 18.1688 3.25202 17.7248 3.25202C17.2928 3.25202 16.8488 3.21602 16.5848 2.70002C16.3688 2.28002 16.1408 1.86002 15.9248 1.45202C15.7688 1.17602 15.6248 0.900021 15.4808 0.624021C15.3608 0.384021 15.2168 0.288021 15.0128 0.288021C14.8208 0.288021 14.6888 0.396021 14.5568 0.624021C14.4368 0.840021 14.3168 1.05602 14.1968 1.27202C13.9808 1.65602 13.7528 2.06402 13.5728 2.47202C13.2968 3.08402 12.8648 3.33602 12.1928 3.26402C11.9528 3.24002 11.6048 3.15602 11.4128 2.78402L11.2448 2.46002C11.1608 2.29202 11.0648 2.12402 10.9808 1.95602C10.8728 1.75202 10.7408 1.65602 10.5488 1.64402C10.3568 1.64402 10.2128 1.74002 10.1048 1.95602C10.0328 2.11202 9.94878 2.26802 9.86478 2.42402C9.80478 2.53202 9.74478 2.65202 9.68478 2.76002C9.51678 3.09602 9.24078 3.25202 8.88078 3.25202H8.66478C8.47278 3.25202 8.28078 3.25202 8.08878 3.25202C7.64478 3.28802 7.30878 3.10802 7.05678 2.70002C6.64878 2.04002 6.08478 1.54802 5.37678 1.21202C4.96878 1.03202 4.56078 0.852021 4.15278 0.672021C3.81678 0.528021 3.49278 0.384021 3.15678 0.240021C2.90478 0.120021 2.72478 0.132021 2.55678 0.276021C2.40078 0.420021 2.37678 0.588021 2.46078 0.876021C2.70078 1.71602 2.94078 2.56802 3.19278 3.42002L3.39678 4.14002C3.42078 4.21202 3.43278 4.27202 3.44478 4.34402L3.52878 4.68002H3.19278C3.12078 4.68002 3.06078 4.68002 3.00078 4.68002C2.47278 4.68002 2.28078 4.88402 2.26878 5.41202C2.26878 5.65202 2.26878 5.89202 2.26878 6.14402V6.28802C2.26878 6.90002 2.43678 7.06802 3.04878 7.09202C3.21678 7.09202 3.39678 7.21202 3.49278 7.33202C4.11678 8.28002 4.77678 9.30002 5.62878 10.656C5.70078 10.776 5.74878 10.92 5.74878 11.052C5.74878 13.836 5.74878 16.608 5.74878 19.392C5.74878 19.476 5.72478 19.56 5.68878 19.632V19.68C5.64078 19.752 5.61678 19.824 5.58078 19.896C5.52078 20.028 5.47278 20.148 5.46078 20.268C5.44878 21.384 5.44878 22.488 5.46078 23.604V24.852C5.46078 24.936 5.46078 25.008 5.46078 25.08V25.248L5.35278 25.284C5.29278 25.308 5.25678 25.32 5.22078 25.32C4.69278 25.32 4.16478 25.32 3.63678 25.32C3.03678 25.32 2.85678 25.5 2.85678 26.1V27.264H2.46078C2.30478 27.264 2.14878 27.264 2.00478 27.264C1.56078 27.264 1.34478 27.48 1.33278 27.936C1.33278 28.08 1.33278 28.236 1.33278 28.38C1.33278 28.584 1.33278 28.788 1.33278 28.992C1.32078 29.4 1.45278 29.64 1.78878 29.784H28.2848C28.5848 29.652 28.7288 29.46 28.7288 29.16L28.6928 29.208ZM24.2768 9.79202V7.12802H25.9928L24.2768 9.79202ZM5.72478 9.78002L4.02078 7.12802H5.72478V9.78002ZM2.83278 6.50402V6.15602C2.83278 5.95202 2.83278 5.74802 2.84478 5.54402C2.85678 5.36402 3.14478 5.28002 3.25278 5.28002C4.24878 5.28002 5.23278 5.28002 6.22878 5.28002H7.11678C7.23678 5.28002 7.34478 5.28002 7.46478 5.28002C7.84878 5.28002 7.84878 5.07602 7.84878 4.99202C7.84878 4.92002 7.84878 4.70402 7.45278 4.70402C6.85278 4.70402 6.25278 4.70402 5.64078 4.70402H4.99278C4.15278 4.70402 4.09278 4.65602 3.86478 3.84002L3.19278 1.47602C3.16878 1.36802 3.14478 1.26002 3.16878 1.06802L3.20478 0.876021L3.38478 0.960021C3.60078 1.06802 3.82878 1.17602 4.05678 1.28402C4.58478 1.53602 5.13678 1.80002 5.65278 2.11202C6.02478 2.34002 6.31278 2.73602 6.56478 3.08402L6.61278 3.15602C6.96078 3.63602 7.38078 3.85202 7.92078 3.85202H8.13678C8.35278 3.85202 8.56878 3.85202 8.77278 3.85202H8.80878C9.45678 3.85202 9.90078 3.57602 10.1888 3.00002C10.2248 2.92802 10.2728 2.84402 10.3208 2.76002L10.5248 2.38802L10.7528 2.80802C10.8128 2.92802 10.8728 3.02402 10.9328 3.13202C11.2088 3.60002 11.6048 3.82802 12.1568 3.85202C12.3128 3.85202 12.4568 3.85202 12.6128 3.85202C13.1888 3.84002 13.6088 3.58802 13.8848 3.08402C14.1128 2.67602 14.3288 2.26802 14.5568 1.84802L14.9768 1.06802L15.1688 1.34402C15.1688 1.34402 15.2408 1.44002 15.2648 1.48802L15.3848 1.70402C15.6248 2.14802 15.8768 2.60402 16.1168 3.06002C16.4288 3.64802 16.9088 3.90002 17.7368 3.87602C18.4088 3.86402 18.8528 3.58802 19.1408 3.03602C19.1768 2.96402 19.2248 2.88002 19.2608 2.79602L19.4768 2.38802L19.7048 2.82002C19.7648 2.92802 19.8248 3.03602 19.8848 3.13202C20.1608 3.60002 20.5568 3.84002 21.1088 3.85202C21.4688 3.85202 21.8288 3.85202 22.1768 3.85202C22.6928 3.84002 23.0768 3.63602 23.3048 3.24002C23.7848 2.44802 24.4808 1.88402 25.4288 1.52402C25.7048 1.41602 25.9688 1.29602 26.2568 1.16402C26.3888 1.10402 26.5328 1.04402 26.6888 0.972021L26.9768 0.840021L26.7008 1.82402C26.4968 2.53202 26.3048 3.20402 26.1128 3.88802C25.8968 4.65602 25.8368 4.70402 25.0448 4.70402H9.92478C9.78078 4.70402 9.66078 4.70402 9.55278 4.72802C9.39678 4.76402 9.33678 4.86002 9.34878 5.01602C9.34878 5.17202 9.43278 5.24402 9.58878 5.26802C9.67278 5.26802 9.75678 5.26802 9.84078 5.26802H9.91278H27.1568V6.50402H2.83278ZM21.6008 9.55202V10.392H8.37678V9.55202H21.6008ZM8.37678 8.92802V7.11602H21.6008V8.92802H8.37678ZM8.05278 20.256V25.356H6.03678V20.256H8.05278ZM6.32478 19.644V7.11602H7.76478V19.632H6.32478V19.644ZM3.43278 25.944H5.07678C6.61278 25.944 8.13678 25.944 9.66078 25.944C9.79278 25.944 9.88878 25.944 9.97278 25.92C10.1288 25.884 10.2008 25.788 10.1888 25.632C10.1888 25.464 10.0928 25.38 9.94878 25.38C9.69678 25.38 9.44478 25.38 9.16878 25.38H8.65278V23.82C8.65278 22.632 8.65278 21.456 8.65278 20.268C8.65278 20.16 8.60478 20.052 8.54478 19.92C8.52078 19.86 8.48478 19.788 8.46078 19.728C8.46078 19.704 8.44878 19.68 8.43678 19.668C8.41278 19.608 8.37678 19.536 8.37678 19.452C8.37678 16.728 8.37678 13.992 8.37678 11.268C8.37678 11.232 8.37678 11.196 8.40078 11.16L8.43678 11.004H21.6368V12.648C21.6368 12.948 21.6368 13.248 21.6368 13.548C21.6368 13.92 21.8288 13.932 21.9128 13.932C21.9848 13.932 22.2008 13.932 22.2008 13.536C22.2008 11.964 22.2008 10.404 22.2008 8.83202V7.11602H23.6648V19.644H22.2008V18.348C22.2008 17.532 22.2008 16.728 22.2008 15.912C22.2008 15.792 22.2008 15.696 22.1768 15.612C22.1528 15.528 22.1048 15.42 21.9128 15.432C21.7208 15.432 21.6728 15.552 21.6608 15.636C21.6368 15.72 21.6368 15.816 21.6368 15.924V16.944C21.6368 17.748 21.6368 18.54 21.6368 19.344C21.6368 19.464 21.5888 19.56 21.5528 19.656C21.5408 19.692 21.5168 19.74 21.5048 19.776C21.4928 19.824 21.4688 19.884 21.4448 19.944C21.3968 20.064 21.3608 20.184 21.3608 20.292C21.3608 21.48 21.3608 22.656 21.3608 23.844V25.392H12.2048C12.1328 25.392 12.0608 25.392 11.9888 25.392C11.8088 25.392 11.7248 25.476 11.7128 25.656C11.7008 25.812 11.7968 25.932 11.9768 25.956C12.0488 25.956 12.1328 25.956 12.2048 25.956H12.2768H26.6048V27.3H3.43278V25.956V25.944ZM23.9528 20.256V25.356H21.9368V20.256H23.9528ZM28.1168 29.232H1.89678V27.912H28.1048V29.232H28.1168Z" fill="#515151"/>
</svg>
