<svg width="30" height="32" viewBox="0 0 30 32" fill="none" xmlns="http://www.w3.org/2000/svg">
<path d="M5.81206 1.17553C7.39559 3.40291 8.96171 5.59547 10.5278 7.78805C11.9025 6.41335 13.2773 5.03864 14.652 3.66393C14.8086 3.50732 15.0696 3.50732 15.2262 3.66393C16.6531 5.09084 18.0104 6.46555 19.42 7.85765C21.0731 5.56067 22.674 3.29849 24.3097 1.00151C24.3967 0.879704 24.5707 0.879704 24.6577 1.00151C25.406 2.02819 28.3295 6.11752 29.8434 8.24049C29.9304 8.3623 30 8.53631 30 8.69293C30 15.114 30 27.2254 30 30.3402C30 30.7578 29.6694 31.0885 29.2517 31.0885H0.678654C0.313225 31.0885 0 30.7926 0 30.4098C0 27.4168 0 15.1662 0 8.74513C0 8.58851 0.0348026 8.4145 0.12181 8.29269C1.58352 6.23933 4.29814 2.44582 5.20301 1.19293C5.34222 0.984112 5.65544 0.984112 5.79466 1.19293L5.81206 1.17553ZM5.91647 6.04791C5.70766 5.7695 5.30742 5.7695 5.09861 6.04791C4.22854 7.24861 2.22738 10.0502 1.11369 11.6164C1.02668 11.7382 1.00928 11.9122 1.00928 12.0514C1.00928 17.15 1.00928 26.7904 1.00928 29.418C1.00928 29.7834 1.30511 30.0966 1.68793 30.0966H3.51508C3.51508 29.9748 3.51508 29.8704 3.51508 29.7834C3.51508 28.9133 3.51508 28.0259 3.51508 27.1558C3.51508 26.0073 4.40255 25.1199 5.51624 25.1199C6.62993 25.1199 7.5 26.0073 7.5174 27.1732C7.5174 28.0433 7.5174 28.9307 7.5174 29.8008C7.5174 29.9052 7.5174 30.0096 7.5174 30.0966H9.98839C9.98839 30.0966 9.98839 29.9748 9.98839 29.9226C9.98839 23.9539 9.98839 17.9679 9.98839 11.9992C9.98839 11.86 9.91879 11.7034 9.83178 11.5816C8.7355 10.0328 7.63921 8.50151 6.52552 6.95278C6.3167 6.65696 6.10788 6.37855 5.89907 6.08272L5.91647 6.04791ZM28.2425 30.0792C28.6601 30.0792 28.9907 29.7486 28.9907 29.3309C28.9907 26.6164 28.9907 17.0803 28.9907 11.9992C28.9907 11.8426 28.9211 11.6512 28.8341 11.5294C27.6508 9.85882 25.3364 6.62216 24.6751 5.71729C24.5881 5.59547 24.4141 5.59547 24.3271 5.71729C23.6833 6.62216 21.3689 9.85882 20.1856 11.5294C20.0812 11.6686 20.0116 11.8948 20.0116 12.0688C20.0116 17.9679 20.0116 23.8495 20.0116 29.7486V30.0792H23.5093C23.5093 29.0525 23.5093 28.0607 23.5093 27.0514C23.5093 26.0421 24.3097 25.2069 25.319 25.1025C26.3282 25.0155 27.2506 25.6767 27.4594 26.6686C27.4942 26.8774 27.5116 27.0862 27.5116 27.295C27.5116 28.2173 27.5116 29.1395 27.5116 30.0792H28.2773H28.2425ZM15.2784 8.10128C15.1218 7.94467 14.8608 7.94467 14.7042 8.10128C13.9907 8.79734 12.1462 10.6419 11.1717 11.6164C11.0325 11.7556 10.9803 11.9122 10.9803 12.1036C10.9803 17.9853 10.9803 23.8669 10.9803 29.7486V30.0792H12.4768V25.1199H17.471V30.0792H18.9676C18.9676 29.9922 18.9676 29.9226 18.9676 29.853C18.9676 23.9191 18.9676 17.9853 18.9676 12.0514C18.9676 11.9122 18.898 11.7556 18.7934 11.6512C18.2018 11.0421 17.6102 10.4505 17.0185 9.85882C16.4443 9.28457 15.87 8.71033 15.2784 8.11868V8.10128ZM15.2784 5.12564C15.1218 4.96903 14.8782 4.96903 14.7216 5.12564C14.0081 5.8217 12.1288 7.68364 11.1195 8.71033C11.0673 8.76253 10.9977 8.84954 10.9977 8.91914C10.9977 9.38897 10.9977 9.85882 10.9977 10.4157C12.268 9.14536 13.4861 7.92727 14.739 6.67436C14.8956 6.51775 15.1566 6.51775 15.3132 6.67436C16.5487 7.90987 17.7668 9.12796 19.0024 10.3635C19.0024 9.92842 19.0024 9.51079 19.0024 9.09315C19.0024 8.95394 18.9154 8.76253 18.8282 8.67553C17.8712 7.70104 16.0093 5.8565 15.3132 5.16044L15.2784 5.12564ZM5.89907 4.32518C7.25638 6.22192 8.59628 8.10128 9.91879 9.96322C9.97099 9.7022 9.95359 9.45859 9.98839 9.21496C10.0232 8.90174 9.90139 8.64071 9.72737 8.3797C8.63108 6.84838 6.56032 3.95974 5.79466 2.89826C5.65544 2.68945 5.34222 2.68945 5.20301 2.89826C4.45475 3.95974 2.45359 6.76137 1.35731 8.22309C0.939674 8.77993 0.991879 9.33677 1.00928 10.0154C2.38399 8.08388 3.7239 6.22193 5.08121 4.30778C5.29002 4.02935 5.70766 4.02935 5.89907 4.30778V4.32518ZM24.6577 3.99455C26.102 6.01311 27.5116 7.97947 28.9211 9.96322C28.9907 9.71961 28.9733 9.47599 28.9907 9.24976C29.0255 8.91914 28.9037 8.65813 28.7123 8.3971C27.5464 6.77877 25.3016 3.64652 24.6577 2.74165C24.5707 2.61985 24.3967 2.61985 24.3097 2.74165C23.6659 3.62912 21.4385 6.77877 20.2552 8.3797C19.8724 8.90174 20.0464 9.42379 20.0464 9.96322C21.4559 7.97947 22.8654 6.01311 24.3097 3.99455C24.3967 3.87274 24.5707 3.87274 24.6577 3.99455ZM26.485 30.0792C26.485 29.9922 26.485 29.9052 26.485 29.8182C26.485 28.9481 26.485 28.0781 26.485 27.1906C26.485 26.5294 26.0672 26.0769 25.4756 26.0769C24.9013 26.0769 24.4837 26.5294 24.4837 27.1732C24.4837 28.0607 24.4837 28.9481 24.4837 29.8182C24.4837 29.9052 24.4837 29.9748 24.5011 30.0618H26.485V30.0792ZM6.49072 30.0792C6.49072 29.0699 6.49072 28.1129 6.49072 27.1384C6.49072 26.5294 6.05568 26.0943 5.48143 26.0943C4.90718 26.0943 4.48956 26.5468 4.48956 27.1558C4.48956 28.0607 4.48956 28.9655 4.48956 29.8704C4.48956 29.94 4.48956 30.0096 4.50696 30.0792H6.47332H6.49072ZM13.5035 30.0792H14.4606V26.1117H13.5035V30.0792ZM16.4617 30.0792V26.1117H15.5046V30.0792H16.4617Z" fill="#515151"/>
<path d="M6.97777 14.5911H4.01953V9.61426H6.97777V14.5911ZM5.02882 10.6235V11.5806H5.98589V10.6235H5.02882ZM5.02882 13.5818H6.00329V12.6247H5.02882V13.5818Z" fill="#515151"/>
<path d="M3.4766 16.6268C3.4766 16.3578 3.26236 16.1396 2.99807 16.1396C2.73378 16.1396 2.51953 16.3578 2.51953 16.6268V19.1153C2.51953 19.3843 2.73378 19.6025 2.99807 19.6025C3.26236 19.6025 3.4766 19.3843 3.4766 19.1153V16.6268Z" fill="#515151"/>
<path d="M5.98442 16.6102C5.98442 16.3412 5.77017 16.123 5.50588 16.123C5.24159 16.123 5.02734 16.3412 5.02734 16.6102V19.0987C5.02734 19.3677 5.24159 19.5859 5.50588 19.5859C5.77017 19.5859 5.98442 19.3677 5.98442 19.0987V16.6102Z" fill="#515151"/>
<path d="M3.4766 21.1161C3.4766 20.8471 3.26236 20.6289 2.99807 20.6289C2.73378 20.6289 2.51953 20.8471 2.51953 21.1161V23.6045C2.51953 23.8736 2.73378 24.0917 2.99807 24.0917C3.26236 24.0917 3.4766 23.8736 3.4766 23.6045V21.1161Z" fill="#515151"/>
<path d="M5.98442 21.1161C5.98442 20.8471 5.77017 20.6289 5.50588 20.6289C5.24159 20.6289 5.02734 20.8471 5.02734 21.1161V23.6045C5.02734 23.8736 5.24159 24.0917 5.50588 24.0917C5.77017 24.0917 5.98442 23.8736 5.98442 23.6045V21.1161Z" fill="#515151"/>
<path d="M8.47662 21.1161C8.47662 20.8471 8.26237 20.6289 7.99808 20.6289C7.73379 20.6289 7.51953 20.8471 7.51953 21.1161V23.6045C7.51953 23.8736 7.73379 24.0917 7.99808 24.0917C8.26237 24.0917 8.47662 23.8736 8.47662 23.6045V21.1161Z" fill="#515151"/>
<path d="M8.47662 16.6268C8.47662 16.3578 8.26237 16.1396 7.99808 16.1396C7.73379 16.1396 7.51953 16.3578 7.51953 16.6268V19.1153C7.51953 19.3843 7.73379 19.6025 7.99808 19.6025C8.26237 19.6025 8.47662 19.3843 8.47662 19.1153V16.6268Z" fill="#515151"/>
<path d="M23.0195 9.63184H25.9778V14.5912H23.0195V9.63184ZM24.0113 10.6237V11.5808H24.9685V10.6237H24.0113ZM24.9859 12.6249H24.0113V13.5819H24.9859V12.6249Z" fill="#515151"/>
<path d="M22.4806 16.6102C22.4806 16.3412 22.2662 16.123 22.002 16.123C21.7376 16.123 21.5234 16.3412 21.5234 16.6102V19.0987C21.5234 19.3677 21.7376 19.5859 22.002 19.5859C22.2662 19.5859 22.4806 19.3677 22.4806 19.0987V16.6102Z" fill="#515151"/>
<path d="M24.4845 16.6102C24.4845 16.3412 24.2701 16.123 24.0059 16.123C23.7415 16.123 23.5273 16.3412 23.5273 16.6102V19.0987C23.5273 19.3677 23.7415 19.5859 24.0059 19.5859C24.2701 19.5859 24.4845 19.3677 24.4845 19.0987V16.6102Z" fill="#515151"/>
<path d="M27.4767 16.6268C27.4767 16.3578 27.2625 16.1396 26.9981 16.1396C26.7339 16.1396 26.5195 16.3578 26.5195 16.6268V19.1153C26.5195 19.3843 26.7339 19.6025 26.9981 19.6025C27.2625 19.6025 27.4767 19.3843 27.4767 19.1153V16.6268Z" fill="#515151"/>
<path d="M22.4609 21.1161C22.4609 20.8471 22.2467 20.6289 21.9823 20.6289C21.7181 20.6289 21.5039 20.8471 21.5039 21.1161V23.6045C21.5039 23.8736 21.7181 24.0917 21.9823 24.0917C22.2467 24.0917 22.4609 23.8736 22.4609 23.6045V21.1161Z" fill="#515151"/>
<path d="M24.4648 21.1161C24.4648 20.8471 24.2506 20.6289 23.9863 20.6289C23.722 20.6289 23.5078 20.8471 23.5078 21.1161V23.6045C23.5078 23.8736 23.722 24.0917 23.9863 24.0917C24.2506 24.0917 24.4648 23.8736 24.4648 23.6045V21.1161Z" fill="#515151"/>
<path d="M27.4767 21.1161C27.4767 20.8471 27.2625 20.6289 26.9981 20.6289C26.7339 20.6289 26.5195 20.8471 26.5195 21.1161V23.6045C26.5195 23.8736 26.7339 24.0917 26.9981 24.0917C27.2625 24.0917 27.4767 23.8736 27.4767 23.6045V21.1161Z" fill="#515151"/>
<path d="M22.4609 26.1113C22.4609 25.8422 22.2467 25.624 21.9823 25.624C21.7181 25.624 21.5039 25.8422 21.5039 26.1113V28.0951C21.5039 28.3642 21.7181 28.5823 21.9823 28.5823C22.2467 28.5823 22.4609 28.3642 22.4609 28.0951V26.1113Z" fill="#515151"/>
<path d="M15.0004 14.6093C14.1652 14.6093 13.5039 13.9306 13.5039 13.0954C13.5039 12.2775 14.1826 11.6162 15.0004 11.6162C15.8357 11.6162 16.5143 12.2949 16.4969 13.1302C16.4969 13.948 15.8183 14.6093 15.0004 14.6093ZM15.4877 13.1128C15.4877 12.8517 15.2614 12.6255 15.0004 12.6081C14.722 12.6081 14.4784 12.8343 14.4958 13.1128C14.4958 13.3738 14.7394 13.6 15.0004 13.6C15.2614 13.6 15.4877 13.3738 15.4877 13.0954V13.1128Z" fill="#515151"/>
<path d="M13.4845 21.1161C13.4845 20.8471 13.2701 20.6289 13.0059 20.6289C12.7415 20.6289 12.5273 20.8471 12.5273 21.1161V23.6045C12.5273 23.8736 12.7415 24.0917 13.0059 24.0917C13.2701 24.0917 13.4845 23.8736 13.4845 23.6045V21.1161Z" fill="#515151"/>
<path d="M17.4688 21.1161C17.4688 20.8471 17.2545 20.6289 16.9903 20.6289C16.7259 20.6289 16.5117 20.8471 16.5117 21.1161V23.6045C16.5117 23.8736 16.7259 24.0917 16.9903 24.0917C17.2545 24.0917 17.4688 23.8736 17.4688 23.6045V21.1161Z" fill="#515151"/>
<path d="M17.4688 16.6268C17.4688 16.3578 17.2545 16.1396 16.9903 16.1396C16.7259 16.1396 16.5117 16.3578 16.5117 16.6268V19.1153C16.5117 19.3843 16.7259 19.6025 16.9903 19.6025C17.2545 19.6025 17.4688 19.3843 17.4688 19.1153V16.6268Z" fill="#515151"/>
<path d="M13.4687 16.6268C13.4687 16.3578 13.2545 16.1396 12.9903 16.1396C12.7259 16.1396 12.5117 16.3578 12.5117 16.6268V19.1153C12.5117 19.3843 12.7259 19.6025 12.9903 19.6025C13.2545 19.6025 13.4687 19.3843 13.4687 19.1153V16.6268Z" fill="#515151"/>
</svg>
