<svg width="30" height="30" viewBox="0 0 30 30" fill="none" xmlns="http://www.w3.org/2000/svg">
<path d="M29.0705 29.0052V27.8941C29.0705 27.7089 28.9162 27.5237 28.7619 27.5237H28.1137V12.8015C28.1137 12.2459 27.8051 11.2274 26.7557 11.1966H26.7249C26.4162 11.1966 26.1693 11.2892 25.9841 11.4435V10.2089C25.9841 10.1472 25.9841 10.1163 25.9531 10.0546C25.9223 10.0237 25.552 9.06694 24.6877 8.88174V7.95582C24.6877 7.77064 24.5334 7.58546 24.3791 7.58546C24.2248 7.58546 24.0705 7.73978 24.0705 7.95582V8.88174C23.7927 8.94347 23.5767 9.06694 23.3915 9.22126V8.32619C23.3915 8.14101 23.2372 7.95582 23.0829 7.95582H21.7248V6.25829C21.7248 6.19656 21.7248 6.13484 21.694 6.07311C21.663 6.04224 21.2001 5.11631 20.2125 4.93113V4.00521C20.2125 3.82002 20.0581 3.63484 19.9038 3.63484C19.7495 3.63484 19.5952 3.78916 19.5952 4.00521V4.99286C18.8544 5.11631 18.4223 5.64101 18.2371 5.94965H16.9099V5.17804C16.9099 5.11631 16.9099 5.05458 16.8791 4.99286C16.8483 4.96199 16.3545 4.00521 15.3667 3.82002V2.77064C15.3667 2.58545 15.2124 2.40027 15.0581 2.40027C14.8729 2.40027 14.7495 2.55459 14.7495 2.77064V3.7583C13.6692 3.91262 13.1754 4.93113 13.1754 4.96199C13.0828 5.02372 13.0828 5.08545 13.0828 5.14718V5.91879H11.7865C11.6013 5.64101 11.1384 5.08545 10.4285 4.96199V4.00521C10.4285 3.82002 10.2742 3.63484 10.1199 3.63484C9.96553 3.63484 9.81121 3.78916 9.81121 4.00521V4.99286C8.82356 5.14718 8.36059 6.10397 8.32973 6.13484C8.29886 6.19656 8.29886 6.25829 8.29886 6.32002V8.01755H6.90998C6.7248 8.01755 6.60134 8.17187 6.60134 8.38792V9.28299C6.41615 9.12867 6.2001 9.00521 5.92232 8.94347V8.01755C5.92232 7.83237 5.768 7.64718 5.61368 7.64718C5.4285 7.64718 5.30504 7.8015 5.30504 8.01755V8.94347C4.44084 9.12867 4.03961 10.0546 4.03961 10.1163C4.00874 10.178 4.00874 10.2089 4.00874 10.2706V11.5052C3.82356 11.3509 3.54578 11.2583 3.23714 11.2583C2.18775 11.2892 1.87911 12.3077 1.87911 12.8632V27.5855H1.23097C1.04578 27.5855 0.922324 27.7398 0.922324 27.9558V29.0669H0.860596C0.89146 29.1287 0.922324 29.2212 0.922324 29.283C1.01492 29.4373 1.10751 29.5917 1.16924 29.7768H29.0397C29.0705 29.5917 29.1322 29.4373 29.194 29.2521C29.194 29.1904 29.194 29.0977 29.2248 29.0361L29.0705 29.0052ZM25.9841 12.7707C26.0149 12.5545 26.1384 11.9064 26.7249 11.9064C26.7249 11.9064 26.7249 11.9064 26.7557 11.9064C27.4347 11.9064 27.4965 12.6472 27.4965 12.7707V14.3755C27.2803 14.2212 27.0335 14.1287 26.7249 14.1287C26.4162 14.1287 26.1693 14.2212 25.9841 14.3755V12.7707ZM25.9841 18.5422V15.3633C26.0766 15.2089 26.2927 14.8693 26.7249 14.8693C27.126 14.8693 27.4038 15.2398 27.4965 15.3941V21.4744H25.9841V18.5422ZM25.9841 22.215H27.4965V22.9866H25.9841V22.215ZM25.9841 25.7027V23.6966H27.4965V27.4929H25.9841V25.7027ZM23.3915 10.3015C23.484 10.1163 23.8236 9.59163 24.3791 9.59163C24.9347 9.59163 25.2433 10.1163 25.3359 10.3015V12.7398C25.3359 12.7398 25.3359 12.7707 25.3359 12.8015C25.3359 12.8323 25.3359 12.8323 25.3359 12.8632V13.5731C25.1199 13.3571 24.7804 13.2028 24.3791 13.2028C23.9779 13.2028 23.6383 13.3879 23.3915 13.6039V10.3015ZM23.3915 14.6533C23.484 14.4682 23.8236 13.9126 24.3791 13.9126C24.9347 13.9126 25.2742 14.4373 25.3359 14.6225V15.2089C25.3359 15.2398 25.3359 15.2706 25.3359 15.2706V17.5237C25.089 17.3076 24.7804 17.1533 24.3791 17.1533C23.9779 17.1533 23.6383 17.3386 23.3915 17.5546V14.6533ZM23.3915 18.6348C23.484 18.4497 23.8236 17.8941 24.3791 17.8941C24.9347 17.8941 25.2742 18.4188 25.3359 18.604V21.4434H23.3607C23.3915 21.4744 23.3915 18.6348 23.3915 18.6348ZM23.3915 22.215H25.3668V22.9866H23.3915V22.215ZM23.3915 23.7274H25.3668V24.746C25.1199 24.53 24.8112 24.3756 24.4099 24.3756C24.0088 24.3756 23.6693 24.5608 23.4223 24.7768L23.3915 23.7274ZM23.3915 25.8262C23.484 25.641 23.8236 25.0854 24.3791 25.0854C24.9347 25.0854 25.2742 25.6102 25.3359 25.7953V27.4929H23.3607C23.3915 27.5237 23.3915 25.8262 23.3915 25.8262ZM21.694 8.72743H22.7434V21.4744H21.694V8.72743ZM21.694 22.215H22.7434V22.9866H21.694V22.215ZM21.694 25.7645C21.694 25.7335 21.694 25.7027 21.694 25.6719V23.7274H22.7434V27.5237H21.694V25.7645ZM18.7001 6.41261C18.8236 6.22743 19.1939 5.67188 19.873 5.67188C20.5519 5.67188 20.9532 6.19656 21.0767 6.41261V9.62249C20.7989 9.40645 20.3976 9.1904 19.873 9.1904C19.3482 9.1904 18.9779 9.40645 18.7001 9.62249V6.41261ZM18.7001 10.641C18.8236 10.4558 19.1939 9.90027 19.873 9.90027C20.5828 9.90027 20.9841 10.4558 21.0767 10.641V13.3879C20.7989 13.141 20.3976 12.925 19.873 12.925C19.3482 12.925 18.9779 13.141 18.7001 13.3571V10.641ZM18.7001 14.3755C18.8236 14.1904 19.1939 13.6348 19.873 13.6348C20.5828 13.6348 20.9841 14.1904 21.0767 14.3755V17.5237C20.7989 17.2768 20.3976 17.0608 19.873 17.0608C19.3482 17.0608 18.9779 17.2768 18.7001 17.4929C18.7001 17.5237 18.7001 14.3755 18.7001 14.3755ZM18.7001 18.5114C18.8236 18.3262 19.1939 17.7706 19.873 17.7706C20.5828 17.7706 20.9841 18.3262 21.0767 18.5114V21.4744H18.6693C18.7001 21.4744 18.7001 18.5114 18.7001 18.5114ZM18.7001 22.215H21.1075V22.9866H18.7001V22.215ZM18.7001 23.7274H21.1075V24.8386C20.8297 24.5916 20.4285 24.3756 19.9038 24.3756C19.3792 24.3756 19.0087 24.5916 18.7309 24.8386L18.7001 23.7274ZM18.7001 25.857C18.7927 25.6719 19.1631 25.1163 19.873 25.1163C20.5828 25.1163 20.9532 25.641 21.0767 25.857V27.5237H18.6693C18.7001 27.5237 18.7001 25.857 18.7001 25.857ZM16.8791 6.65952H18.052V21.4744H16.8791V6.65952ZM16.8791 22.215H18.052V22.9866H16.8791V22.215ZM16.8791 23.7274H18.052V27.5237H16.8791V23.7274ZM13.7001 5.27064C13.8235 5.05458 14.2248 4.49903 14.9656 4.49903C15.7063 4.49903 16.1383 5.08545 16.2618 5.30151V8.72743C15.9532 8.44965 15.5211 8.2336 14.9656 8.2336C14.41 8.2336 14.0087 8.44965 13.7001 8.72743V5.27064ZM13.7001 9.71509C13.8235 9.5299 14.2248 8.94347 14.9656 8.94347C15.7063 8.94347 16.1383 9.5299 16.2618 9.74595V12.678C15.9532 12.4002 15.5211 12.1842 14.9656 12.1842C14.41 12.1842 14.0087 12.4002 13.7001 12.678C13.7001 12.6472 13.7001 9.71509 13.7001 9.71509ZM13.7001 13.6657C13.8235 13.4805 14.2248 12.8941 14.9656 12.8941C15.7063 12.8941 16.1383 13.4805 16.2618 13.6966V17.0608C15.9532 16.783 15.5211 16.567 14.9656 16.567C14.41 16.567 14.0087 16.783 13.7001 17.0608C13.7001 16.999 13.7001 13.6657 13.7001 13.6657ZM13.7001 18.0175C13.8235 17.8324 14.2248 17.2459 14.9656 17.2459C15.7063 17.2459 16.1383 17.8324 16.2618 18.0484V21.5052H13.7001C13.7001 21.4744 13.7001 18.0175 13.7001 18.0175ZM13.7001 22.215H16.2618V22.9866H13.7001V22.215ZM13.7001 23.7274H16.2618V24.9311C15.9532 24.6533 15.552 24.4065 14.9656 24.4065C14.3791 24.4065 14.0087 24.6533 13.7001 24.9311V23.7274ZM13.7001 25.9497C13.7001 25.9188 13.731 25.9188 13.731 25.8879C13.731 25.8879 14.1013 25.0854 14.9346 25.0854C15.768 25.0854 16.1693 25.857 16.2001 25.8879C16.2001 25.9188 16.231 25.9188 16.231 25.9497V27.4929H13.7001V25.9497ZM11.91 6.69039H13.0828V21.5052H11.9408V6.69039H11.91ZM11.91 22.215H13.0828V22.9866H11.9408V22.215H11.91ZM11.91 23.7274H13.0828V27.5237H11.9408V23.7274H11.91ZM8.91615 6.41261C9.03961 6.22743 9.40998 5.67188 10.089 5.67188C10.768 5.67188 11.1692 6.19656 11.2927 6.41261V9.62249C11.0149 9.40645 10.6137 9.1904 10.089 9.1904C9.5643 9.1904 9.19393 9.40645 8.91615 9.62249V6.41261ZM8.91615 10.641C9.03961 10.4558 9.40998 9.90027 10.089 9.90027C10.768 9.90027 11.2001 10.4558 11.2927 10.641V13.3879C11.0149 13.141 10.6137 12.925 10.089 12.925C9.5643 12.925 9.19393 13.141 8.91615 13.3571V10.641ZM8.91615 14.3755C9.03961 14.1904 9.40998 13.6348 10.089 13.6348C10.768 13.6348 11.2001 14.1904 11.2927 14.3755V17.5237C11.0149 17.2768 10.6137 17.0608 10.089 17.0608C9.5643 17.0608 9.19393 17.2768 8.91615 17.4929V14.3755ZM8.91615 18.5422C9.03961 18.357 9.40998 17.8015 10.089 17.8015C10.768 17.8015 11.2001 18.357 11.2927 18.5422V21.5052H8.88529C8.91616 21.4744 8.91615 18.5422 8.91615 18.5422ZM8.91615 22.215H11.3236V22.9866H8.91615V22.215ZM8.91615 23.7274H11.3236V24.8386C11.0458 24.5916 10.6446 24.3756 10.1199 24.3756C9.59516 24.3756 9.2248 24.5916 8.94702 24.8076C8.91615 24.8386 8.91615 23.7274 8.91615 23.7274ZM8.91615 25.857C9.00875 25.6719 9.40998 25.1163 10.089 25.1163C10.768 25.1163 11.2001 25.6719 11.2927 25.857V27.5237H8.88529L8.91615 25.857ZM7.21862 8.72743H8.268V21.4744H7.21862C7.21862 21.5052 7.21862 8.72743 7.21862 8.72743ZM7.21862 22.215H8.268V22.9866H7.21862V22.215ZM7.21862 23.7274H8.268V27.5237H7.21862V23.7274ZM4.62602 12.8632C4.62602 12.8632 4.62602 12.8323 4.62602 12.8015C4.62602 12.8015 4.62602 12.7707 4.62602 12.7398V10.3015C4.71862 10.1163 5.02727 9.59163 5.58282 9.59163C6.13837 9.59163 6.47788 10.1163 6.57047 10.3015V13.5731C6.32356 13.3571 5.98405 13.1718 5.58282 13.1718C5.18159 13.1718 4.84208 13.3261 4.62602 13.5423V12.8632ZM4.62602 15.3323C4.62602 15.3015 4.62602 15.2706 4.62602 15.2398V14.6533C4.71862 14.4682 5.02727 13.9434 5.58282 13.9434C6.13837 13.9434 6.47788 14.4682 6.57047 14.6842V17.6163C6.32356 17.4003 5.98405 17.2151 5.58282 17.2151C5.18159 17.2151 4.84208 17.3694 4.62602 17.5854V15.3323ZM4.62602 18.6348C4.71862 18.4497 5.02727 17.9249 5.58282 17.9249C6.13837 17.9249 6.47788 18.4497 6.57047 18.6657V21.5052H4.59516C4.62602 21.5052 4.62602 18.6348 4.62602 18.6348ZM4.62602 22.215H6.60134V22.9866H4.62602V22.215ZM4.62602 23.7274H6.60134V24.7768C6.35442 24.5608 6.01491 24.3756 5.61368 24.3756C5.21245 24.3756 4.87295 24.53 4.65689 24.746V23.7274H4.62602ZM4.62602 25.8262C4.71862 25.641 5.02727 25.1163 5.58282 25.1163C6.13837 25.1163 6.47788 25.641 6.57047 25.857V27.5546H4.59516C4.62602 27.5237 4.62602 25.8262 4.62602 25.8262ZM2.49639 12.8015C2.49639 12.7089 2.52726 11.9373 3.23714 11.9064C3.23714 11.9064 3.23714 11.9064 3.26801 11.9064C3.85442 11.9064 3.97788 12.5545 4.00874 12.7707V14.4064C3.7927 14.2521 3.54578 14.1595 3.23714 14.1595C2.9285 14.1595 2.68158 14.2521 2.49639 14.4064V12.8015ZM2.49639 15.3941C2.58899 15.2398 2.80503 14.8693 3.23714 14.8693C3.66924 14.8693 3.91615 15.2089 4.00874 15.3633V18.5114V21.4744H2.49639V15.3941ZM2.49639 22.215H4.00874V22.9866H2.49639V22.215ZM2.49639 23.7274H4.00874V25.7336V27.5237H2.49639V23.7274ZM28.4532 29.0052H1.53961V28.2336H28.4841V29.0052H28.4532Z" fill="#515151"/>
<path d="M5.6165 18.8816C5.43132 18.8816 5.30786 19.0359 5.30786 19.2519V20.4248C5.30786 20.61 5.46218 20.7951 5.6165 20.7951C5.80169 20.7951 5.92514 20.6408 5.92514 20.4248V19.2519C5.92514 19.0668 5.80169 18.8816 5.6165 18.8816Z" fill="#515151"/>
<path d="M3.23871 15.3935C3.08439 15.3935 2.96094 15.5478 2.96094 15.733V16.5046C2.96094 16.6897 3.08439 16.8441 3.23871 16.8441C3.39303 16.8441 3.51649 16.6897 3.51649 16.5046V15.733C3.54735 15.5478 3.39303 15.3935 3.23871 15.3935Z" fill="#515151"/>
<path d="M3.23871 12.4003C3.08439 12.4003 2.96094 12.5546 2.96094 12.7397V13.5113C2.96094 13.6965 3.08439 13.8508 3.23871 13.8508C3.39303 13.8508 3.51649 13.6965 3.51649 13.5113V12.7397C3.54735 12.5236 3.39303 12.4003 3.23871 12.4003Z" fill="#515151"/>
<path d="M26.7269 15.3319C26.5725 15.3319 26.4182 15.4862 26.4182 15.6715V16.4739C26.4182 16.6591 26.5417 16.8134 26.7269 16.8134C26.8812 16.8134 27.0355 16.6591 27.0355 16.4739V15.6715C27.0355 15.4862 26.912 15.3319 26.7269 15.3319Z" fill="#515151"/>
<path d="M26.7272 12.4003C26.6038 12.4003 26.5112 12.5236 26.5112 12.6471V13.2335C26.5112 13.3879 26.6038 13.4805 26.7272 13.4805C26.8507 13.4805 26.9432 13.357 26.9432 13.2335V12.6471C26.9432 12.4928 26.8507 12.4003 26.7272 12.4003Z" fill="#515151"/>
<path d="M5.83255 26.1655C5.70909 26.0421 5.49305 26.0421 5.40045 26.1655C5.36959 26.1964 5.33873 26.2582 5.33873 26.289C5.33873 26.3199 5.30786 26.3817 5.30786 26.4433C5.30786 26.505 5.30786 26.536 5.33873 26.5977C5.36959 26.6593 5.36959 26.6903 5.40045 26.7211C5.46218 26.7828 5.55477 26.8137 5.6165 26.8137C5.67823 26.8137 5.77082 26.7828 5.83255 26.7211C5.86341 26.6903 5.89428 26.6593 5.89428 26.5977C5.92514 26.5668 5.92514 26.505 5.92514 26.4433C5.92514 26.3817 5.92514 26.3507 5.89428 26.289C5.89428 26.2582 5.86341 26.1964 5.83255 26.1655Z" fill="#515151"/>
<path d="M9.9046 26.1658C9.84288 26.2275 9.81201 26.3201 9.81201 26.4126C9.81201 26.5053 9.84288 26.5979 9.9046 26.6596C9.96633 26.7213 10.0281 26.7522 10.1207 26.7522C10.1515 26.7522 10.2132 26.7522 10.2441 26.7213C10.275 26.6904 10.3058 26.6904 10.3367 26.6287C10.3984 26.5669 10.4293 26.4744 10.4293 26.3818C10.4293 26.2893 10.3984 26.1966 10.3367 26.1349C10.2132 26.0423 9.9972 26.0423 9.9046 26.1658Z" fill="#515151"/>
<path d="M14.7521 26.1658C14.6904 26.2275 14.6594 26.3201 14.6594 26.4126C14.6594 26.5053 14.6904 26.5979 14.7521 26.6596C14.8137 26.7213 14.8755 26.7522 14.9681 26.7522C15.0607 26.7522 15.1224 26.7213 15.1842 26.6596C15.215 26.6287 15.2459 26.5979 15.2459 26.5361C15.2767 26.5053 15.2767 26.4436 15.2767 26.3818C15.2767 26.2893 15.2459 26.1966 15.1842 26.1349C15.0915 26.0423 14.8755 26.0423 14.7521 26.1658Z" fill="#515151"/>
<path d="M19.6883 26.1661C19.6267 26.2278 19.5957 26.3205 19.5957 26.413C19.5957 26.5056 19.6267 26.5981 19.6883 26.6599C19.75 26.7216 19.8427 26.7526 19.9043 26.7526C19.9353 26.7526 19.997 26.7526 20.0278 26.7216C20.0587 26.6908 20.0896 26.6908 20.1205 26.6291C20.1513 26.5981 20.1821 26.5673 20.1821 26.5056C20.213 26.4748 20.213 26.413 20.213 26.3513C20.213 26.2587 20.1821 26.1661 20.1205 26.1043C19.997 26.0427 19.781 26.0427 19.6883 26.1661Z" fill="#515151"/>
<path d="M10.1207 18.8816C9.93547 18.8816 9.81201 19.0359 9.81201 19.2519V20.4248C9.81201 20.61 9.96633 20.7951 10.1207 20.7951C10.3058 20.7951 10.4293 20.6408 10.4293 20.4248V19.2519C10.4293 19.0668 10.275 18.8816 10.1207 18.8816Z" fill="#515151"/>
<path d="M14.9961 18.8816C14.811 18.8816 14.6875 19.0359 14.6875 19.2519V20.4248C14.6875 20.61 14.8418 20.7951 14.9961 20.7951C15.1505 20.7951 15.3048 20.6408 15.3048 20.4248V19.2519C15.3048 19.0668 15.1814 18.8816 14.9961 18.8816Z" fill="#515151"/>
<path d="M19.9043 18.8816C19.7192 18.8816 19.5957 19.0359 19.5957 19.2519V20.4248C19.5957 20.61 19.75 20.7951 19.9043 20.7951C20.0587 20.7951 20.213 20.6408 20.213 20.4248V19.2519C20.213 19.0668 20.0587 18.8816 19.9043 18.8816Z" fill="#515151"/>
<path d="M5.6165 14.9007C5.43132 14.9007 5.30786 15.055 5.30786 15.271V16.4439C5.30786 16.6291 5.46218 16.8142 5.6165 16.8142C5.80169 16.8142 5.92514 16.6599 5.92514 16.4439V15.271C5.92514 15.0859 5.80169 14.9007 5.6165 14.9007Z" fill="#515151"/>
<path d="M10.4293 16.0733V14.9004C10.4293 14.7153 10.275 14.5301 10.1207 14.5301C9.93547 14.5301 9.81201 14.6844 9.81201 14.9004V16.0733C9.81201 16.2585 9.96633 16.4437 10.1207 16.4437C10.275 16.4437 10.4293 16.2585 10.4293 16.0733Z" fill="#515151"/>
<path d="M15.3048 15.5179V14.345C15.3048 14.1598 15.1505 13.9747 14.9961 13.9747C14.8418 13.9747 14.6875 14.129 14.6875 14.345V15.5179C14.6875 15.703 14.8418 15.8882 14.9961 15.8882C15.1505 15.8882 15.3048 15.7339 15.3048 15.5179Z" fill="#515151"/>
<path d="M20.213 16.0733V14.9004C20.213 14.7153 20.0587 14.5301 19.9043 14.5301C19.7192 14.5301 19.5957 14.6844 19.5957 14.9004V16.0733C19.5957 16.2585 19.75 16.4437 19.9043 16.4437C20.0587 16.4437 20.213 16.2585 20.213 16.0733Z" fill="#515151"/>
<path d="M5.6165 12.4001C5.80169 12.4001 5.92514 12.2458 5.92514 12.0298V10.8569C5.92514 10.6717 5.77082 10.4865 5.6165 10.4865C5.43132 10.4865 5.30786 10.6408 5.30786 10.8569V12.0298C5.30786 12.2458 5.46218 12.4001 5.6165 12.4001Z" fill="#515151"/>
<path d="M10.1207 10.5784C9.93547 10.5784 9.81201 10.7327 9.81201 10.9488V12.1216C9.81201 12.3069 9.96633 12.492 10.1207 12.492C10.3058 12.492 10.4293 12.3377 10.4293 12.1216V10.9488C10.4293 10.7327 10.275 10.5784 10.1207 10.5784Z" fill="#515151"/>
<path d="M14.9961 9.7453C14.811 9.7453 14.6875 9.89962 14.6875 10.1157V11.2885C14.6875 11.4737 14.8418 11.6589 14.9961 11.6589C15.1505 11.6589 15.3048 11.5046 15.3048 11.2885V10.1157C15.3048 9.89962 15.1814 9.7453 14.9961 9.7453Z" fill="#515151"/>
<path d="M19.9043 10.5784C19.7192 10.5784 19.5957 10.7327 19.5957 10.9488V12.1216C19.5957 12.3069 19.75 12.492 19.9043 12.492C20.0587 12.492 20.213 12.3377 20.213 12.1216V10.9488C20.213 10.7327 20.0587 10.5784 19.9043 10.5784Z" fill="#515151"/>
<path d="M10.1207 8.54281C10.3058 8.54281 10.4293 8.38849 10.4293 8.17244V7.03046C10.4293 6.84528 10.275 6.6601 10.1207 6.6601C9.93547 6.6601 9.81201 6.81442 9.81201 7.03046V8.20331C9.81201 8.38849 9.93547 8.54281 10.1207 8.54281Z" fill="#515151"/>
<path d="M14.9961 7.40021C15.1814 7.40021 15.3048 7.24589 15.3048 7.02984V5.857C15.3048 5.67182 15.1505 5.48663 14.9961 5.48663C14.8418 5.48663 14.6875 5.64095 14.6875 5.857V7.02984C14.6875 7.24589 14.8418 7.40021 14.9961 7.40021Z" fill="#515151"/>
<path d="M19.9043 8.54281C20.0896 8.54281 20.213 8.38849 20.213 8.17244V7.03046C20.213 6.84528 20.0587 6.6601 19.9043 6.6601C19.75 6.6601 19.5957 6.81442 19.5957 7.03046V8.20331C19.5957 8.38849 19.7192 8.54281 19.9043 8.54281Z" fill="#515151"/>
<path d="M24.3799 18.8816C24.1946 18.8816 24.0713 19.0359 24.0713 19.2519V20.4248C24.0713 20.61 24.2256 20.7951 24.3799 20.7951C24.5651 20.7951 24.6886 20.6408 24.6886 20.4248V19.2519C24.6886 19.0668 24.5342 18.8816 24.3799 18.8816Z" fill="#515151"/>
<path d="M24.2564 26.1047C24.2256 26.1356 24.1946 26.1665 24.1638 26.1974C24.1021 26.2591 24.0713 26.3517 24.0713 26.4442C24.0713 26.5369 24.1021 26.6295 24.1638 26.6912C24.1946 26.722 24.2256 26.7528 24.2564 26.7838C24.2873 26.8146 24.349 26.8147 24.3799 26.8147C24.4724 26.8147 24.5342 26.7838 24.5959 26.722C24.6577 26.6603 24.6886 26.5677 24.6886 26.4752C24.6886 26.3825 24.6577 26.2899 24.5959 26.2282C24.5034 26.0739 24.349 26.0431 24.2564 26.1047Z" fill="#515151"/>
<path d="M24.3799 14.9007C24.1946 14.9007 24.0713 15.055 24.0713 15.271V16.4439C24.0713 16.6291 24.2256 16.8142 24.3799 16.8142C24.5651 16.8142 24.6886 16.6599 24.6886 16.4439V15.271C24.6886 15.0859 24.5342 14.9007 24.3799 14.9007Z" fill="#515151"/>
<path d="M24.38 12.4001C24.5652 12.4001 24.6886 12.2458 24.6886 12.0298V10.8569C24.6886 10.6717 24.5343 10.4865 24.38 10.4865C24.1947 10.4865 24.0714 10.6408 24.0714 10.8569V12.0298C24.0404 12.2458 24.1947 12.4001 24.38 12.4001Z" fill="#515151"/>
<path d="M29.753 28.7885H0.246913C0.123457 28.7885 0 29.0046 0 29.2515C0 29.4984 0.123457 29.7144 0.246913 29.7144H29.753C29.8765 29.7144 30 29.4984 30 29.2515C30 29.0046 29.8765 28.7885 29.753 28.7885Z" fill="#515151"/>
</svg>
