<svg width="30" height="30" viewBox="0 0 30 30" fill="none" xmlns="http://www.w3.org/2000/svg">
<path d="M11.0696 10.9803C11.0443 10.9803 11.0191 10.9803 10.9939 10.9709C10.8268 10.9362 10.707 10.788 10.707 10.6146V8.40167C10.707 8.28189 10.7638 8.17155 10.8615 8.10536C10.9592 8.036 11.0822 8.02024 11.1925 8.06122L12.0689 8.37331C12.0846 8.37961 12.1003 8.38592 12.1162 8.39538C12.1855 8.4332 12.2642 8.45211 12.3431 8.45211C12.611 8.45211 12.8317 8.2346 12.8317 7.9635V7.85631C12.8317 7.58836 12.6142 7.3677 12.3431 7.3677C12.2328 7.3677 12.1256 7.40553 12.0404 7.47172C12.0278 7.48118 12.0152 7.49063 11.9995 7.5001L11.2555 7.93513C11.1421 8.00133 11.0034 8.00133 10.8899 7.93513C10.7764 7.86892 10.707 7.74914 10.707 7.61989V6.25175C10.707 5.67487 11.1767 5.20516 11.7536 5.20516H14.1967C14.411 4.98451 14.8902 4.60938 15.6373 4.60938C15.839 4.60938 16.003 4.77329 16.003 4.97505C16.003 5.17679 15.839 5.34073 15.6373 5.34073C14.9942 5.34073 14.6728 5.76629 14.6602 5.78521C14.5908 5.88293 14.4835 5.93651 14.3638 5.93651H11.7568C11.5802 5.93651 11.4384 6.07838 11.4384 6.25491V6.98941L11.6149 6.88538C11.8261 6.72777 12.0815 6.64265 12.3463 6.64265C13.0208 6.64265 13.5662 7.18801 13.5662 7.85947V7.96665C13.5662 8.6381 13.0208 9.18346 12.3494 9.18346C12.1634 9.18346 11.9774 9.13933 11.8104 9.05737L11.4415 8.92497V9.74144C11.5203 9.69415 11.5991 9.65317 11.6685 9.6185C12.0468 9.43565 12.4787 9.33163 12.8507 9.33163H14.3102C14.5435 9.33163 14.7736 9.37576 14.9911 9.46088L15.5238 9.67208C15.7824 9.77296 16.0661 9.77611 16.3246 9.68155L16.5326 9.60589C17.2292 9.35054 17.7337 8.73898 17.8535 8.01079L17.8597 7.96665C17.9449 7.44965 17.8283 6.80973 17.576 6.40307C17.4689 6.23284 17.5225 6.00902 17.6927 5.90185C17.863 5.79466 18.0868 5.84826 18.1939 6.01849C18.5344 6.567 18.6888 7.39607 18.5754 8.08329L18.569 8.12742C18.4051 9.11727 17.7211 9.94634 16.7785 10.2899L16.5704 10.3656C16.1417 10.5232 15.6751 10.5169 15.2527 10.3498L14.72 10.1386C14.5876 10.085 14.4488 10.0598 14.307 10.0598H12.8474C12.3305 10.0598 11.5865 10.3719 11.4069 10.7723C11.347 10.9047 11.2146 10.9866 11.0759 10.9866L11.0696 10.9803Z" fill="#515151"/>
<path d="M17.3247 6.70118C17.1229 6.70118 16.959 6.53726 16.959 6.33551C16.959 6.13375 17.1229 5.96983 17.3247 5.96983C17.5075 5.96983 17.6589 5.82167 17.6589 5.63568C17.6589 5.44969 17.5107 5.30153 17.3247 5.30153C17.3089 5.30153 17.3058 5.30153 17.29 5.30153C17.227 5.30153 16.9621 5.31098 16.8329 5.67982C16.7668 5.86896 16.5556 5.96669 16.3663 5.90049C16.1772 5.83428 16.0795 5.62307 16.1457 5.43394C16.4074 4.69943 17.0315 4.55126 17.3405 4.57333C17.9173 4.58279 18.3839 5.05565 18.3839 5.63568C18.3839 6.21572 17.9079 6.69803 17.3215 6.69803L17.3247 6.70118Z" fill="#515151"/>
<path d="M20.196 18.8986C20.1424 18.8986 20.0888 18.886 20.0384 18.864C19.9123 18.8041 19.8303 18.6748 19.8303 18.5329C19.8303 18.5203 19.8177 17.2626 18.853 15.8534C17.6804 14.1417 18.5568 12.8649 19.4866 11.5094C20.1361 10.5606 20.8737 9.48877 21.1574 8.03868C21.1953 7.84008 21.3876 7.71399 21.583 7.75181C21.7816 7.78963 21.9078 7.98193 21.8698 8.17738C21.5578 9.77563 20.776 10.9168 20.0857 11.9224C19.1683 13.259 18.563 14.1417 19.452 15.4405C20.0888 16.3672 20.3568 17.2374 20.4734 17.8173C21.6429 16.7676 22.5981 15.4562 21.7879 13.4797C21.7249 13.363 21.4286 12.7893 21.1669 11.9003C21.1101 11.708 21.2205 11.5063 21.4128 11.4496C21.6051 11.3928 21.8068 11.5031 21.8636 11.6954C22.1284 12.5907 22.431 13.1424 22.4342 13.1487C22.4404 13.1613 22.4468 13.1739 22.453 13.1865C22.9575 14.4033 22.9322 15.5602 22.3806 16.6226C21.9109 17.5273 21.126 18.243 20.4198 18.8198C20.3536 18.8734 20.2717 18.9018 20.1897 18.9018L20.196 18.8986Z" fill="#515151"/>
<path d="M21.2953 9.26502C21.2574 9.26502 21.2165 9.25871 21.1787 9.24611C20.9895 9.1799 20.8855 8.975 20.9517 8.7827C21.4845 7.21597 21.393 5.71544 20.6932 4.66255C20.0974 3.76412 19.0666 3.23768 17.7173 3.14311C16.4249 3.05168 15.3594 3.44258 14.5555 4.30633C13.9439 4.96518 13.7106 5.66816 13.7106 5.67446C13.6507 5.86676 13.4459 5.97079 13.2535 5.91089C13.0613 5.85099 12.9573 5.64609 13.0171 5.45379C13.0266 5.41913 13.2882 4.60896 14.0007 3.83347C14.6627 3.11159 15.8543 2.27935 17.7678 2.4149C19.3534 2.5284 20.5734 3.16518 21.2985 4.25905C22.1212 5.49793 22.2442 7.23174 21.6389 9.01598C21.5885 9.16729 21.4467 9.26186 21.2953 9.26186V9.26502Z" fill="#515151"/>
<path d="M16.1366 14.5991C16.1051 14.5991 16.0736 14.596 16.0421 14.5865C15.8466 14.5328 15.7331 14.3342 15.7867 14.1388C15.9538 13.5241 16.269 12.8999 16.7293 12.282C17.571 11.1503 18.173 10.1826 18.5198 9.41024C18.9202 8.51181 18.8981 8.06733 18.8068 7.84982C18.7752 7.77731 18.6838 7.55665 18.1951 7.48729C17.9965 7.45892 17.8578 7.27609 17.8862 7.07433C17.9146 6.87573 18.0974 6.73702 18.2992 6.7654C19.0432 6.87257 19.352 7.26032 19.4813 7.56926C19.8817 8.53388 19.1755 10.2173 17.3156 12.7171C16.9121 13.2593 16.6348 13.8016 16.4929 14.328C16.4488 14.4887 16.3006 14.596 16.143 14.596L16.1366 14.5991Z" fill="#515151"/>
<path d="M17.2615 18.2398C17.167 18.2398 17.0788 18.2051 17.0094 18.139L16.9936 18.1263C16.4041 17.5779 15.9691 16.8717 15.7737 16.1403C15.7233 15.9449 15.8367 15.7463 16.0321 15.6958C16.2276 15.6454 16.4262 15.7589 16.4766 15.9544C16.5933 16.3956 16.8203 16.8275 17.1229 17.2059C17.6841 15.885 18.5225 14.9928 18.5635 14.9488C18.7023 14.8037 18.9323 14.7975 19.0774 14.9361C19.2223 15.0748 19.2287 15.305 19.09 15.4499C19.09 15.4499 18.078 16.5281 17.6021 17.9908C17.5642 18.1106 17.4665 18.202 17.3435 18.2303C17.3152 18.2367 17.2836 18.2398 17.2553 18.2398H17.2615Z" fill="#515151"/>
<path d="M13.8973 13.567C13.8532 13.567 13.8091 13.5576 13.765 13.5418C13.579 13.4693 13.4875 13.2581 13.56 13.069C14.3513 11.0609 16.1576 9.77157 16.2364 9.71798C16.4003 9.60134 16.6273 9.64232 16.744 9.80625C16.8606 9.97017 16.8196 10.1971 16.6556 10.3138C16.6273 10.3327 14.9471 11.5401 14.2378 13.3369C14.181 13.4788 14.0455 13.567 13.9004 13.567H13.8973Z" fill="#515151"/>
<path d="M12.1857 13.6594C12.1857 13.6594 12.1573 13.6594 12.1415 13.6594C11.943 13.6374 11.798 13.4545 11.8232 13.2559C12.1636 10.3841 14.3104 9.41949 14.4018 9.3785C14.5878 9.29969 14.8021 9.38165 14.881 9.56764C14.9598 9.75049 14.8779 9.96484 14.695 10.0468C14.6161 10.0815 12.8351 10.9011 12.5482 13.341C12.5261 13.527 12.3685 13.6626 12.1857 13.6626V13.6594Z" fill="#515151"/>
<path d="M17.142 26.8149C14.9793 26.8149 13.3779 26.175 12.3849 24.9109C11.2942 23.524 11.0263 21.396 11.6252 18.9246C12.1233 16.8756 11.2343 15.1954 10.235 14.3064C9.40912 13.5719 8.46026 13.3039 7.69422 13.5907C7.52715 13.6538 7.34432 13.5876 7.25289 13.4332C7.16463 13.2818 7.19615 13.0864 7.32855 12.973C7.35062 12.954 7.87391 12.5126 8.76288 12.3204C9.5226 12.1565 10.7016 12.1501 12.1076 12.9823C12.363 12.7428 12.8074 12.437 13.3465 12.5537C13.7468 12.6419 14.0589 12.8626 14.2796 13.2094C14.5255 13.0549 14.8596 12.935 15.2253 13.0517C15.6319 13.1842 15.8967 13.4994 15.9692 13.9249C16.234 13.9406 16.6155 13.9848 17.0221 14.0983C18.0435 14.382 18.7434 14.9652 19.0396 15.7848C19.0838 15.9078 19.0586 16.0465 18.9766 16.1442C18.8914 16.2451 18.7591 16.2892 18.633 16.2671C18.6078 16.2608 15.9157 15.7786 14.9793 17.0048C14.4561 17.6888 14.33 18.6944 14.6358 19.7632C14.9826 20.98 15.8368 22.0612 16.7101 22.3922C16.8992 22.4647 16.9938 22.6728 16.9213 22.8619C16.8487 23.051 16.6407 23.1456 16.4515 23.0731C15.3577 22.6602 14.3457 21.4118 13.9328 19.9618C13.5639 18.6692 13.7342 17.4304 14.3994 16.5604C15.2505 15.4507 16.9969 15.3876 18.0056 15.4601C17.205 14.5996 15.654 14.6405 15.6351 14.6437C15.5311 14.6468 15.4302 14.6058 15.3577 14.5333C15.2852 14.4577 15.2505 14.3568 15.2568 14.2528C15.2883 13.8366 15.0708 13.7674 15.0014 13.7453C14.7902 13.6759 14.4876 13.9565 14.4246 14.029C14.3395 14.1266 14.2102 14.1708 14.0841 14.1487C13.958 14.1266 13.8508 14.0352 13.8067 13.9154C13.8036 13.906 13.8004 13.8934 13.7941 13.8808C13.709 13.638 13.5639 13.3448 13.1888 13.2629C12.8294 13.1842 12.4701 13.657 12.4669 13.6633C12.3535 13.8209 12.1359 13.8587 11.972 13.7546C10.9822 13.1053 10.1184 12.935 9.44064 12.9666C9.87882 13.1369 10.3138 13.4047 10.7174 13.761C11.392 14.3599 11.9058 15.1481 12.2053 16.0338C12.5362 17.0142 12.5804 18.0734 12.3314 19.098C11.7829 21.3456 12.0035 23.2528 12.9555 24.4602C13.8036 25.5383 15.2095 26.0837 17.1387 26.0837C18.469 26.0837 19.5314 25.6297 20.288 24.7375C21.8704 22.8745 21.9588 19.3375 21.5552 16.8756C21.5426 16.803 21.5552 16.7274 21.5868 16.658C21.6025 16.6234 23.3079 13.0139 22.8099 8.94416C22.3244 4.96587 20.1115 3.96971 20.0894 3.96026C19.9034 3.88145 19.8183 3.66708 19.9003 3.4811C19.979 3.29511 20.1934 3.20999 20.3794 3.29195C20.4866 3.33924 22.999 4.46778 23.535 8.8559C24.0172 12.7963 22.5892 16.2198 22.2961 16.8692C22.4032 17.566 22.5892 19.1389 22.419 20.8822C22.2362 22.7453 21.7065 24.2017 20.8491 25.2104C19.9443 26.2759 18.6992 26.8149 17.142 26.8149Z" fill="#515151"/>
<path d="M16.9907 20.3768C16.3918 20.3768 15.9062 19.8914 15.9062 19.2925C15.9062 19.0907 16.0702 18.9268 16.272 18.9268C16.4737 18.9268 16.6376 19.0907 16.6376 19.2925C16.6376 19.4942 16.7985 19.6487 16.9938 19.6487C17.1893 19.6487 17.3501 19.4879 17.3501 19.2925C17.3501 19.097 17.514 18.9268 17.7157 18.9268C17.9175 18.9268 18.0814 19.0907 18.0814 19.2925C18.0814 19.8914 17.596 20.3768 16.9971 20.3768H16.9907Z" fill="#515151"/>
<path d="M19.8695 23.0282C19.2706 23.0282 18.7852 22.5428 18.7852 21.9438C18.7852 21.742 18.9491 21.5781 19.1508 21.5781C19.3525 21.5781 19.5164 21.742 19.5164 21.9438C19.5164 22.1456 19.6772 22.3 19.8727 22.3C20.0681 22.3 20.2289 22.1392 20.2289 21.9438C20.2289 21.7484 20.3928 21.5781 20.5946 21.5781C20.7964 21.5781 20.9603 21.742 20.9603 21.9438C20.9603 22.5428 20.4748 23.0282 19.8758 23.0282H19.8695Z" fill="#515151"/>
<path d="M18.8227 23.9139C18.2238 23.9139 17.7383 23.4284 17.7383 22.8295C17.7383 22.6278 17.9022 22.4639 18.1039 22.4639C18.3058 22.4639 18.4664 22.6278 18.4664 22.8295C18.4664 23.0312 18.6272 23.1858 18.8227 23.1858C19.0182 23.1858 19.1789 23.025 19.1789 22.8295C19.1789 22.634 19.3428 22.4639 19.5446 22.4639C19.7464 22.4639 19.9103 22.6278 19.9103 22.8295C19.9103 23.4284 19.4248 23.9139 18.8258 23.9139H18.8227Z" fill="#515151"/>
<path d="M9.13362 8.52019C9.38433 8.52019 9.58757 8.31694 9.58757 8.06624C9.58757 7.81554 9.38433 7.6123 9.13362 7.6123C8.88292 7.6123 8.67969 7.81554 8.67969 8.06624C8.67969 8.31694 8.88292 8.52019 9.13362 8.52019Z" fill="#515151"/>
<path d="M7.73129 10.1637C7.982 10.1637 8.18523 9.9605 8.18523 9.7098C8.18523 9.45909 7.982 9.25586 7.73129 9.25586C7.48059 9.25586 7.27734 9.45909 7.27734 9.7098C7.27734 9.9605 7.48059 10.1637 7.73129 10.1637Z" fill="#515151"/>
<path d="M6.03987 10.9801C6.29058 10.9801 6.49382 10.7769 6.49382 10.5262C6.49382 10.2755 6.29058 10.0723 6.03987 10.0723C5.78917 10.0723 5.58594 10.2755 5.58594 10.5262C5.58594 10.7769 5.78917 10.9801 6.03987 10.9801Z" fill="#515151"/>
<path d="M4.38754 12.2321C4.63825 12.2321 4.84149 12.0288 4.84149 11.7782C4.84149 11.5275 4.63825 11.3242 4.38754 11.3242C4.13684 11.3242 3.93359 11.5275 3.93359 11.7782C3.93359 12.0288 4.13684 12.2321 4.38754 12.2321Z" fill="#515151"/>
<path d="M1.84848 11.5378C2.09918 11.5378 2.30242 11.3345 2.30242 11.0838C2.30242 10.8331 2.09918 10.6299 1.84848 10.6299C1.59778 10.6299 1.39453 10.8331 1.39453 11.0838C1.39453 11.3345 1.59778 11.5378 1.84848 11.5378Z" fill="#515151"/>
<path d="M2.98129 13.9685C3.232 13.9685 3.43523 13.7652 3.43523 13.5145C3.43523 13.2638 3.232 13.0605 2.98129 13.0605C2.73059 13.0605 2.52734 13.2638 2.52734 13.5145C2.52734 13.7652 2.73059 13.9685 2.98129 13.9685Z" fill="#515151"/>
<path d="M7.22737 8.52019C7.47808 8.52019 7.68132 8.31694 7.68132 8.06624C7.68132 7.81554 7.47808 7.6123 7.22737 7.6123C6.97667 7.6123 6.77344 7.81554 6.77344 8.06624C6.77344 8.31694 6.97667 8.52019 7.22737 8.52019Z" fill="#515151"/>
<path d="M5.32503 9.00652C5.57573 9.00652 5.77898 8.80327 5.77898 8.55257C5.77898 8.30187 5.57573 8.09863 5.32503 8.09863C5.07433 8.09863 4.87109 8.30187 4.87109 8.55257C4.87109 8.80327 5.07433 9.00652 5.32503 9.00652Z" fill="#515151"/>
<path d="M3.41879 9.97722C3.6695 9.97722 3.87274 9.77399 3.87274 9.52327C3.87274 9.27257 3.6695 9.06934 3.41879 9.06934C3.16809 9.06934 2.96484 9.27257 2.96484 9.52327C2.96484 9.77399 3.16809 9.97722 3.41879 9.97722Z" fill="#515151"/>
<path d="M14.0938 6.53809H14.8976" stroke="#515151" stroke-width="0.304839" stroke-linecap="round" stroke-linejoin="round"/>
<path d="M2.44922 28.7998H29.6228" stroke="#515151" stroke-width="0.609678" stroke-linecap="round" stroke-linejoin="round"/>
<path d="M21.4414 23.7939C23.3927 24.9003 25.0478 26.5017 26.3055 28.3554" stroke="#515151" stroke-width="0.609678" stroke-linecap="round" stroke-linejoin="round"/>
<path d="M5.76562 28.3551C7.26301 26.161 9.32466 24.3201 11.7677 23.2451" stroke="#515151" stroke-width="0.609678" stroke-linecap="round" stroke-linejoin="round"/>
</svg>
