<svg width="30" height="30" viewBox="0 0 30 30" fill="none" xmlns="http://www.w3.org/2000/svg">
<path d="M26.5928 27.2519C26.0966 27.2519 25.6934 26.7867 25.6934 26.2284C25.6934 24.7396 25.6623 19.9632 25.6934 17.3579C25.6934 16.7066 25.5693 16.1172 25.3211 15.621C24.887 14.7837 24.3286 14.3494 23.5533 14.3184C23.088 14.2874 22.5918 14.2874 22.0646 14.3184C21.9405 14.3184 21.8164 14.3494 21.7234 14.3805C20.7929 14.7526 20.0795 15.8692 20.0795 16.9547C20.0795 18.6605 20.0795 19.7462 20.0795 21.0798V22.9407C20.0795 23.9022 20.0795 24.8327 20.0795 25.7942V26.1974C20.0795 26.7556 19.6763 27.2208 19.1801 27.2208H19.1181C18.8699 27.2208 18.6528 27.1278 18.4667 26.9108C18.3117 26.7246 18.2186 26.4455 18.2186 26.1974V23.499C18.2186 21.6071 18.2186 19.2498 18.2496 17.544C18.2496 16.7376 18.1876 16.1172 17.8774 15.559C17.5983 15.0317 17.3192 14.6596 16.9469 14.5044C15.8924 14.0703 14.9309 14.1012 14.0625 14.5044C13.194 14.9387 12.6978 15.7451 12.6978 16.8306C12.6668 19.6221 12.6668 24.1504 12.6978 26.1353C12.6978 26.4144 12.6047 26.6626 12.4497 26.8797C12.2946 27.0969 12.0465 27.1899 11.7983 27.1899H11.7673C11.5192 27.1899 11.3021 27.0969 11.116 26.8797C10.9609 26.6937 10.8679 26.4144 10.8679 26.1353V22.7236C10.8679 20.9867 10.8679 19.3739 10.8679 17.2649C10.8679 16.7376 10.8369 16.2724 10.6508 15.8692C10.2166 14.9076 9.68929 14.4424 8.9139 14.3494C8.69678 14.3184 8.47968 14.3184 8.23155 14.3184C8.04545 14.3184 7.85936 14.3184 7.70428 14.3184C7.11499 14.2874 6.55671 14.5355 6.12249 15.0008C5.62623 15.528 5.3471 16.3034 5.3471 17.0788C5.3471 19.7151 5.37811 24.4605 5.37811 26.2284C5.37811 26.5076 5.28506 26.7556 5.12998 26.9728C4.97491 27.1589 4.72678 27.2829 4.47866 27.2829H4.44764C3.95139 27.2829 3.54819 26.8176 3.54819 26.2594V23.7782C3.54819 21.2038 3.54819 18.5055 3.51717 15.9002C3.51717 14.7526 3.02092 13.9152 2.12148 13.388C1.7803 13.2018 1.43913 13.1708 1.03592 13.1708H0.818814C0.539673 13.1398 0.167485 13.0157 0.13647 12.4264C0.105454 11.9612 0.105454 11.62 0.291548 11.3719C0.477642 11.1238 0.787799 11.0928 1.15999 11.0928H28.7019C28.8569 11.0928 29.012 11.0928 29.1671 11.0928C29.2601 11.0928 29.4153 11.0928 29.5392 11.1858C29.9115 11.496 29.8804 11.8992 29.8804 12.1784C29.8804 12.2404 29.8804 12.3023 29.8804 12.3334C29.8804 12.7676 29.6944 13.0468 29.3222 13.1398C28.7019 13.2948 28.2056 13.7291 27.8024 14.5044C27.5543 15.0008 27.5232 15.5901 27.4923 16.0242C27.4923 18.7226 27.4923 21.421 27.4923 24.1193V26.1974C27.4923 26.7867 27.0891 27.2519 26.5928 27.2519ZM22.9019 13.512C23.119 13.512 23.3362 13.512 23.5533 13.512C24.5458 13.543 25.3522 14.1012 25.8795 15.1869C26.1896 15.8072 26.3757 16.5515 26.3757 17.327C26.3757 19.9012 26.3757 24.7086 26.3757 26.1974C26.3757 26.3214 26.4687 26.4455 26.5928 26.4455C26.7168 26.4455 26.81 26.3524 26.81 26.1974V24.1193C26.81 21.421 26.81 18.7226 26.81 16.0242C26.81 15.466 26.872 14.7526 27.2132 14.1012C27.7094 13.1398 28.3607 12.5816 29.1671 12.3644C29.1671 12.3023 29.1671 12.2093 29.1671 12.1473C29.1671 11.9922 29.1671 11.9302 29.1671 11.8992C28.981 11.8992 28.8569 11.8992 28.7019 11.8992H28.3917H1.15999C0.973892 11.8992 0.880845 11.8992 0.818814 11.9302C0.818814 11.9922 0.818814 12.1473 0.818814 12.3334V12.3644C0.818814 12.3644 0.818814 12.3644 0.849829 12.3644H1.00491C1.43913 12.3954 1.90436 12.3954 2.40061 12.6746C3.54819 13.3259 4.16851 14.4424 4.16851 15.9002C4.19952 18.5366 4.19952 21.2039 4.19952 23.8091V26.2905C4.19952 26.4144 4.29256 26.5385 4.41663 26.5385H4.44764C4.50968 26.5385 4.54069 26.5076 4.60272 26.4765C4.63374 26.4455 4.66476 26.3835 4.66476 26.3214C4.63374 24.5536 4.63374 19.8082 4.63374 17.1718C4.63374 16.1793 5.00593 15.2178 5.62623 14.5044C6.21554 13.8842 6.95991 13.543 7.7353 13.605C7.89038 13.605 8.07648 13.605 8.23155 13.605C8.47968 13.605 8.7278 13.605 8.97592 13.636C9.96842 13.7291 10.7128 14.3805 11.2401 15.5901C11.5192 16.1793 11.5502 16.7997 11.5502 17.3579C11.5502 19.436 11.5502 21.0798 11.5502 22.8167V26.3214C11.5502 26.3835 11.5812 26.4455 11.6123 26.5076C11.6433 26.5385 11.7053 26.5696 11.7673 26.5696H11.7983C11.8604 26.5696 11.9224 26.5385 11.9534 26.5076C11.9844 26.4765 12.0154 26.4144 12.0154 26.3524C12.0154 24.3364 11.9844 19.8082 12.0154 17.0168C12.0465 15.621 12.6978 14.5044 13.8143 13.9772C14.8379 13.481 15.9855 13.481 17.1951 13.9462C17.7844 14.1944 18.1565 14.7526 18.4977 15.3108C18.9629 16.1172 18.994 16.9857 18.994 17.7302C18.994 19.436 18.994 21.7931 18.994 23.6852V26.3835C18.994 26.4455 19.025 26.5076 19.056 26.5385C19.087 26.5696 19.149 26.6006 19.2111 26.6006H19.2731C19.3972 26.6006 19.4902 26.5076 19.4902 26.3524V25.9492C19.4902 24.9878 19.4902 24.0573 19.4902 23.0958V21.2349C19.4902 19.9012 19.4902 18.7846 19.4902 17.1098C19.4902 15.6521 20.3586 14.2564 21.5993 13.7601C21.7544 13.698 21.9405 13.6671 22.1266 13.6671C22.3437 13.543 22.6228 13.512 22.9019 13.512Z" fill="#515151"/>
<path d="M17.101 9.82211C16.8219 9.82211 16.6048 9.72906 16.4496 9.54296C16.2016 9.23281 16.1705 8.76757 16.1705 8.36437C16.1705 7.93015 16.1705 7.71305 16.1705 7.37188V7.06171V7.03071C15.8914 6.99969 15.5192 6.99969 15.178 7.03071C15.116 7.03071 15.085 7.0307 15.085 7.15476C15.085 7.65101 15.085 7.86812 15.085 8.27132V8.55047C15.085 9.32586 14.8059 9.79109 14.3406 9.79109C10.4947 9.79109 5.59421 9.79109 1.74827 9.79109C1.37608 9.79109 1.15897 9.60499 1.06592 9.41891C0.879828 9.10875 0.848812 8.67453 0.972876 8.17828C1.15897 7.52695 1.28303 7.40288 1.87232 7.37188C2.18249 7.37188 2.46162 7.37188 2.77178 7.37188C2.95788 7.37188 3.17498 7.37188 3.36108 7.37188C3.42311 7.37188 3.45413 7.37188 3.48514 7.37188C3.48514 7.34086 3.48514 7.27883 3.48514 7.21679C3.48514 7.12374 3.48514 7.06171 3.48514 6.96867C3.48514 6.78257 3.48514 6.68953 3.45413 6.62749C3.45413 6.65851 3.39209 6.65851 3.206 6.65851C3.17498 6.65851 3.14396 6.65851 3.08194 6.65851C2.98889 6.65851 2.86483 6.68953 2.74076 6.65851C2.55467 6.62749 2.36857 6.47242 2.27554 6.28632C2.18249 6.00719 2.36857 5.69703 2.52366 5.60398C3.36108 5.07671 4.57069 4.89062 5.31507 4.89062H5.37709C7.92037 4.89062 10.4637 4.89062 13.007 4.89062H16.1396H17.9694C20.4197 4.89062 22.901 4.89062 25.3511 4.89062C25.8164 4.89062 26.1575 4.92163 26.4987 4.95265C27.057 5.01468 27.8635 5.41788 28.1426 5.97617C28.5767 6.81359 28.7319 8.14726 28.7008 9.07774C28.6698 9.54296 28.4528 9.82211 28.0496 9.85312C27.9875 9.85312 27.9255 9.85312 27.8634 9.85312L17.101 9.82211ZM15.6432 6.25531C15.8603 6.25531 16.0775 6.25531 16.2326 6.28632C16.6358 6.31734 16.8839 6.65851 16.8839 7.12374V7.43391C16.8839 7.77508 16.8839 7.96117 16.8839 8.39539C16.8839 8.8296 16.946 8.95367 16.9769 9.0157C17.008 9.04672 17.039 9.04672 17.132 9.04672H27.8944C27.9564 9.04672 27.9875 9.04672 28.0496 9.04672C28.0496 9.04672 28.0496 9.04672 28.0496 9.0157C28.0805 8.2403 27.9564 7.06171 27.5843 6.34836C27.4603 6.06922 26.9019 5.75905 26.4987 5.72804C26.1886 5.69702 25.8784 5.66602 25.4443 5.66602C22.994 5.66602 20.5127 5.66602 18.0625 5.66602H15.5192H13.069C10.5257 5.66602 7.98241 5.66602 5.43912 5.66602C4.94287 5.66602 4.32257 5.75905 3.76428 5.91414C3.85733 5.94515 3.95038 6.00719 4.04342 6.10022C4.26053 6.31734 4.26053 6.65851 4.26053 6.96867C4.26053 7.09273 4.26053 7.18578 4.26053 7.27883C4.22952 7.93015 4.01241 8.2093 3.45413 8.2093C3.26803 8.2093 3.05092 8.2093 2.83381 8.2093C2.55467 8.2093 2.24452 8.2093 1.96537 8.2093C1.90334 8.2093 1.84132 8.2093 1.77928 8.2093C1.74827 8.27132 1.74827 8.33335 1.71725 8.4264C1.65522 8.70554 1.65522 8.92265 1.68623 8.98469C1.71725 9.0157 1.77928 9.04672 1.84132 9.04672C5.68724 9.04672 10.5567 9.04672 14.4027 9.04672C14.4336 8.98469 14.4647 8.8296 14.4647 8.58148V8.30235C14.4647 7.89913 14.4647 7.71305 14.4647 7.21679C14.4647 6.68953 14.7438 6.31734 15.178 6.28632C15.3021 6.28632 15.4882 6.25531 15.6432 6.25531ZM20.9159 8.36437C20.6368 8.36437 20.4197 8.27132 20.2646 8.11625C20.1095 7.96117 20.0475 7.71305 20.0475 7.43391C20.0475 7.12374 20.1405 6.87562 20.2957 6.68953C20.4507 6.50344 20.6678 6.41039 20.9159 6.41039C21.6603 6.41039 21.7534 6.96867 21.7534 7.43391C21.7534 7.65101 21.7533 7.93015 21.5673 8.14726C21.4121 8.30235 21.1641 8.36437 20.9159 8.36437ZM20.7609 7.52695C20.7609 7.52695 20.7918 7.55796 20.9469 7.55796C21.0089 7.55796 21.071 7.55796 21.071 7.55796C21.071 7.52695 21.071 7.49593 21.071 7.40288C21.071 7.24781 21.071 7.18578 21.04 7.15476C21.04 7.15476 20.978 7.15476 20.9159 7.15476C20.885 7.15476 20.8229 7.15476 20.7918 7.21679C20.7609 7.24781 20.7298 7.30984 20.7298 7.40288C20.7298 7.49593 20.7609 7.52695 20.7609 7.52695ZM25.8164 8.36437C25.2581 8.36437 24.9479 7.99218 24.9479 7.34086C24.9479 7.09273 25.041 6.84461 25.1961 6.65851C25.3511 6.47242 25.5993 6.37937 25.8474 6.37937C26.0955 6.37937 26.3127 6.47242 26.4677 6.65851C26.6228 6.84461 26.7159 7.09273 26.6848 7.37188C26.6539 7.99218 26.3436 8.36437 25.8164 8.36437ZM25.7854 7.55796C25.8784 7.55796 25.9095 7.52695 25.9405 7.52695C25.9405 7.52695 25.9715 7.49593 25.9715 7.34086C25.9715 7.30984 25.9715 7.24781 25.9405 7.18578C25.9095 7.15476 25.8784 7.12374 25.7854 7.12374C25.7543 7.12374 25.6923 7.15476 25.6613 7.18578C25.6302 7.21679 25.6302 7.24781 25.6302 7.30984C25.6302 7.46491 25.6613 7.49593 25.6613 7.49593C25.6302 7.52695 25.6923 7.55796 25.7854 7.55796ZM18.5277 8.36437H18.4967C18.2796 8.36437 18.0315 8.33335 17.8764 8.08523C17.7213 7.86812 17.6903 7.58898 17.6903 7.34086C17.6903 6.75156 18.0004 6.37937 18.4967 6.37937C18.7449 6.37937 18.9929 6.47242 19.1791 6.68953C19.3341 6.87562 19.4272 7.12374 19.4272 7.40288C19.3961 7.8371 19.2411 8.36437 18.5277 8.36437ZM18.3727 7.55796C18.4036 7.55796 18.4347 7.55796 18.4967 7.55796C18.6518 7.55796 18.6828 7.52695 18.6828 7.52695C18.6828 7.52695 18.7138 7.49593 18.7138 7.37188C18.7138 7.30984 18.7138 7.27883 18.6828 7.24781C18.6518 7.18578 18.5897 7.18578 18.4967 7.18578C18.4347 7.18578 18.3727 7.18578 18.3727 7.37188C18.3727 7.46491 18.3727 7.52695 18.3727 7.55796ZM12.9449 8.36437C12.7588 8.36437 12.5106 8.33335 12.3246 8.11625C12.1385 7.89913 12.1385 7.58898 12.1385 7.37188C12.1385 6.75156 12.4486 6.37937 13.007 6.37937C13.255 6.37937 13.4722 6.47242 13.5963 6.62749C13.7513 6.81359 13.8443 7.09273 13.8443 7.43391C13.8134 7.77508 13.6893 8.36437 12.9449 8.36437ZM12.8208 7.55796C12.8518 7.55796 12.8829 7.55796 12.9449 7.55796C13.069 7.55796 13.1 7.52695 13.1 7.52695C13.1 7.52695 13.1 7.49593 13.1 7.43391C13.1 7.24781 13.069 7.18578 13.069 7.18578C13.069 7.18578 13.0379 7.15476 12.9759 7.15476C12.8829 7.15476 12.8518 7.18578 12.8518 7.18578C12.8518 7.18578 12.8208 7.21679 12.8208 7.37188C12.7899 7.46491 12.8208 7.52695 12.8208 7.55796ZM10.6497 8.36437C10.3706 8.36437 10.1535 8.27132 9.99842 8.11625C9.84335 7.96117 9.78131 7.71305 9.78131 7.40288C9.78131 6.81359 10.1225 6.4414 10.6808 6.4414C10.8669 6.4414 11.115 6.47242 11.3011 6.68953C11.4872 6.90664 11.5182 7.21679 11.5182 7.46491C11.5182 8.0232 11.208 8.33335 10.6497 8.36437ZM10.4947 7.52695C10.4947 7.52695 10.5257 7.55796 10.6497 7.55796C10.7118 7.55796 10.8048 7.55796 10.8048 7.52695C10.8048 7.52695 10.8048 7.49593 10.8048 7.43391C10.8048 7.30984 10.8048 7.24781 10.8048 7.21679C10.7738 7.21679 10.7428 7.21679 10.6808 7.21679C10.4947 7.21679 10.4947 7.27883 10.4947 7.40288C10.4637 7.49593 10.4947 7.52695 10.4947 7.52695ZM8.38561 8.33335H8.35459C7.7653 8.30235 7.54819 8.0232 7.54819 7.34086C7.54819 7.0307 7.64124 6.78257 7.82732 6.59648C7.98241 6.4414 8.1685 6.34836 8.41662 6.37937C8.72679 6.41039 8.97491 6.53445 9.09896 6.72054C9.19201 6.84461 9.31608 7.09273 9.28506 7.43391C9.19201 8.05422 8.91288 8.33335 8.38561 8.33335ZM8.35459 7.55796C8.47866 7.55796 8.54069 7.52695 8.54069 7.52695C8.54069 7.52695 8.54069 7.49593 8.57171 7.37188C8.57171 7.30984 8.57171 7.24781 8.57171 7.24781C8.54069 7.21679 8.47866 7.18578 8.35459 7.18578C8.32359 7.18578 8.29256 7.18578 8.29256 7.18578C8.29256 7.18578 8.26155 7.24781 8.26155 7.37188C8.26155 7.46491 8.26155 7.52695 8.26155 7.55796C8.26155 7.55796 8.29257 7.55796 8.35459 7.55796ZM23.3972 8.33335C23.3662 8.33335 23.3662 8.33335 23.3351 8.33335C22.6217 8.30235 22.5287 7.74406 22.5598 7.27883C22.5908 6.68953 22.8389 6.37937 23.3972 6.37937C23.9554 6.41039 24.2656 6.75156 24.2656 7.37188C24.2656 7.68203 24.1726 7.93015 24.0174 8.08523C23.8624 8.27133 23.6763 8.36437 23.3972 8.33335ZM23.2421 7.55796C23.2731 7.55796 23.3042 7.55796 23.3351 7.55796C23.4902 7.55796 23.5212 7.52695 23.5212 7.52695C23.5212 7.52695 23.5212 7.49593 23.5522 7.37188C23.5522 7.24781 23.5522 7.18578 23.3662 7.18578C23.3042 7.18578 23.2731 7.18578 23.2421 7.18578C23.2421 7.21679 23.2421 7.24781 23.2421 7.30984C23.2421 7.4339 23.2421 7.49593 23.2421 7.55796ZM5.96639 8.33335C5.71827 8.33335 5.50116 8.2403 5.34607 8.08523C5.191 7.93015 5.12897 7.68203 5.12897 7.37188C5.12897 6.81359 5.50116 6.37937 5.96639 6.34836C6.30756 6.34836 6.49366 6.47242 6.58671 6.59648C6.71076 6.72054 6.83483 6.96866 6.83483 7.37188C6.86585 8.0232 6.58671 8.33335 5.96639 8.33335ZM5.99741 7.15476C5.90436 7.15476 5.81131 7.24781 5.81131 7.37188C5.81131 7.46491 5.84233 7.52695 5.84233 7.52695C5.84233 7.52695 5.87334 7.55796 5.96639 7.55796C6.05944 7.55796 6.12146 7.55796 6.15248 7.52695C6.15248 7.52695 6.15248 7.46491 6.15248 7.40288C6.15248 7.27883 6.12147 7.21679 6.12147 7.18578C6.09046 7.15476 6.05944 7.15476 5.99741 7.15476Z" fill="#515151"/>
</svg>
