<svg width="30" height="30" viewBox="0 0 30 30" fill="none" xmlns="http://www.w3.org/2000/svg">
<path d="M13.6685 28.7842H1.24589C0.813439 28.56 0.653272 28.2044 0.704526 27.7239C0.730152 27.474 0.704526 27.221 0.714136 26.971C0.723745 26.7181 0.829456 26.5066 1.06971 26.4073C1.24268 26.3368 1.43489 26.2695 1.61748 26.2664C2.32222 26.2503 3.02695 26.2599 3.7413 26.2599V23.7933C2.86358 23.7549 2.53363 23.3193 2.39909 22.8003C2.28377 22.3455 2.2069 21.881 2.10119 21.4261C2.08196 21.3396 2.00828 21.2211 1.9314 21.1954C1.32918 20.9905 0.983216 20.5452 0.752575 19.9782C0.662882 19.7604 0.694915 19.565 0.880709 19.4305C1.04728 19.3087 1.3452 19.4305 1.46692 19.6354C1.52458 19.7316 1.56623 19.8373 1.62709 19.9334C1.80968 20.212 2.04032 20.449 2.39269 20.4555C3.19993 20.4684 4.00397 20.4555 4.81121 20.4555C4.87528 20.4555 4.94255 20.4427 5.01302 20.4331C4.95536 20.18 4.8977 19.9526 4.84966 19.7251C4.66386 18.841 4.48768 17.9536 4.29547 17.0696C4.27625 16.9831 4.20258 16.8645 4.1289 16.8421C3.48503 16.65 3.14868 16.1598 2.89561 15.5896C2.81232 15.4038 2.83475 15.2116 3.02054 15.1027C3.18391 15.0066 3.38252 14.9682 3.52346 15.1508C3.62597 15.2788 3.70285 15.4327 3.78935 15.5704C3.99115 15.8907 4.25063 16.1022 4.65745 16.0958C5.36539 16.0893 6.07333 16.0958 6.78127 16.0958C6.88698 16.0958 6.98948 16.0958 7.0984 16.0958C6.98948 15.4774 6.89659 14.8849 6.78127 14.2987C6.75564 14.1705 6.75564 14.0103 6.56664 13.9591C5.91956 13.7862 5.58322 13.2928 5.36219 12.7098C5.29171 12.524 5.31094 12.3158 5.54158 12.2197C5.7562 12.13 5.94199 12.1909 6.07654 12.3703C6.1342 12.444 6.15982 12.5401 6.20146 12.6265C6.40648 13.0557 6.73321 13.2736 7.22012 13.2512C7.54046 13.2384 7.864 13.2512 8.18753 13.2512C8.68405 13.2512 9.18377 13.2512 9.6835 13.2512C9.57458 12.7322 9.47848 12.2389 9.36316 11.7488C9.34074 11.6527 9.26706 11.515 9.18697 11.4925C8.5463 11.3035 8.20996 10.8198 7.95368 10.256C7.82556 9.97095 7.98893 9.7307 8.29004 9.70508C8.57514 9.68265 8.67764 9.87485 8.76734 10.0702C8.87626 10.3041 9.00119 10.5091 9.27026 10.6501C9.27026 9.98697 9.27988 9.36872 9.26386 8.75368C9.26065 8.61914 9.19338 8.47499 9.11651 8.35966C9.0204 8.21872 8.98517 8.07777 9.05244 7.93042C9.11651 7.78626 9.22862 7.69978 9.40801 7.7126C9.62584 7.7286 9.84686 7.7158 10.0935 7.7158C10.0935 7.57485 10.0935 7.46914 10.0935 7.36343C10.0935 6.91496 10.0903 6.46649 10.1031 6.01803C10.1095 5.81301 10.2153 5.67526 10.4523 5.66886C10.6926 5.66246 10.8431 5.76496 10.8847 5.9988C10.904 6.10451 10.8976 6.21342 10.8976 6.32234C10.8976 6.78363 10.8976 7.24811 10.8976 7.71899C11.1058 7.71899 11.2756 7.7254 11.4453 7.71899C11.6343 7.70939 11.8073 7.74142 11.8746 7.94003C11.9354 8.12583 11.9226 8.30841 11.7368 8.43334C11.724 8.44936 11.708 8.46218 11.6952 8.4782V10.743H13.0278C13.0278 10.1856 13.0182 9.64101 13.031 9.09644C13.0374 8.83696 13.0245 8.61593 12.7747 8.46218C12.6947 8.41092 12.6114 8.2956 12.6049 8.2059C12.5761 7.77665 12.5345 7.341 12.5761 6.91496C12.6114 6.54977 12.9188 6.37679 13.2648 6.30312C13.2648 5.58878 13.2648 4.88724 13.2617 4.18892C13.2617 4.11203 13.22 4.00953 13.1623 3.96468C12.9861 3.83014 12.9669 3.62832 13.047 3.48738C13.1143 3.36886 13.3064 3.28236 13.457 3.25674C13.6589 3.2183 13.8734 3.24713 14.0881 3.24713C14.0881 2.68655 14.0945 2.17401 14.0881 1.66468C14.0849 1.44045 14.1585 1.28669 14.3667 1.2002H14.5814C14.8088 1.34115 14.9113 1.53334 14.9017 1.81523C14.8825 2.28612 14.8953 2.76022 14.8953 3.25034C15.1068 3.25034 15.3021 3.2215 15.4783 3.25995C15.6129 3.28877 15.7699 3.37527 15.8467 3.48738C15.9396 3.62193 15.9075 3.7885 15.773 3.92624C15.7154 3.9871 15.6834 4.09922 15.6834 4.18892C15.6769 4.83599 15.6834 5.47986 15.6769 6.12694C15.6769 6.27108 15.7089 6.34156 15.8659 6.3864C16.1639 6.4697 16.3529 6.77402 16.3529 7.09434C16.3529 7.39866 16.3849 7.70939 16.3433 8.0073C16.3145 8.1995 16.1735 8.37568 16.0806 8.55827C16.0293 8.65757 15.9332 8.75048 15.93 8.84978C15.914 9.26301 15.9236 9.67624 15.9236 10.0863V10.743H17.2658C17.2658 10.0158 17.2658 9.29824 17.2626 8.5839C17.2626 8.52945 17.2274 8.46538 17.1858 8.42693C17.0576 8.29881 16.9551 8.17388 17.0319 7.97526C17.1152 7.76064 17.2754 7.67094 17.4932 7.66774C17.6855 7.66774 17.8777 7.66774 18.0794 7.66774C18.0794 7.11036 18.0763 6.59142 18.0794 6.07248C18.0827 5.78739 18.1947 5.67846 18.4574 5.67526C18.7201 5.67207 18.8803 5.83864 18.8835 6.13335C18.8899 6.64588 18.8899 7.15521 18.8931 7.66774C18.9091 7.68376 18.9219 7.69658 18.9379 7.7126C19.1269 7.7126 19.3128 7.7286 19.5018 7.71899C19.6939 7.70939 19.8188 7.80549 19.8509 7.97206C19.8733 8.09058 19.8221 8.22513 19.79 8.34686C19.7741 8.41092 19.6875 8.46218 19.6875 8.51984C19.6812 9.21496 19.6843 9.91008 19.6843 10.6052C19.71 10.618 19.7355 10.6276 19.7612 10.6404C19.9149 10.413 20.0815 10.1952 20.2225 9.96134C20.357 9.74351 20.5909 9.6378 20.7959 9.7307C20.9528 9.80117 21.0554 10.0959 20.9593 10.2945C20.735 10.7558 20.4788 11.2331 19.9631 11.3868C19.569 11.5054 19.5338 11.7712 19.4761 12.0723C19.4633 12.1396 19.4441 12.2068 19.4312 12.2742C19.3704 12.5944 19.3095 12.9148 19.2455 13.2608C20.1329 13.2608 20.9753 13.2704 21.8145 13.2543C21.978 13.2543 22.1477 13.171 22.3015 13.1006C22.5866 12.9693 22.6922 12.6906 22.8204 12.4311C22.9229 12.2197 23.1375 12.1332 23.3425 12.2164C23.5668 12.3062 23.6276 12.4887 23.5604 12.6938C23.3649 13.2992 22.9773 13.7476 22.3752 13.9623C22.2309 14.0136 22.1862 14.0584 22.1605 14.1962C22.0997 14.5485 22.0164 14.8945 21.9555 15.2468C21.9043 15.5256 21.8723 15.8074 21.8306 16.1022C22.6795 16.1022 23.4867 16.1118 24.2907 16.0989C24.6624 16.0926 24.9539 15.9099 25.1268 15.5672C25.1845 15.4519 25.2453 15.3333 25.3094 15.2212C25.4247 15.0194 25.617 15.0194 25.7995 15.0706C25.9661 15.1155 26.0558 15.2372 26.0366 15.4327C25.9885 15.9324 25.46 16.6339 24.8225 16.8325C24.752 16.8549 24.6591 16.9126 24.6431 16.9702C24.5726 17.2201 24.5277 17.4764 24.4765 17.7326C24.4093 18.0465 24.2107 18.1908 23.9352 18.1234C23.7141 18.069 23.6148 17.8224 23.6917 17.5372C23.7429 17.3386 23.7846 17.14 23.8327 16.9318H21.5871C21.5775 17.0247 21.5904 17.1144 21.5583 17.1817C21.3917 17.5084 21.2347 17.8416 21.0297 18.1426C20.7734 18.5206 20.4147 18.5847 19.9919 18.3925C19.9406 18.3669 19.8829 18.3508 19.8061 18.3189C19.8061 18.6231 19.742 18.9178 19.8188 19.1709C19.9439 19.5746 20.1521 19.9526 20.3411 20.3306C20.3731 20.3947 20.4884 20.4555 20.5652 20.4586C21.3885 20.4684 22.2117 20.4651 23.0575 20.4651C23.0831 20.3722 23.1119 20.2825 23.1312 20.1928C23.1855 19.9557 23.2241 19.7155 23.2945 19.4848C23.3649 19.2478 23.5731 19.2222 23.7719 19.2638C23.9448 19.2991 24.0761 19.408 24.0441 19.6226C24.0025 19.9014 23.9607 20.18 23.916 20.4684C24.6495 20.4684 25.3766 20.4427 26.1006 20.4747C26.7477 20.5035 27.209 20.2857 27.4428 19.6579C27.5069 19.4817 27.6318 19.4144 27.8336 19.4144C28.0514 19.4144 28.1283 19.5681 28.2404 19.693V19.9622C28.1924 20.023 28.1316 20.0743 28.0995 20.1416C27.8657 20.6541 27.5037 21.016 26.9655 21.205C26.8919 21.2307 26.8149 21.3332 26.7957 21.4132C26.7253 21.7016 26.6933 21.9963 26.6228 22.2814C26.5267 22.6915 26.5331 23.1624 26.1359 23.4282C25.8603 23.614 25.5368 23.7325 25.2101 23.8927V26.2695C25.8732 26.2695 26.5171 26.2824 27.1609 26.2664C27.6638 26.2536 28.0387 26.4265 28.2373 26.9102V28.2589C28.2189 28.6248 28.0286 28.8082 27.6446 28.797H15.2221C15.1517 28.6912 15.0427 28.592 15.017 28.4767C14.9562 28.1852 15.1517 27.9897 15.4783 27.9897C16.7853 27.9897 18.0923 27.9897 19.3992 27.9897C19.4922 27.9897 19.5882 27.9897 19.7035 27.9897V27.0992H9.21581V27.9897C10.3081 27.9897 11.3845 27.9897 12.4575 27.9897C12.7875 27.9897 13.1207 27.9705 13.4507 27.9993C13.5915 28.0122 13.7581 28.0891 13.8542 28.1916C13.9632 28.3101 13.9375 28.483 13.8254 28.6208C13.7742 28.6849 13.7165 28.7394 13.6589 28.8002L13.6685 28.7842ZM10.0807 10.7301C10.0807 10.7301 10.0807 10.759 10.0807 10.7718C10.0935 10.759 10.1095 10.7494 10.1223 10.7365H10.8623V8.54225H10.0775V10.7301H10.0807ZM11.8938 19.5842C11.2499 19.5842 10.6061 19.5746 9.96218 19.5842C9.8885 19.5842 9.77639 19.6291 9.75077 19.6867C9.63545 19.9269 9.54254 20.1768 9.42722 20.4619C10.1031 20.4619 10.7374 20.4619 11.3685 20.4586C11.4197 20.4586 11.4934 20.401 11.5222 20.3498C11.6664 20.1127 11.8009 19.8724 11.9354 19.6322C11.9194 19.6194 11.9034 19.6034 11.8906 19.5906L11.8938 19.5842ZM17.0064 19.5842C17.0064 19.5842 16.9775 19.5874 16.9647 19.5906C16.9775 19.6066 16.9903 19.6194 17.0031 19.6354C17.2979 20.3978 17.3875 20.4619 18.1659 20.4619H18.435C18.7874 20.4619 19.143 20.4619 19.5177 20.4619C19.3769 20.1447 19.2519 19.8693 19.1269 19.5874H17.0095L17.0064 19.5842ZM13.8414 8.79532V10.5732H13.944C14.3251 10.4066 14.6967 10.5027 15.0683 10.618C15.0811 10.6052 15.0972 10.5892 15.11 10.5764V8.79852C15.11 8.79852 15.0811 8.7697 15.0683 8.75368C14.6743 8.75368 14.2803 8.75368 13.8863 8.75368C13.8703 8.7697 13.8575 8.7825 13.8414 8.79852V8.79532ZM9.26065 21.3044L9.21581 21.3493V24.4756C9.21581 24.4756 9.24463 24.5046 9.26065 24.5205H9.96539V21.3044H9.26065ZM19.7355 21.3493C19.7355 21.3493 19.7067 21.3204 19.6908 21.3044H18.986V24.5205H19.6908L19.7355 24.4756V21.3493ZM9.90452 18.7674C10.7374 18.7674 11.5318 18.7674 12.3295 18.7609C12.3967 18.7609 12.4896 18.7 12.5249 18.6392C12.9445 17.9344 13.3513 17.2233 13.7805 16.5218C13.8671 16.3808 14.0048 16.243 14.1522 16.1822C14.5782 16.0028 14.9274 16.1502 15.1772 16.573C15.5809 17.2554 15.9845 17.9377 16.3945 18.6168C16.4329 18.6808 16.5194 18.7578 16.5835 18.7578C17.3779 18.7674 18.1723 18.7641 18.9893 18.7641C18.9893 18.5751 18.9699 18.4053 18.9924 18.242C19.0469 17.8736 18.9507 17.6013 18.6017 17.4252C18.4415 17.3419 18.3005 17.2137 18.1627 17.0984C17.5957 16.6243 17.0095 16.1694 16.4714 15.6633C15.8211 15.0451 15.2156 14.382 14.591 13.738C14.4981 13.642 14.4565 13.6131 14.3316 13.7445C13.6813 14.4268 13.0341 15.1219 12.3295 15.7498C11.5831 16.4161 10.7758 17.0119 10.0006 17.6397C9.95257 17.6782 9.90773 17.7487 9.90452 17.8032C9.89491 18.1138 9.90132 18.4278 9.90132 18.7705L9.90452 18.7674ZM20.3411 17.7103C20.466 17.4956 20.5428 17.3386 20.6421 17.2009C20.735 17.0696 20.7287 17.0119 20.5813 16.9158C19.3832 16.1277 18.2557 15.25 17.2146 14.2603C16.3304 13.421 15.5264 12.5112 14.8057 11.5278C14.5751 11.2138 14.3283 11.2491 14.0913 11.5534C13.6556 12.1076 13.2231 12.6714 12.7427 13.1871C12.1757 13.7925 11.5735 14.3691 10.9552 14.9265C10.4811 15.3525 9.96539 15.737 9.45286 16.1246C9.03962 16.4385 8.60396 16.7236 8.17472 17.028C8.29645 17.2393 8.41498 17.4411 8.5399 17.6589C8.88266 17.4315 9.23503 17.2362 9.54575 16.9863C10.5068 16.2111 11.471 15.4423 12.3903 14.619C12.9861 14.084 13.4923 13.4562 14.0432 12.8732C14.2579 12.6489 14.7639 12.6938 14.9594 12.9308C15.2766 13.312 15.584 13.706 15.9365 14.052C16.5386 14.6414 17.1537 15.2245 17.804 15.7626C18.6176 16.432 19.4729 17.0535 20.3411 17.7199V17.7103ZM9.06204 18.3092C8.96274 18.3541 8.87946 18.399 8.79296 18.431C8.43098 18.5688 8.0562 18.463 7.87681 18.1395C7.65258 17.7423 7.45397 17.3354 7.23935 16.919H5.0803C5.33335 18.0979 5.58322 19.267 5.83628 20.4555C6.50898 20.4555 7.17208 20.417 7.83197 20.4684C8.3477 20.5068 8.6296 20.369 8.81539 19.8532C8.99478 19.3568 9.18058 18.8827 9.06524 18.3092H9.06204ZM19.7067 25.363H9.21901V26.2471H19.7067V25.363ZM24.374 27.9673V23.7741H22.1381V27.9673H24.374ZM4.56455 27.9546H6.80689V23.7806H4.56455V27.9546ZM14.072 24.5173C14.072 23.8062 14.0593 23.1238 14.0817 22.4448C14.0849 22.3135 14.1938 22.1308 14.3091 22.07C14.45 21.9931 14.6551 22.0188 14.7543 22.1982C14.8184 22.3166 14.8697 22.4576 14.8729 22.5889C14.8857 23.2296 14.8793 23.8702 14.8793 24.5142H15.8179V21.2787H13.1335V24.5142H14.0753L14.072 24.5173ZM6.80689 22.9542V21.282H2.90522C3.00132 21.7208 3.08782 22.1372 3.18071 22.5537C3.25118 22.8772 3.34087 22.9542 3.66121 22.9542C4.37876 22.9542 5.0931 22.9542 5.81065 22.9542C6.14059 22.9542 6.46734 22.9542 6.80689 22.9542ZM22.1349 21.2756V22.9542C23.208 22.9542 24.2619 22.9638 25.3158 22.9413C25.4472 22.9413 25.6586 22.7971 25.6938 22.6754C25.8283 22.2205 25.9052 21.7528 26.0077 21.2724H22.1349V21.2756ZM16.5098 20.4427C15.8211 19.2638 15.1548 18.1234 14.4565 16.9286C13.7646 18.1138 13.0951 19.2638 12.4095 20.4363H14.0401C14.0401 20.3017 14.0401 20.1832 14.0401 20.0679C14.0401 19.943 14.0336 19.8148 14.0401 19.6899C14.0593 19.4144 14.2067 19.2862 14.4853 19.2991C14.7384 19.3119 14.8441 19.4336 14.8473 19.7124C14.8473 19.9526 14.8473 20.1896 14.8473 20.4427H16.5098ZM12.3038 21.2852H10.7983V24.5173H12.3038V21.2852ZM18.1531 21.2787H16.6539V24.5269H18.1531V21.2787ZM20.5652 21.3044V27.9642H21.3053V21.3044H20.5652ZM7.65258 21.3044V27.9642H8.38934V21.3044H7.65258ZM15.8724 11.5662C15.9236 11.6431 15.9492 11.6911 15.9845 11.7296C16.2696 12.0564 16.5675 12.3734 16.8366 12.713C17.1089 13.059 17.3811 13.3665 17.8841 13.2672C17.9961 13.2447 18.1179 13.2512 18.2333 13.2672C18.3902 13.2896 18.435 13.1935 18.4607 13.075C18.5631 12.5752 18.6625 12.0756 18.765 11.5662H15.8755H15.8724ZM21.3757 14.0809H18.2268C19.1173 14.8624 19.9855 15.5608 20.9689 16.1758C21.1098 15.4486 21.2412 14.7728 21.3757 14.0809ZM7.93127 16.1502C8.95954 15.5544 9.81804 14.84 10.6958 14.0744H7.55647C7.6782 14.7439 7.79352 15.3942 7.93127 16.1502ZM13.0951 11.5694H10.1512C10.2697 12.1268 10.3882 12.665 10.5036 13.2096C10.8431 13.2096 11.157 13.2159 11.471 13.2063C11.5478 13.2063 11.6439 13.1614 11.6952 13.1071C12.1501 12.6169 12.5985 12.1172 13.0951 11.5694ZM25.1876 27.9609H27.4205V27.08H25.1876V27.9609ZM3.71567 27.08H1.53419V27.9577H3.71567V27.08ZM18.8642 10.7237V8.53906H18.089V10.7237H18.8642ZM15.5489 7.12958H13.3674V7.90158H15.5489V7.12958ZM14.0881 6.31274C14.3059 6.31274 14.4949 6.32874 14.6807 6.30633C14.7512 6.29672 14.8697 6.20702 14.8697 6.14936C14.8825 5.45423 14.8793 4.75911 14.8793 4.06719H14.0881V6.31274Z" fill="#515151"/>
</svg>
