<svg width="30" height="30" viewBox="0 0 30 30" fill="none" xmlns="http://www.w3.org/2000/svg">
<mask id="mask0_13_3076" style="mask-type:luminance" maskUnits="userSpaceOnUse" x="0" y="0" width="30" height="31">
<path d="M30 0.000793457H0V30.0008H30V0.000793457Z" fill="white"/>
</mask>
<g mask="url(#mask0_13_3076)">
<path d="M11.4784 21.2571C11.353 21.5392 11.2276 21.79 11.1335 22.0094C10.7574 22.8872 10.3812 23.7963 10.0363 24.7054C9.97364 24.8621 9.97364 24.9562 10.1617 25.0502C12.5442 26.022 14.958 26.9625 17.3719 27.8402C17.6227 27.9342 17.8108 27.8088 18.0302 27.7462C17.9675 27.6521 17.9048 27.6521 17.8108 27.6208C17.1211 27.37 16.4 27.0879 15.7104 26.8371C15.6791 26.8058 15.6163 26.8058 15.585 26.7743C15.4283 26.7117 15.3656 26.6176 15.4283 26.4922C15.4909 26.3355 15.585 26.3042 15.7417 26.3668C16.4315 26.6176 17.0898 26.8684 17.7794 27.1192C18.0616 27.2133 18.3437 27.3387 18.6258 27.4326C18.814 27.4954 18.9707 27.4954 19.19 27.37C18.8453 27.2133 18.5318 27.0564 18.187 26.8997C18.0929 26.8684 17.9988 26.8058 17.9048 26.7743C17.7794 26.7117 17.7167 26.6176 17.7481 26.4922C17.8108 26.3355 17.9362 26.3042 18.0616 26.3668C18.4691 26.555 18.8766 26.7117 19.2841 26.8997C19.4723 26.9625 19.629 27.0564 19.817 27.1192C20.0992 27.2133 20.2246 27.1192 20.1932 26.8371C20.0992 26.3668 20.0365 25.8966 19.9424 25.4264C19.9111 25.3323 19.9111 25.2383 19.9111 25.1442C19.8798 24.9875 19.9424 24.8934 20.0992 24.8621C20.256 24.8308 20.3186 24.9562 20.35 25.0815C20.444 25.5518 20.5067 25.9906 20.6008 26.4609C20.6321 26.7117 20.6948 26.9312 20.7262 27.1818C20.7575 27.37 20.6948 27.4641 20.5067 27.5267C19.002 27.9342 17.4973 28.3418 15.9925 28.7493C15.8358 28.7807 15.6791 28.812 15.6163 28.5926C15.5537 28.4045 15.7104 28.3418 15.8671 28.3104C16.1492 28.2477 16.4315 28.1537 16.7136 28.0283C16.4 27.9029 16.0866 27.7775 15.8045 27.6834C13.8922 26.9625 11.9799 26.2414 10.099 25.4577C9.91094 25.3323 9.8169 25.3323 9.7542 25.5831C9.47207 26.5235 9.15858 27.4641 8.8451 28.3731C8.81375 28.4358 8.81375 28.5299 8.7824 28.5926C8.7197 28.718 8.62566 28.7807 8.50027 28.7493C8.37487 28.6866 8.34353 28.5926 8.37487 28.4672C8.43757 28.2164 8.53162 27.9656 8.62566 27.6834C9.34668 25.3637 10.1931 23.0752 11.2276 20.8494C11.3216 20.6614 11.3216 20.5047 11.2589 20.3165C11.0708 19.7523 10.9141 19.188 10.726 18.6238C10.6006 18.6864 10.5693 18.7805 10.5379 18.8746C8.81375 21.884 7.49712 25.0501 6.49397 28.3731C6.49397 28.4045 6.46261 28.4358 6.46261 28.4672C6.43127 28.6239 6.33722 28.7807 6.14912 28.718C5.96104 28.6553 5.99239 28.4985 6.02374 28.3418C7.12093 24.8308 8.50026 21.4138 10.3812 18.2163C10.4752 18.0281 10.5379 17.9027 10.4439 17.7147C10.3812 17.5893 10.3812 17.4639 10.3185 17.3385C9.8796 16.1786 11.0395 15.4889 11.8232 15.583C12.0426 15.6143 12.1367 15.5516 12.2308 15.3948C14.3311 12.5422 16.8076 10.1283 19.8798 8.31009C20.3186 8.0593 20.7889 7.83987 21.2278 7.58908C21.3532 7.52638 21.5099 7.46368 21.604 7.65177C21.6979 7.83987 21.5726 7.93392 21.4158 7.99661C17.8735 9.75212 15.0521 12.3854 12.6696 15.5202C12.5129 15.7084 12.5129 15.8024 12.7324 15.9278C13.0145 16.0845 13.2025 16.3353 13.422 16.5861C13.8922 15.8651 14.3624 15.144 14.8326 14.4857C16.5569 12.166 18.5318 10.1597 20.9456 8.59224C21.8548 7.99661 22.7952 7.52638 23.8297 7.15019C24.0178 7.08751 24.0805 6.99346 24.0491 6.77402C23.861 5.99031 24.0178 6.1157 23.2654 6.33514C19.9111 7.27559 16.9016 8.90571 14.1744 11.0688C10.5379 13.9528 7.65385 17.4952 5.30272 21.4451C3.98609 23.6709 2.82619 25.9906 1.85438 28.3731C1.82304 28.4672 1.7917 28.5612 1.729 28.6239C1.6663 28.7493 1.54091 28.812 1.41551 28.7493C1.29012 28.6866 1.22742 28.5926 1.29012 28.4672C1.32146 28.4045 1.35281 28.3104 1.38416 28.2477C2.13653 26.4296 2.98294 24.6113 3.95473 22.8871C4.04878 22.699 4.04878 22.605 3.86069 22.4796C3.13968 22.0721 2.5754 21.5392 2.16787 20.8181C1.7917 20.1598 1.38416 19.5015 0.945281 18.8746C0.694493 18.4984 0.600448 18.0281 0.506402 17.5893C0.34966 16.8682 0.192917 16.1472 0.0361749 15.4262C-0.151916 14.5485 0.412357 14.0156 1.29012 14.2349C1.47821 14.2977 1.63495 14.3603 1.85438 14.4857C1.91708 13.9215 2.01113 13.3886 2.07383 12.8243C2.10517 12.4168 2.13653 12.0093 2.60675 11.8838C3.10832 11.7271 3.6099 11.7898 4.01743 12.1346C4.20552 12.2914 4.33092 12.5108 4.42496 12.7616C4.67575 13.4826 4.7071 14.2036 4.51901 14.956C4.45631 15.1755 4.48766 15.3322 4.64441 15.5516C4.7071 15.1755 4.7698 14.8306 4.8325 14.4857C4.95788 13.6707 5.08328 12.8243 5.24003 12.0093C5.33407 11.5076 5.71025 11.3195 6.18048 11.5076C6.7761 11.7584 6.99554 12.2286 7.08959 12.8243C7.15228 13.2632 7.15228 13.6707 7.08959 14.1095C6.99554 14.8306 7.05823 15.583 7.02689 16.304C7.02689 16.398 7.05823 16.4607 7.12093 16.5234C7.21498 16.6174 7.27768 16.6802 7.37172 16.7742C7.68521 17.0877 7.68521 17.0877 7.96734 16.7428C8.06138 16.6174 8.06138 16.5548 7.9987 16.4294C7.8106 16.0218 7.62251 15.583 7.40306 15.1755C7.24633 14.8932 7.24633 14.6424 7.27768 14.3603C7.40306 13.7334 7.55981 13.1064 7.74791 12.4794C7.84195 12.1346 7.9987 11.8525 8.40622 11.7898C8.81375 11.7271 9.18994 11.9465 9.37802 12.354C9.59747 12.7929 9.62881 13.2945 9.53477 13.7648C9.50341 14.0469 9.47207 14.329 9.62881 14.6111C9.72286 14.5798 9.78556 14.4857 9.84826 14.4231C12.4188 11.6017 15.3342 9.2819 18.7512 7.55773C18.8766 7.49504 18.9394 7.40098 18.9079 7.24425C18.8453 6.83672 18.814 6.42919 18.7825 5.99031C18.7512 5.64548 18.8766 5.36333 18.9394 5.04985C18.9707 4.89311 19.002 4.76771 19.0333 4.61097C19.0961 4.26614 19.1274 4.23479 19.5036 4.29748C19.6603 4.32884 19.6916 4.26614 19.7231 4.17209C19.8484 3.73322 19.9738 3.29434 20.0992 2.85545C20.1619 2.63602 20.256 2.47928 20.4754 2.41658C20.6948 2.35388 20.8829 2.47928 21.0083 2.66737C21.4472 3.32569 21.9487 3.95265 22.0115 4.83041C22.0428 5.26929 22.419 5.58278 22.6385 5.95895C22.6698 6.02165 22.7324 5.99031 22.7952 5.95895C23.0773 5.89627 23.3281 5.80221 23.6102 5.73952C23.7356 5.70817 23.767 5.64548 23.7356 5.52008C23.6729 5.30063 23.7043 5.0812 23.767 4.86176C23.8297 4.57963 24.0178 4.36018 24.2999 4.26614C24.7388 4.17209 24.8956 4.26614 24.9582 4.61097C24.9895 4.73637 25.0523 4.86176 25.0836 4.98716C25.1777 5.26929 25.3657 5.36333 25.6478 5.30063C26.3376 5.17525 27.0272 5.1439 27.7169 5.11255C27.8736 5.11255 28.0303 5.1439 28.0303 5.33199C28.0303 5.52008 27.8736 5.55142 27.7169 5.55142C26.9959 5.58278 26.2748 5.61412 25.5539 5.73952C25.397 5.77087 25.3344 5.80221 25.4285 5.95895V5.99031C25.5539 6.33514 25.7732 6.46053 26.1181 6.39784C26.651 6.27244 27.184 6.2411 27.7169 6.2411C27.8736 6.2411 28.0303 6.2411 28.0303 6.46053C28.0303 6.64862 27.8736 6.71132 27.7169 6.71132C27.1526 6.71132 26.5884 6.77402 26.024 6.89941C25.9301 6.93076 25.7732 6.89941 25.8673 7.05615C26.2435 7.68313 26.1494 8.40414 26.1808 9.09381C26.1808 9.37594 26.1808 9.62673 26.1808 9.90886C26.1808 10.0656 26.2435 10.097 26.3689 10.0029C26.8705 9.59539 27.3407 10.0029 27.811 10.1283C27.9364 10.1597 27.9364 10.3164 27.9677 10.4104C28.0618 11.1315 28.1557 11.8211 28.2498 12.5422C28.2811 12.6989 28.2498 12.8243 28.0931 12.8556C27.9049 12.887 27.8423 12.7929 27.811 12.6048C27.7169 11.9779 27.6542 11.3822 27.5602 10.7553C27.5288 10.4418 27.0586 10.191 26.7451 10.3478C26.2748 10.5672 25.836 10.818 25.3657 11.0374C25.2718 11.1001 25.1777 11.1315 25.0836 11.1001C24.9269 11.0061 24.8956 10.8807 25.021 10.7553C25.0523 10.6926 25.1149 10.6612 25.1777 10.6612C25.7106 10.5045 25.8673 10.191 25.8047 9.65808C25.7419 9.12516 25.7732 8.59224 25.7732 8.0593C25.7732 7.87121 25.7106 7.71447 25.6478 7.55773C25.2403 6.71132 24.8956 5.86491 24.6134 4.98716C24.582 4.89311 24.582 4.76771 24.4566 4.76771C24.2999 4.76771 24.2372 4.89311 24.2058 5.0185C24.1432 5.36333 24.2058 5.70817 24.2999 6.02165C24.394 6.36649 24.488 6.71132 24.488 7.08751C24.488 7.62043 24.2999 8.0593 23.8924 8.40414C23.861 8.40414 23.861 8.40413 23.8297 8.43549C23.6729 8.59224 23.3281 8.68628 23.3908 8.96841C23.4848 9.2819 23.767 9.53269 24.0805 9.65808C24.1432 9.68943 24.1745 9.68943 24.2372 9.72078C24.3626 9.75212 24.4566 9.84618 24.394 10.0029C24.3626 10.1283 24.2686 10.191 24.1118 10.1597C23.6729 10.097 23.0773 9.53269 22.9519 9.12516C22.8578 8.81167 23.0146 8.56088 23.234 8.37279C23.4535 8.1847 23.6729 8.02796 23.8297 7.80851C23.861 7.74583 23.9237 7.71447 23.861 7.58908C23.6729 7.65177 23.4848 7.74583 23.2968 7.83987C22.419 8.21605 21.5726 8.68628 20.7575 9.25054C20.6008 9.3446 20.5694 9.40729 20.6948 9.56403C21.3532 10.2851 22.0115 11.0061 22.6698 11.7271C22.7639 11.8525 22.8578 11.8838 22.9832 11.7584C23.234 11.539 23.5162 11.3195 23.767 11.1001C23.8924 11.0061 24.0178 10.9434 24.1432 11.0688C24.2686 11.2255 24.2058 11.3509 24.0805 11.4449C23.5475 11.8838 23.046 12.3227 22.5131 12.7616C22.419 12.8243 22.3562 12.9183 22.231 13.0124C22.5757 13.1691 22.8893 13.2945 23.2027 13.4199C23.3594 13.4826 23.5162 13.5453 23.4222 13.7648C23.3281 13.9528 23.1714 13.8902 23.046 13.8274C22.6385 13.6707 22.1995 13.514 21.792 13.3572C21.5099 13.2318 21.4786 13.0751 21.7294 12.8556C21.9487 12.6676 22.1369 12.5108 22.3562 12.354C22.4816 12.26 22.4503 12.1973 22.3562 12.1032C21.6666 11.3822 21.0083 10.6299 20.3186 9.87752C20.1932 9.72078 20.0992 9.78347 19.9738 9.87752C18.5632 10.912 17.3405 12.1346 16.212 13.4826C15.3029 14.5798 14.4878 15.7397 13.7354 16.931C13.6414 17.0877 13.6414 17.1818 13.7354 17.3385C14.237 18.1848 14.6132 19.0626 14.9267 20.0031C14.958 20.0972 14.9894 20.1911 15.0834 20.2539C16.1807 20.7242 17.2778 21.1943 18.375 21.6646C18.375 21.4451 18.281 21.2884 18.2183 21.1317C18.1556 21.0063 18.1556 20.8809 18.3124 20.7868C18.4691 20.7242 18.5632 20.7868 18.6258 20.9435C18.8453 21.4451 19.0648 21.978 19.2528 22.4796C19.3469 22.699 19.4723 22.8558 19.6916 22.9185C19.817 22.9498 19.9738 23.0126 20.0992 23.1066C20.1932 23.1693 20.2246 23.2634 20.1932 23.3573C20.1306 23.4827 20.0678 23.5455 19.9424 23.4827C19.6603 23.3888 19.3782 23.2634 19.1274 23.138C18.9394 23.0439 18.9079 22.8244 18.8453 22.6364C18.7512 22.3542 18.5945 22.1975 18.3124 22.1034C17.1838 21.6332 16.0553 21.1317 14.9267 20.6301C14.7073 20.536 14.6132 20.4106 14.5505 20.2226C14.2057 19.1253 13.7668 18.0594 13.1084 17.0877C12.8263 16.6802 12.4816 16.304 11.9799 16.1472C11.6665 16.0532 11.3843 16.0845 11.1022 16.2099C10.6633 16.4294 10.5379 16.7428 10.6633 17.2131C11.2276 19.1567 11.8232 21.1317 12.3875 23.0752C12.4501 23.2634 12.5442 23.3573 12.7009 23.4201C13.6414 23.765 14.5505 24.1097 15.4909 24.4546C15.585 24.4859 15.6791 24.5172 15.7417 24.5486C15.8358 24.6113 15.8671 24.7054 15.8358 24.7994C15.8045 24.8934 15.7104 24.9562 15.6163 24.9248C15.5224 24.9248 15.4596 24.8934 15.3656 24.8621C14.3624 24.4859 13.3592 24.0784 12.3562 23.7022C12.168 23.6396 12.074 23.5142 12.0113 23.326C11.8859 22.6677 11.6978 22.0094 11.4784 21.2571ZM1.03933 14.6739C0.506402 14.6739 0.34966 14.8932 0.443705 15.3008C0.600448 15.8651 0.725842 16.492 0.788538 17.0877C0.913932 17.9027 1.19607 18.6551 1.69764 19.3448C2.01113 19.7836 2.29326 20.2226 2.54405 20.6927C2.88889 21.351 3.48451 21.79 4.08013 22.1661C4.20552 22.2602 4.26822 22.2288 4.36226 22.1034C4.73845 21.4764 5.11463 20.8494 5.49082 20.2226C5.58486 20.0658 5.5535 20.0031 5.39677 19.9718C4.8952 19.8777 4.51901 19.5642 4.17418 19.188C3.92339 18.9059 3.64126 18.6238 3.39047 18.3416C3.29641 18.2163 3.20237 18.1848 3.07698 18.3102C2.88889 18.467 2.6381 18.5297 2.41866 18.561C2.26192 18.5924 2.13653 18.561 2.10517 18.373C2.07383 18.2163 2.19922 18.1535 2.32462 18.1222C2.5127 18.0909 2.70079 18.0281 2.85754 17.9027C2.95158 17.8401 2.98294 17.7773 2.95158 17.6832C2.66945 16.7428 2.29326 15.8651 1.69764 15.0814C1.57225 14.7993 1.32146 14.6739 1.03933 14.6739ZM3.51586 15.583C3.35911 15.583 3.20237 15.5516 3.04562 15.5202C2.88889 15.4889 2.76349 15.4262 2.82619 15.2381C2.85754 15.0814 2.98294 15.0501 3.13968 15.0814C3.35911 15.144 3.6099 15.1127 3.82934 15.1127C3.98609 15.1127 4.04878 15.0501 4.08013 14.8932C4.26822 14.2036 4.23688 13.5453 3.98609 12.8556C3.82934 12.4481 3.48451 12.2286 3.04562 12.26C2.66945 12.2914 2.60675 12.354 2.54405 12.7302C2.45 13.3886 2.35596 14.0782 2.26192 14.7365C2.23057 14.8932 2.26192 15.0186 2.35596 15.144C2.60675 15.5516 2.88889 15.9591 3.01428 16.4294C3.29641 17.4952 3.95473 18.2789 4.7071 18.9999C4.73845 19.0626 4.73845 19.0626 4.7698 19.094C5.02058 19.4388 5.42812 19.4701 5.80429 19.5956C5.92969 19.6269 5.96104 19.5328 5.99239 19.4701C6.14912 19.2194 6.30587 18.9999 6.46261 18.7492C6.55666 18.6238 6.52531 18.561 6.39991 18.467C6.02374 18.2476 5.6789 18.0281 5.30272 17.8086C5.17733 17.746 5.08328 17.6206 5.02058 17.4952C4.80114 16.9936 4.51901 16.5234 4.33092 16.0218C4.26822 15.8964 4.17418 15.6143 3.98609 15.583C3.95473 15.583 3.92339 15.583 3.76664 15.583C3.70394 15.583 3.64126 15.583 3.57856 15.583C3.5472 15.583 3.5472 15.583 3.51586 15.583ZM6.55666 14.8306C6.33722 14.8619 6.14912 14.9247 5.96104 14.8932C5.80429 14.8619 5.6789 14.8306 5.6789 14.6424C5.6789 14.4857 5.80429 14.4231 5.96104 14.4231C6.11778 14.4231 6.24318 14.4231 6.39991 14.3603C6.49397 14.2977 6.58801 14.2349 6.58801 14.1095C6.6507 13.6707 6.68206 13.2318 6.58801 12.7929C6.52531 12.4481 6.39991 12.1346 6.05508 11.9465C5.80429 11.7898 5.6789 11.8525 5.64756 12.1346C5.45946 13.2945 5.30272 14.4231 5.08328 15.5516C4.98924 16.1159 5.05193 16.5861 5.33407 17.0564C5.39676 17.1818 5.42812 17.3072 5.5535 17.4011C5.92969 17.6519 6.33722 17.8714 6.7134 18.1222C6.80744 18.1848 6.8388 18.1535 6.93284 18.0909C7.46576 17.4952 7.46576 17.4639 6.90149 16.8996C6.90149 16.8996 6.90149 16.8996 6.87014 16.8682C6.80744 16.7742 6.7134 16.7428 6.58801 16.8056C6.39991 16.8996 6.21182 16.931 5.99239 16.9623C5.83565 16.9936 5.71025 16.9623 5.6789 16.8056C5.64756 16.6174 5.7416 16.5548 5.92969 16.5548C6.11778 16.5234 6.27452 16.492 6.43127 16.398C6.49397 16.3667 6.55666 16.304 6.55666 16.2099C6.55666 15.8024 6.55666 15.3322 6.55666 14.8306ZM8.34353 16.1786C8.62566 15.8651 8.8451 15.583 9.09589 15.3008C9.25264 15.0814 9.28398 14.8306 9.12724 14.5798C9.00184 14.3918 8.8451 14.5798 8.7197 14.5798C8.657 14.5798 8.56296 14.6111 8.50027 14.6111C8.34353 14.6424 8.18678 14.6424 8.15543 14.4231C8.12408 14.2349 8.28083 14.2036 8.43757 14.1723C9.18994 14.0156 9.09589 14.141 9.15858 13.3259C9.15858 13.1691 9.12724 12.981 9.09589 12.8243C9.06454 12.6676 9.00184 12.5422 8.90779 12.4168C8.62566 12.1346 8.31217 12.1973 8.21813 12.5735C8.03004 13.2005 7.8733 13.8274 7.74791 14.4544C7.71655 14.5798 7.68521 14.7052 7.74791 14.7993C7.90464 15.2694 8.12408 15.7084 8.34353 16.1786ZM20.6321 2.91815C20.4754 3.48243 20.3186 4.04671 20.1619 4.57963C20.1619 4.61097 20.1619 4.67367 20.1932 4.70501C20.3814 5.04985 20.3186 5.45738 20.2873 5.83357C20.2873 6.02165 20.256 6.1784 20.256 6.36649C20.3186 6.71132 20.5067 6.83672 20.8202 6.71132C20.8829 6.67997 20.9456 6.64862 21.0397 6.64862C21.1964 6.61727 21.2278 6.52323 21.1024 6.42919C20.8516 6.14705 20.8202 5.83357 20.8202 5.48873C20.8202 4.83041 20.7575 4.17209 20.8829 3.48243C20.9143 3.20029 20.8202 3.04355 20.6321 2.91815ZM19.4408 7.24425C19.9424 7.08751 19.9424 7.08751 19.8484 6.61727C19.7857 6.30379 19.7857 5.99031 19.817 5.67682C19.8484 5.45738 19.8484 5.23795 19.817 5.04985C19.7857 4.92446 19.6916 4.83041 19.5662 4.79906C19.4408 4.76771 19.4723 4.92446 19.4723 5.0185C19.2215 5.77087 19.3469 6.49189 19.4408 7.24425ZM21.2904 3.79592C21.2904 3.98401 21.2591 4.14075 21.2591 4.26614C21.2591 4.70501 21.2904 5.11255 21.2904 5.55142C21.2591 5.86491 21.4786 6.08435 21.6353 6.30379C21.6666 6.36649 21.7294 6.36649 21.792 6.33514C22.2936 6.2411 22.3249 6.1784 22.0741 5.77087C21.8233 5.39469 21.604 4.98716 21.5726 4.48558C21.5412 4.26614 21.4786 4.04671 21.2904 3.79592Z" fill="#515151" stroke="#515151" stroke-width="0.181886" stroke-miterlimit="10" stroke-linecap="round"/>
<path d="M24.4258 19.9085C24.4258 18.8427 24.3317 18.0903 24.3004 17.338C24.269 16.5229 24.3631 15.7393 24.6765 14.9869C25.1155 13.8897 26.0872 13.2627 27.2158 13.3253C27.2785 13.3253 27.3412 13.3253 27.3725 13.3253C27.5293 13.3567 27.6233 13.3881 27.6233 13.5761C27.6233 13.7643 27.4979 13.7956 27.3412 13.7643C27.0591 13.7329 26.7769 13.7643 26.5261 13.8269C25.8051 14.0464 25.3348 14.5166 25.0527 15.2062C24.7706 15.9273 24.7079 16.711 24.7706 17.4634C24.8019 18.3724 24.9273 19.2815 24.8647 20.222C24.7393 22.6672 24.1436 24.9556 23.2346 27.2127C23.0464 27.683 22.8269 28.1218 22.6389 28.5921C22.5763 28.7488 22.4509 28.8429 22.294 28.7801C22.106 28.6862 22.1687 28.5293 22.2314 28.4039C23.2346 26.3663 23.8929 24.2347 24.2377 21.9776C24.3631 21.1625 24.3944 20.3788 24.4258 19.9085Z" fill="#515151" stroke="#515151" stroke-width="0.181886" stroke-miterlimit="10" stroke-linecap="round"/>
<path d="M27.6198 14.6733C27.7766 14.6733 27.8706 14.7046 27.902 14.8926C27.902 15.0495 27.8393 15.1121 27.6826 15.1121C26.7107 15.1748 26.5227 15.8331 26.5227 16.5542C26.5227 17.0558 26.6168 17.5572 26.7735 18.0588C27.3064 19.783 27.369 21.5386 27.275 23.3254C27.181 25.0182 26.9615 26.6798 26.6794 28.3098C26.6481 28.4979 26.6794 28.78 26.3973 28.7487C26.0837 28.686 26.2091 28.4352 26.2406 28.2471C26.5853 26.2408 26.8361 24.2345 26.8674 22.2282C26.8989 20.7549 26.7107 19.3128 26.3032 17.9021C26.1152 17.2751 26.0524 16.6482 26.1465 15.9899C26.2406 15.2375 26.8674 14.6733 27.6198 14.6733Z" fill="#515151" stroke="#515151" stroke-width="0.181886" stroke-miterlimit="10" stroke-linecap="round"/>
<path d="M20.6957 24.047C20.6644 23.953 20.7584 23.3574 21.1973 23.1692C21.2599 23.1379 21.354 23.1066 21.4481 23.1379C21.5107 23.2006 21.5735 23.2633 21.5422 23.3574C21.5107 23.42 21.5107 23.5141 21.4481 23.5454C21.166 23.8903 21.166 24.2664 21.3227 24.674C21.5107 25.1129 21.6048 25.583 21.7302 26.0533C21.7928 26.21 21.7928 26.3982 21.6048 26.4295C21.3853 26.4922 21.354 26.3354 21.2914 26.1787C21.1032 25.5204 20.9152 24.8621 20.727 24.2038V24.1724C20.727 24.141 20.727 24.141 20.727 24.1097C20.6957 24.0784 20.6957 24.0784 20.6957 24.047Z" fill="#515151" stroke="#515151" stroke-width="0.181886" stroke-miterlimit="10" stroke-linecap="round"/>
<path d="M16.8367 23.0753C16.8367 23.1694 16.8053 23.2948 16.8053 23.4202C16.774 23.5456 16.7113 23.6397 16.5546 23.6397C16.3978 23.6397 16.3351 23.5456 16.3665 23.3889C16.4605 22.8559 16.3665 22.3857 16.0843 21.9468C16.0216 21.8527 16.053 21.7273 16.1784 21.6647C16.3038 21.6019 16.3978 21.6333 16.4919 21.7587C16.7113 22.1349 16.8367 22.5737 16.8367 23.0753Z" fill="#515151" stroke="#515151" stroke-width="0.181886" stroke-miterlimit="10" stroke-linecap="round"/>
<path d="M13.4551 18.6229C13.4551 18.7483 13.3924 18.8423 13.2984 18.8736C13.173 18.9051 13.0789 18.8736 13.0476 18.7483C12.8909 18.3407 12.6714 17.9646 12.4206 17.6197C12.358 17.5257 12.358 17.4317 12.4519 17.3376C12.5147 17.2749 12.5773 17.2435 12.6401 17.2749C12.6714 17.2749 12.7027 17.3063 12.7342 17.3376C12.8594 17.463 13.4238 18.4661 13.4551 18.5602V18.5915V18.6229Z" fill="#515151" stroke="#515151" stroke-width="0.181886" stroke-miterlimit="10" stroke-linecap="round"/>
</g>
</svg>
