<svg width="337" height="331" viewBox="0 0 337 331" fill="none" xmlns="http://www.w3.org/2000/svg">
<path d="M305.802 130.394C301.393 135.192 296.928 139.933 292.353 144.616C231.832 206.875 156.484 261.262 68.4031 301.6C27.1463 272.582 0 223.366 0 167.572C0 165.848 0 164.124 0.082679 162.4C0.633873 144.472 3.96859 127.291 9.67345 111.288C25.3273 67.3592 58.8124 32.4227 100.979 16.1037C117.79 9.58187 135.979 6.048 154.941 6.048C228.249 6.048 289.68 59.1135 305.775 130.423L305.802 130.394Z" fill="#F9532C"/>
<path d="M132.948 77.1897C132.948 115.459 103.184 146.488 66.4743 146.488C42.4147 146.488 21.3316 133.157 9.67383 113.189C25.3277 69.2313 58.8127 34.2949 100.979 17.9759C120.133 30.1289 132.921 52.1079 132.921 77.1897H132.948Z" fill="#FFCC00"/>
<path d="M292.353 146.488C231.832 208.747 156.484 263.134 68.4031 303.472C27.1463 274.454 0 225.239 0 169.444C0 167.72 0 165.996 0.082679 164.272H52.1429L66.8322 186.883H46.6034V215.528H75.8443V115.89H108.64V195.876H126.086V146.459H292.326L292.353 146.488Z" fill="#D61E00"/>
<path d="M241.836 303.242C235.139 307.983 228.056 312.206 220.643 315.798C207.855 314.045 195.067 324.445 182.28 328.468C178.89 329.1 175.472 329.617 172 329.991C166.956 329.732 161.913 327.721 156.87 322.808C142.401 308.73 127.959 318.412 113.491 325.106C108.75 323.756 104.12 322.147 99.573 320.337C92.7106 317.579 86.0963 314.361 79.73 310.684C79.6749 310.655 79.6198 310.597 79.5371 310.569C79.5922 310.54 79.6473 310.511 79.73 310.482C83.8364 308.557 87.9428 306.604 91.9941 304.593C113.601 308.759 135.235 276.695 156.842 297.755C182.555 322.808 208.268 272.702 233.954 297.755C236.572 300.312 239.19 302.064 241.781 303.214L241.836 303.242Z" fill="#D61E00"/>
<path d="M294.172 240.523C288.936 251.642 282.515 262.043 275.074 271.552C261.376 278.132 247.679 286.119 233.982 272.759C208.269 247.706 182.556 297.812 156.87 272.759C156.016 271.897 155.134 271.15 154.252 270.489C162.988 265.174 171.587 259.687 180.075 254.027C198.044 249.43 216.041 230.238 234.01 247.735C254.073 267.272 274.109 241.069 294.172 240.523Z" fill="#D61E00"/>
<path d="M308.007 195.014C306.85 202.599 305.196 209.983 303.074 217.165C280.062 207.311 257.022 245.149 234.01 222.71C232.273 221.015 230.537 219.694 228.801 218.631C234.671 214.005 240.459 209.293 246.163 204.495C266.778 208.546 287.393 179.586 307.98 194.985L308.007 195.014Z" fill="#D61E00"/>
<path d="M305.802 130.394C301.393 135.192 296.928 139.933 292.353 144.616C231.832 206.875 156.484 261.262 68.4031 301.6C27.1463 272.582 0 223.366 0 167.572C0 165.848 0 164.124 0.082679 162.4C0.633873 144.472 3.96859 127.291 9.67345 111.288C25.3273 67.3591 58.8124 32.4227 100.979 16.1037C117.79 9.58184 135.979 6.04797 154.941 6.04797C228.249 6.04797 289.68 59.1134 305.775 130.423L305.802 130.394Z" fill="#F9532C"/>
<path d="M132.947 77.1897C132.947 115.459 103.183 146.488 66.4734 146.488C42.4138 146.488 21.3306 133.157 9.67285 113.189C25.3268 69.2314 58.8118 34.2949 100.978 17.9759C120.132 30.129 132.92 52.1079 132.92 77.1897H132.947Z" fill="#FFCC00"/>
<path d="M292.353 146.488C231.832 208.747 156.484 263.134 68.4031 303.472C27.1463 274.454 0 225.239 0 169.444C0 167.72 0 165.996 0.082679 164.272H52.1429L66.8322 186.883H46.6034V215.528H75.8443V115.89H108.64V195.876H126.086V146.459H292.326L292.353 146.488Z" fill="#D61E00"/>
<path d="M308.007 195.014C306.85 202.599 305.196 209.983 303.074 217.165C280.062 207.311 257.022 245.149 234.01 222.71C232.273 221.015 230.537 219.694 228.801 218.631C234.671 214.005 240.459 209.293 246.163 204.495C266.778 208.546 287.393 179.586 307.98 194.985L308.007 195.014Z" fill="#D61E00"/>
<path d="M305.802 130.394C301.393 135.192 296.928 139.933 292.353 144.616C231.832 206.875 156.484 261.262 68.4031 301.6C27.1463 272.582 0 223.366 0 167.572C0 165.848 0 164.124 0.082679 162.4C0.633873 144.472 3.96859 127.291 9.67345 111.288C25.3273 67.3591 58.8124 32.4227 100.979 16.1037C117.79 9.58184 135.979 6.04797 154.941 6.04797C228.249 6.04797 289.68 59.1134 305.775 130.423L305.802 130.394Z" fill="#F9532C"/>
<path d="M132.947 77.1897C132.947 115.459 103.183 146.488 66.4734 146.488C42.4138 146.488 21.3306 133.157 9.67285 113.189C25.3268 69.2314 58.8118 34.2949 100.978 17.9759C120.132 30.129 132.92 52.1079 132.92 77.1897H132.947Z" fill="#FFCC00"/>
<path d="M292.353 146.488C231.832 208.747 156.484 263.134 68.4031 303.472C27.1463 274.454 0 225.239 0 169.444C0 167.72 0 165.996 0.082679 164.272H52.1429L66.8322 186.883H46.6034V215.528H75.8443V115.89H108.64V195.876H126.086V146.459H292.326L292.353 146.488Z" fill="#D61E00"/>
<path d="M241.835 303.242C235.138 307.983 228.055 312.206 220.642 315.797C207.854 314.045 195.066 324.445 182.279 328.468C178.889 329.1 175.471 329.617 171.999 329.99C166.955 329.732 161.912 327.721 156.869 322.808C142.4 308.73 127.958 318.412 113.49 325.106C108.749 323.756 104.119 322.147 99.572 320.337C92.7097 317.579 86.0953 314.361 79.729 310.683C79.6739 310.655 79.6188 310.597 79.5361 310.569C79.5913 310.54 79.6464 310.511 79.729 310.482C83.8354 308.557 87.9418 306.604 91.9931 304.593C113.6 308.758 135.234 276.695 156.841 297.755C182.554 322.808 208.267 272.702 233.953 297.755C236.571 300.312 239.189 302.064 241.78 303.213L241.835 303.242Z" fill="#D61E00"/>
<path d="M294.173 240.523C288.937 251.642 282.516 262.043 275.075 271.553C261.377 278.132 247.68 286.119 233.983 272.759C208.27 247.706 182.557 297.812 156.871 272.759C156.017 271.897 155.135 271.15 154.253 270.49C162.989 265.174 171.588 259.687 180.076 254.027C198.045 249.43 216.042 230.238 234.011 247.735C254.074 267.272 274.11 241.069 294.173 240.523Z" fill="#D61E00"/>
<path d="M308.007 195.014C306.85 202.599 305.196 209.983 303.074 217.165C280.062 207.311 257.022 245.149 234.01 222.71C232.273 221.015 230.537 219.694 228.801 218.631C234.671 214.005 240.459 209.293 246.163 204.495C266.778 208.546 287.393 179.586 307.98 194.985L308.007 195.014Z" fill="#D61E00"/>
<path d="M305.802 130.394C301.393 135.192 296.928 139.933 292.353 144.616C231.832 206.875 156.484 261.262 68.4031 301.6C27.1463 272.582 0 223.366 0 167.572C0 165.848 0 164.124 0.082679 162.4C0.633873 144.472 3.96859 127.291 9.67345 111.288C25.3273 67.3591 58.8124 32.4227 100.979 16.1037C117.79 9.58184 135.979 6.04797 154.941 6.04797C228.249 6.04797 289.68 59.1134 305.775 130.423L305.802 130.394Z" fill="#F9532C"/>
<path d="M132.947 77.1897C132.947 115.459 103.183 146.488 66.4734 146.488C42.4138 146.488 21.3306 133.157 9.67285 113.189C25.3268 69.2314 58.8118 34.2949 100.978 17.9759C120.132 30.129 132.92 52.1079 132.92 77.1897H132.947Z" fill="#FFCC00"/>
<path d="M292.353 146.488C231.832 208.747 156.484 263.134 68.4031 303.472C27.1463 274.454 0 225.239 0 169.444C0 167.72 0 165.996 0.082679 164.272H52.1429L66.8322 186.883H46.6034V215.528H75.8443V115.89H108.64V195.876H126.086V146.459H292.326L292.353 146.488Z" fill="#D61E00"/>
<path d="M308.007 195.014C306.85 202.599 305.196 209.983 303.074 217.165C280.062 207.311 257.022 245.149 234.01 222.71C232.273 221.015 230.537 219.694 228.801 218.631C234.671 214.005 240.459 209.293 246.163 204.495C266.778 208.546 287.393 179.586 307.98 194.985L308.007 195.014Z" fill="#D61E00"/>
<path d="M309.908 169.444V170.622C309.908 170.938 309.908 171.254 309.908 171.541C302.688 165.134 295.439 164.502 288.219 166.283C295.054 159.56 301.723 152.723 308.282 145.741C309.357 153.47 309.936 161.37 309.936 169.415L309.908 169.444Z" fill="#D61E00"/>
<path d="M104.92 106.868H80.75V112.097H104.92V106.868Z" fill="#D61E00"/>
<path d="M92.8487 68.628C91.333 68.628 90.0928 69.9209 90.0928 71.5011V103.737H95.6047V71.5011C95.6047 69.9209 94.3645 68.628 92.8487 68.628Z" fill="#D61E00"/>
<path d="M219.871 48.0281C243.903 48.0568 268.211 46.649 292.657 43.6898C304.342 65.64 316.496 87.3603 329.173 108.822C250.215 202.656 139.59 282.585 3.58301 330.048C102.274 248.826 174.977 150.625 219.871 48.0281Z" fill="#FFCC00"/>
<path d="M57.5996 296.778C129.751 227.422 191.788 136.921 231.005 49.8094C250.931 49.6083 266.833 57.854 286.758 55.6992C296.129 73.11 312.031 83.769 322.007 100.864C252.832 181.08 158.358 252.418 57.6272 296.778H57.5996Z" fill="#FFB200"/>
<path d="M334.409 100.031C332.7 102.961 330.964 105.892 329.2 108.822C317.019 95.5198 305.306 81.9303 294.034 68.0821C293.868 68.3694 293.731 68.628 293.565 68.8866C285.876 82.2176 264.876 103.019 264.655 103.019C266.639 107.845 268.651 112.701 270.691 117.527C268.376 120.803 266.006 124.078 263.635 127.325C258.84 122.728 254.127 118.102 249.47 113.419C242.828 111.408 236.269 109.311 229.765 107.127C232.162 103.995 234.532 100.864 236.875 97.7034C242.497 97.4735 248.147 97.1288 253.797 96.7265C253.907 96.7265 265.013 70.6104 272.813 57.6529C272.978 57.3943 273.144 57.1357 273.281 56.8772C255.119 54.7224 237.316 51.7631 219.926 48.0281C221.745 45.4136 223.536 42.8279 225.3 40.2134C225.3 40.2134 230.536 32.4561 240.761 33.5766C248.23 34.5535 273.75 34.2662 287.116 33.1744C292.794 23.0325 297.286 14.126 297.313 14.126C297.424 14.126 307.869 -3.57208 316.578 0.65132C318.259 1.45578 319.361 2.74866 320.023 4.3863C322.971 11.5115 318.011 24.4115 317.9 24.4115C317.9 24.4115 313.436 33.4904 307.814 43.8622C314.483 55.2682 328.098 76.9599 332.92 82.9358C339.48 91.1528 334.464 99.9731 334.436 99.9731L334.409 100.031Z" fill="url(#paint0_linear_1_2)"/>
<path d="M334.41 100.031C332.701 102.961 330.965 105.892 329.201 108.822C317.019 95.5199 305.307 81.9303 294.035 68.0821C293.869 68.3694 293.732 68.628 293.566 68.8866C285.877 82.2176 264.877 103.019 264.656 103.019C266.64 107.845 268.652 112.701 270.692 117.528C268.377 120.803 266.007 124.078 263.636 127.325C258.841 122.728 254.128 118.102 249.471 113.419L316.523 0.708771L319.968 4.44375C322.917 11.5689 317.957 24.469 317.846 24.469C317.846 24.469 313.382 33.5479 307.759 43.9196C314.429 55.3257 328.043 77.0173 332.866 82.9933C339.426 91.2103 334.41 100.031 334.382 100.031H334.41Z" fill="#F9532C"/>
<path d="M229.572 43.5749C231.639 40.5581 235.222 38.6332 238.915 38.5757L249.553 38.2597C256.636 38.0873 263.746 37.9724 270.829 37.8287L281.439 37.6276C283.203 37.5702 284.994 37.5414 286.703 37.4265H287.337C287.502 37.369 287.668 37.3403 287.833 37.3116C288.164 37.2541 288.467 37.1392 288.77 36.9955C289.376 36.7082 289.9 36.2485 290.286 35.6739L295.522 26.2216C297.286 23.0325 299.133 19.8721 300.952 16.683L301.007 16.5968C301.833 15.4476 302.688 14.2696 303.597 13.1491C304.507 12.0286 305.471 10.9656 306.463 9.96002C307.483 8.95445 308.558 8.00634 309.715 7.20188C310.294 6.79965 310.901 6.42615 311.562 6.13885C312.196 5.85154 312.885 5.59296 313.574 5.6217C312.885 5.70789 312.279 6.05265 311.7 6.42615C311.121 6.79965 310.597 7.23061 310.074 7.6903C309.054 8.60968 308.117 9.64398 307.235 10.7357C306.353 11.8275 305.554 12.948 304.755 14.0972C303.956 15.2465 303.239 16.4244 302.495 17.6598L302.55 17.5449C300.924 20.8202 299.298 24.1242 297.617 27.3995L295.109 32.3124L293.814 34.7546L293.18 35.9612L292.849 36.5646C292.739 36.7657 292.573 37.053 292.408 37.2829C291.774 38.231 290.892 38.978 289.9 39.4951C289.404 39.7537 288.88 39.9261 288.329 40.041C288.054 40.0985 287.778 40.1272 287.502 40.1559H286.813C284.994 40.2996 283.231 40.3283 281.439 40.357C277.884 40.4145 274.329 40.4432 270.774 40.4145C263.663 40.3858 256.58 40.2421 249.47 40.0123C245.915 39.8973 242.36 39.7537 238.832 39.5813C235.415 39.3802 231.887 40.788 229.489 43.5174L229.572 43.5749Z" fill="white"/>
<path d="M305.802 130.394C301.393 135.192 296.928 139.933 292.353 144.616C231.832 206.875 156.484 261.262 68.4031 301.6C27.1463 272.582 0 223.366 0 167.572C0 165.848 0 164.124 0.082679 162.4C0.633873 144.472 3.96859 127.291 9.67345 111.288C25.3273 67.3591 58.8124 32.4227 100.979 16.1037C117.79 9.58184 135.979 6.04797 154.941 6.04797C228.249 6.04797 289.68 59.1134 305.775 130.423L305.802 130.394Z" fill="#F9532C"/>
<path d="M132.947 77.1897C132.947 115.459 103.183 146.488 66.4734 146.488C42.4138 146.488 21.3306 133.157 9.67285 113.189C25.3268 69.2314 58.8118 34.2949 100.978 17.9759C120.132 30.129 132.92 52.1079 132.92 77.1897H132.947Z" fill="#FFCC00"/>
<path d="M292.353 146.488C231.832 208.747 156.484 263.134 68.4031 303.472C27.1463 274.454 0 225.239 0 169.444C0 167.72 0 165.996 0.082679 164.272H52.1429L66.8322 186.883H46.6034V215.528H75.8443V115.89H108.64V195.876H126.086V146.459H292.326L292.353 146.488Z" fill="#D61E00"/>
<path d="M241.835 303.242C235.138 307.983 228.055 312.206 220.642 315.797C207.854 314.045 195.066 324.445 182.279 328.468C178.889 329.1 175.471 329.617 171.999 329.99C166.955 329.732 161.912 327.721 156.869 322.808C142.4 308.73 127.958 318.412 113.49 325.106C108.749 323.756 104.119 322.147 99.572 320.337C92.7097 317.579 86.0953 314.361 79.729 310.683C79.6739 310.655 79.6188 310.597 79.5361 310.569C79.5913 310.54 79.6464 310.511 79.729 310.482C83.8354 308.557 87.9418 306.604 91.9931 304.593C113.6 308.758 135.234 276.695 156.841 297.755C182.554 322.808 208.267 272.702 233.953 297.755C236.571 300.312 239.189 302.064 241.78 303.213L241.835 303.242Z" fill="#D61E00"/>
<path d="M294.173 240.523C288.937 251.642 282.516 262.043 275.075 271.553C261.377 278.132 247.68 286.119 233.983 272.759C208.27 247.706 182.557 297.812 156.871 272.759C156.017 271.897 155.135 271.15 154.253 270.49C162.989 265.174 171.588 259.687 180.076 254.027C198.045 249.43 216.042 230.238 234.011 247.735C254.074 267.272 274.11 241.069 294.173 240.523Z" fill="#D61E00"/>
<path d="M308.007 195.014C306.85 202.599 305.196 209.983 303.074 217.165C280.062 207.311 257.022 245.149 234.01 222.71C232.273 221.015 230.537 219.694 228.801 218.631C234.671 214.005 240.459 209.293 246.163 204.495C266.778 208.546 287.393 179.586 307.98 194.985L308.007 195.014Z" fill="#D61E00"/>
<path d="M305.802 130.394C301.393 135.192 296.928 139.933 292.353 144.616C231.832 206.875 156.484 261.262 68.4031 301.6C27.1463 272.582 0 223.366 0 167.572C0 165.848 0 164.124 0.082679 162.4C0.633873 144.472 3.96859 127.291 9.67345 111.288C25.3273 67.3591 58.8124 32.4227 100.979 16.1037C117.79 9.58184 135.979 6.04797 154.941 6.04797C228.249 6.04797 289.68 59.1134 305.775 130.423L305.802 130.394Z" fill="#F9532C"/>
<path d="M132.947 77.1897C132.947 115.459 103.183 146.488 66.4734 146.488C42.4138 146.488 21.3306 133.157 9.67285 113.189C25.3268 69.2314 58.8118 34.2949 100.978 17.9759C120.132 30.129 132.92 52.1079 132.92 77.1897H132.947Z" fill="#FFCC00"/>
<path d="M292.353 146.488C231.832 208.747 156.484 263.134 68.4031 303.472C27.1463 274.454 0 225.239 0 169.444C0 167.72 0 165.996 0.082679 164.272H52.1429L66.8322 186.883H46.6034V215.528H75.8443V115.89H108.64V195.876H126.086V146.459H292.326L292.353 146.488Z" fill="#D61E00"/>
<path d="M308.007 195.014C306.85 202.599 305.196 209.983 303.074 217.165C280.062 207.311 257.022 245.149 234.01 222.71C232.273 221.015 230.537 219.694 228.801 218.631C234.671 214.005 240.459 209.293 246.163 204.495C266.778 208.546 287.393 179.586 307.98 194.985L308.007 195.014Z" fill="#D61E00"/>
<path d="M305.802 130.394C301.393 135.192 296.928 139.933 292.353 144.616C231.832 206.875 156.484 261.262 68.4031 301.6C27.1463 272.582 0 223.366 0 167.572C0 165.848 0 164.124 0.082679 162.4C0.633873 144.472 3.96859 127.291 9.67345 111.288C25.3273 67.3591 58.8124 32.4227 100.979 16.1037C117.79 9.58184 135.979 6.04797 154.941 6.04797C228.249 6.04797 289.68 59.1134 305.775 130.423L305.802 130.394Z" fill="#F9532C"/>
<path d="M132.947 77.1897C132.947 115.459 103.183 146.488 66.4734 146.488C42.4138 146.488 21.3306 133.157 9.67285 113.189C25.3268 69.2314 58.8118 34.2949 100.978 17.9759C120.132 30.129 132.92 52.1079 132.92 77.1897H132.947Z" fill="#FFCC00"/>
<path d="M292.353 146.488C231.832 208.747 156.484 263.134 68.4031 303.472C27.1463 274.454 0 225.239 0 169.444C0 167.72 0 165.996 0.082679 164.272H52.1429L66.8322 186.883H46.6034V215.528H75.8443V115.89H108.64V195.876H126.086V146.459H292.326L292.353 146.488Z" fill="#D61E00"/>
<path d="M241.835 303.242C235.138 307.983 228.055 312.206 220.642 315.797C207.854 314.045 195.066 324.445 182.279 328.468C178.889 329.1 175.471 329.617 171.999 329.99C166.955 329.732 161.912 327.721 156.869 322.808C142.4 308.73 127.958 318.412 113.49 325.106C108.749 323.756 104.119 322.147 99.572 320.337C92.7097 317.579 86.0953 314.361 79.729 310.683C79.6739 310.655 79.6188 310.597 79.5361 310.569C79.5913 310.54 79.6464 310.511 79.729 310.482C83.8354 308.557 87.9418 306.604 91.9931 304.593C113.6 308.758 135.234 276.695 156.841 297.755C182.554 322.808 208.267 272.702 233.953 297.755C236.571 300.312 239.189 302.064 241.78 303.213L241.835 303.242Z" fill="#D61E00"/>
<path d="M294.173 240.523C288.937 251.642 282.516 262.043 275.075 271.553C261.377 278.132 247.68 286.119 233.983 272.759C208.27 247.706 182.557 297.812 156.871 272.759C156.017 271.897 155.135 271.15 154.253 270.49C162.989 265.174 171.588 259.687 180.076 254.027C198.045 249.43 216.042 230.238 234.011 247.735C254.074 267.272 274.11 241.069 294.173 240.523Z" fill="#D61E00"/>
<path d="M308.007 195.014C306.85 202.599 305.196 209.983 303.074 217.165C280.062 207.311 257.022 245.149 234.01 222.71C232.273 221.015 230.537 219.694 228.801 218.631C234.671 214.005 240.459 209.293 246.163 204.495C266.778 208.546 287.393 179.586 307.98 194.985L308.007 195.014Z" fill="#D61E00"/>
<path d="M305.802 130.394C301.393 135.192 296.928 139.933 292.353 144.616C231.832 206.875 156.484 261.262 68.4031 301.6C27.1463 272.582 0 223.366 0 167.572C0 165.848 0 164.124 0.082679 162.4C0.633873 144.472 3.96859 127.291 9.67345 111.288C25.3273 67.3591 58.8124 32.4227 100.979 16.1037C117.79 9.58184 135.979 6.04797 154.941 6.04797C228.249 6.04797 289.68 59.1134 305.775 130.423L305.802 130.394Z" fill="#F9532C"/>
<path d="M132.947 77.1897C132.947 115.459 103.183 146.488 66.4734 146.488C42.4138 146.488 21.3306 133.157 9.67285 113.189C25.3267 69.2314 58.8118 34.2949 100.978 17.9759C120.132 30.129 132.92 52.1079 132.92 77.1897H132.947Z" fill="#FFCC00"/>
<path d="M292.353 146.488C231.832 208.747 156.484 263.134 68.4031 303.472C27.1463 274.454 0 225.239 0 169.444C0 167.72 0 165.996 0.082679 164.272H52.1429L66.8322 186.883H46.6034V215.528H75.8443V115.89H108.64V195.876H126.086V146.459H292.326L292.353 146.488Z" fill="#D61E00"/>
<path d="M308.007 195.014C306.85 202.599 305.196 209.983 303.074 217.165C280.062 207.311 257.022 245.149 234.01 222.71C232.273 221.015 230.537 219.694 228.801 218.631C234.671 214.005 240.459 209.293 246.163 204.495C266.778 208.546 287.393 179.586 307.98 194.985L308.007 195.014Z" fill="#D61E00"/>
<path d="M309.909 169.444V170.622C309.909 170.938 309.909 171.254 309.909 171.541C302.689 165.134 295.44 164.502 288.22 166.284C295.055 159.561 301.724 152.723 308.283 145.741C309.358 153.47 309.937 161.371 309.937 169.415L309.909 169.444Z" fill="#D61E00"/>
<path d="M104.919 106.868H80.749V112.097H104.919V106.868Z" fill="#D61E00"/>
<path d="M92.8487 68.6279C91.333 68.6279 90.0928 69.9208 90.0928 71.501V103.737H95.6047V71.501C95.6047 69.9208 94.3645 68.6279 92.8487 68.6279Z" fill="#D61E00"/>
<path d="M219.872 48.028C243.904 48.0568 268.212 46.649 292.658 43.6897C304.343 65.6399 316.497 87.3603 329.174 108.822C250.216 202.656 139.591 282.585 3.58398 330.048C102.275 248.826 174.978 150.625 219.872 48.028Z" fill="#FFCC00"/>
<path d="M57.5986 296.778C129.75 227.422 191.787 136.921 231.004 49.8093C250.93 49.6082 266.832 57.8539 286.757 55.6991C296.128 73.1099 312.03 83.769 322.006 100.864C252.831 181.08 158.357 252.418 57.6262 296.778H57.5986Z" fill="#FFB200"/>
<path d="M334.409 100.031C332.7 102.961 330.964 105.892 329.2 108.822C317.019 95.5199 305.306 81.9303 294.034 68.0821C293.868 68.3694 293.731 68.628 293.565 68.8866C285.876 82.2176 264.876 103.019 264.655 103.019C266.639 107.845 268.651 112.701 270.691 117.528C268.376 120.803 266.006 124.078 263.635 127.325C258.84 122.728 254.127 118.102 249.47 113.419C242.828 111.408 236.269 109.311 229.765 107.127C232.162 103.995 234.532 100.864 236.875 97.7034C242.497 97.4736 248.147 97.1288 253.797 96.7266C253.907 96.7266 265.013 70.6104 272.813 57.6529C272.978 57.3943 273.144 57.1358 273.281 56.8772C255.119 54.7224 237.316 51.7631 219.926 48.0282C221.745 45.4137 223.536 42.8279 225.3 40.2134C225.3 40.2134 230.536 32.4562 240.761 33.5766C248.23 34.5535 273.75 34.2662 287.116 33.1744C292.794 23.0325 297.286 14.126 297.313 14.126C297.424 14.126 307.869 -3.57205 316.578 0.65135C318.259 1.45581 319.361 2.74869 320.023 4.38633C322.971 11.5115 318.011 24.4116 317.9 24.4116C317.9 24.4116 313.436 33.4905 307.814 43.8622C314.483 55.2683 328.098 76.9599 332.92 82.9359C339.48 91.1528 334.464 99.9731 334.436 99.9731L334.409 100.031Z" fill="url(#paint1_linear_1_2)"/>
<path d="M334.41 100.031C332.701 102.961 330.965 105.892 329.201 108.822C317.019 95.5199 305.307 81.9303 294.035 68.0821C293.869 68.3694 293.732 68.628 293.566 68.8866C285.877 82.2176 264.877 103.019 264.656 103.019C266.64 107.845 268.652 112.701 270.692 117.528C268.377 120.803 266.007 124.078 263.636 127.325C258.841 122.728 254.128 118.102 249.471 113.419L316.523 0.708801L319.968 4.44378C322.917 11.569 317.957 24.469 317.846 24.469C317.846 24.469 313.382 33.5479 307.759 43.9197C314.429 55.3257 328.043 77.0174 332.866 82.9933C339.426 91.2103 334.41 100.031 334.382 100.031H334.41Z" fill="#F9532C"/>
<path d="M229.572 43.5749C231.639 40.5581 235.222 38.6332 238.915 38.5757L249.553 38.2597C256.636 38.0873 263.746 37.9724 270.829 37.8287L281.439 37.6276C283.203 37.5702 284.994 37.5414 286.703 37.4265H287.337C287.502 37.369 287.668 37.3403 287.833 37.3116C288.164 37.2541 288.467 37.1392 288.77 36.9955C289.376 36.7082 289.9 36.2485 290.286 35.6739L295.522 26.2216C297.286 23.0325 299.133 19.8721 300.952 16.683L301.007 16.5968C301.833 15.4476 302.688 14.2696 303.597 13.1491C304.507 12.0286 305.471 10.9656 306.463 9.96002C307.483 8.95445 308.558 8.00634 309.715 7.20188C310.294 6.79965 310.901 6.42615 311.562 6.13885C312.196 5.85154 312.885 5.59296 313.574 5.6217C312.885 5.70789 312.279 6.05265 311.7 6.42615C311.121 6.79965 310.597 7.23061 310.074 7.6903C309.054 8.60968 308.117 9.64398 307.235 10.7357C306.353 11.8275 305.554 12.948 304.755 14.0972C303.956 15.2465 303.239 16.4244 302.495 17.6598L302.55 17.5449C300.924 20.8202 299.298 24.1242 297.617 27.3995L295.109 32.3124L293.814 34.7546L293.18 35.9612L292.849 36.5646C292.739 36.7657 292.573 37.053 292.408 37.2829C291.774 38.231 290.892 38.978 289.9 39.4951C289.404 39.7537 288.88 39.9261 288.329 40.041C288.054 40.0985 287.778 40.1272 287.502 40.1559H286.813C284.994 40.2996 283.231 40.3283 281.439 40.357C277.884 40.4145 274.329 40.4432 270.774 40.4145C263.663 40.3858 256.58 40.2421 249.47 40.0123C245.915 39.8973 242.36 39.7537 238.832 39.5813C235.415 39.3802 231.887 40.788 229.489 43.5174L229.572 43.5749Z" fill="white"/>
<defs>
<linearGradient id="paint0_linear_1_2" x1="232.521" y1="60.9856" x2="303.278" y2="64.1057" gradientUnits="userSpaceOnUse">
<stop stop-color="#D61E00"/>
<stop offset="1" stop-color="#F9532C"/>
</linearGradient>
<linearGradient id="paint1_linear_1_2" x1="232.521" y1="60.9857" x2="303.278" y2="64.1057" gradientUnits="userSpaceOnUse">
<stop stop-color="#D61E00"/>
<stop offset="1" stop-color="#F9532C"/>
</linearGradient>
</defs>
</svg>
