<svg width="464" height="126" viewBox="0 0 464 126" fill="none" xmlns="http://www.w3.org/2000/svg">
<g clip-path="url(#clip0_1_23258)">
<path d="M117.169 50.4834C115.48 52.3153 113.769 54.1254 112.016 55.9134C88.8275 79.6852 59.9575 100.451 26.209 115.853C10.4012 104.773 0 85.9819 0 64.6784C0 64.0202 0 63.362 0.0316788 62.7038C0.242871 55.8586 1.52058 49.2986 3.70642 43.1884C9.70428 26.4154 22.5342 13.0761 38.6904 6.84519C45.1318 4.35503 52.1011 3.00574 59.3661 3.00574C87.4547 3.00574 110.992 23.2671 117.159 50.4943L117.169 50.4834Z" fill="#F9532C"/>
<path d="M50.9392 29.4541C50.9392 44.066 39.5348 55.9135 25.4694 55.9135C16.2509 55.9135 8.17277 50.8234 3.70605 43.1994C9.70392 26.4155 22.5338 13.0761 38.6901 6.84521C46.029 11.4855 50.9286 19.8774 50.9286 29.4541H50.9392Z" fill="#FFCC00"/>
<path d="M112.016 55.9135C88.8275 79.6852 59.9575 100.451 26.209 115.853C10.4012 104.773 0 85.9819 0 64.6784C0 64.0202 0 63.3621 0.0316788 62.7039H19.9788L25.6071 71.3372H17.8563V82.2741H29.0601V44.2306H41.626V74.7707H48.3102V55.9025H112.006L112.016 55.9135Z" fill="#D61E00"/>
<path d="M92.6602 115.765C90.0942 117.575 87.3804 119.188 84.5398 120.559C79.6402 119.89 74.7405 123.861 69.8408 125.397C68.542 125.638 67.2326 125.835 65.9021 125.978C63.9697 125.879 62.0373 125.111 60.1049 123.236C54.5611 117.86 49.0279 121.557 43.4841 124.113C41.6678 123.598 39.8938 122.983 38.1514 122.292C35.5221 121.239 32.9878 120.01 30.5485 118.606C30.5274 118.595 30.5063 118.573 30.4746 118.562C30.4957 118.551 30.5168 118.54 30.5485 118.529C32.1219 117.795 33.6953 117.049 35.2476 116.281C43.5263 117.871 51.8156 105.629 60.0943 113.67C69.9464 123.236 79.7986 104.104 89.6401 113.67C90.6433 114.646 91.6465 115.315 92.6391 115.754L92.6602 115.765Z" fill="#D61E00"/>
<path d="M112.714 91.8179C110.707 96.0633 108.247 100.034 105.396 103.665C100.148 106.177 94.8996 109.227 89.6515 104.126C79.7994 94.5604 69.9473 113.692 60.1057 104.126C59.7784 103.797 59.4404 103.512 59.1025 103.26C62.4499 101.23 65.7445 99.1348 68.9969 96.9738C75.8818 95.2186 82.7772 87.8907 89.6621 94.5714C97.3495 102.031 105.026 92.0264 112.714 91.8179Z" fill="#D61E00"/>
<path d="M118.014 74.4416C117.571 77.3377 116.937 80.1569 116.124 82.8994C107.307 79.1367 98.4791 93.584 89.6618 85.0166C88.9965 84.3693 88.3313 83.8647 87.666 83.4588C89.9152 81.6927 92.1327 79.8936 94.3186 78.0617C102.217 79.6084 110.116 68.5508 118.004 74.4306L118.014 74.4416Z" fill="#D61E00"/>
<path d="M118.743 64.6784V65.1282C118.743 65.2489 118.743 65.3695 118.743 65.4792C115.976 63.033 113.199 62.7916 110.433 63.4718C113.051 60.9048 115.607 58.294 118.12 55.6283C118.532 58.5792 118.754 61.5959 118.754 64.6675L118.743 64.6784Z" fill="#D61E00"/>
<path d="M40.2002 40.786H30.9395V42.7825H40.2002V40.786Z" fill="#D61E00"/>
<path d="M35.5755 26.1851C34.9947 26.1851 34.5195 26.6787 34.5195 27.282V39.5902H36.6315V27.282C36.6315 26.6787 36.1563 26.1851 35.5755 26.1851Z" fill="#D61E00"/>
<path d="M84.2449 18.3197C93.4529 18.3306 102.766 17.7931 112.133 16.6632C116.61 25.0442 121.267 33.3374 126.124 41.5319C95.871 77.3595 53.4847 107.878 1.37305 126C39.187 94.9881 67.0433 57.4931 84.2449 18.3197Z" fill="#FFCC00"/>
<path d="M22.0693 113.297C49.7144 86.8156 73.4841 52.2605 88.5104 18.9998C96.145 18.923 102.238 22.0714 109.873 21.2486C113.463 27.8964 119.556 31.9662 123.378 38.4933C96.8736 69.1212 60.6753 96.3594 22.0799 113.297H22.0693Z" fill="#FFB200"/>
<path d="M128.13 38.1752C127.476 39.2941 126.81 40.413 126.134 41.532C121.467 36.4529 116.979 31.2642 112.66 25.9767C112.597 26.0864 112.544 26.1851 112.481 26.2838C109.535 31.3739 101.488 39.316 101.404 39.316C102.164 41.159 102.935 43.0129 103.716 44.8558C102.829 46.1064 101.921 47.357 101.013 48.5966C99.1758 46.8414 97.3701 45.0752 95.5855 43.2871C93.0407 42.5192 90.5275 41.7184 88.0354 40.8847C88.9541 39.689 89.8622 38.4933 90.7598 37.2866C92.9139 37.1989 95.0787 37.0672 97.2434 36.9136C97.2856 36.9136 101.541 26.942 104.53 21.9946C104.593 21.8959 104.656 21.7972 104.709 21.6984C97.7503 20.8757 90.9287 19.7458 84.2656 18.3197C84.9626 17.3214 85.6489 16.3342 86.3247 15.3359C86.3247 15.3359 88.3311 12.374 92.2487 12.8019C95.1103 13.1748 104.889 13.0651 110.01 12.6483C112.185 8.77591 113.906 5.37525 113.917 5.37525C113.959 5.37525 117.961 -1.3822 121.298 0.230375C121.942 0.537532 122.365 1.03118 122.618 1.65646C123.748 4.37699 121.847 9.30246 121.805 9.30246C121.805 9.30246 120.094 12.7689 117.94 16.7291C120.496 21.0841 125.712 29.3664 127.56 31.6481C130.073 34.7855 128.151 38.1532 128.141 38.1532L128.13 38.1752Z" fill="url(#paint0_linear_1_23258)"/>
<path d="M128.131 38.1752C127.476 39.2941 126.811 40.413 126.135 41.532C121.468 36.4529 116.98 31.2642 112.661 25.9767C112.597 26.0864 112.545 26.1851 112.481 26.2838C109.535 31.3739 101.489 39.316 101.404 39.316C102.165 41.159 102.935 43.0129 103.717 44.8558C102.83 46.1064 101.922 47.357 101.014 48.5966C99.1762 46.8414 97.3705 45.0752 95.5859 43.2871L121.277 0.252319L122.597 1.6784C123.727 4.39893 121.827 9.32441 121.784 9.32441C121.784 9.32441 120.074 12.7909 117.92 16.751C120.475 21.1061 125.691 29.3883 127.539 31.67C130.053 34.8074 128.131 38.1752 128.12 38.1752H128.131Z" fill="#F9532C"/>
<path d="M87.9614 16.6194C88.7533 15.4675 90.1261 14.7325 91.5411 14.7106L95.6171 14.5899C98.3309 14.5241 101.055 14.4802 103.769 14.4254L107.835 14.3486C108.51 14.3267 109.197 14.3157 109.851 14.2718H110.094C110.158 14.2499 110.221 14.2389 110.284 14.2279C110.411 14.206 110.527 14.1621 110.643 14.1073C110.876 13.9976 111.076 13.822 111.224 13.6026L113.231 9.99356C113.906 8.7759 114.614 7.56921 115.311 6.35156L115.332 6.31865C115.649 5.87985 115.976 5.43009 116.324 5.00226C116.673 4.57444 117.043 4.16855 117.423 3.78461C117.813 3.40066 118.225 3.03865 118.669 2.7315C118.89 2.57792 119.123 2.43531 119.376 2.32561C119.619 2.21591 119.883 2.11718 120.147 2.12815C119.883 2.16106 119.651 2.2927 119.429 2.43531C119.207 2.57792 119.007 2.74247 118.806 2.91799C118.415 3.26902 118.056 3.66394 117.718 4.08079C117.38 4.49765 117.074 4.92547 116.768 5.36427C116.462 5.80306 116.187 6.25283 115.902 6.72453L115.923 6.68065C115.3 7.93122 114.677 9.19276 114.033 10.4433L113.072 12.3192L112.576 13.2516L112.333 13.7123L112.206 13.9427C112.164 14.0195 112.101 14.1292 112.037 14.217C111.794 14.579 111.457 14.8642 111.076 15.0616C110.886 15.1604 110.686 15.2262 110.474 15.2701C110.369 15.292 110.263 15.303 110.158 15.3139H109.894C109.197 15.3688 108.521 15.3798 107.835 15.3907C106.472 15.4127 105.11 15.4236 103.748 15.4127C101.024 15.4017 98.3098 15.3469 95.5854 15.2591C94.2232 15.2152 92.861 15.1604 91.5094 15.0945C90.2 15.0178 88.8484 15.5553 87.9297 16.5974L87.9614 16.6194Z" fill="white"/>
</g>
<defs>
<linearGradient id="paint0_linear_1_23258" x1="89.0914" y1="23.2671" x2="116.202" y2="24.4667" gradientUnits="userSpaceOnUse">
<stop stop-color="#D61E00"/>
<stop offset="1" stop-color="#F9532C"/>
</linearGradient>
<clipPath id="clip0_1_23258">
<rect width="464" height="126" fill="white"/>
</clipPath>
</defs>
</svg>
